<svg xmlns="http://www.w3.org/2000/svg" width="320" height="160" viewBox="0 0 320 160"><path fill="#00008B" d="M0 0h320v160H0V0z"/><path fill="#FFF" d="M93.3 24.4V0H66.7v24.4L17.9 0H0v9l35.5 17.6H0v26.7h35.5L0 71v9h17.9l48.8-24.4V80h26.7V55.6L142.1 80H160v-9l-35.5-17.6H160V26.7h-35.5L160 9V0h-17.9L93.3 24.4z"/><path fill="#F00" d="M72 0h16v32h72v16H88v32H72V48H0V32h72V0zM0 0l53.3 26.7h-12L0 6V0zm160 0h-12L94.7 26.7h12L160 0zm0 80l-53.3-26.7h12L160 74v6zM0 80h12l53.3-26.7h-12L0 80z"/><path fill="#CC3" d="M208 41.1c0 39.5 3.4 53.7 14.2 64.6 10.7 10.9 14.9 12.6 18.1 14.3 3.4-1.9 7.5-4 17.4-13.7 9.8-9.9 14.4-24 14.4-65.9-13.9 5.9-20.6 5.1-32.7-.3-9.7 6.2-20.6 4.6-31.2 1.1h-.2z"/><path fill="#FFF" d="M209.9 43.4c0 17.4-1.6 38.5 7.1 53.4l45.5-.3c7.3-12.8 7.7-39.3 7.8-53.7-10.1 5.1-21.3 4.1-30.5-.8-9.5 5.4-21.9 5.1-30.1 1.6l.2-.2z"/><path fill="#9CF" d="M217.1 96.6c3.2 6.5 18.5 19 23.1 21.7 5.1-3.1 18.6-15.4 22.4-21.7h-45.5z"/><path fill="#F90" d="M241.1 61.7c1.4 3.2 5.9 6.9 7.2 8.6-1.6 1.7-1.9 1.6-1.7 4.8 2.9-2.9 2.9-3.1 4.6-2.6 4.1 3.8.8 11.9-2.3 13.7-3.4 1.7-2.7-.2-7.7 2.3 2.3 1.7 5-.3 7.1.2 1.1 1.1-.6 3.7.3 5.9 1.8-.2 1.7-3.8 2.1-5.1 1.4-4.8 9.6-8.2 10.1-12.6 1.8-.8 3.7-.2 5.7.9-1.1-4-4.6-4-5.5-5.3-2.3-3.2-4.2-6.9-9.1-8-3.4-.6-3.2.3-5.7-1.1-1.1-1.1-5.7-3.2-4.9-1.6l-.2-.1zm-11.6 13.7c2.3-2.6 3.4-8.2 4.6-10.1 2.3.6 2.3.9 5.1-.8-3.9-1.1-4.2-.9-4.6-2.7 1.5-5 10.6-6.1 13.7-4.1 3.4 1.8 1.1 2.3 5.7 5.4.7-2.6-2.5-3.9-3-5.9.7-1.6 3.7-1.1 5.4-3.1-1.1-1.4-4.3.5-5.7.7-5.1 1.1-12.1-4.3-16.3-2.6-1.4-1.1-1.7-2.9-1.7-5.1-3.4 2.9-1.7 5.7-2.3 7.2-2.1 3.4-4.6 6.9-3.4 11.4 1.1 3.4 1.8 2.7 1.6 5.4-.5 1.7-.3 6.3.9 5v-.7zm18.8 2c-3.7-.5-9.1 1.5-11.4 1.6-.7-2.1-.5-2.3-3.4-3.8 1.1 3.8 1.1 3.9 0 5.3-5.5 1.1-11.1-5.5-11-9.1 0-3.7 1.5-2.3 1.8-7.4-2.9.9-2.3 4.1-3.9 5.7-1.9 0-3.2-2.5-5.7-2.9-.7 1.6 2.6 3.4 3.7 4.3 3.7 3.8 2.3 12.2 6.2 14.9-.2 1.8-1.6 3-3.7 4.1 4.2 1.1 6.1-1.6 7.7-1.7 4.2 0 8.6.2 11.9-3.1 2.5-2.6 1.5-2.9 4.1-4 1.6-.7 5.7-3.2 3.8-3.4v-.5z"/><path fill="#FFF" d="M250.7 64.7c.5 0 .8.3.8.7 0 .3-.2.7-.7.7s-.8-.3-.8-.7c0-.3.3-.7.8-.7h-.1zm-22.8 1.1c-.3-.2 0-.7.2-.9.3-.2.8 0 1.1.3 0 .5 0 .9-.5 1.1-.5.2-.9 0-1.1-.3l.3-.2zm12.9 18c-.2.3-.7.5-1.1.2s-.3-.7 0-1.1c0-.2.6-.3.9 0 .3.3.4.5.2.9z"/></svg>