<svg xmlns="http://www.w3.org/2000/svg" width="224" height="160" viewBox="0 0 224 160"><path fill="#E41E20" d="M0 0h224v160H0V0z"/><path d="M155.3 97.7c-1.5-1.7-3-1.7-4.9.4-2.1 0-3.5.2-5.6.2 1.1-.9 1.7-1.7 2.8-2.6 1.7.6 3.4.4 4.1-1.5.6-.6 1.1-.9 2.6-1.1-.9-.7-1.9-1.1-3.5-.4-2.6-1.1-2.8.6-3.4 1.5-1.7 1.1-3.2 2.1-4.9 3.4-3.5-1.1-6.5-1.7-10.1-2.6 1.3-1.5 3.5-3.2 1.7-3.5-5.8-1.1-9.1-3.5-11-9.3-.9-2.4.9-3.2 1.7-1.7.9 2.1 1.9 4.3 4.5 6.2.9.6 3.5.2 2.1-1.3-1.7-1.3-2.4-1.9-3.2-5 0-1.7 1.7-2.4 2.6-.7 1.1 3.5 3.2 9.3 7.1 9.1 1.7 0 3.2-1.7 1.1-3-6.7-2.6-5.8-9.5-3-7.3 2.4 2.8 7.1 7.8 9.5 10.3 2.8 2.1 6 2.1 8.4 0 1.5-1.7.9-3.4-1.3-3-5 .4-9-2.1-13.3-8.8-.7-1.5-1.1-3.7.7-2.1 5.6 7.3 13.1 7.8 14.2 5.8 1.1-1.9.7-3.7-1.1-3.2-3.5 1.1-8 .4-13.4-6.2-.9-1.9-.6-3.4 1.1-2.4 4.1 3.5 9.5 6.3 12.3 4.7 2.1-1.3 2.1-4.5-.6-4.3-5.2.7-7.1-.4-12.1-4.7-1.1-.7-1.1-3 .7-1.5 4.1 2.6 9.9 3.7 12.1 2.2 2.1-1.3 1.7-5-1.7-3.7-2.5 1.6-5.5 1.4-11.5-2.7-1.5-1.3-.4-2.8.9-2.2 4.9 2.6 11.9 3.9 13.8-1.7.7-2.1-.6-3.4-2.4-1.9-4.1 3.7-9 1.9-11.6 0-.7 0-2.2-2.6.4-2.2 6.3 1.5 12.5.2 13.6-4.1.7-1.5-.6-3.9-3-1.9-3 3-6.2 3-10.3 3-2.1-.4-2.1-2.6-.4-3 4.3.2 12.7-3.2 14-8.8.4-2.4-2.1-5-3.4-2.4-2.1 3.7-6.7 7.3-11.9 7.8-.2-.4-.9-1.5-1.9-1.3-3 1.1-7.3 3.2-10.8 5-.7.4.2 2.4.4 3.2.4 3.5-1.9 5.6-4.3 4.9-3.4-.9-3.5-5.6-.9-8.8.7-.9 1.9-2.1 3.7-3 3.9-2.1 10.3-1.7 10.6-4.1-2.8.6-2.6 1.7-5.4-.2 1.9-.4 7.8.9 9.5-2.6.4-1.5-.7-1.7-1.5-.7-1.7 1.7-3.5 3.2-7.3 2.2.4-.4.9-.9 1.7-1.3 1.5-.9 2.4-.6 3.2.6.2-1.7-.2-3.4-4.5-2.6 0-1.1-3.4-2.8-8-.6-2.1.6-4.1 1.1-6.5 1.3 1.3 1.1 1.7 1.3 3 2.2-2.1.7-3.7 2.4-4.5 3.4 1.9 0 2.4 0 3.2.2-2.6.7-3.7 1.1-5 2.6.9.2 2.1.2 1.5.9-.6.4-2.8 3-3.5 3.5-.7-.6-3-3.4-3.5-3.5-.6-.6.6-.7 1.5-.9-1.3-1.3-2.6-1.9-5-2.6.6-.2 1.3-.2 3.2-.2-.7-1.1-2.4-2.6-4.5-3.4 1.3-.9 1.7-1.1 3-2.2-2.4-.2-4.5-.6-6.5-1.3-4.7-2.2-8.2-.6-8 .6-4.3-.7-4.9 1.1-4.5 2.6.7-1.1 1.7-1.5 3.2-.6.6.4 1.3.9 1.7 1.3-3.7.9-5.6-.6-7.3-2.2-.9-.9-1.9-.7-1.5.7 1.9 3.5 7.7 2.2 9.5 2.6-2.8 1.7-2.6.7-5.4.2.4 2.2 6.7 2.1 10.6 4.1 1.7.9 2.8 2.1 3.7 3 2.6 3 2.6 7.8-.9 8.8-2.4.6-4.7-1.3-4.3-4.9.2-.7 1.1-2.8.4-3.2-3.5-1.9-7.7-3.9-10.8-5-.7-.4-1.5.7-1.9 1.3C79.7 41 75 37.4 73 33.7c-1.5-2.6-3.7 0-3.4 2.4 1.3 5.2 9.3 8.8 14 8.8 1.7.4 1.7 2.6-.4 3-4.1 0-7.3 0-10.3-3-2.2-2.1-3.5.4-3 1.9 1.1 4.3 7.3 5.6 13.6 4.1 2.4-.4.9 2.2.4 2.2-2.6 1.9-7.3 3.7-11.6 0-1.9-1.5-3.2-.2-2.4 1.9 1.9 5.4 9 4.3 13.8 1.7 1.3-.7 2.4.9.9 2.2-6 4.3-9 4.3-11.8 2.6-3.4-1.3-3.7 2.4-1.7 3.7 2.2 1.3 8 .4 12.1-2.2 1.9-1.3 1.9.7.7 1.5-5 4.3-6.9 5.4-12.1 4.7-2.6-.2-2.6 3-.6 4.3 2.8 1.7 8.2-1.1 12.3-4.7 1.7-.9 2.1.6 1.1 2.4-5.2 6.7-9.9 7.5-13.4 6.2-1.9-.7-2.2 1.3-1.1 3.2.4 1.9 7.8 1.5 13.4-5.8 1.9-1.7 1.7.6.7 2.1-4.3 6.7-8 9.1-13.3 8.8-2.2-.4-2.8 1.3-1.3 3 2.6 2.1 5.6 2.1 8.4 0 2.4-2.4 7.1-7.5 9.5-10.3 2.8-2.2 3.5 4.7-3 7.3-2.2 1.3-.6 3 1.1 3 3.7 0 6-5.6 7.1-9.1.9-1.5 2.6-.7 2.6.7-.7 3.2-1.5 3.7-3.2 5-1.5 1.5 1.1 2.1 2.1 1.3 2.6-1.7 3.5-3.9 4.5-6.2.6-1.5 2.4-.7 1.7 1.7-2.1 5.8-5.2 8-11 9.3-2.1.4.2 2.1 1.7 3.5-3.5 1.1-6.5 1.7-10.1 2.6-1.7-1.1-3.2-2.1-4.9-3.4-.4-1.1-.7-2.8-3.4-1.5-1.7-.7-2.6-.6-3.5.4 1.5 0 2.1.4 2.6 1.1.7 1.9 2.4 2.1 4.1 1.5 1.1.9 1.7 1.7 2.8 2.6-2.1 0-3.5-.2-5.6-.2-1.6-2-3.1-2-4.4-.3-1.1.2-1.5.2-2.2 1.5 1.1-.6 1.9-.6 2.4-.2 2.1 1.1 3.5.9 4.5 0 2.1.2 3.9.2 5.8.4-.7.6-1.7.9-2.4 1.7-3-.9-4.7.4-5.2 2.8-.4.9-.6 2.1-.4 3.2.4-.9.7-1.9 1.7-2.4 2.6.7 3.7-.4 3.9-2.1 1.3-1.1 3.2-1.3 4.5-2.4 1.5.6 2.2.7 3.7 1.3.6 1.7 1.7 2.2 3.7 1.9 2.4 0 1.9 1.1 2.2 1.9.6-1.1.6-2.2-.9-3.2-.6-1.5-1.7-2.1-3.2-1.3-1.5-.4-1.9-.9-3.4-1.5 3.7-1.1 6.3-1.5 9.9-2.6.9.9 3 3.2 3.7 2.2 1.5-2.1 7.3-13.6 10.1-10.5 1.5 1.5.4 4.5-.6 6.3-1.5 3.4-4.3 5-6.2 6.2-2.1 1.3-3 .7-4.7.7-2.1.2-2.6 1.3-.9 2.6 4.1 2.1 5.4 0 7.3-1.5.9-1.1 2.6.2 1.5 1.5-2.1 2.4-3.9 3.9-6.3 3.9-2.6.6-2.2 2.1-.4 2.6 3 1.3 5.8-1.1 7.1-2.6 1.1-1.1 1.9-1.3 1.7.6-1.1 3.4-2.6 4.7-4.9 4.7-1.9-.2-1.9 1.3-.6 2.2 3.2 2.2 5.6-1.5 6.7-3.9.7-2.1 2.1-1.1 2.1.6 0 2.2-.9 4.1-3.7 6.5 2.1 3.4 4.5 6.7 6.7 10.1 2.1-3.4 4.5-6.7 6.7-10.1-2.8-2.2-3.7-4.1-3.7-6.5.2-1.7 1.3-2.6 2.1-.6 1.1 2.2 3.4 6.2 6.7 3.9 1.5-.9 1.3-2.4-.6-2.2-2.4-.2-3.9-1.5-4.9-4.7-.2-1.9.6-1.9 1.7-.6 1.3 1.5 4.1 3.9 7.1 2.6 1.7-.7 2.2-2.1-.4-2.4-2.4 0-4.3-1.5-6.3-3.9-1.1-1.3.6-2.6 1.5-1.5.9.7 2.1 2.1 3 2.2 1.1.2 2.6.2 4.3-.7 1.7-1.5 1.1-2.4-.9-2.6-1.7 0-2.6.7-4.7-.7-1.9-1.3-4.5-3-6.2-6.2-.9-1.9-2.1-4.9-.6-6.3 3-3.2 8.8 8.4 10.1 10.5.7.9 2.8-1.3 3.7-2.2 3.7 1.1 6.3 1.5 9.9 2.6-1.5.4-1.9.9-3.4 1.5-1.5-.7-2.8-.2-3.2 1.3-1.5.9-1.5 2.1-.9 3.2.2-.7-.2-1.7 2.2-1.9 2.1.4 3.2-.2 3.7-1.9 1.5-.6 2.2-.7 3.7-1.3 1.3 1.1 3.2 1.3 4.5 2.4.2 1.7 1.1 2.8 3.9 2.1.9.6 1.3 1.3 1.7 2.4.2-1.1 0-2.1-.4-3.2-.6-2.4-2.1-3.5-5.2-2.8-.7-.6-1.7-.9-2.4-1.7 2.1-.2 3.9-.2 5.8-.4 1.1.9 2.4 1.1 4.5 0 .6-.6 1.3-.4 2.4.2-.5-1.5-.9-1.5-2-1.7zm-25.8-62.5c0 1.3-4.1 1.3-4.1 0s4.1-1.3 4.1 0zm-35.4 0c0-1.3 4.1-1.3 4.1 0s-4.1 1.3-4.1 0z"/></svg>
