<svg xmlns="http://www.w3.org/2000/svg" width="240" height="160" viewBox="0 0 120 80"><path d="M0 0h120v80H0z"/><path fill="#CE1126" d="M0 0h120v40H0z"/><path fill="#F9D616" d="M57.4 33.6l-4.2-3.1h5.2l1.6-5 1.6 5h5.2l-4.2 3.1 1.6 5-4.2-3.1-4.2 3.1 1.6-5zm.1 11.2c-.2-.2.1-.5.3-.3 5.1 4.8 11.4 8.7 18.1 13.7.1-.1.3-.3.5-.6-3.7-2.7-23.1-15.9-23.3-20.3-3.2 6.3.9 10 3.5 11.5 8.6 4.8 12.1 7 18 10.9.5-.6.8-.9 1-1.1-6-4.6-12.8-8.8-18.1-13.8zm12.6 7.1c2.4 1.6 1.3.9 4.4 3 .6-.6 1.1-1.1 1.6-1.8l-1.2-1c.8-1 1.5-2 2.1-3.1l1.4.8c.6-1.2 1.2-2.5 1.6-3.8l-1.5-.5c.4-1.2.6-2.4.7-3.7l1.6.2c.1-1.4.1-2.7 0-4.1l-1.6.2c-.1-1.3-.4-2.5-.7-3.7l1.5-.5c-.4-1.3-.9-2.6-1.6-3.8l-1.5.9c-.6-1.1-1.3-2.2-2.1-3.1l1.2-1c-.9-1-1.8-2-2.9-2.9l-1 1.2c-1-.8-2-1.5-3.1-2.1l.8-1.4c-1.2-.6-2.5-1.2-3.8-1.6l-.5 1.5c-1.2-.3-2.4-.6-3.6-.7l-.4 3.6c13.9 1.4 18.9 18.7 8.6 27.4zM81 65.3c-1.3-.9-1.8-4.3-6.2-5-.1 0-.1-.2-.1-.3l2-2.3c1.7 1.6 4.4 3.3 5.8 5.5 1 1.4-.1 3.1-1.5 2.1zm-3.3-6c0-.1-.1-.3-.3-.3s-.3.1-.3.3.1.3.3.3.3-.2.3-.3zm2 1.7c0-.1-.1-.3-.3-.3-.1 0-.3.1-.3.3s.1.3.3.3c.2 0 .3-.1.3-.3zm1.7 1.8c0-.1-.1-.3-.3-.3-.1 0-.3.1-.3.3 0 .1.1.3.3.3.2-.1.3-.2.3-.3zm-16.3-8c-5.1 1.8-10.8.7-15-2.7l-2.3 2.8c1 .8 2 1.5 3.1 2.1l-.8 1.4c1.2.7 2.5 1.2 3.8 1.6l.5-1.5c1.2.4 2.4.6 3.7.7l-.1 1.5c1.4.1 2.7.1 4.1 0l-.2-1.6c1.3-.1 2.5-.4 3.7-.7l.5 1.5c.6-.2 1.3-.4 1.9-.7-.5-1.9-.3-1.2-.8-3.3-1.1-.6-.6-.3-2.1-1.1z"/></svg>
