<svg xmlns="http://www.w3.org/2000/svg" width="240" height="160" viewBox="0 0 240 160"><path fill="#3A7DCE" d="M0 0h240v160H0z"/><path fill="#FFF" d="M59.1 76.9c-1.3-2.6-1.3-2.6-1.3-5.2-.7 0-.8.1-1.2 0-.4-.1-.5 2.4-1.7 1.9-.2-.2.9-2.1-.3-2.8-.4-.2.1-1.7-.1-2.4 0 0-1.5.8-2.6-2-.6-.7-1.3.7-1.3.7s.3.8-.3 1c-.8-.6-1.5-.3-2.5-1.1-1.1-.8.2-1.8-1.8-2.5 1.3-3.3 1.3-2.6 4.6-3.9-2-1.3-2-1.3-3.3-3.3-2-.7-2.6-1.3-4.6-2.6-2.6-3.3-3.9-9.8-3.9-14.4 1.7-1.5 3.9 5.2 7.2 7.2l4.6 2c2.6 1.3 3.3 2.6 5.2 3.9l5.9 2c2.6 2 3.9 4.6 5.9 5.2 2.1 0 2.5-1.2 3.2-1.3 3.8-.2 5.8-.7 6.6-1.8.8-.9 2.6.5 7.9-1.4l-.7-2.6s1.4-1.1 3.3-.7c-.1-1.2-.2-4.4 1.7-5.8-1.1-1.2-.4-2-.4-2s1-1 1.2-1.5c-.6-2.9.5-2.9.7-3.8.2-.8-.9-.6-.6-1.7.3-1.2 2.2-1.4 2.5-2.4.3-1-.5-1.4-.5-1.7.4-.9.1-3.1 0-3.9 3.5-.9 4.7-3.8 5.9-2.6.7-3.9 1.3-5.2 5.2-5.2.6-1.2-1.4-2.2-.7-2.6 1.3-.2 2.3-.1 3.8 1.9.5.6.6-.9 1.1-1.1.5-.2 1.7-.2 1.8-.9.2-.8.4-1.8 1.1-3.1.6-1.1 1 .4 1.5 2.5 2.8.1 9 .7 11.6 1.4 2 .5 3.3-.5 5.1-.7 1.4 1.4 2.7.3 3.4 3.3 1 1.6 2.7.1 3.1.6 2.2 6 9.7 2 10.3 2.1 1 0 2.1 2.7 2.9 2.6 1.2-.2.9-1 2-.7-.3 2.3 2.1 4.9 2.1 6.6 0 0 .6.3 1.1-.2.5-.5 1-1.8 1.5-1.8 1.1.2 1.6.3 2.9.5 3.5 1.2 5.4 1.5 6.7 2.1.6 1.2 1.3 1.8 2.6 1.6 1.1.7.3 1.7.9 1.7 1.3-.7 1.7-1.4 3-.7s2.6 2 3.3 3.3c0 .7-.7 3.3 0 7.2.3 1.3.5 2.3 1.9 4.6-.4 2.3 1.8 6.2 1.8 7.2 0 1.3-1 2-1.7 3.3 2.6 2 0 5.2-1.3 7.2 9.8 2 5.2 5.9 13.1 3.9-2 4.6-1.3 4.2.7 8.8-3.9 2.6-.1 3.4-2.7 6.7-.2.2 1.6 2.8 4 2.8-.7 5.2-2.6 3.3-2 11.1-5.1-.1-3.1 5.9-6.5 5.2.2 3.7 2 4.1 1.3 7.8-2.6.7-2.6.7-3.9 2.6l-2-.7c-.7 3.3-2 3.9 0 7.2 0 0-2.5.1-3.3 0-.1 1.1 1.1 1.4 1.3 2.6-.1.5-3.7 2.5-6.5 2.6-.7 1.6 2 3.3 1.8 4.1-3.1.6-4.4 4.4-4.4 4.4s1.6.6 1.3 1.3c-.8-.6-1.3-.7-2.6-.7-.7.2-2.2 0-3.8 2.5-1.7.6-2.5.4-3.7 2-.6-1.6-1.4 0-2.4.6s-2.3 2.2-2.5 2.1c0-.4.6-2.1.6-2.1l-3.3.7h-.4c-.3 0-.2-1.9-.8-1.8-.6.1-2.4 2.4-3 2.5-.6.1-.8-.8-1.3-.7-.5.1-1.5 2.5-1.9 2.6-.4.1-1.8-1.5-3.1-1.3-6.4 2.3-7.5-4.5-8.5-.7-1.3-.7-1.1-.3-2.5.1-.9.2-1-1.2-1.7-1.1-1.6 0-1.5 1.5-2.3 1.1-.7-3.1-4.9-2.5-5.3-3.8-.3-1.4 1.8-1.4 2.5-2.3.5-1.3-.6-1.8 1.6-3.1 2.8-1.9 1.2-2.6 1.7-4 .9-2.1.9-2.6.2-4.4 0 0-2.2-5.9-2.6-5.9-1.3-.4-1.3 2.2-3.2 2.9-3.9 1.3-10.8-3.3-12.1-3.3-1.1 0-6.2 1.2-6-1.3-.8 2.5-3.6.6-3.7.6-2.6 0-1.6 2-3.4 1.9-.8-.3-8.8-.7-8.8-.7v1.3l-5.2-2.6-4.6-1.3c-3.9-1.3-2-4.6-8.5-2.6v-3.9h-3.3c1.3-7.8 0-3.9-.7-11.1l-2.6.7c-2.6-3.5 3.6-2.9-2-5.2 0 0 .1-3.9-1.3-2.6-.3.2.7 2 .7 2-5.2-.7-6.5-2-6.5-7.2 0 0 4.3.6 3.9 0-.6-1-1.4-7.4-1.3-7.8-.1-.9 4-3 3.2-5.1.6-.5 2-.6 2-.6"/></svg>
