<svg xmlns="http://www.w3.org/2000/svg" width="320" height="160" viewBox="0 0 320 160"><path fill="#006" d="M0 0h320v160H0V0z"/><path fill="#BD1021" d="M0 80L320 0v160L0 80z"/><path fill="#FFF" d="M34.3 80L320 8.6v142.8L34.3 80z"/><path fill="#9C3900" stroke="#000" stroke-width=".275" stroke-linejoin="round" d="M266.2 98s-2-1.6.4-4.2c-1.2-1 0-3.2 0-3.2s-2.2-.8 0-4.2c-1.6-1-1-3.6-1-3.6s-5.4-2-.2-4c-4.2 1.8-8-2.4-8-2.4l-6 .2c-1-5-9-.6-3-15.2-1.6-.2-3.2-.8-5 .6-1.8 1.2-6.6 4-9.6 1.2s2-6.6 2-6.8c0 0 6.4-3.4 7.4-5.6 0-1.6-2-3-.2-6.4 2-3.4 14.8-6.6 20.8-7.6 2.8-1.2 4-3.8 4-3.8l.6 2.4s12.8-3.8 13.6-5.6c.6-1.8.2 1.6.2 1.6 5-.4 11.6-4.8 12.4-2.8 4.2-.8 12.4-4.4 12.4-4.4s2.8 0 .8 3c1.2 2-.4 3.8-.4 3.8s.6 2-1 3c.6 1.8-1 3-1 3s.8 2-2.2 3.2c.2 1.8-1.6 2.2-1.6 2.2s.2 2-1 2.8c0 1.4-1.4 2.2-1.4 2.2s1 .6-.4 1.4c-1.2 1-14.4 9-14.4 8.8 0 0 9.6 1.8 10.2 2 .6.4 8 5.2 8 5.2l-7.4 9s-8.2-1-8.6-.4c-.4.4 1.8.6 2.2 1.4.4.8 1.2 2.4 2.6 2.2 1.4-.2-2.8 2.6-5.4 3 0 1 3.4 1 4.4.2s-2.2 2.4-2.6 2.8c-.4.4 4-.6 4-.6s-.8 3-4.6 4c1.6 2.6 1 4.2.8 4.2s-2.6-2.6-5-2c.6 2.4 2.6 4.8 3 5 .6.4-4.2.2-5-1-.6-1.4-1.2 3.2.6 4.8-2 0-3.8-1-3.8-1s-1.2 2.8-.4 4c.8 1.4-2.8-2.8-2.8-2.8l-7 3-1.4-2.6z"/><path fill="#FFC221" stroke="#000" stroke-width=".275" d="M213 92.6c.2 0 10-.2 14.6-2.8 2.2 3.6 5.4 6 5.4 6l1.4-5.2s3.6.2 3.8 1c-.4 1-.6 2.2-.6 2.2s2.4.2 2.4.6c.2.4-.6 3-.6 3l10.4 2.4s.8-4 1.6-3.6 4.4 5.4 9.4 5.8c5 .4 5.4-4.2 5.4-4.2l1.2.6s2.2-4.6 2.4-4.6c.4 0 .8.6 3.6.6.8 1 1.2 3.2 1.2 3.2s-3 3-2.2 5.4c1 2.4 1.2 1.8 1.2 1.8l22.4 5.4s1.2 1.8-.8 2.8c0 .2-22.4-5.2-22.4-5.2s-2.2 2.4-3.8 2c-1.6-.4-.4 1-.4 1l24.2 2s1.8 2.2.4 3c-1.6.2-26.2-1.6-26.2-1.6s-1.4 3-3 .4c-1.2 1.8-2.4-.4-2.4-.4s-2.2 1.6-2.4-.2c-1.8 1.2-3-.8-3-.8l-10.4-.6-.6 1s1.8.4-1 1.6 16.4.6 17 .8c.4.2-1.2 1.6-1.2 1.6s9.8.6 11.6-1.4c1.8-2.2-.6 2.8-.6 2.8s7.8-.4 7.8-.6-.2 2.4-5.4 2.2c3.2 2.2 7.2 3.4 7.2 3.4s-4 1-8.8-.2c.8 2.2 4.4 4 4.4 4s-2.6 2.2-8.4-3.2c1.6 3 .4 4 .2 3.8-.2-.4-3-4.4-9.4-5.8 4 2.6 2.2 3.8 2.2 3.8s-2.2-3.8-5.4 0c-1.2-3.4-6.4-5.4-12.4-5.6-2-2.2-3-1.6-7.6-3-2.6-3-6.4-6.2-6.4-6.2s.2-4.4 4.6-3.8c.4 1.4.4 1 .4 1s4.8-1.8 6.4.6c2.2-3.8 5-.6 5.4.8 1.4.2 8.4.4 8.4.4s-.8-1.4-.4-1.2c.4.2 4.4-1.4 4.2-2-.2-.4-.4-2.2.4-2 .6.2-5.4-.8-8.8 1.8-1.2-1.2-.4-4.2-.4-4.2l-10-2.2-.4 2.6s-3 .4-2.8-.2-.6 2.2-.6 2.2-3.8-1-3.8-1.2 1.2-5.8 1.2-5.6c0 .2-3.2.4-7.8 3.8-1.8-4.4-12-9.8-12-9.8zm12.6-13.4s-6.8 5.8 0 9.2c.4-2.2.8-2.6.8-2.6s5.6 2.2 9-3c-1.4-2.2-4-1.2-4-1.2s-5.4 0-5.8-2.4z"/><path fill="none" stroke="#000" stroke-width=".275" d="M231.2 81.8l-4.6 4"/><path fill="#FFF" stroke="#000" stroke-width=".275" stroke-linejoin="round" d="M225.8 79.4s1-1 1.2-2-.4-2.2.8-3.2c1-1 15.4-7 16.6-8.2 1.2-1.2 3.4-3.8 3.6-4.2.2-.6 1 2.8-1.4 4.2 2.6-.8 4.4-1.6 5.4-1.2-1 1.6-4 4-5.4 4 3.2-1.2 6-2.2 7-1.6.8.6-4 3.8-5.8 4 3.2-.8 7.4-2 8-.8-1.8.6-1.2 1-4.8 3-.4.4-2.8.4-2.8.4 2.8-.2 6.4-1.4 6.8.6-2.2.8-3 2-4.8 2.4s-6 1.2-8.6 2.2-6.2 4-6.2 4l-8 .2c0-.2-1.6-3.8-1.6-3.8zm69.2-5.6l15.8 3s1.8-2 .8-3c2.4-.6 1.8-3.6 1.8-3.6s2.8-1.2.4-4c1.6-1.6-.4-2.8-.4-2.8s.6-2.8-1.4-3c.6-2.2-3.4-3-3.4-3s-8.2 2.2-14 2.4c2 2-.8 3-.8 3s1.6 1 1 2c-.4 1 .2 2-1.8 2.6 2.6 1.2-.2 3.2-.2 3.2s3 2.2 2.2 3.2z"/><path fill="none" stroke="#000" stroke-width=".275" d="M237.4 94l-2.2 9.4m3.6-2.8l.6-3m10.4 2.4l-1 3m19 16.6c-.2 0-5.2.6-5.8.4s8 2.6 8 3.8m-11.4-3s-5-3.2-5.8-3c-.8.4 5-.2 5.4-.6m-9.8 0s-5.2.2-5.6-.4c-.4-.4 5 3.6 6 3.2m-10.4-5.2c-.2 0-3.6-1.2-5-1.6 1.2 1.2 2.2 3 5.4 3.8m.8-4.2c-.2-.4-6.4-2.2-6.4-3.2 1.4.4 3.6 1.2 5.4.6m33.8-2l.6-3m-27.4 4.8s1 1.2.2 2.6m20.8-1.4l1.8-.2m-14.6-.8l3.2.4m5.6-8.8s0 3.2-2.6 3.2h-1.8m6.4-3.8s1 .4.8 1.2c-.2.8.2 3.2-3 5.4-3.4.8-3-2.8-3-2.8m6.4-2.8s2-1.2 2.2.8c.2 2-1.6 5.4-3 6-1.4.6-3 0-2.8-1m6-4.8s1.8-1.4 2.4.4c.6 2-1.4 6.2-2.2 6.2m2.4-6.2s1-.4 1.6 0m-4.6 6.6c-.4 0-2 .2-2.4-1m-5.6-2.2h-2m9 7.2l-.2-3-.8-1-1.2 1.2s-.2 3-.8 3.2m.8-3.4c0-.2-1-2-1-2l-1.6 2s-.2 2.8-.8 3m.8-3l-.6-1.8s-1.8 1-2 1.8-.2 2.8-.8 3m.8-3.4s.2-1.6-.4-1.6-3 2.2-3 4.2m-26.4-34.8s0-1.8 1-2.4c.8-.6 5-2.2 5.8-3.6 1-1.4-1.4 2.4-1 3.4m-4.2 0s2 .8 1.6 2.2m.8-1.2c0 .8-.6 1.4-1.4 1.4-.8 0-1.4-.6-1.4-1.4s.6-1.4 1.4-1.4c.6 0 1.4.6 1.4 1.4zm59.8-6.6S307.2 72 308 72c.6 0 3 .8 3.6 1.6m-17.4-4l19.4.4m-19.2-.8s18.4-1 19.6-3m-19.2-1s18.4-2 18.6-1.8m-19.2-.6s17.8-2.8 18-2.4m-69-9s5.6 6.2 5 10.4m-.2-3.4s1.8 2.6 2.6 3c.8.2 7 .6 7.4 3.4.4 1.8-1.4 1.2-1 2.4.4 1.6 4.8 3.8 9.4 1.2m-4.6 1.2s3.8 5.6 9.4-.4m-2.8 2.4s4.6 2.4 8.4-4m-4.8 4.6s2.2 2 7-.6m6.6-2.6s7 1.4 7.4 2m-4.8-3.4l5 .2m-8-3s8.4-.6 9.4 1.2m-13-3.8s11.8.4 12.2 1m-9.6 11s2-.6 2.2-.2m-6.8 5s2.6 2.2 6 1.2m-4.6 2.6s3 1.4 6.6.6m-5.6 1.8s3 2 5 1.6m-6.4-.4s2 1.6 2.2 2.4m-5-.6s.6 3.2 3 4.4m-4.6-3s-1 4.2 1.6 7m-4.2-3.6s-.2 2 0 2.2m-16.4-18.8l5-.2s1.8-.8.6-2m.6 1.2s4.6.4 5.8 1.8c1.2 1.4 2.6 4 3.4 4.6.8.4 1-.2 1-.2m-2-1s-2.4 4.2-.6 5.4m-.8-.6s-2.2 3-.4 4.4m-.4-.4s-1.8 2.8.4 4.8m-1.2-12.4c-.2.2-2.2 1.6-2.8 1.2m.6 3.2s.8.8 1.6.8m-1.4 3.6l1.4.8m-.2 3l-1.2-.6m-20.4-44.6s2.4 1.2 4.2 0c2-1.2 11-6 13.4-6.6 2.4-.8 3.8-5.2 4.2-7m-1.6 5l13.4-4s2.2-1.8 2.2-5.2m-1 3.8s13.4-1.4 13.4-6.4m-2 3.6s14-3.8 15.4-5.2m-54.6 25.2s8.4-4.4 9.8-4.8c1.4-.4 4.4-4.2-.2-4.2M257.4 54s7-4.4 9.2-5c1.2-1.8.6-3.6-1.6-3.2m2.2 2c.2 0 3.8-.2 2.4 2.6-1.8 1.4-9.6 5.2-9.6 5.2m5.4-10.8l14.8-5s1.2-2.6-.6-3m12.4-4.4s2 1.2.8 2.8c-2.2 1.2-12 3.6-12 3.6m26.4-7.8l-14 4m.6 2.8L306 34m-11.8 6.4l10.8-3.2m-2 3c-.2 0-8 2.4-8 2.4m6.4 0l-5 2m3.6.6c-.2 0-4.2 1.8-4.2 1.8m-.8 2.2l3.8-1.8m-6.6 4.2s.4.2.4.8m-10 4.4s1.6.6 0 2.2c-.8 1-3 .8-4.2 2.6M293 35.4s2 .4.4 3c-4 1.6-12.2 4-12.2 4s-.4.6-1.4 1.2c-1 .6-12.6 3.8-12.6 3.8m26.4-9s2.2 1 0 2.6c-2.4 1.4-11.2 4.2-11.2 4.2s0 .8-.4 1-11.8 4.2-11.8 4.2m24-9.4s2.2.6.2 2.6c-2.4 1.4-10 4-10 4s-.8 1-2 1.4-9.2 3.6-9.2 3.6m21.6-9c.6.2 2.4.6.2 2.2-2.6 1.2-8.8 3.6-8.8 3.6l-.6 1-10 4.2m19.8-8.4s1 1.2-1.2 2.4-7.2 3.2-7.2 3.2m7.2-3s1 .6-.2 1.6c-1.6.8-7.6 4-7.6 4l-4 2.6m-1.8-17s1.6 1.4 1 3c1.4 1 1.2 2.2 1.2 2.2s2 1.2 1.8 2.8c2 .4 2 1.6 2 1.6l-.6 1s2 0 .2 2.4c1 .6.6 1.2.6 1.2m-.8-1c-.2 0-7 2.4-8.6 4m-7.6-7s2 0 1.8 2.2c2.2-.8 1.8 1.4 1.8 1.4s2.6-1 2.2 2.2c1.8-.4 1.4 1.4 1.4 1.4s1.6 0 1.6.8c1-1 2.2-.4 2.2-.4s.8-1 1.8-.8m-11-4.8c0 .2-9 5.2-9 5.2m10.8-3.6l-6.8 4.2m9-2l-6 3.6m7.4-2.2s-4.2 3.4-5.2 3.2m6.6-2.2S276 60.2 274 61m6.8-3.4s.8 1-4 3.4"/></svg>