<svg xmlns="http://www.w3.org/2000/svg" width="320" height="160" viewBox="0 0 320 160"><path fill="#00008B" d="M0 0h320v160H0V0z"/><path fill="#FFF" d="M80 96l4.6 14.4 14.1-5.4-8.4 12.6 13 7.7-15.1 1.3 2.1 15-10.4-11-10.4 11 2.1-15-15.1-1.3 13-7.7-8.3-12.6 14.1 5.4L80 96zm160 25.9l2.2 6.9 6.7-2.5-4 6 6.2 3.7-7.2.6 1 7.1-5-5.2-5 5.2 1-7.1-7.2-.6 6.2-3.7-4-6 6.7 2.5 2.4-6.9zm-40-63.3l2.2 6.9 6.7-2.5-4 6 6.2 3.7-7.2.6 1 7.1-5-5.2-5 5.2 1-7.1-7.2-.6 6.2-3.7-4-6 6.7 2.5 2.4-6.9zm40-43.4l2.2 6.9 6.7-2.5-4 6 6.2 3.7-7.2.6 1 7.1-5-5.2-5 5.2 1-7.1-7.2-.6 6.2-3.7-4-6 6.7 2.5 2.4-6.9zm35.6 32.7l2.2 6.9 6.7-2.5-4 6 6.2 3.7-7.2.6 1 7.1-5-5.2-5 5.2 1-7.1-7.2-.6 6.2-3.7-4-6 6.7 2.5 2.4-6.9zM256 80l1.7 4.3 4.6.3-3.5 3 1.1 4.5-3.9-2.4-3.9 2.4 1.1-4.5-3.5-3 4.6-.3L256 80zM93.3 24.4V0H66.7v24.4L17.9 0H0v8.9l35.5 17.7H0v26.7h35.5L0 71.1V80h17.9l48.8-24.4V80h26.7V55.6L142.1 80H160v-8.9l-35.5-17.8H160V26.7h-35.5L160 8.9V0h-17.9L93.3 24.4z"/><path fill="#F00" d="M72 0h16v32h72v16H88v32H72V48H0V32h72V0zM0 0l53.3 26.7H41.5L0 6V0zm160 0h-11.9L94.8 26.7h11.9L160 0zm0 80l-53.3-26.7h11.9L160 74v6zM0 80h11.9l53.3-26.7H53.3L0 80z"/></svg>