<svg xmlns="http://www.w3.org/2000/svg" width="320" height="160" viewBox="0 0 320 160"><path fill="#002395" d="M0 0h320v160H0V0z"/><path fill="#FECB00" d="M84.8 0h160v160L84.8 0z"/><path fill="#FFF" d="M65 10.4L56 4l-9 6.4L50.4 0h11L65 10.4zm25.4 3.2h-11L76 3l-3.4 10.6h-11l9 6.4-3.4 10.6L76 24l9 6.4L81.6 20l8.8-6.4zm20 20h-11L96 23l-3.4 10.6h-11l9 6.4-3.4 10.6L96 44l9 6.4-3.4-10.4 8.8-6.4zm20 20h-11L116 43l-3.4 10.6h-11l9 6.4-3.4 10.6L116 64l9 6.4-3.4-10.4 8.8-6.4zm20 20h-11L136 63l-3.4 10.6h-11l9 6.4-3.4 10.6L136 84l9 6.4-3.4-10.4 8.8-6.4zm20 20h-11L156 83l-3.4 10.6h-11l9 6.4-3.4 10.6 8.8-6.6 9 6.4-3.4-10.4 8.8-6.4zm20 20h-11L176 103l-3.4 10.6h-11l9 6.4-3.4 10.6 8.8-6.6 9 6.4-3.4-10.4 8.8-6.4zm20 20h-11L196 123l-3.4 10.6h-11l9 6.4-3.4 10.6 8.8-6.6 9 6.4-3.4-10.4 8.8-6.4zm9 20L216 143l-3.4 10.6h-11l9 6.4h11l9-6.4h-11.2z"/></svg>
