<svg xmlns="http://www.w3.org/2000/svg" width="240" height="160" viewBox="0 0 120 80"><path fill="#00267F" d="M0 0h120v80H0z"/><path fill="#FFC726" d="M40 0h40v80H40z"/><path d="M76.8 26.2c-3.2.5-6.5 2.2-8.7 4.5-.3.3 1.4-.3 1.5-.4 1.2-.4-.4 1.7-.5 2.3-1.3 4-2.4 7.9-2.8 12.5 0 .3-.1.6-.2.6l-4.1-.6V30.2c1 0 2.5.2 3.4.5-2.8-2.8-4.2-6.5-5.5-10.1-1.3 3.5-2.6 7.2-5.5 10.1.9-.3 2.4-.5 3.4-.5v14.9l-4.2.6c-.1 0-.2-.3-.2-.6-.4-4.6-1.5-8.5-2.8-12.5-.1-.6-1.7-2.7-.5-2.3.1 0 1.8.7 1.5.4-2.2-2.3-5.5-4-8.7-4.5-.3-.1-.4.1-.2.4 4.2 6.5 7.8 14.2 7.7 23.3 1.6 0 5.6-1 7.3-1v10.5h4.1V48.9c1.6 0 5.6 1 7.3 1 0-9.1 3.5-16.8 7.7-23.3.5-.3.3-.5 0-.4z"/></svg>
