<svg xmlns="http://www.w3.org/2000/svg" width="260" height="156" viewBox="0 0 500 300"><path fill="#CE1126" d="M0 0h500L0 300h500L0 0z"/><path fill="#1EB53A" d="M0 0v300L500 0v300L0 0z"/><path stroke="#FFF" stroke-width="40" d="M0 0l500 300m0-300L0 300"/><circle fill="#FFF" cx="250" cy="150" r="85"/><path fill="#1EB53A" d="M261.5 106l5.8 10h-11.5l-5.8 10-5.8-10h-11.5l5.8-10-5.8-10h11.5l5.8-10 5.8 10h11.5l-5.8 10zm44.3 56.2h-11.5l-5.8-10-5.8 10h-11.5l5.8 10-5.8 10h11.5l5.8 10 5.8-10h11.5l-5.8-10 5.8-10zm-76.9 0h-11.5l-5.8-10-5.8 10h-11.5l5.8 10-5.8 10h11.5l5.8 10 5.8-10h11.5l-5.8-10 5.8-10z"/><path fill="#CE1126" d="M259.5 106l4.7 8.2h-9.5l-4.7 8.2-4.7-8.2h-9.5l4.7-8.2-4.7-8.2h9.5l4.7-8.2 4.7 8.2h9.5l-4.7 8.2zm43.1 58h-9.5l-4.7-8.2-4.7 8.2h-9.5l4.7 8.2-4.7 8.2h9.5l4.7 8.2 4.7-8.2h9.5l-4.7-8.2 4.7-8.2zm-76.8 0h-9.5l-4.7-8.2-4.7 8.2h-9.5l4.7 8.2-4.7 8.2h9.5l4.7 8.2 4.7-8.2h9.5l-4.7-8.2 4.7-8.2z"/></svg>
