<svg xmlns="http://www.w3.org/2000/svg" width="320" height="160" viewBox="0 0 3200 1600"><path fill="#F00" d="M0 0h3200v1600H0V0z"/><path fill="#00008B" d="M0 0h1600v800H0V0z"/><path fill="#FFF" d="M933 244V0H667v244L179 0H0v89l355 177H0v267h355L0 711v89h179l488-244v244h267V556l487 244h179v-89l-355-178h355V267h-355l355-178V0h-179L933 244z"/><path fill="#F00" d="M720 0h160v320h720v160H880v320H720V480H0V320h720V0zM0 0l533 267H415L0 60V0zm1600 0h-119L948 267h119L1600 0zm0 800l-533-267h119l414 207v60zM0 800h119l533-267H533L0 800z"/><path fill="#FFF" d="M2769.2 341.3v677.6c0 181-361.8 239.8-361.8 239.8s-361.8-58.8-361.8-239.8V341.3h723.6z"/><path fill="#2F8F22" d="M2769.2 1018.9c0 181-361.8 239.8-361.8 239.8s-361.8-58.8-361.8-239.8c0 0 0-14.6 7.4-22.9 0 0-4 30.1 19.1 52.9 0 0-18.1-32.1-.4-63.7 0 0-6.6 40.6 18.7 63.9 0 0-14-33.2 1.8-70.2 0 0-7.8 60.5 19.7 72.6 0 0 7.6-34.8-3.4-57.1 0 0 18.9 7.6 17.9 58.1 0 0 6-7.4 7.6-43.8 0 0 .8 41.6 15.2 51.3 0 0 4.4-4.2-1.6-23.1-6-18.9 2.6-25.5 4-25.1 0 0-3.1 20.9 14.4 36.6 0 0-7.6-32.8 3-37.2 0 0-2.2 27.7 19.7 34 0 0 1.6-8-3.2-17.1 0 0-4.2-10.7-1-18.9 0 0 7 25.2 16.5 29.4 0 0-5.8-14.8-.4-29.4 0 0 1.2 20.9 19.9 29.6 0 0-12.3-16.2-7.5-34l120.5 5.9 62.4 3 187.2-13.2 32.3-27.7s12.8 17.7-7.4 45.6c0 0 19.9-3.6 26.3-34.8 0 0 8.2 17.3-3 36.4 0 0 22.1-22.1 25.3-47.2 0 0 8.6 24.3-12.4 50.5 0 0 18.7-6.2 26.7-34 0 0 6.4 16.7-11.8 40.3 0 0 33.9-18 32.9-55.2 0 0 14.2 20.5-2 48.7 0 0 17.3-15.5 18.9-38.6 0 0 9.6 10.5-.8 39.2 0 0 21.1-19.9 24.3-41.4 0 0 4.6 19.9-13.6 45 0 0 12.4-3 24.1-27.5 0 0 3.2 9.7-7.6 27.3 0 0 11.6-2 19.3-24.1 0 0 1.4 13.3-2 25.1 0 0 9-5.8 11-31 0 0 5 8.2 5.1 18.5.5 10 .5 3.3.5 3.3z"/><path fill="#D40000" stroke="#000" stroke-width="2.6" stroke-linejoin="round" d="M2289.2 1032.8s-15.3.9-23 4.8c-7.8 3.9-13.8 8.1-22.7 13.9 0 0-4.2 5.6-21.8 2.2 0 0-30.5-7.3-30.5 16.5 0 0-36.5 3-21.5 35 0 0 10.2 25 31.1 7.2 0 0-13.5 19.3 12.6 26.8 0 0 18.5 4.5 23.9-14.5 0 0 3-7.5-4.2-16.9 0 0 9-1.8 15.3-11.5 0 0-19.1 24.2 1.8 32.9 0 0 26.3 6.6 27.8-20.8 0 0-2.1-12.7 8-17.2 0 0 21-4.8 30.5-28.2-.1.1-30.2-16-27.3-30.2zm-61.6-240.6s-23.5-10.8-34.7 0c0 0-15.6-9.6-31.9 0 0 0-15.6 10.2-26.3 21.4 0 0-7.6 6.5-4.8 26.9 0 0 4 14.4 1.6 21.7 0 0-5.2-1-15.6 11.3 0 0-13.2 15.2-24.7 1.8 0 0 3.6 18.7 25.3 15.7 0 0-10.6 8.2-1.4 29.6 0 0 6.8 15.1-4 34 0 0 18.9-7.6 18.1-30 0 0-1.6-15.1 4-25.7 0 0-5.6 9.7 7.4 30.4 0 0 10 14.9 1.8 30.4 0 0 18.7-6.8 16.9-29.6-1.8-22.7-13.2-13.3-5.8-34.2 0 0 1.8 10.7 7.4 16.1 5.6 5.4 12.8 14.4 9.8 29.5 0 0 11.2-13.9 8.6-28.1-2.6-14.3-5.4-18.6-5.4-18.6l35.3-20 17.5-31.8.9-50.8zm295.5 240.6s15.3.9 23 4.8c7.8 3.9 13.8 8.1 22.7 13.9 0 0 4.2 5.6 21.8 2.2 0 0 30.5-7.3 30.5 16.5 0 0 36.5 3 21.5 35 0 0-10.2 25-31.1 7.2 0 0 13.5 19.3-12.6 26.8 0 0-18.5 4.5-23.9-14.5 0 0-3-7.5 4.2-16.9 0 0-9-1.8-15.3-11.5 0 0 19.1 24.2-1.8 32.9 0 0-26.3 6.6-27.8-20.8 0 0 2.1-12.7-8-17.2 0 0-21-4.8-30.5-28.2.1.1 30.3-16 27.3-30.2zm62.1-240.6s23.5-10.8 34.7 0c0 0 15.6-9.6 31.9 0 0 0 15.6 10.2 26.3 21.4 0 0 7.6 6.5 4.8 26.9 0 0-4 14.4-1.6 21.7 0 0 5.2-1 15.6 11.3 0 0 13.2 15.2 24.7 1.8 0 0-3.6 18.7-25.3 15.7 0 0 10.6 8.2 1.4 29.6 0 0-6.8 15.1 4 34 0 0-18.9-7.6-18.1-30 0 0 1.6-15.1-4-25.7 0 0 5.6 9.7-7.4 30.4 0 0-10 14.9-1.8 30.4 0 0-18.7-6.8-16.9-29.6 1.8-22.7 13.2-13.3 5.8-34.2 0 0-1.8 10.7-7.4 16.1-5.6 5.4-12.8 14.4-9.8 29.5 0 0-11.2-13.9-8.6-28.1 2.6-14.3 5.4-18.6 5.4-18.6l-35.3-20-17.5-31.8-.9-50.8zm-2.4-165s-12.6 2.1-28.7-2.8-22.7-2.9-27.7 0c0 0 6.6-13-9.4-23.2 0 0 5.2 13.1-2 19.2 0 0-3.2 3-7-1.5 0 0-5.6-5.7-11.5-10.2 0 0 13.6-4.7 11.1-18.5s-9.9-15.6-13.9-17.3c0 0 1.4 6.2 0 10.5 0 0-14.8-8.2 5.3-19.9s16.3-18.5 12.8-24.4c-3.6-5.9-11.3-12.5-15.1-14.8 0 0 4 6.2 3.3 11.6s-9.8 8.7-8-.6c1.8-9.4-.1-7.7-.3-17.7 0 0 17.8 6 24.8-11.4 0 0 6.9-18-15.7-26.9 0 0 5.5 7.3 2.8 12.9 0 0-4.8 9-10.5 1.7s-9.3-8.7-8.7-17.4c0 0 20.4 2.8 14.9-19.4 0 0-3.3 14.8-29.8-5.1 0 0 17.2-17.7 10.6-32 0 0-2.1-6.5-20.8-2.7 0 0 16.2-10.3 9.4-19 0 0-3.5-5.8-18.6 1.8 0 0 5.9-10.2-9-21.1 0 0-10 5.2-15.3 10.1 0 0-10.2-12.9-16.6-18 0 0-11.8 4.5-14.8 18 0 0-5.5-6.5-17.9-9.5 0 0-6 11.1 1.8 20.7 0 0-5.8-.2-16.3-4.8 0 0-12.1-5.7-10.3 4.6 1.8 10.4 2.7 12.7 5.1 17.5 0 0-27.1-6.3-25.9 8.3.8 10.2 4.6 18.9 13 26.2 0 0-15.2 19.8-28.1 4.9 0 0-4.5 4.8 5.2 17.5 0 0 9.7 10.7 1.7 17.4 0 0-10.7 8.5-15.8-8 0 0-17.2 17.2 3.1 30.4 0 0 13.1 7.4 26.4-4 0 0-4.1 33-16.8 26.6 0 0-7.7-5.6 6.1-12.4 0 0-19.8-2.5-23 16.7 0 0-2.4 15.3 14.9 20.8 0 0 13.4 4.8-.5 15.2 0 0-9.8 7.4-3.4 18.5 0 0 7.7 12.2-11.8 13.4 0 0-10.6-.1-14.4-1.5 0 0-4.3 7.9-1.3 17 0 0-9.7-7.2-31.7.8s-20.3 2.4-22.1 4.8-6.1 10.6-6.1 10.6 11.6 14.1 11.8 13.8-2.2 16.1-2.2 16.1l5.7 2.7 45.4-20.2 46.1-24 37 2.3 23.5 5.6 30.8 2.2 22.1-11.8h32l35.2 17.5 40.2 24 20.9 3.7 16.1-.9V639l-8.1-11.8z"/><path fill="none" stroke="#000" stroke-width="2.6" stroke-miterlimit="10" d="M2174 881.9s-14.6-1-16.9-12.3m-25.6-7.4s5.1-.2 9.7 4.4c0 0 3.5 5.2 8.5 4.6m124 225.4s1-3.4-1.4-7c0 0-1.6-2.6-1-6m267.3 13s-1-3.4 1.4-7c0 0 1.6-2.6 1-6m97.9-201.7s14.6-1 16.9-12.3m25.5-7.4s-5.1-.2-9.7 4.4c0 0-3.5 5.2-8.5 4.6"/><path fill="#D40000" stroke="#000" stroke-width="2.659" stroke-linejoin="round" d="M2217.5 665.2s17.5 8.9 24.9-1.9c0 0 9.6-18.2-11.4-24.6 0 0 11.4-13.7-.8-26.4 0 0-6.4-6.8-17.6-1.8 0 0-4.6-9.7-15.6-9.4 0 0-9.6-.2-12.9 10.4 0 0-13.2-5.4-20.5 2.4 0 0-12.1 13.6 4.8 24.3l12.2 1.1 12-5.5 13.4 3.8c-.1.1-3.6 13.6 11.5 27.6zm376.7 0s-17.5 8.9-24.9-1.9c0 0-9.6-18.2 11.4-24.6 0 0-11.4-13.7.8-26.4 0 0 6.4-6.8 17.6-1.8 0 0 4.6-9.7 15.6-9.4 0 0 9.6-.2 12.9 10.4 0 0 13.2-5.4 20.5 2.4 0 0 12.1 13.6-4.8 24.3l-12.2 1.1-12-5.5-13.4 3.8c.2.1 3.6 13.6-11.5 27.6z"/><path fill="none" stroke="#000" stroke-width="2.6" d="M2599.2 610.6s6.4 3.1 4.9 10.7m23.5-9.7s2.5 8-.3 12.2m-414.8-13.2s-6.4 3.1-4.9 10.7m-23.5-9.7s-2.5 8 .3 12.2"/><path fill="#FFF" d="M2419.4 438s6.1-10.8 24.8-8.6c0 0-5.1 15-24.8 8.6zm-23.5 0s-6.1-10.8-24.8-8.6c0 0 5.1 15 24.8 8.6z"/><path fill="#784421" d="M2432.2 430c2 0 3.7 2.1 3.7 4.7s-1.7 4.7-3.7 4.7-3.7-2.1-3.7-4.7 1.7-4.7 3.7-4.7zm-49.2 0c2 0 3.7 2.1 3.7 4.7s-1.7 4.7-3.7 4.7-3.7-2.1-3.7-4.7 1.7-4.7 3.7-4.7z"/><path d="M2195.5 839s-7.6 0-11.8-3.6c0 0-4.4-3-7 1.8 0 0-4 6.8 3.4 9.9 0 0 9.2 4.6-5.4 13.9 0 0 17.3-6.2 10.4-14.7 0 0-7.6-5.4-4.8-7.4 0 0 .8-1.6 3.8.4s9 1.2 11.4-.3zm34.8 264.3s-13.8-7.7-25.1 1.3c0 0 1.2-5 9.9-7.2 0 0 4.7-13.3 17.9-12.1 0 0-5.4 6.4-12.6 11.9-.1 0 7.5.8 9.9 6.1zm-10.8-36.3s-9.3 6.9-13.1 11.5c0 0-3.8-4.7-8.8-7.6 0 0 5.7-.8 8.8 1.8 0 0 4.7-4.6 13.1-5.7zm363.1 36.3s13.8-7.7 25.1 1.3c0 0-1.2-5-9.9-7.2 0 0-4.7-13.3-17.9-12.1 0 0 5.4 6.4 12.6 11.9.1 0-7.5.8-9.9 6.1zm10.2-36.3s9.3 6.9 13.1 11.5c0 0 3.8-4.7 8.8-7.6 0 0-5.7-.8-8.8 1.8 0 0-4.7-4.6-13.1-5.7zm24.5-228s7.6 0 11.8-3.6c0 0 4.4-3 7 1.8 0 0 4 6.8-3.4 9.9 0 0-9.2 4.6 5.4 13.9 0 0-17.3-6.2-10.4-14.7 0 0 7.6-5.4 4.8-7.4 0 0-.8-1.6-3.8.4s-9 1.2-11.4-.3zm-208-352.9c-10.2 8.8 0 7.9 0 7.9s10.2.9 0-7.9zm-69.6-64.2s8-.9 16 11c0 0-7.9 4.2-9.9 6.8 0 0 0-3.9 3.9-7.4 0 0-1.5-6-10-10.4zm123.5 116.6s4.1 11.6 2.3 22.2c-1.6 9.4.6 11.9 4 13.7 2.9 1.6 9.8-1.2 10.6-8.6 0 0 8.1 15.8-7.6 26.4 0 0-11.3 6.9-20.9-2.3-3.4-3.3-4.9-12.3-3.2-20.7 0 0 2.5-11.3-1.6-23 0 0 6.4 6.9 4.8 20.5 0 0-3.3 24.5 14.9 23.3 0 0 12.6-.2 12.9-15.4 0 0-4.7 5.4-10.5 3.6-4.1-1.3-7.9-5.3-7.3-11.6.6-6.5 2.5-18 1.6-28.1zm-20.6 40.3s-1 19.4-18.7 24.1c0 0 2.5-3.5-1.5-13.2 0 0-3.9-5.6-3.6-14.4 0 0-5.6 4.4.8 16.1 3.9 7 .5 15.5-.7 15.8-1.2.3 29.3-4 23.7-28.4zm-23-19.3s-4.3-4.8-4.6-16c-.3-11.2-2.4-13.9-3.9-15.2 0 0 2.2 9.7 1.6 15.6-.6 5.9.4 9.4 1.2 12.2 0 0-9.7 1.5-15.8-12.6-5.8-13.5-11.7-12.4-14.6-12.3 0 0 3.4.4 10.2 12.7 6.8 12.3 8.7 14.8 25.9 15.6zm-45.3-29.2s5.6 13.4 5.8 20.4c0 0-13-4.3-16.4-15.6 0 0-13.9 4.7-8.8 20.7 0 0-12-4.2-17.3-14 0 0 6.7 5 12.9 7.2 0 0-.7-12.9 15.4-17.7 0 0 2.4 11.5 10.5 14.3-.1.1-.7-7.1-2.1-15.3zm21.3-22.9s4.5 6.5 13.7 6.8c4.4.1 9.1-.8 13.7-6.8 0 0-.6 11.4-13.7 11.5 0 0-13.7.5-13.7-11.5zm-56.5 77.7s6.8 6.2 8.2 8.2c0 0 4.8 4.7 8.9-1.4 0 0 5.2-9.7 11.7-9.4 0 0-4.6 3.2-9.7 12.3 0 0-1.4 3.4-5.2 3.8-1.8.2-4 .8-7.4-2.8 0 0-3-3.6-6.5-10.7zm70.2-123.2c-13.7 0-2.1 10.6-2.1 10.6.3 16.7-13.1 21.9-22.3 17-9.1-4.9-2-17-2-17s-10.3 6.8-3.7 16.6 23.8 5.4 30.2-3.6c6.3 9 23.6 13.4 30.2 3.6s-3.7-16.6-3.7-16.6 7.2 12.2-2 17c-9.1 4.8-22.6-.3-22.3-17-.2-.1 11.3-10.6-2.3-10.6zm8.3-18.1s4.8 8.1 3.7 20.5c0 0 4.3-12.4-3.7-20.5zm-41.9 19.1s-1-8.9-9.7-9.7c0 .1 7.3 5.4 9.7 9.7zm67.3 0s1-8.9 9.7-9.7c0 .1-7.3 5.4-9.7 9.7zm-81.1 13.6s6.9 2.1 11.1-3c0 0-7.9 2.1-11.1 3zm111.7-54.6s-8-.9-16 11c0 0 7.9 4.2 9.9 6.8 0 0 0-3.9-3.9-7.4 0 0 1.5-6 10-10.4zm-61.7 8.9s7.2 2 16.1-3c0 0 11.1-5.9 18.1 0 0 0-6.1-2.7-17.9 3 0 0-11.8 6.5-16.3 0zm20.3 1c1.2 0 2.2 1.3 2.2 2.9s-1 2.9-2.2 2.9c-1.2 0-2.2-1.3-2.2-2.9s1-2.9 2.2-2.9zm-52.9-16.7s11.8.8 19 5.3c0 0 7.6 4.5 16.3-2 0 0 9.4-5.4 15.5-13 0 0-14.4 10-19.8 11.5 0 0-4.9-3.8-6.9-9.2 0 0 .7-4.1 8.5-11.6 0 0-10.5 3.2-12.6 12.1 0 0 1.9 5.4 6 9.7 0 0-1.9.9-7-2.3 0 0-11.1-3.8-19-.5zm24.1 15.7s-7.2 2-16.2-3c0 0-11.1-5.9-18.1 0 0 0 6.1-2.7 17.9 3 .1 0 11.9 6.5 16.4 0zm-20.4 1c1.2 0 2.2 1.3 2.2 2.9s-1 2.9-2.2 2.9-2.2-1.3-2.2-2.9 1-2.9 2.2-2.9z"/><path fill="#64B4D1" stroke="#000" stroke-width="2" d="M2609.1 633.1c21.1-2 28.6 15.8 28.6 15.8 11.1 26-12.4 39.9-12.4 39.9 1.8 5.8 2 13.5 2 13.5 33.1 4 27.3 41.2 27.3 41.2l-11-9c-19.1-7.4-38.9 8.8-53 36.2-14.2 27.3-7.4 40.2-5 72.6 2.4 32.4 55 51.7 55 51.7s-24.9 64.1-41.1 105.4c-16.1 41.2-49.8 24.1-59.6 15.4-9.8-8.7-12.2-3.9-17.1 0-4.9 3.9 22.1 25-27.1 44.9s-57.8 35.2-66 40.2c-8.2 5-42.3 1.6-45.7-2.6-3.4-4.2-1.4-4.2-14.2-12.1-12.8-7.8-34.3-14.7-57.8-26.1-23.5-11.5-22.9-26.1-22.7-29.2.2-3 8.2-27.5-19.4-8-27.6 19.5-51-9.3-51-9.3-5.4-7.1-28.3-68.5-28.3-68.5-6.2-22.9-18.3-49.7-18.3-49.7.6-.2-1.2 2.8 19.1-8.8s29.4-31.1 36.5-50.3.2-52.1-2.4-58.7c-2.6-6.6-17.7-37.1-36.5-43.4-18.8-6.4-31.3 9.4-31.3 9.4s-5.8-37.2 27.3-41.2c0 0 .2-7.6 2-13.5 0 0-23.5-13.9-12.4-39.9 0 0 7.5-17.8 28.6-15.8l-5.1 9.7s-5.3 53.1 72.4 17.5 75.4-42.2 119.6-19.9l32.3-.6s46.7-21.6 61.6-12.3c15 9.3 68.8 39.4 68.8 39.4s52 19.5 62.2-16.5l-5.9-17.4z"/><g stroke="#00247D" stroke-width="2.6" stroke-miterlimit="10"><path fill="#FFF" d="M2375.4 863.3s-2.7-16.3-5.5-26.8c0 0-5.8-16.6 4.1-28.2l12.2-14s7.6-10.2 17-11.6c0 0 9.4-.3 10.3-2.2.9-1.9 11.2-18.8 35.6 0 0 0 7.8-12.5 19.7-14.6 0 0 12.9-3.9 19.2 5.7 0 0 14.5-11 27 6.7 0 0 17.2-9.7 29.8 9.6 0 0 17-8.3 27.5 9.4 10.5 17.7 8.4 25 8.4 25l7.8 28.1 27.5 34-64 24.1h-28.7l-57.4 15.4-102 7.8-28.4-33.5 39.9-34.9z"/><path fill="none" d="M2455.8 782.6s5-8.2 17.5-4.7m51.2 66s7.9-33.1 35.6-20.9m-11.3-2.7s2.8-15.2-4-23m-14.8 21.9s3.5 6.3.5 11.5"/></g><g stroke="#000" stroke-width="2"><path fill="#E4CB5E" d="M2216.6 754.7V717c0-3 0-5.4 4.5-9 4.5-3.6 9.3-9.4 16.1 6.9 0 0 13.5-14.2 17.9-16.3 0 0 7.8-6.6 13.2 3 0 0 7.2-10.9 12.9-13.6 0 0 13.5-8.7 14.1 17.5l10.5-9.7s8.1-6.6 17 2.4c0 0 15.3 14.8 17.3 19 0 0 3.4 4.6 3.6 11.8 0 0 0 8.1 4.1 12.6 0 0 4.8 4.2 9.4 5.1 0 0 10.9.3 14.8 10.6 0 0 1.8-1.8 7.2 47.4v89.6l-60.4 72.1-96.9-27.7-38.6-16-8.7-28.3 37.4-24.1 20.3-54.9-6.6-38.6-9.1-22.1z"/><path fill="none" stroke-miterlimit="10" d="M2295.2 705.5s.1 9.4 2.8 16.4c2.7 6.9 11.8 18.9 12.4 25.4m-48.6 32.4s3-12.1-10.8-33.2c0 0-9-19.3-13.8-31.7m31.1-13.2s7.8 19 10.5 27.5c0 0 9.7 23.8 11.7 28.6m-18.3 35.3s8.1 8.7 7.2 23.5m-34.1-32.8s9 4.3 8.4 28.1c0 0-.9 17.4 12.6 26.1m-22.2 6.2s28.1-3.1 29.6 14.2c0 0 .6 16.6 10.2 18.4 0 0 14.3 1.4 17.2 14.6m-48.2-28s4.9 7.4 9.7 10.6M2289 845s7.1 10.8 8.5 17.1m22.4-147.2s6.6 8.9 13 13.2m13.3 39.8s14 6.8 11.6 42c0 0-1.8 20.6 4 31.9"/></g><g stroke="#000"><path fill="#784421" stroke-width="2" d="M2483.6 802.2l4.6-6.8 11-8.4s16.7 43.9 17.5 53.5v13.6s25.1 6.4 29.5 45l-20.7 38.2-32.5-18.1-9.4-6.8V802.2zM2433.3 877.5L2375 676.1l-2.1.6 51.5 203.8 8.9-3zm-79.3 35.2l-58.3-201.3-2.1.6 51.5 203.8 8.9-3.1z"/><path fill="none" stroke-width="2" stroke-miterlimit="10" d="M2283.2 747.3l24.9 200.9M2289 746.9l27.9 187.3M2294.2 746l32.2 185.7M2312 738.6l58.9 148.8M2308.1 741l56.8 155.4m-50.2-159.8l60.7 135.7M2298.1 745l37.2 182.8"/><path fill="#784421" stroke-width="1.217" d="M2488.1 795.4l-111.7 35.3-6.1 49.8c-26.5 38.4-80.4 45.2-80.4 45.2l41.9 44.6 80.5 16.9 42.3-32.6 38.3-35.4c-4-18.9-1.8-46.9-1.8-46.9 0-4.7 1.8-15.8 1.8-15.8s-6.6-45.4-4.8-61.1z"/><path fill="#784421" stroke-width="2" d="M2280.4 744l.9 3.3s25 1.1 38.5-16l-1.4-3.3c0 .1-21.8-1-38 16zm79.9-28.2l42.8-16.3 1 2.9-42.8 16.3-1-2.9z"/><path fill="none" stroke-width="2" stroke-miterlimit="10" d="M2371.8 868s73.6-23 117.5-41.4m-152.8 83.3s91.8-16.6 156.4-53.4l23.7-16m0 13.6l-25.5 18.2s-102.7 47.3-180.9 48.6m180.9-14.9s-78.9 40.6-124.2 41.2m3.7-69s86.5-25.8 119.9-40.8m-125.6-120.1l28.4 139.3m-23.4-141.2l32.5 138.6m-27-140.7l35.6 137.6M2389.3 708l48.5 103.3m-42-105.8l51.7 102.7m-47-104.5l56 101.7m-65.1 52.2l22-7.2m-38.6-6.5s64.4-18.8 113.1-38.4m-114 45.4s81.6-21.6 113.9-37.3m-89 103.7l4.3 13.1 11.7-3.7-4-13m21-5.8l4.3 13.1 11.7-3.7-4-13m-67.4-73.6l-1-17.7 107-32.5 5.8 14.9m-67.4 3.8l5.8 15.6m31.5-26.9l6.8 14.8m2.1-17.5l6.4 14m2.1-16.6l6.7 14.7m.2-16.8l11.8-6.6 5 13.1m-11.1-9.7l6 13.5"/></g><g stroke="#00247D" stroke-width="2.6" stroke-miterlimit="10"><path fill="#FFF" d="M2185.5 919.4s3.3-15.6 18.2-9.5c0 0 5.1-25.5 32.3-26.4 27.2-.9 28.7 26.5 28.7 28.3 0 0 8-11.8 21.3-10.4 0 0 23-1.4 14.4 35.6l4.4 4.6s17.6-41.3 53.8-30.4c0 0 35.3 10.8 12.3 44.9 0 0 17.4 22.6 32.2 20.5 14.8-2.1 27.9-6.6 42.6-32.6 14.7-25.9 48.7-29.9 57.4-28.3 8.7 1.5 15.5 7.1 16.9 13.3 0 0 18.1-60.2 82.9-50.8l26 13.1 9.9 4.5-14.7 41.5-35.8 81-27.2 8.4-28.4-16.3-9.9 5.3-.8 24.3-37.5 27-26 10.7-28.7 19.6-6.7 17.5s-15.9-6.7-33.8 0l-5.9-14.5-16.7-16-65.1-30.7-11.8-37.9-11.9-5.3-13.3 15.2-19.4 2.3-29-19.6-30.7-88.9z"/><path fill="none" d="M2222.9 980.9s-20.9-21.2 0-42c0 0-22.7-11.1-19.1-29m56.5 87.8s-21.7 3-15.3-39.3c0 0-9 16.7-12.1 25.3-2.3 6.4-.8 16.8 8.4 22.5 3.7 2.2 23.1 7.3 29.4-5.6m-34.7-67.5s-8.8 8.1-2.5 23.1m11.7-21.2s1 14.5 8.2 22.6m-2-28.3s-.1 17 12.2 27.6m-6.1-33.5s.1 19.1 14.3 30.9m56.2-2.8s7.2-15.7 22.3-14.9c0 0-7.3 3.3-7.2 10.7 0 0-.9 12.1 12.1 13.3 0 0 10.5 1.4 15.7-4.4m-7.2 66.9s-37.2-17.5-33.3-42.7c0 0 1.5-15.4 16.5-22.6m-7.8 16s-3.3 10.9 4 18.4m4.3-25.8s-4.5 11.9 3 20.8m6-26.6s-5.4 9.9 1.1 18.7m-35 46.4s20.3 17.6 36.2 17.8m-42.7-12.3s19 15.4 30.9 17.6m-38-13.2s23.5 20.7 38.1 22.2m57.4 19s-23.1 12.4-5.2 25.6m-9.5-39.3s26.2-13.7 37.5-18.8m-28 25.9s37.8-23.1 49-28m-29.6 29.5s32.3-21.6 49.6-30.9m-28.2 30.1s22.3-17.5 43.8-30.2m7.6-21.8s-10.9-16-46.8 0c0 0 13.2-11.9 39.2-21.2M2520 929s2.9 13-.2 20.8m-58 42.1s7.5-11 26.5-16.4c0 0 5.1 12.8 19.9 10 0 0 22.3-4.4 15.6-28.8 0 0-4.6-18.2-30.1-20.1m75.6-30.6s25.9 4.7 25.4 25.8c0 0 2.1 31.7-31.3 37.8m27.7-50.6s7.1-15.4 23-21.8m-19.3-9s7.1 11.3 11.9 13m-15.6-4s6.7 8.1 8.9 9.5m-11.1-1.7s3.5 5.2 6.6 6.8"/></g><g stroke="#000" stroke-width="2.6"><path fill="#F5CE00" d="M2602.6 880.5c-26.6-15.1-32.4-48.6-32.4-48.6-6.4-33.3 6.6-59.7 6.6-59.7 17.2-36.3 46.7-43.1 46.7-43.1s-28.9 20-36.9 47c0 0-6.3 22.8-2.7 45.2 3.6 22.5 2.2 16.7 7.8 34.1l10.9 25.1zm-392.7 0c26.6-15.1 32.4-48.6 32.4-48.6 6.4-33.3-6.6-59.7-6.6-59.7-17.2-36.3-46.7-43.1-46.7-43.1s28.9 20 36.9 47c0 0 6.3 22.8 2.7 45.2-3.6 22.5-2.2 16.7-7.8 34.1l-10.9 25.1z"/><path fill="#F5CE00" d="M2632.1 897.8c-43.2-13.3-55-59.7-55-59.7-8.8-34.8 5.4-65.3 5.4-65.3 19.7-46.4 53.1-46.3 53.1-46.3 16.7-.5 18.8 13.9 18.8 13.9 1.6 10.2-5.5 13.8-5.5 13.8-11.5 6.2-18.7-2.2-18.7-2.2-4.8-6.2-1.1-11.8-1.1-11.8 2.9-4.1 8.6-2.3 8.6-2.3 4.5 1.4 4 7 4 7 0 .2.1.2.1.2.2-.1.1-.1.1-.1s1-6.8-5.7-7.5c0 0-13-2.8-28.3 16.2 0 0-20.1 25.6-20 58.8 0 0-2.5 62.3 62.4 78.4 0 0-7 10.1-19.4 46.6 0 0-14.1 46.9-27.5 72.2 0 0-17.8 36.2-57.6 21.4 0 0-23.7-10.4-23.6-27.6 0 0-1.6-15.7 12.6-16.9 0 0 13.9-1.1 13.8 10.9 0 0 .4 12.9-14.8 10 0 0-5.3-1.1-4.3-6.3 0 0 .8-4.7 7.3-2.6 0 0 .2 0 .2-.1 0 0 .1-.1-.2-.2 0 0-2.5-1.1-5.1-.2 0 0-2.3.8-2.5 4.4 0 0-.2 2.9 3 4.6 0 0 3.8 1.4 6.8 1.1 0 0 4 8.1 13.1 10.9 12.7 3.8 23.1.1 29.5-5 6.9-5.5 11.4-15.2 12.8-17.6 1.3-2.4 13-28.5 21.8-56.6 0 0 7.7-24.2 13.8-36.9l2.1-5.2zm-121.9 118.1s8.1-1.1 8.1 6.1c0 0-.5 10.5-13.3 8.2 0 0-12.6-2.8-8.2-16.9 0 0 3-10 15-8.5 0 0 11.6.5 16.7 16.4 0 0 3.9 13.3-2.8 24.8-7.4 12.8-26.2 21.2-35.3 24.9 0 0-36.3 14.3-47.2 22.4 0 0-16.6 12.3-9.3 23.8 0 0 2.8 4.4 7.1 4.4 0 0 4.9.2 5.7-4.7 0 0 0-.1-.1-.2 0 0-.1 0-.1.1 0 0-.3 3-3 4.2 0 0-3.5 1.8-7.3-1.4 0 0-3.9-3.8-.6-9.6 0 0 4.3-7.2 14.4-2.9 0 0 8.8 4.4 5.2 13.8 0 0-3.2 8.6-13.9 8.6 0 0-8-.3-13.2-5.7-8-8.4-8.5-24.8-1.4-33.2 0 0 6.7-9 20.1-14.5 7.8-3.2 22.4-9.5 37.7-15.5 10.7-4.2 20.5-9.2 26.9-16.8 0 0 5.7-6.3 7.3-17.2 0 0 1.6-8.1-3.4-9.9 0 0-2.5-1.1-5.3-.8 0 0-.1 0-.1.1.1-.1 0 0 .3 0zm-329.8-118.1c43.2-13.3 55-59.7 55-59.7 8.8-34.8-5.4-65.3-5.4-65.3-19.7-46.4-53.1-46.3-53.1-46.3-16.7-.5-18.8 13.9-18.8 13.9-1.6 10.2 5.5 13.8 5.5 13.8 11.5 6.2 18.7-2.2 18.7-2.2 4.8-6.2 1.1-11.8 1.1-11.8-2.9-4.1-8.6-2.3-8.6-2.3-4.5 1.4-4 7-4 7 0 .2-.1.2-.1.2-.2-.1-.1-.1-.1-.1s-1-6.8 5.7-7.5c0 0 13-2.8 28.3 16.2 0 0 20.1 25.6 20 58.8 0 0 2.5 62.3-62.4 78.4 0 0 7 10.1 19.4 46.6 0 0 14.1 46.9 27.5 72.2 0 0 17.8 36.2 57.6 21.4 0 0 23.7-10.4 23.6-27.6 0 0 1.6-15.7-12.6-16.9 0 0-13.9-1.1-13.8 10.9 0 0-.4 12.9 14.8 10 0 0 5.3-1.1 4.3-6.3 0 0-.8-4.7-7.3-2.6 0 0-.2 0-.2-.1 0 0-.1-.1.2-.2 0 0 2.5-1.1 5.1-.2 0 0 2.3.8 2.5 4.4 0 0 .2 2.9-3 4.6 0 0-3.8 1.4-6.8 1.1 0 0-4 8.1-13.1 10.9-12.7 3.8-23.1.1-29.5-5-6.9-5.5-11.4-15.2-12.8-17.6-1.3-2.4-13-28.5-21.8-56.6 0 0-7.7-24.2-13.8-36.9l-2.1-5.2zm121.9 118.1s-8.1-1.1-8.1 6.1c0 0 .5 10.5 13.3 8.2 0 0 12.6-2.8 8.2-16.9 0 0-3-10-15-8.5 0 0-11.6.5-16.7 16.4 0 0-3.9 13.4 2.8 24.8 7.4 12.8 26.2 21.2 35.3 24.9 0 0 36.3 14.3 47.2 22.4 0 0 16.6 12.3 9.3 23.8 0 0-2.8 4.4-7.1 4.4 0 0-4.9.2-5.7-4.7 0 0 0-.1.1-.2 0 0 .1 0 .1.1 0 0 .3 3 3 4.2 0 0 3.5 1.8 7.3-1.4 0 0 3.9-3.8.6-9.6 0 0-4.3-7.2-14.4-2.9 0 0-8.8 4.4-5.2 13.8 0 0 3.2 8.6 13.9 8.6 0 0 8-.3 13.2-5.7 8-8.4 8.5-24.8 1.4-33.2 0 0-6.7-9-20.1-14.5-7.8-3.2-22.4-9.5-37.7-15.5-10.7-4.2-20.5-9.2-26.9-16.8 0 0-5.7-6.3-7.3-17.2 0 0-1.6-8.1 3.4-9.9 0 0 2.5-1.1 5.3-.8 0 0 .1 0 .1.1-.1-.1 0 0-.3 0z"/><path fill="none" d="M2510.9 1015.8s8.9-1.6 14.5 9c0 0 3.3 6.8 3.8 10.8m2.9-37.9s-8.9 1.5-4.3 14.2c4.3 11.9 12.4 15.8 14.8 17.5m-240.9-13.6s-8.9-1.6-14.5 9c0 0-3.3 6.8-3.8 10.8m-3-37.9s8.9 1.5 4.3 14.2c-4.3 11.9-12.4 15.8-14.8 17.5"/></g><g stroke="#000" stroke-width="2.6"><path fill="#F5CE00" d="M2357.3 618.2s15.7 4.8 24.2 8.3c0 0 22.7 10.3 51.6 0 0 0 19.5-7.7 22.1-8.3l-14.9 22.8-.7 11.8 9.4 13.7s-5.6 2.3-22.4-8c0 0-18.5-14.3-40.7 0 0 0-12.1 8.2-22.3 8l14.4-16-5.5-14.4-15.2-17.9z"/><path fill="#F5CE00" d="M2455.2 651.1s-.4 3.6-4 4c0 0-3.7 1.2-5.9-3.5 0 0-.3-1.1-.3-1.6-.2-2.2-1-8.4 5.8-13.6 0 0 11.1-9 32.2 1.9 0 0 16.7 8 28.3 14.9 0 0 29.9 16.1 33.5 17.3 0 0 13.2 6.6 33.3 7.4 0 0 27.5 2 39.2-17.3 0 0 8.9-14.7 0-24 0 0-3.6-4.2-9.5-3.4-2.5.3-5.2 1.5-7.9 4.6 0 0-4.3 6.2.7 10.9 0 0 6.5 4 8.8-4.4 0 0 .1-.6.3.2.1.5 1.6 6.9-1.8 12.3 0 0-16.6 25.1-62.3-.9l-60.2-33.8s-30.2-15.5-48.2 8.7c0 0-14.6 20.1 4.2 33.3 0 0 14 8.3 22.7-4.9 0 0 7.3-13.1-4.2-18.8 0 0-10.1-4.7-14.1 5.3s7.8 12.7 8.9 5.5c-.1 0 .2-1.7.5-.1zm-97.9 0s.4 3.6 4 4c0 0 3.7 1.2 5.9-3.5 0 0 .3-1.1.3-1.6.2-2.2 1-8.4-5.8-13.6 0 0-11.1-9-32.2 1.9 0 0-16.7 8-28.3 14.9 0 0-29.9 16.1-33.5 17.3 0 0-13.2 6.6-33.3 7.4 0 0-27.5 2-39.2-17.3 0 0-8.9-14.7 0-24 0 0 3.6-4.2 9.5-3.4 2.5.3 5.2 1.5 7.9 4.6 0 0 4.3 6.2-.7 10.9 0 0-6.5 4-8.8-4.4 0 0-.1-.6-.3.2-.1.5-1.6 6.9 1.8 12.3 0 0 16.6 25.1 62.3-.9l60.2-33.8s30.2-15.5 48.2 8.7c0 0 14.6 20.1-4.2 33.3 0 0-14 8.3-22.7-4.9 0 0-7.3-13.1 4.2-18.8 0 0 10.1-4.7 14.1 5.3 4 10.1-7.8 12.7-8.9 5.5.1 0-.2-1.7-.5-.1z"/><path fill="none" d="M2468.8 624.4s-24.8-1.1-23.9 24.6m-101.2-24.6s24.8-1.1 23.9 24.6m17.1-1.4s21.6-13.5 43.7 1.5"/></g><g><path fill="#64B4D1" stroke="#00247D" stroke-width="2" d="M2181.8 1135.3s-21.8-13.7-10-36.8c0 0 3.4-6.6 10-5.3 0 0 13.6 4.2 3 23.1 0 0-5.4 12.2-3 19zm44.3 21.7s-31.1-14.2-21.5-38.3c0 0 3-8.1 9.9-7.5 0 0 12 .6 9.6 16.6-.1 0-3.7 15.6 2 29.2zm21.1-6s24.4-6.2 19.9-31.4c0 0-2.4-11-12.7-9.5 0 0-12.4 3.2-4.3 19.2-.1 0 4.7 11.4-2.9 21.7zm339 6s31.1-14.2 21.5-38.3c0 0-3-8.1-9.9-7.5 0 0-12 .6-9.6 16.6.1 0 3.7 15.6-2 29.2zm44.3-21.7s21.8-13.7 10-36.8c0 0-3.4-6.6-10-5.3 0 0-13.6 4.2-3 23.1 0 0 5.4 12.2 3 19zm-65.4 15.7s-24.4-6.2-19.9-31.4c0 0 2.4-11 12.7-9.5 0 0 12.4 3.2 4.3 19.2.1 0-4.7 11.4 2.9 21.7zm62.5-495s3.4-4.7 2-18.6 10.7-15.6 15.4-11.6c0 0 4.8 4.2.4 13-2.5 5.1-6.6 11.7-17.8 17.2zm-3.8-5.1s-.4-5.6-10.1-15.2-1.7-18.4 4.2-18.3c0 0 6.2.1 8.4 9.5 1.3 5.4 2.4 12.9-2.5 24zm-13.3-4.3s-2.5-4.6-14.6-8.9-8.8-14.8-3.7-17c0 0 5.3-2.3 10.9 4.7 3.3 4.2 7.2 10.1 7.4 21.2zm7.6 4.6s-5.6 1.6-18.5-4.6c-12.9-6.2-18.5 4.6-16.3 10.4 0 0 2.4 6 12.3 4.9 5.8-.6 13.5-2.1 22.5-10.7zm-434 4.8s-3.4-4.7-2-18.6c1.4-14-10.7-15.6-15.4-11.6 0 0-4.8 4.2-.4 13 2.5 5.1 6.6 11.7 17.8 17.2zm3.9-5.1s.4-5.6 10.1-15.2 1.7-18.4-4.2-18.3c0 0-6.2.1-8.4 9.5-1.4 5.4-2.4 12.9 2.5 24zm13.2-4.3s2.5-4.6 14.6-8.9 8.8-14.8 3.7-17c0 0-5.3-2.3-10.9 4.7-3.3 4.2-7.2 10.1-7.4 21.2zm-7.6 4.6s5.6 1.6 18.5-4.6c12.9-6.2 18.5 4.6 16.3 10.4 0 0-2.4 6-12.3 4.9-5.8-.6-13.5-2.1-22.5-10.7z"/><path fill="#FFF" d="M2256.6 1120.9s.9-1.2-.2-1.7c0 0-1-.5-1.8 1 0 0-2.5 4-.4 9.6 0 0 2 3.8 1 7.8 0 0-.1 1.1.8 1.3 0 0 .9-.3 1-1.1 0 0 1.2-3.9-.9-7.7.1-.1-2.4-6 .5-9.2zm-80.8-16.9s1.2-1.6.4-2.3c0 0-.5-.8-1.9 1.1 0 0-6.6 7.4-1.3 18.7 0 0 .6 1.6 1.6 1.1 0 0 .9-.5.1-1.8-.1 0-4.8-9.3 1.1-16.8zm39 38.7s-6.8-6.6-5.9-18.3c0 0 .4-2.5-.9-2.9 0 0-1.3-.6-1.5 2.4 0 0-1.9 12.3 6.4 19.3 0 0 .6.7 1.5.5 0 0 1-.2.4-1zm382.7 0s6.8-6.6 5.9-18.3c0 0-.4-2.5.9-2.9 0 0 1.3-.6 1.5 2.4 0 0 1.9 12.3-6.4 19.3 0 0-.6.7-1.5.5 0 0-1-.2-.4-1zm38.4-38.7s-1.2-1.6-.4-2.3c0 0 .5-.8 1.9 1.1 0 0 6.6 7.4 1.3 18.7 0 0-.6 1.6-1.6 1.1 0 0-.9-.5-.1-1.8.1 0 4.8-9.3-1.1-16.8zm-80.2 16.9s-.9-1.2.2-1.7c0 0 1-.5 1.8 1 0 0 2.5 4 .4 9.6 0 0-2 3.8-1 7.8 0 0 .1 1.1-.8 1.3 0 0-.9-.3-1-1.1 0 0-1.2-3.9.9-7.7-.1-.1 2.4-6-.5-9.2zm76.5-475.4s4.5-4.9 2.4-15.5c0 0 0-1 .6-1.1 0 0 1.1-.3 1.3.8 0 0 2.4 11.3-2.7 17.5 0 0-.9.9-1.6 0 0-.1-.7-.7 0-1.7zm-10-6.9s.2-6.9-8.6-14.1c0 0-.7-.8-.3-1.3 0 0 .7-.9 1.5-.2 0 0 9.5 7.6 9.7 15.9 0 0-.1 1.3-1.2 1 0 0-.9 0-1.1-1.3zm-16.9-.4s-2.7-6.3-13.7-9.1c0 0-1-.5-.8-1 0 0 .2-1.1 1.3-.8 0 0 11.8 2.8 15.5 10.3 0 0 .5 1.3-.7 1.4-.1-.1-1 .3-1.6-.8zm-17.2 17.1s5.8 3.6 16.4-.5c0 0 1.1-.2 1.3.4 0 0 .5 1-.6 1.4 0 0-11.3 4.5-18.5.5 0 0-1.1-.8-.3-1.5.1 0 .6-.8 1.7-.3zm-408.6-9.8s-4.5-4.9-2.4-15.5c0 0 0-1-.6-1.1 0 0-1.1-.3-1.3.8 0 0-2.4 11.3 2.7 17.5 0 0 .9.9 1.6 0 0-.1.7-.7 0-1.7zm10-6.9s-.2-6.9 8.6-14.1c0 0 .7-.8.3-1.3 0 0-.7-.9-1.5-.2 0 0-9.5 7.6-9.7 15.9 0 0 .1 1.3 1.2 1 0 0 1 0 1.1-1.3zm16.9-.4s2.7-6.3 13.7-9.1c0 0 1-.5.8-1 0 0-.2-1.1-1.3-.8 0 0-11.8 2.8-15.5 10.3 0 0-.5 1.3.7 1.4.1-.1 1 .3 1.6-.8zm17.2 17.1s-5.8 3.6-16.4-.5c0 0-1.1-.2-1.3.4 0 0-.5 1 .6 1.4 0 0 11.3 4.5 18.5.5 0 0 1.1-.8.3-1.5-.1 0-.6-.8-1.7-.3z"/></g><path fill="none" stroke="#000" stroke-width="6" d="M2770.3 341.3v677.6c0 181-361.8 239.8-361.8 239.8s-361.8-58.8-361.8-239.8V341.3h723.6z"/></svg>
