<svg xmlns="http://www.w3.org/2000/svg" width="220" height="154" viewBox="0 0 1000 700"><path fill="#009B3A" d="M0 0h1000v700H0z"/><path fill="#FEDF00" d="M85 350l415 265 415-265L500 85 85 350z"/><circle fill="#002776" cx="500" cy="350" r="175"/><path fill="#FFF" d="M673.3 374.5c-1.3 9.5-3.4 18.8-6.2 27.7C596.3 338.7 502.7 300 400 300c-23.7 0-46.9 2.1-69.4 6 2.4-9.3 5.5-18.2 9.3-26.8 19.6-2.8 39.7-4.2 60.1-4.2 104.1 0 199.4 37.4 273.3 99.5z"/><path fill="#FFF" d="M359.9 319.5l1.7 5.2-4.4-3.2-4.4 3.2 1.7-5.2-4.4-3.2h5.4l1.7-5.2 1.7 5.2h5.4l-4.4 3.2zm14.4 70.3l-1.7-5.2-1.7 5.2h-5.4l4.4 3.2-1.7 5.2 4.4-3.2 4.4 3.2-1.7-5.2 4.4-3.2h-5.4zm-21.7 16.1l-1.4-4.3-1.4 4.3h-4.5l3.7 2.7-1.4 4.3 3.7-2.7 3.7 2.7-1.4-4.3 3.7-2.7h-4.7zM501.7 427l-1.7-5.2-1.7 5.2h-5.4l4.4 3.2-1.7 5.2 4.4-3.2 4.4 3.2-1.7-5.2 4.4-3.2h-5.4zm-70.1 12.6l-1.7-5.2-1.7 5.2h-5.4l4.4 3.2-1.7 5.2 4.4-3.2 4.4 3.2-1.7-5.2 4.4-3.2h-5.4zm188.3-27.4l-1.7 5.2 4.4-3.2 4.4 3.2-1.7-5.2 4.4-3.2h-5.4l-1.7-5.2-1.7 5.2h-5.4l4.4 3.2zm-66.2 53.6l-1.4-4.4-1.4 4.4h-4.6l3.7 2.7-1.4 4.4 3.7-2.7 3.7 2.7-1.4-4.4 3.7-2.7h-4.6zm33.7-8.8l-1.4 4.4h-4.6l3.7 2.7-1.4 4.4 3.7-2.7 3.7 2.7-1.4-4.4 3.7-2.7h-4.6l-1.4-4.4zm33.2-18.1l-1.4-4.4-1.4 4.4h-4.6l3.7 2.7-1.4 4.4 3.7-2.7 3.7 2.7-1.4-4.4 3.7-2.7h-4.6zm10.5-13.7l-1.4-4.4-1.4 4.4h-4.6l3.7 2.7-1.4 4.4 3.7-2.7 3.7 2.7-1.4-4.4 3.7-2.7h-4.6zm-109.5-33.1l-1.4-4.4-1.4 4.4h-4.6l3.7 2.7-1.4 4.4 3.7-2.7 3.7 2.7-1.4-4.4 3.7-2.7h-4.6zm-23.9-12.6l-1.4 4.4 3.7-2.7 3.7 2.7-1.4-4.4 3.7-2.7h-4.6l-1.4-4.4-1.4 4.4H494l3.7 2.7zm58.6-86.1l-1.4-4.4-1.4 4.4h-4.6l3.7 2.7-1.4 4.4 3.7-2.7 3.7 2.7-1.4-4.4 3.7-2.7h-4.6zm-122.9 57.5l-1.4 4.2h-4.4l3.6 2.6-1.4 4.2 3.6-2.6 3.6 2.6-1.4-4.2 3.6-2.6h-4.4l-1.4-4.2zM649 413.8l3.1-2.2h-3.8l-1.2-3.6-1.2 3.6h-3.8l3.1 2.2-1.2 3.6 3-2.2 3.1 2.2-1.1-3.6zm-101.1-70.6l3.1 2.2-1.2-3.6 3.1-2.2h-3.8l-1.2-3.6-1.2 3.6H543l3.1 2.2-1.2 3.6 3-2.2zM585 447l-1.2 3.6 3-2.2 3.1 2.2-1.2-3.6 3.1-2.2H588l-1.2-3.6-1.2 3.6H582l3 2.2zm21.4.9l-1.2-3.6-1.2 3.6h-3.8l3.1 2.2-1.2 3.6 3-2.2 3.1 2.2-1.2-3.6 3.1-2.2h-3.7zm-17.5 31.7l-1.2-3.6-1.2 3.6h-3.8l3.1 2.2-1.2 3.6 3-2.2 3.1 2.2-1.2-3.6 3.1-2.2h-3.7zm-20.3-29l-1.2-3.6-1.2 3.6h-3.8l3.1 2.2-1.2 3.6 3-2.2 3.1 2.2-1.2-3.6 3.1-2.2h-3.7zm-28.9-4l-1.2-3.6-1.2 3.6h-3.8l3.1 2.2-1.2 3.6 3-2.2 3.1 2.2-1.2-3.6 3.1-2.2h-3.7zm-129-39.2l-1.3-3.9-1.3 3.9H404l3.3 2.4-1.3 3.9 3.3-2.4 3.3 2.4-1.3-3.9 3.3-2.4h-3.9zm-5.5 18.3l-1.2-3.6-1.2 3.6H399l3.1 2.2-1.2 3.6 3-2.2 3.1 2.2-1.2-3.6 3.1-2.2h-3.7zm78.3-33.2l-1.2-3.6-1.2 3.6h-3.8l3.1 2.2-1.2 3.6 3-2.2 3.1 2.2-1.2-3.6 3.1-2.2h-3.7zm-93.2-11.8l-.7-2.2-.7 2.2h-2.3l1.9 1.3-.7 2.2 1.9-1.3 1.9 1.3-.7-2.2 1.9-1.3h-2.5zm100.8 26.1l1.9 1.3-.7-2.2 1.9-1.3h-2.3l-.7-2.2-.7 2.2h-2.3l1.9 1.3-.7 2.2 1.7-1.3zm9.3 79.4l-.5-1.7-.5 1.7h-1.7l1.4 1-.5 1.7 1.4-1 1.4 1-.5-1.7 1.4-1h-1.9z"/><path fill="#009B3A" d="M357.2 289.7c-.6-4.6-4.3-7.9-8.5-7.4-4.1.5-7 4.6-6.4 9.2.6 4.6 4.3 7.9 8.5 7.4 4.1-.6 6.9-4.7 6.4-9.2zm-7.5 6c-5.7 0-5.7-10.2 0-10.2s5.7 10.2 0 10.2zm59.9-2.9l.1-4.3 9.5.3.1-2.8-9.5-.3.1-3.3 11.4.4.1-3.1-14.3-.5-.6 16.7 15 .5.1-3.1-12-.5zm30.4-11.7l-4.3 11.1-2.3-11.7-4.1-.4-1.5 16.6 2.8.3 1-11.4 2.3 11.7 2.6.2 4.3-11.1-1 11.4 2.9.3 1.5-16.6-4.2-.4zm36.4 9.6l.5-2.8-12-2.1-2.5 14.8 12.3 2.1.5-2.8-9.5-1.6.6-3.8 7.7 1.3.5-2.8-7.7-1.3.4-2.6 9.2 1.6zm135.2 49.1l1.5-2.7-12.4-7-8.2 14.5 13.1 7.4 1.5-2.7-10.6-6 2.1-3.7 8.3 4.7 1.4-2.5-8.3-4.8 1.6-2.9 10 5.7zm17.6 13.2c2.3-3.4-.6-6.4-2.5-7.6-1.8-1.2-6.6-4.5-9.4-.2-3.3 5 7.3 9.2 5.5 12-.6.9-1.9.9-4-.3-2-1.3-2.9-2.9-2-4.3l-3.2-2c-2.3 3.5 1.2 7 3.5 8.5 2.7 1.7 6.8 3.3 9.1-.3 3.2-5-7.2-9.4-5.6-11.7.9-1.4 2.2-1 3.8 0 1.6 1 2.7 2.5 1.7 4l3.1 1.9zm17.8 12.5c2.4-3.3-.3-6.4-2-7.7-1.7-1.3-6.4-4.8-9.4-.7-3.5 4.8 6.8 9.5 4.8 12.3-.6.9-2 .8-3.9-.5-1.9-1.4-2.8-3-1.8-4.3l-3-2.2c-2.4 3.4.8 7 3.1 8.6 2.6 1.9 6.6 3.7 9.1.1 3.4-4.8-6.7-9.7-5-12 1-1.4 2.3-.9 3.8.2s2.5 2.6 1.5 4.1l2.8 2.1zm14.4 4.7c-3.7-1.9-8.4-.1-10.5 4-2.1 4.1-.8 8.9 2.8 10.8 3.7 1.9 8.4.1 10.5-3.9 2.2-4.1.9-9-2.8-10.9zm-6.7 11.6c-4.7-3.2 1.1-11.6 5.7-8.4 4.7 3.2-1 11.6-5.7 8.4zM393.5 279.2l-8.3.1.3 16.7s6.6 0 8.4-.2c3.4-.3 6.5-2.8 6.5-8.1-.1-5.7-3.1-8.3-6.9-8.5zm-1.3 13.7h-3.7s-.1-8.4-.2-10.5h4.9c3.5.1 4.2 3.1 4.3 6.1-.4 2.9-2.3 4.4-5.3 4.4zm-15.9-3.4s1.7-1.5 2.2-3.6c.6-3.1-2.3-6-4.9-5.9-1.7.1-10.2.7-10.2.7l.9 16.6 3.1-.2-.4-6.1c6.3-.4 5-.4 6.7-.5 1.7 2.8 1.9 4.4 1.9 6.2h3c0-2.4-.6-5.4-2.3-7.2zm-1.9-2.5c-.7.5-2.5.6-2.5.6l-5.1.3s-.2-2.9-.3-4.3c.8 0 4.9-.3 5-.3 1.5 0 2.1-.4 3.1.5 1 .6.7 2.7-.2 3.2zM546 305.6c-4.1-.6-7.9 2.7-8.6 7.2s2.2 8.7 6.3 9.3c4.1.6 7.9-2.7 8.6-7.2s-2.2-8.7-6.3-9.3zm-2.4 13.2c-5.5-1.5-2.9-11.3 2.6-9.8 5.5 1.4 2.8 11.2-2.6 9.8zM529 298.6c-1.6-.5-9.9-2.7-9.9-2.7l-4.6 16 3 .8 1.6-6c6.1 1.6 4.8 1.3 6.4 1.7.7 3.2.4 4.8-.2 6.5l2.8 1c.9-2.3 1.3-5.3.2-7.5 0 0 2.1-.8 3.2-2.7 1.7-2.7-.2-6.4-2.5-7.1zm-1.6 6.8c-.8.3-2.5-.3-2.5-.3l-5-1.4s.8-2.8 1.1-4.1c.7.3 4.7 1.3 4.8 1.3.8.2 1.7.5 1.7.5 2.1.8 1.5 3.7-.1 4zm62.9 17.8c-1.6-.6-9.6-3.5-9.6-3.5l-5.9 15.6 2.9 1.1 2.1-5.8c5.9 2.2 4.7 1.7 6.3 2.3.4 3.3 0 4.8-.8 6.5l2.8 1.2c1-2.2 1.7-5.2.8-7.5 0 0 2.2-.6 3.5-2.4 1.8-2.7.3-6.6-2.1-7.5zm-2.1 6.6c-.8.2-2.5-.5-2.5-.5l-4.8-1.8s1-2.7 1.5-4c.7.3 4.6 1.7 4.7 1.7 1.4.6 2.1.5 2.6 1.7.6 1.1-.5 2.8-1.5 2.9zm-80-36.8c-1.7-.5-9.9-2.5-9.9-2.5l-4.2 16.1 3 .7 1.5-6c6.1 1.5 4.9 1.2 6.5 1.6 2.8.7 5.1-1.3 6-2.8 1.5-2.7-.4-6.4-2.9-7.1zm-1.4 6.8c-.8.3-2.5-.2-2.5-.2l-5-1.2s.7-2.8 1-4.2c.8.3 4.8 1.2 4.8 1.2.8.2 1.7.4 1.7.4 2.1.7 1.6 3.7 0 4zm65.5 21.9c-2.3-1.1-2-.7-3.1-1.2-.1-1.1-.6-2.2-1.7-3-4.7-3.2-10.4 5.2-5.7 8.4 1.8 1.2 3.8.7 5.2-.5l-2.3-1 1-2.2c4.6 2 3.1 1.4 5.8 2.5l-3.3 7.6-2.2-.9.9-2.1c-1.9.8-4.1.8-6-.2-3.7-1.9-4.9-6.8-2.8-10.8 2.1-4.1 6.8-5.9 10.5-4 2.5 1.4 3.9 4.3 3.7 7.4z"/></svg>
