<svg xmlns="http://www.w3.org/2000/svg" width="240" height="160" viewBox="0 0 900 600"><path fill="#EFB22D" d="M0 0h900v600H0z"/><path fill="#E23D28" d="M0 600h900V0L0 600z"/><g fill="#FFF" stroke="#000" stroke-width=".5"><path d="M481.7 187.6c-5-1.8-8.2.8-8 7.2.2 6.4 3.5 10.1 8.5 7.7l-.5-14.9z"/><path d="M486.1 175.5c-4.2-3.3-8-1.9-9.9 4.3-1.9 6.1.1 10.7 5.6 10.1l4.3-14.4z"/><path d="M493 163.9c-3.6-3.9-7.6-3.1-10.5 2.6-2.9 5.8-1.6 10.6 3.9 10.8l6.6-13.4zM488.5 220.6c-6.1 2.3-6.8 10.6-2.9 15.8 3.9 5.2 10.9 6.1 14.8 0l-11.9-15.8z"/><path d="M481.4 202.9c-5.8-1.9-11 5.9-11.9 12.9-1.1 8.9-13.7 11.8-6.8 25.1 1.4-8.5 7.1-13.2 11.6-13.5 4.5-.3 11.3-1.3 14.2-6.8l-7.1-17.7zM499.8 237.3c-6.8 1.6-7.7 10.6-2.9 17.1 4.1 5.5 17.1 4.2 16.7-1.3l-13.8-15.8zM518.9 291.6c.3-5.8-9-8-13.5-6.9-4.5 1.1-13.1-.2-15.1-5-1.6 3.9.7 8 7.2 10.1 4.9 1.6 4.8 5.2 3.4 6.8 3.7.6 14.6.6 18-5z"/><path d="M513.6 254.6c-6.6-2.9-10.5 1.5-13 5.8-3.7 6.3-15.1-1.8-19 6.6 5.2-2.3 10.6 2.6 13 4.2 7.1 4.7 20.8 3.2 22.7-7.7l-3.7-8.9z"/><path d="M517.5 262.3c-6.6 5-9.2 10.9-9 15 .2 4 5.8 12.9 11.9 13.4 3.5-7.3 5.3-22.6-2.9-28.4zM490.1 293.4c0-2.4 3.5-3.4 6-2.6 2.4.8 6.1 3.2 4.8 5.8l-10.8-3.2zM453.7 280.2c-.6-2.9 4-7.9 10.3-5.2 6.3 2.7 7.1 8 4.5 10.1l-14.8-4.9z"/><path d="M469 285.5c-.5-1.6 4-4.8 11.8-2.9 7.7 1.9 9.6 6.9 9.3 10.8l-21.1-7.9zM452.9 280.2c4-3.1 2.5-8.9-1.1-10.6-6.6-3.2-4.2-11.6-8.4-13.2-4.2-1.6-8.2-4.5-8.4-7.4-2.1 4-.8 7.7 2.1 10.3 2.9 2.6-2.3 13 1.4 15.8l14.4 5.1zM366.6 277.9c-3.4-5.3-11.4-4.3-14.8-.6-3.4 3.7-2.9 9.2.3 11.6l14.5-11zM386 270c-1.3-7.1-9.8-7.9-14.5-6.1-4.7 1.8-7.9 8.9-4.8 14L386 270z"/><path d="M398.8 269c3.1-6-2.9-14.8-9.7-16.1-5.6-1.1-12.3-1-14.5-6.6-1.4 4.8 2.3 7.9 6.4 10.6 4.2 2.7-.8 9.8 6 13.8l11.8-1.7z"/><path d="M398.2 269.3c-1.4-4.3 1.4-9.9 7.2-9.5 5.8.4 9.1 4.6 6.5 9.9l-13.7-.4z"/><path d="M411.1 269.6c-.8-4.4 2.8-9.6 8.5-8.4 5.7 1.2 8.3 5.8 5.1 10.7l-13.6-2.3z"/><path d="M423.9 271.6c-.6-4.5 3.3-9.5 8.9-8 5.6 1.5 8 6.2 4.5 10.9l-13.4-2.9zM326.7 345.3c-10.8 0-13.4 2.6-15 13.7-1.9 13.9 17 15.5 15-13.7z"/><path d="M331.5 330.9c-16.6-6.3-25.6 20-42 15.3 5.9 9.3 20.1 0 25.4 1 9.1 1.5 28.6-1.9 16.6-16.3zM320.8 366.8c-8.2-3.7-17.1 8.9-15.5 14.3 2.1 6.9 20.8 1.3 15.5-14.3zM282.5 420.9c4.5 1.3 10 3.9 9 12.6s-17.4 26.4-32.2 27.4c-14.8 1-20.1 18.8-32.8 13.8 11.9-2.3 11.9-15.8 21.2-20-6.8-2.4-10.3 12.9-19 12.9s-12.9 13.8-23.5 12.9c-10.6-1-11.7 16.9-33 17.1-16.3.2-36.4 19.2-43.6 10.9 15.8-2.3 22.1-11 31.6-20.6 15.1-15.4 32.2-8.5 38-22.2-6.9 4.7-15 6.9-22.9 6.8-9.9-.2-20.8 15.8-31.9 8.7 6.4-.8 10.6-3.5 17.4-10.6 6.9-7.3 17.1-2.6 25.1-10 12.6-11.6 23.3-1.9 35.4-16.4-3.4-1.6-10.6-.5-17.4 3.1-6.8 3.5-15.5-2.4-23.2 1.8 1-9.5 19-4.1 30.3-10.6 12.7-7.4 23.3-5.2 33.3-4.3-14-.1-19.5-13.4-38.8-9.5-8.4 1.7-15.1-11.6-23.5-4.8.2-5 9-9 18-4.2s12.6-4.2 30.6 7.1c7.4 4.7 20.1-2.9 28.2 2.1-1-3.1-5.6-5-11-4.6 3.3-7.3 25.2-6.4 34.7.6z"/><path d="M296.8 410.4c-7.1-5.5-16.9 1.1-23.7-1.4 0 4.5 2.3 11.3 9.7 13.8 2.2-1.6 12.4-10.5 14-12.4z"/><path d="M307.9 394.8c-11.1-5.6-13 8.4-21.7 5.5.3 4 3.5 9 10.6 10.1l11.1-15.6z"/><path d="M314.5 382.1c-16.4-6.4-18.5 9.3-28.2 6.3 2.3 5.5 16.1 8.4 23.2 6.4l5-12.7zM337 313c-4.3-6.1-13.5-1.1-15 6.1-1.4 7.2 2.1 17.4 8.2 15.1L337 313z"/><path d="M348.1 293.7c-7.6-1.8-16.3-1-15.3 6.4-2.9 1.3-3.7 10.8 4.2 12.9l11.1-19.3z"/><path d="M353.1 288.7c-7.4-8.7-15.7-8.5-20.3-4.8-8.5 6.8-16.8 2.9-17.1 9.7 5.2-3.9 9.7.8 13.8-.6 4.2-1.4 7.2 6.6 18.8 3.2l4.8-7.5zM335.3 418.6c1.1 2.1 8 3.1 11.4-.5 4.5-4.7-.5-17.7-7.6-18.7-7.1-.9-7.7 14.7-3.8 19.2z"/><path d="M327.2 418.9c10.1 3.7 14.5-4.7 9-10-1.4 1.8-6.7 8.2-9 10z"/><path d="M289.2 432.8c-1.9 5.8-11.9 6.8-23.2 24.8-11.3 18-22.1 10.5-24.8 22.9 13.5-10.9 24.1-3.7 32.2-14.5 12.2-16.4 22.3-14.1 27-25.1 6.8-15.8 36.4-15.5 38-40.2-9.9-2.1-41.5 24.7-49.2 32.1zM543.2 189.4c12.9 4.2 13.2 20.9 28 26.4s16.3 18.7 28.3 15.5c-11.3-3.1-10.5-16.1-22.2-19.3-13.8-3.8-19-24.8-29.9-28M602.3 276.8c2.3 5.2 1.9 14.3-6.1 16.7 4.3 2.7 10.8.2 14.3-5.8-5.3 11.8-1.8 22.4 6.6 24.5-4-8.2 5-12.1 2.1-17.4 5.3 2.3 10 9.5 9.8 14 6.9-7.7-5.2-18-2.9-25.3l-23.8-6.7zM518.9 359.5c-7.9-6.9-11.3 1.8-15.1-1.2-3.6-2.8-8.5-3.2-10.3-.4 6.8.2 3.5 5.5 16.6 6.8-13.1.9-10.7 15.5-19.5 14.8 9.3 8.9 14.2-7.9 21.7-5.2-2.3.6 3.5 6-.5 13 6.5-.2 9.2-9.2 10-13.8l-2.9-14zM345.2 434.7c-2.9-2.4-11.3-3.5-14.5-1.6-3.2 1.9-2.1 2.4 1.8 2.7 3.9.3 8.9 6.6.5 6.9-3.9.2-2.6 9.5-10.6 10.1 3.3 4 12.7 1.4 16.1-3.1-.6 3.6 4.2 6.9 2.3 11.3 6 .6 2.5-12.1 11.9-11.4-3.9.5-2.3 9.2 4.5 6.9-4 1.9-1.9 6.6 2.6 5.5-2.9 1-3.9 4.7.2 6.8 3.7-5.3-.6-24.3-14.8-34.1zM695.8 257.1c12.3 0 22.3-10 22.3-22.3s-10-22.3-22.3-22.3-22.3 10-22.3 22.3 10 22.3 22.3 22.3z"/><path d="M579.3 284c6.8-6.4 17.1-9.7 24.1-4.8 7.1 4.8 30.6 10.6 42.2 2.6 11.6-8 17.1-12.2 22.2-11.3 3.9 5.8 8.5 8.5 14.3 9 1.8 1.9 8 3.5 11.6 3.1 5.1 1.3 11.4-.3 16.4-5.8 7.7 1.1 15-4.7 17.7-13.4 8.2-1 8.7-10.1 3.5-16.3-4.8-1-1.1-17.2-18.7-14 7.4 4.5 1.8 13.5 7.9 17.7-4.2 0-9.6 1.8-10.9 8 1.6-4.3-.2-7.2-1.4-8.2.2-3.7-8-12.8-15.8-9.5 5.6 1.2 2.4 10.1 6.4 13.5-2.9.2-6 1.6-7.7 4.2-2.1-3.7-9.5-7.6-14-7.9 0-1.3-.2-3.9-.8-5.2-2-3.9-3.7-8.5-2.9-14.3-3.9 4.2-7.1 10-9 14.2-6.1-4.2-21.3 1.9-28.3 3.5-7.1 1.6-30.9-2.3-36.4-8-5.5-5.8-16.1-9.3-26.1-12.2-13.7-4-13.8-19-29-29.3-.1 18.7 28.3 78 34.7 84.4zM421.5 426.3c11.9 0 21.6-9.7 21.6-21.6 0-11.9-9.7-21.6-21.6-21.6-11.9 0-21.6 9.7-21.6 21.6.1 12 9.7 21.6 21.6 21.6z"/><path d="M370 409.7c4.3 5.6 11.8 5.3 14.8 4.8 2.6 6.8 10.8 6.6 14.3 10.3 3.5 3.7 15.6 3.4 19.2 1.3-3.2-.3-7.4-2.3-11.4-5.6-4.9-4.1-2.6-12.2-6.4-15.1 2.9-3.2 3.4-8.5 2.7-10.6 3.1-1.8 5.3-4.7 5.6-6.1 5.3-.3 10-3.1 11.9-5.2 2.7 2.6 9.7-.8 13.4 3.5.8-10.6-9.3-16.3-16.1-12.7-2.7-1.4-10-.5-11.3 1.4-2.3-1-8.5 2.3-11.4 4.3 3.2-1.8 3.7-7.1 2.4-9 2.7-1.1 5.8-4.8 6.1-7.6 3.9.6 9.7-1.9 12.2-1.3-4.2-5.5-11.1-7.4-18.2-6.9-7.3.4-10.5 5.6-11.4 11.1-4.3 2.6-5.8 11.3-4.2 14.3-2.5-.1-4.8 2.3-5.8 3.7-3.4-1.4-8.2-2.5-11.7-2.5M366.3 373.2c-1.4-4.2.5-8 1.4-11.3 2.5-8.5 1-10.6-6.6-9.5-.6 4.1 3.3 17.3 5.2 20.8z"/><path d="M360.8 352.9c1.9 1.9 8.8 2.8 9.5-3.3.8-7-2-9.7-8.1-7-.5 1.6-1.1 8.2-1.4 10.3z"/><path d="M362.2 342.4c2.6 1 8.1 3.1 11.2-2.8 2.6-5-.8-8.9-6.1-8.5-1.3 1.4-3.9 6.5-5.1 11.3z"/><path d="M367 330.5c.6 1.9 7.2 8.4 12.1 3.7 4.8-4.7 4.8-11.6-2.4-14.2-2 .4-7.8 7.2-9.7 10.5z"/><path d="M376.6 320.1c1.4 4 6 10.9 14.3 7.7 8.4-3.2 4.8-13.7 1-15.8-2.2.2-11.4 4.4-15.3 8.1z"/><path d="M391.9 312c-.6 3.5 0 13.2 11.4 13 11.4-.2 8.2-13.5 5.3-15.5-4.6.1-12.5.3-16.7 2.5z"/><path d="M409.1 310.1c-1.3 2.7-4.2 20.7 18.2 15.8 2.9-.7 10.5-17.3-18.2-15.8z"/><path d="M421.4 311.7c-2.3 2.3 3.5 20.4 18.7 17.4 15.1-3.1 2.4-20.3-18.7-17.4z"/><path d="M434.3 314.4c-2.4 5 1.2 19.8 19.9 19.8 16.9 0-1-19.4-19.9-19.8z"/><path d="M448.9 318.8c-1.2 2.8-2.7 18.5 19.3 19.8 16 1 12.1-21.6-19.3-19.8z"/><path d="M472.6 325.4c-2.7 4.8-5.6 16.9 18.5 17.9 15.4.6 5.9-17.6-18.5-17.9z"/><path d="M492.7 329.1c-3.5 4.8-.9 14.3 8 16.1 11.3 2.3 12.9-8.4 5.2-13.5-7.7-5.2-13.2-2.6-13.2-2.6z"/><path d="M503.6 331.3c-2.6 4.5-1 15.5 16.1 15.5 3.6 0 17.1-13.8-16.1-15.5zM371.5 541.3c13.8 0 25-11.2 25-25s-11.2-25-25-25-25 11.2-25 25c-.1 13.8 11.1 25 25 25z"/><path d="M555.1 177.1c-1.9 1.9-6 7.7-6.8 10-8.4 25.1 14 43.9 27 70.8 10.3 21.2 9 54.7-7.1 76-5.5 7.3-3.9 9.3-10.9 16.7-2.7 2.8-5.8 6.4-4.8 16.7 4.5-1.6 10.9 2.6 12.2 6.1 3.2-1.6 7.7-1 9.3 1 5.5-2.6 10-1.3 14.8 3.9 4.2-.6 8.7 0 12.9 4.5 2.3-4.5 6.8-6.1 10-5.2-.3-5.8 5.5-10 10.6-7.7-1.6-7.7 5.5-13.5 12.2-11.3 5.8-4.5 17.4-4.8 23.2 1.9-10.3-2.9-10 8-18.7 7.1 2.3 6.4-3.5 10.1-9.3 12.2 3.7-1.8 7.7-3.9 9-1.6 3.2-2.8 9.7-1.8 11.3-.3 4.3-1.4 8.4-.3 10.3 4.8 5.8 3.5 9.7 12.6 5.5 19.3-1.3-7.1-6.1-6.8-8-9.7-4.5 1.6-9 1.6-10.3-1.3-2.6 2.6-11.3 4.8-15.1 1-1.5 5.8-6.4 10.6-12.2 10.6 1.6 4.5-2.9 12.2-6.4 16.1 5.5 2.9 3.9 9.3 2.6 13.2 8.4 1.3 1.3 8.7 15.8 13.5-7.1 2.3-20.9 0-22.9-8.7-7.1-.3-11.9-7.4-11.6-14.8-5.5-5.2-6.3-12.6 1.3-17.7-6.4 1.9-10-8.4-19.3-4.2-4.6 2.1-16.9-1.4-16.7-5.8-1.9 3.2-13.7 1.9-15.3-3.5-3.9 2.1-12.9-1.4-12.7-6.8-5 2.3-11.8-1.8-11.4-6.9-4.7-.6-5.1-4.8-4.8-8.4-4.2-1.9-3.1-6-1.5-10.8-2.9-3.2-1.6-7.7.6-11.9-3.2-3.2-2.6-7.1-1.6-11.6-15.5-1.3-34.8-5-79.2-18.7-67-20.6-85 27.7-70.2 58 17.1 34.9-1.9 42.5 3.9 68.6 6.1 1.3 9.3 6.4 9 11.9 3.6.2 6.2 3.5 4.9 10 3.1-.6 7 .3 9.6 2.9 2.3-4.2 9.7-5.2 13.5-.3 8.4-.6 12.6 6.1 12.2 14.5 4.5 8.1 2.9 17.9-1.9 24.1.5-3.4 0-8.2-.2-11.1-.3-5.3-7.7-6.4-6.9-10.8-3.9.3-7.6-1.8-8.9-4.7-2.3 1.9-5.5 2.6-8.2 1.6 4.3 1.9 7.7 9.7 6.4 14.8 2.3 3.9 1.8 11-1 14-1.3 6.3-6.1 8.5-12.4 5.8 3.5-2.3 4.8-6.3 4.7-9.7-2.3-1.9-3.4-5.6-3.5-7.9-6.3 1-15-4.3-16.6-6.4-13.8 0-25 11.2-25 25-.6-5.2-7.2-10.2-6.4-14.6-3.9-11.9 1.6-23 17.4-25.3-1.9-4.5 4.8-9.2 2.3-14.3-3.3-6.6-9.3-15.1-18.4-25.1 5.5-9.3 3.9-21.9.6-29.6-4.6-11.1-9-8.4-25.4 9.7-26.8 29.4-62.5 21.3-94 40.6-8.4 5.1-16.7 7.1-7.7-1.9s32.8-18 48.3-25.8c28.9-14.5 53.4-38.6 63.1-85.6 22.7-110.5 106.2-74 159-53.4 49.6 19.3 40.6-24.5 15.5-50.9-30.2-31.7-24.1-56.7-10-76.6 25.4-3.4 74.2 5.5 64.3 14z"/><path d="M644.8 448.5c15.2 0 27.6-12.3 27.6-27.5s-12.3-27.6-27.6-27.6-27.6 12.3-27.6 27.6c.1 15.2 12.4 27.5 27.6 27.5zM546 128.8c-12.9-6.4-39.6-18.4-47.2-8.7 6.9-2.9 27.2.2 43.9 15.6l3.3-6.9z"/><path d="M553.8 128.1c-14.9-17.3-23.7-13.5-34.4-19.4-10.1-5.6-26.1-6.8-29.2 2.2 14.7-7.2 28.2 3.8 36.5 5.2 11.4 1.8 17.8 10.6 21.1 14.7l6-2.7zM609.9 125.9c-7.7-17.7-24.3-13.1-31.6-20.6-10.6-10.9-37.5-21.1-48.6-13.5 24.5-1.3 34.9 16.9 48 23.2 9.3 4.5 19.3 14.2 32.2 10.9z"/><path d="M580.9 124c-13.2-16.4-33.5-30.9-42.8-25.4 12.2.6 16.1 9.2 24.8 14.6 8.7 5.5 4.8 13.4 18 10.8zM518.1 153c-13.8-5.2-40.9-7.7-53.4 8 20.9 3.6 52.5 1.6 53.4-8z"/><path d="M515.5 159.1c-13.8-6.4-24.7 2.6-37.7 1.3-24.8-2.4-42.5-1-44.8 10.9 14.2-12.7 38-2.3 47.7-4.8 9.7-2.6 45.4-.3 56.7 4.5-5.8-7.1-14.8-9-21.9-11.9zM559 122.2c-3.2-10.6-3.1-21.9 12.9-21.1-4-5-18.8-7.6-21.3 11.1-17.5-12.9-36.7-15.1-40.2-4 9-7.7 23-2.1 39.8 16.9 1.4-.8 5.3-2.4 8.8-2.9z"/><path d="M534.9 136.9c-10-6.4-23.5-16.9.2-21.1-10.1-5.5-25-3.1-23.3 15.6-27-10.9-46.5-7.3-50.5 3.5-4.5 11.9 12.2 18.5 15.1 10.9-3.1 1.3-13.5-2.3-8-9 5.5-6.8 33.5-1.7 60.2 12.2 7.2 4 32.7 3.3 6.3-12.1z"/><path d="M527.8 154.6c-7.7-15.7-32.7-1.4-37.7-16.7-6.9 22.3 35.5 10 37.7 16.7zM686.7 171.7c5.2 2.6 9.8-1.5 1.8-4.7 5.2 2.6 9.8-1.4 1.8-4.6 5.2 2.6 9.8-1.4 1.8-4.6-2.2 2.1-5.3 10-5.4 13.9zM689.4 141.4c11.6-12.2-1-16.4 13.2-29 11.6-10.3 2.2-17.1 13.2-25.1 3.5-2.6 11.3-7.7 11.9-12.9 4.7 11.6-14.5 13.2-13.2 31.9.8 11.9-7.2 10.9-10.3 30.9-.6 4.2-3.5 13.5-14.8 4.2z"/><path d="M694.6 146.9c6.4-13.8 13.8-13.6 17.4-19 6.8-10.3 21.1 1.8 33.2-7.4-2.1 13-18.3 8.4-25.4 16.7-7.2 8.4-13 12.2-25.2 9.7z"/><path d="M696.2 151.4c11.3-9 19.6-3 27.4-7.7 19.6-11.9 27.5 2.4 45.1-3.2-4.7 11.3-30.6 1.6-41.9 10-11.3 8.3-50.9 16.3-30.6.9zM663.3 215.6c-.2-5.2-5-11.8-11.8-12.6-6.8-.8-9.7-7.9-14.8-8.2-5.1-.3-8.5-10.6-15.6-10.5-7.1.2-10 9.3 6.6 17.7 16.6 8.4 35 18.1 35.6 13.6zM642.4 219.9c-7.1.3-8 10.6-14.8 10.9 9.3 5 16.1-2.3 20.9-8.7l-6.1-2.2z"/><path d="M648.2 221.2c-6.1 5.2-7.9 15.9 1 19-5.3-7.3 9.3-10.6 4.8-17.4l-5.8-1.6z"/><path d="M654.3 221.6c-4.8 9.3 7.6 10.5 4.3 17.5 7.1-1.6 8.2-15 1.8-18.5l-6.1 1z"/><path d="M607 201.6c11.6-.6 22.2 5.6 29.3 15.8 4.5 6.4 19.6 9 24.8 3.9 5.2-5.2 2.3-16.1-10.6-12.6-3.2-5.5-12.6-3.5-17.1-8-4.5-4.6-21.9-17.5-26.4.9zM621.4 187.4c20.6 5.2 36.9 9.7 47 15.5 10.1 5.8 25.8 7.4 39.5 3.5 13.7-3.9 40.2-7.4 38.9 9.7 7.2-8.5-2-17.7-20.2-19.3.3-8.4-8.6-15.9-15.1-10.9 6-.8 11.1 10.3-.7 14.8 2.3-8.4-6-15.9-14.7-12.2 5.5 1.6 11.2 10.9-1.3 14.5-7.8 2.3-19.3-.6-27.8-5.8-8.4-5.3-56-23.9-45.6-9.8z"/><path d="M673.3 179.1c-6.4 2.9-2.3 9.7-12.2 13.5-10 3.9-16.9 12.7-14.7 20.3 6.8-14.8 18.7-14.2 22.9-20 4.2-5.8 10.3-14.3 4-13.8z"/><path d="M675.1 180c-.3 11.8-9.6 7.5-6 24 1.1 5.2 3.2 13.5-.3 21.9 10.4-7.6 3.7-23.5 8.4-29.5 2.3-2.9 5.2-7.4 6.3-11.3-2.4 6.8-2.3 19.3 4.3 22.5-5.3-12.6 14.3-22.9.8-37.3-1.9 3.6-8.1 9.9-13.5 9.7zM642.2 168.3c1.6 2.4 3.2 8.5 1.8 11.9 3.2-1.9 7.9-6.9 9.3-10.3 6.6 1 9.2 9.2 2.9 12.7 3.9 0 10.5 0 14.2-4.3-4.5-5-18.5-12.8-28.2-10z"/><path d="M542.1 145.2c-1-.9-2.8-1.9-6-2.5-9.7-2-4.7-10.8 3.6-10.7 17.7-19.3 27.6-4.4 49.2-10.5 7.6-2.1 12.7-1.5 16.8.3 9.7-6.4 21-4.6 29.2 2.9.9-1.5 2.1-2.6 3.9-3 7.6-2.1 13.7 4.3 15.8 12.7 5.9-1.1 12.6 1.8 17.1 5.9 6.1-3.2 10.4-3.3 11.9-.1 5.5-2.6 12.6-4.2 16.1 4.5 3.5 8.7-8.4 6.1-10.3 24.5-1.2 11.3-13.8 15.8-23.8 9-16-10.8-31.5-12.6-39.3 3.9-7.7 16.4-13.8 26-32.5 20.6-6.8-1.9-15.5.6-20.9 8-5.5 7.4-13.8.5-23.8 1.3 12.6-1.9 7.7-5.1 18.7-5.8 10-.6 7.4-10 13.8-11.3-25.1 6.4-24.1-2.9-44.8 3.5 9-11.6 23.2-5.2 30.3-11.9-18.7-.3-27-12.5-35.4-7.4-13.2 8-7.4 31-41.9 29-16.7-1-27.4 1.3-37.3 11.3 17.4-36.1 41-16.2 52.5-27.7 6.8-6.8 11.9-11.9 15.5-18.4 1.2-2.3 2.9-3.6 5-4.1-28.7-9-11.4-23.1 16.6-24z"/></g><path fill="none" stroke="#000" stroke-width=".5" d="M671.7 140.2c-.5.3-1 .5-1.6.9-20 11.3-27.4-6-39.3-6.4-12.4-.4-16.5-9.3-25.1-13m29.3 2.9c-1.8 2.8-2.2 6.8-1.7 10.2m50.3 5.3c.4.9.7 2.1.7 3.5 0 7.1-10.6 7.4-11.3 17.9-.3 5.5-1 8.5-4.7 7.9-3.7-.6-6.9-6.4-3.4-13.2M596 161c-15.1 0-19 7.7-19 15.1 0 7.4 7.1 17.1 19.6 17.1 12.6 0 19.3-7.7 19.3-16.1.1-8.3-7.6-16.1-19.9-16.1zm52.4 56.4c-1.9-2.7-1-8 2.1-8.7m6.4 8.2c.5-1.1 1.1-3.4.2-5m-18.2-3.5c-6.4-1.6-7.6-6-13.5-6.3m-78-67.5c-2.7-1.9-5.3-2.6-7.7-2.7m75.2 50.9c-1.5 3.5-8.2-3.4-10.5-6.9-2.3-3.5-9-3.2-9 1.3s-3.9 5.8-4.2 9c-.3 3.2 7.2 2.6 7.6 6.8m5.1-.7c-4.7-5.6-3.1-12.9.5-16.4m4.7 13.8c-1.3-2.3-1-6 .2-8.4"/><path d="M645.7 141.1c-2.2-7.6 5.6-10.6 9.1-6.8-3.8.3-7.4 3.3-9.1 6.8zm-12.8 13.8c2.4-1.8 5-3.2 7.1-3.9-1.2-2.9-2.8-5-4.8-6.5-1.8-1.3-7.1 5.9-2.3 10.4z"/><path fill="none" stroke="#000" stroke-width=".5" d="M625.3 161.8c-9.8-2.3-9.7-13.1-5.2-17.2 5.5-5 15.8-3.5 19.8 6.4-4.6 1.5-11.2 6.8-14.6 10.8zm10.3-17c-5.8-5.2-14.3 4.6-6.6 13.5m-103.7 10.9c3.9-.9 9.5 1 18.2 5.1 5.5 2.6 21.9 8 32.2 2.6-10.6 3.9-18.7-12.2-26.7-10.3-8 1.9-22.8 4.9-29-1 15.1 1 23.3-11 40.6-.6 4.8 2.9 11 4.8 16.4 4.5-14.2-17.1-32.8-6.1-34.8-20 8.5 9.2 29.4-2.1 40 15.1M560 347.1c21.3-36.7 6.4-92.9-12.2-117.5-9-11.9-14.2-24.1-8-51.2m40.6 127.7c-1.1 5.3-6 8.4-8.5 9.3M582 292c-.2 5-7.4 7-8.2 11.7m6.3-32.2c1.1 4.8-6.6 9.2-6.1 14m.3-29.7c1.9 4.3-5.2 9.5-4.5 12.2m-4-26.6c2.1 3.2-2.7 6.8-1.3 9.8m-6.9-23c1.6 2.7-1.4 7.3-.9 9.4m-5.5-21c1 2.4-1.5 4.3-2.2 5.2m-1.5-15.6c.4 2.3-2.7 3.3-3.8 3.9M366.5 520c1.6-5.5 9.7-8.7 16.1-6.4M371.3 525c.8-5.5 9.2-7.9 11.8-5.3-5.3-2.9-7.9 7.4-3.2 7.7M423.1 412c-5-5.3-3.9-12.4 0-14.3m10.8 11.1c2.9-2.9 1.3-5.8-1.1-5.6-2.4.2-5.8 4.3-2.4 6.8-4-1.6-4.2-8.4-1.5-10.6m232.3 19.8c-7.9-1.6-14.3 4.3-14.2 13.4-8.2-9.3-1-19.8 8-17.4m6.1 13.9c0 1.5-1.3 3.3-2.9 3.3-2.5 0-4-1.7-4-3.5 0-1.7 1.2-3.4 3.5-3.4m46.7-191.2c-6 1.3-13.5-1-15-6.4m15 2.8c-4.7.2-8.5-4.2-8.2-7.9 0 2.7 6.3 4 8.2 2.3M384.8 414.6c-1.3-3.2 3.9-6.4 4-9.5.2-3.1 5.8-5.5 11.6.3m-2.7-34.3c-1.1.5-2.1 1.1-3.1 1.4m14.2 16.2c-1.4.1-4.2-.1-5.7-1.1m.1 7.2c-1.1.6-3.6 1.5-5.1 1.9m-45.8 103.7c-1.6-1.3-4.5-5.5-4.3-8.4m10.9 2.6c-1-2.9 0-7.1 1.6-9.5m24 9.6c-2.9-1.9-1-6.9-1.3-10.1-.3-3.2 3.4-8.4 10.6-4m-36.3-4.2c2.9-.5 6-.3 7.9.5m27-4.7c.2-1.3.5-3.2 1.8-5m8.3 2.9c1-1.6 2.9-3.2 5.2-3.2m-31.2-82.4c2.6.9 9.3 5 9.5 9.3m17.8-30.3c-7.9-.2-10.9-8.2-5-8.2m21.9 28.2c-4.3-2.6-5.8-7.9-2.7-9.2m-18.8 50.6c-1.5-1.9.5-7.6 5.5-5.9m6.2 64.6c.3-4.9 6.5-7.8 9-2.3m-31.8 16.3c-.4-5.4 2.3-7.2 4.7-7.5 2.4-.3 5.9 1.7 7.5 5.2m-60.2 6.4c.3-3.2 3.1-6.6 6-6.1m293.1-127.9c-8-.6-6.6-7.5-4.5-9m-10.6 13.7c-.6-.5-1.7-1.6-1.7-2.4m35.5 22.5c-4.9-4.7.5-11.3 2.6-9.7m-51.3 54.1c-1.2-4.6 3.1-5.8 7.1-4.8m-17.4-27.7c2.4-1.6 4.8-3.4 7.9-4.2m-9.2 21.9c0-3.9 1.9-7.1 3.7-8m13.6-24.8c-1.5-2.4-3.4-6.9-3.1-11.6m33 3.9c.9-1.9 3-2.8 5.3-3.5m.4 10.2c-.6.8-1.8 1.9-3 2.9m60.9-140.5c0 4.5-5.6 6.9-9.3 4m30.6-8.8c2 5-6.6 6.8-9.1 4.9m-10.4 26c-1.8-.3-4.8-2.3-6.1-3.9m23.8-9.5c-2.9.6-4.8 0-6.3-.6m-31.3 14.7c-2.7 1.4-6.5 2-8.1 2m-9.7-27.5c1.2-.8 2.7-1.2 4.8-1m32.5 7.9c-.6 2-2 5.2-3.8 6.5m-15.5 7.7c-9.7 4.8-14.7-8.9-18.7-7.1m17.3-.2c.2-2.4 1-5.2 2.3-6.9m-188.6-23.2c-.5 1.6-2.7 2.1-4 2.3M333.2 387.8c4.8 2.7 8.2 7.4 6.1 14.3M564.5 223c-3.1 1.1-8.5 1.1-10 .2m13.8 3.2c-.2 2.3.5 10.8-3.9 12.6m16.3-7.8c-2.6 7.4-10.6 7.9-14.7 6.6m9.1-.3c2.1 3.2 2.7 9.5-3.5 12.9m19.4-15c1.1 9.2-9.7 9-14.3 7.4m25.8.5c2.3 9.3-11.9 4-15.1-.5m-3.1 1c3.2 9.7-4.5 13.4-10 12.1m41.9-8.1c2.4 8.4-15.6 4.5-16.4.8m28.6.8c5.6 10.3-12.2 10.9-15.6 3.2m25.7-3.8c6.3 10.5-9.5 13-13 8.7m21.7-11.2c12.4 7.7 1 18.4-8.9 10.9m26.3-11.5c7.6 3.5-3.1 16.1-11.8 9.2m-58.9-7.4c-1.3 5-7.1 5.3-9.8 4.5m22.8.5c-3.1 8.5-15.5 5.6-15.1-1.7m25.8 6.2c-1.8 6.9-12.6 5-14.8.2m26.7 2.3c-2.6 5-11.9 5.5-13.7.6m27.9-.2c-2.7 9.2-14.6 9.2-17.5 2.9m29.2-6.1c.8 9-9.2 10.1-13.8 7.2m23.8-10.1c4.8 9.5-5 15-11.9 9.3m13.2-2.6c3.9 1.9 1.9 9.3-1.8 10M583 253.6c5.3 6.9 3.9 14-3.9 18.2m22.2-14.3c-1.6 7.1-10.8 10.1-15.6 7.2m6.6.8c2.7 3.5 3.2 7.9-.3 11.9m2.6-7.4c8.5-5.3 19.2 4.5 11.3 10.5m4.1-19c-.3 4-3.7 7.6-5.6 8m3.9 3.7c3.5-3.7 27.7 3.9 12.4 11.6m-1.2-21.7c4.7 1.8 7.1 8.4 0 10.6m6.2 5.5c5.2-5.3 21.3-1.9 15.5 4.8m-4-6.9c2.9-9.8 20.1-3.7 14.5.3m-18-10.1c.5 1.9.6 6.8-2.6 9.3m17.1-11.3c.6 1.6.5 4.7-1 6.6m11.9-6.4c1 1.8 2.6 5.2-1 7.9m-121-72.4c-11.8 5.5-15.3.3-15.7-8.1m16.7 17.7c-12.1 8.9-19 0-12.9-8.2m-5.1-7.2c9.7 13.7-5.3 20.3-13.7 11.3m35.4 14.3c-6 4-13.2 2.3-11.6-6.6m-11.8 4.1c-8.9 5.5-18-1.6-19.5-10.5m32.6 13.3c-4 13.2-21.6 11.8-21.6-1m37.2 8.9c-4 7.1-16.3 11.8-21.9.2m4.8-11.3c-10.5 4.7-15-1.6-17.2-7.2m-12.7 1c-8.7 5.8-16.4 1.8-18.9-2.5m22.9 8c-12.4 11.3-22.7 4.2-17.5-3.4m27.5 14.8c-15.1 13.7-19.3 5.2-21.4-5.5m35.6 10.5c-7.9 11.4-16.3 7.2-21.7.5m47.3 5.3c-2.7 4.2-7.4 8.1-12.4 8.4-6.3.3-7.9-3.7-7.4-11.8m26.8 18.9c-13.5 9.3-20.8 2.1-20.6-7.1m26 23.2c-15.1 5.8-22.9-5.5-20.3-12.4m-11.6-15c-13.2 11.4-21.4 5.5-20.4-3.4m27.1 13.2c-12.1 12.6-20.3 3.9-20.8-3.4m26 15.7c-9.7 9.5-21.1 6-20.1-6.4m-11.3-13c-1.3 1.6-3.4 3.9-6 3.7m12.9 4.9c-1.3 2.6-5.2 4.7-7.4 4.2m18 11.7c-1.1 3.7-9.8 5.6-12.4 2.9m32.7-2.1c-5.3 12.7-18.2 13.2-23 1.9m39.1 11.2c-10 2.3-16.1-1.9-18.5-8.5m19.2 16c-12.6 10.6-20-.2-14.3-9.3m14.9 26.9c-7.2-.8-12.6-7.4-11.9-13.2m-4.7-4.5c-11.8 6.9-21.1.6-19.2-12.4m.1 7.1c-5.2 1.9-10.6 1.6-13.7-.8m38 14.9c-9.7 12.2-20.9 4.3-18-6.6m-.5 3.4c-9.5 1.8-15-4.3-15.1-10M568 326c-9-5-7.7-12.7-1.3-17.1m-5.1 8.8c-7.2-.6-10.3-4.3-10.6-10.9m1.7 7c-11.4 8.7-20.9-1.6-11.3-10.5m22.1 19.2c-6.4 10.3-18.5 4.2-15.3-6m-10.8-5.6c-8.2.6-12.7-6-9.2-15.9m-1.2 4.8c-5.8 1.3-10.9-.8-11.4-6.8m14.6 16c-8.7 3.2-15.3-1.3-11-9.7m44.6 39.3c-7.9-1.8-8.7-5.6-7.2-10.9m-2.4 27c-7.4-6-6.6-15.1 2.9-19.5m-6.2 5.2c-5.5-3.1-6.4-10.9-1.5-15.4M519 307.8c-12.1 8.1-17.3-6.8-11.8-12.2m39.6 33c-12.2 3.1-15.6-8-8.2-14.2m-3.7 10.3c-8.7-.2-12.4-4-8.5-15m-19.1-1.7c-1.8 4.2-7.2 5.6-10.1 2.4-2.9-3.2-4.7-10.3 1.9-15.3m-3.4 13.1c-10.5 3.4-17.9-7.9-10.5-17.4m49 34.1c-3.4 13.7-15.3 13.2-18 9.7-4.6-6 1.1-12.9 8.7-15.6m-8.5 6.4c-8-3.1-9.5-9-5.2-15.3m-7.1 23c-1.1-5.6 1.9-8.7 6.6-11.3m-5.5 4.7c-4.7-2.3-6.8-6.9-5-14.5m-8.6 18.7c-2.4-7.1 1.3-10.1 8.5-9.7m-7.9 1.8c-7.1-2.6-8.2-8.7-5.2-15.1m-12 19c0-5.3 3.4-9.2 11.1-9.5M483 303c-4 2.7-10.6 2.4-12.7-1.8-2.1-4.2-.3-11.8 5.3-14.2m-5.8 8.4c-9.2 2.7-15.1-8.5-10-14.3m-.3 10.3c-12.4 3.2-17.7-8-12.9-14.8m13.6 46.2c-1.3-8 7.1-13.4 17.4-2.9m-9.1-5.6c-.5-3.5 1-7.9 4-10.6M446 286.8c-11.4 3.2-17.9-5-12.6-14m30.5 41.8c-5.6-4.3-8.2-11.9-.6-19.5m-7.6 26.4c-9.3-4.2-8.7-17.4 2.7-17.5m-6.8 2.4c-8-3.5-6.6-12.4-1.9-15.6m-10.5 25.9c-.5-5.6 5.3-8.4 10.1-6.1m-23.1 2.2c-1.1-10.6 11.6-12.4 15.9-2.1m-6.7-6.4c2.1-4.2 7.6-5.8 10.3-6.3m-6.5 2.6c-4.2-1.4-8.2-8.4-3.1-14.2m-4.7-6.6c-8.7.6-11.4-2.7-10.5-9.7m12.9 20.5c-8.7.5-13.2-3.2-9.8-11.6m5.3 25.8c-5-2.7-8.5-9.3-3.4-15.5m-10 22.2c-3.1-5-1.6-15.6 7.6-14.5m-.7-13.1c-3.4 2.3-9.5 3.7-12.6-.6-3.1-4.3.2-11.4 5.8-13.8m.7 30.1c-5-2.1-9.2-7.4-4.5-14.5m-1.8-16.2c2.3 4.8-1.4 11.7-8.7 11.6-9-.2-11.3-8-7.6-11.9m16.2 24.1c-10.9 1.1-12.7-5.8-9.8-12.2m2.5 30.4c-3.9-8 5.2-11.1 11.9-8m-11.6 1.2c-3.1-3.4-4-8.9-1.3-12.7m-6.5 20.6c-2.7-7.1 1.6-9.5 6.1-10.3m-15.5 12.9c-4.5-6 2.9-10.1 8.7-8.4M379 318.8c-4.8-5.3 1.1-10.6 6.1-9.8M372 324.7c-4.7-4 .6-9.2 5.2-10.3m18.6-9.8c-3.1-5.3-2.4-12.6 4-15.5m-5.6 7.3c-10.6-4-10.8-16.9-1.1-20.6m-6.5 31.7c-3.9-4.2-2.7-10.6 3.1-14m-3.4-9.6c-10.3.3-10.6-11.6-6.8-12.9m3.6 12.9c-12.6 9.3-21.9-3.7-14.2-8.9m16.1 23.8c-8.5-.6-10-6.4-8.9-11.8m4.4 22.9c-11.1-1-10-13.5-3.9-15.8m-7.7-8.3c-5.3 10.5-19.6 4.2-11.8-3.1m4.7 8.6c-6 20.4-19.5 8.2-15.6 3.5m26.2 4.2c-6-.3-8.9-3.2-9.2-8m7.1 28.6c-10.6-2.6-7.6-14.5 1.9-15.9m-7.8 5.8c-5.3.8-10-2.9-9.7-7.4m12.4 29.7c-7.7.6-6.6-10.6 2.1-12.6m-6.1 23.1c-7.2-2.2-7.4-10.8-1-14m.7 17.2c-.3 2.7-2.9 4.3-6.1 3.1-3.2-1.3-5.6-10.1.5-13.8m5.1 23.1c.6 4.2-14.9 2.6-6.9-10.5m8.6 19.1c-5.4 7-13.9.3-8.7-7.9m11.7 16.1c-5.2 5.2-13.1.4-11-6.2m-4.8-65.8c-1 12.2-15.5 10-12.6 4m9.4 3.1c5.6 15-16.3 17.4-13.4 5.8m28.3-6c-2.3 9.8-11.4 9.7-14.5 7.9m13.9 8.2c-2.6-1.1-5.3-4.8-6-7.9m2.1 14c-7.2.5-13.5-4.7-12.6-10.9m7.6 20.9c-11.1-.6-10-10-6.4-14.8m-2.1 3.5c-6.1 8.2-16.6 3.1-14.8-1.9m10.6 5.5c-5.3 16.1-14.7 11-13.8 7.2m24.1.3c-4.7 7.9-12.2 4.7-14.5.6m16.8 13.6c-6.4 1.6-11.8-3.7-9.8-9.3m1.7 7.2c-5.8 4.2-15.1-.5-13.8-8.5m9.3 10c-5 7.7-18.2 3.9-15.5-6.4m28.7 15.4c-7.1 4.8-16.1-.2-16.6-6m-4.3 1c-1.6 9-12.4 6.4-11.8 3.9m22.6 2.4c-5 8-13.7 6.4-16.3-.2m29.3 8.7c-6.9 4.2-14.8.8-15.9-5.3m30.9 18c-5.3 4.5-13.8-2.1-12.1-10.3m1.3 7.7c-6.3 5-17.5-.2-15-9.2m0 5.2c-7.6 3.7-14.2-1.3-13.5-9.7m1 6.2c-5.6 4.7-17.5.2-15.3-5.3m7.2 7c-1 7.9-11.6 11.4-14.6 7.9m28.5-4.8c-3.7 9.7-12.9 7.2-16.7 2.7m29.7 1.5c-4 12.7-16.4 7.7-16.3.8m38 11.1c-5.6-.6-8.2-6-7.1-9.4m.5 5c-6 2.2-11.6-3.2-10.8-7.1m17.4 18.8c-5.6.1-7-6-5.4-10.1m4.2 17.9c-6-.2-7.8-6.5-3.6-10.1m1.8 18.4c-7.9.5-10-8.4-4-12.4m-5.2-15.2c-2.1 8-12.9 6.8-12.9-1.9m17.9 15.8c-6.6 1.4-10.8-3.5-9.2-8.7m-.1 59.2c-.7-3.7 5.6-5.6 7.2-2.1 1.6 3.5-4.3 7.1-5.8 5m-5.3-8.5c2.1-6.1 10.5-5 9.7 2.1m-14.5-8.9c2.9-5.2 10-.3 7.9 3.2m-12.1-8c.6-4.7 8.7-2.4 6.8 2.7m-8.6-9.5c1-2.6 10-1 6.1 4.3m.8-.9c3.7-2.4 9.7 4.2 6.1 7.4m28.8 19.8c-.9 2.5-7.1 2.3-8.5-1.8-2.1-6 .8-7.8 3.6-8.1m-2 10.2c-.8 2.3-6 4-8-.3-2.7-5.8 3.2-8.8 6-7m-6.1 7c-1.2 2.7-8 3.7-9.4 1.3m4.7-8c1.4-1 4.1.2 4.7 1.4m.3-31.1c-7.2 2.4-10.1-6.9-5.5-10m5.1 16.2c-6.9 3.4-10.3-5.6-6.6-8.5m7.8 16.8c-6.7 1.4-9.2-5.8-6.6-8.4m-7.8 5.8c1.6-2.4 5.4-2.9 6.8-2.3m.6-21.6c-6.6-.6-8.3-7.5-4.7-10.9m3.7 20c-10.1-.4-10.1-10.5-5.1-13m5.4 21.2c-7.2 1.1-8.6-7.6-5.8-9.8m2 14.4c-.9-1.1-.7-3.8.3-4.8m-10 1.2c.9-2.7 4.3-4.5 6.8-4.6m-11.5-4.7c1-2.6 8.9-2.4 9.5 5.2m-3-5.6c.6-2.2 2.7-3.2 3.9-3.5m1.9-8.6c-10.5-1.9-8.9-11.8-5.4-15m-7 20.5c0-2.7 7.2-4.9 9.7-1m-5.2-10.9c-3.1 2.3-8-.5-9.1-2.5m-12.1-16c1.6 3.1.5 7.7-4.8 8.4-5.3.6-9.2-3.5-9-8.2m14.6 17.1c-4 1.8-8.4-4.3-4.8-8.7m4-3.1c2.1-.8 9-1.8 11.1 1.4m-21.7 0c-3.4 4.7-13.4 2.3-11.8-.2m17.9 9.1c-8.2 2.3-9.8-3.2-9.5-6.4m4.8 17.8c-2.9 1.9-8.2-3.7-3.5-8.7 4.7-5 10.8-.5 9.5 2.3m-9.2-6c-5.3 7.1-14.6-.6-12.2-4.8m3 6.5c1.2 1.4 1.7 6.7-3.4 8.6-5.1 1.9-9.3-4.4-5.9-7.9m2.7 8.1c.7 3.8-1.6 6.8-5.4 6.8-3.8 0-6.4-5.9-3.7-8.4m23.9 2.3c-3.5 3.5-9 .9-8.5-2.8m7.9-6.8c.8.6 1.2 2 .7 2.8m-22 12.5c-4.3 6.4-11-.6-7.9-3.1m28.6 4.2c-3.2 1.5-6.4-3.5-4.4-5.5m.5 4.3c-4.3 5.3-11 2.7-11.5-.7m7.3 8.6c-2.6.5-4.7-3-3.6-5.2m75.3 24.6c-5.8 6-13.8.2-11.3-4.7m8.3 15c-2.2-1.4-3.6-5.1-2.4-7.7m-7.6 5.6c.6-2.4 4-4.7 7.2-3.5m-11.4-2.9c.5-2.2 3.4-4.3 5.6-3.8m187.2-81.8c-9.8 3.7-14.7-14.6-3.2-14.8m3.2 19.6c-4.8 3.5-9.2-2.4-6.9-6.1m19.1 12.2c-4.8 8.9-16.9.2-13.5-5.4m23 6.9c2.3 10.6-13.2 7.2-13.4 1.9m28.1 1.4c1.5 9.3-12.4 8.7-16.1 2.4m28.9 2.2c.5 8.7-13 6.1-15.9 1.9m-39.1-49.1c-7.2 2.9-13.8 1.1-15.8-3.9m-4.2 3.6c4.5 2.9-2.1 16.1-9 10.8m21.9-9.1c-1.8 7.1-7.9 8.9-12.9 6.4m22.6 4.3c-6.9 1.4-12.2-1.4-12.7-5.2m-12.5 3.9c6.4 5.5-2.9 16.7-7.1 11.6m21.3-12.4c-.8 6-8.7 7.2-11.8 5m16.3 5.4c-4.3-.2-7.4-1.6-8-5.5m4.8 5.2c-3.5 6-11.6 4.7-14.8.2m20.8 10.1c-5 1-9.8-2.6-9.5-6.9m-12.4-1.6c3.5 5.5-1 13.4-5.2 11.3m5.8-3.1c4.7 4.2 4 11.8-1 11.4m4.2-4c10.1.8 11.4 10 7.2 10.9m2.5-3.8c11.1-.6 14.3 9.5 10.3 10.6m1.6-4c7.4-3.7 16.4 3.4 13.7 7.6m.1-3.9c15.8-2.1 12.4 11.1 7.4 9.7m3.9-6.5c12.7-2.6 9.7 5.3 5.3 6.4m3.6-5.6c11.8-3.1 10 8.2 6.1 6.3m-53.1-41.7c.6 6.1-6.9 9.3-11.8 6.6m9.8-1.3c1.6 2.9 1 8.5-2.1 10m12.7-8.2c-2.6 5.2-6.9 6.3-10.1 5m5.6 0c1 2.3 1.3 6.8-.8 9m11.1-9.5c-1.8 3.7-6 6.3-9.5 4.3m7.3-1.1c2.6 1.6 4.8 9.2.5 12.2m12.8-7.2c-2.9 3.9-7.4 3.9-10.5 3.7m8.5-1.6c2.7.8 6 5.3 4.8 9.3m10-7.5c-1.5 3.7-6.8 5.8-9.8 6.1m8.3-3.7c2.6 1.4 4.4 4.5 4 8m6.6-7.7c-.8 3.4-3.5 5-6.6 5.2m5.8-3c2.3.8 5 3.4 5.2 6.4m5-5.9c-1.5 2.3-3.1 3.7-5.3 4m11.4-4.3c2.9 2.9-1 12.6-6.9 10.8m-54.9-205.9c-3.8 2.3-12.1 2.6-15.4-1.1m17-8.4c-4.2 1.7-8.8 1.6-12.2.3m-12.5-1.8c-2.8-5.4.2-12.3 5.3-14.9m-17.4-1.4c.6 4.5-.4 9.9-3.6 12.5-6.3 5-15.5-.5-12.9-5.5m11.8 6.3c3.7 16.9-20 16.3-16.7 5.6m14.2 5c1 2.2 1.4 4.2 1.4 6m9.8-5.1c-4.5-1.1-7.3-3.7-8.6-5.4m15.8-8.4c-6.3 2.2-11.2-.1-11.9-3M287.8 421.8c-3.1 6.8-11.7.6-6.1-3.3m1.8 6.4c-3.1 6.8-11.7.6-6.1-3.3m1.5 6.3c-3.1 6.8-11.7.6-6.1-3.3m1.4 6.3c-5.4 6.1-11.6-.8-6.3-3.6m1.1 6.3c-5.4 6.1-11.6-.8-6.3-3.6m37.5-8.7c-2.8 6.1-10.6 4.4-10.5.3m9.3 9.3c-2.4 1.4-6.8-2.4-4.4-5.5m-.6 1.2c-3.3 3.8-10.1 1.8-9.8-1.7m8.6 9.1c-2.7 1.1-7-2.7-4.8-5.5m0 3.6c-4.2 1.8-8-1.4-8.3-4.1m4 9.6c-2.3-1-3.1-4.4-1.4-5.9m-.5 3.8c-4.3 2.9-8.6-1.5-8-4m2 8.3c-3.3-.4-3.6-3.5-1-5.5m-1.7 3.9c-2.7.3-4.9-2.4-4.6-4.1m-5.6 1.6c-4.1 6.5-10.7-.5-8.1-1.9m1.9 4.4c-3.5 7.9-11.5.2-8.3-1.4m18.8 5.3c-2.1-1.4-.5-5.1 2-5.6m-2.8 4.2c-2.5.9-5.6-1.5-5.2-3m-.5 5.8c-2.8.6-4.1-3.6-1.7-5.1m-6.2 7.1c-3.1.8-4.7-2.6-2.4-4.3m7.9 1.5c-1.7.6-3.7-.8-3.8-1.7m-5 3c-9.5 3.9-9.7-3.2-6.8-4.4m-.5 4.9c-8.6 5.1-9.9-.2-6-2.2m8.5 5.6c-3.9 1.4-2.8-2.2-1.8-3m-4.2 5c-3.5 1.1-4.6-1.8-3-3.3m-.6-.1c-4.3 4.5-10.6 2.3-7.7.6m4 5.8c-3.4 1.4-3.4-2.4-2.1-3.7m-.8 2.2c-6 2.7-9.3.7-7.4-.7m3.7 5.6c-3.3.7-3.5-1.6-1.3-3.5m-1.2 3c-4.3 1.9-8 .3-5.5-1.9m.4 6.6c-2.7 1.4-4.5-2.2-.2-4.1m151.3 9.4c2.2 3.4-.6 5.8-3.5 6.3-3.1.5-6.3-1.3-5.3-3.4m17-2.5c0 3.4-5.2 6-8 3.7m305.9-313.3c8.9.8 6.8 13.8-5 12.9m-28.3-31.1c.2-11.1 9.6-9.3 13.7-4.1m-52.1 16.3c.2-6.1 3.6-9.2 7.8-9 1.8-3.2 7.1-3.5 12.9.3m-27.5 18.9c-.6-10.6 8.9-12.4 15.8-7.6m-20 13.6c3.4-2.7 8.2-4.7 11.9.2m39.8-10.6c-1.3 1.8-2.3 4.5-.2 8.7-2.6-3.4-9-3.4-15.9 5.6m29.9-6c-6.8-2.4-6.9-7.9 1.4-8.9m-61.9-14.1c-9.8-3.5-4.7-7.7 2.4-6.3m4-2.4c-4.5-2.3-.5-4.8 9.5-2.4m-21.4 43c-5.8 5.3-7.7.6-7.4-2.9m1.9 10.6c0 1-.2 2.1-.8 2.9m-22.3-50.1c-6.1-1.8-7.2-7.4-.2-6.9m-1.9 20c-6.8-2.3-6.8-8.9-1.1-8.2m13.6 4.8c-7.9-1.9-8.2-7.4-2.3-6.6m3.4-3.1c-10.8-2.7-4.3-7.4-.2-7.1m8 14.5c-5.8-2.6-6-6.6 3.9-5.2m2.3-4.2c-5.2-1.9-2.6-6.4 5-5m-23.8 27.8c-1.9-1.5-3.4-8.9 5.5-6.7m6.7 12c-5.5-3.4.2-9.2 6.1-7.6m-.3-4c-3.4-2.3 1.9-4 8.2-2.9m50.2-4.6c2.1-4.1 5.2-6.2 8.8-6.8m-112.4 10.8c2.1 2 1.2 4.4 3.2 6.9"/></svg>
