<svg xmlns="http://www.w3.org/2000/svg" width="320" height="160" viewBox="0 0 500 250"><path fill="#F00" d="M0 0h500v250H0z"/><path fill="#FFF" d="M125 0h250v250H125z"/><path fill="#F00" d="M250 23.4l-17.1 31.8c-1.9 3.5-5.4 3.1-8.9 1.2L211.7 50l9.2 48.9c1.9 8.9-4.3 8.9-7.3 5.1L192 79.9l-3.5 12.3c-.4 1.6-2.2 3.3-4.8 2.9l-27.3-5.7 7.2 26c1.5 5.8 2.7 8.2-1.5 9.7l-9.7 4.6 46.9 38.1c1.9 1.4 2.8 4 2.1 6.4l-4.1 13.5c16.2-1.9 30.6-4.7 46.8-6.4 1.4-.2 3.8 2.2 3.8 3.9l-2.1 49.4h7.9l-1.2-49.3c0-1.7 2.2-4.1 3.6-4 16.2 1.7 30.6 4.5 46.8 6.4l-4.1-13.5c-.7-2.3.3-4.9 2.1-6.4l46.9-38.1-9.7-4.6c-4.3-1.5-3.1-3.9-1.5-9.7l7.2-26-27.5 5.6c-2.7.4-4.4-1.3-4.8-2.9L308 79.9 286.4 104c-3.1 3.9-9.3 3.9-7.3-5.1l9.2-48.9-12.3 6.4c-3.5 1.9-6.9 2.3-8.9-1.2L250 23.4z"/></svg>
