<svg xmlns="http://www.w3.org/2000/svg" width="320" height="160" viewBox="0 0 320 160"><path fill="green" d="M0 0h320v160H0V0z"/><path fill="#FFE000" d="M54.9 11.7c19.3 0 34.9 15.6 34.9 34.9s-15.6 35-34.9 35S20 66 20 46.7s15.6-35 34.9-35zm127.4 93c-21.2 19.3-55.7 4.4-55.7-24.6s34.5-43.9 55.7-24.6c-18.1-8.9-39.4 4.3-39.4 24.6s21.4 33.4 39.4 24.6zm55.3 24.1l-6.7-2.5 4 6-6.1 3.7 7.2.7-.9 7.1 4.9-5.2 4.9 5.2-.9-7.1 7.2-.7-6.1-3.7 4-6-6.7 2.5-2.3-6.8-2.5 6.8zm-40-63.2l-6.7-2.5 4 6-6.1 3.7 7.2.7-.9 7.1 4.9-5.2 4.9 5.2-.9-7.1 7.2-.7-6.1-3.7 4-6-6.7 2.5-2.3-6.8-2.5 6.8zm40-43.3l-6.7-2.5 4 6-6.1 3.7 7.2.7-.9 7.1 4.9-5.2 4.9 5.2-.9-7.1 7.2-.7-6.1-3.7 4-6-6.7 2.5-2.3-6.8-2.5 6.8zM273.1 55l-6.7-2.5 4 6-6.1 3.7 7.2.7-.9 7.1 4.9-5.2 4.9 5.2-.9-7.1 7.2-.7-6.1-3.7 4-6-6.7 2.5-2.3-6.8-2.5 6.8zm-19 29.4l-4.5.4 3.5 2.9-1.1 4.5 3.9-2.4 3.9 2.4-1.1-4.5 3.5-2.9-4.5-.4-1.7-4.3-1.9 4.3z"/><path fill="#802000" d="M52.5 72.9h8.7c.9-2-2.7-1.1-2-3.1 2.3-6.4 2.5-17.2 2.8-26.7h-1.2c.4 4.8-1.1 17.1-7.2 27.6-.7 1.4-.9 0-1.1 2.2z"/><path fill="green" d="M59.2 21.2c.3 4.5-1.9 6.1-1.7 9.6-.9.3-1.9-2-2.7-.7.7 1.7 4.8 6.8 4 7.1-3.5-1.2-3.7-9.7-11.7-10.1-1.2 0-5.2-.3-4.1 1.7 2.1 1.5 8.3 3.9 8 5.6-1.3-.5-9.9-6.7-13.5-.1-.3.8-.8 2.9.1 3.1 1.1-1.7 2.7-3.6 4.9-3.1 1.9.1-2 3.3-.5 2.7.4-.3 1.6-.9 2.3-.9.5 0 3.3.8 3.1 1.5-.1.3-.5 0-1.6.4-1.3.4-1.9 1.9-4.1.9-1.9-.8-4.8-.7-5.3 1.6 0 1.1-.9-.1-1.3.3-.3 1.1-.4 2.3-2 2.1-1.3 1.2-2.3 2.3-3.6 3.1.8 1.7 3.6-1.7 3.5-.3-1.3 1.7.7 2.1 1.5.8 1.5-1.5 3.2-3.3 5.3-1.9 1.1.9 1.6-.5 2.4-.4.4 1.2 1.1 0 1.6-.3.8-.1.7 1.1 1.6.4 2-1.3 4.5-.3 6.5-1.5 2.1-.9.3.8-.3 1.5-.9 1.9-.1 4.1-2.1 5.3-.8 2.1.9 4.9-.8 6.5-.3.9 2.3.9 3.1 1.3 1.3 0 0-2.9 1.2-3.3 1.7 1.1 1.6-1.9 1.2-2.8.1-2 .3-4.3 1.3-6.1 1.1-2.3 2.1.9.9 1.9-.7 2.1-1.7 4.7-.1 6.7.4.1.8 1.2 1.5 1.5.5.4 1.3-.1 1.5-1.1.8-2.9.4-6.3 1.5-9.1.8-.9 1.7-.1 2.3.7 1.5 1.7 2.5 3.9 4.4 5.3 1.6.8 3.1 2 3.9 3.6 0 1.3 3.7 1.5 2.7 0-1.1-1.5-.4-2.8.7-3.7.5.1.4-.9 0-.5-.7-.1-.8-1.5.3-.9 1.7.5-.1-1.2-.8-1.3-1.5-.9-3.1-1.9-3.9-3.5 1.9 0 3.9 1.1 5.7.4 1.6-.8 3.1 0 3.6 1.5 1.2-.1.7-1.3 0-1.7.9-.4 1.5-1.1.4-1.7-.5-.7.8-2-.8-1.9 0-1.2-.4-2.4-1.7-2.8-1.3-1.2-5.3 1.7-5.2-.9-.4-1.3 1.6-.1 2.1-.9.5-1.5-2.8-1.3-1.6-2.4.7-.4 4.1-1.1 1.5-1.6-1.3.4-2.4.1-3.5-.5-.9 1.6-3.6-.8-3.2 2-.4 1.1-2.8 3.7-3.5 1.7.5-1.6 3.3-2.1 2.5-4.4-.1-1.3-1.3.3-1.9.1-.3-.8.8-1.9 1.6-2.1 1.5 1.2 1.6-1.5 3.1-1.2 1.1-.3-.4-.7-.7-.9.3-.8 1.9-1.2.3-1.9-1.5-1.1-2.4 1.1-3.6 1.2-1.1-1.2 1.1-1.9 1.6-2.5 0-.5-1.2-.1-.8-.5.3-.5 2.5-.7 1.5-1.5-1.6-.5-3.6-.4-5.2.3-.9.3-1.2 2.5-2.1 2.4-.5-1.5 0-3.5-1.3-3.8zm7.4 21.2c1.2-.3 0 1.9-.5 1.9 0-.7-1.7-.7-.7-1.3.4-.3.8-.5 1.2-.6z"/></svg>
