<svg xmlns="http://www.w3.org/2000/svg" width="320" height="160" viewBox="0 0 320 160"><path fill="#EA0437" d="M0 0h320v160H0V0z"/><path fill="#4189DD" d="M0 160h320V80"/><path fill="#12AD2B" d="M0 0h320v80"/><path fill="#FFC726" d="M61.6 118.2c-3.4 1-5.4 3.6-5.4 6.2h17c.2-2.8-2-5.2-5.4-6.2 16.6-.4 31.2-6.6 33.8-10.6-2.6-1.2-5.6.6-7.8.2 5-2.4 20.4-12.2 17.8-22.8-2 5.8-7.8 10.8-10.2 12 5.8-8.6 13.4-17.6 6.8-24.6.4 4-2.6 8.6-3.8 8.8 3.4-9.2 6.4-20.6-.8-28.2 1 2.8.6 10.4-.8 10.8-.4-6.2-1.4-19.4-8-19.2 2 1.8 3 7 3 12-1.4-3.4-3.2-6.2-6.8-8.8-3-5.6-8.2-10.2-13.4-13.6.6 4 1 7.4 6.8 11.6-3-.2-6-5.8-9.2-6-2.6-.2-4.6 2.2-8.6 1 .4 1.4 2.4 2 2.8 3-.8.6-3 0-4.8-1 6.6 9 11.2.8 21 6.4-1 .6-4.8.6-7.2.2 2.2 2.2 3.8 3.8 7.6 3.8 3.4 0 5.2-1.8 6.2-.8 2.2 2.6 3.6 5.2 5.4 8.2-4 .4-2.8-4.6-7.2-7.2-2.6 5.2 2.8 11.4 6.6 14 .2 12 5.4 10.4 4.4 19.2-2.2-1.6-4.4-7-3.6-11.4-2.8.8-3.8 5.6-2.6 8 1 1.8 1.6 5.4.6 7-2.6 3.6.6 6-4 10.2.4-1.4.8-3.6.4-5-1.4 2.4-4.8 4.8-5.8 7.2-4.6 10.8-1.4 4.6-19.6 12-.4-3.2 1-10 3.6-9.6s10.6-2.8 7.8-9.6c-.6 2.2-2.4 4.2-4.4 4.2C76 96.8 80 93.8 78 89c-1 2-2.8 4.4-5.2 5.8 2.8-5.2.4-6.8-3-2.4-1.2 1.6-2 5-2.8 9.2C56 72 80 95.2 78.8 79.4c-1.8 2.4-5 3-8.4 2.2 3.8-2.8 7-8.2 2.6-11-.2 3-2.4 6.2-5.4 7.8-.8-2.4-.8-5.2-.2-8-1.6 1.8-3 5.6-4 9.8 0-4.2.8-7.2 1.4-9.4.8-3.2 3-1.2 6.4-1 3.2.2 7.8-1.6 6.8-6-1.2 1.8-3.4 2.4-5.8 2.2 2.8-1.8 7.8-4.8 5-9.4-1.2 1.8-1.4 3.2-4.8 3.8.8-2 1-4.8 3.6-5.8-4.6-.8-7.2 2-8.4 6.8-.6-3.2-1.2-4.4-1.2-6.8 2.4-2.8 2.6-8-2.6-9.2-.4 2.8-.2 3.4.4 5.6-2.4-1.4-6-2.2-8.4-.2 1.6 1.8 4 3.2 7.8 1.4-.8 3-3.2 2.4-6.4 1.4 2 3.6 4.4 4.2 7.2 3.8 1.4 3.8 1.4 6.6-2.6 12 .2-3.4 0-5.8-2.8-8.6-2.4-2.2-4.2 0-.6 5.2-2.2-1.6-4.6-4.8-5.4-8.2-.8 4 0 8.8 2.2 11.4-1 1.2-2.2-.2-4-2.8.6 8.8 4.4 10.6 9.4 8.6.2 4.8.2 9.4.4 15.2-3-4.2-6.6-7.4-8.8-8.2-.6 2.4 1.8 5.4 3.2 7.2-2-.4-6.6-3.8-6.6-3.8-.4 4 4.6 7.6 8 9.2-3.8-.2-5.6-1.6-8-4 0 11 11.8 9 14 7.4.2 5.4.6 11.6 1 17-11.6-2-18.8-6.8-22.2-18-.6 1.2-.2 2.2-.6 3.6-1.2-3.4-3-7.6-5.2-9.6.6 2 .6 3.8.4 7.6-.8-2.4-1.4-3-1.6-5.8 0-2.2 2-3.6 2-6.6 0-2.2-2-6.8-2.4-10.4-1 3.8-1.6 7.6-3 10 .8-4 .4-6.8 1.8-9.4 1.4-2.8 2.6-5.4 1.6-8.2-1 1.2-.6 2.2-2.8 4.8-.4-3 3-7.6 6.2-9.4 2.4-1.2 5.4-5.6 3.4-8.8-2.2 1.6-3.2 3.8-6.4 7.4 2.2-8.8 8-11 15-11 1.6 0 4.6-.6 5.6-2.6-2 .8-4.2.8-6.4.4 3-4.4 12 1 15-5.6-2.8 1.2-7.2 1.4-10 .6 4.4-2.2 11.2-2.6 14.8-5.6-4-3-14.2.8-20.4 5 1.8-1.6 4.6-4.6 6.2-6.8-3.4-1.6-12.2 8-15.4 13.8-2.8 1.6-4 4.2-5.2 6 1.6-5.2 1.6-9 3-13.2-9.8 3.4-5.8 21.6-8 26 .2-4.8 0-11-2-14.2-3 2.4-3.2 16-.4 27.4-1-3-3-5.8-3.6-9.6-4.6 8.2 2.6 18 8.6 25.6-4.4-2.4-9-7.4-11.8-11.6.8 14.8 16.2 17.8 18.6 21.4-3.2-1.6-9.4-4.4-12-1.4 17.6 3.8 7.8 10.2 35 11.4z"/></svg>