<svg xmlns="http://www.w3.org/2000/svg" width="240" height="160" viewBox="0 0 240 160"><path fill="#00008B" d="M0 0h240v160H0V0z"/><path fill="#FFF" d="M70 24.4V0H50v24.4L13.4 0H0v9l26.6 17.6H0v26.7h26.6L0 71v9h13.4L50 55.6V80h20V55.6L106.6 80H120v-9L93.4 53.4H120V26.7H93.4L120 9V0h-13.4L70 24.4z"/><path fill="#F00" d="M54 0h12v32h54v16H66v32H54V48H0V32h54V0zM0 0l40 26.7h-9L0 6V0zm120 0h-9L71 26.7h9L120 0zm0 80L80 53.3h9L120 74v6zM0 80h9l40-26.7h-9L0 80z"/><path fill="#CC3" d="M152 46c0 34.6 3 47 12.4 56.5s13 11 15.8 12.5c3-1.7 6.6-3.5 15.2-12C204 94.3 208 82 208 45.3c-12.2 5.2-18 4.5-28.6-.3-8.5 5.4-18 4-27.3 1z"/><path fill="#FFF" d="M153.7 48c0 15.2-1.4 33.7 6.2 46.7l39.8-.3c6.4-11.2 6.7-34.4 6.8-47-8.8 4.5-18.6 3.6-26.7-.7-8.3 4.7-19.2 4.5-26.3 1.4z"/><path fill="#9CF" d="M160 94.5c2.8 5.7 16.2 16.6 20.2 19 4.5-2.7 16.3-13.5 19.6-19H160z"/><path fill="#F90" d="M181 64c1.2 2.8 5.2 6 6.3 7.5-1.4 1.5-1.7 1.4-1.5 4.2 2.5-2.5 2.5-2.7 4-2.3 3.6 3.3.7 10.4-2 12-3 1.5-2.4-.2-6.7 2 2 1.5 4.4-.3 6.2.2 1 1-.5 3.2.3 5.2 1.6-.2 1.5-3.3 1.8-4.5 1.2-4.2 8.4-7.2 8.8-11 1.6-.7 3.2-.2 5 .8-1-3.5-4-3.5-4.8-4.6-2-2.8-3.7-6-8-7-3-.5-2.8.3-5-1-1-1-5-2.8-4.3-1.4zm-10.2 12c2-2.3 3-7.2 4-8.8 2 .5 2 .8 4.5-.7-3.4-1-3.7-.8-4-2.4 1.3-4.4 9.3-5.3 12-3.6 3 1.6 1 2 5 4.7.6-2.3-2.2-3.4-2.6-5.2.6-1.4 3.2-1 4.7-2.7-1-1.2-3.8.4-5 .6-4.5 1-10.6-3.8-14.3-2.3-1.2-1-1.5-2.5-1.5-4.5-3 2.5-1.5 5-2 6.3-1.8 3-4 6-3 10 1 3 1.6 2.4 1.4 4.7-.4 1.5-.3 5.5.8 4.4zm16.5 1.7c-3.2-.4-8 1.3-10 1.4-.6-1.8-.4-2-3-3.3 1 3.3 1 3.4 0 4.6-4.8 1-9.7-4.8-9.6-8 0-3.2 1.3-2 1.6-6.5-2.5.8-2 3.6-3.4 5-1.7 0-2.8-2.2-5-2.5-.6 1.4 2.3 3 3.2 3.8 3.2 3.3 2 10.7 5.4 13-.2 1.6-1.4 2.6-3.2 3.6 3.7 1 5.3-1.4 6.7-1.5 3.7 0 7.5.2 10.4-2.7 2.2-2.3 1.3-2.5 3.6-3.5 1.4-.6 5-2.8 3.3-3z"/><path fill="#FFF" d="M189.4 66.6c.4 0 .7.3.7.6s-.2.6-.6.6-.7-.3-.7-.6.3-.6.7-.6zm-20 1c-.3-.2 0-.6.2-.8.3-.2.7 0 1 .3 0 .4 0 .8-.4 1s-.8 0-1-.3zm11.3 15.7c-.2.3-.6.4-1 .2s-.3-.6 0-1c0-.2.5-.3.8 0s.4.5.2.8z"/></svg>
