<svg xmlns="http://www.w3.org/2000/svg" width="240" height="160" viewBox="0 0 120 80"><path fill="#FFF" d="M0 0h120v80H0z"/><path fill="#DC171D" d="M46.7 0h26.7v80H46.7z"/><path fill="#012A87" d="M0 26.7h120v26.7H0z"/><path fill="#FFF" d="M55.4 52.2l-2.1-1.7-2.1 1.6.8-2.5-2-1.6h2.5l.9-2.5.8 2.5h2.5l-2 1.7.7 2.5zm13.3 0l-2.1-1.7-2.1 1.6.8-2.5-2-1.6h2.5l.9-2.5.8 2.5H70l-2 1.7.7 2.5zM55.4 34.4l-2.1-1.7-2.1 1.6.8-2.5-2-1.6h2.5l.9-2.5.8 2.5h2.5l-2 1.7.7 2.5zm12.8 0l-2.1-1.7-2.1 1.6.8-2.5-2.1-1.7h2.5l.9-2.5.8 2.5h2.5l-2 1.7.8 2.6zm-23.9 8.9l-2.1-1.7-2.1 1.6.8-2.5-2.1-1.7h2.5l.9-2.5.8 2.5h2.5l-2 1.7.8 2.6zm35.5 0l-2.1-1.7-2.1 1.6.8-2.5-2.1-1.7h2.5l.9-2.5.8 2.5H81l-2 1.7.8 2.6z"/></svg>
