<svg xmlns="http://www.w3.org/2000/svg" width="240" height="160" viewBox="0 0 240 160"><path fill="#74ACDF" d="M0 0h240v160H0z"/><path fill="#FFF" d="M0 53.3h240v53.3H0z"/><path fill="#85340A" d="M142.4 80c0 .3-.3.5-.6.5l-12.5.5c1.7.5 3.1 0 5.4 1.2 2.9 1.5 3.7.6 5.2 1 1.1.3 1.8.9 1.9 1.4.1.3-.1.8-.7.3-.2-.2-.6-.5-1.2-.5-1.1-.1-3.1.7-5.5-.6-1.7-.9-3.2-.6-5.1-.8l11.1 5.1c.7.3.4 1.1-.4.8l-11.8-4.4c1.4 1.1 2.8 1.2 4.6 3.2 2.1 2.5 3.2 2 4.4 2.9.9.7 1.3 1.5 1.2 2-.1.4-.5.7-.8 0-.1-.3-.3-.7-.9-1-1-.5-3.1-.5-4.9-2.6-1.2-1.4-2.8-1.8-4.4-2.7l8.3 8.9c.5.5-.1 1.2-.6.6l-9.2-8.5c.9 1.6 2.2 2.1 3 4.7 1 3.1 2.2 3 3 4.4.6 1 .6 1.9.4 2.3-.2.4-.7.4-.7-.3 0-.3 0-.8-.4-1.2-.7-.8-2.7-1.7-3.5-4.3-.6-1.8-1.9-2.7-3-4.2l4.2 11.4c.3.7-.5 1.1-.8.3L122.9 89c.2 1.8 1.2 2.8 1 5.5-.3 3.2.9 3.6 1.1 5.2.2 1.2-.2 2-.6 2.3-.3.2-.8.1-.5-.6.1-.3.2-.7.1-1.3-.3-1-1.8-2.6-1.6-5.3.2-1.9-.7-3.2-1.2-5l-.5 12.2c0 .8-.9.8-.9 0l-.5-12.5c-.5 1.7 0 3.1-1.2 5.4-1.5 2.9-.6 3.7-1 5.2-.3 1.1-.9 1.8-1.4 1.9-.4.1-.8-.2-.3-.7.2-.2.5-.6.5-1.2.1-1.1-.7-3.1.6-5.5.9-1.7.6-3.3.8-5.1l-5.1 11.1s-.1.3-.3.4h-.4c-.3-.1-.3-.5-.2-.7l4.4-11.8c-1.1 1.4-1.2 2.8-3.2 4.6-2.5 2.1-2 3.2-2.9 4.4-.7.9-1.5 1.3-2 1.2-.4-.1-.7-.5 0-.8.3-.1.7-.3 1-.9.5-1 .5-3.1 2.6-4.9 1.4-1.2 1.8-2.8 2.7-4.4L105 96c-.5.5-1.2-.1-.6-.6l8.5-9.2c-1.6.9-2.2 2.2-4.7 3-3.1 1-3 2.2-4.4 3-1 .6-1.9.6-2.3.4-.3-.2-.4-.7.3-.7.3 0 .8 0 1.2-.4.8-.7 1.7-2.7 4.3-3.5 1.8-.6 2.7-1.9 4.2-3L100 88.8c-.6.3-1.1-.5-.3-.8l11.4-5.2c-1.8.2-2.8 1.2-5.5 1-3.2-.3-3.6.9-5.2 1.1-1.2.2-2-.2-2.3-.6-.2-.3-.1-.8.6-.5.3.1.7.2 1.3.1 1-.3 2.6-1.8 5.3-1.6 1.9.2 3.2-.7 5-1.2l-12.2-.5c-.8 0-.8-.9 0-.9l12.5-.5c-1.7-.5-3.1 0-5.4-1.2-2.9-1.5-3.7-.6-5.2-1-1.1-.3-1.8-.9-1.9-1.4-.1-.4.2-.8.7-.3.2.2.6.5 1.2.5 1.1.1 3.1-.7 5.5.6 1.7.9 3.3.6 5.1.8l-11.1-5.1c-.7-.3-.4-1.1.4-.8l11.8 4.4c-1.4-1.1-2.8-1.2-4.6-3.2-2.1-2.5-3.2-2-4.4-2.9-.9-.7-1.3-1.5-1.2-2 .1-.4.5-.7.8 0 .1.3.3.7.9 1 1 .5 3.1.5 4.9 2.6 1.2 1.4 2.8 1.8 4.4 2.7l-8.3-8.9c-.5-.6.1-1.2.6-.6l9.2 8.5c-.9-1.6-2.2-2.1-3-4.7-1-3.1-2.2-3-3-4.4-.6-1-.6-1.9-.4-2.3.2-.3.7-.4.7.3 0 .3 0 .8.4 1.2.7.8 2.7 1.7 3.5 4.3.6 1.8 1.9 2.7 3 4.2l-4-11.5c-.3-.6.5-1.1.8-.3l5.2 11.4c-.2-1.8-1.2-2.8-1-5.5.3-3.2-.9-3.6-1.1-5.2-.2-1.2.2-2 .6-2.3.3-.2.8-.1.5.6-.1.3-.2.7-.1 1.3.3 1 1.8 2.6 1.6 5.3-.2 1.9.7 3.2 1.2 5l.5-12.2c0-.8.9-.8.9 0l.5 12.5c.5-1.7 0-3.1 1.2-5.4 1.5-2.9.6-3.7 1-5.2.3-1.1.9-1.8 1.4-1.9.4-.1.8.2.3.7-.2.2-.5.6-.5 1.2-.1 1.1.7 3.1-.6 5.5-.9 1.7-.6 3.2-.8 5.1l5.1-11.1c.3-.7 1.1-.4.8.4l-4.4 11.8c1.1-1.4 1.2-2.8 3.2-4.6 2.5-2.1 2-3.2 2.9-4.4.7-.9 1.5-1.3 2-1.2.4.1.7.5 0 .8-.3.1-.7.3-1 .9-.5 1-.5 3.1-2.6 4.9-1.4 1.2-1.8 2.8-2.7 4.4l8.9-8.3c.5-.5 1.2.1.6.6l-8.5 9.2c1.6-.9 2.2-2.2 4.7-3 3.1-1 3-2.2 4.4-3 1-.6 1.9-.6 2.3-.4.3.2.4.7-.3.7-.3 0-.8 0-1.2.4-.8.7-1.7 2.7-4.3 3.5-1.8.6-2.7 1.9-4.2 3l11.4-4.2c.7-.3 1.1.5.3.8L128.8 77c1.8-.2 2.8-1.2 5.5-1 3.2.3 3.6-.9 5.2-1.1 1.2-.2 2 .2 2.3.6.2.3.1.8-.6.5-.3-.1-.7-.2-1.3-.1-1 .3-2.6 1.8-5.3 1.6-1.9-.2-3.2.7-5 1.2l12.2.5h.3c.2.5.3.6.3.8z"/><path fill="#F6B40E" d="M104.5 64.7c-.2-.3-.1-.4.2-.2l9.3 8.6c-.1.1-.2.2-.3.2l-4.3-4 4 4.3-.3.3-8.6-9.2zm6.9 3.3c.8 2.5 2.1 3 3 4.7.1-.1.2-.2.3-.2-1.2-2.1-2.8-3-3-4.9.6 2.2 2.1 2.9 3.3 4.6.1-.1.2-.1.4-.2-1.2-1.6-2.7-2.6-3.4-4.6-.8-2.5-2.7-3.3-3.4-4.2-.6-.7-.5-1.3-.5-1.7-.2 0-.4.9.3 2.1.8 1.2 2 1.2 3 4.4zm-11.2 8.6c1.4.4 2.3-.5 5.3 1 2.3 1.2 3.6.7 5.4 1.2 0-.1 0-.3.1-.4-2.3-.7-4.1-.1-5.6-1.4 2 1.1 3.5.5 5.6.9 0-.1.1-.3.1-.4-2-.3-3.7.1-5.6-.9-2.3-1.2-4.3-.5-5.4-.5-.9-.1-1.2-.6-1.5-.8-.2.1.3 1 1.6 1.3zm16.5-11c-.2 2.6.8 3.6 1 5.5.1 0 .2-.1.4-.1-.3-2.4-1.5-3.8-.9-5.6-.3 2.2.9 3.5 1.3 5.6.1 0 .3 0 .4-.1-.4-2-1.5-3.4-1.3-5.6.2-2.6-1.2-4.1-1.6-5.2-.3-1 .2-1.4.1-1.7-.3 0-.7 1-.5 2 .2 1.4 1.3 1.9 1.1 5.2zm-.8 6.1c.1-.1.2-.1.4-.2l-2-5.4 2.4 5.3c.1 0 .2-.1.3-.1l-5.3-11.5c-.1-.3-.3-.3-.2.1l4.4 11.8zM103 69.3c1.2.9 2.3.4 4.5 2.9 1.7 2 3.1 2 4.6 3.2.1-.1.1-.2.2-.3-1.9-1.5-3.8-1.7-4.6-3.4 1.4 1.8 3.1 1.9 4.9 3l.3-.3c-1.7-1.1-3.5-1.3-4.9-3-1.7-2-3.8-2.1-4.8-2.6-.8-.4-.9-1-1.1-1.3-.3 0-.2 1 .9 1.8zm7.8 10.9L105 80l5.8-.2v-.4l-12.6.5c-.3 0-.3.2 0 .2l12.6.5v-.4zm-11-8.4l11.5 5.3c0-.1.1-.2.1-.4l-5.3-2.4 5.4 2c0-.1.1-.2.2-.3l-11.9-4.4c-.2-.2-.3 0 0 .2zm20-1l.2-5.8.2 5.8h.4l-.5-12.6c0-.3-.2-.4-.2 0l-.5 12.6h.4zm8.6 5.5l5.4-2-5.3 2.4c0 .1.1.2.1.3l11.5-5.3c.3-.1.2-.3-.1-.2l-11.8 4.4c.1.2.2.3.2.4zm-6.8-5.4c.7-2.3.1-4.1 1.4-5.6-1.1 2-.5 3.5-.9 5.6.1 0 .3.1.4.1.3-2-.1-3.7.9-5.6 1.2-2.3.5-4.3.5-5.4.1-.9.6-1.2.8-1.5-.1-.1-.9.4-1.3 1.6-.4 1.4.5 2.3-1 5.3-1.2 2.3-.7 3.6-1.2 5.4.2.1.3.1.4.1zm10.4.5c-2.5.8-3 2.1-4.7 3 .1.1.2.2.2.3 2.1-1.2 3-2.8 4.9-3-2.2.6-2.9 2.1-4.6 3.3.1.1.1.2.2.4 1.6-1.2 2.6-2.7 4.6-3.4 2.5-.8 3.3-2.7 4.2-3.4.7-.6 1.3-.5 1.7-.5 0-.1-.5-.2-.6-.2-.4 0-1 .2-1.5.5-1.2.8-1.2 2-4.4 3zm7.6 4.2c-1.4.2-1.9 1.4-5.3 1.1-2.6-.2-3.6.8-5.5 1 0 .1.1.2.1.4 2.4-.3 3.8-1.5 5.6-.9-2.2-.3-3.5.9-5.6 1.3 0 .1 0 .3.1.4 2-.4 3.4-1.5 5.6-1.3 2.6.2 4.1-1.2 5.2-1.6.6-.2 1.1-.1 1.7.1.2-.1-.6-.7-1.9-.5zm-16.3-4.2l2.4-5.3-2 5.4c.1 0 .2.1.3.2l4.4-11.9c.1-.3-.1-.4-.2-.1L123 71.3c.1 0 .2.1.3.1zm3.1 2l4.3-4-4 4.3c.1.1.2.2.2.3l8.6-9.3c.2-.2.1-.4-.2-.2l-9.3 8.6c.2.1.3.2.4.3zm-1.8-1.3c.1.1.2.1.3.2 1.5-1.9 1.7-3.8 3.4-4.6-1.8 1.4-1.9 3.1-3 4.9l.3.3c1.1-1.7 1.3-3.5 3-4.9 2-1.7 2.1-3.8 2.6-4.8.4-.8 1-.9 1.3-1.1-.1-.2-1-.1-1.8 1-.9 1.2-.4 2.3-2.9 4.5-2 1.6-2 3-3.2 4.5zm15.2 11.3c-1.4-.4-2.3.5-5.3-1-2.3-1.2-3.6-.7-5.4-1.2 0 .1 0 .3-.1.4 2.3.7 4.1.1 5.5 1.4-2-1.1-3.5-.5-5.6-.9 0 .1-.1.3-.1.4 2 .3 3.7-.1 5.6.9 2.2 1.2 4.1.5 5.2.5 1.1 0 1.4.6 1.7.8.3-.1-.2-1-1.5-1.3zm-39.4 1c1.4-.2 1.9-1.4 5.3-1.1 2.6.2 3.6-.8 5.5-1 0-.1-.1-.2-.1-.4-2.4.3-3.8 1.5-5.6.9 2.2.3 3.5-.9 5.6-1.3 0-.1 0-.3-.1-.4-2 .4-3.4 1.5-5.6 1.3-2.6-.2-4.1 1.2-5.2 1.6-.7.2-1.2.1-1.7-.1-.2.1.6.7 1.9.5zm23.7 3.9c-.1.1-.2.1-.4.2l2 5.4-2.4-5.3c-.1 0-.2.1-.3.1l5.3 11.5c.1.3.3.2.2-.1l-4.4-11.8zm2.8-2.2l-.3.3 4 4.3-4.3-4c-.1.1-.2.2-.3.2l9.3 8.6c.2.2.4.1.2-.2l-8.6-9.2zm1.7 5.9c-.8-2.5-2.1-3-3-4.7-.1.1-.2.2-.3.2 1.2 2.1 2.8 3 3 4.9-.6-2.2-2.1-2.9-3.3-4.6-.1.1-.2.1-.4.2 1.2 1.6 2.7 2.6 3.4 4.6.8 2.5 2.7 3.3 3.4 4.2.6.7.5 1.3.5 1.7.2 0 .4-.9-.3-2.1-.8-1.2-2-1.2-3-4.4zm8.4-1.3c-1.2-.9-2.3-.4-4.5-2.9-1.7-2-3.1-2-4.6-3.2-.1.1-.1.2-.2.3 1.9 1.5 3.8 1.7 4.6 3.4-1.4-1.8-3.1-1.9-4.9-3l-.3.3c1.7 1.1 3.5 1.3 4.9 3 1.7 2 3.8 2.1 4.8 2.6.8.4.9 1 1.1 1.3.3 0 .2-1-.9-1.8zm4.8-10.8l-12.6-.5v.4l5.8.2-5.8.2v.4l12.6-.5s.3 0 .3-.1-.3-.1-.3-.1zm-1.6 8.3L128.7 83c0 .1-.1.2-.1.4l5.3 2.4-5.4-2c0 .1-.1.2-.2.3l11.9 4.4c.2.1.3-.1 0-.3zm-16.9 6.2c.2-2.6-.8-3.6-1-5.5-.1 0-.2.1-.4.1.3 2.4 1.5 3.8.9 5.6.3-2.2-.9-3.5-1.3-5.6-.1 0-.3 0-.4.1.4 2 1.5 3.4 1.3 5.6-.2 2.6 1.2 4.1 1.6 5.2.3 1-.2 1.4-.1 1.7.3 0 .7-1 .5-2-.2-1.4-1.3-1.9-1.1-5.2zm-3.1-5.2L120 95l-.2-5.8h-.4l.5 12.6c0 .3.2.3.2 0l.5-12.6h-.4zm-6.6-2.6l-4.3 4 4-4.3c-.1-.1-.2-.2-.2-.3l-8.6 9.3c-.2.2-.1.4.2.2l9.3-8.6c-.2-.1-.3-.2-.4-.3zm-2-2.9l-5.4 2 5.3-2.4c0-.1-.1-.2-.1-.3l-11.5 5.3c-.3.1-.2.3.1.2l11.8-4.4c-.1-.2-.2-.3-.2-.4zm-3.6 4.9c2.5-.8 3-2.1 4.7-3-.1-.1-.2-.2-.2-.3-2.1 1.2-3 2.8-4.9 3 2.2-.6 2.9-2.1 4.6-3.3-.1-.1-.1-.2-.2-.4-1.6 1.2-2.6 2.7-4.6 3.4-2.5.8-3.3 2.7-4.2 3.4-.7.6-1.3.5-1.7.5 0 .2.9.4 2.1-.3 1.2-.8 1.2-2 4.4-3zm10.4.5c-.7 2.3-.1 4.1-1.4 5.5 1.1-2 .5-3.5.9-5.6-.1 0-.3-.1-.4-.1-.3 2 .1 3.7-.9 5.6-1.2 2.3-.5 4.3-.5 5.4-.1.9-.6 1.2-.8 1.5.1.1.9-.4 1.3-1.6.4-1.4-.5-2.3 1-5.3 1.2-2.3.7-3.6 1.2-5.4h-.4zm-3-1.2c-.1-.1-.2-.1-.3-.2-1.5 1.9-1.7 3.8-3.4 4.6 1.8-1.4 1.9-3.1 3-4.9l-.3-.3c-1.1 1.7-1.4 3.5-3 4.9-2 1.7-2.1 3.8-2.6 4.8-.4.8-1 .9-1.3 1.1.1.2 1 0 1.8-1 .9-1.2.4-2.3 2.9-4.5 2-1.6 2-3 3.2-4.5zm1.3.7l-2.4 5.3 2-5.4c-.1 0-.2-.1-.3-.2l-4.4 11.9s-.1.2 0 .3c.1 0 .1-.1.2-.2l5.3-11.5c-.2-.1-.3-.2-.4-.2zm11.9-8.6c0 4.8-3.9 8.6-8.6 8.6-4.8 0-8.6-3.9-8.6-8.6s3.9-8.6 8.6-8.6c4.8 0 8.6 3.8 8.6 8.6z"/><path fill="#85340A" d="M124.7 78.8c-.9-1-2.5-1-3.2.1.6.6 2.2.7 3.2-.1zm-.5 0c-.3.3-.6.5-.9.5.4-.2.4-.8 0-1 .5 0 .8.3.9.5zm-1.6-.5c-.3.3-.3.8.1 1-.3 0-.7-.2-.9-.4.2-.3.5-.5.8-.6zm2.6.5c-.1.1-.8-1-2.1-1-.4 0-.8 0-1.2.3-.4.3-.7.5-.8.5-.1.1-.2-.1-.1-.2s.3 0 .7-.3c.4-.3.6-.5 1.5-.5 1.3.1 2.1 1.2 2 1.2zm-4.4 2.5c-.6-1.2-.8-2.6-.3-3.9 1.5-1.2 3.6-1.4 5.1.7-1.6-1.4-3.6-1.6-4.6-.5-.9 1.2-.6 2.4.2 3.6-.1 0-.3 0-.4.1zm3.9-2.1c-1.2.9-2.3.8-3 .4-.7-.4-.7-.5-.5-.5.1 0 .3.1.8.4.6.2 1.4.2 2.7-.3zm-3.8 2.4c0 .2.2.4.4.4.5 0 .6-.7.1-.8.7.1.6 1.2-.1 1.2-.2 0-.4-.1-.5-.3-.4.3-1.2.3-1.6 0-.1.2-.3.3-.5.3-.8 0-.8-1.1-.1-1.2-.4.1-.3.8.1.8.2 0 .4-.2.4-.4.4.8 1.4.8 1.8 0zm-2.1 1.8c-.5.3-.7.5-1.1.7.6-.4.9-1 1.6-1 .3 0 .7.2.7.2.3-.1.5-.2.7-.2.7 0 1 .6 1.6 1-.3-.1-.6-.4-1.1-.7-.5-.3-.9.1-1.2.1-.4 0-.7-.4-1.2-.1zm1.2.5c-.3 0-.4-.1-.9-.1-.3 0-.6.1-1.1.2h-.2c1.4.1.7 1 2.3 1 1.5 0 .8-.8 2.3-1h-.3c-1.5-.3-1.7-.1-2.1-.1zm0 .9c-1.2 0-.8-.8-2-.8 1.2-.3 1.5.1 2 .1s.8-.4 2-.2c-1.2.2-.9.9-2 .9zm1.2 1.5c-.1-.6-.6-1-1.2-1s-1.1.4-1.2 1c0-.7.6-1.2 1.2-1.2s1.2.5 1.2 1.2zm-6.8-8.2c1.5-2.1 3.6-1.9 5.1-.7.5 1.3.3 2.7-.3 3.9-.1-.1-.2-.1-.3-.1.8-1.2 1.1-2.5.2-3.6-1.1-1.1-3.1-.9-4.7.5zm2.5-.2c-1.2 0-1.9 1-2.1 1-.1-.1.7-1.2 2.1-1.2.9 0 1.1.2 1.5.5.4.3.6.3.7.3.1.1 0 .3-.1.2-.1-.1-.4-.2-.8-.5-.5-.3-.9-.3-1.3-.3zm-1.6 1c.7.6 2.2.7 3.2-.1-.8-.9-2.5-1-3.2.1zm.3 0c.2-.4.6-.6 1-.6-.4.3-.3.9.1 1.1-.4-.1-.8-.3-1.1-.5zm2.5-.1c-.2.2-.5.4-.7.5.3-.2.3-.7 0-1 .3.1.6.3.7.5zm.2.8c-.7.4-1.8.5-3-.4 1.4.5 2.2.5 2.7.3.5-.3.7-.4.8-.4.1-.1.1.1-.5.5z"/></svg>
