<svg xmlns="http://www.w3.org/2000/svg" width="240" height="160" viewBox="0 0 120 80"><path fill="#006" d="M0 0h120v80H0z"/><path fill="#BD1021" d="M0 40L120 0v80L0 40z"/><path fill="#FFF" d="M12.1 40L120 4.3v71.4L12.1 40z"/><path fill="#9C3900" stroke="#000" stroke-width=".275" stroke-linejoin="round" d="M93.1 49s-1-.8.2-2.1c-.6-.5 0-1.6 0-1.6s-1.1-.4 0-2.1c-.8-.5-.5-1.8-.5-1.8s-2.7-1-.1-2c-2.1.9-4-1.2-4-1.2l-3 .1c-.5-2.5-4.5-.3-1.5-7.6-.8-.1-1.6-.4-2.5.3-.9.6-3.3 2-4.8.6s1-3.3 1-3.4c0 0 3.2-1.7 3.7-2.8 0-.8-1-1.5-.1-3.2 1-1.7 7.4-3.3 10.4-3.8 1.4-.6 2-1.9 2-1.9l.3 1.2s6.4-1.9 6.8-2.8c.3-.9.1.8.1.8 2.5-.2 5.8-2.4 6.2-1.4 2.1-.4 6.2-2.2 6.2-2.2s1.4 0 .4 1.5c.6 1-.2 1.9-.2 1.9s.3 1-.5 1.5c.3.9-.5 1.5-.5 1.5s.4 1-1.1 1.6c.1.9-.8 1.1-.8 1.1s.1 1-.5 1.4c0 .7-.7 1.1-.7 1.1s.5.3-.2.7c-.6.5-7.2 4.5-7.2 4.4 0 0 4.8.9 5.1 1 .3.2 4 2.6 4 2.6l-3.7 4.5s-4.1-.5-4.3-.2c-.2.2.9.3 1.1.7.2.4.6 1.2 1.3 1.1.7-.1-1.4 1.3-2.7 1.5 0 .5 1.7.5 2.2.1.5-.4-1.1 1.2-1.3 1.4s2-.3 2-.3-.4 1.5-2.3 2c.8 1.3.5 2.1.4 2.1s-1.3-1.3-2.5-1c.3 1.2 1.3 2.4 1.5 2.5.3.2-2.1.1-2.5-.5-.3-.7-.6 1.6.3 2.4-1 0-1.9-.5-1.9-.5s-.6 1.4-.2 2c.4.7-1.4-1.4-1.4-1.4l-3.5 1.5-.7-1.3z"/><path fill="#FFC221" stroke="#000" stroke-width=".275" d="M66.5 46.3c.1 0 5-.1 7.3-1.4 1.1 1.8 2.7 3 2.7 3l.7-2.6s1.8.1 1.9.5c-.2.5-.3 1.1-.3 1.1s1.2.1 1.2.3c.1.2-.3 1.5-.3 1.5l5.2 1.2s.4-2 .8-1.8c.4.2 2.2 2.7 4.7 2.9 2.5.2 2.7-2.1 2.7-2.1l.6.3s1.1-2.3 1.2-2.3c.2 0 .4.3 1.8.3.4.5.6 1.6.6 1.6s-1.5 1.5-1.1 2.7c.5 1.2.6.9.6.9l11.2 2.7s.6.9-.4 1.4c0 .1-11.2-2.6-11.2-2.6s-1.1 1.2-1.9 1c-.8-.2-.2.5-.2.5l12.1 1s.9 1.1.2 1.5c-.8.1-13.1-.8-13.1-.8s-.7 1.5-1.5.2c-.6.9-1.2-.2-1.2-.2s-1.1.8-1.2-.1c-.9.6-1.5-.4-1.5-.4l-5.2-.3-.3.5s.9.2-.5.8c-1.4.6 8.2.3 8.5.4.2.1-.6.8-.6.8s4.9.3 5.8-.7c.9-1.1-.3 1.4-.3 1.4s3.9-.2 3.9-.3-.1 1.2-2.7 1.1c1.6 1.1 3.6 1.7 3.6 1.7s-2 .5-4.4-.1c.4 1.1 2.2 2 2.2 2s-1.3 1.1-4.2-1.6c.8 1.5.2 2 .1 1.9-.1-.2-1.5-2.2-4.7-2.9 2 1.3 1.1 1.9 1.1 1.9s-1.1-1.9-2.7 0c-.6-1.7-3.2-2.7-6.2-2.8-1-1.1-1.5-.8-3.8-1.5-1.3-1.5-3.2-3.1-3.2-3.1s.1-2.2 2.3-1.9c.2.7.2.5.2.5s2.4-.9 3.2.3c1.1-1.9 2.5-.3 2.7.4.7.1 4.2.2 4.2.2s-.4-.7-.2-.6c.2.1 2.2-.7 2.1-1-.1-.2-.2-1.1.2-1 .3.1-2.7-.4-4.4.9-.6-.6-.2-2.1-.2-2.1l-5-1.1-.2 1.3s-1.5.2-1.4-.1c.1-.3-.3 1.1-.3 1.1s-1.9-.5-1.9-.6c0-.1.6-2.9.6-2.8 0 .1-1.6.2-3.9 1.9-.9-2.2-6-4.9-6-4.9zm6.3-6.7s-3.4 2.9 0 4.6c.2-1.1.4-1.3.4-1.3s2.8 1.1 4.5-1.5c-.7-1.1-2-.6-2-.6s-2.7 0-2.9-1.2z"/><path fill="none" stroke="#000" stroke-width=".275" d="M75.6 40.9l-2.3 2"/><path fill="#FFF" stroke="#000" stroke-width=".275" stroke-linejoin="round" d="M72.9 39.7s.5-.5.6-1c.1-.5-.2-1.1.4-1.6.5-.5 7.7-3.5 8.3-4.1.6-.6 1.7-1.9 1.8-2.1.1-.3.5 1.4-.7 2.1 1.3-.4 2.2-.8 2.7-.6-.5.8-2 2-2.7 2 1.6-.6 3-1.1 3.5-.8.4.3-2 1.9-2.9 2 1.6-.4 3.7-1 4-.4-.9.3-.6.5-2.4 1.5-.2.2-1.4.2-1.4.2 1.4-.1 3.2-.7 3.4.3-1.1.4-1.5 1-2.4 1.2-.9.2-3 .6-4.3 1.1-1.3.5-3.1 2-3.1 2l-4 .1c0-.1-.8-1.9-.8-1.9zm34.6-2.8l7.9 1.5s.9-1 .4-1.5c1.2-.3.9-1.8.9-1.8s1.4-.6.2-2c.8-.8-.2-1.4-.2-1.4s.3-1.4-.7-1.5c.3-1.1-1.7-1.5-1.7-1.5s-4.1 1.1-7 1.2c1 1-.4 1.5-.4 1.5s.8.5.5 1c-.2.5.1 1-.9 1.3 1.3.6-.1 1.6-.1 1.6s1.5 1.1 1.1 1.6z"/><path fill="none" stroke="#000" stroke-width=".275" d="M78.7 47l-1.1 4.7m1.8-1.4l.3-1.5m5.2 1.2l-.5 1.5m9.5 8.3c-.1 0-2.6.3-2.9.2-.3-.1 4 1.3 4 1.9m-5.7-1.5s-2.5-1.6-2.9-1.5c-.4.2 2.5-.1 2.7-.3m-4.9 0s-2.6.1-2.8-.2c-.2-.2 2.5 1.8 3 1.6m-5.2-2.6c-.1 0-1.8-.6-2.5-.8.6.6 1.1 1.5 2.7 1.9m.4-2.1c-.1-.2-3.2-1.1-3.2-1.6.7.2 1.8.6 2.7.3m16.9-1l.3-1.5M82.8 55s.5.6.1 1.3m10.4-.7l.9-.1m-7.3-.4l1.6.2m2.8-4.4s0 1.6-1.3 1.6h-.9m3.2-1.9s.5.2.4.6c-.1.4.1 1.6-1.5 2.7-1.7.4-1.5-1.4-1.5-1.4m3.2-1.4s1-.6 1.1.4c.1 1-.8 2.7-1.5 3-.7.3-1.5 0-1.4-.5m3-2.4s.9-.7 1.2.2c.3 1-.7 3.1-1.1 3.1m1.2-3.1s.5-.2.8 0m-2.3 3.3c-.2 0-1 .1-1.2-.5m-2.8-1.1h-1m4.5 3.6l-.1-1.5-.4-.5-.6.6s-.1 1.5-.4 1.6m.4-1.7c0-.1-.5-1-.5-1l-.8 1s-.1 1.4-.4 1.5m.4-1.5l-.3-.9s-.9.5-1 .9c-.1.4-.1 1.4-.4 1.5m.4-1.7s.1-.8-.2-.8c-.3 0-1.5 1.1-1.5 2.1M74.8 39.3s0-.9.5-1.2c.4-.3 2.5-1.1 2.9-1.8.5-.7-.7 1.2-.5 1.7m-2.1 0s1 .4.8 1.1m.4-.6c0 .4-.3.7-.7.7-.4 0-.7-.3-.7-.7s.3-.7.7-.7c.3 0 .7.3.7.7zm29.9-3.3s6.9.8 7.3.8c.3 0 1.5.4 1.8.8m-8.7-2l9.7.2m-9.6-.4s9.2-.5 9.8-1.5m-9.6-.5s9.2-1 9.3-.9m-9.6-.3s8.9-1.4 9-1.2m-34.5-4.5s2.8 3.1 2.5 5.2m-.1-1.7s.9 1.3 1.3 1.5c.4.1 3.5.3 3.7 1.7.2.9-.7.6-.5 1.2.2.8 2.4 1.9 4.7.6m-2.3.6s1.9 2.8 4.7-.2m-1.4 1.2s2.3 1.2 4.2-2M96 36.1s1.1 1 3.5-.3m3.3-1.3s3.5.7 3.7 1m-2.4-1.7l2.5.1m-4-1.5s4.2-.3 4.7.6m-6.5-1.9s5.9.2 6.1.5m-4.8 5.5s1-.3 1.1-.1m-3.4 2.5s1.3 1.1 3 .6m-2.3 1.3s1.5.7 3.3.3m-2.8.9s1.5 1 2.5.8m-3.2-.2s1 .8 1.1 1.2m-2.5-.3s.3 1.6 1.5 2.2m-2.3-1.5s-.5 2.1.8 3.5m-2.1-1.8s-.1 1 0 1.1m-8.2-9.4l2.5-.1s.9-.4.3-1m.3.6s2.3.2 2.9.9c.6.7 1.3 2 1.7 2.3.4.2.5-.1.5-.1m-1-.5s-1.2 2.1-.3 2.7m-.4-.3s-1.1 1.5-.2 2.2m-.2-.2s-.9 1.4.2 2.4m-.6-6.2c-.1.1-1.1.8-1.4.6m.3 1.6s.4.4.8.4m-.7 1.8l.7.4m-.1 1.5l-.6-.3M83.1 24.6s1.2.6 2.1 0c1-.6 5.5-3 6.7-3.3 1.2-.4 1.9-2.6 2.1-3.5m-.8 2.5l6.7-2s1.1-.9 1.1-2.6m-.5 1.9s6.7-.7 6.7-3.2m-1 1.8s7-1.9 7.7-2.6M86.6 26.2s4.2-2.2 4.9-2.4c.7-.2 2.2-2.1-.1-2.1M88.7 27s3.5-2.2 4.6-2.5c.6-.9.3-1.8-.8-1.6m1.1 1c.1 0 1.9-.1 1.2 1.3-.9.7-4.8 2.6-4.8 2.6m2.7-5.4l7.4-2.5s.6-1.3-.3-1.5m6.2-2.2s1 .6.4 1.4c-1.1.6-6 1.8-6 1.8m13.2-3.9l-7 2m.3 1.4L113 17m-5.9 3.2l5.4-1.6m-1 1.5c-.1 0-4 1.2-4 1.2m3.2 0l-2.5 1m1.8.3c-.1 0-2.1.9-2.1.9m-.4 1.1l1.9-.9m-3.3 2.1s.2.1.2.4m-5 2.2s.8.3 0 1.1c-.4.5-1.5.4-2.1 1.3m7.3-13.1s1 .2.2 1.5c-2 .8-6.1 2-6.1 2s-.2.3-.7.6c-.5.3-6.3 1.9-6.3 1.9m13.2-4.5s1.1.5 0 1.3c-1.2.7-5.6 2.1-5.6 2.1s0 .4-.2.5c-.2.1-5.9 2.1-5.9 2.1m12-4.7s1.1.3.1 1.3c-1.2.7-5 2-5 2s-.4.5-1 .7c-.6.2-4.6 1.8-4.6 1.8m10.8-4.5c.3.1 1.2.3.1 1.1-1.3.6-4.4 1.8-4.4 1.8l-.3.5-5 2.1m9.9-4.2s.5.6-.6 1.2-3.6 1.6-3.6 1.6m3.6-1.5s.5.3-.1.8c-.8.4-3.8 2-3.8 2l-2 1.3m-.9-8.5s.8.7.5 1.5c.7.5.6 1.1.6 1.1s1 .6.9 1.4c1 .2 1 .8 1 .8l-.3.5s1 0 .1 1.2c.5.3.3.6.3.6m-.4-.5c-.1 0-3.5 1.2-4.3 2m-3.8-3.5s1 0 .9 1.1c1.1-.4.9.7.9.7s1.3-.5 1.1 1.1c.9-.2.7.7.7.7s.8 0 .8.4c.5-.5 1.1-.2 1.1-.2s.4-.5.9-.4m-5.5-2.4c0 .1-4.5 2.6-4.5 2.6m5.4-1.8L93.3 29m4.5-1l-3 1.8m3.7-1.1s-2.1 1.7-2.6 1.6m3.3-1.1s-1.2.9-2.2 1.3m3.4-1.7s.4.5-2 1.7"/></svg>
