<svg xmlns="http://www.w3.org/2000/svg" width="240" height="160" viewBox="0 0 240 160"><path fill="#00008B" d="M0 0h240v160H0V0z"/><path fill="#FFF" d="M78.7 124l-12 1 1.7 12-8.3-8.8-8.3 8.8 1.7-12-12-1 10.4-6.2-6.9-10 11.3 4.3 3.7-11.5 3.7 11.5 11.3-4.3-6.7 10.1 10.4 6.1zM70 24.4V0H50v24.4L13.4 0H0v8.9l26.6 17.7H0v26.7h26.6L0 71.1V80h13.4L50 55.6V80h20V55.6L106.6 80H120v-8.9L93.4 53.3H120V26.7H93.4L120 8.9V0h-13.4L70 24.4zM153.7 71l3.2-4.8-5.4 2-1.8-5.5-1.8 5.5-5.4-2 3.2 4.8-5 2.9 5.7.5-.8 5.7 4-4.2 4 4.2-.8-5.7 5.7-.5-4.8-2.9zm32 50.6l3.2-4.8-5.4 2-1.8-5.5-1.8 5.5-5.4-2 3.2 4.8-5 2.9 5.7.5-.8 5.7 4-4.2 4 4.2-.8-5.7 5.7-.5-4.8-2.9zm-7.1-81.8l-.8 5.7 4-4.2 4 4.2-.8-5.7 5.7-.5-5-2.9 3.2-4.8-5.4 2-1.8-5.5-1.8 5.5-5.4-2 3.2 4.8-5 2.9 5.9.5zM196 83.3l-1.4-3.4-1.4 3.4-3.7.3 2.8 2.4-.9 3.6 3.1-1.9 3.1 1.9-.9-3.6 2.8-2.4-3.5-.3zm23.1-17.9l-5-2.9 3.2-4.8-5.4 2-1.8-5.5-1.8 5.5-5.4-2 3.2 4.8-5 2.9 5.7.5-.8 5.7 4-4.2 4 4.2-.8-5.7 5.9-.5z"/><path fill="#F00" d="M54 0h12v32h54v16H66v32H54V48H0V32h54V0zM0 0l40 26.7h-8.9L0 6V0zm120 0h-8.9l-40 26.7H80L120 0zm0 80L80 53.3h8.9L120 74v6zM0 80h8.9l40-26.7H40L0 80z"/></svg>
