<svg xmlns="http://www.w3.org/2000/svg" width="240" height="160" viewBox="0 0 240 160"><path fill="#002395" d="M0 0h240v160H0V0z"/><path fill="#FECB00" d="M54.8 0h160v160L54.8 0z"/><path fill="#FFF" d="M35 10.4L26 4l-9 6.4L20.4 0h11L35 10.4zm25.4 3.2h-11L46 3l-3.4 10.6h-11l9 6.4-3.4 10.6L46 24l9 6.4L51.6 20l8.8-6.4zm20 20h-11L66 23l-3.4 10.6h-11l9 6.4-3.4 10.6L66 44l9 6.4L71.6 40l8.8-6.4zm20 20h-11L86 43l-3.4 10.6h-11l9 6.4-3.4 10.6L86 64l9 6.4L91.6 60l8.8-6.4zm20 20h-11L106 63l-3.4 10.6h-11l9 6.4-3.4 10.6L106 84l9 6.4-3.4-10.4 8.8-6.4zm20 20h-11L126 83l-3.4 10.6h-11l9 6.4-3.4 10.6 8.8-6.6 9 6.4-3.4-10.4 8.8-6.4zm20 20h-11L146 103l-3.4 10.6h-11l9 6.4-3.4 10.6 8.8-6.6 9 6.4-3.4-10.4 8.8-6.4zm20 20h-11L166 123l-3.4 10.6h-11l9 6.4-3.4 10.6 8.8-6.6 9 6.4-3.4-10.4 8.8-6.4zm9 20L186 143l-3.4 10.6h-11l9 6.4h11l9-6.4h-11.2z"/></svg>
