<svg xmlns="http://www.w3.org/2000/svg" width="240" height="160" viewBox="0 0 120 80"><path fill="#002395" d="M0 0h120v80H0z"/><path fill="#FECB00" d="M29.4 0h80v80l-80-80z"/><path fill="#FFF" d="M19.5 5.2L15 2l-4.5 3.2L12.2 0h5.5l1.8 5.2zm12.7 1.6h-5.5L25 1.5l-1.7 5.3h-5.5l4.5 3.2-1.7 5.3L25 12l4.5 3.2-1.7-5.2 4.4-3.2zm10 10h-5.5L35 11.5l-1.7 5.3h-5.5l4.5 3.2-1.7 5.3L35 22l4.5 3.2-1.7-5.2 4.4-3.2zm10 10h-5.5L45 21.5l-1.7 5.3h-5.5l4.5 3.2-1.7 5.3L45 32l4.5 3.2-1.7-5.2 4.4-3.2zm10 10h-5.5L55 31.5l-1.7 5.3h-5.5l4.5 3.2-1.7 5.3L55 42l4.5 3.2-1.7-5.2 4.4-3.2zm10 10h-5.5L65 41.5l-1.7 5.3h-5.5l4.5 3.2-1.7 5.3L65 52l4.5 3.2-1.7-5.2 4.4-3.2zm10 10h-5.5L75 51.5l-1.7 5.3h-5.5l4.5 3.2-1.7 5.3L75 62l4.5 3.2-1.7-5.2 4.4-3.2zm10 10h-5.5L85 61.5l-1.7 5.3h-5.5l4.5 3.2-1.7 5.3L85 72l4.5 3.2-1.7-5.2 4.4-3.2zm4.5 10L95 71.5l-1.7 5.3h-5.5l4.5 3.2h5.5l4.5-3.2h-5.6z"/></svg>
