<svg xmlns="http://www.w3.org/2000/svg" width="240" height="160" viewBox="0 0 120 80"><path fill="#CE1126" d="M0 0h120L0 80h120L0 0z"/><path fill="#1EB53A" d="M0 0v80L120 0v80L0 0z"/><path fill="#FFF" d="M120 0h-9.6l-35 23.3c-8.7-8-22.1-8-30.7 0L9.6 0H0v6.4l38.7 25.8c-1.8 4.9-1.9 10.5 0 15.6L0 73.6V80h9.6l35-23.3c8.7 8 22.1 8 30.7 0l35 23.3h9.6v-6.4L81.3 47.8c1.8-4.9 1.9-10.5 0-15.6L120 6.4V0z"/><path fill="#1EB53A" d="M64.6 30.9h-3.1L60 33.6l-1.5-2.7h-3.1l1.5-2.7-1.5-2.7h3.1l1.5-2.7 1.5 2.7h3.1l-1.5 2.7 1.5 2.7zm8.6 15l1.5-2.7h-3.1l-1.5-2.7-1.5 2.7h-3.1l1.5 2.7-1.5 2.7h3.1l1.5 2.7 1.5-2.7h3.1l-1.5-2.7zm-28 2.6h3.1l1.5 2.7 1.5-2.7h3.1l-1.5-2.7 1.5-2.7h-3.1l-1.5-2.7-1.5 2.7h-3.1l1.5 2.7-1.5 2.7z"/><path fill="#CE1126" d="M63.8 30.5h-2.5L60 32.6l-1.3-2.2h-2.5l1.3-2.2-1.3-2.2h2.5l1.3-2.2 1.3 2.2h2.5l-1.3 2.2 1.3 2.3zm8.9 15.4l1.3-2.2h-2.5l-1.3-2.2-1.3 2.2h-2.5l1.3 2.2-1.3 2.2h2.5l1.3 2.2 1.3-2.2H74l-1.3-2.2zm-26.6 2.2h2.5l1.3 2.2 1.3-2.2h2.5l-1.3-2.2 1.3-2.2h-2.5l-1.3-2.2-1.3 2.2h-2.5l1.3 2.2-1.3 2.2z"/></svg>
