<svg xmlns="http://www.w3.org/2000/svg" width="240" height="160" viewBox="0 0 480 320"><path fill="#CE1126" d="M0 0h480L0 320h480L0 0z"/><path fill="#1EB53A" d="M0 0v320L480 0v320L0 0z"/><path stroke="#FFF" stroke-width="40" d="M0 0l480 320m0-320L0 320"/><circle fill="#FFF" cx="240" cy="150" r="85"/><path fill="#1EB53A" d="M251.5 106l5.8 10h-11.5l-5.8 10-5.8-10h-11.5l5.8-10-5.8-10h11.5l5.8-10 5.8 10h11.5l-5.8 10zm44.3 56.2h-11.5l-5.8-10-5.8 10h-11.5l5.8 10-5.8 10h11.5l5.8 10 5.8-10h11.5l-5.8-10 5.8-10zm-76.9 0h-11.5l-5.8-10-5.8 10h-11.5l5.8 10-5.8 10h11.5l5.8 10 5.8-10h11.5l-5.8-10 5.8-10z"/><path fill="#CE1126" d="M249.5 106l4.7 8.2h-9.5l-4.7 8.2-4.7-8.2h-9.5l4.7-8.2-4.7-8.2h9.5l4.7-8.2 4.7 8.2h9.5l-4.7 8.2zm43.1 58h-9.5l-4.7-8.2-4.7 8.2h-9.5l4.7 8.2-4.7 8.2h9.5l4.7 8.2 4.7-8.2h9.5l-4.7-8.2 4.7-8.2zm-76.8 0h-9.5l-4.7-8.2-4.7 8.2h-9.5l4.7 8.2-4.7 8.2h9.5l4.7 8.2 4.7-8.2h9.5l-4.7-8.2 4.7-8.2z"/></svg>
