<svg xmlns="http://www.w3.org/2000/svg" width="240" height="160" viewBox="0 0 360 240"><path fill="#FFF" d="M0 240h360V0H0v240z"/><path fill="#CE0F25" stroke="#221B0F" stroke-width=".4" d="M253.1 151.4c4.1 9.7 2.4 17.3 0 24.8 5.9-2.2 18.6-8.1 17.1-15.4-2.7-6.5-11-8.1-17.1-9.4z"/><path fill="#FAF8F0" stroke="#221B0F" stroke-width=".4" d="M232 193.4c3.7-1.2 6.3-2.6 12.5-3.5 2.6-.4 9.4.1 13.4-1.2 3.8-1.2 6.1-2.3 6.2-4.3.5-9 6.8-19.5 7.3-21.7 1.1-4.2-8.3-11.9-18.8-11.9l.3 1.1c5.2.1 15.5 4 16.1 9.2.9 7.8-25.6 9-40.3 11.9-7.5 1.9-6.3 5.8-5.5 6.6 6.8 6.5 8.8 13.8 8.8 13.8z"/><path fill="#F6E4BE" d="M269 166.1c-9.9 6.4-23.3 6.9-35 7.9l-7.4 7.6 6.8 10c15.1-5 14.4-2.6 20.2-3.6 9.5-1.5 6.2-3.5 8.8-10.5 1.2-3 3.5-5.1 6.6-11.4"/><path fill="#CE0F25" stroke="#221B0F" stroke-width=".4" d="M89.8 160.8c-1.5 7.4 11.1 13.3 17.1 15.4-2.4-7.4-4.1-15.1 0-24.8-6.2 1.3-14.4 2.9-17.1 9.4z"/><path fill="#FAF8F0" stroke="#221B0F" stroke-width=".4" d="M136.7 179.8c.8-.7 2-4.7-5.5-6.6-14.7-2.9-41.2-4.1-40.3-11.9.6-5.2 10.9-9.1 16.1-9.2l.3-1.1c-10.5 0-19.9 7.7-18.8 11.9.6 2.2 6.8 12.6 7.3 21.7.1 1.9 2.3 3.1 6.2 4.3 4 1.2 10.9.8 13.4 1.2 6.2.9 8.8 2.2 12.5 3.5 0-.2 2.1-7.5 8.8-13.8z"/><path fill="#F6E4BE" d="M90.9 166.1c3.1 6.3 5.5 8.4 6.6 11.4 2.6 7-.7 9 8.8 10.5 5.9 1 5.1-1.4 20.2 3.6l6.8-10-7.4-7.6c-11.7-1-25.1-1.5-35-7.9"/><path fill="#CE0F25" stroke="#221B0F" stroke-width=".4" d="M228.4 197.7c1.8-8.8-3.4-11.9-6.5-17.2 0 0 2.9.9 4.6 1.1 3.3.4 5.1.4 9.9-.4 22.3-3.5 1.7 11-8 16.5zm-96.9 0c-1.8-8.8 3.4-11.9 6.5-17.2 0 0-2.9.9-4.6 1.1-3.3.4-5.1.4-9.9-.4-1.7-.3-15.1-5-9.2 3.3 4.1 5.7 17.2 13.2 17.2 13.2z"/><path fill="#FAF8F0" stroke="#221B0F" stroke-width=".4" d="M117.2 208.6c-2.2-1.4-6.6-3.7-5.5-7.9 2-7.7 1.6-11.8.2-17.7-.4-1.9-.9-4.7 1.5-4.6 6.1.3 12.9 2.3 17.7 2.1 2-.1 5-.5 5.2-2.6.3-2.6-6.3-4.9-6.3-4.9 3.9.5 7.2 2.1 8.3 4.4.5.9.2 2.3-.3 3.1-1.2 1.7-3.4 2.2-5.4 2.4-4.1.5-10.9-.6-14.8-1.3-2.3-.4-5.4-1.3 0 3.7 5 4.6 10.7 8.4 16.7 11.6 16.2 8.8 28.6 11.6 45.5 11.6 16.8 0 29.2-2.8 45.5-11.6 6-3.2 11.7-7 16.7-11.6 5.5-5.1 2.3-4.2 0-3.7-3.9.7-10.8 1.9-14.8 1.3-2-.3-4.2-.7-5.4-2.4-2.4-3.5 2.4-6.9 8-7.5-8.7 3-7.8 7.3-1.1 7.5 4.9.2 11.7-1.8 17.7-2.1 2.4-.1 1.9 2.7 1.5 4.6-1.4 5.8-1.8 10 .2 17.7.3 1.3 0 2.9-.7 4-1.1 1.7-3 2.7-4.8 3.8-19.9 12.8-42.3 19.3-62.8 19.3-20.4.1-42.8-6.4-62.8-19.2z"/><path fill="#F6E4BE" d="M244.8 205.6s1.3-1.3 1.6-2.5c.6-2.8-.8-5.8-.9-8.7-.1-3.1.5-9.4.5-9.4-7.8 7.4-29.1 26.1-66 26.1-35.9 0-58.3-18.7-66-26.1 0 0 .6 6.2.5 9.4-.1 4.2-2.7 7.7.7 11.1 20.3 13.1 42 21 64.8 21 22.7.1 44.4-7.8 64.8-20.9"/><path d="M140.5 211.4c.7-2 3-4.2 6.6-2.9 3 1 4.3 3.4 3.3 6.1-.9 2.7-3.6 4.2-6.7 3.1-3.4-1.2-3.9-4.2-3.2-6.3m8.1 3.1c.9-2.6-.1-4.8-2-5.5-1.4-.5-3.2-.3-4.3 2.7-.9 2.5-.1 4.9 2.2 5.7.8.2 2.9.5 4.1-2.9m4.9-2.7c.1-.5 0-.8-.8-1-.3-.1-.3-.3.1-.2l3.3.8c.4.1.3.3 0 .2-.6-.1-.8 0-1 .5-.1.5-.2.8-1.1 4.3-.4 1.8-.2 2.6.3 3.2.7 1 2.3 1.2 3.3.6.8-.5 1.1-1.6 1.4-2.8.8-3.3.9-3.7 1-4.1.1-.5 0-.8-.8-1-.3-.1-.3-.3.1-.2l2.9.7c.4.1.3.3 0 .2-.6-.2-.8 0-1 .5-.1.4-.2.8-1 3.9-.3 1.4-.8 2.8-2.1 3.4-1.9.9-4.4.1-5.4-1.2-.5-.7-.8-1.7-.3-3.5.9-3.5 1-3.8 1.1-4.3zm10.5 7.7c-.1 0-.1 0-.1.1l-.9 1.6c-.6 1.1-.2 1.1.3 1.2.3 0 .2.3-.1.2l-2.8-.4c-.3 0-.3-.3-.1-.2.8.1 1.2-.1 1.6-.9l4.3-7.2c.3-.5.5-.7.7 0 .2.7 1.5 6 2.1 8 .4 1.4.8 1.5 1.4 1.6.3 0 .3.3-.5.2-.5-.1-1.4-.2-2.4-.4-.5-.1-.4-.2-.2-.2.3 0 .1-.5-.5-3 0-.1-.1-.1-.1-.1l-2.7-.5zm2.7-.3c.1 0 .1 0 0 0l-.6-3.3c0-.2-.1-.1-.1 0l-1.6 2.9v.1l2.3.3zm6.6 2.9c0 1.4.2 1.5 1.1 1.5.3 0 .3.2-.1.2l-3-.1c-.4 0-.3-.2-.1-.2.9 0 1-.1 1-1.6l.4-7.4c0-.7.3-.4.6 0 .1.1 6.5 7.1 6.6 7.1l.1-5.6c0-1.1-.2-1.2-1.1-1.2-.3 0-.3-.2.1-.2l2.8.1c.4 0 .3.2.1.2-.7 0-.9.2-.9 1.1l-.4 7.9c0 .5-.2.5-.6.1-1.6-1.6-6.6-7-6.6-7v5.1zm12.2-1.5c-.1 0-.1 0-.1.1l-.6 1.8c-.4 1.2.1 1.1.6 1.1.3 0 .3.2 0 .2l-2.9.2c-.3 0-.3-.2-.1-.2.9-.1 1.1-.4 1.4-1.3l2.6-8c.1-.4.2-.5.3-.5.1 0 .2.1.3.4.4.7 2.8 5.5 3.7 7.3.7 1.3 1.1 1.3 1.8 1.3.3 0 .3.2-.4.3-.5 0-1.4.1-2.4.1-.5 0-.5-.2-.2-.2.3-.1 0-.5-1.1-2.8 0-.1-.1-.1-.1-.1l-2.8.3zm2.6-.8c.1 0 .1 0 0 0l-1.3-3.1s0-.1-.1-.1l-.1.1-1 3.1c0 .1 0 .1.1.1.1.1 2.4-.1 2.4-.1zm8.2 1.9c.5.3 2.6.1 3-.5.1-.2.2-.6.2-.8 0-.2.2-.3.2 0 0 .1.1 1.1 0 1.5 0 .3-.1.4-.7.5 0 0-1 .1-5.3.8-.3.1-.4-.2-.1-.2.6-.1.7-.2.7-.9 0-.6-.2-1.8-.7-4.8-.5-3-.4-3.4-1.5-3.2-.3 0-.4-.2 0-.2l3.5-.5c.4-.1.4.2.1.2-1.1.2-1 .3-.5 3.5.6 3 .8 4.4 1.1 4.6zm6.4-3.5c-.1 0-.1 0-.1.1l-.3 1.8c-.2 1.2.3 1.1.8 1 .3-.1.3.2 0 .2l-2.8.7c-.3.1-.3-.1-.1-.2.8-.2 1-.5 1.2-1.5l1.3-8.3c.1-.6.2-.8.6-.3.5.6 3.6 5 4.9 6.6.9 1.2 1.3 1.1 2 1 .3-.1.4.1-.4.3-.4.1-1.4.3-2.4.5-.5.1-.5-.1-.2-.2.3-.2-.1-.5-1.6-2.6 0-.1-.1-.1-.1-.1l-2.8 1zm2.4-1.2c.1 0 .1 0 0 0l-1.8-2.8c-.1-.2-.1-.1-.1 0l-.4 3.3c0 .1 0 .1.1.1l2.2-.6zm4.2-1.9c-.7-2-.2-5.1 3.4-6.3 3-1 5.5 0 6.4 2.8.9 2.7-.3 5.5-3.4 6.6-3.4 1-5.7-1.1-6.4-3.1m8.3-2.6c-.9-2.7-3-3.8-5-3.1-1.4.5-2.7 1.8-1.7 4.7.8 2.5 2.9 3.9 5.2 3.1.8-.2 2.6-1.3 1.5-4.7"/><path fill="#EACE24" stroke="#806600" stroke-width=".4" d="M98.5 152.8c-.1 15-.3 15.5-.3 15.5 6.6 6.4 7.3 8.8 9.3 10.9 2.5-3.7 6.4-2.2 6.4-2.2.8-3.5 5-6.4 5-6.4-5.8-.5-15.9-3.5-16.7-4.6-2.6-4 1-16 1-16l-4.7 2.8zm4.8-7.1s8.1-3.3 16.4 2.5c.8.2 1.4.2 2 .1 1.6-1.7 5.3-6.8 8.1-6.1.2-4.3-.3-21.4-.3-21.4-1.2 0-1.6 2.3-1.6 2.3.7 4.9-2.1 34.5-13.7 14.9l-8.2.8-2.7 6.9zm-4.5-68.6c7 2.5 7.1 3.9 14 10 5.5 2.2 13.7 7.6 14.2 8.8l-.4 1.7c1.1.7 2.1-1.8 2.1-1.8-1.1-6-20.5-24.2-20.5-24.2"/><path fill="none" stroke="#806600" stroke-width=".4" d="M112.9 176.3l-6.5-5 7.7 4.6"/><path fill="#FFF" stroke="#000" stroke-width=".4" d="M101.9 65.9c1.9-5.3 7.9-8.8 7.9-9.3-.7-4-8.3 2.6-11.9 6.5m-.6 3.9c.1-6 4.3-10.8 4-11-2.4-1.2-5.3 3.2-7.2 6.7m-.1 7.8c-.4-4 .5-11.4.1-11.4-3 0-4.8 8.4-4.9 12.5m3.7 9.1c-3.7-4.8-4.4-14.6-5-15.7-3.7.7-3.1 8-2.6 11.3m3.3 51.5c1.1-2.9 2.5-6.1 3.6-6.8m-4.9-1.8c-1.8 3.8-3.4 8.8-2.1 12m7.4-12.3c-.5 2.5-.6 4.3-.6 5.6M83 78c-6.8-6.8-7.7-14.3-8.5-14.3-2.8-.2-.3 9.1.8 12.8m6.5 6.1C72.6 76.5 71.3 67.7 70.5 68c-3.4 1.3.9 10.5.9 10.5.4 1.9 5.4 6.8 7.9 9.1m.5.3c-12.7-7.2-12.9-15.3-14.4-14.8-2.9 7.8 6.6 15.3 14.5 21.1m.2.7c-10.4-4.1-15.6-13.8-16.9-13.3-3.3 1.3 3.7 10.2 3.7 10.2 2.9 2.7 6.7 5 9.8 6.6m2.7 1.1C63.2 93.9 62.5 88.6 60.8 89 57.5 91.5 68 99.8 68 99.8c1 1.5 8.6 3.8 12.4 5m.2.2c-15.9-3.7-18.3-8.5-19.7-8.1-2.2 3 8.4 9.5 8.4 9.5 4.6 2.6 10.2 3.7 13.3 4.1m-2.4 8.3c-3.8 4.6-5.6 11.1-3.4 11.6 1.4.1 5-9.8 10.5-11.2l2.3-1.9m-11.9-3.1c-5.8 5-7.7 10.4-6.7 10.7 1.6.5 8-6.1 10.3-6.5.7-.1 3.9-1.7 6-2.8m-4.5-5c-8-.3-19.9-7.4-20.1-6.8-3.4 4 11.3 10.7 14.6 10.4l9.5.6m6.6-32.4l-1.6 3.2m7.5 21.4c-.2-3.1-.5-9.9 0-14.1m-3 27.6c-9.6 9-16.2 15.4-19.7 21.4-2 2.2 1.9 1.6 1.9 1.6s-5.7 6.1-8.5 7.8c.9 2.6 6.3-1.1 6.3-1.1s-5.4 3.3-5.1 3.9c1.6 1.2 6.4-2.3 6.4-2.3s-1.1 1.6-.2 2.2c1.6 0 5.3-2.9 5.3-2.9s-.8 1.7.1 2c1.5-1 11.1-8.9 11.1-8.9 2.7 3.4 3.8 11.2 3.8 11.2l.8-2.5c.4.2.6 2.2 1.1 2.2.2 0 .2-2 .7-2.1.2 0 .1 2.8.6 2.8.4 0 .5-2 .6-1.9.3.2.4 2.7.7 1.4-.4-13.2 25.5-24 25-38.8.7-15.3-15.8-21.1-25.9-34 0 0-2.8-8.4 2.4-4.7 4.2-.7 3.8-4.8 3.8-4.8h2.3c1-9-8-6.9-8-6.9-8.4 0-9.2 8.7-9.2 8.7-2.2 11.3 12.5 24.8 12.5 24.8 1 2.1 1.1 4.9.9 7.4m-27.5 36.5c-.6 1 2.8 1 3.6-.1 0 1.6 2.2 1.7 3 .9.3 1 1.8.8 2.8-.2.2.4 1.5 1.4 2.1 1.2 1-.4 4.9-5.9 5.7-6.3m-12.4-5.7c-.6 1 .8 3.5 3.8 2.1-.9 2.5.4 1.8 2.4.9-.5 2.1 1.8.8 2.8-.2.2.4.2 1.5 1.1 1.6 1.1.1 2.2-2.9 3-3.4m12.7-22.9s0-4.4-2.2-4.6c0 0-4.9-.4-10.3.6-12.5-7.4-2.7-17-4.4-20.3-.6-5.1-8.9-12.7-8.9-12.7-.8.8.2 5.5-.5 5.2-1.7-.8-.6 2.9-1.1 3.8-1.6-.6-1.5 1.9-1.1 3.7-1.3.2-.8 2.4-.6 4-2.6-1.4.8 4-.1 3.8-3.9-.6.6 3.8.6 3.8-2.3.8-1.2 2.5.4 3.2-2 1.4 0 3.7.8 3.8-1.8.9.2 2.3 1.2 3.3-1.6 1.5 1.3 2.1 2.7 2.7-1.1 1.8.2 2.2 1.4 2.7-.8 1.4 1.1 1.3 2.3 1.1-1.4 1.5.9 2.2 1.9 2 0 0 .5 1.9 2.2 1.2-.5 1.5 2.9 1.3 2.9 1.3 0 1.5 5 .9 5 .9"/><path fill="none" stroke="#000" stroke-width=".4" stroke-linecap="round" d="M84.9 85.9s1 2.7 2.3 2.7m20.3-15.8c-2.7-5.2-5-2.5-6.3-2.5-1.4 0-1.1-1.5-1.1-1.5m6.7 6.9l20.4 18.7.5 1.5m-17.6-14c2.2 3.8 6.2 5.2 6.2 5.2m-23.7 45.7l-3.1 3.5m2.7-.2l1.6-1.8m-6.3-5.4c-.5.9-.8 1.8.2 1.5m-9.2 13.1s4.3-5.3 7.2-7.6m-3.6 7.4s3.3-4.1 7.3-7m-4.4 7.9s2.6-3.7 7.2-8.1m-4.3 7.9s2-3.4 5.7-6.1m-6.6-2.4l5.3-4.9m-15.9 19.5s3.2-3.5 6.1-5.8m-4.8 7.5s4.9-4.7 7.8-7.1m-2.8 6.4s3.5-3.7 6.4-6m-1.1-.9l-.3.3c-3 3.1-5.4 5.1-5.4 5.1m1.1-4.9l-.1.1c-3 3.1-6 5.5-6 5.5m2.9-6.1c-2.8 2.8-3.5 3.1-3.5 3.1m10-15.5l-2.5 3.8m11.7-5.7c-4.2 5.3 1.9 1.1 1.9 1.1m-7.6 1.5c-.5 0-1.9-.1.5-3m4.5-2.6l-.8 1.3m-7.6 8.7c-.7.7-2 1.7-2 1.7m5-1.2c-1.5 1.1-2.6 2.4-2.6 2.4m7.3-1.2l-2.3 2.2m.5-3.4c-1.5 1.1-2.2 1.9-2.2 1.9m-.8-54.5s.2 1.8 1.1 4.3c-1.4 1.4-1.7 3.5-1.7 3.5m5.2-.6c-.8 2.2 1.3 4.3 1.3 4.3m-2.9-3.1c-.8 2.2 2.7 5.7 2.7 5.7m-3.4-2c-.8 2.2 3.1 3.9 3.1 3.9m-1.4 1.5c.2 1.6 3 1.2 3 1.2m7-43.7c-1.5 1.2-2.9 4.2-3.7 6.3m-4.3-2.6c-.7 1.7-.6 3.6-.5 5.2m-3.7 0c-.1 1.8.5 3.9 1.2 5.5m-5.4-1.6c-1.3 2.6 3.3 9.5 5 11.9m-1 33.6c-.9 1-2.5 2.7-3.2 4.6m-6.2-42.8c-1.1-1-3.4-3.2-4.8-5.9m3.3 11.6c-1.6-1.4-4.6-4.3-7.2-8.2m6 13.5c-2.1-1.1-5.5-3.3-7.9-7m7.1 12.2c-2.7-.9-6.4-2.5-8.8-5m9.9 9.9c-3.1-.3-7.3-.9-9.6-2.9m11.3 9.2c-2.1-.2-4.7-.7-6.8-1.8m14.8 10.1c-1 .6-6.8 3-7.9 5.8m1.2-6.9c-1.6.9-4.2 2.5-5 4.6m7.6-6.4c-3.1-.1-8.4-.5-11.3-1.8m30.8 7.9c-3.6 1.3-5.2 4.6-5.2 4.6M83 79.5s1.3 4.6 2.5 4.6m-3.8-.6s.6 2.6 1.8 2.6m-2.9 1s1 2.5 2.3 2.5M80 91.1s1 2.2 2.3 2.2M80 95s1.9 2.8 3.1 2.8m-2.6.9s1.9 1.8 3.1 1.8m-2.7 1.4s2 1.8 3.2 1.8m-2.5 2s2.6 1.2 3.8 1.2m-2.6 2.1s3.1.1 4.3.1m-1.5 2.6s2.5-.3 3.7-.3m-2.3 3s2.3-.9 3.8-.4m-1.6 1.6s2.2-.5 3.7 0m-1.8 1.9s2-.4 3.6-1m-1.4 2.2s.9.2 2.5-.5m.4 1.9s.6-.3 2.2-.9M84.9 85.9s1 2.7 2.3 2.7m-2.9.7s1 2.7 2.3 2.7m-3.4.2s1.3 1.8 2.5 1.8m-2.1 1.8s1.3 1.8 2.5 1.8m-1.5 1.9s1.4.3 2.7.3m-1.9 2.4s.3.1 1.5.1m0-18.8S86.7 85 88 85m.3 22.8s1.5-.2 1.3-1.4m-3.5-.7s2.7-.8 2.4-2m3.1 7.2s.5-3.1.2-4.3m3.5 6.7s-.5-4.1-1.4-4.6m5.4 5.6c-1-3.5-2.3-5-3.3-5.4m7.2 5.2c-1-3.5-3.7-4.8-4.6-5.1m9.3 5.3c-1-3.5-3.7-4.8-4.6-5.1m-3.5-34.1c-.9 0-1.2.6-1.2.6m-1.9 4.9c-.4 1.1.9 2.7.7 2.3m-.6-11.4c-.9 0-1 1.8-1 1.8m6 13.8l1.3 1.7m-.6 3.3l1.4 1.6m4.4 3.8l1.7 1.8"/><path d="M104.5 69.7c-.4 1.7-1.7 2.1-1.7 2.1s.3 1.6 1.3 1.7c2.4.4 3.1-2.5.4-3.8m12.4 34.1c.5 1.3 1.2 3.1 2.4 2.3.9-.6-1.1-1.8-2.4-2.3zm-3.4 1.1c-.1 1.4-.1 3.3 1.3 3.1 1.1-.2-.3-2.1-1.3-3.1zm2.3 8.2c-.1 1.4-.1 3.3 1.3 3.1 1.1-.3-.3-2.1-1.3-3.1zm4.8-1.6c1.8 1.6 1.6 1.8.7 3.8-.3 0 0-2.3 0-2.3s-1.1-1.3-.7-1.5zm-11.7 10.7c-.6 0-1.1 2.2.3 2.5.8.1 1-2.5-.3-2.5zm4.2 4.6c-.6 1.3-1.3 3.1.2 3.3.9.2.4-1.8-.2-3.3zm-2.8 5.5c-1.7.5-2.1 3-1 3.6.7.4 2.2-2.7 1-3.6zm-4.1 6.2c.4 2.2.1 2.4-.9 3-.3-.2.5-1.4.5-1.4s0-1.7.4-1.6zm-6.2 1.2c.4 1.8.7 3.3-.4 2.8-.2-.1 0-2.8.4-2.8zm5.3-8.3c.2 1.2.2 2.5-.8 2.1-.4-.3.1-2.2.8-2.1zm-2.5-7.3c-.9.6-.9 1.2-.9 1.8 0 1.3.9 1.2 2 .7.5-.7-1-.7-1.1-2.5zm10.1-9c-1.5 1-1 2.5-.2 3.1.6.5 1.8-2.7.2-3.1zm6.9 5c-.6 0-1.1 2.2.3 2.5.8.1.9-2.5-.3-2.5zm-2.9 3.6c-.9 3-2 2.9.2 3.3 1.1.2-.1-2.1-.2-3.3zm-16.5 22.7c-.5 0-1.1 2.2.3 2.5.8.1 1-2.5-.3-2.5z"/><path fill="#FFF" d="M105.7 71.7c.1.2-.3.5-.7.7-.5.2-.9.1-.9-.1-.1-.2.3-.5.7-.7.4-.2.8-.1.9.1"/><path fill="#EACE24" stroke="#806600" stroke-width=".4" d="M257.1 150s3.6 12 1 16c-.8 1.2-10.9 4.2-16.7 4.6 0 0 4.2 3 5 6.4 0 0 3.9-1.5 6.4 2.2 1.9-2.1 2.7-4.4 9.3-10.9 0 0-.1-.5-.3-15.5l-4.7-2.8zm-2.8-11.1l-8.2-.8c-11.5 19.6-14.4-10-13.7-14.9 0 0-.4-2.4-1.6-2.3 0 0-.5 17.1-.3 21.4 2.8-.7 6.5 4.4 8.1 6.1.6.1 1.2.2 2-.1 8.3-5.8 16.4-2.5 16.4-2.5l-2.7-6.9zm-2.1-67.3s-19.4 18.2-20.5 24.2c0 0 1 2.4 2.1 1.8l-.4-1.7c.5-1.2 8.7-6.6 14.2-8.8 6.9-6.1 7-7.4 14-10"/><path fill="none" stroke="#806600" stroke-width=".4" d="M246.2 176l7.7-4.6-6.5 5"/><path fill="#FFF" stroke="#000" stroke-width=".4" d="M262.4 63.1c-3.6-3.8-11.2-10.5-11.9-6.5 0 .5 6 4 7.9 9.3m7.9-3.1c-1.8-3.5-4.8-7.9-7.2-6.7-.3.2 3.8 5 4 11m8 4.4c0-4-1.8-12.5-4.9-12.5-.4 0 .5 7.4.1 11.4m8.7 6c.5-3.3 1.1-10.6-2.6-11.3-.6 1.1-1.3 10.9-5 15.7m.7 40.3c1.2.6 2.5 3.9 3.6 6.8m3.4 3.3c1.3-3.2-.3-8.2-2.1-12m-4.7 5.3c0-1.3-.1-3.2-.6-5.6M285 76.4c1.1-3.6 3.6-13 .8-12.8-.8.1-1.7 7.5-8.5 14.3m3.7 9.7c2.5-2.4 7.5-7.2 7.9-9.1 0 0 4.3-9.1.9-10.5-.9-.3-2.1 8.5-11.4 14.6m2 11.6c7.9-5.8 17.4-13.3 14.5-21.1-1.4-.5-1.7 7.6-14.4 14.8m3.2 10.6c3-1.6 6.9-4 9.8-6.6 0 0 7-9 3.7-10.2-1.4-.5-6.5 9.2-16.9 13.3m-.5 9.8c3.9-1.1 11.5-3.5 12.4-5 0 0 10.5-8.3 7.2-10.8-1.7-.4-2.4 4.8-18.5 10.4m-3.2 11c3.1-.4 8.7-1.5 13.3-4.1 0 0 10.6-6.5 8.4-9.5-1.3-.3-3.8 4.5-19.7 8.1m-9 12.4l2.3 1.9c5.5 1.4 9.1 11.2 10.5 11.2 2.2-.5.4-6.9-3.4-11.6m-7.1-3.2c2.1 1.1 5.3 2.7 6 2.8 2.3.4 8.7 7 10.3 6.5.9-.3-.9-5.7-6.7-10.7m-9.1.5l9.5-.6c3.3.3 18-6.4 14.6-10.4-.2-.7-12.1 6.5-20.1 6.8m-9-24.9l-1.6-3.2m-6 10.6c.5 4.2.2 11 0 14.1m-6.6-.3c-.2-2.4-.1-5.2.9-7.4 0 0 14.7-13.5 12.5-24.8 0 0-.8-8.7-9.2-8.7 0 0-9.1-2.1-8 6.9h2.3s-.4 4.2 3.8 4.8c5.2-3.7 2.4 4.7 2.4 4.7-10.1 12.9-26.5 18.7-25.9 34-.5 14.8 25.3 25.6 25 38.8.3 1.3.3-1.2.7-1.4.1-.1.2 1.9.6 1.9.5 0 .4-2.8.6-2.8.5.1.5 2.1.7 2.1.5 0 .8-2 1.1-2.2l.8 2.5s1.1-7.8 3.8-11.2c0 0 9.5 8 11.1 8.9.8-.3.1-2 .1-2s3.7 2.9 5.3 2.9c.9-.6-.2-2.2-.2-2.2s4.7 3.5 6.4 2.3c.3-.7-5.1-3.9-5.1-3.9s5.5 3.7 6.3 1.1c-2.8-1.8-8.5-7.8-8.5-7.8s3.9.6 1.9-1.6c-3.5-6-10.1-12.4-19.7-21.4m.7 18.6c.8.5 4.7 6 5.7 6.3.5.2 1.9-.8 2.1-1.2 1 1 2.5 1.2 2.8.2.8.8 3 .7 3-.9.8 1.2 4.2 1.1 3.6.1m-17.9-9c.8.5 2 3.5 3 3.4.9-.1 1-1.2 1.1-1.6 1 1 3.3 2.3 2.8.2 1.9.9 3.3 1.6 2.4-.9 2.9 1.4 4.4-1.1 3.8-2.1M259.2 121s5 .6 5-.9c0 0 3.4.2 2.9-1.3 1.7.7 2.2-1.2 2.2-1.2.9.2 3.3-.5 1.9-2 1.2.2 3 .3 2.3-1.1 1.2-.6 2.5-.9 1.4-2.7 1.4-.6 4.3-1.2 2.7-2.7 1-1 3-2.3 1.2-3.3.7-.1 2.7-2.3.8-3.8 1.6-.7 2.6-2.3.4-3.2 0 0 4.5-4.3.6-3.8-.9.2 2.5-5.3-.1-3.8.3-1.6.8-3.8-.6-4 .4-1.8.5-4.2-1.1-3.7-.5-1 .6-4.7-1.1-3.8-.6.3.4-4.4-.5-5.2 0 0-8.4 7.6-8.9 12.7-1.7 3.3 8 12.8-4.4 20.3-5.4-.9-10.3-.6-10.3-.6-2.2.2-2.2 4.6-2.2 4.6"/><path fill="none" stroke="#000" stroke-width=".4" stroke-linecap="round" d="M273.2 88.6c1.2 0 2.3-2.7 2.3-2.7m-15.4-17.1s.3 1.5-1.1 1.5c-1.3 0-3.5-2.7-6.3 2.5m-20.1 23.1l.5-1.5 20.4-18.7m-9.6 11.4s4-1.4 6.2-5.2m20.8 54.4l-3.1-3.5m-1.3 1.6l1.6 1.8m4.5-5.8c1 .3.7-.6.2-1.5m1.8 6.9c2.9 2.3 7.2 7.6 7.2 7.6m-10.9-7.1c4 3 7.3 7 7.3 7m-10.1-7.2c4.5 4.4 7.2 8.1 7.2 8.1m-8.5-6.2c3.6 2.6 5.7 6.1 5.7 6.1m-4.5-13.5l5.3 4.9m4.5 8.8c2.9 2.3 6.1 5.8 6.1 5.8m-9.1-5.3c2.9 2.3 7.8 7.1 7.8 7.1m-11.4-6.8c2.9 2.3 6.4 6 6.4 6m.4-1.5s-2.4-2.1-5.4-5.1l-.3-.3m10.7 6.1s-3.1-2.5-6-5.5l-.1-.1m6.8 2.6s-.8-.3-3.5-3.1m-4.1-8.6l-2.5-3.8m-11-.8s6.1 4.2 1.9-1.1m5-.4c2.4 2.9 1 3 .5 3m-4.1-4.3l-.8-1.3m10.4 11.7s-1.3-1-2-1.7m-.3 2.9s-1.2-1.3-2.6-2.4m-2.5 3.5l-2.3-2.2m3.9.7s-.7-.8-2.2-1.9m3.6-44.9s-.3-2.1-1.7-3.5c.9-2.5 1.1-4.3 1.1-4.3m-5.8 11.5s2.1-2.2 1.3-4.3m-1.1 6.9s3.5-3.6 2.7-5.7m-2.4 7.6s3.8-1.8 3.1-3.9m-4.7 6.6s2.8.4 3-1.2m-6.3-36.2c-.8-2.1-2.2-5.1-3.7-6.3m8.5 8.9c.2-1.6.2-3.5-.5-5.2m3 10.7c.7-1.6 1.4-3.6 1.2-5.5m-.9 15.7c1.7-2.4 6.4-9.2 5-11.9m-.7 50.2c-.8-1.9-2.3-3.6-3.2-4.6m14.2-44c-1.4 2.7-3.7 4.9-4.8 5.9m8.7-2.6c-2.6 3.9-5.5 6.8-7.2 8.2m9.1-1.7c-2.4 3.7-5.8 5.9-7.9 7m9.6.2c-2.5 2.5-6.2 4.1-8.8 5m8.5 2.1c-2.4 1.9-6.6 2.6-9.6 2.9m5.1 4.4c-2.1 1.1-4.7 1.6-6.8 1.8m-.1 14.1c-1.1-2.8-6.9-5.2-7.9-5.8m11.7 3.4c-.8-2-3.3-3.6-5-4.6m8.7-3.5c-2.9 1.3-8.2 1.7-11.3 1.8m-14.3 10.7s-1.7-3.3-5.2-4.6m19.1-34.7c1.2 0 2.5-4.6 2.5-4.6m-.5 6.6c1.2 0 1.8-2.6 1.8-2.6m-1.1 6.1c1.2 0 2.3-2.5 2.3-2.5m-1.8 6.2c1.2 0 2.3-2.2 2.3-2.2m-3.1 6.7c1.2 0 3.1-2.8 3.1-2.8m-3.6 5.5c1.2 0 3.1-1.8 3.1-1.8m-3.5 5c1.2 0 3.2-1.8 3.2-1.8m-4.6 5c1.2 0 3.8-1.2 3.8-1.2m-5.5 3.4c1.2 0 4.3-.1 4.3-.1m-6.5 2.4c1.2 0 3.7.3 3.7.3m-5.1 2.3c1.5-.5 3.8.4 3.8.4m-6 1.2c1.5-.5 3.7 0 3.7 0m-5.5.9c1.6.7 3.6 1 3.6 1m-4.6.8c1.6.7 2.5.5 2.5.5m-5.2.3c1.6.7 2.2.9 2.2.9m9.1-31.4c1.2 0 2.3-2.7 2.3-2.7m-1.7 6.1c1.2 0 2.3-2.7 2.3-2.7m-1.5 4.7c1.2 0 2.5-1.8 2.5-1.8m-2.9 5.3c1.2 0 2.5-1.8 2.5-1.8m-3.6 4.2c1.2 0 2.7-.3 2.7-.3m-2.4 2.7c1.2 0 1.5-.1 1.5-.1M272.4 85c1.2 0 1.1-1.5 1.1-1.5m-2.8 22.9c-.3 1.2 1.3 1.4 1.3 1.4m-.1-4.1c-.3 1.2 2.4 2 2.4 2m-5.8.9c-.3 1.2.2 4.3.2 4.3m-2.3-2.2c-.9.5-1.4 4.6-1.4 4.6m-.8-4.3c-.9.3-2.3 1.9-3.3 5.4m.8-5.4c-.9.3-3.6 1.6-4.6 5.1m-.1-4.9c-.9.3-3.6 1.6-4.6 5.1m9.3-38.6s-.3-.6-1.2-.6m2.4 7.9c-.2.3 1.1-1.2.7-2.3m.9-7.4s-.1-1.8-1-1.8m-6.3 17.3l1.3-1.7m-2.1 6.6l1.4-1.6m-7.5 7.2l1.7-1.8"/><path d="M255.8 69.7c-2.7 1.3-2 4.2.3 3.8 1.1-.1 1.3-1.7 1.3-1.7s-1.2-.4-1.6-2.1M241 106.1c1.2.8 1.9-1 2.4-2.3-1.3.5-3.2 1.7-2.4 2.3zm4.5 1.9c1.4.3 1.4-1.6 1.3-3.1-1 1-2.3 2.9-1.3 3.1zm-2.3 8.1c1.4.3 1.4-1.6 1.3-3.1-1 1.1-2.3 2.9-1.3 3.1zm-4.2-3s.3 2.3 0 2.3c-.9-2-1.1-2.2.7-3.8.4.1-.7 1.5-.7 1.5zm12.1 11.6c1.4-.3.8-2.5.3-2.5-1.3 0-1.1 2.6-.3 2.5zm-4 5.5c1.4-.2.7-2 .2-3.3-.7 1.4-1.2 3.4-.2 3.3zm3.9 5.7c1-.5.6-3-1-3.6-1.2.9.3 4 1 3.6zm3.6 4.2s.8 1.2.5 1.4c-1-.6-1.4-.8-.9-3 .4-.1.4 1.6.4 1.6zm6.1 2.4c-1.1.5-.9-1.1-.4-2.8.4 0 .7 2.7.4 2.8zm-4.9-9c-1 .4-.9-.8-.8-2.1.7-.1 1.2 1.8.8 2.1zm.6-6.9c1.1.5 2 .5 2-.7 0-.6 0-1.1-.9-1.8-.1 1.8-1.6 1.8-1.1 2.5zm-8.7-8.5c.7-.6 1.2-2.1-.2-3.1-1.6.5-.5 3.7.2 3.1zm-7.5 4.4c1.4-.3.8-2.5.3-2.5-1.2.1-1.1 2.7-.3 2.5zm3.1 4.5c2.2-.4 1.1-.3.2-3.3-.1 1.2-1.4 3.5-.2 3.3zm16.3 21.9c1.4-.3.8-2.5.3-2.5-1.3 0-1.1 2.6-.3 2.5z"/><path fill="#FFF" d="M254.6 71.7c.1-.2.5-.3.9-.1.5.2.8.5.7.7-.1.2-.5.3-.9.1-.4-.2-.8-.5-.7-.7"/><path fill="#1353B4" stroke="#540" stroke-width=".8" d="M129.2 58.9c-.3 17.3-.3 34.6 0 51.9.2 16.7 1.1 29.7 8.4 39.9 8.8 12.3 23.6 21.1 42.5 29.8 19-8.7 33.7-17.5 42.5-29.8 7.3-10.2 8.2-23.2 8.4-39.9.3-17.3.3-34.6 0-51.9H129.2z"/><path fill="#CE0F25" stroke="#540" stroke-width=".8" d="M229.7 132.5c0-3.8 1.8-11.1 1.4-36.7H129.2c-.4 26.9 1.4 32.4 1.4 36.7h99.1z"/><g fill="#EACE24" stroke="#806600" stroke-width=".4"><path d="M144.2 82.4c.2-1.6 0-5.1-1.6-5-1.7.1-1.5 1.8-.7 3.3-3.9-.8-4.9-3.5-4.2-5.6.9-2.8 4.3-3.1 5.5-2.4 3 1.7 4.1 11.1 1.5 13.4-.7.6-2.9.9-2.9.9 1-1.2 2.3-3.1 2.4-4.6zm5.4 0c-.2-1.6 0-5.1 1.6-5 1.2.1 1.9 1 .7 3.3 3.9-.8 4.9-3.5 4.2-5.6-.9-2.9-4.3-3.1-5.5-2.4-3 1.7-4.1 11.1-1.5 13.4.7.6 2.9.9 2.9.9-1-1.2-2.2-3.1-2.4-4.6z"/><path d="M146.9 90.9c3.8-3.2 1.2-5.9 1.1-7.2-.4-2.9.4-6.7.5-7 .8-3.8 2.8-3.8 2.9-6.8 0-2.7-1.5-3.2-3.2-4.3-.8-.5-1.2-2.1-1.2-2.1s-.5 1.6-1.2 2.1c-1.7 1.1-3.2 1.7-3.1 4.3 0 3 2 3 2.9 6.8.1.3.8 4.1.5 7-.4 1.3-3 3.9.8 7.2z"/><path d="M150.9 81.7l-.8-1.2h-6.2l-.9 1.2.9 1.2h6.2l.8-1.2zM177.6 82.4c.2-1.6 0-5.1-1.6-5-1.7.1-1.5 1.8-.7 3.3-3.9-.8-4.9-3.5-4.2-5.6.9-2.8 4.3-3.1 5.5-2.4 3 1.7 4.1 11.1 1.5 13.4-.7.6-2.9.9-2.9.9.9-1.2 2.2-3.1 2.4-4.6zm5.3 0c-.2-1.6 0-5.1 1.6-5 1.2.1 1.9 1 .7 3.3 3.9-.8 4.9-3.5 4.2-5.6-.9-2.9-4.3-3.1-5.5-2.4-3 1.7-4.1 11.1-1.5 13.4.7.6 2.9.9 2.9.9-.9-1.2-2.2-3.1-2.4-4.6z"/><path d="M180.2 90.9c3.8-3.2 1.2-5.9 1.1-7.2-.4-2.9.4-6.7.5-7 .8-3.8 2.8-3.8 2.9-6.8 0-2.7-1.5-3.2-3.2-4.3-.8-.5-1.2-2.1-1.2-2.1s-.5 1.6-1.2 2.1c-1.7 1.1-3.2 1.7-3.1 4.3 0 3 2 3 2.9 6.8.1.3.8 4.1.5 7-.4 1.3-3 3.9.8 7.2z"/><path d="M184.2 81.7l-.8-1.2h-6.2l-.9 1.2.9 1.2h6.2l.8-1.2zM211 82.4c.2-1.6 0-5.1-1.6-5-1.7.1-1.5 1.8-.7 3.3-3.9-.8-4.9-3.5-4.2-5.6.9-2.8 4.3-3.1 5.5-2.4 3 1.7 4.1 11.1 1.5 13.4-.7.6-2.9.9-2.9.9 1-1.2 2.2-3.1 2.4-4.6zm5.3 0c-.2-1.6 0-5.1 1.6-5 1.2.1 1.9 1 .7 3.3 3.9-.8 4.9-3.5 4.2-5.6-.9-2.9-4.3-3.1-5.5-2.4-3 1.7-4.1 11.1-1.5 13.4.7.6 2.9.9 2.9.9-.9-1.2-2.2-3.1-2.4-4.6z"/><path d="M213.7 90.9c3.8-3.2 1.2-5.9 1.1-7.2-.4-2.9.4-6.7.5-7 .8-3.8 2.8-3.8 2.9-6.8 0-2.7-1.5-3.2-3.2-4.3-.8-.5-1.2-2.1-1.2-2.1s-.5 1.6-1.2 2.1c-1.7 1.1-3.2 1.7-3.1 4.3 0 3 2 3 2.9 6.8.1.3.8 4.1.5 7-.4 1.3-3.1 3.9.8 7.2z"/><path d="M217.6 81.7l-.8-1.2h-6.2l-.9 1.2.9 1.2h6.2l.8-1.2z"/></g><path fill="#FFF" stroke="#000" stroke-width=".309" d="M167.5 119.4l12.4-5-5 12.4 5.5-3.7 5.5 3.7-5-12.4 12.4 5-3.7-5.5 3.7-5.5-12.4 5 5-12.4-5.5 3.7-5.5-3.7 5 12.4-12.4-5 3.7 5.5-3.7 5.5z"/><path fill="#EACE24" stroke="#806600" stroke-width=".4" d="M152.2 147.6h18.7v4.4h-18.7zm0-.9c0-4.1-.6-8.3-2.4-12 1.9-.6 3.7 1.3 2.9 3.2 1.6-.7 3.4.4 3.4 2.2 0 1.5-1.4 2.7-2.9 2.3.2 1.6 1 2.8 2 2.8.8 0 1.4-.7 1.8-1.8.3 1.1 1 1.8 1.8 1.8 1.1 0 1.9-1.4 2-3.2-1.6 1.1-3.7 0-3.7-2 0-1.3 1.1-2.4 2.4-2.4-.9-1.6.2-3.6 2.1-3.6 1.8 0 3 2 2.1 3.6 1.3 0 2.4 1.1 2.4 2.4 0 1.9-2.2 3.1-3.7 2 .1 1.8 1 3.2 2 3.2.8 0 1.4-.7 1.8-1.8.3 1.1 1 1.8 1.8 1.8 1 0 1.8-1.2 2-2.8-1.5.3-2.9-.8-2.9-2.3 0-1.8 1.8-2.9 3.4-2.2-.8-1.9 1-3.8 2.9-3.2-1.8 3.6-2.3 7.8-2.4 12h-18.8z"/><path fill="#806600" d="M162.1 140.1l2.5-.4-2.7-.4-.4-2.7-.4 2.7-2.7.4 2.5.4h1.2zm-10 8.2c.1 0 .2 0 .3.1.1.1.5 1 .5 1.1v.3l-.4 1c-.1.1-.2.2-.3.2v-2.7zm0-7.5l2.6-.9-2.8.1"/><path fill="#FFF" stroke="#9E7800" stroke-width=".2" d="M161.5 138.9c.4 0 .8.4.8.8s-.4.8-.8.8-.8-.4-.8-.8.4-.8.8-.8z"/><path fill="none" stroke="#9E7800" stroke-width=".4" stroke-linejoin="round" d="M159.7 149.8l1.7-1 1.7 1-1.7 1-1.7-1z"/><path fill="#FF8080" d="M159.7 149.8l1.7-1 1.7 1-1.7 1-1.7-1z"/><path fill="#BA0028" d="M163.1 149.8s-1.6 1-1.7 1v-1h1.7z"/><path fill="#CF1E45" d="M161.4 149.8v1l-1.7-1h1.7z"/><path fill="#FF083C" d="M161.4 148.8v1h1.7c-.1-.1-1.6-1-1.7-1z"/><path fill="#F9C" d="M151.2 149.7l1-1 .5 1-.5 1-1-1z"/><path fill="#F00" d="M151.2 149.7h1.4l-.5 1-.9-1z"/><path fill="#FFF" stroke="#9E7800" stroke-width=".2" d="M151.7 139.8c.5.3.6.9.3 1.4-.5.3-1.2-.1-1.2-.7 0-.4.4-.8.9-.7z"/><path fill="#806600" d="M170.9 140.8l-2.6-.9h2.8"/><path fill="#FFF" stroke="#9E7800" stroke-width=".2" d="M171.4 139.8c-.5.3-.6.9-.3 1.4.5.3 1.2-.1 1.2-.7-.1-.4-.5-.8-.9-.7z"/><path fill="#806600" d="M171 148.3c-.1 0-.2 0-.3.1-.1.1-.5 1-.5 1.1v.3l.4 1c.1.1.2.2.3.2v-2.7z"/><path fill="#FF083C" d="M171.9 149.7l-1-1-.5 1 .5 1 1-1z"/><path fill="#BA0028" d="M171.9 149.7h-1.4l.5 1 .9-1z"/><path fill="#FFF" stroke="#9E7800" stroke-width=".2" d="M157.1 148.4c.3 0 .5.2.5.5s-.2.5-.5.5-.5-.2-.5-.5.2-.5.5-.5zm0 1.8c.3 0 .5.2.5.5s-.2.5-.5.5-.5-.2-.5-.5.2-.5.5-.5zm8.8 0c.3 0 .5.2.5.5s-.2.5-.5.5-.5-.2-.5-.5.2-.5.5-.5zm0-1.8c.3 0 .5.2.5.5s-.2.5-.5.5-.5-.2-.5-.5.2-.5.5-.5z"/><path fill="#EACE24" stroke="#806600" stroke-width=".4" d="M188.1 147.6h18.7v4.4h-18.7zm0-.9c0-4.1-.6-8.3-2.4-12 1.9-.6 3.7 1.3 2.9 3.2 1.6-.7 3.4.4 3.4 2.2 0 1.5-1.4 2.7-2.9 2.3.2 1.6 1 2.8 2 2.8.8 0 1.4-.7 1.8-1.8.3 1.1 1 1.8 1.8 1.8 1.1 0 1.9-1.4 2-3.2-1.6 1.1-3.7 0-3.7-2 0-1.3 1.1-2.4 2.4-2.4-.9-1.6.2-3.6 2.1-3.6 1.8 0 3 2 2.1 3.6 1.3 0 2.4 1.1 2.4 2.4 0 1.9-2.2 3.1-3.7 2 .1 1.8 1 3.2 2 3.2.8 0 1.4-.7 1.8-1.8.3 1.1 1 1.8 1.8 1.8 1 0 1.8-1.2 2-2.8-1.5.3-2.9-.8-2.9-2.3 0-1.8 1.8-2.9 3.4-2.2-.8-1.9 1-3.8 2.9-3.2-1.8 3.6-2.3 7.8-2.4 12h-18.8z"/><path fill="#806600" d="M198 140.1l2.5-.4-2.7-.4-.4-2.7-.4 2.7-2.7.4 2.5.4h1.2zm-10 8.2c.1 0 .2 0 .3.1.1.1.5 1 .5 1.1v.3l-.4 1c-.1.1-.2.2-.3.2v-2.7zm0-7.5l2.6-.9-2.8.1"/><path fill="#FFF" stroke="#9E7800" stroke-width=".2" d="M197.4 138.9c.4 0 .8.4.8.8s-.4.8-.8.8-.8-.4-.8-.8c.1-.4.4-.8.8-.8z"/><path fill="none" stroke="#9E7800" stroke-width=".4" stroke-linejoin="round" d="M195.7 149.8l1.7-1 1.7 1-1.7 1-1.7-1z"/><path fill="#FF8080" d="M195.7 149.8l1.7-1 1.7 1-1.7 1-1.7-1z"/><path fill="#BA0028" d="M199 149.8s-1.6 1-1.7 1v-1h1.7z"/><path fill="#CF1E45" d="M197.3 149.8v1l-1.7-1h1.7z"/><path fill="#FF083C" d="M197.3 148.8v1h1.7c-.1-.1-1.6-1-1.7-1z"/><path fill="#F9C" d="M187.1 149.7l1-1 .5 1-.5 1-1-1z"/><path fill="#F00" d="M187.1 149.7h1.4l-.5 1-.9-1z"/><path fill="#FFF" stroke="#9E7800" stroke-width=".2" d="M187.6 139.8c.5.3.6.9.3 1.4-.5.3-1.2-.1-1.2-.7 0-.4.4-.8.9-.7z"/><path fill="#806600" d="M206.8 140.8l-2.6-.9h2.8"/><path fill="#FFF" stroke="#9E7800" stroke-width=".2" d="M207.3 139.8c-.5.3-.6.9-.3 1.4.5.3 1.2-.1 1.2-.7-.1-.4-.5-.8-.9-.7z"/><path fill="#806600" d="M206.9 148.3c-.1 0-.2 0-.3.1-.1.1-.5 1-.5 1.1v.3l.4 1c.1.1.2.2.3.2v-2.7z"/><path fill="#FF083C" d="M207.8 149.7l-1-1-.5 1 .5 1 1-1z"/><path fill="#BA0028" d="M207.8 149.7h-1.4l.5 1 .9-1z"/><path fill="#FFF" stroke="#9E7800" stroke-width=".2" d="M193 148.4c.3 0 .5.2.5.5s-.2.5-.5.5-.5-.2-.5-.5.2-.5.5-.5zm0 1.8c.3 0 .5.2.5.5s-.2.5-.5.5-.5-.2-.5-.5.2-.5.5-.5zm8.8 0c.3 0 .5.2.5.5s-.2.5-.5.5-.5-.2-.5-.5.2-.5.5-.5zm0-1.8c.3 0 .5.2.5.5s-.2.5-.5.5-.5-.2-.5-.5.2-.5.5-.5z"/><path fill="#EACE24" stroke="#806600" stroke-width=".4" d="M171 168.7h18.7v4.4H171zm0-.9c0-4.1-.6-8.3-2.4-12 1.9-.6 3.7 1.3 2.9 3.2 1.6-.7 3.4.4 3.4 2.2 0 1.5-1.4 2.7-2.9 2.3.2 1.6 1 2.8 2 2.8.8 0 1.4-.7 1.8-1.8.3 1.1 1 1.8 1.8 1.8 1.1 0 1.9-1.4 2-3.2-1.6 1.1-3.7 0-3.7-2 0-1.3 1.1-2.4 2.4-2.4-.9-1.6.2-3.6 2.1-3.6 1.8 0 3 2 2.1 3.6 1.3 0 2.4 1.1 2.4 2.4 0 1.9-2.2 3.1-3.7 2 .1 1.8 1 3.2 2 3.2.8 0 1.4-.7 1.8-1.8.3 1.1 1 1.8 1.8 1.8 1 0 1.8-1.2 2-2.8-1.5.3-2.9-.8-2.9-2.3 0-1.8 1.8-2.9 3.4-2.2-.8-1.9 1-3.8 2.9-3.2-1.8 3.6-2.3 7.8-2.4 12H171z"/><path fill="#806600" d="M180.9 161.2l2.5-.4-2.7-.4-.4-2.7-.4 2.7-2.7.4 2.5.4h1.2zm-10 8.2c.1 0 .2 0 .3.1.1.1.5 1 .5 1.1v.3l-.4 1c-.1.1-.2.2-.3.2v-2.7zm0-7.5l2.6-.9-2.8.1"/><path fill="#FFF" stroke="#9E7800" stroke-width=".2" d="M180.3 160c.4 0 .8.4.8.8s-.4.8-.8.8-.8-.4-.8-.8.4-.8.8-.8z"/><path fill="none" stroke="#9E7800" stroke-width=".4" stroke-linejoin="round" d="M178.5 170.9l1.7-1 1.7 1-1.7 1-1.7-1z"/><path fill="#FF8080" d="M178.5 170.9l1.7-1 1.7 1-1.7 1-1.7-1z"/><path fill="#BA0028" d="M181.9 170.9s-1.6 1-1.7 1v-1h1.7z"/><path fill="#CF1E45" d="M180.2 170.9v1l-1.7-1h1.7z"/><path fill="#FF083C" d="M180.2 169.9v1h1.7c-.1-.1-1.6-1-1.7-1z"/><path fill="#F9C" d="M170 170.8l1-1 .5 1-.5 1-1-1z"/><path fill="#F00" d="M170 170.8h1.4l-.5 1-.9-1z"/><path fill="#FFF" stroke="#9E7800" stroke-width=".2" d="M170.5 160.9c.5.3.6.9.3 1.4-.5.3-1.2-.1-1.2-.7 0-.4.4-.8.9-.7z"/><path fill="#806600" d="M189.7 161.9l-2.6-.9h2.8"/><path fill="#FFF" stroke="#9E7800" stroke-width=".2" d="M190.2 160.9c-.5.3-.6.9-.3 1.4.5.3 1.2-.1 1.2-.7-.1-.4-.5-.8-.9-.7z"/><path fill="#806600" d="M189.7 169.4c-.1 0-.2 0-.3.1-.1.1-.5 1-.5 1.1v.3l.4 1c.1.1.2.2.3.2v-2.7z"/><path fill="#FF083C" d="M190.6 170.8l-1-1-.5 1 .5 1 1-1z"/><path fill="#BA0028" d="M190.6 170.8h-1.4l.5 1 .9-1z"/><path fill="#FFF" stroke="#9E7800" stroke-width=".2" d="M175.9 169.5c.3 0 .5.2.5.5s-.2.5-.5.5-.5-.2-.5-.5.2-.5.5-.5zm0 1.8c.3 0 .5.2.5.5s-.2.5-.5.5-.5-.2-.5-.5.2-.5.5-.5zm8.8 0c.3 0 .5.2.5.5s-.2.5-.5.5-.5-.2-.5-.5.2-.5.5-.5zm0-1.8c.3 0 .5.2.5.5s-.2.5-.5.5-.5-.2-.5-.5.2-.5.5-.5z"/><path fill="#666" d="M230.8 51.7H129.2v7.2h101.6v-7.2z"/><path fill="#EACE24" d="M129.2 58.9l-11.5-27-1.9.6-4.2-9.7 7.8-2.3 1.8 4.5 3.7-1.1-1.6-4.4 7.9-1.8 1.4 4.6 3.9-.7-1.3-4.7 7.9-1.4 1.1 4.7 5.2-.7.5 2.4 1.9-.2-.4-2.4 4-.5.4 2.4 2-.2-.3-2.4 4-.4.3 2.4 3.9-.3-.7-7.2 8-.4.3 4.7 3.8-.1-.1-4.8h8.1l-.1 4.8 3.9.1.3-4.8 8 .4-.7 7.3 3.9.3.3-2.4 4 .4-.3 2.4 2 .2.4-2.3 4 .4-.4 2.4 2 .3.5-2.4 5.2.8 1.1-4.8 7.9 1.4-1.2 4.8 3.7.7 1.4-4.7 7.9 1.8-1.6 4.6 3.8 1 1.8-4.6 7.8 2.2-4.2 9.7-3.3-1.1L231.5 59c-32.7-9.4-71.1-9.5-102.3-.1"/><path fill="none" stroke="#806600" stroke-width=".8" d="M129.2 58.9l-11.5-27-1.9.6-4.2-9.7 7.8-2.3 1.8 4.5 3.7-1.1-1.6-4.4 7.9-1.8 1.4 4.6 3.9-.7-1.3-4.7 7.9-1.4 1.1 4.7 5.2-.7.5 2.4 1.9-.2-.4-2.4 4-.5.4 2.4 2-.2-.3-2.4 4-.4.3 2.4 3.9-.3-.7-7.2 8-.4.3 4.7 3.8-.1-.1-4.8h8.1l-.1 4.8 3.9.1.3-4.8 8 .4-.7 7.3 3.9.3.3-2.4 4 .4-.3 2.4 2 .2.4-2.3 4 .4-.4 2.4 2 .3.5-2.4 5.2.8 1.1-4.8 7.9 1.4-1.2 4.8 3.7.7 1.4-4.7 7.9 1.8-1.6 4.6 3.8 1 1.8-4.6 7.8 2.2-4.2 9.7-3.3-1.1L231.5 59c-32.7-9.4-71.1-9.5-102.3-.1z"/><path fill="#5E520E" stroke="#520" stroke-width=".4" d="M177.6 36.5v-8.6c0-3.4 6.2-3.4 6.2 0v8.6m-51.2 5.8l-2.7-8.3c-1.1-3.3 4.9-4.6 6-1.3l2.7 8.3m83.8-.3l2.7-8.3c1.1-3.3 7-2 6 1.3l-2.7 8.3"/><path fill="none" stroke="#806600" stroke-width=".4" stroke-linecap="round" stroke-linejoin="round" d="M127.9 55.7c33.8-9.9 70.7-10.1 104.7-.4M126.7 53c34.6-10.2 72.3-10.3 107-.4m-108.1-2.4c35.4-10.4 73.9-10.5 109.4-.4m-110.5-2.1c36-10.6 75.2-10.7 111.4-.5m-22.2-8.1l3.1-14.3m-22.2 1.3c7.2.4 14.3 1.2 21.4 2.4m-70.4-.1c7-1.1 14.2-1.9 21.3-2.4m-22.2-1.2l3.3 14.3m20-2.2l-1.4-14.5m28.2 0l-.8 14.5m17.2 10.6l-.6 2.9m18.3.9l-1 2.7m-6.5-4.5l-.8 2.8m-80.4-2.7l.8 2.7m46.5-7l-.1 3m6-2.6l-.3 2.9m10.7-2l-.5 2.8m-68.5 1.4l1 2.7m30.5-7.7l.3 2.9m7-3.3l.2 2.8m-16.1-1.6l.5 2.9m39.5-3.6l-.4 3m-18.8-3.6l.1 2.9m-31.4 0l.7 2.8m-10.5-3.9l.9 2.8m6-4.2l.7 2.8m3.6-3.6l.7 2.9m5.6-3.8l.5 2.8m8.1-3.7l.4 2.9m6.4-3.4l.2 3m5.9-3.2l.1 2.9m8.4-3l-.1 2.9m6.3-2.6l-.2 2.9m5.5-2.6l-.3 2.9m9.3-1.9l-.5 2.8m5.8-2.2l-.6 2.9m6.8-1.8l-.8 2.8m7.8-1.4l-.8 2.7m8.7-.7l-1 2.7m-99.9-2.9l1 2.8m90.4-7.7l-.8 2.5m9.8-.5l-1 2.6m-2.4-3.4l-.9 2.5m-12.7-5.1l-.6 2.6m-4-3.5l-.6 2.7m-5.6-3.4l-.4 2.6m-4.9-3.1l-.3 2.7m-8-3.4l-.2 2.7m-6.4-2.8v2.8m-6.1-2.8l.1 2.6m-5.7-2.3l.2 2.7m-10.6-1.9l.4 2.7m-8.6-1.8l.5 2.6m-6.1-1.8l.6 2.6m-7.3-1.4l.7 2.5m-10.6-.3l1 2.7M145 20l1 4.7c-10.4 1.6-18.4 4.1-28.3 7.1m79.6-11.5l-.3 2.2c-10.6-.7-21.3-.7-31.9 0l-.3-2.3m51.2-.3l-1 4.6c10.6 1.6 17.7 3.6 27.8 6.7M123.3 44.7c36.8-10.8 77-10.9 113.9-.4"/></svg>
