<svg xmlns="http://www.w3.org/2000/svg" width="240" height="160" viewBox="0 0 960 640"><path fill="#F00" d="M0 0h960v640H0V0z"/><path fill="#00008B" d="M0 0h480v320H0V0z"/><path fill="#FFF" d="M280 97.6V0h-80v97.6L53.6 0H0v35.6l106.4 70.8H0v106.8h106.4L0 284.4V320h53.6L200 222.4V320h80v-97.6L426.4 320H480v-35.6l-106.4-71.2H480V106.8H373.6L480 35.6V0h-53.6L280 97.6z"/><path fill="#F00" d="M216 0h48v128h216v64H264v128h-48V192H0v-64h216V0zM0 0l160 106.8h-35.6L0 24V0zm480 0h-35.6l-160 106.8H320L480 0zm0 320L320 213.2h35.6L480 296v24zM0 320h35.6l160-106.8H160L0 320z"/><path fill="#FFF" stroke="#000" stroke-width=".6" stroke-linecap="round" d="M830.1 182v184.8c0 27.9-2.9 38.4-23.9 53.3-18.9 13.4-53.8 29.6-86.2 37.9-32.4-8.2-67.3-24.4-86.2-37.9-21-14.9-23.9-25.4-23.9-53.3V182h220.2z"/><g stroke="#000" stroke-width=".6" stroke-linecap="round"><path fill="#6DBF69" d="M644.5 372.9c-.8-3.1-2.2-5.4-4.2-6.1 1.5 2.2 1 4.6.8 7.2.1-.8-.4-3.1-1.2-4.5-.1 1.9-1.5 3.7-1.8 5.9-1.2-1.1-2.7-4.5-2.1-7.5-4.9 4-3.8 12.1 0 15.5-6.9-4.9-7.2-13.2-6.2-20.6-1.5 1.6-3.8 6.4-3.6 9.2-.2-3.5.1-7.3 1-11-2.4 1.2-4.2 4.5-4.4 7.7 0-2.6.1-4.9.1-6.2-3.5 3.7-5.7 12.6-5.5 16.2-2.2-3.5-2-12-.9-14.9-3.2 2.9-6.3 8-6.3 17.4 1.4 17.7 6.5 26.8 23.5 38.9 18.9 13.4 53.8 29.6 86.2 37.9 32.4-8.2 67.3-24.4 86.2-37.9 14.2-10.1 20.1-18.1 22.5-30.9.4-3.5-.8-9.5-1.5-12.3-.7 3.4-2.7 6.5-4.9 9 1.5-2.6 2-8.2.4-10.8-.4 2.5-2.2 5.7-4.6 8.8.1-2.1.1-7.3-1.4-10.6-.5 6.8-4.7 12.2-8.7 14.6 2.7-2.4 5-7.5 5.7-10.8-1 1.5-2.7 3.4-4.6 5.2.2-1.9 1.3-5 2.5-6.7-2.8.2-4.1 1.6-5.5 3.4.7-2.1 2.5-4.2 3.8-5.7-5.7.6-7.3 9.3-15.2 11.1 4.1-3.1 5.9-8.7 9.7-11.8-2.3.1-4.7 1.9-7.5 4.2.2-1.6 1.6-3.9 3.1-5.5-2.8 0-5.4 2.4-8.4 5.2 1.5-1.6 2.7-6.3 3.3-9.1-.6 1-2.6 2.1-4.2 3-3.4-.6-7.5 1-13.9 4-6.5 3-113.3-8.6-117-6.9-3.6 1.7-4.9 3.5-5.8 5.2-.1-.7-.3-1.7-.8-2.6.6 1.5-3.9 3-2.1 8.1-3.5-3.4-1.5-7.7 1.5-10.7-3.6.3-6.5 2.5-8 5.4z"/><g fill="none"><path d="M775.4 385c7.2-.6 12-5 16-8.6M783 386c5.4-1.9 9.9-6.1 13.8-9.3M791.6 386c1.1-.4 2.1-1 3-1.6M796.5 387.6c5.7-2.7 7.6-6.1 9.5-8.6M800.3 388.5c2.4-1 5.8-3.5 8.7-6.2M805.8 389c.7-.2 1.4-.6 2.1-1M807.7 393.1c3.5-1.6 7.4-5.2 10.4-9.1M817.2 390.6c1.5-1.1 3.4-2.7 5.1-4.7M626.6 386.4c-3.2-3.5-3.8-11.5-3.8-17.6M636.1 383.5c2.1 1.5 4.8 2.6 8.2 3.3M626.2 372.1c.4 7.1 2.9 13.3 7.3 16.4M641.7 382.9c-3.3-3-3.9-5.4-3.6-7.4M642.5 382.1c-1.8-3-1.7-5.6-1.5-8.1M644.5 372.9c-1.9 3.8-1.2 8.6 4.4 11.5M653.8 372.6c.2 1-1.1 2.5.1 4.5M650.9 378.2c1.1 1.1 2.6 2.4 3.8 2.8"/></g></g><g fill="#F00" stroke="#000" stroke-width=".6"><path d="M757.1 263.7c1.1-13.6-8-14.1-8.5-23.8 3.3-4.7 2.8-10.4-2-15 0-2.7-1.2-3.8-4.6-6.8-4-3.5.1-9.3-3.5-12.3 1.3-.2 2.8-1.2 3.6-2.6 1.2-1.9-.9-6-.3-8.5-2.6 1.1-5.5-.5-8.2 2.7-.5-2.4-2.4-2.1-2-4.4-.9.9-1.7.4-2.3 1.6.3-1 .7-2.3-.1-3.2-.2.9-2.3 1.1-2.3 3.2.1-1 .1-2.1-.9-3 .1 1.1-1.9 1.1-2.1 2.8.2-1.7-1-1.9-1.4-3-.4 1-1.9 2.5-2.9 3.2.1-1.3-.2-3-1.3-3.7.4 1.4-1.9 2.6-1.7 4.1-.2-1.7-1.1-2.5-1.8-4.1-.4 1.4-2 2.4-2.1 3.6-.2-.9-.4-1.9-1.1-2.6 0 1-1.2 1.7-1.2 3-.1-1-.8-1.9-1.6-2.2.4 1.7-1.6 2.5-1.6 4.2-1.4-4.4-4.7-2-7.3-3.9.7 2.2-2.5 9 4.6 10.5-6 3.4-2.5 12.6-6.9 15.3-4.4 2.6-7.1 3.7-7.6 7.6.9-1.1 2.1-1.9 3.4-2.6-3 4.5.2 8.3-2.3 12.4s-3.2 5.4-3.2 7.3c1.9-3 5.4-3.5 7-7.1 0 1.1-.7 2.2-1.1 3.8-1.9 7.7-20.7 13.8-4.2 28.5 7 5.7 60.7 17.5 67.5-5zM748.7 392.5c2.1.8 3.2.4 3.8.6 0 1 .4 1.8 1.1 2.3.1 1.5 1.2 2.7 2.5 2.7.4.7.9 1 1.5 1.1 1.6-5.1 6.7-3.1 3.9.5-1.2 1.6-.7 4 .9 5.4 3.8 3.2 10.1.4 8-3.4-2.1-3.7-1.1-4.7 2-2 2.7 2.4-.4 5.7 5.2 8 3.2 1.3 7.9-2.1 7.1-5.4 4.4 1.6 8.5-1 8.3-4.3 4.3-5.1.4-10.3-4.4-10.6-4.7-.4-6.5 1.9-11.3 2-1.5-1.9-4.5-4.2-8.2-5.5-.6-1.9-1.7-3.6-3.7-5-7.9-.7-15.1 3.5-16.7 13.6zM663.2 312c-3.7-2.7-7.5-1.2-10.5.7-8.5-3.7-20.1-.2-22.4 5.5-3 7.5 3.1 9.6.5 15.4-6 13.2 3 17.9 2.2 23.9-.7 6 1.7 8.2 3.7 9.7.2-2.6-2.2-6.2.6-8.7.6 2.6 2.2 5 3.7 6.1-.4-1.7-.1-6.2.9-8.3.8 2.9 2.7 6.7 4.9 8.5-.6-2.7.2-6.4-.2-8.7 1 4 1.7 6.1 4 8.6-.4-2.1-.1-5.2.9-7.2 13.2-19.3 25.4-37.3 11.7-45.5zM777 314.5c4.7-.9 12.7-1 16.1 2.2 8.7-1.9 15.1 3.7 15.4 10.7.4 7-4.2 11-.2 22 1.6 4.5 1.2 11.2-.3 14.9-.2-2.2-1.6-4.7-2.7-6.2-.2 2.6-2.5 5.5-2.5 9.1-1.7-2.1-1.1-11.6-2.9-14.1-1.1 3.5-4.1 9.6-.7 13.7-4.2-.4-7.8-9.7-8.1-12.7-.4 3.2-2.1 5-.3 10.1-1.6-.4-3.6-4.1-4.2-6.9-5.6-5.4-33.5-35.1-9.6-42.8zM691.3 392.5c-2.1.8-3.2.4-3.8.6 0 1-.4 1.8-1.1 2.3-.1 1.5-1.2 2.7-2.5 2.7-.4.7-.9 1-1.5 1.1-1.6-5.1-6.7-3.1-3.9.5 1.2 1.6.7 4-.9 5.4-3.8 3.2-8.5.2-6.4-3.5 2.1-3.7-.8-5-3.9-2.4-2.7 2.4-1.5 7.3-5.8 7.9-3.4.5-7.1-1.6-6.3-4.8-4.4 1.6-8.5-1-8.3-4.3-4.3-5.1-.4-10.3 4.4-10.6 4.7-.4 6.5 1.9 11.3 2 1.5-1.9 4.5-4.2 8.2-5.5.6-1.9 1.7-3.6 3.7-5 8-.7 15.2 3.5 16.8 13.6z"/><path d="M750.1 259.7c6.6-3.1 9.2 2.7 17.7-2.4 4.6 2 15.2-4.7 21.8-3.6-7.2 28.9-43.2 20.6-39.5 6zM689.9 259.7c-6.6-3.1-9.2 2.7-17.7-2.4-4.6 2-15.2-4.7-21.8-3.6 7.2 28.9 38.5 19.6 39.5 6z"/></g><g fill="none" stroke="#000" stroke-width=".6"><path d="M694.9 236.6c.9-1.6.9-6.4.8-8.1M695 236.5c2.3-5 5.5-6.7 6.4-12.3M698.6 233.3c-1.1 13.3-4 17.4-6.4 20.6-2.4 3.1-5.6 7.5 1 11.8"/><path d="M698 238.3c-.2 1.4.1 4 .3 4.8 2.3-2.1 4.2-7.8 4.5-12M695.3 263c-3.1-5.1 3.5-12.2 3.9-18.4M709.5 231.8c2 7.1-5.4 13.8-4.2 20.7.5 3 1.4 8.6-.1 12.1"/><path d="M705.2 228.1c2.5 5.9-3.6 10.5-2.1 14.9 1.5 4.5 2.2 8.7 2.4 10.3M701.8 236.5c-.3 1 .5 2.4 1.3 3.4M711.9 235.2c3.5 7.5 1.4 13.2.4 16.2-1 3-4.7 9-2.2 15.6M713.4 247.3c-.9 3.9 3.6 14.6 2.7 23.5M718.6 269.8c1.1-3.4 1.9-9.2.6-12.7-3-8.3.9-14.8-1-18.8 5 5.9 2.7 15.3 4.4 19.2 1.6 3.9 1.9 7.7 1.4 9.2 2.6-3.6 4.5-8.3 3.4-11.7-1.1-3.4-2.2-5.5-2.1-8.5.1-3 .1-6.6-1.1-8.5 3.7 5.1 3.5 10 4.9 13.1 1.4 3.1 1.5 9.3 0 13 6.9-5.5 3.1-13.9 4.5-18.1 1.4-4.1-.3-8.2-.7-9.2"/><path stroke-linecap="round" d="M726.6 215.5l8.3-7.1M727.6 216.2l9-4.9M728.5 217.6l8.9-3.6M716.4 218.1l-8.7-7M716.2 218.5l-12.1-5M715.9 218.8l-12.2-.7"/><path d="M702.7 216c-.7 4.4-5.4 6.1-9.3 8.1M746.7 224.9c-1-1-2.3-2-3.8-2.8-5.6-3.4-3.9-6.3-5.5-10.6-1.1-2.9-.8-5.4-1.3-8.3"/><path d="M737.9 212.8c1.1 8.8-5.8 11.8-4.4 16.3 1.7 5.3 5.4 8.7 5.2 12.5-.2 3.7-.1 6.8.1 8.7-.9-1.1-2.4-4.6-2.5-7.1-2.4 8.7 2.6 13.2 1 17.3 1.6-1.2 2.6-4.9 2.6-6.5 1.9 2.6 3.2 6 3 9.2"/><path d="M736.4 226.5c0 10.5 3.8 9 4 20.2.1 10.1 7.6 8.2 8.2 14.8 1.6-9.1-6-11.8-5.6-19.1.4-7.2-2.1-12.2-4.2-14.9 4.6 4 7.3 9.8 7.2 15.3-.1 5.5 5.9 8.8 6.5 13 .2-3.4 0-6.6-1.5-9M738 215.1c.1 3.7 2.4 7.7 4.9 11.1 2.5 3.4 5.5 10.3 5.7 13.7M717.3 199.5c3.5 3.1.4 4.8 1.2 8 .4 1.5.9 2.9-.3 4.2"/><path d="M718.9 202.9c-2.7-3.5-7.5 1.1-9.7-.9 1.6 2.2.5 3.5 2.4 4.9 3 1.9 6.8.9 7.3-4zM724.4 199.8c-1.3 3.3.1 4.4-.5 6.6-.4 1.6 0 3.1.4 4.3"/><path d="M723.8 203c1.6-1.6 4.6-.7 5.7-.2.6.2 2.1.5 3.5-.6-1.1 1.2-1.7 2.1-1.9 3.3-.3 1.9-2.9 3.3-5 2.4-1.1-.5-2.4-1.7-2.3-4.9zM736.3 204.7c1 .3 1.7.7 2.2 1.1M706.3 209.9c.2 2.7-.5 6.4-1.6 9.5M731.1 217.3c.7.6 1.4 1.7 1.6 2.8M733.7 218.4c-.1-.7-.7-1.6-1.2-1.9M734.1 215.3c.4.3.9.9 1.1 1.6M707.7 216.6c.4 3.7-1.1 4.6-.5 7.8 1.5 8.2 7.5 6 7.2 9.7 1.5-1.9 4.9-3.2 6 1.8 1.7-1.7 1.9-4.5 3.4-4.5 1 0 2.4 1.8 2.7 6.6 1.2-.7 1.2-5.5.7-7 2.4.7 5.3 4.7 5.9 6.5-.4-3.2-.5-5.7-1.7-7.5"/><path d="M708.5 222c-2.4 3.6-.4 6 2.6 6.8 2.9.8 4.1-1.3 6.9.8 1.4 1.1 3.7.7 5.5-.1 1.8-.8 9-2.1 10.8 1.1M755.4 395.4c.1 1.2.3 2.1.7 2.7M752.5 393.1c0-.4.1-.9.3-1.3M753.6 395.4c0-.5 0-1.1.2-1.7M784.6 402.3c-1.9-5.8-6.3-3.2-9.8-7.5M793 398c-.4-6.9-7.8-4.5-12.4-5.8M763 392.2c0-.7-1-2.3-.9-3 .7.3 3.3 2.4 3.9 3-.3-.5-1.1-2.2-1.5-2.9 1.3.4 2.7 2.6 5.2 2.9-.2-.9-2.1-2.2-2.4-3.1.8.2 3 .6 4.1.8-.3-.5-1.6-1.7-1.9-2.3 1.1.3 2.5.3 2.9.5-.4-.5-1.7-1.7-2.2-2.2M762.7 392.2c-.5-.7-2.1-2.2-2.7-2.7.2.9.5 2.6.4 3.1-.5-.6-1.2-1.9-1.6-2.5 0 .4 0 1.4-.1 1.9-.6-.4-1.6-1.5-2.4-1.9M631.4 331c.1-4.1 2.3-6.9 2.5-9 1.6 3.1-.8 8.7 2.5 13.3M637.4 358.6c-.8-2.6-.7-7.1-2-10.2-1.6-3.8 1-7.2-.4-10.5M633.1 358.5c.6-4.4-.5-11.7.6-12.8M642 356.4c-1.1-3.1-.9-9.3-2.4-11.8M637.2 329.1c.4 6.1 2.4 10.8 6 13.9.4-1.2 0-3.2.1-4.6"/><path d="M641.5 326.7c-2.4 6.7 3.2 13.1 3.4 15.6.5-.4.9-2 .8-3"/><path d="M643.4 332.3c-.3 3.7 3.8 8 3.9 11 2.7-2.4 2.1-9.4 1.3-12"/><path d="M649 333c1.2 3.6 2.1 6.4 1.6 8.3 3.5-2.6 2.9-10.8 1.6-12.5.9 1.2 2.6 3.1 2.8 4.2.6-2.3 0-6.1-1.4-7.9M646.6 356.1c-.7-2.7-2.4-5.5-2.2-10.6M652.7 312.8c4.5 2 15 1.2 15.6 7.3M664.5 323.2c-2.6-2.6-7-4.2-10.2-4.1 1.7.9 8.6 4.4 9.9 8.4M656.9 328.7c1.3 2.2 3.2 5.8 3.5 8.5 1.7-4.4.7-11.6-4.7-14.1M684.6 395.4c-.1 1.2-.3 2.1-.7 2.7M687.5 393.1c0-.4-.1-.9-.3-1.3M686.4 395.4c0-.5 0-1.1-.2-1.7M655.4 402.3c1.9-5.8 6.3-3.2 9.8-7.5M647 398c.4-6.9 7.8-4.5 12.4-5.8M670 386.2c-.5.6-1.7 1.8-2.1 2.4.4-.1 1.7-.3 2.9-.6-.2.6-.9 2.1-1.2 2.6 1.1-.3 2.7-1 3.5-1.2-.2 1-1.5 2.4-1.7 3.2 1.4-.3 3.2-2.7 4.4-3.2-.3.8-1.1 2.4-1.3 3M675.7 391.1c.6-.6 1.9-1.6 2.6-2 .1.6-1.4 2.4-1.4 3.1M678.2 392.1c.4-.7 1.6-2.2 2.1-2.7M680.1 392.4c.5-.6 1.1-2 1.5-2.6.1.4.1 1.4.3 1.9.6-.4 1.6-1.6 2.2-2M800 353.3c-.9-2.1-2.5-6.8-2.2-10.1M805.3 358.2c.4-2.2-2.9-9.3-1.9-13.3M791.1 354.3c-.3-1.9-.1-3.8.1-4.4M793 347c2.6 3.7-1.2 12.6 1.7 16.4M802.7 323.1c2.1 2.7 3.7 7.5.6 11.9.2-2.7-1.1-7-2.8-9.2 1.2 2.7 1.9 5.2.4 9.1-.6-.8-1.2-2-1.3-2.9-.4 2.7-1 5.4-2.7 6.9-.2-1.9-2.4-4-1.2-8.5"/><path d="M795.5 334.3c.2 1.9-2 7.1-3.6 8.2-.1-4.5-6.2-7.3-6.5-10.4"/><path d="M793.1 316.8c1.9 1.5 2.1 2.9 2.6 3.9-2.4-1.4-7.3-3-6.4-.9.4 1 1.8 2.1 2.9 3.1-.9-.6-3.5-1.4-4.5-1.6 2.1 1.4 3.6 5.5 4.4 5.9-2.1-.6-6.6-3.7-7.7-5.9-.6 2.7 4.9 6.2 5.4 8.5-3.4-1.2-7.1-3.9-8.1-5.7.1 3.6 4.9 7.5 7.1 8.7-2.1.3-8.8-2.2-10.5-4.8"/></g><path fill="#3697D3" stroke="#000" stroke-width=".6" d="M720 272.8c13.9 0 8.4-15.6 33.8-3.6 19.3 9.1 27.7 1.5 34-8.8 6.4 1 5.7 7.7 8.3 9-1 3.5-3.1 6.5-5.1 8.7 1.7 1.7 1.9 4.5 1.1 6.4 4.9-1 6.6 4.2 9.5 5.2-.4 2-1.4 6.7-1.2 9 .1 1.7-2.5 6.1-6.7 4.6 2.2-5.4 3-13.3-8.5-8.6-11.5 4.7-16.2 36.6 1.7 48.1 7 19.7-13 38.6-30.6 35.9-2.2 12-15.9 15.9-21.7 17.9-5.7 2-4.4 10.6-.6 9.5-.3 1.1-2 2.6-3.7 2-1.7-.6-5.6-1.7-10.4-1.7-4.7 0-8.7 1.1-10.4 1.7-1.7.6-3.4-.9-3.7-2 3.7 1.1 5.1-7.5-.6-9.5-5.7-2-19.4-6-21.7-17.9-17.7 2.7-37.6-16.2-30.6-35.9 17.9-11.5 13.2-43.3 1.7-48.1-11.5-4.7-10.7 3.2-8.5 8.6-4.2 1.5-6.8-2.9-6.7-4.6.2-2.2-.9-7-1.2-9 2.9-1 4.6-6.2 9.5-5.2-.7-1.9-.6-4.6 1.1-6.4-2-2.2-4.1-5.2-5.1-8.7 2.6-1.2 2-8 8.3-9 6.4 10.3 14.7 17.9 34 8.8 25.5-12 20 3.6 34 3.6z"/><path d="M712.5 219.9c1.7 2.1 6.5 2.9 8.7-.2 2.2 1.7 6.7 2.9 9 .1-.5 1.2-1 3.1 0 4.3-4.2-1.4-13-1.1-16.6-.3-.4-1-.5-2.6-1.1-3.9zM727.9 218.8c-.6 0-.6.9 0 .9.6-.1.6-.9 0-.9zM725.4 218.8c-.6 0-.6.9 0 .9s.6-.9 0-.9zM725.4 216.8c-.6 0-.6.9 0 .9.5 0 .5-.9 0-.9zM715.8 214.9c1.6-1.3 3.6-.9 4.1.4.5 1.4-.2 2.1-.7 1.7-.5-.5-1.7-.3-2.1.2.2-.3.9-1.3 1.6-1.3-.6-.7-1.8-1.4-2.9-1zM722 216.2c.3-1.4 1.4-1.9 2.4-1.8.8.1.7.6 0 .6s-1.5.5-1.8 1.2c-.3.7-.7.7-.6 0zM719.3 218.6c-.6 0-.6.9 0 .9.5-.1.5-.9 0-.9zM740.1 196.9c-2 .5-1.9 2.1-3.4 2.9-2 1-.7 2.2-.6 3.8 1-2.4 3.2-1.5 3.4-3.6.1-1.4.2-2.5.6-3.1zM705 197.8c-.4-2.2-2.9-1.4-3.4-2.2-.5 2.2.6 4.6 2.2 6.2.1-.6.1-1.4.6-1.9-.4-1.2-1.3-1-1.5-2.5.7 0 1.5-.1 2.1.4zM715.4 201.5c1.7.9 1.3 4-1.1 4-2 0-2.6-2-1.8-3.3.6-.2 2.3-.6 2.9-.7zM728.2 202.3c1.3 1.1.8 3.8-1.4 3.8-2.4 0-2.8-3-1.2-3.9.6-.1 2-.1 2.6.1z"/><g stroke="#000" stroke-width=".6" stroke-linecap="round"><path fill="#EEE1C4" d="M657.6 294.1c.2-1 1.9-3 2.6-3.6V286c.7.1 3-.1 4-.3l.1.7c1.5-.1 4.4-.3 5.6 0 0-1.9 1.1-3.2 1.8-3.7l.1-1.7 2.1-1 .9 1.6 3-.7c.3-.6 1.1-1.5 1.5-1.7 1-.1 2.6-.2 3.5.2.3.5.3 1.3.4 1.6 2.1.2 3.3-2.5 5-1.5 6.7 4 5.8 4.9 9.3 12.5 5.4 11.7 14.8 34.9 21 43.8-15.2 11.5-44.8 26.7-64 21.9C651 347 652.8 342 662 332c9.2-9.8 0-32.7-4.4-37.9z"/><g fill="none"><path d="M665.8 300.8c.5.1 1.3 0 1.3 0 .1-.6.5-1.4.5-1.4l1 .1c.5 1.3 2.1 2.7 4.7 2.7 1.9 4.4 1.4.7 4.2 8.3"/><path d="M676.2 307.4c-.4-1.1 1.2-2.5 1.7-3.1.4.8.4 1.6.8 2.1M666.6 316.1c.6 9.3 8.6 3.7 11.3 17.7M669.9 286.5c0 1.3 2.3 4.2 2.9 6.9.6 2.6.7 2.1 2.3 2.6 1.6.5 3.9 1.3 5.3 6.9 1.7 6.7 5.9 6 8.5 11.9M677.8 281c-.4.6-.2 2 .9 3.5 1.2 1.6.1 2.6 1.5 4.2s2.4 4 2.9 6.2 1.5 4.6 2.2 6"/></g></g><g><path fill="#FFF" stroke="#000" stroke-width=".6" stroke-linecap="round" d="M775.3 313.5c-3.6-6.1-10-5.7-13-3.7-2.6-6.6-13.2-8.5-18.1-4.6-4.2-2.2-12-.6-13.4 4-4-3.5-12.6-3-15.2 2.7-4.7 3.1-4 14.1 3.4 16.4 7.3 2.4 52.9 54.6 62.8 39.7 3-4.5 8.8-14.7 5.2-25.4-7-5.4-13.7-15.6-11.7-29.1z"/></g><g stroke="#000" stroke-width=".6"><g fill="#FFF"><path d="M686.6 295.2l5 51.2M686.9 295l8.9 50.9M687.3 294.7l13.1 51.3M687.7 294.5l16.3 49.3M690.9 292.6l24 30M690.6 292.8l20.6 31.6M690.3 293l18.5 34.3M691.1 341.7l12.3-2.4M690.5 335.3l12.8-1.5M690.1 330.3l11.2-1.5M689.5 324.7l9.9-1M697.6 318.8l-8.4 1M688.7 315.9l7.5-.8M688.4 311.9l6.3-.4M687.9 308l5.4-.5M696.3 306.4l3.9-2.2M698.1 310l4.5-2.7M699.9 314l5.2-3.6M701.8 317.6l5.6-4.2M703.6 321.6l5.9-5.6M706.1 326.6l6.3-7M687.4 303.8l4.3-.6M694.4 302.5l3-1.7M706.8 330v-37.4M707.1 292.3l2.2 34.3M714.4 322.7l-6.7-30.8M717.5 321.4l-9.8-30.1M707.4 291.7l4.6 32.2M709.8 290.5l15.1 27.3M711.3 289.7l18.3 25.9M710.5 290.1l16.8 26.6M706.9 322.7l11.7-5.1M706.8 317.8l10.3-3.9M706.9 313.5l8.6-3.3M706.9 309l7-2.7M706.8 304.2l5.6-1.8M720.6 312.8l6.3-1.1M718.9 309.2l5-1.7M716.9 305.4l4.8-1M714.9 301.6l4.2-.7M713 297.8l3.8-.3M710.8 298.5l-4 1.4M722.2 315.9l6-2.1"/></g><path fill="#D1AD7E" d="M704 344.7l-1-9.7 7.7-10.5 37.4-17.7 1.1 8.2 1.5-.7.5 3.5-.8.5.7 5.1c.9-.5 1.7-.9 2.4-1.3l.1 3.8c1.5 1.5 6.7 5.2 9 5.9l-1 34.5c-38.4 7.7-71 17.7-64.3-18.9 1.7-.6 5.3-2.1 6.7-2.7z"/><g fill="#D1AD7E"><path d="M719.7 320.2L707 289.1l-1.7-.2-.3-5.3 3.9 3.5-.7 1.4 15.4 29.9z"/><path d="M705 290.8l5.4-3 1.5 1.9-5.7 3.6zM703.5 334.4l-16.6-43.8-2-.2-.2-6.3 4.5 4.3-.8 1.6 18.9 39.2z"/><path d="M684.5 292.6l6.5-3.4 1.7 2.3-6.9 4.1z"/></g><g fill="none"><path d="M716 322v-2.6l32.1-15.2v2.6M744.8 317l.5-6.5-32.8 15.5-7.2 9.7c9.6-4.4 38.7-18.4 43.9-20.7M741.3 314.7l-25.7 12.2M697.3 347.4c16.8-6.6 47.1-20.1 56.2-25.2l-.5 32.3M697 350.6c16.8-6.6 47.5-20.2 56.5-25.4M706.1 338.1c14.4-6.4 36.7-16.4 45.2-20.2M744.4 320.9l-.4 6.1M740.8 322.6l-.4 6.1M737 324.4l-.4 6.1M733.5 326l-.4 6M730.2 327.4l-.4 6.1M708 354.3c7.7-3.4 27-11.6 35.1-15.6M708.9 356.4c7.4-3.2 25.5-10.9 34.1-15.1M708.5 363.1c7.4-3.2 25.5-10.9 34.1-15.1M709 366c7.4-3.2 25.5-10.9 34.1-15.1M710.6 369c7.4-3.2 25.5-10.9 34.1-15.1M711.1 371.8c7.4-3.2 25.5-10.9 34.1-15.1M743.8 330.1l-1.6 23.2"/><path d="M720.5 346.7c1.7-.8 3.5-1.5 5.2-2.3l.2-3.2c-1.7.8-3.5 1.5-5.2 2.3l-.2 3.2zM730.6 342.2c1.8-.8 3.5-1.6 5.2-2.3l.3-3.2c-1.7.8-3.4 1.6-5.2 2.4l-.3 3.1zM719.9 355.8c1.7-.7 3.4-1.5 5.2-2.3l.2-2.4c-1.8.8-3.5 1.6-5.2 2.3l-.2 2.4zM730 351.4c1.8-.8 3.5-1.6 5.2-2.3l.2-2.3c-1.7.8-3.4 1.5-5.2 2.3l-.2 2.3zM743.5 333.7c2.9-.9 7.9-3.4 9.9-5.2 1.9 2.2 5.9 4.8 9.1 5.5M743.5 336.5c2.9-.9 7.9-3.4 9.9-5.2M743.3 338.7c2.9-.9 7.9-3.4 9.9-5.2M743.3 341.2c2.9-.9 7.4-2.9 9.9-5.2M742.9 344.4c3.3-1.1 7.9-3.2 10.4-5.4M742.7 347.2c3.3-1.1 7.9-3.2 10.4-5.4M742.7 349.8c3.3-1.1 7.9-3.2 10.4-5.4M753.4 333.6c1.4 2 4.9 4.2 9 4.2M745 308.2v-2.5M742.3 309.6V307M739.8 310.8v-2.6M737.3 312v-2.6M734.7 313.1v-2.5M732.2 314.3v-2.6M729.7 315.5V313M727.2 316.7v-2.6M724.6 317.9v-2.5M722.1 319.1v-2.6M719.6 320.3v-2.6M717.1 321.5v-2.6M753.2 336.1c1.4 2 5 4.1 9.1 4.1M753.3 339.3c1.4 2 5 4.1 9.1 4.1M753.4 331.4c1.7 1.8 4.7 3.9 8.9 4.2"/></g></g><g stroke="#000" stroke-width=".6"><path fill="#FFF" d="M651.6 349.2c-1.2 17.1 16.3 31.8 32 29.4 2.2 12 15.9 15.9 21.7 17.9 5.7 2 4.4 10.6.6 9.5.3 1.1 2 2.6 3.7 2 1.7-.6 5.6-1.7 10.4-1.7 4.7 0 8.7 1.1 10.4 1.7 1.7.6 3.4-.9 3.7-2-3.7 1.1-5.1-7.5.6-9.5 5.7-2 19.4-6 21.7-17.9 16 2.5 33.9-12.9 31.9-30.4-.8-1.7-7.2-2.6-9.3-1.2-.7-3.9-5.7-5.9-9.3-3.9-8.2-4.7-16.1-.7-16.6 8.6-6.4-6-13-2.4-14.1 4.2-1.7 10.3-22.9 17.6-28.9 5.7 4.1-.2 6.4-6.6 2.4-10.1-3.7-3.2-9.6.1-9.5 4.4-4.5-3.5-5.5-6.9-5.2-9.7.4-4.6-7.3-7.6-11.3-1.5-1.7.4-4.2 1.6-4.9 3.6-2.4-6-8.7-8.1-12.5-7.1-3.7 1-7.2 5.5-6.1 9.6-2.9-3.2-7.8-3.5-11.3-1.9"/><g fill="none" stroke-linecap="round"><path d="M684 360.6c-2.9-4.5-7.8-5.1-11-4.1-3.1 1-.7 4-3.7 5.7-3 1.7-1.9 8.6 3.4 9.6M676.5 364c2.4-.2 4.9 1.6 6 4.1M683.6 366.8c-.9-3.5-3.5-6.2-6.9-6.1M684.8 363.2c.9 5.1 6.1 3.9 6.7 8.5M687.2 360.6c.1 2.5 3.1 4.9 4.9 5.2M688.9 357.5c1.1 1.6 3.1 4.1 5.2 4.9M689.5 351.3c.3 3.6 2.7 7.1 7.2 7.7M689.4 345.9c5.6.2 2.5 9.1 6.9 10M696.5 351.6c.4 1.7 3.6 5.4 6.2 6.6M673.2 350.9c-.3-3.4-1.6-6.8-4.4-8.2 3.2.2 6.9 2.9 8.3 6.6M681.5 348.3c-.5 1.2-.3 4.1.7 5.5M701.6 368.1c.4 3.1 3.3 2.4 3.6 6.5M704.5 367.4c.1 1.7 2.2 2.4 2.2 4.7M705.3 365c.1 1.2 1.2 2.6 2.4 3M706.1 363c.9.4 1.7 1.7 2.1 2.7M705.6 360.5c2.9 1.1 5.7 5.2 7.3 7.8 3.2 5 13.5 5.4 17.1 2.2 3.6-3.2 5.4-5 7.8-4.7M708.2 373.7c6.1 6.2 16.2 1.7 18.8 4.5M724 381c4.4-3 9.5 1.7 12.6-2.1 2.8-3.4 6.9-6 10.1-5.4"/><path d="M718.5 383.6c4 1.7 7.4-.9 11.1.1 5.6 1.5 10.6-6.4 16.9-5.2M691.4 384c6.5-.4 10.6 8.9 21 5.9 13.1-3.9 25.4 2.9 29.6 1M718 391.9c4.4-.8 11.2.4 14.2 2.9M720.6 394.9c2.5.1 6.2 1.4 7.6 3.2M722.6 398.5c1.7-.1 4.4 1.2 5.6 2.1M722.6 401.8c1.7-.1 4.4 1.2 5.6 2.1M750.5 353c-2.4-1.9-7-2.6-8.7.3 1.9-.4 4.6.5 5.9 2.4M745.3 370.8c2.2-1.9 2.6-5.4 1.5-7.7M756.5 370.8c1.5-3.6 1-10.7-3.2-12.8M760.6 350.8c1.6.9 2.1 3.5 1.6 5.1M762.7 349c1.7.7 2.6 3.7 2.3 5.7M761.7 346c4.2.4 6.3 3.8 5.9 8.7M764.1 360.4c3.1 1.2 3.5 5.7 1.4 8.3M769.3 361.7c.8 2.2 0 5.7-1.2 7.3M769.9 371.4c3.5-3.4 4.2-11.4.2-13.7M771.9 350.6c2.6.6 4.4 3.6 4.3 6.9 2.7.4 5.2 3.1 5.7 6.6M776.7 347.9c1.2.5 2.4 1.8 2.7 3.1 1.3-.3 4.2-.6 6.4.7"/></g></g><g fill="#FFD559" stroke="#000" stroke-width=".6"><path d="M720 275.5c1.7 0 4.7-.1 7.8 1.1l-.2-6.6c-1.7-1.1-5-1.7-7.6-1.7s-5.8.6-7.6 1.7l-.2 6.6c3.1-1.2 6-1.1 7.8-1.1z"/><path d="M651.2 260.2c2.9 10.8 9.3 14.7 18.7 15.2 5.9.3 13.6-2 18.4-5.3 7.7-5.4 17.5-4.2 21.7 1-2.2-1-4.4 1.2-4.4 3.3 0 2.1 1.6 3.6 4.6 3.6 2.4 0 4.5-2.4 4.5-5.6 0-9.2-15.2-13.8-25.7-7.6-6 3.5-13.2 6.4-19.2 5.9-7.7-.6-12.7-4.2-14.4-13.1l-4.2 2.6zM788.7 260.2c-2.9 10.8-9.3 14.7-18.7 15.2-5.9.3-13.6-2-18.4-5.3-7.7-5.4-17.5-4.2-21.7 1 2.2-1 4.4 1.2 4.4 3.3 0 2.1-1.6 3.6-4.6 3.6-2.4 0-4.5-2.4-4.5-5.6 0-9.2 15.2-13.8 25.7-7.6 6 3.5 13.2 6.4 19.2 5.9 7.7-.6 12.7-4.2 14.4-13.1l4.2 2.6zM713.4 401.8c0 5.2-3.2 6.4-5.4 6.4-4.6 0-4.8-6.5-.7-7.1-1.4-5.7-21.7-3.7-25.5-20-23.4 1.1-34.1-18.2-32.1-39.6 17.4-9.8 13.7-29.1 8.7-39.6-3.5-7.4-9.8-7.5-12.3-5.7 4.8 1.8 2.2 8.9-2.6 7.1-1.9-.7-3-2.2-3-4 0-4.7 3.5-9.7 11-8.5 9.8 1.6 15.7 12.1 15.7 27.3 0 13.2-4.7 20.7-12.7 25.9-.3 19.2 7.7 30.9 26 33.1-4-.8-3.7-7.1.9-7.1 2.8 0 4 2.3 3.6 4.3.8-.6 1.9-.9 3.2-.5 4.7 1.3 2.7 8.3-2 6.9 3.9 13.7 27.2 9.9 27.2 21.1zM726.5 401.8c0 5.2 3.2 6.4 5.4 6.4 4.6 0 4.8-6.5.7-7.1 1.4-5.7 21.7-3.7 25.5-20 23.4 1.1 34.1-18.2 32.1-39.6-17.4-9.8-13.7-29.1-8.7-39.6 3.5-7.4 9.8-7.5 12.3-5.7-4.8 1.8-2.2 8.9 2.6 7.1 1.9-.7 3-2.2 3-4 0-4.7-3.5-9.7-11-8.5-9.8 1.6-15.7 12.1-15.7 27.3 0 13.2 4.7 20.7 12.7 25.9.2 19.2-7.7 30.9-26 33.1 4-.8 3.7-7.1-.9-7.1-2.8 0-4 2.3-3.6 4.3-.8-.6-1.9-.9-3.2-.5-4.7 1.3-2.7 8.3 2 6.9-3.9 13.7-27.2 9.9-27.2 21.1z"/></g><g fill="#F00" stroke="#000" stroke-width=".6"><path d="M790 250.9c6.4 0 9.7 10.1-.9 10.1-6 0-7.4-10.1.9-10.1zM777.2 246.5c6.5 0 8.1 11-.2 11-7.4 0-6.8-11 .2-11z"/><path d="M784.9 254.5c-6.4 0-6.5-9.7-.7-9.7 6.8 0 7.7 9.7.7 9.7zM776 269.4c-7.8.8-9.2-11.1-1.1-12.3 7.4-1.1 9.9 11.5 1.1 12.3z"/><g><path d="M650 250.9c-6.4 0-9.7 10.1.9 10.1 6 0 7.4-10.1-.9-10.1zM662.8 246.5c-6.5 0-8.1 11 .2 11 7.4 0 6.8-11-.2-11z"/><path d="M655.1 254.5c6.4 0 6.5-9.7.7-9.7-6.8 0-7.7 9.7-.7 9.7zM664.3 269.2c7.8.8 9.2-11.1 1.1-12.3-7.3-1.2-9.8 11.4-1.1 12.3z"/></g></g><g fill="#003876" stroke="#000" stroke-width=".6"><path d="M785.6 251.7c3 .9 1.5 4.6-.5 5.3-2 .8-2.7 1.6-2.9 2.4-.9-2.1.4-3.4.1-4.6-.5-2.2.8-3.9 3.3-3.1zM790.6 257.6c2.2 1.7-.1 6.8-5.7 3.7 1.4-.6 2.2-1.5 2.4-2.7.1-1.1 1.6-2.4 3.3-1zM776.1 264.5c.2 2.2 4.1 1.7 4.9.9.7-.8 1.7-2.6 3-2.7-1.7-.9-4.6-1.2-6.2-.7-1.8.3-1.8 1.4-1.7 2.5zM779.4 258.4c.4 0 .9-.1 1.5-.5-2.2-.9-.1-4.3-3.2-4.4-3.1-.1-2.9 3.3-1.9 3.5 1.3 0 2.7.6 3.6 1.4zM654.6 252.1c-2.5.8-1.7 4.2.3 5 2 .8 2.7 1.6 2.9 2.4.9-2.1-.4-3.4-.1-4.6.4-1.9-.6-3.6-3.1-2.8zM649.4 257.6c-2.2 1.7.1 6.8 5.7 3.7-1.4-.6-2.2-1.5-2.4-2.7-.1-1.1-1.6-2.4-3.3-1zM664.3 264.3c-.2 2.2-4.1 1.7-4.9.9-.7-.8-1.7-2.6-3-2.7 1.7-.9 4.6-1.2 6.2-.7 1.7.3 1.8 1.3 1.7 2.5zM664.1 256.8c1.1-.2 1.2-3.4-1.9-3.3-3.1.1-1 3.5-3.2 4.4.6.4 1.2.5 1.7.4.8-.6 1.9-1.4 3.4-1.5zM791.4 394.2c3.6-3.5 6.9.9 6.2 6.1-1.7-.6-2.2-3.7-4.6-2.9-.2-1.1-.6-2.4-1.6-3.2zM789.2 399.1c1.5-1.4 4.5-.1 4.7 2.9.2 3-1.6 5.5-4.1 5.5 1.8-4.1-4.4-4.7-.6-8.4zM781 403c4 .2 4.9 6.1.2 8.5-.7-4.4-2.4-3.6-2.7-5-.3-1.8.4-3.6 2.5-3.5zM765.6 404.4c-2.3 1.2-2.3 5.9 3.6 6.2-1.7-2.6-.2-3.8-.7-5-.2-.8-1.7-1.8-2.9-1.2zM648.6 394.2c-3.6-3.5-6.9.9-6.2 6.1 1.7-.6 2.2-3.7 4.6-2.9.2-1.1.6-2.4 1.6-3.2zM650.4 399.5c-1.4-1.6-4.4-.6-5 2.4-.6 3 .9 5.6 3.4 5.9-1.3-4.3 5-4.2 1.6-8.3zM658 402.8c-4 .2-4.9 6.1-.2 8.5.7-4.4 2.4-3.6 2.7-5 .3-1.9-.3-3.7-2.5-3.5zM675.2 404.3c2.4 1 2.9 5.6-2.9 6.5 1.4-2.8-.2-3.7.1-5 .3-.9 1.6-2 2.8-1.5z"/></g></svg>
