<svg xmlns="http://www.w3.org/2000/svg" width="240" height="160" viewBox="0 0 240 160"><path fill="#F7E017" d="M0 0h240v160H0z"/><path fill="#FFF" d="M0 11v71.2l240 33.3V77.8L0 11z"/><path d="M0 49V82L240 149v-33.4L0 49z"/><path fill="#CF1126" d="M157.3 121v.8l-1.2-.4c-1.5-.6-2.3-.8-4-.8-6.4 0-7 4.6-11 4.6-1.2 0-2-.4-2.5-1-.2-.5-.3-.7-.2-1.6v-1l-1 .7c-7.8 5.3-24.5 6.7-33.5.5l-1-.7c-.2 0-.2.5-.2 1 0 1.4-.6 2-2 2.5-3.5 1-6-3.6-10.6-4.8-2-.5-4.7 0-6.2.8l-.6.3c-.2 0-.2-1.5 0-2 .3-.6 1-1.3 2-1.6 1.2-.4 1-.5.6-1.3-1.4-2.6 2-5 5.6-3.6 1 .4 1.4.6.4-1-1.8-2.5-.3-5.5 2.2-5.7 1.3 0 2 .3 4 2.2 14.2 13.5 32.8 11.2 45-.2 1.4-1.3 2-1.7 3.3-1.7 2.5 0 4.3 3 2.7 5.5-1.6 2.6 2.5-1.6 5.6 1.3 1 1 1 2 .3 3-.8 1.3-1 1.2.6 1.4 1 .3 1.7 1.3 1.7 2.8zm-27-6c17.4-5.4 25.8-27.5 17.8-43-1-1.8-2.7-4.7-4-5.4 6.7 13.4 1 32.2-14.8 37.8-4.2 1.4-8.8 2.7-13.2 1.4-16.7-2.4-28.5-21.7-20.6-38.5-8.4 8-8.4 26-.2 37 7 10.2 21 15.4 35 10.8zm-45-9.4c.3-.5-.2-1-.7-1-9.5 2.2-9 0-10.8-.2-.6 0-1.2.5-1 1 2 2.8 11.6 2.4 12.5.2zm-11-3.5c-.5 0-1 .7-.7 1.2 2 2.7 10 2.3 10.8 0 .2-.3 0-.8-.4-.8s-.8.3-1.2.4c-5 2-7.4-.5-8.4-.7zm8.2-1.5c-4.2 2-6.3-.4-7.3-.6-.5-.2-.8.4-.7.8.5 2.6 8.5 2.7 9.2.3 0-.2 0-.6-.2-.8-.4-.2-.7 0-1 .3zm-8-15c1 1.5.7 11.8.6 14 4.7 2.2 8 .7 8.3-.3 0-6 0-11.8-.2-17.7-.8-2.6-2.6-2-7-7.5-.5-1-2.8-1.3-2 .4.6 1.5 1.8 2.6 2 4 .2 1 1.2 2.5.3 3-1.7-3-4.8-2.7-5.3-4.5-.3-2-1.2-3.6-2.4-5 .3-1.7 0-3.7-1.4-4.8H67c-.7.7-.2 2-.2 3 1.7 13 4 10 7.8 15.2zM69.2 72c1.3 1.4 2.2 3 2.5 4.8 0 .7.7 1 1.2 1.2 1 .7 2.3 1.2 3.3 2 .2.3.4.6.2 0-.2-.5-.2-1-.7-1.5-.6-.7-1.4-1.2-2.3-1.4 0-1.2-1.4-3.8-2.6-4.6 0-6.6-2.8-5-1.7-3.4.2 1 .3 2 0 3zm2 0c1.3 1 2.4 3.4 2.7 4.6.7.2 1.3.7 1.8 1-.3-1-1.5-2-1.8-3.6-1.8-2 0-3.5-2-5.6 0-.2-.3-.4-.6-.4-.4 0-.3.7 0 1v3zm2.6 1.4c0-.3.4-.6.8-.6 0 0 .3 0 .2-.2-.2-2-1-5.4-2-3.7l.2.5c.8 2 0 2.4.8 4zm92.6 31c-1.6.2-1.4 2.3-10.8.3-.5 0-1 .4-.7 1 1 2.2 10.6 2.5 12.5-.2.2-.6-.4-1.2-1-1zm.2-1.2c.2-.5-.3-1.2-.8-1-.4 0-.7.2-1 .4-4.8 2.3-7.5-.2-8.5-.2-.4 0-.5.6-.3 1 .7 2 8.8 2.5 10.7-.2zm-.8-2.4c0-.4-.3-1-.7-1-1 .3-3.2 2.8-7.4.7-.3 0-.7-.4-1-.2-.3.2-.3.6-.2 1 .7 2.4 8.7 2 9.2-.5zm7.4-33.5h-.2c-1.4 1-1.7 3-1.4 4.8-1.2 1.5-2.2 3-2.4 5-.5 2-3.6 1.6-5.3 4.5-1-.5 0-2 .2-3 .2-1.5 1.4-2.6 2-4 .7-1.7-1.6-1.4-2-.4-4.4 5.7-6.2 5-7 7.6l-.3 17.7c.2 1 3.6 2.5 8.2.2 0-2.2-.4-12.5.4-14 3.8-5.3 6.2-2.2 7.8-15 0-1.2.5-2.5-.2-3.2zm-6.2 9.7c-1 .2-1.6.8-2.3 1.4-.4.4-.5 1-.7 1.6 0 .4 0 .2.2 0 1-1 2.2-1.4 3.3-2 .5-.4 1.2-.7 1.2-1.3.3-1.8 1.2-3.4 2.4-4.8-.3-1-.2-2 0-3 1-1.6-1.8-3.3-1.6 3.3-1.2.8-2.5 3.4-2.6 4.7zm-.4-3C166 76 165 77 164.6 78c.5-.5 1-1 1.8-1 .2-1.3 1.4-3.7 2.6-4.6 0-1 0-2 .2-3 0-.2.2-.8-.2-1-.6 0-1.7 1.5-1.7 3.4 0 .8-.2 1.8-1 2.5zm0-.6c1-1.6 0-2 .8-4 0 0 .3-.3.2-.5-1-1.7-1.8 1.7-2 3.6 0 .2 0 0 .2.2.4 0 .7.3.8.6zm-53 27.4c-.3 0-1-.8-1-.3 2.2 7 12.6 7.5 15.4 0 0-.2-.8.4-1 .5-.8.4-1.6.4-2.3 1-.7.5-1.5 1.2-2.4 1.6-.6.3-.4-.7-.2-1 .3-1-.3-1.8-.8-2.5-.3-.2-.7-1.2-1-1-2 2.3-2.2 3-1.6 4 .2 1-1 .3-1.4 0-.8-.3-1.2-1-2-1.4l-1.6-.8zm3 .5c.2.3 1 1.3 1.2.8 0-1 .8-2 1.5-3 .5-.3.8-1.5 1.5-1 1 1.3 2.3 3 2.2 4.3 0 0 .2.2.3 0 3-2 2-6 .5-9.2-1-2-1-4 .8-5.7.5-.4 0-.6-.5-.4-1 0-1.4 1-2 1.4-.5 0-1-3.6-2-2.2-.4.5-.5 1.2-.7 1.8-.5.3-1-1-1.6-1-.4-.2-1.7 0-1 .5 3.4 3-3.5 9 0 13.8zm7.7-28c-.4-.4-1-.3-1.6 0-.5.3-.8 1-1.3 1-.5-.3 0-1.3-.4-1.7-.3-.8-1 0-1 .5-.2.5 0 1.3-.4 1.4-.6-.5-1-1-1.7-1.3-.3 0-1.2-.2-1.3.2.7 1 1.6 1.7 2 2.8.7 3.6-1.5 4.3-1.4 7.8 0 1 .2 2.3 1.2 3 1 1 1.2-1.8 2.4-1.8 1.3 1 1 1.5 1.6 2 .7-.2 1.3-.7 1.5-1.5 1.4-5.3-3-7.5 0-11 0-.4.8-.8.6-1.3zm-22-11c4.5-2.2 5-1 4-.8-3 .5-4.8 2.2-7.3 2.8l-1.2.4.2.6c1 1.7 3.7 1.8 5.5.3 1.6-1.3 4.2-2.5 5.6-2.6.7 0 1 .3.3.4-3.2.7-7 3.6-7 3.8 0 .3 1 1.2 1.4 1.3.7.2 2.3 0 3-.3 1.2-.5 4.6-4 6-4 .5 0 .3.4-.5.8-1 .5-3 2-3.7 2.6-1 1-2 1-1 2 1 1.2 3 1 5-.5.5-.2 1.6-1.2 2.6-2.2 2.4-2.5 2.3-2 1.3-.7-.7 1-.8 1-.7 1.6 0 2.5 3.5-.3 2 1.7-.6 1-.6 2.5.6 3.4l.7.5.3-.7c.7-1 1.3-1 2 0 .4.7.4.6 1.2 0 2.7-2.3-1.7-4.6.8-4 1 .2 1.3 0 1.5-.5.3-.7 0-1.2-.6-2-.6-.7-.8-1-.5-1 0 0 1 .7 1.8 1.6 4 4 7 4.2 8 2.8.7-1 0-.8-1.2-2-2.4-2.2-5.5-3.3-4.2-3.3.8 0 2.8 1.4 5 3.3 3.2 2.6 6.3 0 5.3-.6-6-3.6-7-3.7-7-3.7-.3-1 4 .8 6 2.2 3.7 3.2 7-1 5.3-1-.6 0-8.6-3-8.6-3 0-.7 2.5 0 4.7 1 3.4 1.8 5.8 1.8 7.7 0 1-1 2-2.7 1.4-2.7l-1.2.2c-3.8 1-8.2-1-11-3-5.8-4.4-13-2.8-14 0v-5l-1.2 1-1-1v5c-1-.8-2.2-2.7-6.7-2.7-8 0-8.4 6-16.8 6h-3c-.2-.2-.6-.2-.6-.2-.2.2.8 2 1.5 2.5 2.4 2.6 5 1.5 8 0zm14.6-10l2-2 1.8 1.7 1.8-1.8 2 2.2 1.5-1.8 2.8 2c-1-2.2-2.4-4-2.2-7.3-2.7 2-9 2.4-12 0 0 3-1 5-2 7.3l2.6-2.3 1.6 2zm9.5-7.5c-1-1-3-1-4.6-1v1.7h-2.2V44c-1.7 0-3.5 0-4.7.8.2 2 9.2 2.7 11.6 0zm-6.3-10.4v10.8h1.4V40l5 2.4-2.7-3.7 3.7-1.2-6-3c1.5-.4 1-1.4-.5-1.4s-2 1-.8 1.4z"/></svg>
