<svg xmlns="http://www.w3.org/2000/svg" width="240" height="160" viewBox="0 0 60 40"><path fill="#009B3A" d="M0 0h60v40H0z"/><path fill="#FEDF00" d="M5 20l25 16 25-16L30 4 5 20z"/><circle fill="#002776" cx="30.1" cy="20" r="10.5"/><path fill="#FFF" d="M26.6 26.4l-.3-.2-.3.2V26l-.3-.3h.4l.2-.3.2.4.4.1-.3.1v.4zm7.1 1.8l-.3-.2-.3.2.1-.4-.3-.3h.4l.2-.3.2.4.4.1-.3.3-.1.2zm-3-2.9l-.3-.2-.3.1.1-.3-.2-.2h.3l.2-.3.1.3.3.1-.2.2v.3zm7.2-1.1l-.3-.2-.3.1.1-.3-.2-.2h.3l.2-.3.1.3.3.1-.2.2v.3zm-7.4-2.1l-.3-.2-.3.2.1-.4-.3-.3h.4l.2-.3.2.4.4.1-.3.3-.1.2zm-8.7-3.3l-.3-.2-.3.2.1-.4-.3-.3h.4l.2-.3.2.4.4.1-.3.3-.1.2zm1 4.4l-.3-.2-.3.2.1-.4-.3-.3h.4l.2-.3.2.4.4.1-.3.3-.1.2zm11-6l-.3-.2-.3.1.1-.3-.3-.2h.3l.2-.3.1.3.3.1-.2.2.1.3zm-.6 2.8l-.2-.1-.3.1.1-.3-.2-.2h.3l.1-.2.1.2h.3l-.2.2v.3zm-11.9 4l-.2-.1-.3.1.1-.3-.2-.2h.3l.1-.2.1.2h.2l-.2.2.1.3zm16.6 1l-.2-.1-.1.1v-.2l-.1-.1h.2l.1-.2.1.2h.2l-.2.1v.2zm-16.6-1l-.2-.1-.3.1.1-.3-.2-.2h.3l.1-.2.1.2h.2l-.2.2.1.3zm0 0l-.2-.1-.3.1.1-.3-.2-.2h.3l.1-.2.1.2h.2l-.2.2.1.3zm3.5 0l-.2-.1-.3.1.1-.3-.2-.2h.3l.1-.2.1.2h.2l-.2.2.1.3zm-.5 1.1l-.2-.1-.2.1.1-.3-.2-.2h.3l.1-.2.1.2h.2l-.2.2v.3zm7.3-2.1l-.2-.1-.3.1.1-.3-.2-.1h.3l.1-.2.1.2h.2l-.2.2.1.2zm-2.2 0l-.2-.1-.2.1.1-.3-.2-.2h.3l.1-.2.1.2h.2l-.2.2v.3zm-5.7-.7l-.1-.1-.1.1v-.2l-.2-.1h.2l.1-.1.1.1h.2l-.1.1-.1.2zm13.9 3.6l-.2-.1-.2.1.1-.3-.2-.2h.3l.1-.2.1.2h.2l-.2.2v.3zm-1.7.2l-.2-.1-.2.1v-.2l-.1-.2h.2l.1-.2.1.2h.2l-.2.1.1.3zm.8 0l-.2-.1-.2.1v-.2l-.1-.1h.2l.1-.2.1.2h.2l-.1.1v.2zm2.4-2.1l-.2-.1-.1.1v-.2l-.1-.1h.2l.1-.2.1.2h.2l-.1.1-.1.2zm-3.2 3.3l-.2-.1-.2.1v-.2l-.2-.2h.2l.1-.2.1.2h.2l-.2.2.2.2zm0 1l-.2-.1-.2.1v-.2l-.2-.2h.2l.1-.2.1.2h.2l-.1.1.1.3zm-1.6-2.2l-.2-.1-.2.1v-.2l-.1-.1h.2l.1-.2.1.2h.2l-.1.1v.2zm-1.6 0l-.1-.1-.2.1v-.2l-.1-.1h.2l.1-.2.1.2h.2l-.1.1-.1.2zm-2.5-2.2l-.2-.1-.2.1v-.2l-.1-.1h.2l.1-.2.1.2h.2l-.1.1v.2zm.3 4.5l-.1-.1-.1.1v-.2l-.1-.1h.2l.1-.1.1.1h.2l-.1.1-.2.2zM26.6 21l-.3-.2-.4.2.1-.4-.3-.3h.4l.2-.3.2.4.4.1-.3.3v.2zm13.3 2.8c.2-.4.4-1.1.5-1.6-5.6-4.9-11.8-7.4-19.6-6.9-.3.5-.5 1.1-.7 1.7 9.2-.9 16.1 3.2 19.8 6.8z"/><path fill="#009B3A" d="M37.4 21l.2.1c-.1.1 0 .2.1.3.1.1.2.1.3 0 .1-.1-.1-.2-.1-.3-.1-.2-.2-.3-.1-.5.1-.1.3-.2.5 0s.3.4.2.5l-.3-.1c.1-.1 0-.2-.1-.3-.1 0-.2-.1-.2 0-.1.1.1.2.1.3.2.2.3.3.1.6-.1.2-.3.2-.6 0-.2-.2-.2-.4-.1-.6zm-.9-.6l.2.1c-.1.1 0 .2.1.3.1.1.2.1.3 0 .1-.1-.1-.2-.2-.3-.1-.1-.2-.3-.1-.5.1-.1.3-.2.5-.1.3.2.3.4.2.5l-.2-.1c0-.1 0-.2-.1-.3-.1 0-.2-.1-.2 0s.1.2.1.3c.2.2.3.3.2.6-.1.2-.3.2-.6.1-.3-.2-.3-.4-.2-.6zm-1.2-.3l.6-1 .7.4-.1.2-.5-.3-.1.2.5.3-.1.2-.5-.3-.2.2.5.3-.1.2-.7-.4zm-1.7-1.4l.1-.2.4.2-.2.4c-.1 0-.3 0-.5-.1-.3-.2-.4-.5-.2-.8.2-.3.4-.4.8-.3.2.1.3.3.3.5l-.3.1c0-.1 0-.2-.1-.3-.2-.1-.3 0-.5.2-.1.2-.1.4.1.5.1 0 .2.1.3 0l.1-.1-.3-.1zm-7.4-1.9l.2-1.1.3.1.1.8.3-.7.3.1-.1 1H27l.1-.9-.4.9h-.2v-1l-.1.9-.2-.1zm-1.2-.1l.1-1.2.8.1v.2l-.6-.1v.3l.6.1v.2l-.6-.1v.3l.6.1v.2l-.9-.1zm-3.8-.7c0-.4.2-.6.6-.6.3 0 .6.2.5.6 0 .4-.2.6-.6.6-.3 0-.6-.2-.5-.6zm.2 0c0 .3.1.4.3.4.2 0 .3-.1.3-.4 0-.2-.1-.4-.3-.4-.2 0-.3.1-.3.4zm1.1.6v-1.2h.5c.3 0 .5.1.4.3 0 .2-.1.3-.3.3l.1.1c.1.1.2.3.3.4h-.3c0-.1-.2-.4-.3-.4-.1-.1-.1-.1-.2-.1v.5l-.2.1zm.3-.7h.4c.1 0 .1-.1.1-.1 0-.1 0-.1-.1-.1h-.4v.2zm1-.4h.4c.3 0 .5.2.5.6 0 .4-.2.6-.6.5h-.4l.1-1.1zm.2.2v.8h.3c.2 0 .2-.2.2-.4s0-.3-.2-.4H24zm5.5 1.8l.3-1.1c.1 0 .5.1.6.2.1.1.2.2.1.4 0 .2-.2.3-.3.3-.1 0-.3-.1-.4-.1l-.1.4-.2-.1zm.4-.8l-.1.3c.1 0 .2.1.3.1.1 0 .1-.1.1-.1 0-.1 0-.2-.1-.2 0-.1-.1-.1-.2-.1zm.6 1.2l.4-1.1c.1 0 .6.2.7.3.1.1.1.2.1.3-.1.2-.2.2-.4.2l.1.1c0 .1.1.4.1.5l-.3-.1c0-.1-.1-.4-.1-.5 0-.1-.1-.1-.2-.1l-.2.5-.2-.1zm.5-.6c.1 0 .3.1.4.1.1 0 .1 0 .1-.1s0-.1-.1-.2l-.3-.1-.1.3zm.9.5c.1-.3.4-.5.7-.4.3.1.5.4.4.7-.1.4-.4.5-.7.4-.4 0-.5-.3-.4-.7zm.2.1c-.1.3 0 .4.2.5.2.1.3 0 .4-.3.1-.2 0-.4-.2-.5-.2-.1-.3.1-.4.3zm2 1.5l.5-1c.1.1.6.3.7.4.1.1.1.2 0 .3-.1.1-.2.2-.4.1l.1.1c0 .1 0 .4.1.5l-.2-.1c0-.1 0-.4-.1-.5 0-.1-.1-.1-.2-.2l-.2.4h-.3zm.6-.5c.1 0 .3.2.3.2.1 0 .1 0 .1-.1v-.2s-.3-.1-.3-.2l-.1.3zm3.7 2.6c.2-.3.5-.4.8-.2.3.2.3.5.1.8-.2.3-.5.4-.8.2-.2-.1-.3-.4-.1-.8zm.2.2c-.2.2-.1.4 0 .5.1.1.3.1.5-.2.1-.2.1-.4 0-.5-.2-.1-.3-.1-.5.2zm-10.4-4.6l.2-.8.6.1v.1l-.4-.1v.2l.4.1v.1l-.4-.1-.2.3.5.1v.1l-.7-.1z"/></svg>
