<svg xmlns="http://www.w3.org/2000/svg" width="240" height="160" viewBox="0 0 900 600"><path fill="#009B3A" d="M0 0h900v600H0z"/><path fill="#FEDF00" d="M76.5 300L450 538.5 823.5 300 450 61.5 76.5 300z"/><circle fill="#002776" cx="450" cy="300" r="157.5"/><path fill="#FFF" d="M606 322.1c-1.2 8.5-3.1 16.9-5.6 24.9-63.7-57.2-148-92-240.4-92-21.3 0-42.2 1.9-62.5 5.4 2.2-8.3 5-16.4 8.4-24.1 17.7-2.5 35.7-3.8 54.1-3.8 93.7 0 179.5 33.7 246 89.6z"/><path fill="#FFF" d="M323.9 272.5l1.5 4.7-4-2.9-4 2.9 1.5-4.7-4-2.9h4.9l1.5-4.7 1.5 4.7h4.9l-3.8 2.9zm13 63.3l-1.5-4.7-1.5 4.7H329l4 2.9-1.5 4.7 4-2.9 4 2.9-1.5-4.7 4-2.9h-5.1zm-19.6 14.5l-1.3-3.9-1.3 3.9h-4.1l3.3 2.4-1.3 3.9 3.3-2.4 3.3 2.4-1.3-3.9 3.3-2.4h-3.9zm134.2 19l-1.5-4.7-1.5 4.7h-4.9l4 2.9-1.5 4.7 4-2.9 4 2.9-1.5-4.7 4-2.9h-5.1zm-63.1 11.3l-1.5-4.7-1.5 4.7h-4.9l4 2.9-1.5 4.7 4-2.9 4 2.9-1.5-4.7 4-2.9h-5.1zM557.9 356l-1.5 4.7 4-2.9 4 2.9-1.5-4.7 4-2.9H562l-1.5-4.7-1.5 4.7h-4.9l3.8 2.9zm-59.5 48.3l-1.3-3.9-1.3 3.9h-4.1l3.3 2.4-1.3 3.9 3.3-2.4 3.3 2.4-1.3-3.9 3.3-2.4h-3.9zm30.2-8l-1.3 3.9h-4.1l3.3 2.4-1.3 3.9 3.3-2.4 3.3 2.4-1.3-3.9 3.3-2.4h-4.1l-1.1-3.9zm30-16.3l-1.3-3.9-1.3 3.9h-4.1l3.3 2.4-1.3 3.9 3.3-2.4 3.3 2.4-1.3-3.9 3.3-2.4h-3.9zm9.4-12.3l-1.3-3.9-1.3 3.9h-4.1l3.3 2.4-1.3 3.9 3.3-2.4 3.3 2.4-1.3-3.9 3.3-2.4H568zm-98.5-29.8l-1.3-3.9-1.3 3.9h-4.1l3.3 2.4-1.3 3.9 3.3-2.4 3.3 2.4-1.3-3.9 3.3-2.4h-3.9zm-21.6-11.4l-1.3 3.9 3.3-2.4 3.3 2.4-1.3-3.9 3.3-2.4h-4.1l-1.3-3.9-1.3 3.9h-4.1l3.5 2.4zm52.7-77.4l-1.3-3.9-1.3 3.9h-4l3.3 2.4-1.3 3.9 3.3-2.4 3.3 2.4-1.3-3.9 3.3-2.4h-4zm-110.5 51.7l-1.2 3.8h-4l3.2 2.4-1.2 3.8 3.2-2.4 3.2 2.4-1.2-3.8 3.2-2.4h-4l-1.2-3.8zm194 56.7l2.7-2h-3.4l-1-3.2-1 3.2H578l2.7 2-1 3.2 2.7-2 2.7 2-1-3.2zm-91-63.6l2.7 2-1-3.2 2.7-2h-3.4l-1-3.2-1 3.2h-3.4l2.7 2-1 3.2 2.7-2zm33.4 93.4l-1 3.2 2.7-2 2.7 2-1-3.2 2.7-2h-3.4l-1-3.2-1 3.2h-3.4l2.7 2zm19.2.8l-1-3.2-1 3.2h-3.4l2.7 2-1 3.2 2.7-2 2.7 2-1-3.2 2.7-2h-3.4zm-15.6 28.6l-1-3.2-1 3.2h-3.4l2.7 2-1 3.2 2.7-2 2.7 2-1-3.2 2.7-2h-3.4zm-18.3-26.2l-1-3.2-1 3.2h-3.4l2.7 2-1 3.2 2.7-2 2.7 2-1-3.2 2.7-2h-3.4zm-26.1-3.5l-1-3.2-1 3.2h-3.4l2.7 2-1 3.2 2.7-2 2.7 2-1-3.2 2.7-2h-3.4zm-116-35.4l-1.1-3.5-1.1 3.5h-3.7l3 2.2-1.1 3.5 3-2.2 3 2.2-1.1-3.5 3-2.2h-3.9zm-5 16.5l-1-3.2-1 3.2h-3.4l2.7 2-1 3.2 2.7-2 2.7 2-1-3.2 2.7-2h-3.4zm70.4-29.8l-1-3.2-1 3.2h-3.4l2.7 2-1 3.2 2.7-2 2.7 2-1-3.2 2.7-2h-3.4zm-83.8-10.7l-.6-2-.6 2H348l1.7 1.2-.6 2 1.7-1.2 1.7 1.2-.6-2 1.7-1.2h-2.3zm90.7 23.5l1.7 1.2-.6-2 1.7-1.2h-2.1l-.6-2-.6 2h-2.1l1.7 1.2-.6 2 1.5-1.2zm8.4 71.4l-.5-1.5-.5 1.5h-1.6l1.3.9-.5 1.5 1.3-.9 1.3.9-.5-1.5 1.3-.9h-1.6z"/><path fill="#009B3A" d="M321.5 245.7c-.5-4.1-3.9-7.1-7.6-6.6-3.7.5-6.3 4.2-5.8 8.3.5 4.1 3.9 7.1 7.6 6.6 3.7-.5 6.3-4.2 5.8-8.3zm-6.7 5.4c-5.1 0-5.1-9.1 0-9.1 5.1-.1 5.1 9.1 0 9.1zm53.8-2.6l.1-3.9 8.6.3.1-2.6-8.6-.3.1-3 10.3.4.1-2.8-12.9-.4-.5 15 13.5.5.1-2.8-10.9-.4zM396 238l-3.9 10-2.1-10.5-3.7-.3L385 252l2.6.2.9-10.3 2.1 10.5 2.3.2 3.9-10-.9 10.3 2.6.2 1.3-14.9-3.8-.2zm32.7 8.6l.4-2.5-10.8-1.9-2.3 13.3 11.1 1.9.4-2.5-8.5-1.5.6-3.4 7 1.2.4-2.5-7-1.2.4-2.3 8.3 1.4zm121.7 44.2l1.4-2.4-11.2-6.3-7.4 13.1 11.8 6.6 1.4-2.4-9.5-5.4 1.9-3.4 7.5 4.2 1.3-2.2-7.5-4.2 1.5-2.6 8.8 5zm15.9 11.9c2-3.1-.6-5.8-2.2-6.8s-5.9-4-8.5-.2c-2.9 4.5 6.6 8.2 4.9 10.8-.5.8-1.8.9-3.6-.3s-2.6-2.6-1.8-3.8l-2.8-1.8c-2 3.2 1.1 6.3 3.2 7.6 2.4 1.6 6.1 3 8.2-.3 2.8-4.5-6.5-8.4-5-10.5.8-1.3 2-.9 3.4 0s2.4 2.2 1.5 3.6l2.7 1.7zm16 11.2c2.2-3-.3-5.8-1.8-6.9-1.6-1.1-5.7-4.3-8.4-.6-3.2 4.3 6.1 8.6 4.4 11.1-.6.8-1.8.8-3.5-.5-1.7-1.2-2.5-2.7-1.6-3.9l-2.7-2c-2.2 3.1.7 6.3 2.8 7.8 2.4 1.7 5.9 3.3 8.2.1 3.1-4.3-6-8.7-4.5-10.8.9-1.3 2-.8 3.4.2s2.3 2.3 1.3 3.7l2.4 1.8zm13 4.3c-3.3-1.7-7.5-.1-9.4 3.6-1.9 3.7-.8 8 2.5 9.8 3.3 1.7 7.5.1 9.4-3.6 1.9-3.7.8-8.1-2.5-9.8zm-6 10.4c-4.2-2.9 1-10.4 5.2-7.5 4.1 2.8-1 10.4-5.2 7.5zm-235.2-92.3l-7.5.1.3 15s5.9 0 7.5-.2c3.1-.3 5.9-2.5 5.9-7.3-.1-5.1-2.7-7.5-6.2-7.6zm-1.1 12.3h-3.4s-.1-7.6-.2-9.4h4.4c3.1.1 3.7 2.8 3.8 5.5-.2 2.6-2 3.9-4.6 3.9zm-14.4-3s1.6-1.3 2-3.2c.6-2.8-2.1-5.4-4.4-5.3-1.5.1-9.2.6-9.2.6l.8 15 2.8-.2-.4-5.6c5.6-.4 4.5-.3 6-.4 1.5 2.5 1.7 3.9 1.7 5.6h2.7c.1-2.3-.4-5-2-6.5zm-1.6-2.3c-.6.5-2.2.5-2.2.5l-4.6.3s-.2-2.6-.3-3.8c.7 0 4.4-.3 4.5-.3 1.4 0 1.9-.3 2.8.5.8.5.5 2.3-.2 2.8zM491.4 260c-3.7-.5-7.1 2.4-7.7 6.5-.6 4.1 2 7.8 5.7 8.4 3.7.5 7.1-2.4 7.7-6.5.5-4.1-2-7.8-5.7-8.4zm-2.2 11.9c-4.9-1.3-2.6-10.1 2.3-8.8 5 1.3 2.6 10.1-2.3 8.8zm-13.1-18.2c-1.5-.4-8.9-2.4-8.9-2.4l-4.1 14.4 2.7.7 1.4-5.4c5.5 1.5 4.3 1.2 5.8 1.6.6 2.9.4 4.3-.2 5.9l2.6.9c.8-2.1 1.1-4.8.2-6.8 0 0 1.9-.7 2.9-2.4 1.4-2.5-.3-5.8-2.4-6.5zm-1.4 6.1c-.7.3-2.3-.3-2.3-.3l-4.5-1.2s.7-2.5 1-3.7c.7.2 4.2 1.2 4.3 1.2.7.2 1.5.4 1.5.4 1.9.7 1.4 3.4 0 3.6zm56.6 16.1c-1.4-.6-8.6-3.2-8.6-3.2l-5.3 14 2.6 1 1.9-5.2c5.3 1.9 4.2 1.5 5.6 2 .4 3 0 4.3-.7 5.8l2.5 1.1c.9-2 1.5-4.7.7-6.7 0 0 2-.6 3.1-2.1 1.7-2.4.3-5.9-1.8-6.7zm-1.9 5.9c-.7.2-2.2-.4-2.2-.4l-4.4-1.6s.9-2.5 1.3-3.6c.6.3 4.1 1.5 4.2 1.5 1.3.5 1.9.5 2.4 1.5.6 1-.4 2.6-1.3 2.6zm-72-33.1c-1.5-.4-8.9-2.2-8.9-2.2l-3.8 14.5 2.7.7 1.3-5.4c5.5 1.3 4.4 1.1 5.8 1.4 2.6.6 4.6-1.1 5.4-2.6 1.4-2.5-.3-5.8-2.5-6.4zm-1.2 6.1c-.7.3-2.3-.2-2.3-.2l-4.5-1.1s.6-2.5.9-3.8c.7.2 4.3 1.1 4.3 1.1.7.2 1.5.4 1.5.4 2 .7 1.5 3.4.1 3.6zm58.9 19.7c-2.1-1-1.8-.6-2.8-1.1-.1-1-.5-2-1.5-2.7-4.2-2.9-9.4 4.7-5.2 7.5 1.6 1.1 3.4.7 4.7-.5l-2.1-.9.9-2c4.2 1.8 2.8 1.2 5.2 2.3l-3 6.9-2-.9.8-1.9c-1.7.7-3.7.7-5.4-.2-3.3-1.7-4.4-6.1-2.5-9.8 1.9-3.7 6.1-5.3 9.4-3.6 2.4 1.5 3.7 4.2 3.5 6.9z"/></svg>
