<svg xmlns="http://www.w3.org/2000/svg" width="240" height="160" viewBox="0 0 240 160"><path fill="#FFD520" d="M0 0h240v160H0V0z"/><path fill="#FF4E12" d="M0 160h240V0L0 160z"/><g fill="#FFF" stroke="#000" stroke-width=".139"><path d="M128.5 50c-1.3-.5-2.2.2-2.1 1.9 0 1.7.9 2.7 2.3 2.1l-.2-4zm1.1-3.2c-1.1-.9-2.1-.5-2.7 1.1-.5 1.7 0 2.9 1.5 2.7l1.2-3.8z"/><path d="M131.5 43.7c-1-1-2-.8-2.8.7-.8 1.5-.4 2.8 1 2.9l1.8-3.6zm-1.2 15.1c-1.6.6-1.8 2.8-.8 4.2 1 1.4 2.9 1.6 3.9 0l-3.1-4.2z"/><path d="M128.4 54.1c-1.5-.5-2.9 1.6-3.2 3.4-.3 2.4-3.7 3.1-1.8 6.7.4-2.3 1.9-3.5 3.1-3.6 1.2-.1 3-.3 3.8-1.8l-1.9-4.7zm4.9 9.2c-1.8.4-2.1 2.8-.8 4.5 1.1 1.5 4.5 1.1 4.5-.3l-3.7-4.2zm5.1 14.5c.1-1.5-2.4-2.1-3.6-1.8-1.2.3-3.5 0-4-1.3-.4 1 .2 2.1 1.9 2.7 1.3.4 1.3 1.4.9 1.8 1 .1 3.9.1 4.8-1.4zm-1.4-9.9c-1.8-.8-2.8.4-3.5 1.5-1 1.7-4-.5-5.1 1.8 1.4-.6 2.8.7 3.5 1.1 1.9 1.2 5.5.9 6.1-2.1l-1-2.3z"/><path d="M138 69.9c-1.8 1.3-2.4 2.9-2.4 4s1.5 3.4 3.2 3.6c.9-1.9 1.4-6-.8-7.6zm-7.3 8.3c0-.6.9-.9 1.6-.7.6.2 1.6.9 1.3 1.5l-2.9-.8zm-9.7-3.5c-.2-.8 1.1-2.1 2.7-1.4 1.7.7 1.9 2.1 1.2 2.7l-3.9-1.3z"/><path d="M125.1 76.1c-.1-.4 1.1-1.3 3.1-.8 2.1.5 2.6 1.8 2.5 2.9l-5.6-2.1zm-4.3-1.4c1.1-.8.7-2.4-.3-2.8-1.8-.9-1.1-3.1-2.2-3.5-1.1-.4-2.2-1.2-2.2-2-.6 1.1-.2 2.1.6 2.7.8.7-.6 3.5.4 4.2l3.7 1.4zm-23-.6c-.9-1.4-3-1.2-3.9-.2-.9 1-.8 2.4.1 3.1l3.8-2.9zm5.1-2.1c-.3-1.9-2.6-2.1-3.9-1.6-1.2.5-2.1 2.4-1.3 3.7l5.2-2.1zm3.5-.3c.8-1.6-.8-3.9-2.6-4.3-1.5-.3-3.3-.3-3.9-1.8-.4 1.3.6 2.1 1.7 2.8 1.1.7-.2 2.6 1.6 3.7l3.2-.4zm-.2.1c-.4-1.1.4-2.7 1.9-2.5 1.5.1 2.4 1.2 1.7 2.6l-3.6-.1z"/><path d="M109.6 71.9c-.2-1.2.8-2.6 2.3-2.3 1.5.3 2.2 1.6 1.4 2.8l-3.7-.5z"/><path d="M113 72.4c-.2-1.2.9-2.5 2.4-2.1 1.5.4 2.1 1.7 1.2 2.9l-3.6-.8zM87.1 92.1c-2.9 0-3.6.7-4 3.6-.5 3.7 4.5 4.2 4-3.6z"/><path d="M88.4 88.2c-4.4-1.7-6.8 5.3-11.2 4.1 1.6 2.5 5.4 0 6.8.3 2.4.4 7.6-.5 4.4-4.4zm-2.9 9.6c-2.2-1-4.5 2.4-4.1 3.8.6 1.9 5.6.3 4.1-3.8zm-10.2 14.4c1.2.3 2.7 1 2.4 3.3-.3 2.3-4.6 7-8.6 7.3-3.9.3-5.4 5-8.8 3.7 3.2-.6 3.2-4.2 5.7-5.3-1.8-.6-2.7 3.4-5.1 3.4s-3.4 3.7-6.3 3.4c-2.8-.2-3.1 4.5-8.8 4.6-4.3.1-9.7 5.1-11.6 2.9 4.2-.6 5.9-2.9 8.4-5.5 4.1-4.1 8.6-2.3 10.1-5.9-1.8 1.3-4 1.9-6.1 1.8-2.6-.1-5.5 4.2-8.5 2.3 1.7-.2 2.8-.9 4.6-2.8 1.9-1.9 4.6-.7 6.7-2.7 3.4-3.1 6.2-.5 9.5-4.4-.9-.4-2.8-.1-4.6.8-1.8 1-4.1-.6-6.2.5.3-2.5 5.1-1.1 8.1-2.8 3.4-2 6.2-1.4 8.9-1.1-3.7 0-5.2-3.5-10.3-2.5-2.2.5-4-3.1-6.3-1.3.1-1.3 2.4-2.4 4.8-1.1 2.4 1.3 3.4-1.1 8.2 1.9 2 1.3 5.4-.8 7.5.6-.3-.8-1.5-1.3-2.9-1.2.9-1.8 6.7-1.6 9.3.2l-.1-.1zm3.8-2.8c-1.9-1.5-4.5.3-6.3-.4 0 1.2.6 3 2.6 3.7.6-.4 3.3-2.8 3.7-3.3zm3-4.1c-3-1.5-3.5 2.2-5.8 1.5.1 1.1.9 2.4 2.8 2.7l3-4.2z"/><path d="M83.9 101.9c-4.4-1.7-4.9 2.5-7.5 1.7.6 1.5 4.3 2.2 6.2 1.7l1.3-3.4zm6-18.4c-1.2-1.6-3.6-.3-4 1.6-.4 1.9.6 4.6 2.2 4l1.8-5.6zm2.9-5.2c-2-.5-4.3-.3-4.1 1.7-.8.3-1 2.9 1.1 3.4l3-5.1z"/><path d="M94.2 77c-2-2.3-4.2-2.3-5.4-1.3-2.3 1.8-4.5.8-4.6 2.6 1.4-1 2.6.2 3.7-.2s1.9 1.8 5 .9l1.3-2zm-4.8 34.6c.3.6 2.1.8 3-.1 1.2-1.3-.1-4.7-2-5-1.8-.2-2 3.9-1 5.1z"/><path d="M87.3 111.7c2.7 1 3.9-1.2 2.4-2.7-.4.5-1.8 2.2-2.4 2.7z"/><path d="M77.1 115.4c-.5 1.5-3.2 1.8-6.2 6.6s-5.9 2.8-6.6 6.1c3.6-2.9 6.4-1 8.6-3.8 3.3-4.4 5.9-3.7 7.2-6.7 1.8-4.2 9.7-4.1 10.1-10.7-2.6-.6-11 6.6-13.1 8.5zm67.8-64.9c3.4 1.1 3.5 5.6 7.5 7 4 1.5 4.3 5 7.6 4.1-3-.8-2.8-4.3-5.9-5.1-3.7-1-5.1-6.6-8-7.5m14.5 24.8c.6 1.4.5 3.8-1.6 4.5 1.2.7 2.9.1 3.8-1.5-1.4 3.1-.5 6 1.8 6.5-1.1-2.2 1.3-3.2.6-4.6 1.4.6 2.7 2.5 2.6 3.7 1.9-2.1-1.4-4.8-.8-6.7l-6.4-1.9zm-22.2 22.1c-2.1-1.8-3 .5-4-.3-1-.7-2.3-.9-2.7-.1 1.8.1.9 1.5 4.4 1.8-3.5.2-2.9 4.2-5.2 3.9 2.5 2.4 3.8-2.1 5.8-1.4-.6.2.9 1.6-.1 3.5 1.7-.1 2.4-2.5 2.7-3.7l-.9-3.7zm-46.3 20c-.8-.6-3-.9-3.9-.4-.9.5-.6.6.5.7 1 .1 2.4 1.8.1 1.8-1 .1-.7 2.5-2.8 2.7.9 1.1 3.4.4 4.3-.8-.2 1 1.1 1.8.6 3 1.6.2.7-3.2 3.2-3-1 .1-.6 2.5 1.2 1.8-1.1.5-.5 1.8.7 1.5-.8.3-1 1.3 0 1.8 1-1.3-.2-6.4-3.9-9.1zm93.5-47.3c3.3 0 5.9-2.7 5.9-5.9 0-3.3-2.7-5.9-5.9-5.9-3.3 0-5.9 2.7-5.9 5.9-.1 3.2 2.6 5.9 5.9 5.9z"/><path d="M154.5 75.7c1.8-1.7 4.6-2.6 6.4-1.3 1.9 1.3 8.2 2.8 11.2.7 3.1-2.2 4.6-3.3 5.9-3 1 1.5 2.3 2.3 3.8 2.4.5.5 2.1.9 3.1.8 1.4.3 3-.1 4.4-1.5 2.1.3 4-1.3 4.7-3.6 2.2-.3 2.3-2.7.9-4.3-1.3-.3-.3-4.6-5-3.7 2 1.2.5 3.6 2.1 4.7-1.1 0-2.6.5-2.9 2.1.4-1.2-.1-1.9-.4-2.2 0-1-2.1-3.4-4.2-2.5 1.5.3.6 2.7 1.7 3.6-.8 0-1.6.4-2.1 1.1-.6-1-2.5-2-3.7-2.1 0-.3-.1-1-.2-1.4-.5-1-1-2.3-.8-3.8-1 1.1-1.9 2.7-2.4 3.8-1.6-1.1-5.7.5-7.6.9-1.9.4-8.3-.6-9.7-2.2-1.5-1.5-4.3-2.5-7-3.3-3.7-1.1-3.7-5.1-7.7-7.8-.1 5 7.5 20.8 9.2 22.5l.3.1zm-42.1 38c3.2 0 5.8-2.6 5.8-5.8s-2.6-5.8-5.7-5.8-5.8 2.6-5.8 5.8c0 3.2 2.6 5.8 5.7 5.8zm-13.7-4.4c1.2 1.5 3.1 1.4 3.9 1.3.7 1.8 2.9 1.8 3.8 2.7.9 1 4.2.9 5.1.3-.9-.1-2-.6-3-1.5-1.3-1.1-.7-3.3-1.7-4 .8-.9.9-2.3.7-2.9.8-.5 1.4-1.3 1.5-1.6 1.4-.1 2.7-.8 3.2-1.4.7.7 2.6-.2 3.6.9.2-2.8-2.5-4.3-4.3-3.4-.7-.4-2.7-.1-3 .4-.6-.3-2.3.6-3 1.1.9-.5 1-1.9.6-2.4.7-.3 1.5-1.3 1.6-2 1 .2 2.6-.5 3.3-.3-1.1-1.5-3-2-4.9-1.8-1.9.1-2.8 1.5-3 3-1.1.7-1.5 3-1.1 3.8-.7 0-1.3.6-1.5 1-.9-.4-2.2-.7-3.1-.7m.4-2.4c-.4-1.1.1-2.1.4-3 .7-2.3.3-2.8-1.8-2.5-.1 1.1.9 4.6 1.4 5.5z"/><path d="M96.2 94.1c.5.5 2.3.8 2.5-.9.2-1.9-.5-2.6-2.2-1.9-.1.5-.2 2.3-.3 2.8z"/><path d="M96.6 91.3c.7.3 2.2.8 3-.8.7-1.3-.2-2.4-1.6-2.3-.4.5-1.1 1.8-1.4 3.1z"/><path d="M97.9 88.1c.2.5 1.9 2.2 3.2 1 1.3-1.2 1.3-3.1-.6-3.8-.6.1-2.1 1.9-2.6 2.8z"/><path d="M100.4 85.4c.4 1.1 1.6 2.9 3.8 2.1 2.2-.9 1.3-3.6.3-4.2-.6 0-3 1.1-4.1 2.1z"/><path d="M104.5 83.2c-.2.9 0 3.5 3 3.5s2.2-3.6 1.4-4.1c-1.2 0-3.3 0-4.4.6z"/><path d="M109.1 82.7c-.3.7-1.1 5.5 4.9 4.2.7-.2 2.7-4.6-4.9-4.2z"/><path d="M112.4 83.1c-.6.6.9 5.5 5 4.6 4-.8.6-5.4-5-4.6z"/><path d="M115.8 83.9c-.6 1.3.3 5.3 5.3 5.3 4.5-.1-.2-5.3-5.3-5.3z"/><path d="M119.7 85c-.3.7-.7 4.9 5.2 5.3 4.2.2 3.2-5.8-5.2-5.3z"/><path d="M126 86.8c-.7 1.3-1.5 4.5 4.9 4.8 4.2.1 1.6-4.7-4.9-4.8z"/><path d="M131.4 87.8c-.9 1.3-.2 3.8 2.1 4.3 3 .6 3.4-2.2 1.4-3.6-2.1-1.4-3.5-.7-3.5-.7z"/><path d="M134.3 88.4c-.7 1.2-.3 4.1 4.3 4.1.9 0 4.5-3.7-4.3-4.1zm-35.2 55.9c3.7 0 6.7-3 6.7-6.7s-3-6.7-6.7-6.7-6.7 3-6.7 6.7 3 6.7 6.7 6.7z"/><path d="M148 47.2c-.5.5-1.6 2.1-1.8 2.7-2.2 6.7 3.7 11.7 7.2 18.9 2.7 5.7 2.4 14.6-1.9 20.3-1.5 1.9-1 2.5-2.9 4.5-.7.8-1.5 1.7-1.3 4.5 1.2-.4 2.9.7 3.3 1.6.9-.4 2.1-.2 2.5.3 1.4-.7 2.6-.3 3.9 1 1.1-.2 2.3 0 3.4 1.2.6-1.2 1.8-1.6 2.7-1.4-.1-1.5 1.5-2.6 2.8-2.1-.4-2.1 1.4-3.6 3.3-3 1.5-1.2 4.6-1.3 6.2.5-2.7-.8-2.7 2.2-5 1.9.6 1.7-1 2.7-2.5 3.3 1-.5 2.1-1 2.4-.4.9-.7 2.6-.5 3-.1 1.1-.4 2.2-.1 2.7 1.3 1.5 1 2.6 3.4 1.5 5.1-.3-1.9-1.6-1.8-2.2-2.6-1.2.4-2.4.4-2.7-.3-.7.7-3 1.3-4.1.3-.4 1.5-1.7 2.9-3.3 2.9.4 1.2-.8 3.3-1.7 4.3 1.5.8 1 2.5.7 3.5 2.2.3.3 2.3 4.2 3.6-1.9.6-5.6 0-6.1-2.3-1.9-.1-3.2-2-3.1-3.9-1.5-1.4-1.7-3.4.3-4.7-1.7.5-2.7-2.2-5.2-1.1-1.2.6-4.5-.4-4.5-1.5-.5.9-3.7.5-4.1-1-1 .6-3.4-.4-3.4-1.8-1.3.6-3.1-.5-3.1-1.8-1.3-.2-1.4-1.3-1.3-2.2-1.1-.5-.8-1.6-.4-2.9-.8-.9-.4-2.1.2-3.2-.9-.9-.7-1.9-.4-3.1-4.1-.3-9.3-1.3-21.1-5C98.3 79 93.5 91.9 97.5 100c4.6 9.3-.5 11.3 1 18.3 1.6.3 2.5 1.7 2.4 3.2 1 .1 1.7.9 1.3 2.7.8-.2 1.9.1 2.6.8.6-1.1 2.6-1.4 3.6-.1 2.2-.2 3.3 1.6 3.3 3.9 1.2 2.2.8 4.8-.5 6.5.1-.9 0-2.2-.1-3-.1-1.4-2.1-1.7-1.9-2.9-1 .1-2-.5-2.4-1.2-.6.5-1.5.7-2.2.4 1.2.5 2.1 2.6 1.7 3.9.6 1 .5 2.9-.3 3.7-.3 1.7-1.6 2.3-3.3 1.5.9-.6 1.3-1.7 1.2-2.6-.6-.5-.9-1.5-.9-2.1-1.7.3-4-1.2-4.4-1.7-3.7 0-6.7 3-6.7 6.7-.2-1.4-1.9-2.7-1.7-3.9-1-3.2.4-6.1 4.6-6.7-.5-1.2 1.3-2.5.6-3.8-.9-1.8-2.5-4-4.9-6.7 1.5-2.5 1-5.8.2-7.9-1.2-3-2.4-2.2-6.8 2.6-7.1 7.8-16.6 5.7-25.1 10.8-2.2 1.4-4.5 1.9-2.1-.5s8.8-4.9 12.9-6.9c7.7-3.9 14.2-10.3 16.8-22.9 6.1-29.5 28.3-19.8 42.4-14.3 13.2 5.2 10.8-6.5 4.1-13.6-8.1-8.5-6.4-15.1-2.7-20.4 6.8-.9 19.8 1.4 17.2 3.7l.6-.3z"/><path d="M172 119.6c4.1 0 7.3-3.3 7.3-7.3 0-4.1-3.3-7.3-7.3-7.3-4.1 0-7.3 3.3-7.3 7.3-.1 4 3.2 7.3 7.3 7.3z"/></g><g fill="none" stroke="#000" stroke-width=".139"><path d="M143.9 47.6c-1.6 7.2-.3 10.5 2.1 13.7 5 6.6 8.9 21.5 3.3 31.3"/><g stroke-linecap="round"><path d="M152.5 84.1c.7-.3 2-1.1 2.3-2.5M153 81c.2-1.2 2.1-1.8 2.2-3.1m-2.1-1.8c-.1-1.3 1.9-2.5 1.6-3.7m-2.8-.9c-.2-.7 1.7-2.1 1.2-3.3m-2.6-1.3c-.4-.8.9-1.8.3-2.6m-2.3-1c-.1-.6.7-1.8.2-2.5m-2.3-1.7c.2-.2.9-.7.6-1.4m-2-1.8c.3-.2 1.1-.4 1-1"/><path stroke-linejoin="round" d="M102 137c-1.7-.6-3.9.3-4.3 1.7M99 140c.2-1.4 2.5-2.1 3.1-1.4-1.4-.8-2.1 2-.9 2.1m11.6-34.6c-1 .5-1.3 2.4 0 3.8m1.6-3.4c-.7.6-.7 2.4.4 2.8-.9-.6 0-1.8.6-1.8.6-.1 1.1.7.3 1.5m59 1.8c-2.4-.6-4.3 2.2-2.2 4.6-.1-2.4 1.7-4 3.8-3.5m-1 1.6c-.6 0-.9.5-.9.9 0 .5.4.9 1.1.9.4 0 .8-.5.8-.9m7.5-53.5c.4 1.5 2.4 2.1 4 1.7m0-.9c-1.3.1-2.3-1.1-2.2-2.1 0 .7 1.7 1.1 2.2.6"/><path d="M102.6 110.6c-.3-.9 1-1.7 1.1-2.5 0-.8 1.5-1.5 3.1.1m-.7-9.2c-.3.1-.6.3-.8.4m3.7 4.2c-.4 0-1.1 0-1.5-.3m0 1.9c-.3.1-1 .4-1.4.5m-13.3 25.5c0 .8.7 1.9 1.2 2.2m2.1-4c-.4.6-.7 1.8-.4 2.5m6.8 0c-.8-.5-.3-1.8-.3-2.7s.9-2.2 2.8-1.1m-9.7-1.1c.8-.1 1.6-.1 2.1.1m7.7-2.5c-.3.5-.4 1-.5 1.3m4.1-1.4c-.6 0-1.1.4-1.4.9m-6.9-22.9c.7.2 2.5 1.3 2.5 2.5m4.8-8.1c-2.1 0-2.9-2.2-1.3-2.2m5.1 5.1c-.8.3-.4 1.8.7 2.4m-5.8 11.1c-.4-.5.1-2 1.5-1.6m1.7 17.3c.1-1.3 1.7-2.1 2.4-.6m-8.5 4.3c-.1-1.4.6-1.9 1.3-2 .6-.1 1.6.4 2 1.4m-16.1 1.6c.1-.9.8-1.8 1.6-1.6m76.9-36.5c-.6.4-.9 2.2 1.2 2.4m-4.4.6c0 .2.3.5.5.6m9.6 2.8c-.6-.4-2 1.3-.7 2.6m-12.9 11.8c-.3-1.2.8-1.5 1.9-1.3m-4.7-7.4c.6-.4 1.3-.9 2.1-1.1m-2.4 5.9c0-1 .5-1.9 1-2.1m2.7-9.8c-.1 1.2.4 2.5.8 3.1m9.5-3c-.6.2-1.2.4-1.4.9m.7 2.6l.8-.8m15.4-36.7c0 1.2-1.5 1.8-2.5 1.1m5.8-1c.7.5 3 0 2.4-1.3m-5.2 8.2c-.5-.1-1.3-.6-1.6-1m6.3-2.6c-.8.2-1.3 0-1.7-.2m-10.5 4.5c.4 0 1.5-.2 2.2-.5m-3.5-7.1c-.6-.1-1 0-1.3.3m9.9 1.8c-.2.5-.5 1.4-1 1.7"/><path stroke-linejoin="round" d="M179.2 70.9c1.1-.5 2.4 3.2 5 1.9m.2-3.8c-.3.5-.6 1.2-.6 1.8"/></g><path d="M133 63.5c.3 0 .9-.2 1.1-.6m-45.3 40.5c1.3.7 2.2 2 1.6 3.8m57.5-47.7c.4.3 1.8.3 2.7 0m1 .9c0 .6.1 2.9-1 3.4m.4-.4c1.1.3 3.2.2 3.9-1.8m-1.6 1.8c.6.9.7 2.5-1 3.4m1.4-2c1.2.4 4.1.5 3.8-2m-.9 2c.9 1.2 4.6 2.6 4 .1m-7.5 3.4c1.5.3 3.5-.6 2.7-3.2m4.1 1.3c.2 1 5 2 4.4-.2m-1 1.2c.9 2.1 5.7 1.9 4.2-.9m-.8 2.2c.9 1.2 5.1.5 3.5-2.3m-.1 2.3c2.6 2 5.7-.9 2.4-2.9m1.5 2.3c2.3 1.9 5.1-1.5 3.1-2.4m-21.4 1.6c.7.2 2.3.1 2.6-1.2m-.5.9c-.1 2 3.2 2.7 4 .5m-1.1 1.1c.6 1.3 3.5 1.8 3.9 0m-.4.9c.5 1.3 3 1.1 3.7-.2m-1 .9c.8 1.7 3.9 1.7 4.7-.8m-.5 1.1c1.2.8 3.9.5 3.7-1.9m-.6 1.7c1.8 1.5 4.5.1 3.2-2.5m-.1 4.4c1-.2 1.5-2.2.5-2.7m-23.4 3c2.1-1.1 2.5-3 1-4.9m.8 3c1.3.8 3.7 0 4.2-1.9m-2.5 2.2c.7.9.9 2.1-.1 3.2m.8-2c2.3-1.4 5.1 1.2 3 2.8m-.4-3c.5-.1 1.4-1.1 1.5-2.1m-.5 3.1c1-1 7.4 1 3.3 3.1m-.2-5.8c1.3.5 1.9 2.2 0 2.8m1.6 1.5c1.4-1.4 5.7-.5 4.1 1.3m-1-1.9c.8-2.6 5.4-1 3.9.1m-4.8-2.7c.1.5.2 1.8-.7 2.5m4.5-3c.2.4.1 1.2-.3 1.8m3.2-1.8c.3.5.7 1.4-.2 2.1m-36.5-21.8c.1 2.5.9 4.1 4.2 2.5m-3.1.4c-1.6 2.2.2 4.6 3.4 2.2m-8.5-1.1c2.2 2.4 6.2.6 3.7-3m2.7 5c-.4 2.4 1.5 2.8 3.1 1.8m-11.5-3.4c.4 2.4 2.9 4.3 5.2 2.8m-2.2.4c0 3.4 4.7 3.8 5.8.3m-1.7 2.2c1.5 3.1 4.8 1.8 5.8 0m-9.1-4.9c.6 1.5 1.8 3.2 4.6 1.9m-13.2-2.7c.4 1.3 2.6 2.7 5.2 1m-3.6.6c-1.4 2 1.4 3.9 4.7.9m-3.1 1.6c.6 2.9 1.7 5.1 5.7 1.5m-1.9 1.5c1.5 1.8 3.7 2.9 5.8-.1"/><path d="M142.4 62.9c-.1 2.1.3 3.2 2 3.1 1.3-.1 2.6-1.1 3.3-2.2m-3.6 2.3c0 2.4 1.9 4.4 5.5 1.9m-4 .9c-.7 1.8 1.4 4.9 5.4 3.3M137.1 64c-.3 2.3 1.9 3.9 5.5.9m-3.9 1.8c.1 1.9 2.3 4.2 5.5.9m-3.9 1.5c-.3 3.3 2.8 4.2 5.4 1.7m-10-4.1c.7 0 1.3-.6 1.6-1m-.2 3.4c.6.1 1.6-.4 2-1.1m-.4 5c.7.7 3 .2 3.3-.8m-.7.7c1.3 3 4.7 2.9 6.1-.5m-.7 1.2c.6 1.8 2.3 2.9 4.9 2.3m-3.6-.5c-1.5 2.4.5 5.3 3.8 2.5m-3 1.2c-.2 1.5 1.3 3.3 3.2 3.5m-9.5-8c-.5 3.5 2 5.1 5.1 3.3m-8.8-1.7c.8.6 2.3.7 3.7.2m1.6 2.1c-.8 2.9 2.2 5 4.8 1.8m-8.9-3.6c0 1.5 1.5 3.1 4 2.7m7.1 3c-1.7 1.2-2.1 3.2.3 4.5m-4.5-5.1c.1 1.8.9 2.7 2.8 2.9m-5.3-3.8c-2.6 2.3 0 5.1 3 2.8m-1.2.6c-.9 2.7 2.4 4.3 4.1 1.6m-9.4-7.3c-.9 2.7.3 4.4 2.4 4.2m-5.8-4.7c.1 1.6 1.5 2.1 3.1 1.8m-2.1-.1c-1.1 2.2.6 3.4 2.9 2.6m7 5c-.4 1.4-.2 2.5 1.9 2.9m-1.7-.9c-2.5 1.2-2.7 3.6-.8 5.2m-1.3-7.9c-1.3 1.2-1.1 3.3.4 4.1m-11.6-11.9c-1.4 1.4-.1 5.4 3.2 3.3m5.2 1.7c-2 1.7-1.1 4.6 2.2 3.8m-5.5-5c-1 2.9 0 3.9 2.3 4"/><path d="M133.1 78.7c-1.8 1.3-1.3 3.2-.5 4.1.8.9 2.2.5 2.7-.6m-5.9-4.7c-2 2.5 0 5.5 2.8 4.6m7.8 3c-2 .7-3.6 2.6-2.3 4.2.7.9 3.9 1.1 4.8-2.6m-6.2-4c-1.2 1.7-.8 3.3 1.4 4.1m-1.5-1c-1.2.7-2.1 1.5-1.8 3m-1-5.6c-.5 2 .1 3.3 1.3 3.9m-1.3-1.5c-1.9-.1-2.9.7-2.3 2.6m.2-2.1c-1.9-.7-2.2-2.3-1.4-4m-.3 2.5c-2.1.1-3 1.1-3 2.5"/><path d="M126.8 76.6c-1.5.6-2 2.7-1.4 3.8.6 1.1 2.3 1.2 3.4.5m-6.2-5.9c-1.4 1.5.2 4.6 2.7 3.8m-6.2-5c-1.3 1.8.1 4.8 3.4 4m.2 8.4c-.3-2.1 1.9-3.5 4.6-.8m-1.3-4.3c-.8.7-1.2 1.9-1.1 2.9m-9.3-11.2c-1.4 2.4.3 4.6 3.4 3.7m4.5 2.3c-2 2-1.3 4 .2 5.2m-1.5-2.9c-3 .1-3.2 3.6-.7 4.7m-1.6-8.2c-1.2.9-1.6 3.2.5 4.2m-.5 1.1c-1.3-.6-2.8.1-2.7 1.7m.8-1.6c-1.1-2.7-4.5-2.3-4.2.6m5.1-4c-.7.1-2.2.6-2.7 1.7m.2-4.8c-1.4 1.5-.3 3.4.8 3.8m-4.9-8.1c-.3 1.8.5 2.7 2.8 2.6m-1.9-.2c-.9 2.2.3 3.2 2.6 3.1m-2.1-.4c-1.4 1.6-.4 3.4.9 4.1m-1.5-2c-2.4-.3-2.8 2.5-2 3.9"/><path d="M110.9 71.8c-1.5.6-2.4 2.5-1.5 3.7.8 1.2 2.4.8 3.3.2m-2.8.4c-1.2 1.9-.1 3.3 1.2 3.9"/><path d="M105.1 71.6c-1 1-.4 3.1 2 3.2 1.9 0 2.9-1.8 2.3-3.1m-2.6 3.1c-.8 1.7-.3 3.6 2.6 3.3m1.3 2.7c-1.8-.8-4.2 0-3.2 2.1m-.3-5.2c-.7 1-.5 2.5.3 3.4m-.4-.6c-1.2.2-2.4.9-1.6 2.7m-.2-1.5c-1.5-.5-3.5.6-2.3 2.2m-.3-1.5c-1.3-.2-2.9 1.2-1.6 2.6m-.5-1.2c-1.2.3-2.6 1.7-1.4 2.7m7.4-9.4c-1.7.8-1.9 2.7-1.1 4.1m-.7-7.7c-2.6 1-2.5 4.4.3 5.5m-1.2-.8c-1.5.9-1.8 2.6-.8 3.7m-1.9-9.7c-1 .3-.9 3.5 1.8 3.4m-4.6-2.3c-2.1 1.4.4 4.9 3.8 2.4m-1.9.9c-.3 1.4.1 3 2.4 3.1m-2.3-1.3c-1.6.6-1.9 3.9 1 4.2m-6.2-7.2c-2.1 1.9 1.7 3.6 3.1.8m-6 2.4c-1 1.2 2.6 4.5 4.2-1m.3 0c.1 1.3.9 2.1 2.5 2.1m-.1 1.2c-2.5.4-3.4 3.5-.5 4.2m-4.1-4.6c-.1 1.2 1.2 2.2 2.6 2m1.2 2.6c-2.3.5-2.6 3.5-.6 3.3m-1 2.9c-1.9-.6-2-2.9-.3-3.7m-1.3 1.6c-1.6 1-1 3.3-.1 3.7.9.3 1.5-.1 1.6-.8m-.1 3.3c.2 1.1-4 .7-1.8-2.8m-.1 3c-1.4 2.2.9 4 2.3 2.1m-2.1.5c-.6 1.8 1.5 3 2.9 1.7m-7.5-18.2c-.8 1.6 3.1 2.2 3.3-1.1m-4.4 3.5c-.8 3.1 5.1 2.5 3.5-1.5m.2 2c.8.5 3.3.5 3.9-2.1M95 84.7c.2.8.9 1.8 1.6 2.1m-4.4-1.3c-.3 1.7 1.4 3 3.3 2.9m-3-1.2c-.9 1.3-1.2 3.8 1.7 3.9M88 87.6c-.5 1.3 2.3 2.7 3.9.5M87.2 91c-.2 1 2.3 2.4 3.7-1.9m-1.2 2.2c.6 1.1 2.6 1.9 3.9-.2m-2 1.3c-.5 1.5.9 2.9 2.6 2.5m-5.8-2.8c-.3 2.1 2.1 3.4 3.7 2.3M86.7 93c-.7 2.7 2.8 3.8 4.1 1.7m-.8.8c.1 1.5 2.5 2.9 4.4 1.6m-8.7-.3c-.2.7 2.7 1.4 3.1-1m-1.5 1.6c.7 1.8 3 2.2 4.3 0m-.7.9c.3 1.6 2.4 2.5 4.2 1.4m.8.6c-.5 2.2 1.8 3.9 3.2 2.7m-6.8-3c-.7 2.4 2.3 3.8 4 2.5m-7.6-3.7c-.2 2.2 1.6 3.6 3.6 2.6M84.9 99c-.6 1.5 2.6 2.7 4.1 1.4m-6.1 2.6c.8.9 3.7 0 3.9-2.1m-.8 1.5c1 1.2 3.5 1.8 4.5-.7m-.8 1.3c0 1.8 3.3 3.2 4.3-.2m3.9.7c-.3.9.4 2.3 1.9 2.5m-4.7-3.1c-.2 1 1.3 2.5 2.9 1.9m.3.4c-.4 1.1-.1 2.7 1.4 2.7m-1.3-.6c-1.1.9-.6 2.6 1 2.7m-1.5-1.1c-1.6 1.1-1 3.4 1.1 3.3m-6-7.9c0 2.3 2.9 2.6 3.4.5m-1 1.4c-.4 1.4.7 2.7 2.5 2.3m-2.2 14.3c.4.6 2-.4 1.5-1.3s-2.1-.4-1.9.6m1.6-1.1c.2-1.9-2-2.2-2.6-.6m.8-.9c.6-1-1.3-2.2-2.1-.9m.7-.5c.5-1.4-1.7-2-1.8-.7m-.5-1.8c.2-.7 2.7-.3 1.6 1.2m1.9 1.7c.9-.9-.6-2.6-1.6-2m7.9 4.6c-.7.1-1.5.6-1 2.2.4 1.1 2 1.1 2.3.5"/><path d="M100.2 121.9c-.7-.5-2.3.3-1.6 1.9.5 1.2 1.9.7 2.1.1m-4.6.3c.4.6 2.2.4 2.5-.3m-1.3-1.9c.4-.3 1.1.1 1.2.4m-1.3-10.9c-1.2.8-.5 3.3 1.5 2.7m-1.9-.7c-1 .8-.1 3.2 1.8 2.3m-1.5-.1c-.7.7 0 2.6 1.8 2.2m-2.1-1.2c-.4-.2-1.4 0-1.8.6m.7-9.3c-.9.9-.5 2.7 1.3 2.9m-1.6-1c-1.4.7-1.4 3.3 1.4 3.5m-1.5-.5c-.8.6-.4 2.9 1.5 2.6m-.9-.1c-.3.3-.3 1-.1 1.3m-.8-2.1c-.7 0-1.6.5-1.8 1.2m-1.2-2.5c.3-.7 2.4-.6 2.5 1.4m.2-2.4c-.3.1-.9.3-1 .9m.1-7.2c-.9.8-1.4 3.5 1.4 4m-3.3 1.4c0-.7 1.9-1.3 2.6-.3m-3.8-3.5c.3.5 1.6 1.3 2.4.7m-9.3-4.9c0 1.2 1 2.4 2.4 2.2 1.4-.2 1.7-1.4 1.3-2.2m-1.1 2.2c-.9 1.2.2 2.8 1.3 2.3m-.2-3.1c.6-.2 2.4-.5 3 .4m-9-.1c-.4.6 2.2 1.3 3.1 0m-.9.7c-.1.9.3 2.3 2.5 1.7"/><path d="M86.6 108.9c.3-.7-1.3-1.9-2.5-.6-1.2 1.3.2 2.8.9 2.3m-4.1-4.6c-.6 1.1 1.8 3.2 3.3 1.3m-4.9.6c-.9.9.2 2.6 1.6 2.1 1.4-.5 1.2-1.9.9-2.3"/><path d="M77.5 109.7c-.7.7 0 2.2 1 2.2s1.6-.8 1.4-1.8m1.7-.6c-.1 1 1.3 1.7 2.3.8m0-1.8c.1-.2 0-.6-.2-.8m-7.8 3.3c-.8.7 1 2.5 2.1.8m4.4-1.2c-.5.5.3 1.9 1.2 1.5m-4.1-.5c.1.9 1.9 1.6 3.1.2m-2.1.7c-.3.6.3 1.5 1 1.4m16 3.9c-.7 1.3 1.5 2.8 3 1.2m-1.4.7c-.3.7.1 1.7.6 2.1m-2.6-.6c.2-.6 1.1-1.2 1.9-.9m-3-.8c.1-.6.9-1.2 1.5-1m49-25.8c-3 0-1.8 4.9.9 3.9m-1.8-.3c-.6 1 .6 2.6 1.8 1.6m-.3.3c-.9 1.5 2.3 3.8 3.6 1.4m-1.1.9c.1 1.4 4.2 2.3 3.6-.5m-.4 1.5c1 1.7 4.7 1.8 4.3-.6m-.8 1.7c.8 1.1 4.4 1.8 4.3-.5m-18.9-13.6c.5 1.3 2.3 1.8 4.2 1m-5.3-.1c1.2.8-.6 4.3-2.4 2.9m2.4-.7c1.3.6 3 .2 3.4-1.7m-.8 1.4c.1 1 1.5 1.8 3.4 1.4m-6.7-.4c1.7 1.4-.8 4.5-1.9 3.1m2.5-2c.8.6 2.9.3 3.1-1.3m-.9 1.3c.2 1 1 1.4 2.2 1.5m-4.8-.1c.9 1.2 3 1.5 3.9-.1m-.9 1c-.1 1.1 1.2 2.1 2.5 1.8m-7.1.7c1.1.6 2.3-1.5 1.4-3m-.1 5.3c1.3.1 1.5-1.9.3-3.1m2.6 5c1.1-.3.8-2.7-1.9-2.9m5.3 4.7c1.1-.3.2-3-2.7-2.8m6.7 3.7c.7-1.1-1.7-3-3.6-2m5.6 3.6c1.3.4 2.2-3.1-2-2.6m4.5 2.6c1.2-.3 2-2.4-1.4-1.7m4 1.8c1 .5 1.5-2.5-1.6-1.7m-15.7-7.6c1.3.7 3.3-.1 3.1-1.8m-.5 1.4c.4.8.3 2.3-.6 2.7m.7-.9c.9.3 2 0 2.7-1.3m-1.1 1.3c.3.6.3 1.8-.2 2.4m.4-1.4c1 .5 2.1-.2 2.5-1.2m-.6.9c.7.4 1.3 2.5.1 3.3m.7-1c.8 0 2 0 2.8-1m-.6.6c.7.2 1.6 1.4 1.3 2.5m.1-.4c.8-.1 2.2-.6 2.6-1.6m-.4.6c.7.4 1.2 1.2 1.1 2.1m0-.6c.8-.1 1.5-.5 1.8-1.4m-.3.6c.6.2 1.3.9 1.4 1.7m0-.6c.6-.1 1-.5 1.4-1.1m1.6 0c.8.8-.3 3.4-1.8 2.9m-14.7-54.9c-1.6 1-6.1.6-3.9-3.1m4.4.5c-3.1 1.3-7-1.1-3-3.8m-1.1-.8c-2.6 0-4.4 4.2-.9 5.7m-9.2-3.9c-.7 1.3 1.8 2.8 3.4 1.5 1.3-1 1.2-3.8.4-4.9m-5.2 6.6c-.9 2.8 5.5 3 4.5-1.5m-4.9 5.7c.2 2.1 6.1 1.4 4.2-2.9m.7-1.2c.5.6 1.8 1.8 3.9 1.5m-2.9-4.5c.2.8 1.5 1.4 3.2.8m-61.8 64.5c-1.5 1.1.8 2.7 1.6.9m-2.8 0c-1.5 1 .8 2.7 1.6.9m-2.8-.1c-1.5 1 .8 2.7 1.6.9m-2.9-.2c-1.4.7.2 2.6 1.7 1m-3.1-.3c-1.4.7.2 2.6 1.7 1m5.5-3.3c0 1.1 2.1 1.5 2.8-.1m-1.5 1.2c-.6.8.5 1.8 1.2 1.5m-3.9-1.7c-.1.9 1.7 1.5 2.6.5m-1.7.5c-.6.7.6 1.8 1.3 1.5m-3.5-1.6c.1.7 1.1 1.6 2.2 1.1m-1.5-.2c-.4.4-.2 1.3.4 1.6m-2.6-1.6c-.2.7 1 1.8 2.1 1.1m-1.9-.3c-.7.5-.6 1.4.3 1.5m-1.9-1.6c-.1.5.5 1.2 1.2 1.1m-4.9-1.1c-.7.3 1.1 2.2 2.2.5m-3.9.2c-.9.4 1.3 2.5 2.2.3m3.4-.4c-.7.2-1.1 1.1-.5 1.5m-1.7-1.2c-.1.4.7 1 1.4.8m-1.9-.6c-.6.4-.3 1.5.5 1.4m-2.8-.7c-.6.5-.2 1.3.6 1.1m.5-1.1c0 .2.6.6 1 .5m-4.2-.9c-.7.3-.7 2.2 1.8 1.2m-3.5-.5c-1.1.5-.7 1.9 1.6.6m.2.1c-.3.2-.6 1.2.5.8m-2.5-.4c-.4.4-.2 1.2.8.9m-3-.7c-.8.5.9 1 2.1-.2m-1.6.7c-.3.3-.3 1.3.6 1M59 120c-.5.4.3.9 2 .2m-1.3.4c-.6.5-.5 1.1.3.9m-2.1-.6c-.7.6.3 1 1.5.5m-1.5.2c-1.1.5-.6 1.5.1 1.1m37.9 2.1c-.3.6.6 1 1.4.9s1.5-.8 1-1.7m0 1.2c.8.6 2.1-.1 2.1-1"/></g><g stroke="#000" stroke-width=".139"><path fill="#FFF" d="M145.6 34.4c-3.4-1.7-10.6-4.9-12.6-2.3 1.8-.8 7.3 0 11.7 4.2l.9-1.9zm2.1-.2c-4-4.6-6.3-3.6-9.2-5.2-2.7-1.5-6.9-1.8-7.8.6 3.9-1.9 7.5 1 9.7 1.4 3 .5 4.7 2.9 5.7 3.9l1.6-.7zm14.9-.6c-2.1-4.7-6.5-3.5-8.4-5.5-2.8-2.9-10-5.6-13-3.6 6.5-.3 9.3 4.5 12.8 6.2 2.6 1.2 5.2 3.7 8.6 2.9zm-7.7-.5c-3.5-4.4-8.9-8.2-11.4-6.8 3.3.2 4.3 2.4 6.6 3.9s1.3 3.6 4.8 2.9zm-16.7 7.7c-3.7-1.4-10.9-2.1-14.3 2.1 5.6 1 14 .5 14.3-2.1z"/><path fill="#FFF" d="M137.5 42.4c-3.7-1.7-6.6.7-10 .3-6.6-.6-11.3-.3-11.9 2.9 3.8-3.4 10.1-.6 12.7-1.3 2.6-.7 12.1-.1 15.1 1.2-1.6-1.8-4-2.3-5.9-3.1zm11.6-9.8c-.9-2.8-.8-5.8 3.4-5.6-1.1-1.3-5-2-5.7 3-4.7-3.4-9.8-4-10.7-1.1 2.4-2.1 6.1-.6 10.6 4.5.4-.2 1.4-.7 2.4-.8zm-6.5 3.9c-2.7-1.7-6.3-4.5 0-5.6-2.7-1.5-6.7-.8-6.2 4.2-7.2-2.9-12.4-1.9-13.5 1-1.2 3.2 3.3 4.9 4 2.9-.8.3-3.6-.6-2.2-2.4 1.5-1.8 8.9-.5 16.1 3.3 2.1 1 8.8.8 1.8-3.4z"/><path fill="#FFF" d="M140.7 41.2c-2.1-4.2-8.7-.4-10.1-4.5-1.8 6 9.6 2.7 10.1 4.5zm42.4 4.6c1.4.7 2.6-.4.5-1.3 1.4.7 2.6-.4.5-1.2 1.4.7 2.6-.4.5-1.2-.6.5-1.4 2.6-1.5 3.7zm.7-8.1c3.1-3.3-.3-4.4 3.5-7.7 3.1-2.7.6-4.6 3.5-6.7.9-.7 3-2.1 3.2-3.4 1.2 3.1-3.9 3.5-3.5 8.5.2 3.2-1.9 2.9-2.7 8.2-.2 1.1-1 3.6-4 1.1z"/><path fill="#FFF" d="M185.2 39.2c1.7-3.7 3.7-3.6 4.6-5.1 1.8-2.7 5.6.5 8.8-2-.6 3.5-4.9 2.2-6.8 4.5-1.8 2.2-3.3 3.3-6.6 2.6z"/><path fill="#FFF" d="M185.6 40.4c3-2.4 5.2-.8 7.3-2.1 5.2-3.2 7.3.6 12-.9-1.2 3-8.1.4-11.1 2.7-3 2.2-13.5 4.4-8.2.3zm-8.7 17.1c0-1.4-1.3-3.1-3.1-3.3-1.8-.2-2.6-2.1-3.9-2.2-1.4-.1-2.3-2.8-4.2-2.8-1.9 0-2.7 2.5 1.8 4.7 4.3 2.2 9.2 4.8 9.4 3.6zm-5.6 1.2c-1.9.1-2.1 2.8-3.9 2.9 2.5 1.3 4.3-.6 5.6-2.3l-1.7-.6z"/><path fill="#FFF" d="M172.9 59c-1.6 1.4-2.1 4.3.3 5.1-1.4-2 2.5-2.8 1.3-4.6l-1.6-.5z"/><path fill="#FFF" d="M174.5 59.1c-1.3 2.5 2 2.8 1.2 4.7 1.9-.4 2.2-4 .5-4.9l-1.7.2zm-12.6-5.3c3.1-.2 5.9 1.5 7.8 4.2 1.2 1.7 5.2 2.4 6.6 1 1.4-1.4.6-4.3-2.8-3.3-.9-1.5-3.3-.9-4.6-2.1-1.2-1.3-5.8-4.7-7 .2z"/><path fill="#FFF" stroke-linecap="round" d="M173.5 55.6c-.8.2-1.1 1.6-.6 2.3m2.3-1.4c.3.4.1 1 0 1.3m-8.5-3.9c1.6.1 1.9 1.2 3.6 1.7"/><path fill="#FFF" d="M165.7 50c5.5 1.4 9.8 2.6 12.5 4.1 2.7 1.5 6.9 2 10.5.9 3.7-1 10.7-2 10.4 2.6 1.9-2.3-.5-4.7-5.4-5.1.1-2.2-2.3-4.3-4-2.9 1.6-.2 3 2.7-.2 3.9.6-2.2-1.6-4.2-3.9-3.3 1.5.4 3 2.9-.3 3.9-2.1.6-5.1-.2-7.4-1.5-2.2-1.4-15-6.4-12.2-2.6z"/><path fill="#FFF" d="M179.5 47.7c-1.7.8-.6 2.6-3.3 3.6-2.7 1-4.5 3.4-3.9 5.4 1.8-3.9 5-3.8 6.1-5.3 1.2-1.5 2.8-3.8 1.1-3.7z"/><path fill="#FFF" d="M180 48c-.1 3.1-2.6 2-1.6 6.4.3 1.4.9 3.6-.1 5.8 2.8-2 1-6.3 2.2-7.9.6-.8 1.4-2 1.7-3-.6 1.8-.6 5.2 1.2 6-1.4-3.3 3.8-6.1.2-9.9-.5 1-2.1 2.7-3.6 2.6zm-8.7-3.1c.4.6.9 2.3.5 3.2.9-.5 2.1-1.8 2.5-2.7 1.8.3 2.5 2.5.8 3.4 1 0 2.8 0 3.8-1.2-1.3-1.4-5-3.5-7.6-2.7z"/><path fill="#FFF" d="M144.6 38.7c-.3-.3-.7-.5-1.6-.7-2.6-.5-1.3-2.9 1-2.9 4.7-5.2 7.4-1.2 13.1-2.8 2-.6 3.4-.4 4.5.1 2.6-1.7 5.6-1.2 7.8.8.2-.4.6-.7 1-.8 2-.6 3.6 1.1 4.2 3.4 1.6-.3 3.4.5 4.5 1.5 1.6-.9 2.7-.9 3.2 0 1.4-.7 3.3-1.1 4.3 1.2.9 2.3-2.2 1.6-2.7 6.5-.3 3-3.7 4.2-6.4 2.4-4.3-2.9-8.4-3.4-10.5 1-2.1 4.4-3.7 6.9-8.7 5.5-1.8-.5-4.1.2-5.6 2.1-1.5 2-3.7.1-6.3.3 3.3-.5 2.1-1.4 5-1.5 2.7-.2 2-2.7 3.7-3-6.7 1.7-6.5-.8-11.9.9 2.4-3.1 6.2-1.4 8.1-3.2-5-.1-7.2-3.3-9.5-2-3.5 2.1-2 8.2-11.2 7.7-4.5-.3-7.3.3-10 3 4.6-9.6 10.9-4.3 14-7.4 1.8-1.8 3.2-3.2 4.1-4.9.3-.6.8-1 1.3-1.1-7.7-2.4-3-6.2 4.5-6.4l.1.3z"/><path fill="#FFF" stroke-linecap="round" d="M182.3 37.4c.1.2.2.6.2.9 0 1.9-2.8 2-3 4.8-.1 1.5-.3 2.3-1.3 2.1-1-.2-1.8-1.7-.9-3.5"/><path fill="#FFF" d="M146 35.9c-.7-.5-1.4-.7-2.1-.7m17.6-2.8c2.3 1 3.4 3.3 6.7 3.5 3.2.1 5.2 4.7 10.5 1.7.2-.1.3-.2.4-.2m-9.8-4.2c-.5.8-.6 1.8-.5 2.7m-9.8 7c-4 0-5.1 2.1-5.1 4s1.9 4.6 5.3 4.6 5.1-2.1 5.1-4.3-2.1-4.3-5.3-4.3z"/><path fill="#FFF" d="M159.7 51.4c-.1-1.1-2.1-.9-2-1.8.1-.9 1.1-1.2 1.1-2.4s1.8-1.3 2.4-.3c.6.9 2.4 2.8 2.8 1.8m-2.8-1.8c-.9.9-1.4 2.9-.1 4.4m1.4-3c-.3.6-.4 1.6 0 2.2"/><path fill="none" d="M178.5 45.2c3.2.3 3.7-3.2 1.3-3.4m-5.2-6c-1.1-1.4-3.6-1.9-3.6 1.1"/><path fill="#FFF" d="M170.7 40.3c-1.1-2.7-3.8-3-5.3-1.7-1.2 1.1-1.2 4 1.4 4.6.9-1.1 2.6-2.5 3.9-2.9zm-1.2-1.7c-1.5-1.4-3.8 1.2-1.8 3.6m-27.6 2.9c1-.2 2.5.3 4.9 1.4 1.5.7 5.8 2.1 8.6.7-2.8 1-5-3.3-7.1-2.7-2.1.5-6.1 1.3-7.7-.3 4 .3 6.2-2.9 10.8-.2 1.3.8 2.9 1.3 4.4 1.2-3.8-4.5-8.8-1.6-9.3-5.3 2.3 2.5 7.8-.6 10.7 4m-10-3.4c-.5-.7-.3-1.3-.9-1.8"/></g><path d="M174.6 35.8c-.9-1-3-.2-2.4 1.8.4-.9 1.4-1.7 2.4-1.8zm-5.8 5.5c.7-.5 1.3-.9 1.9-1-.3-.8-.8-1.3-1.3-1.7-.5-.4-1.9 1.5-.6 2.7z"/><path fill="none" stroke="#000" stroke-width=".139" stroke-linecap="round" d="M166.2 37.8c-1.5-1-3-.9-3.4-.1-1.1 0-2 .8-2.1 2.4m2.4.7c-1.8-1.3-4.4-.8-4.2 2m-1.1 1.7c.9-.7 2.2-1.3 3.2 0m10.6-2.8c-.3.5-.6 1.2 0 2.3-.7-.9-2.4-.9-4.2 1.5m8.3-4c-2.2.2-2.2 1.7-.4 2.3m-15.5-7.7c-1.9-.4-3.3.7-.6 1.7m4.2-3c-2.7-.6-3.7 0-2.5.6m-5.2 10.1c-.1.9.4 2.2 2 .8m-1.5 2c0 .2 0 .6-.2.8m-5.9-13.4c-1.6-.5-1.9-2 0-1.9m-.6 5.4c-1.8-.6-1.8-2.4-.3-2.2m3.7 1.3c-2.1-.5-2.2-2-.6-1.8m.8-2.7c-1.1-.1-2.8 1.2 0 1.9m3.2.6c-2.6-.4-2.6.7-1 1.4m2.9-3.8c-2-.4-2.7.8-1.3 1.3m-5.1 6.1c-.5-.4-.9-2.4 1.5-1.8m3.4 1.2c-1.6-.4-3.1 1.1-1.6 2m3.7-3.9c-1.7-.3-3.1.2-2.2.8"/><path fill="#FFF" stroke="#000" stroke-width=".139" d="M174.5 35.8c-.9.2-1.8.7-2.3 1.8"/></svg>
