<svg xmlns="http://www.w3.org/2000/svg" width="240" height="160" viewBox="0 0 750 500"><path fill="#C8313E" d="M0 0h1000v500H0V0z"/><path fill="#4AA657" d="M0 333.4h1000V500H0V333.4z"/><path fill="#FFF" d="M0 0h111.2v500H0V0z"/><path fill="#C8313E" d="M4.7 106.6h4.7v8.1h4.7v-8.1h4.7v-8.1h4.7v-8.1h-4.1v-8.1h-5v-8.1H9.7v8.1h-5v8.1H0v8.1h4.7v8.1zm5-16.3h4.7v8.1H9.7v-8.1zm-5 41H0v-8.1h4.7v8.1zm0-115H0V8.1h4.7v8.2zm38.7 98.4v-8.1h4.7v-8.1h5v-8.1h-4.7v-8.1h-4.7v-8.1H39v8.1h-4.7v8.1H29v8.1h4.7v8.1h4.7v8.1h5zm-4.6-24.4h4.7v8.1h-4.7v-8.1zm-9.7-49.4h-5v-8.1h4.7v8.1h.3zM4.7 65.6H0v-8.1h4.7v8.1zm0-16.5h4.7v8.1h4.7v8.4h4.7v8.1h4.7v8.1h4.7v-8.1h4.7v-8.1h4.7v-8.1h4.7v-8.1H47v-8.1h6.3v-8.1h-4.7v-8.4h-4.7v-8.4h-4.7V8.1h-4.7V0h-15v8.1h-5v8.1H9.7v8.1h-5v8.1H0v8.1h4.7v8.6zm9.7-16.3h4.7v-8.1h4.7v-8.4h4.7v8.1h4.7v8.1h4.7v8.1h-4.7v8.1h-4.1v8.1h-5v-8.1h-4.7v-8.1h-5v-7.8zm19.3 213.1h4.7v8.1h-4.7v-8.1zm-29-57.5H0v-8.1h4.7v8.1zM67.5 73.7v8.1h-4.7V90h-4.7v8.1h4.7v8.1h4.7v8.1h4.7v-8.1h4.7v-8.1h4.7V90h-4.7v-8.1h-4.7v-8.1h-4.7zm5 24.7h-4.7v-8.1h4.7v8.1zm9.7-65.6h4.7v8.1h-4.7v-8.1zm24.1-8.1h-4.7v-8.4h-4.7V8.1h-4.7V0H77.8v8.1h-4.7v8.1h-4.7v8.1h-4.7v8.1H59v8.1h4.7v8.1h4.7v8.1h4.7v8.7h4.7v8.1h4.7v8.1h4.7v-8.1h4.7v-8.1h4.7v-8.1h4.7v-8.1h5v-8.1h4.7V33h-4.7v-8.3zm-9.7 16.2h-4.7V49h-4.7v8.1h-4.7V49h-4.7v-8.1h-4.7v-8.1h4.7v-8.1h4.7v-8.4h4.7v8.1h4.7v8.1h4.7v8.4zm9.7 16.6h4.7v8.1h-4.7v-8.1zm0 65.3h4.7v8.4h-4.7v-8.4zm0-40.9h-4.7v-8.1h-4.7v8.1h-4.7V90h-4.7v8.1h4.7v8.1h4.7v8.1h4.7v-8.1h4.7v-8.1h4.7V90h-4.7v-8.1zm-4.7 16.5h-4.7v-8.1h4.7v8.1zm9.6-90.3v8.1h-5V8.1h5zM57.8 57.5v16.2h-4.7V57.5h4.7zm-4.7 73.8V115h4.7v16.3h-4.7zm0-115V0h4.7v16.3h-4.7zm53.2 123.1h-4.7v-8.1h-4.7v-8.1h-4.7V115h-4.7v-8.1h-4.7v8.1h-4.7v8.1h-4.7v8.1h-4.7v8.1H64v8.1h-4.7v8.1h-4.7v-8.1H50v-8.1h-4.7v-8.1h-4.7v-8.1h-4.7V115H29v-8.1h-5v8.1h-4.7v8.1h-5v8.1H9.7v8.1h-5v8.1H0v16.3h4.7v8.1h4.7v8.1h4.7v8.1h4.7v-8h4.7v-8.1h4.7v-8.1h-8.8v-8.1h14.4v8.1h4.7v8.1h4.7v8.1h-4.7v8.1h-4.7v8.8h-4.7v8.1h-5v8.1h-4.7v8.1h-5v-8.1H9.7V205h-5v-8.1H0v24.7h4.7v8.1h4.7v8.1h4.7v8.1h4.7v8.1h-4.4v8.1H9.7v8.1h-5v8.1H0V303h4.7v-8h4.7v-8.1h4.7v-8.1h4.7v8.1h4.7v8.1h4.7v8.1h4.7v8.1h4.7v8.1h4.7v8.1h-4.7v8.1h-4.7v8.1H19.4v-8.1h9.7v-8.1h-5v-8.1h-4.7v-8.1h-5v8.1H9.7v8.1h-5v8.1H0v16.3h4.7v8.1h4.7v8.1h4.7v8.1h4.7v8.1h4.7v8.1h4.7v-8.1h4.7v-8.1h4.7v-7.5h4.7v-8.1H47v-8.1h6.3v-8.1H58v8.1h4.7v8.1h4.7v8.1h4.7v8.1h4.7v8.1h4.7v8.1h4.7V385h4.7v-8.1h4.7v-8.1h4.7v-8.1h6.3v-8.1h4.7v-16.2h-4.7v-8.1h-4.7V320h-4.7v-8.1h-4.7v8.1h-4.7v8.1h-4.7v8.1h9.7v8.1H78.1v-8.1h-4.7v-8.1h-4.7V320h4.7v-8.1h4.7v-8.8h4.7V295h4.7v-8.1h4.7v-8.1h4.7v8.1h4.7v8.1h4.7v8.1h4.7v-24.7h-4.7v-8.1h-4.7v-8.1h-4.7v-8.1h-4.7V246h4.7v-8.1h4.7v-8.1h4.7v-8.1h4.7V197h-4.7v8.1h-4.7v8.1h-4.7v8.1h-4.7v-8.1h-4.7V205h-4.7v-8.1h-4.7v-8.1h-4.7v-8.1h-4.7v-8.1h4.7v-8.1h4.7v-8.1h14.4v8.1h-9.7v8.1h4.7v8.1h4.7v8.1h4.7v-8.1h4.7v-8.1h4.7v-8.1h4.7v-16.3h-4.7v-8.8zm-33.8 73.7v8.1h4.7v8.1h4.7v40.9h-4.7v8.1h-4.7v8.1h-4.7v8.1h-4.7v8.4h-4.7v8.1h-4.7v-8.1H49V295h-4.7v-8.1h-4.7v-8.1H35v-8.1h-5.9v-40.9h4.7v-8.1h4.7v-8.1h4.7v-8.1h4.7v-8.4h5.3V189h4.7v8.1h4.7v8.1h4.7v8.1h5.2zm33.8-32.8h4.7v8.1h-4.7v-8.1zm-43.5 41h4.7v16.2h-4.7v8.1h-4.7v8.1h4.7v8.1h4.7v16.3h-4.7V270h-4.7v-8.1h-4.7v8.1h-4.7v8.1H44v-16.3h4.7v-8.1h4.4v-8.1h-4.7v-8.1h-4.7v-16.2h4.7v8.1h4.7v8.1h4.7v-8.1h4.7v-8.1h.3zm-9.7-8.2V205h4.7v8.1h-4.7zM4.7 377.2H0v-8.4h4.7v8.4zm0 65.3H0v-8.1h4.7v8.1zm48.4-16.3h4.7v16.3h-4.7v-16.3zm-14.3-40.9v8.1h-4.7v8.1h-5v8.1h4.7v8.1h4.7v8.1h4.7v-8.1h4.7v-8.1h5.3v-8.1h-4.7v-8.1h-4.7v-8.1h-5zm4.6 24.4h-4.7v-8.1h4.7v8.1zm9.7 49.4h-4.7V451h-4.7v-8.1H39v-8.4h-4.7v-8.1H29v-8.1h-5v8.1h-4.7v8.1h-5v8.1H9.7v8.1h-5v8.1H0v8.1h4.7v8.1h4.7v8.1h4.7v8.1h4.7v8.1h14.4v-8.1h4.7v-8.1h4.7V475h4.7v-8.1h5.9v-7.8zm-14.3 8.1h-4.7v8.1h-5v8.1h-5v-8.1h-4.7v-8.1h-5v-8.1h4.7V451h4.7v-8.1h4.7v8.1h4.7v8.1h4.7v8.1h.9zM0 483.8h4.7v8.1H0v-8.1zm4.7-65.7h4.7v8.1h4.7v-8.1h4.7V410h4.7v-8.1h-4.1v-8.1h-5v-8.1H9.7v8.1h-5v8.1H0v8.1h4.7v8.1zm5-16.5h4.7v8.1H9.7v-8.1zm14.4 57.5h4.7v8.1h-4.7v-8.1zM4.7 319.7H0v-8.1h4.7v8.1zm101.6 49.1h4.7v8.1h-4.7v-8.1zm0 65.6h4.7v8.1h-4.7v-8.1zm0 16.5h-4.7v-8.1h-4.7v-8.4h-4.7v-8.1h-4.7v-8.1h-4.7v8.1h-4.7v8.1h-4.7v8.1h-4.7v8.1H64v8.1h-4.7v8.1H64v8.1h4.7v8.1h4.7v8.1h4.7v8.1h14.4v-8.1h4.7V483h4.7v-8h4.4v-8.1h4.7v-8.1h-4.7v-7.9zm-9.7 16.3h-4.7v8.1h-4.7v8.1h-4.7v-8.1h-4.7v-8.1h-4.7v-8.1h4.7V451h4.7v-8.1h4.7v8.1h4.7v8.1h4.7v8.1zm-14.4-8.1h4.7v8.1h-4.7v-8.1zm-14.7-73.8v8.1h-4.7v8.1h-4.7v8.1h4.7v8.1h4.7v8.1h4.7v-8.1h4.7v-8.1h4.7v-8.1h-4.7v-8.1h-4.7v-8.1h-4.7zm5 24.4h-4.7v-8.1h4.7v8.1zm33.8-16.3h-4.7v-8.1h-4.7v8.1h-4.7v8.1h-4.7v8.1h4.7v8.1h4.7v8.1h4.7v-8.1h4.7v-8.1h4.7v-8.1h-4.7v-8.1zm-4.7 16.3h-4.7v-8.1h4.7v8.1zm4.7 74h4.7v8.1h-4.7v-8.1zM57.8 368.8V385h-4.7v-16.3h4.7zm0 115V500h-4.7v-16.3h4.7zm19.4-229.7h-4.7V246h4.7v8.1zm29.1 57.5h4.7v8.1h-4.7v-8.1zm-48.5-24.7v8.1h-4.7v-8.1h4.7z"/></svg>
