<svg xmlns="http://www.w3.org/2000/svg" width="240" height="160" viewBox="0 0 240 160"><path fill="#C8313E" d="M0 0h240v160H0z"/><path fill="#4AA657" d="M0 106.7h240V160H0z"/><path fill="#FFF" d="M0 0h35.6v160H0z"/><path fill="#C8313E" d="M1.5 34.1H3v2.6h1.5v-2.6H6v-2.6h1.5v-2.6H6.2v-2.6H4.6v-2.6H3.1v2.6H1.5v2.6H0v2.6h1.5v2.6zm1.6-5.2h1.5v2.6H3.1v-2.6zM1.5 42H0v-2.6h1.5V42zm0-36.8H0V2.6h1.5v2.6zm12.4 31.5v-2.6h1.5v-2.6H17v-2.6h-1.5v-2.6H14v-2.6h-1.5v2.6H11v2.6H9.3v2.6h1.5v2.6h1.5v2.6h1.6zm-1.5-7.8h1.5v2.6h-1.5v-2.6zM9.3 13.1H7.7v-2.6h1.5v2.6zM1.5 21H0v-2.6h1.5V21zm0-5.3H3v2.6h1.5V21H6v2.6h1.5v2.6H9v-2.6h1.5V21H12v-2.6h1.5v-2.6H15v-2.6h2v-2.6h-1.5V7.9H14V5.2h-1.5V2.6H11V0H6.2v2.6H4.6v2.6H3.1v2.6H1.5v2.6H0V13h1.5v2.7zm3.1-5.2h1.5V7.9h1.5V5.2h1.5v2.6h1.5v2.6h1.5V13h-1.5v2.6H9.3v2.6H7.7v-2.6H6.2V13H4.6v-2.5zm6.2 68.2h1.5v2.6h-1.5v-2.6zM1.5 60.3H0v-2.6h1.5v2.6zm20.1-36.7v2.6h-1.5v2.6h-1.5v2.6h1.5V34h1.5v2.6h1.5V34h1.5v-2.6h1.5v-2.6h-1.5v-2.6h-1.5v-2.6h-1.5zm1.6 7.9h-1.5v-2.6h1.5v2.6zm3.1-21h1.5v2.6h-1.5v-2.6zM34 7.9h-1.5V5.2H31V2.6h-1.5V0h-4.6v2.6h-1.5v2.6h-1.5v2.6h-1.5v2.6h-1.5V13h1.5v2.6h1.5v2.6h1.5V21h1.5v2.6h1.5v2.6h1.5v-2.6h1.5V21h1.5v-2.6h1.5v-2.6H34v-2.6h1.5v-2.6H34V7.9zm-3.1 5.2h-1.5v2.6h-1.5v2.6h-1.5v-2.6h-1.5v-2.6h-1.5v-2.6h1.5V7.9h1.5V5.2h1.5v2.6h1.5v2.6h1.5v2.7zm3.1 5.3h1.5V21H34v-2.6zm0 20.9h1.5V42H34v-2.7zm0-13.1h-1.5v-2.6H31v2.6h-1.5v2.6H28v2.6h1.5V34H31v2.6h1.5V34H34v-2.6h1.5v-2.6H34v-2.6zm-1.5 5.3H31v-2.6h1.5v2.6zm3.1-28.9v2.6H34V2.6h1.6zM18.5 18.4v5.2H17v-5.2h1.5zM17 42v-5.2h1.5V42H17zm0-36.8V0h1.5v5.2H17zm17 39.4h-1.5V42H31v-2.6h-1.5v-2.6H28v-2.6h-1.5v2.6H25v2.6h-1.5V42H22v2.6h-1.5v2.6H19v2.6h-1.5v-2.6H16v-2.6h-1.5V42H13v-2.6h-1.5v-2.6H9.3v-2.6H7.7v2.6H6.2v2.6H4.6V42H3.1v2.6H1.5v2.6H0v5.2h1.5V55H3v2.6h1.5v2.6H6v-2.6h1.5V55H9v-2.6H6.2v-2.6h4.6v2.6h1.5V55h1.5v2.6h-1.5v2.6h-1.5V63H9.3v2.6H7.7v2.6H6.2v2.6H4.6v-2.6H3.1v-2.6H1.5V63H0v7.9h1.5v2.6H3v2.6h1.5v2.6H6v2.6H4.6v2.6H3.1v2.6H1.5v2.6H0V97h1.5v-2.6H3v-2.6h1.5v-2.6H6v2.6h1.5v2.6H9V97h1.5v2.6H12v2.6h1.5v2.6H12v2.6h-1.5v2.6H6.2v-2.6h3.1v-2.6H7.7v-2.6H6.2v-2.6H4.6v2.6H3.1v2.6H1.5v2.6H0v5.2h1.5v2.6H3v2.6h1.5v2.6H6v2.6h1.5v2.6H9V123h1.5v-2.6H12V118h1.5v-2.6H15v-2.6h2v-2.6h1.5v2.6H20v2.6h1.5v2.6H23v2.6h1.5v2.6H26v2.6h1.5v-2.6H29v-2.6h1.5V118H32v-2.6h2v-2.6h1.5v-5.2H34V105h-1.5v-2.6H31v-2.6h-1.5v2.6H28v2.6h-1.5v2.6h3.1v2.6H25v-2.6h-1.5V105H22v-2.6h1.5v-2.6H25V97h1.5v-2.6H28v-2.6h1.5v-2.6H31v2.6h1.5v2.6H34V97h1.5v-7.9H34v-2.6h-1.5v-2.6H31v-2.6h-1.5v-2.6H31v-2.6h1.5v-2.6H34v-2.6h1.5V63H34v2.6h-1.5v2.6H31v2.6h-1.5v-2.6H28v-2.6h-1.5V63H25v-2.6h-1.5v-2.6H22v-2.6h1.5v-2.6H25V50h4.6v2.6h-3.1v2.6H28v2.6h1.5v2.6H31v-2.6h1.5v-2.6H34v-2.6h1.5v-5.2H34v-2.8zM23.2 68.2v2.6h1.5v2.6h1.5v13.1h-1.5v2.6h-1.5v2.6h-1.5v2.6h-1.5V97h-1.5v2.6h-1.5V97h-1.5v-2.6h-1.5v-2.6h-1.5v-2.6h-1.5v-2.6H9.3V73.5h1.5v-2.6h1.5v-2.6h1.5v-2.6h1.5V63H17v-2.6h1.5V63H20v2.6h1.5v2.6h1.7zM34 57.7h1.5v2.6H34v-2.6zM20.1 70.8h1.5V76h-1.5v2.6h-1.5v2.6h1.5v2.6h1.5V89h-1.5v-2.6h-1.5v-2.6h-1.5v2.6h-1.5V89h-1.5v-5.2h1.5v-2.6H17v-2.6h-1.5V76H14v-5.2h1.5v2.6H17V76h1.5v-2.6H20v-2.6zM17 68.2v-2.6h1.5v2.6H17zM1.5 120.7H0V118h1.5v2.7zm0 20.9H0V139h1.5v2.6zm15.5-5.2h1.5v5.2H17v-5.2zm-4.6-13.1v2.6h-1.5v2.6H9.3v2.6h1.5v2.6h1.5v2.6h1.5v-2.6h1.5v-2.6H17v-2.6h-1.5v-2.6H14v-2.6h-1.6zm1.5 7.8h-1.5v-2.6h1.5v2.6zm3.1 15.8h-1.5v-2.6H14v-2.6h-1.5V139H11v-2.6H9.3v-2.6H7.7v2.6H6.2v2.6H4.6v2.6H3.1v2.6H1.5v2.6H0v2.6h1.5v2.6H3v2.6h1.5v2.6H6v2.6h4.6v-2.6h1.5v-2.6h1.5V152h1.5v-2.6H17v-2.5zm-4.6 2.6h-1.5v2.6H9.3v2.6H7.7v-2.6H6.2v-2.6H4.6v-2.6h1.5v-2.6h1.5v-2.6h1.5v2.6h1.5v2.6h1.5v2.6zM0 154.8h1.5v2.6H0v-2.6zm1.5-21H3v2.6h1.5v-2.6H6v-2.6h1.5v-2.6H6.2V126H4.6v-2.6H3.1v2.6H1.5v2.6H0v2.6h1.5v2.6zm1.6-5.3h1.5v2.6H3.1v-2.6zm4.6 18.4h1.5v2.6H7.7v-2.6zm-6.2-44.6H0v-2.6h1.5v2.6zM34 118h1.5v2.6H34V118zm0 21h1.5v2.6H34V139zm0 5.3h-1.5v-2.6H31V139h-1.5v-2.6H28v-2.6h-1.5v2.6H25v2.6h-1.5v2.6H22v2.6h-1.5v2.6H19v2.6h1.5v2.6H22v2.6h1.5v2.6H25v2.6h4.6v-2.6h1.5v-2.6h1.5V152H34v-2.6h1.5v-2.6H34v-2.5zm-3.1 5.2h-1.5v2.6h-1.5v2.6h-1.5v-2.6h-1.5v-2.6h-1.5v-2.6h1.5v-2.6h1.5v-2.6h1.5v2.6h1.5v2.6h1.5v2.6zm-4.6-2.6h1.5v2.6h-1.5v-2.6zm-4.7-23.6v2.6h-1.5v2.6h-1.5v2.6h1.5v2.6h1.5v2.6h1.5v-2.6h1.5v-2.6h1.5v-2.6h-1.5v-2.6h-1.5v-2.6h-1.5zm1.6 7.8h-1.5v-2.6h1.5v2.6zm10.8-5.2h-1.5v-2.6H31v2.6h-1.5v2.6H28v2.6h1.5v2.6H31v2.6h1.5v-2.6H34v-2.6h1.5v-2.6H34v-2.6zm-1.5 5.2H31v-2.6h1.5v2.6zm1.5 23.7h1.5v2.6H34v-2.6zM18.5 118v5.2H17V118h1.5zm0 36.8v5.2H17v-5.2h1.5zm6.2-73.5h-1.5v-2.6h1.5v2.6zM34 99.7h1.5v2.6H34v-2.6zm-15.5-7.9v2.6H17v-2.6h1.5z"/></svg>
