<svg xmlns="http://www.w3.org/2000/svg" width="240" height="160" viewBox="0 0 360 240"><path fill="#CE1126" d="M0 0h360v240H0z"/><path fill="#003F87" d="M0 17.1h360v205.7H0z"/><circle fill="#FFF" cx="180" cy="120" r="95"/><circle fill="none" stroke="#552300" stroke-width="1.978" cx="180" cy="119.5" r="78.5"/><path fill="#007F00" d="M171 36.6c7.1-7.6 13.5 1.2 13.3 5.3-.2 4.1-7.3 13.2-13.8 5.9 6.7 1.7 8.7-5.8 12.1-5.8-3.4 0-4.8-7.4-11.6-5.4zM97.4 96.1c-3.7-9.6 7-11.5 10.7-9.5 3.6 2 8.7 12.3-.8 14.8 4.5-5.2-1.4-10.3.1-13.3-1.5 3-8.8 1-10 8zM256 86.5c9.7 3.8 3.8 12.9-.2 14.2-3.9 1.3-15-2-10.5-10.6.8 6.8 8.6 5.9 9.8 9-1.2-3 5.2-7 .9-12.6zM129.4 188.7c-10.4-1-7.2-11.4-3.8-13.7 3.4-2.3 15-2.1 13 7.4-2.7-6.3-9.9-3.4-12-6 2.2 2.5-2.9 8.1 2.8 12.3zm104.7-7.5c.1 10.3-10.6 8.4-13.3 5.3-2.7-3.1-3.9-14.5 5.9-13.7-6 3.3-2.3 10.1-4.7 12.5 2.4-2.4 8.5 2.1 12.1-4.1zM104.9 76.4c-.9-10.3 9.9-9.1 12.8-6.3 3 2.9 5 14.2-4.8 14.1 5.8-3.8 1.5-10.3 3.7-12.8-2.1 2.6-8.6-1.3-11.7 5zm11.1 96.5c-10.3-1.7-6.4-11.8-2.8-13.9 3.6-2.1 15.1-1.1 12.5 8.2-2.2-6.5-9.6-4.1-11.5-6.8 1.9 2.8-3.6 8 1.8 12.5zM197.1 37c9.3-4.6 12.2 5.8 10.5 9.6-1.6 3.8-11.5 9.7-15 .6 5.6 4 10.2-2.3 13.4-1.2-3.1-1-1.7-8.4-8.9-9zM217 194.2c-4.6 9.3-13.2 2.6-14.3-1.3-1-4 3.3-14.7 11.5-9.5-6.9.2-6.7 8-9.9 9 3.3-1.1 6.7 5.6 12.7 1.8zm45.2-89.4c7.8 6.8-.8 13.4-5 13.3-4.1-.1-13.5-6.9-6.3-13.5-1.5 6.7 6 8.5 6.2 11.8-.1-3.3 7.3-4.8 5.1-11.6zM130.8 50.4c2.3-10.1 12.3-5.6 14.2-2 1.9 3.6.3 15-9 11.9 6.7-1.8 4.6-9.3 7.5-11-2.9 1.7-7.8-4-12.7 1.1zM100 136.7c-9.1-5-2.1-13.2 2-14.1 4.1-.8 14.6 3.9 9.1 11.8.1-6.8-7.7-7-8.6-10.2.8 3.3-6.1 6.4-2.5 12.5zm131.7-79.8c10.3-1.5 9.7 9.3 7 12.4-2.7 3.1-14 5.7-14.4-4 4.1 5.5 10.4.9 13.1 3-2.7-2.1.9-8.7-5.7-11.4zm-58.5 147.2c-9.5 4.2-11.9-6.3-10.1-10 1.8-3.7 11.9-9.3 15 0-5.5-4.2-10.3 1.9-13.4.7 3 1.1 1.4 8.4 8.5 9.3zm85.2-57.7c4.3 9.4-6.3 11.8-10.1 10.1-3.7-1.8-9.4-11.8-.1-14.9-4.2 5.4 2 10.2.7 13.3 1.3-3 8.7-1.4 9.5-8.5zM95.8 116.1c-6-8.5 4-12.8 8-11.8s11.4 9.9 2.9 14.6c3.1-6.1-3.8-9.6-3.2-12.9-.6 3.3-8.2 3.1-7.7 10.1zm56.2 81.7c-9.8 3.6-11.4-7.1-9.4-10.7 2-3.6 12.5-8.4 14.9 1-5.2-4.5-10.4 1.2-13.4-.2 3 1.4.9 8.6 7.9 9.9zm-2.8-157c5.8-8.6 13.5-.9 14 3.2.5 4.1-5.1 14.1-12.7 7.9 6.9.7 7.7-7 11-7.6-3.4.5-5.9-6.6-12.3-3.5zm100 126.1c.6 10.3-10.2 8.8-13 5.9-2.9-3-4.5-14.3 5.2-13.9-5.9 3.6-1.8 10.2-4.1 12.7 2.3-2.6 8.7 1.5 11.9-4.7zm-2.6-97.3c10.2 2 6 12 2.4 14s-15.1.7-12.2-8.6c2 6.6 9.5 4.4 11.3 7.2-1.9-2.8 3.8-7.8-1.5-12.6zm-129.2-7.2c.1-10.3 10.8-8.1 13.4-5 2.7 3.2 3.5 14.6-6.2 13.5 6.1-3.2 2.5-10.1 5-12.4-2.5 2.4-8.5-2.2-12.2 3.9zm-12.9 93.1c-9.3-4.7-2.5-13.2 1.5-14.1 4-1 14.8 3.4 9.5 11.5-.2-6.8-8-6.7-9-9.9.9 3.2-5.8 6.5-2 12.5zM216 45.5c9.7-3.6 11.5 7 9.5 10.6-2 3.6-12.5 8.5-14.9-.8 5.2 4.5 10.4-1.3 13.4.1-3.1-1.4-1-8.7-8-9.9zm-20.7 157.4c-7.6 7.1-13.3-2.1-12.9-6.1.5-4.1 8.2-12.7 14.1-5-6.5-2.1-9.1 5.2-12.4 5 3.4.2 4.3 7.7 11.2 6.1zm66.4-79c7.1 7.5-2.2 13.2-6.3 12.8-4.1-.5-12.7-8.2-4.9-14-2.2 6.5 5.2 9 5 12.4.2-3.5 7.7-4.3 6.2-11.2z"/><path fill="#730000" stroke="#000" stroke-width=".244" d="M195.2 62.4s.3-.9-.9-2.5h1c.5.4.6 2.1.6 2.1l-.7.4zm-5.1 13.1h.5c.4-1 .1-2 .1-2l-.8.2c.6 1.3.2 1.8.2 1.8zm-.1 11.9c-2.3 1.4-7.6 2.9-7.7 4.7 0 1.1.1 4.2 0 5.1-.1 1-.5 5.3-.5 5.3h-5.2s1-3.8 0-4.8c-1-1.1-3.4-4.2-5-5.3-1-.7.9-1.4 3.4 1.6 0 0 4.2-3.7 0-8.6-2.4-2.8-2.8-5.5-7.1-4.2-1.9.5-6.3.5-8.2-2.4 1.9-.3 1.3-.1 2.9-.8 0 0-.5 1.9 3.2 1.9s4.2 0 3.9-3.4c1.3-.7.9-.7 1.9.2 0 0-.5 1.9-.2 2.6.2.8 1.6 1.3 2.6 2.1.8.6 1.5.5 2.2-.2.1-.1 1-1.1 2.1-2.5-2.1-4.4-2.2-6.7-2.2-8.4 0 0-2.4.5-4.4-4.1-1.1-2.3-2.8-2.4-4.7-3.1l1-.3c2 1 3.1 1 2.8-1.1l.9-.5c0 2.2-.7 5.7 3.4 7.8 2 1 1.4-4.9 1.6-6.4l1.1.6s-.4.7-.3 1.1c.1.4.7-.4 1.1-.8l.6-.1c-.6 1-3.9 4.8.6 14.1.9-1 4.4-5.6 3.7-8.3l.7.4v1.9s.9-.8 1.3-1l.4.2s-2.9 3-5.6 7.9c1 2.1 1.1 2.6 1.1 2.6.2.4.5 1.5.8 3.5.1.5.2 2.3.3 3.6.2 1.3 3.5-.5 3.5-3.6l1.5-.4c-1.2 2.7 1.1 2.2 3.4.4 1.5-.5 3.1.3-.9 2.7zm-10.6-4.7c-.1-1-.4-1.9-.6-2.6-.5.4-.5 1.1-.8 1.5-.6 1-1.6 1.2-.9 3.3.3.8 1.5 4.2 1 6.9-.5 2.6-.3 3.8-.1 4.2 2.7 5.6 2.2-6.9 1.4-13.3zm-25.6-15.4c.4.7.8 2 2 3l.8-.2s-1.8-2.1-1.8-3l-1 .2zm4.6-1.1s.2 2.8-.4 3.7l.7-.3s.6-2.5.5-3.4h-.8zm26.3-1.9l.9-.3s-.2-.9.6-1.2c.8-.2 2.6-1 3.6-1.8l-.3-.8c-.8.6-2.7 2.1-3.7 1.8-.5-.1-1.2-1-.8-3l-.9-.6c.1-.1 0 3.7.6 5.9z"/><path fill="#289400" stroke="#030" stroke-width=".244" d="M184.3 69.9c2.3 2.5 4.3.5 4.3 4.2 1.4-.1 2.1-.5 3.8-.9-2.2-.5-3.2-1.8-2.9-3.8 2-3.5 11.1 4.2 12.8 5.2.4-.9 1-2.3.4-3.2.2-.6 9.6 6.7 9.7-2.9.1-4.1-5.5-7.5-7.9-6.8-1.5.1-2.1-.6-2-2.1-3 .2-1.2 1.5-3.1-.1-3.9 4.7-9.8 2-9.7 2.7-3 2-5.6 1.6-8.9 3.6.3-.2-.8 4.2-.8 4.4 2.1-1.3 2.4.2 4.3-.3zm1.1-14.9c4.7-3.2 7.8-.3 12.3 5-1.7.5-16.1-.1-15.5-2 0-2.6 1.6-2 3.2-3zm-12.5 5.7c-3.6 1.9-5.8 2.5-9 3.3-1.9-8.2 5.9-11.6 12.6-8.6 15.1 6.6-2.4 11.6-3.6 5.3zm-15.6 5.7c1 .3 5.2-.5 5.2-.4.4-4.1-1.3-1.1 1-3.6-7.8-8.2-11.3 2.2-15.6 3.7 1.4-.5.4 2.5.3 3.8.4-.5.8-.5.5 0 3.3-.8 3.4-1.3 6.2-1.1.9-1.1 1.5-1.8 2.4-2.4zm-8.7 7c-.6 1.4-.5 4-1.4 6.3 3-2.5 6.9-3.5 10-5.2-.1 8.8 11.1 2.3 16.8 3.5-3.4-10.4-12.8-11.6-25.4-4.6zm24 18.8c1.1.3 2.2-1.7 3.3.4 7-4.8-2.2-8-7.2-8.2-3.4-.1-7.7 4.1-10.7 5.5-.9 3 .4 5.8 3.8 7.4.1-.1 3.6-2.1 4.2-.8.7-2.9 1.1-1.8 2.6-4.1.5.7.9 1.3 1.4 2 .3-2.1 1-2.3 2.6-2.2zm9.6-6c-5.1-8.4 9.3-15.7 10.5-8.2 4.6-.3 6.9.5 8.5 2.4 5.9 6.9 1.2 2.8 1.2 8.8-4.3-2.6-9.5-1.1-12.6-5.5-2.1 1.7-7.1.2-7.6 2.5zm.3 5.2c3.4-2.5 20-4.5 16.5 4.8-.6 0-.9-.4-1-1-2.8 3.5-6.2 3.1-8.9 1.6-.1 0-1.9-3.2-2-3.3-3.1 2.6-2.1.7-4.6 1.6-.5-1.2-.5-2.5 0-3.7z"/><path fill="#9DD7FF" d="M200.9 142.5c-2.6 7.7-8.4 16.4-21.1 21-12.8-4.6-18.5-13.3-21.2-20.9l21.2-18.6 21.1 18.5z"/><path fill="#FFF" stroke="#000" stroke-width=".342" d="M179.7 102.6V124l-21.1 18.7c-2.1-6-2.2-11.3-2.2-13.6v-26.5h23.3"/><path fill="#FFD83C" stroke="#000" stroke-width=".342" d="M179.7 102.6V124l21.1 18.7c2.1-6 2.2-11.3 2.2-13.6v-26.5h-23.3"/><path fill="#730000" stroke="#000" stroke-width=".244" d="M166.1 144.6c4.7 2.6 9.7 3.1 14.7 3.1 1.7 0 8.2 0 9.1-1.6l-3.3 3.3s-13.1.7-15.5-.8c-1-.4-3-2-5-4z"/><path fill="none" stroke="#000" stroke-width=".244" d="M185.4 138.4s4.2 2.4 0 7m-18.9-.5l6.1-5.8-.7 7.7m3.1.7v-12.9m10.4 12.9v-13.7m-5.2 13.9V133"/><path fill="#FF0018" stroke="#000" stroke-width=".244" d="M175 135.3l-2.7.9 2.7.3v-1.2m5.2-2l-2.9 1.1 2.9.1v-1.2m5.2.8l-2.9 1.1 2.9.1v-1.2zm1.7 6.2c-.1-.6 1.7-.5 1.7-.5s.5 2 0 3.2l-1.6-.3c0-.1.2-1.4-.1-2.4z"/><path fill="#FFF" stroke="#000" stroke-width=".244" d="M167.4 144.1l5.1-5-.2 3s-2.6 1.7-2.6 2.9l-2.3-.9m2.7 1s.5-1.6 2-2.3l-.1 3.1-1.9-.8zm7.4-8.6s2.1-.3 3.7 0c0 0-.2 2.1 0 2.5 0 0-2.9-.7-4.1.4 0-.1-.4-2 .4-2.9zm-4.4.5s2.1-.3 3.7 0c0 0-.4 2.3-.1 2.7 0 0-2.3-1.3-3.5-.2-.1 0-.9-1.6-.1-2.5zm-.2 2.7s2.1-.2 3.7 0c0 0-.2 2.1 0 2.5 0 0-2.7-.6-3.9.4 0 0-.6-1.9.2-2.9zm4.2-.4s3-.4 4.6-.1c0 0-.6 1.7.1 2.9 0 0-3.3-.9-4.5.1.1 0-1-1.9-.2-2.9zm-4.4 3.3l4.1.3s-.4 3-.1 3.4c0 0-3.3-.8-3.9.3-.1 0-1.2-2.8-.1-4zm4.6 0s3.5-.2 5.1 0c0 0-.9 2.2.1 4.2 0 0-4.6-1.3-5.2-.2 0 0-1.1-2.8 0-4zm5.3-6.1s2.1-.3 3.7 0c0 0-.2 2.1 0 2.5 0 0-2.9-.7-4.1.4.1-.1-.3-2 .4-2.9zm0 2.8s2.1-.2 3.7 0c0 0-.2 2.1 0 2.5 0 0-2.9-.6-4.1.4.1 0-.3-1.9.4-2.9zm.3 3.1s2.1-.3 3.7 0c0 0-.5 3.3-.3 3.7 0 0-2.4-1.1-3.5-.1 0-.1-.7-2.7.1-3.6zm4.3.2s.7 2.5 1.6 2.8l-1.2 1.4s-1.4-1-1.6-2.2c.1 0 1-1.1 1.2-2z"/><path fill="#006AC8" d="M197.7 149.3c-3.4 5.6-8.9 10.9-18 14.2-9.2-3.3-14.8-8.8-18.2-14.4 1.5-.3 1.7-.7 1.7-.7 1.4.8 2.3.9 3.8.3 1.2.5 1.9.5 3 0 1.4.6 2.1.4 3.7 0 1.9.8 2 .8 4.1.1 1.8.9 1.9.9 3.3 0 .8 1 1.8.8 3.5.1 1.6.9 2.4.6 2.9 0 .9.9 1.8.7 2.7 0 .5.8 2 1 3.2 0 .8.9 1.7.8 2.6 0 0-.1 1.3.3 1.7.4"/><path fill="none" stroke="#000" stroke-width=".244" d="M196.9 150.6c-.7 0-.8-.4-.8-.4-1.2 1-2.7.8-3.3-.1-1 .8-2 1-2.9.1-.8.9-2 .7-3 0-1.7.7-2.8 1.1-3.7-.1-2.4.8-2.3.8-4.1 0-1.2.7-1.6.8-3.6-.1-1.8.5-2.5.5-3.9 0-1.3.5-2 .5-3.2 0-1.6.6-2.5.5-4-.3 0 0-.1.3-1.8.7"/><path fill="#5AC800" stroke="#000" stroke-width=".293" d="M164.7 153.3c1.4 2.1 3.6 4 5.8 5.5 2.2 1.5 4.8 3.3 9.2 4.6 4.6-1.8 5.9-2.5 8.9-4.5 3-2.2 4.6-3.6 6.3-5.8-1 .6-1.8 1.3-3 0-.8 1-2 .7-3 0-1.2.8-2.6 1-3.7-.1-2.4.8-2.3.8-4.1 0-1.2.8-1.6.8-3.6-.1-1.8.5-2.5.5-3.9 0-1.3.6-2 .5-3.2 0-1.5.6-2.5.5-4-.3 0 .4-1.3.7-1.7.7z"/><path fill="#FFD800" stroke="#000" stroke-width=".293" d="M179.8 163.4c4.8-2 5.6-2.5 8.5-4.3-.5 0-2-.5-1.4-.6 0 0-.6.5-1.2.5-.5 0-2.1-.7-2.1-.7s-1.5.4-2.1.4c-.7 0-1.7-.4-1.7-.4s-1.3.5-2 .4c-.7-.1-1.2-.4-1.2-.4s-1.4.5-2.2.4c-.8-.1-1.8-.7-1.8-.7s-1.2.6-2 .7c2.4 1.8 4.8 3.4 9.2 4.7z"/><path fill="#B34B00" stroke="#000" stroke-width=".25" d="M177.8 122.4c-.4-.5-.9.3-1.5.1-1.4-.8-5.4-5.8-7.4-7.8-.7-.5-.6-2.2-1.1-2.8 0-.4-5-5.3-6.7-7-1.7-1.2-4.5 1.4-2.4 3.2l6.4 5.8c.9.9 2.2 1.1 2.8 1.5 7 7.1 8 7.5 7.3 8.5-.5 1 0 1.1.2 1.2.4.3 2.9-1.7 2.4-2.7z"/><path fill="none" stroke="#000" stroke-width=".25" d="M160.3 107l6.7 6.6"/><path fill="#FFF" stroke="#000" stroke-width=".25" d="M169.4 110c.1-.2.3-.7.6-1.3.1-.2 1.9-3.1 2.8-3.2l5.6 4.1c0 .2-2.4 3.9-2.6 3.6-.1.1-6.6-2.6-6.4-3.2z"/><path fill="#CCB8C8" d="M173 111c-.8-.6-2-1.2-3.1-1.9l-.5 1c.4.4 5 2.6 5.8 3 .1 0-.8-1-2.2-2.1z"/><path fill="none" stroke="#000" stroke-width=".2" d="M169.9 109c.6.4 1.7 1.1 2.5 1.6 1.4 1 2.3 2 3.2 2.6"/><path fill="#782121" stroke="#000" stroke-width=".25" d="M158.6 126.5l12.8-15.8c.2-.2 1.4-.2 1.6 1l-12.1 16.5c-.1-.1-1.5-.2-2.3-1.7zm41.5.6c-.8-.9-14.6-17.9-15.4-18.9l1.3-1.3 15.7 18.4c.5.3-.1 1.6-1.6 1.8zm-16.2-6.1c-.3-.1-.6 0-1 .2-.8.5-1.3-.4-.3-1.1.8-.4 1.8-.5 2.4-.2l-1.1 1.1m13.9-13.9c-.1-.3-.2-.7.1-1.1.3-.4.3-1.1-.5-.7-.8.3-1.1 1.3-.4 2.7l.8-.9z"/><path fill="#FFF" stroke="#000" stroke-width=".25" d="M189.1 110.1l-2.1-2.4s-1.6.2-1.9 1c0 0-1.1 1.9-4.1 2.1 0 0 .8 3.5 4.3 5.3 0 0 1.3-3.6 2.5-4.2 0 0 1.3-.9 1.3-1.8z"/><path fill="#FFF" stroke="#000" stroke-width=".25" stroke-linecap="round" d="M183.6 121.3l14.5-14.4 3.6 3.8c-1-.4-1.5-.2-.7.8-1-.3-1.4 0-1 1-.8-.6-1.2-.4-.9.9-1-.3-1.2-.1-1 1-1.1-.5-1.7.2-1 .9-1.3-.5-1.9.6-1.3 1.3-1-.5-1.2-.3-1 .9-1-.5-1.7.5-1.1 1.1-.9-.6-1.4-.2-.9.9-.9-.6-1.7.3-1.1 1-.7-.7-1.7.3-1.1 1.1-1-.5-1.5.3-1 .9-.8-.5-1.5-.2-1 .9-.8-.9-1.2-.1-.8.9-.7-.8-1.3-.2-.6.7-.7-.3-.2 0-3.6-3.7z"/><path fill="none" stroke="#000" stroke-width=".488" d="M203 102.6v26.5c0 5.3-.7 26.3-23.3 34.4-22.6-8.2-23.3-29.2-23.3-34.4v-26.5H203"/><path fill="#289400" stroke="#060" stroke-width=".244" d="M128.5 151.7c-1.7-.8 10-1 12.8-5.8.3.8.6 1.6.8 2.4.8-.9 1.6-1.9 2.3-2.9-4.7 6.8 8.6 2.5 11.6-1.3 2 .7-.8 3.4 3-.2 8.5 22.4 31.2 23.3 40.8 1.3 6.5 4.5 22.9 8.7 30.7 8.7-2.4 13.8-25.7 6.2-34.9 8.2-7.9 1.7-12.6 4.7-20.8 3.6-6.5-.9-15-4.8-17.9-5.4-14.7-.7-16.9 2.5-28.6 0 .4-.7 1.1-.8 2-.5-3.5-.8-3.3-4.1-5.8-3.8.1-.1.5-6 4-4.3.7.3-.8-.4 0 0z"/><path fill="#730000" stroke="#000" stroke-width=".244" d="M124.4 94.4L160 76c.2-1-.4-1.7-.9-2.4-10.2 5-19.4 11-30.7 14.7-.6.2-6.3 2.6-9.1 6.1-.9.9-1 2.3-1 2.3s.1 1.6.4 2c0 0 .1.4.6.8 0 0 .3.2.6.1.3 0 .7 0 1.3-1 .5-1.2 2.4-3.4 3.2-4.2z"/><path fill="#FFF" stroke="#000" stroke-width=".244" d="M153.1 76.2l4.6-2.2s1.6 1.2 1.4 2.5c0 0 .3 3 4.1 5.1 0 0-3.2 4-8.7 4.3 0 0 .6-5.2-.5-6.7 0 0-.2.2-.1-.1.2-.5-.1-2.3-.8-2.6-.2-.1-.1-.2 0-.3z"/><path fill="#B34B00" stroke="#000" stroke-width=".244" d="M191.1 74.1l13.1 6.4c2.6 1.3 3.6.1 5 .7L235 94.4c2.2 1 3.4 1.3 3.1 2.4-.1 1.8.9 1.8 1.1 1.9.2 0 1.1-.1 1.4-.6l.3-.3c.3-.3.2-.3.3-.4 1.1-1.6 1.7-2.9.6-3.8-1.3-.6-1.4.8-2.8.6 0 0-2.4-.9-3.3-1.6-1.6-.9-3.9-1.9-4.4-2.5-1.6-.3-14-7.3-21-10.8-.8-.6-1.2-3-2.6-3.7-.4-.6-9.9-5-14.9-7.4-1.8-.7-2.9-1.2-4.2 1.1-1.2 2.1-.9 3.3 2.5 4.8z"/><path fill="none" stroke="#000" stroke-width=".244" d="M192.2 71.4l14.6 7.3"/><path stroke="#000" stroke-width=".244" d="M140.2 74.6c-.2-.2-.3-.6 0-1.6.3-.9 0-1 .5-1.5s.4-.8.7-.9c.3-.1 1.4-.1 1.7-.2.3-.1.7-.3 1.4-.4.7-.1 2.2-.1 2.9.3.7.4 1.2 1.4 1.7 1.7.5.3.8 1.8.7 3.8-.1 2.1-.5 1.7-.5 1.7s-.6-1-1.1-.1c0 0 0-.8.1-1.4 0-.6-.3-1.7 0-2.4 0 0-2.8.9-4.2.8-1.5-.1-3.5-.4-3.6-.8l-.3 1"/><path fill="#FFA54B" stroke="#000" stroke-width=".244" d="M148.7 79.3c-.1.3-.3.1-.3.2-.2 1-.1 1.6-.4 2.1-.3.7-1.6 1.3-1.5 1.3-1 .3-2.1 1.5-4.1.4-.1 0-.2-.1-.3-.2 0 0 .5 2-1.4 3-.7.3-7.6 4-7.6 4s-.7 1.3-.2 3.1c0 .3.1.5-.1.7-.4.3-1.3 1.3-1.8 2.9 0 0-1.5-.6-1.5-1.6 0-.9.6-1.4.7-2.1.1-.6.5-2.2.3-2.7s-1.1-.7-1.4-.9c-.3-.2-.7.2-.6.6 0 .5.4.4.8.5 0 0-.4.9-.4 1.6l-4.4 2.3s.6.8.8 1.1c.2.3.6 4.9 2 7 1.3 2.1 1.8 1.6 2.1 1.9.2.2.6.6 1 .9.3.2 1.9.4 2.1-.4.3-.8.6-1.3 1.5-2s2.8-2.6 2.8-3.4c0 0 1.1 3.2 1 5.9 0 0 4.1.8 7.8.9 3.7.1 5.5-.7 5.5-.7s.5-3.1.3-3.7c0 0 .6 2 1 2.7.5.8 1 2.5 2.1 2.6 1 0 1.9-1 2-1.5v-3.2h4.2s1.9.7 2.4.6c.6 0 .9-.6.4-.8l-.2-.1c.5 0 1.2.3 1.2.3h2.1v-.2c-.1-.6-1.2-1.1-2-1.4-.8-.3-1.7-.6-2.2-.7-.9-.1-1.6 0-3 .2-.4 0-1.9.2-2.8.6-.2.1-.5.2-.4-.4.1-.7.1-3.8-.6-5.1-.5-.9-.5-1.7-.4-2.5 0-.8.1-3.5 0-4.2-.1-.8-1.2-1.9-3.2-2.1-1.9-.2-3.4-1.8-3.5-3-.4-1.3 0-3.6.2-4.5m-8.3-5.6c-.3 1.6-.3 2.9-.3 4.4 0 1 .5 2.2 1 3.2.3.7.7 1.5 1.3 1.9 1.7 1.1 3.3-.1 4.2-.5.4-.1 1.1-.8 1.3-1.2.2-.6.1-1 .4-2.1 0 0 .4-.2.3-.2.4-.7.3-1 .6-1.5.2-.5-.3-1-.9-.9.3-.9.5-2 .2-2.8-.1-.3.2-1.1-.3-.9-2.2.9-4.8.7-7.1.7-.2 0-.3-.4-.6-.3 0 0-.1.1-.1.2m-7.6 80.3c-.1.6-.4 1.5-.5 2.6 0 .2-.2 1.6.5 1.6.5 0 .7-1.4.7-1.4s-.5 1.6.1 1.8c.9.2 1-1.7 1-1.7-.1.5-.7 1.9.1 2.1.9.1 1.1-1.9 1.1-1.9s-.7 2 .1 2.1c.8 0 .8-2 .8-2s-.4 2.4.7 2.2c.6-.1.8-.9.9-1.4.2-.7.6-1.7.1-3.2-.4-1.1-.2-1.4-.2-1.4s-1.4 1-2.4 1.7c-.3.3-3-1.1-3-1.1zm14.3-2.1c-.2-.1-.2.9-.3 1.4 0 .5.1 1.6 1.8 1.5 1.6-.1 3.2-.5 4.2-.2s2.5.3 3.4.3c.8 0 1.4-.1 1.8-.2.3-.1 1.1.2 1.4.2.3 0 .9-.5.8-.9 0-.6-.6-.6-1.5-.7-.8-.1-1.9-.2-2.4-.4s-1.5-.7-2.7-1c0 0-2.3.1-2.8.1-.5-.1-3.4 0-3.7-.1zm-24.4-60.8c-.2.1-.5-1 .2-1.4 0 0 .2-.9 1-1 0 0 .6-.9 1.6-.8 0 0 1.1-.7 1.5-.6.4 0 1.4 1 1.4 1.4.1.3 0 .9-.2 1.2-.3.3-.5 0-.5-.4 0 0 .2.7-.4 1-.6.3-.5.1-.6-.3 0 0-.1.8-.5.9-.4.1-.6-.2-.9-.2 0 0 .5.4.1.7-.3.2-.7.1-1 0-.3-.4-.6-1.1-1.7-.5z"/><path fill="#FFF" stroke="#000" stroke-width=".146" d="M140.3 76.9c.3 0 .7-.4 1.5.1.5.3-.9.7-.6.6-.6.1-.8-.2-.9-.5 0-.1-.1-.2 0-.2zm4 .4c.3-.7.9-.5 1.4-.4.5.1.3.1.8.3-.5.1-.4.1-.8.3-.4.2-.8.3-1.1.1-.1-.1-.4-.2-.3-.3-.1-.1 0 0 0 0z"/><path stroke="#000" stroke-width=".146" d="M141 77.5c.2 0 .3-.2.3-.4s-.1-.4-.3-.4c-.2 0-.4.2-.4.4s.2.4.4.4zm4.2 0c.2 0 .3-.2.3-.4s-.2-.4-.4-.4-.3.1-.3.4c0 .3.2.4.4.4zM139.1 95c.3 0 .5-.2.5-.4s-.2-.4-.5-.4c-.2 0-.5.2-.5.4s.3.4.5.4zm11.1.2c.2 0 .5-.2.5-.4s-.2-.4-.5-.4-.5.1-.5.4c0 .2.2.4.5.4z"/><path fill="#FFF" stroke="#000" stroke-width=".244" d="M134.7 115.1c.6-3.8 2.4-7 2.4-7.3 0 0 1.9.4 5.1.7 3.2.3 4.1.2 5.5.1 1.4-.1 3.3-.4 3.3-.4s.6 1.2.6 2.3c.1 2.5 1.1 13.3 1.2 16.2 0 0 .4 1.7.4 5.9 0 4.6 1.3 13.9 1.3 18.9l-1.3.2s-6.9.5-6.9-.4c0-1-.4-13 .6-20.2 0 0-.2-1.4-.6-2.6-.4-1.2-2.1-4.8-2.1-5.6 0 0-2.7 7.7-2.9 9-.1 1.2-.5 18.4-.8 19.8 0 0-4 3-4.5 3.3-.5.2-4.3-1.6-4.4-2.1-.1-.5.4-6.3 2.2-15.9.7-3.4.3-4.1.3-5-.1-.8 0-13.1.6-16.9z"/><path fill="#9B5F00" stroke="#000" stroke-width=".244" d="M136.8 107.7s0-1.6.6-2.3c0 0 1.7.3 4 .6 2.4.2 4.3.4 6.1.2 1.8-.2 3.6-.6 3.6-.6s.5 2.3.2 2.6c0 0-1.9.4-4 .5-2.1.1-5.7-.2-6.9-.4-1.7-.2-3.2-.5-3.6-.6z"/><path fill="#FFF" stroke="#000" stroke-width=".244" d="M138.3 107.9l.3-2.3h.5l-.1 2.4-.7-.1m10.6-1.9v2.6l.6-.1v-2.7l-.6.2m-7.6 0l-.2 2.5h.3l.3-2.5h-.4"/><path fill="none" stroke="#000" stroke-width=".244" d="M143.2 76.9c-.2.8-.3 1-.4 1.5m5 .8c.1.3.2.1.4.2m.3-1.9c.2-.3.6-.1.4.6m-8.5-2.4c.4.1.9.3 1.3.5.7.3.3 1.4.1 2.1-.1.3-.5.9-.3 1.2.2.4.5.1 1 .2 0-.1.3-.2.4-.2.3 0 .5.2.8.1.3-.1.2-.6.1-.8m-.1-2.2c0-.2.5-.4.7-.4 1-.2 1.8-.3 2.6.2m-2.7 5.3c-.8.2-1.7.3-2.5-.1m0-.4c.4-.2.5-.4 1-.1l.5-.2c.4 0 .6.1 1 .4m-2.5.1c.4-.1 1.6-.1 2.6 0m21.6 21.2c-.3-.3-.5-.5-.9-.6-.3-.1-.7-.3-1-.5-.3-.2-.8-.2-1.1-.4m.2 1.2c-.1-.1-.2-.1-.4-.2-.1 0-.3 0-.5-.1 0 0 0-.1-.1-.1-.4 0-.9-.2-1.2-.6m-30.1-4.6c.4.3 1.5 1.1 1.6 2.5.1.7.5 1.5.5 1.5m-6.3-3.8c.2.8.3 3.6 2.9 6.4m-2.4-10.2c-.2.5-.4 1 .1 1.4m7 5.1c.5-1.2 2.2-1.1 2.2-2.3m.2 2.2c-.1-1.4-.4-2.1-.2-4.2.1-.6.2-2.8 0-3.9 0 0 .8 3.8-1.8 4.5m16.6 6c0-1.9.4-3 .4-3 .6-2.7-.5-3.7-.1-4.4.4-.6 1-1.8.2-4.2 0 0 1.4 5-2.1 5-3.6 0-3.4-1.3-3.4-1.3m-9.8-2.6c0 1 0 4.1 4.3 4.1 1.3 0 2.7-.9 3.5-1.6m1.1-1.3c-.1-.9-.1-2.1-.1-3.3m-6.5-1.7c1.2-.1 2.1-.3 4.3-.3m.1-3c.2 1.1-.1 2.8 1.9 3m2.1-3.4c-.3.8-.3 1.6-.4 2.1m.1 1.3c.8 0 2.4-.5 4.3-.1m.7 10.9c.4.8.5 1.8 1.7 3m-15.2-5.5c.1.6-.8 2.7-.1 4.4.6 1.7.5 3.7-.5 5.3m3.1-9c-.4.8-1.1 1.6-1.2 2.2m3.1-.8c0 .5-1.3 4.2-2.2 5.2 0 0 1.7.7 1.5 3.2m3.4-10.1c0 .6-.1.8.4 1.2m1.3 0c.6.8 2.6 3.1 2.2 4.4m-3.6-3.1c.1.5.1 3-.3 4.3m-1-.1c-.5 0-1.3.4-1.5 1.3m4.3-1.4c.5-.1 1.6.8 1.6 3.4m7.5-5c-1 .3-1.5.8-1.2.5-.5.4-1 .7-1 .7m-13 29.8c-.3 1.1-.8 2.1-1.7 2.8m-1.3-25.8c-.1.6-1.1 3.5-3.4 5.2m6.8-4.7c-.5 1.7-2.6 10.9-3 21.8m-.1 3.4c-.1 1-.6 8.6-.8 10m-.4 1.5c-.2.5-1.3 5-1.3 8.9m15.5-17.2c-.1.9-.5 7.5 1.7 13.4m-8.9-41.3c-.1 1.1-.4 8-.4 8.5s.8 1.3 1.2 1.5c0 0-.8.2-.9 2.9m-2-6.2c-.1.8-.9 4.1-1.5 5.4m6.3-12.2s2.3.5 2.5 0c0 0 .8 14.2 1.9 22m-5.4-20.2c0 .9-.3 7.9-.3 7.9m1.2 1.1s.9 1.3.7 2m-8.6-13.5c.8.2 1.5.4 1.5.4m2.5.7c-.1.4-.3 2.2-.3 2.2m4.2 18.7c.3.4.7.9.4 2.1m-19.8-44c-.2-.8-1-1.5-2-1.4m1.1 2.2l-.3-.6c-.4-.7-1.4-.7-2.1-.9m1.1 2.2c-.3-.2-.4-.6-.7-.7-.5-.2-1-.4-1.6-.3"/><path fill="#730000" stroke="#000" stroke-width=".244" d="M210.8 79.3c.3-.1.2.3.3.4.1.6.1 1.3.4 1.9.3.5.4.7.9 1 .8.4 3.1 1.7 4.7.7.1 0 .2-.1.3-.2 0 0-.6 2 1.4 3 .6.3 7.5 4 7.5 4s.7 1.3.3 3.1c-.1.3-.2.5.1.7.5.3 1.3 1.3 1.8 2.9 0 0 1.4-.6 1.4-1.6 0-.9-.6-1.4-.7-2.1-.1-.6-.5-2.2-.3-2.7s1-.7 1.4-.9c.3-.2.7.2.6.6 0 .5-.4.4-.8.5 0 0 .5.9.4 1.6l4.5 2.3s-.6.8-.8 1.1c-.2.3-.7 4.9-2 7-1.3 2.1-1.8 1.6-2 1.9-.3.2-.7.6-1 .9-.3.2-1.8.4-2.1-.4-.3-.8-.6-1.3-1.5-2s-2.8-2.6-2.8-3.4c0 0-1.1 3.2-1 5.9 0 0-4.1.8-7.8.9-3.7 0-5.5-.7-5.5-.7s-.5-3.1-.3-3.7c0 0-.6 2-1 2.7-.5.8-1.1 2.5-2.1 2.6-1.1 0-1.9-1-2.1-1.5v-3.2h-4.2s-1.8.7-2.4.6c-.6-.1-.9-.6-.4-.8l.2-.1c-.5 0-1.2.3-1.2.3h-2v-.2c.1-.6 1.2-1.1 2.1-1.4.8-.3 1.6-.6 2.2-.7.9-.1 1.6 0 3 .2.4 0 1.9.2 2.8.6.2.1.5.2.4-.4-.1-.7-.6-2.7.1-4 .5-.9.4-1.7.4-2.5-.1-.8-.5-2.7-.5-3.5 0-2.7 2.1-3.9 4-4.4 2.1-.6 3.4-1.3 3.3-2.5-.2-1.5.2-3.6 0-4.5m15.8 74.7c.1.6.4 1.5.5 2.6 0 .2.2 1.6-.5 1.6-.5 0-.7-1.4-.7-1.4s.5 1.6-.1 1.8c-.9.2-1-1.7-1-1.7.1.5.7 1.9-.1 2.1-.9.1-1.1-1.9-1.1-1.9s.7 2-.1 2.1c-.8 0-.8-2-.8-2s.4 2.4-.7 2.2c-.6-.1-.8-.9-.9-1.4-.2-.7-.6-1.7-.1-3.2.4-1.1.2-1.4.2-1.4s1.4 1 2.4 1.7c.3.3 3-1.1 3-1.1zm-14.3-2.1c.2-.1.2.9.3 1.4 0 .5-.1 1.6-1.8 1.5-1.6-.1-3.2-.5-4.2-.2s-2.5.3-3.4.3c-.8 0-1.4-.1-1.8-.2-.3-.1-1.1.2-1.4.2-.3 0-.9-.5-.8-.9 0-.6.6-.6 1.5-.7.8-.1 1.9-.2 2.4-.4s1.5-.7 2.7-1c0 0 2.3.1 2.8.1.5-.1 3.4 0 3.7-.1zm6.7-78.2c.4 1.6.5 2 .5 2.5 0 .6-.2.7 0 1.3.3 1.2-.3 2.4-1.2 3.8-.4.6-.7 1.5-1.3 1.9-1.6 1-3.6-.2-4.6-.6-.5-.2-.8-.6-1-1-.2-.6-.2-1.1-.4-1.9 0-.1 0-.6-.3-.4-.6-.7-.5-1-.7-1.5-.2-.5.4-1 1-.9-.3-.9-.4-2-.1-2.8.1-.3-.2-1.1.2-.9 2.2.9 4.8.7 7.1.7.2 0 .3-.4.6-.3.1-.1.2 0 .2.1m17.2 17.7s-.2-.9-1-1c0 0-.6-.9-1.6-.8 0 0-1-.7-1.4-.7-.4.1-1.3 1-1.4 1.4h-.1c-.7 1.2.2 1.9.5 1.3-.1 1.1.8 1.1 1.1.7.3 1.2.8.7 1.3.6v.1c-.4.9.8.6 1.1.4.4-.7.7-.1 1-.2l.3-.3c.4-.2.8-1 .2-1.5z"/><path stroke="#000" stroke-width=".244" d="M219.2 74.6c1-.8-.3-4.9-5.4-4.2-2.5.4-4.5.8-4.2 5.3.1 2.1.5 1.7.5 1.7s.5-.8.9-.3c-.1-1.7-.4-2.2.1-3.9 3.8 1.4 7.7.7 7.8.3l.3 1.1z"/><path fill="#FFF" stroke="#000" stroke-width=".146" d="M219.1 76.9c-.3 0-.5-.4-1.5.1-.5.3.9.7.7.6.6.1.8-.2.8-.5 0-.1.1-.2 0-.2zm-4 .4c0-.4-.9-.5-1.4-.4-.5.1-.3.1-.7.3.5.1.3.1.7.3.4.2.5.4 1.1.1.1-.1.3-.2.4-.4l-.1.1z"/><path stroke="#000" stroke-width=".146" d="M218.5 77.5c-.2 0-.4-.2-.4-.4s.1-.4.4-.4c.2 0 .3.2.3.4s-.1.4-.3.4zm-4.2 0c-.2 0-.3-.2-.3-.4s.2-.4.4-.4.3.1.3.4c-.1.3-.2.4-.4.4zM220.3 95c-.3 0-.5-.2-.5-.4s.2-.4.5-.4c.2 0 .5.2.5.4s-.2.4-.5.4zm-11.1.2c-.2 0-.5-.2-.5-.4s.2-.4.5-.4.5.1.5.4c.1.2-.2.4-.5.4z"/><path fill="#FFF" stroke="#000" stroke-width=".244" d="M224.8 115.1c-.6-3.8-2.4-7-2.4-7.3 0 0-1.9.4-5.1.7-3.2.3-4.1.2-5.5.1-1.4-.1-3.3-.4-3.3-.4s-.6 1.2-.6 2.3c-.1 2.5-1.1 13.3-1.2 16.2 0 0-.4 1.7-.4 5.9 0 4.6-1.3 13.9-1.3 18.9l1.3.2s6.9.5 6.9-.4c0-1 .4-13-.6-20.2 0 0 .2-1.4.6-2.6.4-1.2 2.1-4.8 2.1-5.6 0 0 2.7 7.7 2.9 9 .1 1.2.5 18.4.8 19.8 0 0 4 3 4.5 3.3.5.2 4.3-1.6 4.4-2.1.1-.5-.4-6.3-2.2-15.9-.7-3.4-.3-4.1-.3-5 0-.8 0-13.1-.6-16.9z"/><path fill="#9B5F00" stroke="#000" stroke-width=".244" d="M222.7 107.7s0-1.6-.6-2.3c0 0-1.7.3-4 .6-2.4.2-4.3.4-6.1.2-1.8-.2-3.6-.6-3.6-.6s-.5 2.3-.2 2.6c0 0 1.9.4 4 .5 2.1.1 5.7-.2 6.9-.4 1.7-.2 3.1-.5 3.6-.6z"/><path fill="#FFF" stroke="#000" stroke-width=".244" d="M221.2 107.9l-.3-2.3h-.5l.1 2.4.7-.1M210.6 106v2.6l-.6-.1v-2.7l.6.2M218.1 106l.2 2.5h-.3l-.3-2.5h.4"/><path fill="none" stroke="#000" stroke-width=".244" d="M211.5 79c0 .4-.3.3-.5.3m5.2-2.4c.3.8 0 .6.2 1.1m2.9-1.8c-.4-.3-1.3-.1-1.7 0-.7.3-.3 1.1-.1 1.8.1.3.5.8.2 1.2-.2.4-.3.2-.8.2 0-.1-.4 0-.5 0-.3 0-.4.2-.7.1-.3-.1-.2-.6-.1-.8m.1-2.1c0-.2-.6-.4-1.3-.4-1.1 0-1.2 0-2 .6m5.5 4.3c-.2-.3-.5-.4-1-.2 0-.1-.7-.2-.7-.2-.4 0-.6.1-1 .3m2.6.3c-.4-.3-1.6-.1-2.7-.1m.1.4c.8.2 1.7.4 2.5 0m-24.3 21c.3-.3.5-.5.9-.6.3-.1.7-.3 1-.5.3-.2.8-.2 1.1-.4m-.2 1.2c.1-.1.2-.1.4-.2.1 0 .3 0 .5-.1 0 0 0-.1.1-.1.4 0 .9-.2 1.2-.6m30.1-4.6c-.4.3-1.5 1.1-1.6 2.5-.1.7-.5 1.5-.5 1.5m6.3-3.8c-.2.8-.3 3.6-2.9 6.4m2.4-10.2c.2.5.4 1-.1 1.4m-6.9 5.1c-.5-1.2-2.2-1.1-2.2-2.3m-.3 2.2c.1-1.4.4-2.1.2-4.2-.1-.6-.2-2.8 0-3.9 0 0-.8 3.8 1.8 4.5m-16.5 6c0-1.9-.4-3-.4-3-.6-2.7.5-3.7.1-4.4-.4-.6-1-1.8-.2-4.2 0 0-1.4 5 2.1 5 3.6 0 3.4-1.3 3.4-1.3m9.7-2.6c0 1 0 4.1-4.3 4.1-1.3 0-2.7-.9-3.5-1.6m-1.1-1.3c.1-.9.1-2.1.1-3.3m6.6-1.7c-1.2-.1-2.1-.3-4.3-.3m-.2-3c-.2 1.1.1 2.8-1.9 3m-2-3.4c.3.8.3 1.6.4 2.1m-.1 1.3c-.8 0-2.4-.5-4.3-.1m-.8 10.9c-.4.8-.5 1.8-1.7 3m15.3-5.5c-.1.6.8 2.7.1 4.4-.6 1.7-.5 3.7.5 5.3m-3.1-9c.4.8 1.1 1.6 1.2 2.2m-3.2-.8c0 .5 1.3 4.2 2.2 5.2 0 0-1.7.7-1.5 3.2M213.9 96c0 .6.1.8-.4 1.2m-1.2 0c-.6.8-2.6 3.1-2.2 4.4m3.5-3.1c-.1.5-.1 3 .3 4.3m1-.1c.5 0 1.3.4 1.5 1.3m-4.2-1.4c-.5-.1-1.6.8-1.6 3.4m-7.6-5c1 .3 1.5.8 1.2.5.5.4 1 .7 1 .7m13 29.8c.3 1.1.8 2.1 1.7 2.8m1.3-25.8c.1.6 1.1 3.5 3.4 5.2m-6.8-4.7c.5 1.7 2.6 10.9 3 21.8m.2 3.4c.1 1 .6 8.6.8 10m.3 1.5c.2.5 1.3 5 1.3 8.9M208 137.9c.1.9.5 7.5-1.7 13.4m8.9-41.3c.1 1.1.4 8 .4 8.5s-.8 1.3-1.2 1.5c0 0 .8.2.9 2.9m2-6.2c.1.8.9 4.1 1.5 5.4m-6.4-12.2s-2.3.5-2.5 0c0 0-.8 14.2-1.9 22m5.4-20.2c0 .9.3 7.9.3 7.9m-1.1 1.1s-.9 1.3-.7 2m8.5-13.5c-.8.2-1.5.4-1.5.4m-2.4.7c.1.4.3 2.2.3 2.2m-4.2 18.7c-.3.4-.7.9-.4 2.1m20.3-43.4c-.8.4-1.2 1-1.2 1.8m2.3-1.1c-.8.4-1.2 1-1.2 1.8m2.6-.9c-.8.4-.8.8-1.2 1.4"/><path fill="#FFF" d="M179.7 181c11 .1 17.5-3.9 21-6.3 8.4-5.6 10.1-5.8 11.5-5.7 1.6.1 3.9.7 4 2.1.1 2.1-3.3 3-5.2 3-2 0-7.2-1.3-7.2-1.3l-1.4.9c.9.4 11.6 4 13.7.6 2.1-3.4 4.2-8.9 4.2-8.9s-2.3-4.2-7.6-4.2-10.4 3.3-13.8 5.8c-3.4 2.5-7.7 5.9-19.1 5.9-11.4 0-15.8-3.4-19.2-5.9-3.4-2.5-8.5-5.8-13.8-5.8-5.3 0-7.6 4.2-7.6 4.2s2.1 5.5 4.2 8.9c2.1 3.4 12.7-.2 13.7-.6l-1.3-.9s-5.3 1.3-7.2 1.3c-2 0-5.4-.9-5.3-3 .1-1.4 2.4-1.9 4-2.1 1.4-.1 3.1.1 11.5 5.7 3.4 2.3 9.9 6.2 20.9 6.3m-17.6-13s0-.9-.1-2.3c-.2-1.8-1.2-2.2-2.1-2-.5.2-1.6 1.5-1.6 1.5l-1.5-.9c.4-.4 2.6-1.8 3.2-1.8.5 0 7.2 2.7 9.4 4.6.5.5.9 3.5.6 4.5-3.7-.9-6-2.2-7.9-3.6m-3.3 6.8s-1.5 1.5-1.5 4.2c0 3.2 2.2 3.3 3.8 3.3 1.8 0 3.3-1.1 3.2-4.4 0-.1-3-1.3-5.5-3.1m38.6-6.8s0-.9.2-2.3c.2-1.8 1.2-2.2 2-2 .5.2 1.6 1.5 1.6 1.5l1.5-.9c-.4-.4-2.6-1.8-3.1-1.8s-7.3 2.7-9.4 4.6c-.5.5-.9 3.5-.6 4.5 3.6-.9 5.9-2.2 7.8-3.6m3.2 6.8s1.5 1.5 1.5 4.2c.1 3.2-2.2 3.3-3.8 3.3-1.8 0-3.2-1.1-3.2-4.4 0-.1 3-1.3 5.5-3.1"/><path fill="#69F" d="M155.7 172.7s-5.2 1.3-7.2 1.3-5.4-.9-5.3-3c.1-1.4 2.4-1.9 4-2.1 1.1-.1 2.6.1 8.5 3.8m48.1 0s5.2 1.3 7.2 1.3 5.4-.9 5.2-3c-.1-1.4-2.4-1.9-4-2.1-1.1-.1-2.6.1-8.4 3.8m-41.7-4.6c-.5-.4-1.1-.8-1.6-1.2-.7-.5-1.5-1-2.2-1.6 0 0 1.1-1.4 1.6-1.5.8-.3 1.9.1 2.1 1.9.1 1.4.1 2.4.1 2.4m-3.6 13.7c.9.5 2 .5 2.6.4 1.8 0 3.3-1.1 3.2-4.4 0 0 2.2 1.1 5.9 2 0 0 .6.7.7 2.2.1 1.2-.7 2.5-1.7 2.4 0 0-5.1-.9-8.3-1.5-1.7-.2-2.4-1.1-2.4-1.1m38.9-13.7c.5-.4 1.1-.8 1.6-1.2.7-.5 1.4-1 2.2-1.6 0 0-1.1-1.4-1.6-1.5-.8-.3-1.8.1-2 1.9-.2 1.4-.2 2.4-.2 2.4m3.5 13.7c-.9.5-2 .5-2.6.4-1.8 0-3.2-1.1-3.2-4.4 0 0-2.2 1.1-5.9 2 0 0-.6.7-.7 2.2-.1 1.2.7 2.5 1.7 2.4 0 0 5.2-.9 8.3-1.5 1.7-.2 2.4-1.1 2.4-1.1"/><path fill="none" stroke="#000" stroke-width=".342" d="M179.7 181c11 .1 17.5-3.9 21-6.3 8.4-5.6 10.1-5.8 11.5-5.7 1.6.1 3.9.7 4 2.1.1 2.1-3.3 3-5.2 3-2 0-7.2-1.3-7.2-1.3l-1.4.9c.9.4 11.6 4 13.7.6 2.1-3.4 4.2-8.9 4.2-8.9s-2.3-4.2-7.6-4.2-10.4 3.3-13.8 5.8c-3.4 2.5-7.7 5.9-19.1 5.9-11.4 0-15.8-3.4-19.2-5.9-3.4-2.5-8.5-5.8-13.8-5.8-5.3 0-7.6 4.2-7.6 4.2s2.1 5.5 4.2 8.9c2.1 3.4 12.7-.2 13.7-.6l-1.3-.9s-5.3 1.3-7.2 1.3c-2 0-5.4-.9-5.3-3 .1-1.4 2.4-1.9 4-2.1 1.4-.1 3.1.1 11.5 5.7 3.4 2.3 9.9 6.2 20.9 6.3zm-24-8.3s-5.2 1.3-7.2 1.3-5.4-.9-5.3-3c.1-1.4 2.4-1.9 4-2.1 1.1-.1 2.6.1 8.5 3.8zm48.1 0s5.2 1.3 7.2 1.3 5.4-.9 5.2-3c-.1-1.4-2.4-1.9-4-2.1-1.1-.1-2.6.1-8.4 3.8zm-41.7-4.6c-.5-.4-1.1-.8-1.6-1.2-.7-.5-1.5-1-2.2-1.6 0 0 1.1-1.4 1.6-1.5.8-.3 1.9.1 2.1 1.9.1 1.4.1 2.4.1 2.4zm0-.1s0-.9-.1-2.3c-.2-1.8-1.2-2.2-2.1-2-.5.2-1.6 1.5-1.6 1.5l-1.5-.9c.4-.4 2.6-1.8 3.2-1.8.5 0 7.2 2.7 9.4 4.6.5.5.9 3.5.6 4.5-3.7-.9-6-2.2-7.9-3.6m-3.3 6.8s-1.5 1.5-1.5 4.2c0 3.2 2.2 3.3 3.8 3.3 1.8 0 3.3-1.1 3.2-4.4 0-.1-3-1.3-5.5-3.1zm1.3.8s-1.2 1.2-1.4 3.2c-.1 1.6.9 2.4 2.2 2.3 1.9-.1 2.6-2.6 1.7-4.1l-2.5-1.4m-1.6 6.2c.9.5 2 .5 2.6.4 1.8 0 3.3-1.1 3.2-4.4 0 0 2.2 1.1 5.9 2 0 0 .6.7.7 2.2.1 1.2-.7 2.5-1.7 2.4 0 0-5.1-.9-8.3-1.5-1.7-.2-2.4-1.1-2.4-1.1zm38.9-13.7c.5-.4 1.1-.8 1.6-1.2.7-.5 1.4-1 2.2-1.6 0 0-1.1-1.4-1.6-1.5-.8-.3-1.8.1-2 1.9-.2 1.4-.2 2.4-.2 2.4zm0-.1s0-.9.2-2.3c.2-1.8 1.2-2.2 2-2 .5.2 1.6 1.5 1.6 1.5l1.5-.9c-.4-.4-2.6-1.8-3.1-1.8s-7.3 2.7-9.4 4.6c-.5.5-.9 3.5-.6 4.5 3.6-.9 5.9-2.2 7.8-3.6m3.2 6.8s1.5 1.5 1.5 4.2c.1 3.2-2.2 3.3-3.8 3.3-1.8 0-3.2-1.1-3.2-4.4 0-.1 3-1.3 5.5-3.1zm-1.2.8s1.2 1.2 1.4 3.2c.1 1.6-.9 2.4-2.2 2.3-1.9-.1-2.5-2.6-1.7-4.1l2.5-1.4m1.5 6.2c-.9.5-2 .5-2.6.4-1.8 0-3.2-1.1-3.2-4.4 0 0-2.2 1.1-5.9 2 0 0-.6.7-.7 2.2-.1 1.2.7 2.5 1.7 2.4 0 0 5.2-.9 8.3-1.5 1.7-.2 2.4-1.1 2.4-1.1z"/></svg>
