<svg xmlns="http://www.w3.org/2000/svg" width="240" height="160" viewBox="0 0 60 40"><path fill="#F00" d="M0 0h60v40H0z"/><path fill="#FFF" d="M14 0h32v40H14z"/><path fill="#F00" d="M30 5.6l-2.4 4.5c-.3.5-.8.4-1.3.2l-1.8-.9 1.3 6.9c.3 1.3-.6 1.3-1 .7l-3.1-3.4-.5 1.7c-.1.2-.3.5-.7.4l-3.8-.7 1 3.7c.2.8.4 1.2-.2 1.4l-1.4.6 6.7 5.4c.3.2.4.6.3.9l-.6 2c2.3-.3 4.4-.7 6.7-.9.2 0 .5.3.5.5l-.3 7h1.1l-.2-7c0-.2.3-.6.5-.6 2.3.2 4.4.6 6.7.9l-.6-1.9c-.1-.3 0-.7.3-.9l6.7-5.4-1.4-.6c-.6-.2-.4-.6-.2-1.4l1-3.7-3.9.8c-.4.1-.6-.2-.7-.4l-.5-1.7-3.1 3.4c-.4.5-1.3.5-1-.7l1.3-6.9-1.8.9c-.5.3-1 .3-1.3-.2L30 5.6z"/></svg>
