<svg xmlns="http://www.w3.org/2000/svg" width="240" height="160" viewBox="0 0 240 160"><path fill="green" d="M0 0h240v160H0z"/><path fill="#FFE000" d="M41.2 28.8c14.5 0 26.2 11.7 26.2 26.2S55.7 81.2 41.2 81.2 15 69.5 15 55s11.7-26.2 26.2-26.2zm95.6 69.7C120.9 113 95 101.8 95 80s25.9-33 41.8-18.5c-13.6-6.7-29.6 3.2-29.6 18.5s16.1 25.1 29.6 18.5zm41.5 18.1l-5-1.9 3 4.5-4.6 2.8 5.4.5-.7 5.3 3.7-3.9 3.7 3.9-.7-5.3 5.4-.5-4.6-2.8 3-4.5-5 1.9-1.7-5.1-1.9 5.1zm-30-47.5l-5-1.9 3 4.5-4.6 2.8 5.4.5-.7 5.3 3.7-3.9 3.7 3.9-.7-5.3 5.4-.5-4.6-2.8 3-4.5-5 1.9-1.7-5.1-1.9 5.1zm30-32.5l-5-1.9 3 4.5-4.6 2.8 5.4.5-.7 5.3 3.7-3.9 3.7 3.9-.7-5.3 5.4-.5-4.6-2.8 3-4.5-5 1.9-1.7-5.1-1.9 5.1zM205 61.1l-5-1.9 3 4.5-4.6 2.8 5.4.5-.7 5.3 3.7-3.9 3.7 3.9-.7-5.3 5.4-.5-4.6-2.8 3-4.5-5 1.9-1.7-5.1-1.9 5.1zm-14.3 22.1l-3.4.3 2.6 2.2-.8 3.4 2.9-1.8 2.9 1.8-.8-3.4 2.6-2.2-3.4-.3L192 80l-1.3 3.2z"/><path fill="#802000" d="M39.4 74.7h6.5c.7-1.5-2-.8-1.5-2.3 1.7-4.8 1.9-12.9 2.1-20h-.9c.3 3.6-.8 12.8-5.4 20.7-.5 1-.7-.1-.8 1.6z"/><path fill="green" d="M44.4 35.9c.2 3.4-1.4 4.6-1.3 7.2-.7.2-1.4-1.5-2-.5.5 1.3 3.6 5.1 3 5.3-2.6-.9-2.8-7.3-8.8-7.6-.9 0-3.9-.2-3.1 1.3 1.6 1.1 6.2 2.9 6 4.2-1-.4-7.4-5-10.1-.1-.2.6-.6 2.2.1 2.3.8-1.3 2-2.7 3.7-2.3 1.4.1-1.5 2.5-.4 2 .3-.2 1.2-.7 1.7-.7.4 0 2.5.6 2.3 1.1-.1.2-.4 0-1.2.3-1 .3-1.4 1.4-3.1.7-1.4-.6-3.6-.5-4 1.2 0 .8-.7-.1-1 .2-.2.8-.3 1.7-1.5 1.6-1 .9-1.7 1.7-2.7 2.3.6 1.3 2.7-1.3 2.6-.2-1 1.3.5 1.6 1.1.6 1.1-1.1 2.4-2.5 4-1.4.8.7 1.2-.4 1.8-.3.3.9.8 0 1.2-.2.6-.1.5.8 1.2.3 1.5-1 3.4-.2 4.9-1.1 1.6-.7.2.6-.2 1.1-.7 1.4-.1 3.1-1.6 4-.6 1.6.7 3.7-.6 4.9-.2.7 1.7.7 2.3 1 1 0 0-2.2.9-2.5 1.3.8 1.2-1.4.9-2.1.1-1.5.2-3.2 1-4.6.8-1.7 1.6.7.7 1.4-.5 1.6-1.3 3.5-.1 5 .3.1.6.9 1.1 1.1.4.3 1-.1 1.1-.8.6-2.2.3-4.7 1.1-6.8.6-.7 1.3-.1 1.7.5 1.1 1.3 1.9 2.9 3.3 4 1.2.6 2.3 1.5 2.9 2.7 0 1 2.8 1.1 2 0-.8-1.1-.3-2.1.5-2.8.4.1.3-.7 0-.4-.5-.1-.6-1.1.2-.7 1.3.4-.1-.9-.6-1-1.1-.7-2.3-1.4-2.9-2.6 1.4 0 2.9.8 4.3.3 1.2-.6 2.3 0 2.7 1.1.9-.1.5-1 0-1.3.7-.3 1.1-.8.3-1.3-.4-.5.6-1.5-.6-1.4 0-.9-.3-1.8-1.3-2.1-1-.9-4 1.3-3.9-.7-.3-1 1.2-.1 1.6-.7.4-1.1-2.1-1-1.2-1.8.5-.3 3.1-.8 1.1-1.2-1 .3-1.8.1-2.6-.4-.7 1.2-2.7-.6-2.4 1.5-.3.8-2.1 2.8-2.6 1.3.4-1.2 2.5-1.6 1.9-3.3-.1-1-1 .2-1.4.1-.2-.6.6-1.4 1.2-1.6 1.1.9 1.2-1.1 2.3-.9.8-.2-.3-.5-.5-.7.2-.6 1.4-.9.2-1.4-1.1-.8-1.8.8-2.7.9-.8-.9.8-1.4 1.2-1.9 0-.4-.9-.1-.6-.4.2-.4 1.9-.5 1.1-1.1-1.2-.4-2.7-.3-3.9.2-.7.2-.9 1.9-1.6 1.8-.1-.9.3-2.4-.7-2.6zM50 51.8c.9-.2 0 1.4-.4 1.4 0-.5-1.3-.5-.5-1 .3-.2.6-.3.9-.4z"/></svg>
