<svg xmlns="http://www.w3.org/2000/svg" width="240" height="160" viewBox="0 0 240 160"><path fill="#00008B" d="M0 0h240v160H0V0z"/><path fill="#FFF" d="M70 24.4V0H50v24.4L13.4 0H0v8.9l26.6 17.7H0v26.7h26.6L0 71.1V80h13.4L50 55.6V80h20V55.6L106.6 80H120v-8.9L93.4 53.3H120V26.7H93.4L120 8.9V0h-13.4L70 24.4zm117.8 16.3l-4.8 3.5 1.8 5.7-4.8-3.5-4.8 3.5 1.8-5.7-4.8-3.5h5.9L180 35l1.8 5.7h6zm-16.9.2l-3 5.1 4 4.4-5.8-1.2-3 5.1-.6-5.9-5.8-1.2 5.4-2.4-.6-5.9 4 4.4 5.4-2.4zm-15.3 7.2L155 54l5.4 2.4-5.8 1.2-.6 5.9-3-5.1-5.8 1.2 4-4.4-3-5.1 5.4 2.4 4-4.4zm-11.1 12.7l1.8 5.7h5.9l-4.8 3.5 1.8 5.7-4.8-3.5-4.8 3.5 1.8-5.7-4.8-3.5h5.9l2-5.7zm-4.9 16.1l4 4.4 5.4-2.4-3 5.1 4 4.4-5.8-1.2-3 5.1-.6-5.9-5.8-1.2 5.4-2.4-.6-5.9zm2 16.8l5.4 2.4 4-4.4-.6 5.9 5.4 2.4-5.8 1.2-.6 5.9-3-5.1-5.8 1.2 4-4.4-3-5.1zm8.7 14.5h5.9l1.8-5.7 1.8 5.7h5.9l-4.8 3.5 1.8 5.7-4.8-3.5-4.8 3.5 1.8-5.7-4.6-3.5zm13.8 9.7l5.4-2.4-.6-5.9 4 4.4 5.4-2.4-3 5.1 4 4.4-5.8-1.2-3 5.1-.6-5.9-5.8-1.2zm16.6 3.2l4-4.4-3-5.1 5.4 2.4 4-4.4-.6 5.9 5.4 2.4-5.8 1.2-.6 5.9-3-5.1-5.8 1.2zm16.4-3.8l1.8-5.7-4.8-3.5h5.9l1.8-5.7 1.8 5.7h5.9l-4.8 3.5 1.8 5.7-4.8-3.5-4.6 3.5zm13.5-10.1l-.6-5.9-5.8-1.2 5.4-2.4-.6-5.9 4 4.4 5.4-2.4-3 5.1 4 4.4-5.8-1.2-3 5.1zm8.2-14.8l-3-5.1-5.8 1.2 4-4.4-3-5.1 5.4 2.4 4-4.4-.6 5.9 5.4 2.4-5.8 1.2-.6 5.9zm1.5-16.8l-4.8-3.5-4.8 3.5 1.8-5.7-4.8-3.5h5.9l1.8-5.7 1.8 5.7h5.9l-4.8 3.5 2 5.7zm-5.5-16l-5.8-1.2-3 5.1-.6-5.9-5.8-1.2L205 54l-.6-5.9 4 4.4 5.4-2.4-3 5.1 4 4.4zm-11.5-12.3l-5.8 1.2-.6 5.9-3-5.1-5.8 1.2 4-4.4-3-5.1 5.4 2.4 4-4.4-.6 5.9 5.4 2.4z"/><path fill="#F00" d="M54 0h12v32h54v16H66v32H54V48H0V32h54V0zM0 0l40 26.7h-8.9L0 6V0zm120 0h-8.9l-40 26.7H80L120 0zm0 80L80 53.3h8.9L120 74v6zM0 80h8.9l40-26.7H40L0 80z"/></svg>
