<svg xmlns="http://www.w3.org/2000/svg" width="240" height="160" viewBox="0 0 60 40"><path fill="#DE2910" d="M0 0h60v40H0z"/><path fill="#FFDE00" d="M18.3 5l1-1.1-.8-1.3 1.3.6 1-1.1-.1 1.5 1.3.6-1.4.3-.1 1.5-.8-1.2-1.4.2zm-7 3.1L10 4 8.7 8.1H4.3l3.5 2.6-1.4 4.1 3.5-2.6 3.5 2.6-1.4-4.1 3.5-2.6h-4.2zm12.2.4l.2 1.4.7-1.3 1.4.3-1-1 .7-1.3-1.3.6-1-1 .2 1.4-1.4.7 1.5.2zm2.4 4.8h-1.5l-.5-1.3-.4 1.4-1.5.1 1.2.8-.4 1.4 1.2-.9 1.2.8-.5-1.4 1.2-.9zm-5.2 2.8l-.9 1.1-1.4-.5.8 1.2-.9 1.1 1.4-.4.8 1.2.1-1.5 1.4-.4-1.4-.5.1-1.3z"/></svg>
