<svg xmlns="http://www.w3.org/2000/svg" width="240" height="160" viewBox="0 0 90 60"><path fill="#003893" d="M0 0h90v60H0z"/><path fill="#FFF" d="M0 30h90v15H0z"/><path fill="#CF2027" d="M0 35h90v5H0z"/><path fill="#F7D116" d="M33.9 21.6h2.2l-1.8 1.3.7 2.1-1.8-1.3-1.8 1.3.7-2.1-1.8-1.3h2.2l.7-2.1.7 2.1zm0 30l-.7-2.1-.7 2.1h-2.2l1.8 1.3-.7 2.1 1.8-1.3L35 55l-.7-2.1 1.8-1.3h-2.2zm14.7-18.4l1.8-1.3h-2.2l-.7-2.1-.7 2.1h-2.2l1.8 1.3-.7 2.1 1.8-1.3 1.8 1.3-.7-2.1zm-28.9 8l-.7-2.1-.7 2.1h-2.2l1.8 1.3-.7 2.1 1.8-1.3 1.8 1.3-.7-2.1 1.8-1.3h-2.2zm23 7.5l-.7-2.1-.7 2.1h-2.2L41 50l-.7 2.1 1.8-1.3 1.8 1.3-.7-2.1 1.8-1.3h-2.3zM17.2 35.3L19 34l1.8 1.3-.7-2.1 1.8-1.3h-2.2l-.7-2-.7 2.1h-2.2l1.8 1.3-.7 2zm27.5 5.9l1.8 1.3-.7 2.1 1.8-1.3 1.8 1.3-.7-2.1 1.8-1.3h-2.2l-.7-2.1-.7 2.1h-2.2zm-23.1 7.5l1.8 1.3-.7 2.1 1.8-1.3 1.8 1.3-.8-2.1 1.8-1.3h-2.2l-.7-2.1-.7 2.1h-2.1zm0-24.3l1.8 1.3-.7 2.1 1.8-1.3 1.8 1.3-.7-2.1 1.8-1.3h-2.2l-.7-2.1-.7 2.1h-2.2zm17.6 0l1.8 1.3-.7 2.1 1.8-1.3 1.8 1.3-.7-2.1 1.8-1.3h-2.2l-.7-2.1-.7 2.1h-2.2z"/></svg>
