<svg xmlns="http://www.w3.org/2000/svg" width="240" height="160" viewBox="0 0 240 160"><path fill="#0021AD" d="M0 0h240v160H0z"/><path fill="#1C8A42" d="M0 0h240v160L0 0z"/><path fill="#FFC639" d="M120 58.3c12 0 21.7 9.7 21.7 21.7s-9.7 21.7-21.7 21.7S98.3 92 98.3 80 108 58.3 120 58.3zm90.7-24.9c-1-3.9-9.8-12.3-16.4-17.6-1.6-1.1-2.6-.4-2.4 1.1 3.5 5.8 3.4 8.4 3.4 8.4 3 3.3 1.7 5.6 6.7 10 2.3 1.5.6 6 .7 8.4 0 1.5-1.1 1.3-2.1 1.2-7.6-6.9-15.1-7-21.7-9-2.6-.3-2.6 1-1.8 1.6 7.5 8 11.9 9.4 17.6 12.9 3.9 3.3 6 4.6 6 6 .1 2.7-2.8 9.7-4.7 10.3-14.1 9.5-21.5 12-44.4 9.1-.3-.2-2.5.2 0 1.1 5.8 1.9 20.2 5.1 34-1.5 3.3-2.3 5.6-1.6 8-3 11.3-7 24.4-11 24.4-11 2.3-.2 4.7-.5 4.8-2.4.7-.5 1.8-.1 2.7-1.7 1.8-.3 1.5-1 1.5-1-.5-1.3-2.2-1.8-3.4-2.7-3-1-3.5-.5-5.6.4-7.5-1-4.8-10.8-7.3-20.6z"/><path fill="#1C8A42" d="M106.8 70.3c1.5 2 3.7 5.4 5.5 4.6 1.4 0 2.1.1 2.3 1 3.3.6 8.9-.8 12.4-5.4 0 0 .3 0 .2-1.7 0-.7 1-.6 1-.4.1.4.1.7.3.7.4-.1 1-1.1 1.5-1.7.1-.3.1-.6.1-.9.3-.6.9-.5 1-.2.1.2.1.4.2.6.7.4 1.8 0 1.9 0 .1-.5.5-.6 1-.4-.3 2.9.6 3 .5 4.5 0 1.6-.5 2.1-.5 2.7.2.8 2.6.8 1.7 1.4-.8.4 0 1.2-1.1 1.4-4 2-4.8 4.7-4.8 4.7-.6 1-1.3.5-1.6 1-.2.6-.4 2.1 0 2.8.5 2.4-1.3 4.7-1.4 5.7-.4.8.1 4.5-.3 4.5-2.5 0-4.3-.5-5.3-.7.9-4.1.6-7.7.6-8-.2-2.9-4.4-2.2-5-2.6-.9-.2-.5-.8-2.4-1-1.8.9-2.7.1-3.1-.9.1-.5-3.7.1-5.8-.4-1 .6-2 3.7-3.3 1.2-.1-1.8 1.9-1.9 2.9-2.9.2-1.1.1-1.9.6-2.7.4-.6 1-.3 1.3-.6.4-.3.6-2.1.2-2.6 0 0-1.7-1.5-1.8-1.6-.4-1.2.8-2.3 1.2-2.1zM220.7 46.6c-.3.8-2.3.2-2-.6.3-.9 2.3-.3 2 .6z"/><path fill="#FFF" d="M45.2 75.8L42.1 73 39 75.8l.3-4.2-4.1-.7 3.5-2.3-2.1-3.6 4 1.3 1.6-3.9 1.5 3.9 4-1.2-2.1 3.6L49 71l-4.1.6.3 4.2zM56 110.5l-3.3-2.2-3.2 2.3 1.1-3.7-3.3-2.3 4-.1 1.2-3.7 1.3 3.7h4l-3.2 2.4 1.4 3.6zm-10.2 29.9l-3.1-2.9-3.1 2.8.3-4.2-4.1-.7 3.5-2.3-2.1-3.6 4 1.3 1.6-3.9 1.5 3.9 4-1.2-2.1 3.6 3.4 2.4-4.1.6.3 4.2zm-27.5-35l-3.1-2.9-3.1 2.8.3-4.2-4.1-.7 3.5-2.3-2.1-3.6 4 1.3 1.6-3.9 1.5 3.9 4-1.2-2.1 3.6 3.4 2.4-4.1.6.3 4.2zm52.9-9.2l-3.1-2.9-3.1 2.9.3-4.2-4.1-.7 3.5-2.3-2.1-3.6 4 1.3 1.6-3.9 1.5 3.9 4-1.2-2.1 3.6 3.4 2.4-4.1.6.3 4.1z"/></svg>
