<svg xmlns="http://www.w3.org/2000/svg" width="240" height="160" viewBox="0 0 240 160"><path fill="#FFF" d="M0 0h240v160H0z"/><path fill="#ED8000" d="M102.6 52.5c0 1.8.2 2 .3 2.4 0 .2.2 6.6-.8 8.3-1 1.7-2.8 2.7-3.6 3s-3-1.6-5.3-2.3c-2.2-.7-2-.6-3-.6s-3 .8-3.6 1.3c-.4 0-.5-.2-.7 0-.2.2-1.2 1.2-1.4 1.7-.2.6-.8 2.8-1.5 3-.6.2-2.5 2-3.7 2.2h-1.7c-.8-.2-1-1-1.7-1.5-1-.4-1-.7-1-.7s-.3-1-.7-1c-.3 0-.7 1.7-.7 2.2s1 2.2 1.4 2.5c.5.3.5 2.4.2 3-.2.6.5 1.2.6 1.7 0 .6-.7 1-.3 1.2.3 0 .8.7.8 1.4s1.7 1 2 1.6c.4.7.6 1.8.7 2.5 0 .7.5.4.6 2l2 1.3c.8.3.7 1.2 1.6 1.5 1 .3 1 0 1.4 0 .5.2-.2.3.6.6.8 0 1.2-.2 1.8 0 .7.4 1 1.3 1.5 1.5.5.2 2.4.8 2.5 1l1.6.5 1-.5s.7.2 1.4 0 1.2-1 1.6-1l1 .3 1.2-.2s1-.2 1.8.2c.8.5 2.6 2.6 2.6 3.6v1.4s.8 0 1.2 0c.3.3.3 0 3 .3-.3-.5-2.7-2.3-.4-5s2.4-1.4 3-2c.5-.4 2.6-1.7 6.2-.5 3.5-.6 1-1 3-1.2.2 0 1 0 1.6.2.2-.4.7-.8 1.5-.7 0-.4 1-1 2-1 .2-.8 2.7-1.8 4-1.8.7-.5 1.3-2.8 4.5-1.7 0-.7.6-2 1.5-2.2.2-1.5-.4-4.6 1.2-5.7 1.6-1.4 3-1 5.6-1 2 .4 2.7 1.7 3.3 1.8.6.2.8.2 1.5-.2.7-.5 0-1.4.5-1.4h1.3c1 0 .8-.4 1.4-.6 1 .5 2 0 2.4.5.5.3.5.3 1.5.5.2.6 1.2.6 1.2.6s-.7-.2-.5-.6c.2-.3 0-1.4-.5-1.8l-1-1c-.3-.5 0-.5-.5-1-.6-.6-1.8-1.2-2.2-1.8-.3-.7-.2-1.2-.8-1.7-.6-.6-3-2.5-3-4.6s0-4.2 1.5-4.8c0-1.2.2-1.4 1.5-2 1.3-.8 1.4-.3 2.2-.3.7 0 1.2 0 2-.6s0-1.8 2.2-3.7c2-1.8 3-2.8 3.6-3 .7 0 3.2-1.8 4.3-1.6.8-.8 1.6-2 2.5-2.5 1-.7 2-.7 2.4-1.3.4-.6.2-1.6 1.6-2.5 1.4-1 2.5-1.5 3-2 .7-.5 2 0 2.4-.6s.5-2 1-2.4c1-.7-4.3 2.6-6.4 2.4-1.3 0-.6.7-1.3 1-.7 0-1.8 0-2.3.5-.5.5-1.3 1.6-2 2s-1 .4-1.7.8c-1.8 1-1.8 1.2-4 1-3.4 4.3-2.7 2.7-4.5 3.6-.7.2-6.6 4-10.6 4.6-4 .6-2.2-.3-3.5 0-1.3.3-3 2.8-4.6 3H133s-2.2 1-3.3.8c-1.7.5-3 .4-3.5.3-.5 0-1.4.6-2.6 0-1-.3-1 .4-3-.2-1.8-.6-3 .2-4-.2s-.8-.8-1.5-.8-.8.5-1.6.5-1-.5-1.6-.5c-.7 0-1.5.5-2.5.3-1 0-1.4-.6-2-.6-1 0-4.7-1.7-4.7-1.7z"/><path fill="#006651" d="M125.4 118.7c-.6-3.4.8-7 4-8.5.6 2.5-1.6 6.7-4 8.5zm8.5-10c-2.2 1.7-5 5.4-3.3 8.2 2.4-1.6 4-6.7 3.2-8.4zm4-2.4c-2 1.7-4.2 6-2.5 8.4 2.6-1.7 3.5-6 2.6-8.4zm4.3-3c-2.3 2.4-3.4 6-1.8 8.3 2-2 3.4-6.3 1.8-8.2zm4.5-3.6c-2.2 1.4-3.8 6.6-2.5 8.8 2.8-1.4 3.5-7 2.5-8.8zm8 1.5c-2.3 0-7.8 3.4-7.4 6.5 4.8-1 7-4 7.3-6.5zm-10.4 10c3 2.8 8.8-.6 9.3-2-1.8-.6-6.7-.6-9.3 2zM141 114c.6 1.7 6.5 2.3 8 .4-2.2-2.3-4.5-1.5-8-.5zm-5.2 2.2c0 .4 4.4 4 8.2 2.5-.6-1.6-4.8-4.3-8.2-2.5zm-4.7 2.6c2.2 3.8 6.6 3 8.3 2.2-1.5-1.8-5-3.4-8.2-2.2zm-4.3 1.4c1.4 3 3.2 4.3 7.8 4-.7-1.7-4.2-4.4-7.8-4zm-5 1c2.2-.8 7.7-2.7 6.3-2.3-6 1.5-6 1.4-8 1.7-2-.4-2-.3-8-1.8-1.4-.5 4 1.5 6.3 2-1.4.5-2.6 1-4 2l5.7-1.5 5.6 1.4c-1.3-1-2.5-1.5-4-2zm-7-2.5c.5-3.4-1-7-4-8.5-.7 2.5 1.5 6.7 4 8.5zm-5.3-1.8c1.7-3-1.2-6.6-3.2-8.4-1 1.7.7 6.8 3.2 8.3zm-5-2.3c2-2.4-.2-6.7-2.5-8.4-1 2.4 0 6.7 2.5 8.4zm-6.7-11.3c-1.7 2-.2 6 1.8 8.2 1.7-2.3.6-6-1.8-8.2zm-2 5c1.4-2-.3-7.3-2.5-8.7-1 2-.3 7.4 2.5 8.8zm-3.2-.7c.4-3-5-6.6-7.3-6.5.3 2.6 2.6 5.4 7.3 6.5zm3 3.5c-2.5-2.6-7.4-2.6-9.2-2 .5 1.5 6.3 4.8 9.3 2zm3.6 2.7c-3.5-1-5.8-2-8 .4 1.5 2 7.4 1.3 8-.5zm5.2 2.2c-3.4-1.8-7.6 1-8.2 2.5 3.8 1.6 8.3-2 8.2-2.5zm4.7 2.6c-3.2-1.2-6.8.4-8.3 2.2 1.8.8 6.2 1.7 8.2-2.2zm-3.5 5.3c4.6.5 6.4-.8 7.8-3.8-3.6-.4-7 2.3-7.8 4z"/></svg>
