<svg xmlns="http://www.w3.org/2000/svg" width="240" height="160" viewBox="0 0 240 160"><path fill="#006B3F" d="M0 0h240v160H0V0z"/><path fill="#FCD116" d="M100 0h20v160h-20V0z"/><path fill="#FCD116" d="M0 60h240v20H0V60z"/><path fill="#FFF" d="M120 0h20v160h-20V0z"/><path fill="#FFF" d="M0 80h240v20H0V80z"/><path d="M113.3 0h13.3v160h-13.3V0z"/><path d="M0 73.3h240v13.3H0V73.3z"/><circle fill="#D41C30" cx="120" cy="80" r="40"/><path fill="#006B3F" stroke="#000" stroke-width=".267" d="M118.7 48.4l1.3-3.6 1.2 3.6 3.9.1-3.1 2.3 1.4 4-3.4-2.4-3.3 2.3 1.3-3.9-3-2.3c-.1 0 3.7-.1 3.7-.1zm2.6 63.2l-1.3 3.6-1.2-3.6-3.9-.1 3.1-2.3-1.4-4 3.4 2.4 3.3-2.3-1.3 3.9 3 2.3c.1 0-3.7.1-3.7.1zm16.2-57.9l3.2-2.2-1.2 3.6 3.1 2.3-3.9.1-1.2 4.1-1.3-4-4.1-.1 3.3-2.4-1.1-3.6c.1 0 3.2 2.2 3.2 2.2zm-35 52.6l-3.2 2.2 1.2-3.6-3.1-2.3 3.9-.1 1.2-4.1 1.3 4 4.1.1-3.3 2.4 1.1 3.6c-.1 0-3.2-2.2-3.2-2.2zM149.6 69l3.8.1-3 2.2 1.2 3.7-3.2-2.2-3.4 2.6 1.3-4-3.2-2.5h4.1l1.2-3.6c0 .1 1.2 3.7 1.2 3.7zM90.4 91l-3.8-.1 3-2.2-1.2-3.7 3.2 2.2 3.4-2.6-1.3 4 3.2 2.5h-4.1l-1.2 3.6c0-.1-1.2-3.7-1.2-3.7zm60-2.5l3.1 2.3h-3.8l-1.3 3.7-1.3-3.7-4.2.1 3.4-2.5-1.2-3.9 3.3 2.4 3.1-2.2c0 .2-1.1 3.8-1.1 3.8zm-60.8-17l-3.1-2.3h3.8l1.3-3.7 1.3 3.7 4.2-.1-3.4 2.5 1.2 3.9-3.3-2.4-3.1 2.2c0-.2 1.1-3.8 1.1-3.8zm50 33.3l1.1 3.7-3-2.2-3.2 2.2 1.1-3.7-3.5-2.4h4.2l1.3-3.8 1.3 3.9 3.8.1c-.1-.1-3.1 2.2-3.1 2.2zm-39.2-49.6l-1.1-3.7 3 2.2 3.2-2.2-1.1 3.7 3.5 2.4h-4.2l-1.3 3.8-1.3-3.9-3.8-.1c.1.1 3.1-2.2 3.1-2.2z"/><path fill="#006B3F" stroke="#000" stroke-width=".16" d="M124.8 78.8c1.3-.1 2.8 5 3.2 11.5.5 6.5-.2 11.9-1.5 12-1.3.1-2.8-5-3.2-11.5-.5-6.5.2-11.8 1.5-12z"/><path fill="#006B3F" stroke="#000" stroke-width=".16" d="M127 78.7c1.4-.1 2.9 5 3.4 11.5s-.3 11.9-1.7 12-2.9-5-3.4-11.5c-.5-6.4.3-11.8 1.7-12z"/><path fill="#006B3F" stroke="#000" stroke-width=".16" d="M125.8 78.2c1.1-.1 2.4 5.6 2.9 12.8.5 7.2 0 13.1-1.1 13.2s-2.4-5.6-2.9-12.8c-.5-7.2 0-13.1 1.1-13.2z"/><path fill="#9C4A00" stroke="#000" stroke-width=".16" d="M108.2 96.7c2-.1 1.1-1.2 2.2-1.8 1.1-.6 2.5-.2 2.9.5.5.7.1 1.4.7 1.4.5 0 16-.6 16.5 0s.6 1.8.1 2.2c-.5.5-20.1.7-20.7.2-.7-.3-1.7-2.4-1.7-2.5z"/><path fill="#FCD116" stroke="#000" stroke-width=".16" d="M119.1 98.2c0 1.5 2.2 1.1 2.3 2.4 0 1.3-3.8.1-3.8-2.4.2-2.5 3.8-3.7 3.9-2.3-.1 1.1-2.3.8-2.4 2.3z"/><path fill="#FCD116" stroke="#000" stroke-width=".16" d="M120.5 98.2c-.1 1.5 2.2 1.1 2.3 2.4-.1 1.3-3.8.1-3.9-2.4.2-2.5 3.8-3.7 3.9-2.3 0 1.2-2.3.8-2.3 2.3z"/><path fill="#FCD116" stroke="#000" stroke-width=".16" d="M121.9 98.1c0 1.5 2.3 1.1 2.3 2.4-.1 1.3-3.8.1-3.9-2.4.2-2.5 3.9-3.7 3.9-2.3 0 1.2-2.3.8-2.3 2.3z"/><path fill="#FCD116" stroke="#000" stroke-width=".16" d="M123.2 98.1c0 1.6 2.3 1.1 2.3 2.4-.1 1.4-3.8.1-3.8-2.4.2-2.5 3.8-3.7 3.9-2.3-.1 1.2-2.3.8-2.4 2.3z"/><path fill="#9C4A00" stroke="#000" stroke-width=".107" d="M129.7 96.7c.7 0 1.3.6 1.3 1.3 0 .7-.6 1.3-1.3 1.3s-1.3-.6-1.3-1.3c0-.7.6-1.3 1.3-1.3z"/><path fill="#006B3F" stroke="#000" stroke-width=".16" d="M121.4 91c.6-.1 1.3 1 1.4 2.4.1 1.4-.2 2.6-.9 2.7-.6.1-1.3-1-1.4-2.4-.1-1.4.3-2.6.9-2.7z"/><path fill="#006B3F" stroke="#000" stroke-width=".16" d="M119.5 90.9c.6-.1 1.3 1 1.4 2.4.1 1.4-.2 2.6-.9 2.7s-1.3-1-1.4-2.4c-.1-1.4.3-2.6.9-2.7z"/><path fill="#006B3F" stroke="#000" stroke-width=".16" d="M118.1 88.3c.6-.1 1.3 1 1.4 2.4.1 1.4-.2 2.6-.9 2.7s-1.3-1-1.4-2.4c-.1-1.3.2-2.6.9-2.7z"/><path fill="#006B3F" stroke="#000" stroke-width=".16" d="M120 87.9c.6-.1 1.2 1.1 1.4 2.6s-.2 2.9-.8 3c-.6.1-1.2-1.1-1.4-2.6-.1-1.5.2-2.9.8-3zM123.1 88.2c.6-.1 1.2 1 1.4 2.5s-.2 2.7-.8 2.8c-.6.1-1.2-1-1.4-2.5s.2-2.7.8-2.8z"/><path fill="#006B3F" stroke="#000" stroke-width=".16" d="M121.6 87.3c.6-.1 1.2 1 1.4 2.5.2 1.5-.2 2.7-.8 2.8-.6.1-1.2-1-1.4-2.5-.2-1.4.2-2.7.8-2.8z"/><path fill="#006B3F" stroke="#000" stroke-width=".16" d="M119.7 86c.6-.1 1.2 1 1.4 2.5s-.2 2.7-.8 2.8c-.6.1-1.2-1-1.4-2.5s.2-2.7.8-2.8z"/><path fill="#006B3F" stroke="#000" stroke-width=".16" d="M117.9 85.2c.6-.1 1.2 1 1.4 2.5s-.2 2.7-.8 2.8c-.6.1-1.2-1-1.4-2.5-.2-1.4.2-2.7.8-2.8z"/><path fill="#9461C9" stroke="#000" stroke-width=".16" d="M116.1 65.9s-3.9 3.4-3.5 12.6c.5 9.2 8.6 13.6 8.6 13.6s2.1-2.7 1.9-10.1c-.6-10.9-4.5-15.7-4.5-15.7l-2.5-.4z"/><path fill="#006B3F" stroke="#000" stroke-width=".16" d="M125.1 91.2c.6 0 1.1 1.2 1 2.6-.1 1.4-.7 2.5-1.4 2.5s-1.1-1.2-1-2.6c.1-1.4.7-2.5 1.4-2.5z"/><path fill="#006B3F" stroke="#000" stroke-width=".16" d="M123.2 90.7c.6 0 1.1 1.2 1 2.6-.1 1.4-.7 2.5-1.4 2.5-.6 0-1.1-1.2-1-2.6.1-1.4.7-2.5 1.4-2.5z"/><path fill="#006B3F" stroke="#000" stroke-width=".16" d="M122.2 88c.6 0 1.1 1.2 1 2.6-.1 1.4-.7 2.5-1.4 2.5s-1.1-1.2-1-2.6c.2-1.4.8-2.5 1.4-2.5z"/><path fill="#006B3F" stroke="#000" stroke-width=".16" d="M124.3 88.1c.6 0 1 1.3.9 2.8-.1 1.6-.7 2.8-1.3 2.8-.6 0-1-1.3-.9-2.8 0-1.6.6-2.8 1.3-2.8zM126.9 88.7c.6 0 1 1.2.9 2.7-.1 1.5-.7 2.6-1.3 2.6-.6 0-1-1.2-.9-2.7.1-1.4.7-2.6 1.3-2.6z"/><path fill="#006B3F" stroke="#000" stroke-width=".16" d="M125.6 87.6c.6 0 1 1.2.9 2.7-.1 1.5-.7 2.6-1.3 2.6-.6 0-1-1.2-.9-2.7s.7-2.6 1.3-2.6z"/><path fill="#006B3F" stroke="#000" stroke-width=".16" d="M124 85.9c.6 0 1 1.2.9 2.7-.1 1.5-.7 2.6-1.3 2.6-.6 0-1-1.2-.9-2.7.1-1.4.6-2.6 1.3-2.6z"/><path fill="#006B3F" stroke="#000" stroke-width=".16" d="M122.4 84.8c.6 0 1 1.2.9 2.7-.1 1.5-.7 2.6-1.3 2.6-.6 0-1-1.2-.9-2.7.1-1.4.6-2.6 1.3-2.6z"/><path fill="#D41C30" stroke="#000" stroke-width=".16" d="M120.4 72.5c1.7-.7 4.9 3 7.1 8.1s2.6 9.8.9 10.5c-1.7.7-4.9-3-7.1-8.1s-2.6-9.9-.9-10.5z"/><ellipse transform="rotate(-88.913 121.76 72.227) scale(.99998)" fill="#006B3F" stroke="#000" stroke-width=".16" cx="121.8" cy="72.2" rx="1.3" ry="1.4"/><ellipse transform="rotate(-88.913 122.837 70.428) scale(.99998)" fill="#006B3F" stroke="#000" stroke-width=".16" cx="122.8" cy="70.4" rx="1.3" ry="1.3"/><ellipse transform="rotate(-88.913 121.1 70.397) scale(.99998)" fill="#006B3F" stroke="#000" stroke-width=".16" cx="121.1" cy="70.4" rx="1.3" ry="1.3"/><ellipse transform="rotate(-89.006 121.553 69.02) scale(.99995)" fill="#006B3F" stroke="#000" stroke-width=".16" cx="121.6" cy="69" rx="1.2" ry="1.3"/><ellipse transform="rotate(-89.006 121.4 67.515) scale(.99995)" fill="#006B3F" stroke="#000" stroke-width=".16" cx="121.4" cy="67.5" rx="1.2" ry="1.3"/><ellipse transform="rotate(-88.913 119.44 69.382) scale(.99998)" fill="#006B3F" stroke="#000" stroke-width=".16" cx="119.4" cy="69.4" rx="1.3" ry="1.3"/><ellipse transform="rotate(-89.048 119.91 67.712) scale(1.00004)" fill="#006B3F" stroke="#000" stroke-width=".16" cx="119.9" cy="67.7" rx="1.2" ry="1.3"/><ellipse transform="rotate(-88.913 117.704 67.8) scale(.99998)" fill="#006B3F" stroke="#000" stroke-width=".16" cx="117.7" cy="67.8" rx="1.3" ry="1.4"/><ellipse transform="rotate(-89.006 120.415 65.63) scale(.99995)" fill="#006B3F" stroke="#000" stroke-width=".16" cx="120.4" cy="65.6" rx="1.2" ry="1.3"/><ellipse transform="rotate(-89.048 118.624 65.874) scale(1.00004)" fill="#006B3F" stroke="#000" stroke-width=".16" cx="118.6" cy="65.9" rx="1.2" ry="1.3"/><ellipse transform="rotate(-88.913 115.81 67.866) scale(.99998)" fill="#006B3F" stroke="#000" stroke-width=".16" cx="115.8" cy="67.9" rx="1.3" ry="1.3"/><ellipse transform="rotate(-89.048 116.34 66.874) scale(1.00004)" fill="#006B3F" stroke="#000" stroke-width=".16" cx="116.3" cy="66.9" rx="1.2" ry="1.3"/><ellipse transform="rotate(-89.048 116.887 65.828) scale(1.00004)" fill="#006B3F" stroke="#000" stroke-width=".16" cx="116.9" cy="65.8" rx="1.2" ry="1.3"/><path fill="#006B3F" stroke="#000" stroke-width=".16" d="M120.5 69.1c2.2-.8 6.1 3.6 8.7 9.7s3 11.7.8 12.5c-2.2.8-6.1-3.6-8.7-9.7s-2.9-11.7-.8-12.5z"/><path fill="#006B3F" stroke="#000" stroke-width=".16" d="M127.8 79.8c.4-.2 1.2.7 1.8 2 .6 1.3.7 2.5.3 2.7-.4.2-1.2-.7-1.8-2-.6-1.4-.7-2.5-.3-2.7z"/><path fill="#006B3F" stroke="#000" stroke-width=".16" d="M128.4 82.1c3.4 4.2 3 6.8 2.6 9.1-1.1-2.6-1.7-4.3-5.1-8.4-3.4-4.2-1.7-7.1-1.5-8.6.6 1.3.6 3.7 4 7.9zm.3 3.3c3.4 4.2 3 6.8 2.7 9.1-1.1-2.6-1.7-4.3-5.1-8.4-3.4-4.2-1.7-7.1-1.4-8.6.4 1.3.4 3.8 3.8 7.9zm.1 2.7c3.5 4.1 3.1 6.7 2.8 9-1.1-2.6-1.7-4.2-5.2-8.3-3.5-4.1-1.8-7-1.7-8.5.6 1.3.6 3.7 4.1 7.8z"/><path fill="#006B3F" stroke="#000" stroke-width=".16" d="M124.6 74.1c.8-.2 2.3 1.5 3.3 3.7s1.2 4.3.4 4.5-2.3-1.5-3.3-3.7-1.2-4.3-.4-4.5z"/><path fill="#006B3F" stroke="#000" stroke-width=".16" d="M123.7 77.1c.7-.1 1.9 1.3 2.7 3.2.8 1.9.8 3.5.1 3.6-.7.1-1.9-1.3-2.7-3.2-.8-1.8-.9-3.4-.1-3.6z"/><path fill="#006B3F" stroke="#000" stroke-width=".16" d="M122 78.6c.7-.1 1.9 1.3 2.6 3.2.7 1.9.8 3.5 0 3.6-.7.1-1.9-1.3-2.6-3.2-.7-1.9-.7-3.5 0-3.6zM123.7 73.9c.6-.1 1.6.9 2.3 2.3.7 1.4.7 2.6.2 2.7s-1.6-.9-2.3-2.3c-.7-1.4-.8-2.6-.2-2.7z"/><path fill="#006B3F" stroke="#000" stroke-width=".16" d="M122.4 74.9c.6-.1 1.5 1 2.1 2.5.6 1.4.6 2.7 0 2.7s-1.5-1-2.1-2.5c-.6-1.4-.6-2.7 0-2.7z"/><path fill="#006B3F" stroke="#000" stroke-width=".16" d="M122.3 75.8c1 2.5 1.4 4.7.9 5-.5.3-1.7-1.5-2.7-4M122.2 72c.6-.1 1.5 1 2.1 2.5.6 1.4.6 2.7 0 2.7s-1.5-1-2.1-2.5c-.5-1.4-.5-2.7 0-2.7z"/><path fill="#006B3F" stroke="#000" stroke-width=".16" d="M120.4 72.8c.6-.1 1.5 1.1 2.1 2.5.5 1.4.5 2.7-.1 2.7-.6.1-1.5-1.1-2.1-2.5s-.5-2.6.1-2.7z"/><path fill="#006B3F" stroke="#000" stroke-width=".16" d="M120.5 72.5c1 1.7 1.5 3.2 1.2 3.5-.3.3-1.4-.9-2.4-2.6"/><path fill="#006B3F" stroke="#000" stroke-width=".16" d="M121.2 71.3c1 1.7 1.5 3.2 1.2 3.5-.3.3-1.4-.9-2.4-2.6m4.3-.6c1.3 2.3 2.1 4.4 1.7 4.7-.5.3-1.9-1.2-3.3-3.5"/><path fill="#006B3F" stroke="#000" stroke-width=".16" d="M122.3 70.4c.9 1.8 1.5 3.5 1.2 3.8-.3.3-1.4-1-2.4-2.8"/><path fill="#9461C9" stroke="#000" stroke-width=".16" d="M122.1 67.7c-.6.6 0 1.9.6 2.3.7.6 4.5 4.6 7.1 1.3-2.1 0-6.1-5.1-7.7-3.6z"/><path fill="#9461C9" stroke="#000" stroke-width=".16" d="M121.7 65.7c-.7.7 0 1.9.6 2.3.6.6 4.5 4.6 7.1 1.3-2.1 0-6.1-5-7.7-3.6z"/><path fill="#9461C9" stroke="#000" stroke-width=".16" d="M121.1 63.8c-.6.7 0 1.9.6 2.3.7.6 4.5 4.6 7.1 1.3-2.1 0-6.1-5-7.7-3.6z"/><path fill="#9461C9" stroke="#000" stroke-width=".16" d="M119.8 61.7c-.6.7 0 1.9.6 2.3.7.6 4.5 4.6 7.1 1.3-2.1 0-6.1-5-7.7-3.6z"/><path fill="#9461C9" stroke="#000" stroke-width=".16" d="M115.1 59.6c1.3-1 3.8-1.3 5.8-.3 1.6.8 4.3 4 6.3 4.8-1.4.3-2.2 0-3.2-.4-1.8 1.3-2.4 1.5-4.3 1.8-2.5.4-4.6-.3-5.3-1.6-.8-1.3-.4-3.3.7-4.3z"/><ellipse transform="rotate(-88.983 117.993 61.632) scale(.99996)" fill="#D41C30" stroke="#000" stroke-width=".16" cx="118" cy="61.6" rx=".7" ry="1.2"/><ellipse transform="rotate(-110.298 114.426 64.366)" fill="#FCD116" stroke="#000" stroke-width=".16" cx="114.4" cy="64.4" rx="1" ry="1.6"/><ellipse transform="matrix(.0172 -1 1 .0172 54.39 178.447)" cx="118" cy="61.6" rx=".4" ry=".4"/><path fill="#FCD116" stroke="#000" stroke-width=".16" d="M115.5 62.5c.1.5-.3 1.2-1.1 1.5-.9.3-1.5 1.1-1.9 2.5-1.3-3-.5-4.3.9-4.5 1.2-.5 1.9-.4 2.1.5z"/><ellipse transform="rotate(-93.075 114.15 62.81)" cx="114.2" cy="62.8" rx=".3" ry=".3"/></svg>
