<svg xmlns="http://www.w3.org/2000/svg" width="240" height="160" viewBox="0 0 240 160"><path d="M0 0h240v160H0z"/><path fill="#FFF" d="M0 0h240v106.7H0z"/><path fill="#CE1126" d="M0 0h240v53.3H0z"/><path fill="#C09300" d="M132.5 101.9c.3.5-.5.5-.5.2 0-.2.4-.4.5-.2zm-1.8-5c-.1.1 0 .2.1.2l1.3-.4c.1 0 .1-.2 0-.2-.4-.1-1.1.1-1.4.4zm-.7.2c-.3 0-1.2.2-1.6.4-.1.1-.1.2.1.2l1.5-.4c.1 0 .1-.2 0-.2zm-2.6-25.8c0 2.1-.5 5-1.5 7.5 0 .1-.1.1-.1.2s-.1.2-.1.2c-1.4 3.1-3.3 5.3-5.7 7.2-4.9-3.9-7.5-9.7-7.4-15.2 1.2.2 5.5-.7 7.4-2.1 1.7 1.5 5.7 2.4 7.4 2.2zM120 86.2c1-.8 1.8-1.6 2.7-2.6V70.8c-1-.3-2-.8-2.6-1.3-.7.5-1.7.9-2.9 1.3v12.6c.7.9 1.7 1.9 2.8 2.8zm13.1 15.1c-.5.2-1 .3-1.4.4-.3 0-.4.3-.6.5-.2.1-.6.2-.8 0-.1-.1-.5-.1-.4.1 0 .2-.1.5-.3.6-.2.3-.6.1-.8-.1-.1-.3-.4-.3-.7-.3-.2.1-.6 0-.7.3 0 .3-.3.5-.6.6h-.4c0-.3.4-.2.5-.4.2-.2.1-.4-.2-.3-.2 0-.4.1-.5-.1v-.5c.2-.2.3-.4.6-.5.2-.1.4-.2.5.1 0 .2.1.6.4.5 0-.3.1-.6.3-.8.1-.2.6-.3.3-.5s.1-.5.3-.6c.2.2.2.6.3.8.2.1.5.1.7.3.2.2.2.6.5.5.2-.1.2-.4.5-.5.2-.2.5 0 .7.2.2.2.6 0 .4-.2-.3-1-.2-1.6-.7-1.7-.3 0-.5.5-.7 0-.2-.1-.2-.4.1-.4.1 0 .4-.1.5-.1.3 0 .5 0 .7.2.4.4.2 1.6.6 1.9.3.3.6-.3.9-.1 0-.2.4.1 0 .1zm-6.2.6c-.2 0-.1.1-.2.2v.1h.2c.2 0 .1-.2 0-.3zm1.4-.3c-.1 0-.2.1-.2.2 0 .2 0 .2.2.2.3 0 .2-.5 0-.4zm.8.3l.2-.1c0-.1-.2-.3-.3-.3-.2-.1-.1.4.1.4zm.4.4c-.1-.1-.2 0-.3 0-.1 0-.1.1 0 .1h.3v-.1zm1.4-.7c-.1-.2-.4-.1-.4.1 0 .3.5.2.4-.1zm-6.3-3.7c-.1.1-.1.2 0 .2h1.5c.1 0 .2-.2.1-.2-.4-.2-1.3-.2-1.6 0zm14-.3c0 .1 0 .1-.1.2h-.1-.1c-10.4-9.7-8.5-7.9-9.7-8.9.6 2.1.2.6 2 7.2.5-.1.8-.2 1.1-.3.3-.1.6 0 .9.2.5 0 .9.2 1.2.6.4.5.5 1.1.3 1.7 0 .1.1.2.1.4.5 0 .9.5 1.1.8.2.3.4.5.5.5h.2c.4 0 .4.5.1.6h-.2c-.1 0-.1.1-.2.4-.1.4-.2 1-.9 1.3 0 .8-.1 1.6-1.5 1.8-2.9.8-7.8 1.3-13.5 1.3s-10.6-.5-13.4-1.3c-1.4-.3-1.5-1-1.5-1.8-.7-.3-.8-.9-.9-1.3-.1-.3-.1-.4-.2-.4h-.2c-.4-.1-.3-.6.1-.6h.2c.4-.1.8-1.2 1.7-1.3 0-.1.1-.3.1-.4-.2-.5-.1-1.2.3-1.7.3-.4.7-.6 1.2-.6.3-.2.6-.3.9-.2.3.1.7.2 1.1.3l1.6-5.6.4-1.5-9.6 8.7c-.1.1-.3 0-.3-.1l1.3-30.8c.2-4.4 3.7-4.2 7.4-2.1 1.5 1 3.3 1.5 5.2 1.5 2.8-4 2.8-7.7 2.2-8.5-.5-.8-1.2-1.3-2-.7-.2.1-.4.1-.5-.3 0-.4.1-1.3.5-1.6.6-.4 2-.2 2.8 0 .1-.3.4-.5.7-.4 1.2.1 2.9.6 3.5 1.1.5.5 1 1.6.9 4.5-.1 2.2.5 4.7 1.2 6 1.9 0 3.7-.5 5.2-1.5 3.7-2.1 7.3-2.3 7.5 2l1.4 30.8zm-2.3-2.2l-1.2-29.6c.4 0 1.3.5 1.9 1-.2-4-3.5-3.6-6.9-1.6-1.5 1-3.3 1.5-5.2 1.5.2.2.3.3.5.4l-.1.3c-.1 0-1.2-.1-1.9-.4.1.3.2.7-.1.7-1.1-.1-1.9-.7-2.2-1-.7.6-.8.9-1.1 1.1l-1.1-1.1c-1 .9-1.9 1.3-2.2 1.4l.3-1.4c-1.5.8-2.2.8-2.6.8.2-.3.4-.4.7-.8-1.9 0-3.6-.6-5.1-1.5-3.4-1.9-6.7-2.3-6.9 1.6.6-.4 1.5-.9 1.9-.9l-1.3 29.7.6-.6 1.3-28.7c.4.4 1.7 1.5 1.9 1.7l-1.1 25.1.9-.8 1.1-23.6c.4.4 1.3 1 1.5 1.3l-.9 20.6.8-.8.8-19.6c.3.1.8.4 1.2.6v-.2c2 .4 6.9-1 8.2-2.4 1.2 1.5 6.1 2.7 8 2.4v.2c.4-.1.9-.4 1.2-.5l.8 19.4.8.8-.8-20.6c.2-.2 1.1-.8 1.5-1.3l1.1 23.5.9.8-1.1-24.9c.2-.2 1.5-1.3 1.9-1.7l1.3 28.6.7.5zm-7.3-4.3l-.9 3.4 1.4 1.9c.4-.1.7-.2 1-.2l-1.5-5.1zm2.9 4.9c-.4.1-1 .3-1.3.4-2.7.7-5.6 1-7 1-.3 0-1 0-1.6-.1-.3 0-.6.3-.7.6.2.3.5.3.6.7.8.3 3.2.1 4.4 0-.1-.5.2-1.4.8-1.4.4 0 .9.3 1 1.1.6-.1 3.8-.7 4.3-1-.2-.6.2-.6-.2-1.1v-.1c0-.1-.1-.1-.3-.1zm.9.3c.2.5-.1.5.1 1.1.1.2.8.4 1 .6.1-.4 0-.8-.3-1.2-.1-.4-.5-.5-.8-.5zm2.1 3.4c-.3-.4-.5-.6-.9-.6-.2 0-.4-.1-.4-.3 0-.8-.5-1.1-1.2-1.1-.3.1-1.9.5-2.3.6-.7.1-1.3.3-1.9.4-.1.6-.7.8-.7 1.4 0 .2-.3.2-.3 0 0-.6-.5-.6-.7-1.1-2.1.2-3.9.2-4.5 0-.1.5-1.1.7-1.1 1.1 0 .2-.2.2-.3.1-.2-.3-.4-.8-.5-1.3h-.5c0 .5-.2 1-.5 1.3-.1.1-.3.1-.3-.1 0-.5-.9-.7-1.1-1.1-.9.2-3.2.1-4.5 0-.2.5-.7.5-.7 1.1 0 .2-.3.2-.3 0 0-.6-.5-.8-.7-1.4-1.1-.2-3.8-.7-4.2-.9-.7 0-1.2.3-1.2 1.1 0 .2-.2.4-.4.3-.6-.1-.8.7-1.3 1.1.1.2.1.3.2.5.1.4.2.8.7 1 .1 0 .2.2.2.3 0 1.1.1 1.2 1.1 1.4 2.7.8 7.7 1.3 13.3 1.3 5.6 0 10.5-.5 13.3-1.3.9-.2 1-.3 1-1.4 0-.1.1-.3.2-.3.5-.2.6-.5.7-1 0-.2.1-.3.2-.5-.1-.2-.2-.4-.4-.6zm-28.8-1.8c.2-.2 1-.4 1-.6.2-.5-.1-.6.1-1-.3 0-.7.2-.9.5-.2.3-.3.7-.2 1.1zm1.6-1.8v.1c-.4.5 0 .5-.2 1.1.5.3 3.7.9 4.3 1 .1-.7.6-1.1 1-1.1.6 0 .9.9.8 1.4 1.8.2 3.7.2 4.4 0 .1-.4.4-.4.6-.7 0-.3-.3-.6-.7-.6-.6.1-1.3.1-1.6.1-1.5 0-4.3-.3-7-1-1.3-.3-1.3-.5-1.6-.3zm1.9 0c.3.1.6.2 1 .2l1.4-1.9-.9-3.4-1.5 5.1zm15-11.4l-.9-.8s-.4.6-1.1 1.3l1.7 2.3c0-.1.3-2.8.3-2.8zm2.2 13.9c0 .2.2.4.4.5l.3.3c.1-.1.2-.2.2-.3.6-.8.1-1.5-.4-1.5-.4-.1-.6.6-.5 1zm-13.5-.2c0-.3-.2-.9-.5-.9-.8 0-.7 1-.7 1 0 .2.1.3.3.5.1.1.2.2.2.3l.3-.3c.2-.1.4-.2.4-.6zm2.4-11l1.7-2.2c-.6-.6-.9-1-1.1-1.3l-.9.8.3 2.7zm-3-2.4l.5 1.2c1-1 .6-.6 1.8-1.7l-.3-3c-.2-.3-.3-.5-.4-.8-.1-.2-.2-.3-.2-.5l-1.4 4.8zm2.7-.8l.7-.7c-.3-.4-.7-.9-.9-1.3l.2 2zm9.5-2c-.3.5-.6.9-.9 1.4l.7.7.2-2.1zm-3.8 15.6c-.7.2-.6 1.3-.3 1.9.1-.2.4-.4.6-.5.1-.1.4-.3.4-.4-.1-.4-.8-.5-.7-1zm1-.8c.4.1.9.1 1.3.1l-.2-1-.7.7-1-.8-1-6.9.4 6.9-1 1.3-1-1.3.4-6.9-1 6.9-1 .8-.7-.7-.2 1c.5 0 .9 0 1.3-.1.3 0 .6.2.8.4.6 0 .9.4 1 .9h.5c.1-.5.5-.9 1-.9.5-.2.8-.4 1.1-.4zm-3.2.8c.1.5-.6.6-.6 1.1 0 .1.3.3.4.4.2.1.4.3.6.5.2-.7.3-1.8-.4-2zM117 86.2l.9 3 .1-.2.6-2.7c-.3-.3-.3-.3-1-.9l-.6.8zm-.7 6c.5 2.4.4 2.1.5 2.4l1-4.6c-.2.1 0-.2-1.5 2.2zm-.3.4l-1.4 2.1c-.1.1-.3.1-.3 0l-.7-2.2-1.3 2.2.7 2.2h.3l.9-1.5c.1-.1.3-.1.3 0l.5 1.6c.4 0 .9.1 1.3.1.3-1.6.3-1.2.4-1.7-.1 0-.1.1-.7-2.8zm-1.8 3.3l-.6 1c.3 0 .6.1 1 .1l-.4-1.1zm1.7-3.8l-.6-3.1-1.3 1.8c-.1.1-.3.1-.3-.1l-.6-2.1-1.9 2 1 3.6 1.3-2.2c.1-.1.3-.1.3 0l.7 2.2 1.4-2.1zm-5 4.3c.5.1 1.1.2 1.6.3l-.5-1.8-1.1 1.5zm15.5.5l-.6-1-.4 1.1c.3 0 .7-.1 1-.1zm2.7-.5l-1.1-1.5-.5 1.8c.5 0 1.1-.1 1.6-.3zm-.3-5.9l-1.9-2-.6 2.1c0 .1-.2.2-.3.1l-1.3-1.8-.6 3.1 1.4 2.1.7-2.2c0-.1.2-.2.3 0l1.3 2.2 1-3.6zm-4.8 2.1c-.1.3-.5 2.5-.6 2.8.1.5 0 .2.4 1.7.4 0 .8 0 1.3-.1l.5-1.6c0-.1.2-.2.3 0l.9 1.5h.3l.7-2.2-1.3-2.2-.7 2.2c0 .1-.2.2-.3 0l-1.5-2.1zm-.3-.4c-1.6-2.4-1.4-2.1-1.5-2.3l1 4.6c.1-.2 0 .2.5-2.3zm-1.6-3.1l.9-3-.6-.8c-.7.7-.7.7-1 .9l.6 2.8.1.1zm5.2-4.1l-1.3-4.7c-.1.2-.2.3-.2.5-.1.3-.3.5-.4.8l-.3 3c1.2 1.1.8.7 1.8 1.7l.4-1.3zm1.2 3l-.6-13.5c-.1.8-.3 1.6-.6 2.5l.3 7.7.9 3.3zm-8.4-19.3c-1.4 1.3-6.3 2.5-7.9 2.3-.2 5.1 2.3 11.9 7.8 16.1 5.5-4.3 8-10.8 7.8-16.1-1.6.2-6.4-.9-7.7-2.3zm-7.9 5.8l-.7 13.5.9-3.3.3-7.7c-.2-.9-.4-1.7-.5-2.5zm-.9 15.4l1.8-1.8c.1-.1.2 0 .3.1l.6 2.1 1.3-1.8c.1-.1.3-.1.3.1l.6 3.2 1.5-2.2-.9-3-1.1 1.4c-.1.1-.3.1-.3-.1-.2-2.2-.3-2.9-.3-2.9l-1.8 1.7c-.1.1-.2.1-.3-.1l-.5-1.1c0 .3-.8 3-1.2 4.4zm17.4 0c-.3-.9-1.1-3.9-1.3-4.5l-.5 1.1c0 .1-.2.1-.3.1-.4-.4-1.3-1.3-1.8-1.7l-.3 2.9c0 .2-.2.2-.3.1l-1.1-1.4-.9 3 1.5 2.2.6-3.2c0-.1.2-.2.3-.1l1.3 1.8.6-2.1c0-.1.2-.2.3-.1l1.9 1.9zm-9.3-33.7c0 .2.1.3.3.3.2 0 .3-.1.3-.3 0-.2-.1-.3-.3-.3-.2 0-.3.1-.3.3zm3.5 10.4c-.8-1.2-1.2-4.3-1.3-5.6h.3c.3 4.4 1.2 5.5 1.2 5.5.3.3 1.2.4 1.6.5-1-1.1-1.8-4.2-1.6-6.6.1-2.2-.2-3.3-.5-3.9-.6-.3-2.1 0-2.4.2-.2.1-.2.5-.4.5s-.3-.1-.3-.1l-.2-.3c-.3.1-.8-.2-1.4-.7-1-.8-1.9-.6-2.3-.3-.2.3-.2.9-.2 1.1 0 0 .1 0 .1-.1.1-.3.4-.8.9-.8 1.1-.1 2.2 1.2 2.7 2.2-.2 0-.8-.2-1 0-.1 0-.1.1-.1.1.3 1.3.1 5-2.9 8.8.9-.2 1.8-.7 2.1-.9.9-1 1.5-4.2 1.7-5.5h.3c-.2 1.4-.8 4.6-1.7 5.7l-.3 1.1c.8-.4 1.5-1 1.6-1.1.6-1.2.9-4.5 1-5.8h.3c0 .6-.3 4.4-1 5.8l.9.9c.3-.4.7-.8.9-.9-.2-1-.3-4.6-.3-5.6h.3c0 .8 0 4.8.3 5.6.2.2.9.8 2 1-.1-.2-.2-.5-.3-.8zm2.6 34.9c0-.1-.1-.1-.2-.1 0 0-.3.5-.3.6 0 .1.1.1.2.2.4.2.4.9-.2 1.2-.1 0-.2.1-.2.1s0 .1.1.1c.9.1 1.5-.8.6-2.1zm-1.6-3.4c-.3-.2-1.1-.2-1.6-.2-.1 0-.2.2 0 .2.7.1 1.3.2 1.5.2.2 0 .2-.1.1-.2zm-.3 5.3c0 .1-.1.1-.3 0-.2-.1-.3-.1-.4 0-.2.2 0 .4.2.4s.4-.3.5-.2c0 .2.5.2.5-.1-.1-.3-.5-.3-.5-.1zm1.1-.7c0 .1-.1.3-.2.3s-2.1.2-2.1.2c-.2-.2 0-.2 0-.4 0-.4.2-.6.4-.7.1-.1.3-.1.3-.2s-.1-.9-.1-.9c0-.1-.3-.2-.2-.3.1-.1.2-.2.4-.3.2 0 .2.2.2.3 0 .1.2 1.6.2 1.6 0 .3 0 .7.5.5.3 0 .3-.3.2-.6 0-.1-.3-.1-.2-.3.1-.1.2-.1.3-.2.1-.1.3-.1.3.1-.1-.2 0 .7 0 .9zm-1.6-.3c-.3 0-.4.3-.2.3.2-.1.2-.1.2-.3zm-.4-1.1c0-.3-.5-.3-.5 0 0 .5.5.3.5 0zm-.2-.7c-.2-.2-.5-.1-.5.2.1.3.8.1.5-.2zm-6.3-2.3c.6-.1 1.4-.2 1.5-.2.1 0 .1-.2 0-.2-.5 0-1.3 0-1.6.2-.1.1 0 .2.1.2zm5.4 4.8h-1.3c-.2.1-.3.8-.7.7-.2-.1-.5-.3-.5-.6-.1-.1-1.8-.2-2-.2-.3 0-.3.8-1.2.7-.1 0-.6-.1-.3-.2.3 0 1.1-.1 1-.8 0-.3-.2-.4-.3-.6.1-.1.2-.5.5-.4.2.2.2.5.3.8.2.2.5.1.4-.2.1-.2-.1-.4-.1-.6 0-.2.2-.3.4-.3.4 0 0 .5.5.5.3.1 1.9 0 2.1.2v.3c-.1.2.2.5.3.2 0-.5.8-.8 1.1-.8-.1.1.1 1.3-.2 1.3zm-1.8-.7s-.1-.1-.2-.1c-.3 0-1.4-.1-1.7 0-.2.1-.1.2.1.3.2.1 1.3 0 1.4.1v.4c0 .1.2.2.3.1.1 0 .1-.7.1-.8zm1.5.2c0-.1 0-.2-.1-.2s-.3.2-.3.3c.1 0 .4-.1.4-.1zm-5.3-2c.1 0 .2-.1.1-.2l-.4-.4c-.1-.1-.2.1-.1.1 0 .1-.4 2.5-.3 2.6.1.1.2.1.3 0 .1 0 0-2 .4-2.1zm-2.2-2.5h1.5c.1 0 .2-.1.1-.2-.3-.3-1.2-.3-1.6 0-.1.1-.1.2 0 .2zm.9 4.9c-.1.5-1 .6-1.1-.1 0-.1.1-.3-.1-.3s-.4-.1-.4-.3c-.1-.3-.3 0-.4.1-.3.1-.9-.2-1.2 0-.2.4-.7.4-1.2.3-.2-.3.7-.1.8-.5.1-.2.2-.4.1-.6-.1-.2-.2-.4 0-.5 0-.2.3-.3.3 0 .1.2.1.4.1.6 0 .4.7.5.9.2.2-.2-.2-.3-.4-.3-.3-.1 0-.5.2-.5.1 0 .2-.1.4-.1.1-.3.3-.5.6-.5.2.1.3.3.3.6.1.2.3.2.4.4.1.1.1.5-.1.4-.1 0-.3 0-.4.1 0 .2.1.3.2.3.2 0 .3.1.3.3 0 .5.3.4.3.2s.3-2.1.3-2.2c-.2-.1-.2-.3 0-.3.1 0 .2-.1.3-.2.4-.3-.1 2.6-.2 2.9zm-1.3-1.6c-.1 0-.1-.3-.2-.3s-.3.2-.4.3c.2.1.5.1.6 0zm-3.4-4.1l1.5.4c.1.1.2-.1.1-.2-.3-.2-1.2-.4-1.5-.4-.2 0-.2 0-.1.2-.1 0-.1 0 0 0zm-.7 4.9c-.3.2.1.6.4.3.2-.2-.1-.5-.4-.3zm-.9-.4c-.3 0-.3.4-.1.4.3.1.5-.4.1-.4zm-.5-5.2c.2.1 1.1.4 1.3.4.1 0 .2-.1.1-.2-.2-.3-.9-.5-1.4-.5-.1.1-.2.3 0 .3zm-.4 5.4c.2.2.6-.1.3-.3-.2-.2-.5.1-.3.3zm2.7 0c-.3 0-3.2-.7-3.2-1 0-.2.1-.3.2-.5.2-.2.5-.3.8-.3.2-.3.2-.8.3-1 0-.2-.3-.2-.4 0-.1.1-.4 0-.4-.2s.2-.2.4-.2c.2.1.4 0 .5 0 .2-.1.4-.2.4 0 0 0-.6 1.8-.6 2-.2.3.6.5.6.1 0-.1.1-.4 0-.5-.2-.2.2-.2.3-.3.1 0 .3-.3.4-.1 0 .2-.2 1-.2 1-.2.3.6.4.8.3.1-.1.2-.3.1-.5-.1-.1-.2-.3 0-.3s.3-.1.4-.2c.2-.1.2.2.1.3-.1.3-.2.7-.2.9 0 .3-.1.5-.3.5zm-2.4-1.4c-.1 0-.2 0-.2.1 0 .3.4 0 .2-.1zm-.2-.7c.3.1.5-.3.1-.5-.3-.1-.5.4-.1.5z"/></svg>
