<svg xmlns="http://www.w3.org/2000/svg" width="240" height="160" viewBox="0 0 120 80"><path fill="#EA0437" d="M0 0h120v80H0z"/><path fill="#4189DD" d="M0 80h120V40"/><path fill="#12AD2B" d="M0 0h120v40"/><path fill="#FFC726" d="M30.8 59.1c-1.7.5-2.7 1.8-2.7 3.1h8.5c.1-1.4-1-2.6-2.7-3.1 8.3-.2 15.6-3.3 16.9-5.3-1.3-.6-2.8.3-3.9.1 2.5-1.2 10.2-6.1 8.9-11.4-1 2.9-3.9 5.4-5.1 6 2.9-4.3 6.7-8.8 3.4-12.3.2 2-1.3 4.3-1.9 4.4 1.7-4.6 3.2-10.3-.4-14.1.5 1.4.3 5.2-.4 5.4-.2-3.1-.7-9.7-4-9.6 1 .9 1.5 3.5 1.5 6-.7-1.7-1.6-3.1-3.4-4.4-1.5-2.8-4.1-5.1-6.7-6.8.3 2 .5 3.7 3.4 5.8-1.5-.1-3-2.9-4.6-3-1.3-.1-2.3 1.1-4.3.5.2.7 1.2 1 1.4 1.5-.4.3-1.5 0-2.4-.5 3.3 4.5 5.6.4 10.5 3.2-.5.3-2.4.3-3.6.1 1.1 1.1 1.9 1.9 3.8 1.9 1.7 0 2.6-.9 3.1-.4 1.1 1.3 1.8 2.6 2.7 4.1-2 .2-1.4-2.3-3.6-3.6-1.3 2.6 1.4 5.7 3.3 7 .1 6 2.7 5.2 2.2 9.6-1.1-.8-2.2-3.5-1.8-5.7-1.4.4-1.9 2.8-1.3 4 .5.9.8 2.7.3 3.5-1.3 1.8.3 3-2 5.1.2-.7.4-1.8.2-2.5-.7 1.2-2.4 2.4-2.9 3.6-2.3 5.4-.7 2.3-9.8 6-.2-1.6.5-5 1.8-4.8 1.3.2 5.3-1.4 3.9-4.8-.3 1.1-1.2 2.1-2.2 2.1 1.1-1.4 3.1-2.9 2.1-5.3-.5 1-1.4 2.2-2.6 2.9 1.4-2.6.2-3.4-1.5-1.2-.6.8-1 2.5-1.4 4.6C28 36 40 47.6 39.4 39.7c-.9 1.2-2.5 1.5-4.2 1.1 1.9-1.4 3.5-4.1 1.3-5.5-.1 1.5-1.2 3.1-2.7 3.9-.4-1.2-.4-2.6-.1-4-.8.9-1.5 2.8-2 4.9 0-2.1.4-3.6.7-4.7.4-1.6 1.5-.6 3.2-.5 1.6.1 3.9-.8 3.4-3-.6.9-1.7 1.2-2.9 1.1 1.4-.9 3.9-2.4 2.5-4.7-.6.9-.7 1.6-2.4 1.9.4-1 .5-2.4 1.8-2.9-2.3-.4-3.6 1-4.2 3.4-.3-1.6-.6-2.2-.6-3.4 1.2-1.4 1.3-4-1.3-4.6-.2 1.4-.1 1.7.2 2.8-1.2-.7-3-1.1-4.2-.1.8.9 2 1.6 3.9.7-.4 1.5-1.6 1.2-3.2.7 1 1.8 2.2 2.1 3.6 1.9.7 1.9.7 3.3-1.3 6 .1-1.7 0-2.9-1.4-4.3-1.2-1.1-2.1 0-.3 2.6-1.1-.8-2.3-2.4-2.7-4.1-.4 2 0 4.4 1.1 5.7-.5.6-1.1-.1-2-1.4.3 4.4 2.2 5.3 4.7 4.3.1 2.4.1 4.7.2 7.6-1.5-2.1-3.3-3.7-4.4-4.1-.3 1.2.9 2.7 1.6 3.6-1-.2-3.3-1.9-3.3-1.9-.2 2 2.3 3.8 4 4.6-1.9-.1-2.8-.8-4-2 0 5.5 5.9 4.5 7 3.7.1 2.7.3 5.8.5 8.5-5.8-1-9.4-3.4-11.1-9-.3.6-.1 1.1-.3 1.8-.6-1.7-1.5-3.8-2.6-4.8.3 1 .3 1.9.2 3.8-.4-1.2-.7-1.5-.8-2.9 0-1.1 1-1.8 1-3.3 0-1.1-1-3.4-1.2-5.2-.5 1.9-.8 3.8-1.5 5 .4-2 .2-3.4.9-4.7.7-1.4 1.3-2.7.8-4.1-.5.6-.3 1.1-1.4 2.4-.2-1.5 1.5-3.8 3.1-4.7 1.2-.6 2.7-2.8 1.7-4.4-1.1.8-1.6 1.9-3.2 3.7 1.1-4.4 4-5.5 7.5-5.5.8 0 2.3-.3 2.8-1.3-1 .4-2.1.4-3.2.2 1.5-2.2 6 .5 7.5-2.8-1.4.6-3.6.7-5 .3 2.2-1.1 5.6-1.3 7.4-2.8-2-1.5-7.1.4-10.2 2.5.9-.8 2.3-2.3 3.1-3.4-1.7-.8-6.1 4-7.7 6.9-1.4.8-2 2.1-2.6 3 .8-2.6.8-4.5 1.5-6.6-4.9 1.7-2.9 10.8-4 13 .1-2.4 0-5.5-1-7.1-1.5 1.2-1.6 8-.2 13.7-.5-1.5-1.5-2.9-1.8-4.8-2.3 4.1 1.3 9 4.3 12.8-2.2-1.2-4.5-3.7-5.9-5.8.4 7.4 8.1 8.9 9.3 10.7-1.6-.8-4.7-2.2-6-.7 8.8 1.9 3.9 5.1 17.5 5.7z"/></svg>
