<svg xmlns="http://www.w3.org/2000/svg" width="240" height="160" viewBox="0 0 120 80"><path fill="#DA121A" d="M0 0h120v80H0z"/><path fill="#FCDD09" d="M0 0h120v53.3H0z"/><path fill="#078930" d="M0 0h120v26.7H0z"/><circle fill="#0F47AF" cx="60" cy="40" r="26.7"/><path fill="#FCDD09" d="M60 18.7l-.9 2.9L63 33.5h-5.1l-.6 1.8h16.5l2.4-1.8H64.8L60 18.7zm6.1 13.7l-.7-.5 6.8-9.3.7.5-6.8 9.3zm14.2 1h-3l-10.1 7.3-1.6-4.9h-1.9l5.1 15.7 2.4 1.8-3.5-10.8 12.6-9.1zM80.2 47l-11-3.6.3-.8 11 3.6-.3.8zm-7.7 10.3l-.9-2.9L61.5 47l4.2-3-.6-1.8-13.3 9.7-.9 2.9 9.2-6.7 12.4 9.2zm-12.1 4h-.9V49.8h.9v11.5zm-12.9-4l2.4-1.8 3.9-11.9 4.2 3 1.5-1.1-13.3-9.7h-3l9.2 6.7-4.9 14.8zM39.8 47l-.3-.8 11-3.6.3.8-11 3.6zm-.1-13.6l2.4 1.8h12.5L53 40.1l1.5 1.1 5.1-15.7-.9-2.9-3.5 10.8H39.7zm14.2-1L47.1 23l.7-.5 6.8 9.3-.7.6z"/></svg>
