<svg xmlns="http://www.w3.org/2000/svg" width="240" height="160" viewBox="0 0 240 160"><path fill="#68BFE5" d="M0 0h240v160H0V0z"/><path fill="#00008B" d="M0 0h120v80H0V0z"/><path fill="#FFF" d="M70 24.4V0H50v24.4L13.4 0H0v8.9l26.6 17.7H0v26.7h26.6L0 71.1V80h13.4L50 55.6V80h20V55.6L106.6 80H120v-8.9L93.4 53.3H120V26.7H93.4L120 8.9V0h-13.4L70 24.4z"/><path fill="#F00" d="M54 0h12v32h54v16H66v32H54V48H0V32h54V0zM0 0l40 26.7h-8.9L0 6V0zm120 0h-8.9l-40 26.7H80L120 0zm0 80L80 53.3h8.9L120 74v6zM0 80h8.9l40-26.7H40L0 80z"/><path fill="#FFF" d="M152.8 45v46c0 15 27.2 24 27.2 24s27.2-8.9 27.2-24V45h-54.4z"/><path fill="#D21034" d="M183.8 81.9V62.8h23.4V45h-54.4v17.8h23.4v19.1h-23.4v7.5h23.4v24.1l3.8 1.5 3.8-1.5V89.4h23.4v-7.5"/><path fill="none" stroke="#000" stroke-width=".942" stroke-miterlimit="4.8" d="M152.8 45v46c0 15 27.2 24 27.2 24s27.2-8.9 27.2-24V45h-54.4z"/></svg>
