<svg xmlns="http://www.w3.org/2000/svg" width="240" height="160" viewBox="0 0 240 160"><path fill="#00008B" d="M0 0h240v160H0V0z"/><linearGradient id="a" gradientUnits="userSpaceOnUse" x1="164.152" y1="-99.81" x2="155.341" y2="-94.606" gradientTransform="matrix(1 0 0 -1 0 6)"><stop offset="0" stop-color="#A43907" stop-opacity=".996"/><stop offset="1" stop-color="#FFF"/></linearGradient><path fill="url(#a)" stroke="#FFF" stroke-width="2.622" stroke-linejoin="bevel" d="M163.9 107.9s-1.9-3-3.4-2.8c-1.6.2-3 2.2-3.1 2.3-.1.1-2.4-2.5-2.3-2.6.1-.1 2.4-5.7 3.6-6 1.2-.2 3.9.4 3.9.6s1.3 8.5 1.3 8.5z"/><linearGradient id="b" gradientUnits="userSpaceOnUse" x1="169.09" y1="-105.474" x2="149.747" y2="-101.892" gradientTransform="matrix(1 0 0 -1 0 6)"><stop offset="0" stop-color="#A43907" stop-opacity=".996"/><stop offset="1" stop-color="#FFF"/></linearGradient><path fill="url(#b)" stroke="#FFF" stroke-width="2.622" stroke-linejoin="bevel" d="M168.1 104.6c0 .2-.6 8.2-3.3 11.1-2.7 2.8-7 4.6-8.6 4.1-1.6-.4-5.1-8.6-5.1-8.6s3.7 3.9 6.5 3.3c2.8-.7 4.5-5.5 5-7.9.5-2.4.1-7 .1-7l5.4 5z"/><linearGradient id="c" gradientUnits="userSpaceOnUse" x1="205.455" y1="-96.902" x2="196.447" y2="-97.427" gradientTransform="matrix(1 0 0 -1 0 6)"><stop offset="0" stop-color="#A43907" stop-opacity=".996"/><stop offset="1" stop-color="#FFF"/></linearGradient><path fill="url(#c)" stroke="#FFF" stroke-width="2.622" stroke-linejoin="bevel" d="M196.1 107.9s1.9-3 3.4-2.8c1.6.2 3 2.2 3.1 2.3.1.1 2.4-2.5 2.3-2.6-.1-.1-2.4-5.7-3.6-6-1.2-.2-3.9.4-3.9.6s-1.3 8.5-1.3 8.5z"/><linearGradient id="d" gradientUnits="userSpaceOnUse" x1="209.34" y1="-102.951" x2="190.237" y2="-104.573" gradientTransform="matrix(1 0 0 -1 0 6)"><stop offset="0" stop-color="#A43907" stop-opacity=".996"/><stop offset="1" stop-color="#FFF"/></linearGradient><path fill="url(#d)" stroke="#FFF" stroke-width="2.622" stroke-linejoin="bevel" d="M191.9 104.6c0 .2.6 8.2 3.3 11.1 2.7 2.8 7 4.6 8.6 4.1 1.6-.4 5.1-8.6 5.1-8.6s-3.7 3.9-6.5 3.3c-2.8-.7-4.5-5.5-5-7.9-.5-2.4-.1-7-.1-7l-5.4 5z"/><linearGradient id="e" gradientUnits="userSpaceOnUse" x1="206.931" y1="-105.694" x2="153.066" y2="-105.694" gradientTransform="matrix(1 0 0 -1 0 6)"><stop offset="0" stop-color="#A43907" stop-opacity=".996"/><stop offset="1" stop-color="#FFF"/></linearGradient><path fill="url(#e)" stroke="#FFF" stroke-width="2.622" stroke-linejoin="bevel" d="M155.7 103.5c-1.2 1.5-1.9 2.7-2.4 3.6-.5.9-.2 2.1 1 3.8 1.3 1.9 11.9 9.1 25.7 9.1s24.4-7.2 25.7-9.1c1.2-1.7 1.5-2.9 1-3.8-.5-.9-1.2-2-2.4-3.6 0 2.3-8.8 10.5-24.3 10.5s-24.3-8.3-24.3-10.5z"/><linearGradient id="f" gradientUnits="userSpaceOnUse" x1="154.527" y1="-109.725" x2="233.324" y2="-110.362" gradientTransform="matrix(1 0 0 -1 0 6)"><stop offset="0" stop-color="#A43907" stop-opacity=".996"/><stop offset="1" stop-color="#FFF"/></linearGradient><path fill="url(#f)" stroke="#FFF" stroke-width="2.622" stroke-linejoin="bevel" d="M203.6 118.6c.2-.3 2.4-4.1 2.4-4.1l-1.2-.9c-.4 1.1-1.7 1.4-1.9 2.7-.2 1.3 1 2.6.7 2.3z"/><linearGradient id="g" gradientUnits="userSpaceOnUse" x1="208.955" y1="-106.579" x2="202.578" y2="-106.96" gradientTransform="matrix(1 0 0 -1 0 6)"><stop offset="0" stop-color="#A43907" stop-opacity=".996"/><stop offset="1" stop-color="#FFF"/></linearGradient><path fill="url(#g)" stroke="#FFF" stroke-width="2.622" stroke-linejoin="bevel" d="M205.8 117.4s.4-1.8-.9-2.1c-1.3-.2-2.1 1-1.9.5.2-.5 1-1.1 1.1-2.9.1-1.8-.1-2.8-.1-2.8s.5-2.4 2.7-2.1c2.2.3 2.3 2.1 2.3 2.7 0 .7-.2 1-.2 1l-3 5.7z"/><linearGradient id="h" gradientUnits="userSpaceOnUse" x1="153.135" y1="-109.713" x2="159.287" y2="-110.689" gradientTransform="matrix(1 0 0 -1 0 6)"><stop offset="0" stop-color="#A43907" stop-opacity=".996"/><stop offset="1" stop-color="#FFF"/></linearGradient><path fill="url(#h)" stroke="#FFF" stroke-width="2.622" stroke-linejoin="bevel" d="M156.4 118.6c-.2-.3-2.4-4.1-2.4-4.1l1.2-.9c.4 1.1 1.7 1.4 1.9 2.7.2 1.3-1 2.6-.7 2.3z"/><linearGradient id="i" gradientUnits="userSpaceOnUse" x1="159.318" y1="-109.593" x2="148.859" y2="-103.789" gradientTransform="matrix(1 0 0 -1 0 6)"><stop offset="0" stop-color="#A43907" stop-opacity=".996"/><stop offset="1" stop-color="#FFF"/></linearGradient><path fill="url(#i)" stroke="#FFF" stroke-width="2.622" stroke-linejoin="bevel" d="M154.2 117.4s-.4-1.8.9-2.1c1.3-.2 2.1 1 1.9.5-.2-.5-1-1.1-1.1-2.9-.1-1.8.1-2.8.1-2.8s-.5-2.4-2.7-2.1c-2.2.3-2.3 2.1-2.3 2.7 0 .7.2 1 .2 1l3 5.7z"/><g><linearGradient id="j" gradientUnits="userSpaceOnUse" x1="164.152" y1="-99.81" x2="155.341" y2="-94.606" gradientTransform="matrix(1 0 0 -1 0 6)"><stop offset="0" stop-color="#A43907" stop-opacity=".996"/><stop offset="1" stop-color="#FFF"/></linearGradient><path fill="url(#j)" stroke="#000" stroke-width=".393" stroke-linejoin="bevel" d="M163.9 107.9s-1.9-3-3.4-2.8c-1.6.2-3 2.2-3.1 2.3-.1.1-2.4-2.5-2.3-2.6.1-.1 2.4-5.7 3.6-6 1.2-.2 3.9.4 3.9.6s1.3 8.5 1.3 8.5z"/><linearGradient id="k" gradientUnits="userSpaceOnUse" x1="169.09" y1="-105.474" x2="149.747" y2="-101.892" gradientTransform="matrix(1 0 0 -1 0 6)"><stop offset="0" stop-color="#A43907" stop-opacity=".996"/><stop offset="1" stop-color="#FFF"/></linearGradient><path fill="url(#k)" stroke="#000" stroke-width=".393" stroke-linejoin="bevel" d="M168.1 104.6c0 .2-.6 8.2-3.3 11.1-2.7 2.8-7 4.6-8.6 4.1-1.6-.4-5.1-8.6-5.1-8.6s3.7 3.9 6.5 3.3c2.8-.7 4.5-5.5 5-7.9.5-2.4.1-7 .1-7l5.4 5z"/><linearGradient id="l" gradientUnits="userSpaceOnUse" x1="205.455" y1="-96.902" x2="196.447" y2="-97.427" gradientTransform="matrix(1 0 0 -1 0 6)"><stop offset="0" stop-color="#A43907" stop-opacity=".996"/><stop offset="1" stop-color="#FFF"/></linearGradient><path fill="url(#l)" stroke="#000" stroke-width=".393" stroke-linejoin="bevel" d="M196.1 107.9s1.9-3 3.4-2.8c1.6.2 3 2.2 3.1 2.3.1.1 2.4-2.5 2.3-2.6-.1-.1-2.4-5.7-3.6-6-1.2-.2-3.9.4-3.9.6s-1.3 8.5-1.3 8.5z"/><linearGradient id="m" gradientUnits="userSpaceOnUse" x1="209.34" y1="-102.951" x2="190.237" y2="-104.573" gradientTransform="matrix(1 0 0 -1 0 6)"><stop offset="0" stop-color="#A43907" stop-opacity=".996"/><stop offset="1" stop-color="#FFF"/></linearGradient><path fill="url(#m)" stroke="#000" stroke-width=".393" stroke-linejoin="bevel" d="M191.9 104.6c0 .2.6 8.2 3.3 11.1 2.7 2.8 7 4.6 8.6 4.1 1.6-.4 5.1-8.6 5.1-8.6s-3.7 3.9-6.5 3.3c-2.8-.7-4.5-5.5-5-7.9-.5-2.4-.1-7-.1-7l-5.4 5z"/><linearGradient id="n" gradientUnits="userSpaceOnUse" x1="206.931" y1="-105.694" x2="153.066" y2="-105.694" gradientTransform="matrix(1 0 0 -1 0 6)"><stop offset="0" stop-color="#A43907" stop-opacity=".996"/><stop offset="1" stop-color="#FFF"/></linearGradient><path fill="url(#n)" stroke="#000" stroke-width=".393" stroke-linejoin="bevel" d="M155.7 103.5c-1.2 1.5-1.9 2.7-2.4 3.6-.5.9-.2 2.1 1 3.8 1.3 1.9 11.9 9.1 25.7 9.1s24.4-7.2 25.7-9.1c1.2-1.7 1.5-2.9 1-3.8-.5-.9-1.2-2-2.4-3.6 0 2.3-8.8 10.5-24.3 10.5s-24.3-8.3-24.3-10.5z"/><linearGradient id="o" gradientUnits="userSpaceOnUse" x1="154.527" y1="-109.725" x2="233.324" y2="-110.362" gradientTransform="matrix(1 0 0 -1 0 6)"><stop offset="0" stop-color="#A43907" stop-opacity=".996"/><stop offset="1" stop-color="#FFF"/></linearGradient><path fill="url(#o)" stroke="#000" stroke-width=".393" stroke-linejoin="bevel" d="M203.6 118.6c.2-.3 2.4-4.1 2.4-4.1l-1.2-.9c-.4 1.1-1.7 1.4-1.9 2.7-.2 1.3 1 2.6.7 2.3z"/><linearGradient id="p" gradientUnits="userSpaceOnUse" x1="208.955" y1="-106.579" x2="202.578" y2="-106.96" gradientTransform="matrix(1 0 0 -1 0 6)"><stop offset="0" stop-color="#A43907" stop-opacity=".996"/><stop offset="1" stop-color="#FFF"/></linearGradient><path fill="url(#p)" stroke="#000" stroke-width=".393" stroke-linejoin="bevel" d="M205.8 117.4s.4-1.8-.9-2.1c-1.3-.2-2.1 1-1.9.5.2-.5 1-1.1 1.1-2.9.1-1.8-.1-2.8-.1-2.8s.5-2.4 2.7-2.1c2.2.3 2.3 2.1 2.3 2.7 0 .7-.2 1-.2 1l-3 5.7z"/><linearGradient id="q" gradientUnits="userSpaceOnUse" x1="153.135" y1="-109.713" x2="159.287" y2="-110.689" gradientTransform="matrix(1 0 0 -1 0 6)"><stop offset="0" stop-color="#A43907" stop-opacity=".996"/><stop offset="1" stop-color="#FFF"/></linearGradient><path fill="url(#q)" stroke="#000" stroke-width=".393" stroke-linejoin="bevel" d="M156.4 118.6c-.2-.3-2.4-4.1-2.4-4.1l1.2-.9c.4 1.1 1.7 1.4 1.9 2.7.2 1.3-1 2.6-.7 2.3z"/><linearGradient id="r" gradientUnits="userSpaceOnUse" x1="159.318" y1="-109.593" x2="148.859" y2="-103.789" gradientTransform="matrix(1 0 0 -1 0 6)"><stop offset="0" stop-color="#A43907" stop-opacity=".996"/><stop offset="1" stop-color="#FFF"/></linearGradient><path fill="url(#r)" stroke="#000" stroke-width=".393" stroke-linejoin="bevel" d="M154.2 117.4s-.4-1.8.9-2.1c1.3-.2 2.1 1 1.9.5-.2-.5-1-1.1-1.1-2.9-.1-1.8.1-2.8.1-2.8s-.5-2.4-2.7-2.1c-2.2.3-2.3 2.1-2.3 2.7 0 .7.2 1 .2 1l3 5.7z"/></g><g><path fill="#0072C4" stroke="#FFF" stroke-width="1.311" d="M180 112.4S155 105 155.1 77l.2-37.1h49.3l.2 36.9c.2 28-24.8 35.6-24.8 35.6z"/><path fill="#BCBCBC" d="M158.8 48.3s.3-.3.6-.5c.4-.2.7-.5 1.1-.7.3-.2.9-.3 1.1-.4.3-.2.6-.4.9-.8 0-.5.1-.8.1-1.4.4-.2.8-.4 1.1-.5.5-.1.6-.4 1.1-.4.3-.1.9-.1 1.3-.1.5 0 .8.4 1.3.5.5.2.8.4 1.2.8.2.3.4.6.8.8.3.2.6.4 1 .5.4.2.8.4 1.1.8.3.2.4.5.7.8.3.3.7.5 1 .8.4.3.9.5 1.6.5.4 0 .8-.1 1.2 0 .5 0 1 0 1.5.1.5 0 1 .1 1.5.1.5.1.9.1 1.5.1.4.1.9.1 1.5.1h3c.5 0 1.1 0 1.5.1.5 0 1 0 1.5-.1.6 0 1-.1 1.6-.1h1.8c.5.1 1 .2 1.3.4.4.1.6.3 1 .4.3.2.8.4 1 .8.3.3.6.7.8 1.2.3.4.4.9.6 1.4.1.5.2 1 .2 1.5.1.5.1 1 .1 1.5-.1.5-.1 1-.3 1.5 0 .5-.1 1-.2 1.4-.1.4-.2.7-.2 1.3v1.5c0 .5-.1.9-.2 1.4-.3.5-.5 1-.7 1.6-.3.2-.6.6-.8.9-.2.1-.3.3-.3.4.4.1.3.4.3 1 .1.4.1.9.2 1.4 0 .5.1.8.3 1.2.2.2.2.1-.2.1-.3.2-.6.1-.7-.3-.2-.3-.3-.6-.4-1.2-.1-.5-.1-1-.3-1.3-.1-.6-.2-.6-.8-.7-.3-.3-.7-.3-1.2-.3-.6 0-.6-.1-.6.5v1.5c-.1.4-.3.8-.4 1.2-.3.2-.5.6-.8.9-.2.5-.4.6-.9.7-.2-.2-.5-.5-.6-.8.3-.5.5-.6.7-1.1.2-.4.3-.7.5-1.1-.2-.3-.4-.5-.6-1-.2-.3-.4-.8-.5-1.2-1.9-.7-12.2.7-13 1.2-.1.4-.2 1-.4 1.4-.3 1-.6 1.2-.7 2.4 0 .7-.2.6-.6.4-.2-.3-.5-.6-.6-1 .1-.6.2-.8.2-1.4-.1-.4-.3-.4-.6-.1 0 .6 0 1-.2 1.3-.1.4-.3.6-.6.9-.2.4-.5.6-.8.8-.1 0 0-.1 0-.4-.2-.4 0-2.6.1-2.9 0-2.6-1.5-1.8-2.3-2.8-.6-.8-1.1-.7-2-1.3-1.1-1.3-.8-1.4-1.1-2.4 0-.3-.9-3.7-.9-4 0-.7-.1-3.8-.3-4.4 0-.6-.1-.9-.2-1.3-.2-.4-.3-.6-.6-.7-.3.3-.7.5-1.2.5-.4-.1-.9-.1-1.3-.3-.4-.1-.7-.3-1-.4l-.6-.9c-.1-.6-.2-.9-.2-1.4-.5-.5-.4-.3 0-.9z"/><path fill="#FEFEFE" d="M164.9 52.2c.7-.2 2.1-1.3 2.9-2 .9-.6 2.9 0 2.9-1.6-.1.5-1.2 1.7-1.8 2.4-1.2.8.6 1.5.9.4.6-1.1 1.4-2.2 2.7-2.7-.2.8-.4 1.6.1 2.3.2-.4.2-1.8.2-.6-.4.7.6 2.6.6 1.1.2-1 .1 1 .4 1.4.6 1.2.6-1.1.7-1.6.1-.9.1-.6 0 0-.1.8.1-1.6.2-.3.1.7 0 2.6.7 1.1.5-.9.7-.9.1-.1-.2.3.9-1.6.5-.3 0 1 0 2.4.5 3 .4-.5.2-3.1.6-1.3.2.5 0 1.9.7.8.7-.8 1.1-1.5 1-2.7.1-.6.4-1.5.7-.5-.2 1.3 1.2 2.2 1 3.5.6-1 .3-2.4-.1-3.4-.1-1.1 1.7-.4 1.2.5-.1.7 1 2.5 1 .8.1-.8.6-.9.5 0 .2.6 1 2.3.9.8.1-.8-.1-1.6.2-2.4.3.5.3 1.2.6.3.6 0 .2 1.7 1 2.1.3.6 1.1 1.6.9.3.1-.7-.5-2.2-.2-2.4.8 1 1.1 2.4 2.2 3.2 1.1.5.1-1.5.1-2-.6-.3-1.1-1.7-.3-.6.5.9 2.1 1.7 2.6 1.9-.5-.3-.9-.5-.1 0 .6.2-.3-1.5-.7-1.7-.3-.5-1.8-1.3-1.3-1.7 1.1.2 1.5 1.5 2.2 2.3.4.4 1.5 1.1.9 0 .3-.1 1.9 1.7 1.6.2-.3-.6-1.7-1.7-1.5-1.8.5.7.2.2-.2-.2 1.4.2 2.2 1.5 3.1 2.4.1.4.4 2.5 0 1.1-.9-.4.4 1.8-.6 1.6 0-.5-.9-1.5-.5-.5.7 1.5.2 3.1.2 4.7 0 .8 0 1.5-.1 2.3.1-.6.1-1.5 0-.3 0 .9-.4-1.2-.8-1.4-.1-.4-.4-2.4-.7-1.2 0 1.2 1.1 2.4.2 3.4-.3.3-.5 1.1-.6.2-.4-1-.7-2.1-1.5-2.9-.3-.6-1.4-2.2-1.1-.6.2.7.3 1.5.3 2.2-.4-1.1-1-2.2-1.6-3.2.1.5.7 2.6.2 1.2-.4-1.1-.9-2.2-2-2.7-.3 0 .7 2 .3 2-.1-.6-.7-2.1-1.3-1.8 0 1.1.5 2.2.2 3.4.1 1.1-.7-1.1-1-1.4-1.1-.7.1 1.9-.8.9-.7-.5-1.1-1.1-1-2-1.3-.2-.8 1.2-.9 2-.1.6-.4 1.8-.8 1.9-.2-.9 0-1.8-.1-2.7.2-.5 0-1.8-.6-1.2-.1 1.2.6 2.6-.2 3.6-.5.5-1.3-.8-2.1-.5-1-.5-.6-2.1-1.3-3-.7-.7-.4 2.9-.8 1.2.3-1.1-1.6-1.5-1.3-.3.5.5.6 1.1.5 1.8.1.8-.4 1-.6.1-.1-.9-1.7-1.3-1.3-.1-.8-.5-.1 2.2-1.1 1.3-1.2-.8-1.9.7-3.2.4-.7.1-2.5.3-1.4-.7 1-.6 1.4-2.4 2.8-1.5 1.1-.1 2.2-.8 3-1.5.7-.5.4-1.7-.5-.9-.7 1.1-2.8 1.1-3.4 1 .6-.6 2.5-.7 2-1.7-.7.1-1.9 1.1-2.3.5.2-.3 1-1 .1-.7-1.2.4-2.4.3-3.6.2-1.2-1.2 1.7-.8 1.7-1.6-.3 0-1.4.1-.9-.3 1 0 1.9.1 2.6-.8.4-.4 1.9-1.4 1.5-1.8-1.1.6-2.2 1.7-3.5 1.1 1.2-.9-.4-.9-1.2-.8-.5.2-2-.4-.7-.4.9.2 1.7-1 .4-.8-.2.3-.5.3-.8.3zM158.6 50.5c-.1-.6-.3-1.1-.2-1.7.3-.4.7-.7 1-1 .6-.4 1.2-.8 2-1 .5-.2.9-.5 1.3-.9.2-.5-.1-1.3.3-1.5.6-.3 1.2-.5 1.7-.8.6-.2 1.3-.2 1.9-.2.5.2 1 .4 1.6.7.5.2.8.6 1.1 1 .4.3.8.6 1.3.8.4 0 .2.5 0 .5-.1.7-1 .1-1.2-.3.1-.3.1.6-.2.6-.5.2-.5-.6-.5-.9.1-.3-.1-.6-.3-.2-.3.4.3 1.1-.4.9-.5-.1-1.1-.2-1.6.2-.4.4.4.6.7.8.3.3.8 0 1.2 0 .5-.2 1.1-.1 1.6.2.2.5-.2 1-.7 1.2-.4.2-.9.3-1.3.4-.7 0-.5.9-1.2.9-.4.2-.9.2-1.3.2-.1-.2.4-.6.5-1 .5-.6-.7-.5-.5.1.1.4-.7.9-.4.3 0-.3.4-.9-.2-.6-.3 0-1 0-.8.5-.4.1-.9.1-1.2-.1-.2-.5-.8-.8-1.2-.3-.4.5-.9-.2-1.3.1 0 .5.5.7.9.7.5 0 .9-.1 1.4 0 .4.5-.4.7-.8.6-.5 0-1-.3-1.5-.3-.3 0-.8.3-.3.3.4.1 1.2.1 1.1.7-.3.1-.7 0-1.1.1-.2-.1-.8.1-.5-.1-.3-.5-.7-.6-.9-.9z"/><path fill="#BCBCBC" d="M160.9 47.9s-.2.2-.4.3c-.3.2-.7.5-.9.6-.2.1-.2.2-.4.2.3 0 .5-.1.8-.3.4 0 .7-.1 1-.3.1 0-.1-.3-.1-.5zM164.2 44.3s.1.2.3.4c.1.3.2.5.2.8.1-.4.2-.7.3-1.1-.1-.2-.1-.3-.4-.3 0 .3 0 .1-.4.2zM165.6 44.4c0-.1 0 0 .1.4.1.3.1.5.1.9.2-.1.4-.4.4-.7 0-.6-.1-.6-.6-.6zM168.3 53.2c-.1 0 0 0 .4-.2.3-.2.5-.4.8-.5.3-.3.6-.4 1-.5.2-.1.3-.2.5-.1-.1.4-.1.5-.4.7-.2.2-.4.3-.7.5-.2.1-.5.1-.6.4-.5.1-.5 0-1-.3zM169.7 55.4l.8-.8c.2-.3.5-.6.7-.8.2-.3.5-.5.7-.8.2-.3.4-.5.6-.8 0 .3 0 .8.1 1 0 .5-.1.6-.2.9-.2.3-.3.5-.7.6-.3.2-.5.2-.8.5-.2.1-.4.3-.7.4-.2.2-.1.1-.5-.2zM167.4 57.2c-.1 0 0 0 .4-.2.3-.3.6-.4 1-.6.3 0 .7-.1.9-.2.2 0 .3-.1.4 0 .2.3.3.4-.1.6-.2.2-.5.3-.7.4-.2.2-.5.2-.9.2-.3 0-.5 0-.6-.2l.6.2c-.4 0-.5 0-1-.2zM170.5 57.2c0 .1 0 0 .1-.4.3-.4.4-.7.7-.8.2-.2.5-.3.8-.4.1.2 0 .5 0 .8-.1.3-.4.5-.5.7-.2.2-.3.3-.7.4-.1 0 0 0-.4-.3z"/><path fill="#C4C4C2" stroke="#000" stroke-width=".297" d="M162 47.5c-.2 0 .3-.2.4-.2.1-.3.2-.5.4-.6.4 0 .5.1.7.4.3.1.4.2.8.3.1.1.3.1 0 .2-.2.1-.5.2-.9.2s-.6.1-.9.2c-.4-.1-.3-.1-.5-.5z"/><ellipse cx="163" cy="47.2" rx=".4" ry=".4"/><g fill="#005121" stroke="#002B0E" stroke-width=".424"><path d="M164.2 68.6l1.5 1.2c.6-.6.6-.6 1.2.3.3.5.4-.1.9-.6.2 1.1.4 2.3 1.2 1.2.9 0 1.9-.1 2.3.3.6 1.2.4-.2.9.3 1.3.2 1.3-1.2 2.7-1.5.9 1.1 1.3.3 2.3-.3.8.2 1.6 1.5 1.7.3.7-1.1.7-1 1.2 0 .6.6.9-.3 1.5-.6 1 .6 2.1.7 3.5.3.2 1 .9.6 1.5.3 1.3.6 1.7.7 3.2 0 .7-.9.3 0 .9.6 1.1-.4.8-.4 2.1-.3 1.3 0 1.4 0 1.8-.9.6.7.9 1.1 1.8.3 1.4 0 .9.2 1.8-.3.6 1.4.7.4 1.5.9-.5 1.3-1.2 1.8-2.1 2.5-.6 1-.9 2-2.1 2.5-.8.9-1.7 1.4-2.6 2.1-1.3.3-2.7.3-4.1.3H176.5c-.9.5-2.3.7-3.5.9-1.4 0-2.9 0-3.8-.3-.6-.7-1.7-1.4-2.3-2.1-.6-.5-.6-1.5-1.2-2.1-.5-.9-.6-2.2-1.2-3.1v-2.2z"/><path d="M192.7 71.4v.3c0-.9 0-.4-.6 1.2-.1.4-.4.5-.9.6M190 72.6h.3c-1.1 1.1-1.8 1.6-2.1 2.8l2.1-2.8c-1.1 1.1-1.8 1.6-2.1 2.8M185.9 71.1s0 1.1-.3 1.5M184.8 73.2v.3-.3zM182.4 71.4h.3-.3zM166 71.4c.1 0 .7 1 1.5 1.5-.2.9-.5 1.9 0 2.8M168.3 73.2c.1 0 .7 1 1.5 1.5l-1.5-1.5c.1 0 .7 1 1.5 1.5v.3c0-.9-.1-1.9.3-2.5.3.6.7 1.5.9.6 1.7-.1 2.4-.5 3.5-.9 0 .5-.1.2.3.6M194.7 71.7h.3c-.6.5-1 1.5-1.5 2.1M182.7 70.8h2.3"/></g><g fill="#FFF"><path d="M163.5 73.1c-3.5 0-4.7 3.7-8.2 3.7h-.2v.2c0 2.6.2 4.9.6 7.2 3.3-.2 4.5-3.7 7.9-3.7 3.5 0 4.7 3.7 8.2 3.7 3.5 0 4.7-3.7 8.2-3.7 3.5 0 4.7 3.7 8.2 3.7 3.5 0 4.7-3.7 8.2-3.7 3.4 0 4.6 3.4 7.8 3.7.4-2.3.6-4.7.6-7.4-3.7.1-4.8-3.7-8.4-3.7-3.5 0-4.7 3.7-8.2 3.7-3.5 0-4.7-3.7-8.2-3.7s-4.7 3.7-8.2 3.7c-3.5 0-4.7-3.7-8.3-3.7zM163.5 87.5c-2.7 0-4.1 2.2-6.2 3.2.7 2 1.6 3.9 2.6 5.6 1-.8 2.1-1.4 3.6-1.4 3.5 0 4.7 3.7 8.2 3.7 3.5 0 4.7-3.7 8.2-3.7 3.5 0 4.7 3.7 8.2 3.7 3.5 0 4.7-3.7 8.2-3.7 1.5 0 2.5.6 3.5 1.4 1-1.7 1.9-3.5 2.6-5.5-2.1-1-3.4-3.2-6.1-3.2-3.5 0-4.7 3.7-8.2 3.7-3.5 0-4.7-3.7-8.2-3.7s-4.7 3.7-8.2 3.7c-3.4-.2-4.6-3.8-8.2-3.8zM180 101.8c-3.5 0-4.7 3.7-8.2 3.7-3.3 0-4.6-3.3-7.7-3.7 4.1 4.6 8.9 7.4 12.1 9 1.1-.8 2.2 1 3.8 1 1.6 0 2.7-1.9 3.8-1 3.2-1.5 7.8-4.3 11.9-8.9-3 .4-4.2 3.6-7.5 3.6-3.5 0-4.7-3.7-8.2-3.7z"/></g><g stroke="#522108"><g fill="none"><path stroke-width=".161" d="M158.2 89.3c.6-.2 3.4-1.1 3.5-1l5.4 5.4-4.4.9-4.5-5.3z"/><g stroke-width=".164"><path d="M168.7 96.3c.1-1.3 2.4-8.5 2.4-8.5M169.5 96.4c0-.1 1.9-8.5 1.9-8.5M170.2 96.4c.1-.5 1.6-8.5 1.6-8.5M169.4 94c.4 0 1.2-.3 1.2-.3M169.6 93.1c0-.1 1.2-.3 1.2-.3M169.8 91.9l1.3-.2M170.3 90.9c0 .1.9.1.9.1"/></g><g stroke-width=".161"><path d="M183.3 101.9c-.1-2.2-2.9-14.5-2.9-14.5M182.3 101.5c0-.1-2.2-13.9-2.2-13.9M181.3 100.4l-1.6-12.9M183.2 100.2c-.5-.4-1.9-.9-1.9-.9M182.5 98c-.5 0-1.4-.5-1.4-.5M182.2 96.4c0-.1-1.4-.5-1.4-.5M182 94.3l-1.5-.4M181.3 92.6c0 .1-1.1.1-1.1.1M181 91c-.2 0-1.1.3-1.1.3"/></g><g stroke-width=".161"><path d="M190.7 95.9c-.5 0-1.4-.4-1.4-.4M191.4 98.8c-.1-1.6-2.9-10.8-2.9-10.8M190.5 98.5c0-.1-2.2-10.4-2.2-10.4M189.5 97.7l-1.6-9.6M190.4 94.7c0-.1-1.4-.4-1.4-.4M190.2 93.1l-1.5-.3M189.5 91.8c0 .1-1.1.1-1.1.1M189.2 90.6c-.2 0-1.1.2-1.1.2"/></g></g><g fill="#DD8B59" stroke-width=".161"><path d="M179 100c0-.1.3-25.3.3-25.3s.9-.1.9 0-.1 25.2-.2 25.3c-.1.1-1.1.2-1 0zM188.4 75.8c0 .2-.2 21.3-.2 21.3l-.7.8.2-22.1h.7zM171.7 95.2c.1-.6.1-18.8.1-18.8l-.6-.1-.1 18.6.6.3z"/><path d="M168 88.3c.4 0 6.9-1.1 6.9-1.1l-.1 1.1-6.5.7-.3-.7zM168.1 82.5c.4.1 7.9-2.1 7.9-2.1s0 .7-.1.7-7.8 2.1-7.8 2.1v-.7zM168.4 79.6c-.1.4.1.9.1.9l6.3-2.2s.3-.5 0-.5c-.3-.1-6.5 2-6.4 1.8zM176.7 78.1c.2 0 6.5-2.1 6.5-2.1s.1.9 0 .9-5.9 1.8-5.9 1.8l-.6-.6zM176.2 80.8s-.2.9-.1.9 8.2-2.2 8.2-2.2v-.6l-8.1 1.9zM176.5 87.9v.7l6.9-1-.2-.5-6.7.8zM184.5 88.4l.1.6s6.9-.9 6.9-1c0-.1 0-.7-.1-.7s-6.8 1.2-6.9 1.1zM184.4 82l.1.7 8.2-2.3s.2-.6.1-.6-8.2 2.5-8.4 2.2zM185.3 78.7s-.1.6 0 .6 6.1-1.5 6.1-1.6c0-.1.6-.7.1-.6-.6.1-6 1.9-6.2 1.6z"/></g><g fill="#FECF3E" stroke-width=".161"><path d="M172.2 80.8c.9-.3.3-1 .5-1s.9.5 1.3.1.7-1.6.5-1.5c-.2.1-4.3 1.7-5.2 1.7.4.1 2.1.9 2.9.7zM185.6 79.3s.5 1.2 1 1 1-.6 1-.6.4 1 1.1.8c.7-.2 1.1-1.3 1.1-1.3s.7.2 1 .1c.3-.1.7-1.7.7-1.7l-5.9 1.7zM185 89.1c-.1.2.5.7 1 .7s.7-.7.8-.5c.1.2.1 1.1 1.3.8 1.3-.3 1.3-1.2 1.3-1.2s-.4.3.5.4c.9.1 1.7-1.3 1.6-1.3-.2 0-6.3 1.2-6.5 1.1zM185 82.6s-1 1.1-.7 2.6c.3 1.5.7 2.8.8 2.8s1.2-2 2.3-2.1c1.2-.1 3.3 1.1 3.3 1.1s-.3-2.4-.2-3.5c.1-1.1 1.7-3 1.7-3l-7.2 2.1zM168.3 89.1c.1 0 0 .9.8.7.8-.2 1-.7 1-.7s.2 1.1 1.3 1c1.1-.1 1.6-1.3 1.6-1.3s.1.9.8.6c.7-.3.9-1 .9-1l-6.1.9-.3-.2zM168.3 83.2s-.9.3-.6 2.1c.3 1.8 1 2.8 1.1 2.8.1 0 .9-1.7 2-2 1.2-.3 3.2.9 3.2.9s-.2-1.6.1-3.1c.3-1.5 1.3-2.6 1.3-2.6s-6.8 1.9-7.1 1.9zM176.9 78.4c.4.1 1.1 1.1 1.4.9.4-.2 1-.8 1-.8s-.1 1.2.7 1c.8-.2.9-1 .9-1s.6.3 1.1 0c.5-.3 1-1.8.8-1.8-.3 0-5.7 1.8-5.9 1.7zM176.7 81.4c0 .2-1 1.8-.7 3.3.3 1.5.9 2.9 1 2.9s1.5-1.6 2.8-1.9c1.3-.3 3.1 1 3 1-.1 0-.5-1.5-.5-2.6s1.4-4.5 1.4-4.5l-7 1.8zM176.7 88.6c0 .1.3.8 1 .8s.8-.7.8-.7-.1 1.2 1 1.1c1.1-.1 1.4-1.2 1.4-1.2s.1.6 1 .3 2-1.3 1.9-1.3c-.2 0-7 1.3-7.1 1z"/></g><g fill="#DD8B59" stroke-width=".161"><path d="M168.3 95.9s1 10.4 12 10.1c11.1-.3 14.2-10.5 14.2-10.5s-4.7-.2-4.8-.2c-.1 0-3.9 4.8-8.7 4.7-4.8-.1-6.4-1.3-7.4-2.3-1.1-1-2-2.5-2-2.5l-5.6-2.3.3 2.2 2 .8zM198.2 94.8c-.1-.3-.3-1.3-.3-1.3v-1.2l.5-1.2s-8.4 1.3-8.4 1.4c0-.1-.1 2.4-.1 2.4l8.3-.1z"/><path d="M196.6 92.2l-.2 2.1h1.3l-.1-2.1h-1zM195.2 92.3l-.1 2.2.9-.1.1-2.1h-.9zM193.7 94.6v-1.7l.9-.3.1 1.7-1 .3zM192.1 94.5l.2-1.5 1 .1.1 1.6-1.3-.2zM190.3 94.5l.1-1.3 1-.1v1.5l-1.1-.1zM189.3 95.3l9.2.2.1-.7-9.4-.1.1.6zM189.7 92.8c1.1 0 9.1-1.6 9.1-1.6s.3-1 0-1-9.1 1.9-9.1 1.9v.7zM157.9 89.2l7.3 3.7-.2.5s-7-3.4-7-3.5c0-.1.1-.5-.1-.7z"/><path d="M161.3 88.1c0 .3 1.1 6.4 1.1 6.4s.7.1.7 0-1.2-6.3-1.2-6.3l-.6-.1z"/></g><g fill="none"><g stroke-width=".164"><path d="M176.1 99.5c.1-1.7 2.9-11.2 2.9-11.2M177 99.6c0-.1 2.2-11.2 2.2-11.2M177.8 99.6c.1-.6 1.8-11.2 1.8-11.2M176.2 98.1c.5-.3 1.9-.7 1.9-.7M176.8 96.5c.5 0 1.4-.4 1.4-.4M177.1 95.2c0-.1 1.4-.4 1.4-.4M177.3 93.6l1.5-.3M178 92.3c0 .1 1.1.1 1.1.1M178.3 91c.2 0 1.1.2 1.1.2"/></g><g stroke-width=".161"><path d="M184.3 99.4c.1-1.6 2.9-10.8 2.9-10.8M185.2 99.1c0-.1 2.2-10.4 2.2-10.4M186.2 98.3l1.6-9.6M184.3 98.1c.5-.3 1.9-.7 1.9-.7M185 96.5c.5 0 1.4-.4 1.4-.4M185.3 95.3c0-.1 1.4-.4 1.4-.4M185.5 93.8l1.5-.3M186.2 92.5c0 .1 1.1.1 1.1.1M186.5 91.3c.2 0 1.1.2 1.1.2"/></g><g stroke-width=".161"><path d="M175 98.4c-.1-1.6-2.9-10.8-2.9-10.8M174 98c0-.1-2.2-10.4-2.2-10.4M173.1 97.2l-1.6-9.6M174.9 97c-.5-.3-1.9-.7-1.9-.7M174.2 95.4c-.5 0-1.4-.4-1.4-.4M173.9 94.2c0-.1-1.4-.4-1.4-.4M173.8 92.7l-1.5-.3M173.1 91.4c0 .1-1.1.1-1.1.1M172.8 90.1c-.2 0-1.1.2-1.1.2"/></g></g><path fill="#B6B6B4" stroke-width=".161" d="M165.8 93s-1.9-.3-1.8.2c.1.5 1 1 1.1 1.3.1.3-.3 1.4.3 1.3.6-.1 1.2-.5 1.2-.8 0-.3-.1-1.7-.1-1.7l-.7-.3z"/><g fill="none" stroke-width=".161"><path d="M167.9 95.8c.3 0 2.5.5 2.5.5l2.3 3.2"/><path d="M169.6 96.2c.1.1 2 6.9 11.3 6.9s11.5-7.7 11.5-7.7"/><path d="M193.7 95.6s-4.4 10.1-12.9 9.4c-8.5-.7-9.8-4-10.5-5.7-.7-1.7-1.1-3.1-1.1-3.1M191.3 87.4c.1-.3.4-6.3.4-6.3M198.1 90.4l-6-9.9M180 75c0-.1 3 1.3 3 1.4 0 .1 10.6 14.8 10.7 14.8M188.3 76.4l2.7 1.2.9 2.2M171.6 76.2c-.1 0 3 2.4 3 2.4l.4 2M161.1 90.9c1.3-.6 10.7-9.2 10.7-9.2M158.6 89.3c1.2-1 10.5-9.3 10.5-9.3M176.1 81.5l9.9 17.2M184.9 88.6s1.2 4.1 2.3 4.7c1.2.6 2.5 1.6 2.5 1.6"/><path d="M184.7 88.7s.8 4.8 2 5.7c1.2.9 2.3 1.9 2.3 1.9M176.7 88.3s1.2 6.7 3.5 8.2c2.3 1.5 4.2 2.8 4.2 2.8"/><path d="M176.6 88.2s2.5 5.2 4.6 6.9c2.1 1.6 5 3.1 5 3.1M168.5 88.6c.7 1.2.6 3.5 1.3 4.3.8.8 1.9 2.6 1.9 2.6M168.7 88.7c.4.6 1.5 3.6 2.1 4.5.5.8 5.4 5.9 5.4 5.9"/></g><g stroke-width=".104"><ellipse cx="173.9" cy="99.5" rx=".7" ry=".8"/><ellipse cx="177.6" cy="101.1" rx=".6" ry=".7"/><ellipse cx="182.1" cy="101.5" rx=".6" ry=".7"/><ellipse cx="186.1" cy="99.9" rx=".6" ry=".6"/><ellipse cx="189.2" cy="98" rx=".5" ry=".7"/></g><g fill="#FF0101" stroke-width=".161"><path d="M171.1 76.4c-.3.2-5.1 1.4-4.4 1.3.7-.1 4.5 1 4.4.7-.1-.3 0-1.8 0-2zM179.3 74.8c-.2 0-3 1.1-2.9 1.1.1 0 3.2.9 3.1.7-.1-.1-.1-1.5-.2-1.8zM187.7 75.8c-.2.1-3.5.9-2.9 1 .6.1 2.8.9 2.8.7 0-.1 0-1.6.1-1.7z"/></g><g transform="matrix(.04915 -1.29622 1.23825 .05145 0 0)" fill="#BE1017" stroke-width=".127"><ellipse transform="rotate(-178 -58.848 145.727) scale(.99996)" cx="-58.8" cy="145.7" rx=".5" ry=".5"/><ellipse transform="rotate(-178 -58.02 148.496) scale(.99996)" cx="-58" cy="148.5" rx=".5" ry=".5"/><ellipse transform="rotate(-178 -59.558 147.157) scale(.99996)" cx="-59.6" cy="147.2" rx=".5" ry=".5"/><ellipse transform="rotate(-178 -57.312 147.067) scale(.99996)" cx="-57.3" cy="147.1" rx=".5" ry=".5"/><ellipse transform="rotate(-178 -58.435 147.112) scale(.99996)" cx="-58.4" cy="147.1" rx=".5" ry=".5"/></g></g></g><path fill="#FFF" d="M70 24.4V0H50v24.4L13.4 0H0v8.9l26.6 17.7H0v26.7h26.6L0 71.1V80h13.4L50 55.6V80h20V55.6L106.6 80H120v-8.9L93.4 53.3H120V26.7H93.4L120 8.9V0h-13.4L70 24.4z"/><path fill="#F00" d="M54 0h12v32h54v16H66v32H54V48H0V32h54V0zM0 0l40 26.7h-8.9L0 6V0zm120 0h-8.9l-40 26.7H80L120 0zm0 80L80 53.3h8.9L120 74v6zM0 80h8.9l40-26.7H40L0 80z"/></svg>
