<svg xmlns="http://www.w3.org/2000/svg" width="240" height="160" viewBox="0 0 480 320"><path fill="#00AB39" d="M0 0h480v320H0z"/><path fill="#FFF" d="M0 0h480v160H0z"/><path fill="#D21034" stroke="#000" stroke-width="1.041" d="M314.2 33.1zm0 0c-30.2 16.7-57.3 34.1-83.8 56.2-12.8 11.1-9.2 20-9.7 30 .4 6.7-1.5 13-5.6 16.7-9.5 1.9-18.9 3.8-28.4 5.7l-2.7-7.8c.9-4 4.2-6 11.2-3.5.6-5.2-3.6-7.3-8.5-9.1-1.7-1.3-3.7-2.3-3.5-6.8-.8-10.1 15.4.7 15.5.7.2 0-.5-10.2-8-12.2-4.1-1.4-5.8-5.7-4.2-8.9 3.2-6.5 9.4.5 14 .8-.2-4.2-1.4-7.2-5-10.7-2-1.2-6.8-2.1-6.9-4.1-.1-2.7 4.5-3.9 10.9-3.2-1.3-3.9-5.6-6.3-11.5-8.2-1.2-2-2.3-4-3.5-6-1.6-3-2.4-3.1 1.4-8.9 3.4-2.2 8-5.3 11.4-7.6-1.3-.2-2.5-.3-3.8-.5.5-4.1.6-5.5 1.5-12.4-3.7 5-8.3 4.1-12.4 6.2 0 0-11.8 2.1-15.5 7.1-.2 0-29.6-1.5-29.6-1.5-6.3.9-11.6 2.6-12.7 8.7-14.3 1.4-29.4.2-40.3 13.9 7.4-.4 14-2.1 22.3-1 0 0 7.1.1 8.6 7.7.2.3 2.4.3 2.4.3l2.7 2.1c.4-1 .7-1.9 1-2.9.8.6 1.6 1.1 2.4 1.7.3-1.1.5-2.1.8-3.2.8.6 1.6 1.1 2.4 1.7.1-1.3.1-2.5.2-3.8 1.1.8 2.1 1.5 3.2 2.3v-5s11.7 0 15.2 7.4c.2.2-32.8 6.1-64.6 3.3 3.1-1.5 6.1-3 9.2-4.5-11.3-2-22.2-4.2-32.4-12.2 3.9 14.5 23.8 31.6 27.9 31.5 0 .2-3.9-7.1-3.9-7.1 11.5.5 23 1 34.6 1.5 1.3 3.8.7 8.1 3.8 11.5 0 0-1.9 6.3 2.3 8.9.2.3 5.1-12.8 5.1-12.8s1.5 3.5 3 5.9c2.2-11.3 14.5-13.1 14.5-13.1s2.6 5.9 2.6 6c-3.8.6-8.6 8.4-6 12.7-2.6 0-7.1 7.6-5.7 11.8-2.2 2.2-7.6 5-6.2 14-4.2.9-6.8 8.7-5.4 16.9-6.6 6.1-5 17.3.9 21.9-2.4 2.2-3.9 3.8-3.9 6.5-2.3-.9-4.4-.1-5.4 1.4-2.8-2.9-6.9-5.4-9.8-2.7-.7-3.4-5.2-7.2-10.1-6.8.3-3.6-1.6-8.1-6.8-9.7 0 0-1-17-6.2-22.5-.5-3.1.3-5.2 4.5-7.7 4.2-2.3 5.1-4 4.8-10.4 1.7-4.3 2.9-8.6-2.3-11.6.2 5.1-1.4 7.5-3.5 9.8-2.5-.4-3.3 2.5-5 3.8-2.3-3.1 4.9-8-.5-14.9-.3-.3-3.7-9.1-12.2-8.9 4 2.4 5.7 6.3 5.7 10.4-2.7 7.5-4 13.4-1.4 22-3.5-5.3-5.5-15.3-8.4-17.1-2.6-.5-3.8-6.5-13.7-4.8 4.3 1.2 5.6 4.4 6.8 7.4-2.6 1.4-1.3 4.9.6 7.4-.4 5.8 3.1 9.2 8.3 11.3-.9 7.9-1.7 15.8-2.6 23.7-2.1-.3-5.2 7.8-6.5 8-2 1.3-5.5 4.6-1.5 5.6-1.2 4.3-2.3 6.9-8.8 7.8 0 0 6.8 4 12.5-2.9 6.1-.2 4.1-7.4 7-10.6 0-.2 1.7-1.2 4.1-7.6 1.1 5.7 6.9 23.1 20.1 31.7 11.5 12.3 20.9 23.9 20.8 40.3 4.5-4.2 7.2-10.8 9.2-17.1 6.2-2.2 15.1-3 23.1-2.6-1.4 2.9-2.9 5.6-.9 7.5-5.5 1.9-6.8 5.9-4.5 10-5.8 4-6.2 6.5-6.3 13.1-10.8 13.9-17.5 13.4-28.2 9.8-3.5-2.1-9-5-11.5-3.5-4.6-3.1-11.3-3.5-12.4 3.5 3.5-2.9 5.5-2.3 8.3.5-.6 1.4-1 2.8 1 3.6l-2.7 3c-5-.8-11.7-.7-13.4 6.5 2.6-2.1 8.2-2.6 12.8-.6.9.3 1.7.6 2.6.9.1 1.2.2 2.3.3 3.5 0 0-6.8-1-8.6 10 6.4-6.8 10.9-5 10.9-5 2.5 3.6 11.5 3 18-2.9 9.1-5.1 11.8 2.2 17.7-2.6 4.9-3.6 10.7-1.2 14.6 3 4.6 1.7 9.4 3.1 13.1 0 0 0 4.6-2.9 9.2 1.8.1-5.4-3.7-8.2-8.9-8.3l-1.5-1.5c-4.8-1-10.3-.6-14.5-3 2-7.6 4.9-14.4 10.6-20.2 7-7.5 12.1-10.9 21-22.4-.3 6.5 4.6 13.7 7.2 20.3 0 0 5.3-8.4 6-15.3.2 0 6.6-3.4 9.4-6.2 5.8 3.6 15.3-2.9 21.4-8.3 3.8 1.4 6.6 1.3 11 0-3.5 7.2 2 13.8 10.9 16.6.8 6.3 7.2 7.7 16.9 7.7.4 3.7 6.2 4.2 6.2 4.2-3.6 1.7-5.5 3.4-5.4 7.2-3.7 0-6.6 1-7.6 5.3-5.1.1-10.4.5-14.8 3-4.7-.7-10.5-2.7-14.2-6.5-1.9-1.6-2.4-3.9-5.7-4.8-2.1-2.5-4.6-1.9-5.4.5-2.2-1.7-10.4-2.5-11.8 5.3 3.8-2.8 7.3-3.9 9.7-.5-1.3 2.4 3.2 3.7 7.1 4.7 2.8.2 7.7 2.7 9.2 6.9-3.6 1.1-9 .7-12.5-2-3.2-2.6-7.4-2.3-9.8-.6-3.3-2.1-11 1.8-11.3 8.1 3.3-3 6.2-4.4 9.2-2.5-1.5.4-.9.5-.8 1.4 2.5 1.5 5 2.9 7.5 4.4-3.7 1-7.2 2.5-5.6 9.3 0 0 3-6 9.8-3.8.2-.2.9 2.1 2.9.6 2.9-3.3 9.6-4.8 15.5-5.4 4.7-.6 9.5-2 13.6.7 3.7-1.9 7.7-3.2 11.9-.1 4.9 1.6 8.5 7.3 14.8 4.7 3.1-2.2 6.9-2.3 10.9 2.1 0-5.5-4.1-7.4-10-8.6-1.4-.8-2.7-1.6-4.1-2.4-3.8-.6-7.6.1-11.3-1.7 19.7-5.1 33.6-16.1 43.3-31.8l9.3 3.3c2.2.1 2.4.9 6.9 2.3.2-6.7-2.7-13.6-14.8-14.3l-15.8-6c-3.4-3.5-4.9-11.1-.6-15.5 4.2-3.7 4.9-3.3 7.7-7.8 3.4-.3 6.5 3.2 9.7 3.2 1.5 4.4 10 8.3 15.4 6.9 3.4 3 9.8 4.7 16.9 2.3 4 3.5 9.2 5 15.4 2.3 1.6 1.6 5.1 2.9 9.1 2.1.3 0 2 4.4 6.3 5.9-1.9 1.8-.7 9.8 1.2 12.7-1.3 3.1-1.7 6.3-.6 9.5-4.4 2.8-5.3 4.9-3.3 9.7-5.7 9.2-12.6 10.3-19 7.4-2.3-1.5-4.6-2.9-6.9-4.4-2.5-2.4-4.9-4.8-7.4-7.2-1.3-1.2-3.9-1.5-4.4 1 0 0-9.5-2.1-10.2 5.9 3.9-3.8 9.5-.5 9.5-.3s-1.3 1.1-.3 2.6c.2-.2 6.9 2.5 12.9 5.1 3.2 1.2 4 1.6 5.4 2.4-1.6-.7-3.4-1.5-5.4-2.4-3.6-1.4-7.2-2.5-8.2-2.2-3.4-.3-7-.7-8.6 1.8-3.6 1.5-9.3 2.8-9.1 9.5 2.5-4 5.8-3.8 10.1-3.5l-.3.9c4.7 2.1 3.8-.6 8.1-1 3.6-.3 8.8 1 11.5 1.9-3.4 1-8.1.6-10.3 3-.4.8-1.8.5-1.2 2.4 0 0-6.7-.2-8.5 9.1 6.8-4.3 11.9-4.2 12.1-4.2.2 0 2.1.5 2.1.5s8.1-5.4 8.3-5.4c.2 0 7.9-3.4 11.5.5 3.1 1.5 6.4 1.6 9.7-.3 6.3-2.8 12.3-3 18.1.9l5.3 3.2c.8-.5 1.5-1 2.3-1.5 0 0 6-1.7 10.4 3.6-1.8-9.2-8.4-9.5-8.4-9.5-.5-.5-1-.9-1.5-1.4l-9.3-3.6c-1.4-3.4-4.8-6.1-1.4-10.1 3.5-17.3 7.6-30.3.9-47.8 6.3 2.7 11 11.1 18.9 8.2 0-7-25.9-20.4-45.7-31.2 32.4-1.7 71.4-25.6 56.4-56 2.4-7.3 4.7-14.7 7.1-22 3.3 6.7 10.1 11.8 16.2 14-5-9.5-7.9-38.7-5-58.8-13.1 16.1-27.5 30.5-42.8 45 7.5 1.8 14.1.5 21.4-.4-2.1 4.2-4.1 8.5-6.1 12.7-19.9-11.7-43.3-2.9-43.5 12.7.7 18.2 23.1 20.8 36.1 14.4-2.6 16.6-40.6 10.5-40.6 10.5-13.5-4.7-26.4-3.9-40.6-3.8 3-9.1 19.4-17.1 31.8-13.6-17.5-19.6 2.5-44 26.5-51.5-26.2-8.7-3.6-28.7 16-43 0 0-56.5 23.8-61.6 23.7-16.5-1.6-12.2-20.7-6-30.9zM136.9 55.9c1.3 0 2.9.1 4.1.4 2.5.6 5.6 1 5.6 1.7-1.2 2-4.1 4.4-6.9 4.2-2.8-.1-4.5-1.8-5.4-6.1.2-.1 1.3-.2 2.6-.2zM374.6 123c3.7-.1 8.1 1.5 12.5 6.1-2.1 6-20.1 9.1-21.4.2-.3-2.7 3.5-6.3 8.9-6.3z"/><path fill="none" stroke="#000" stroke-width="1.041" stroke-linejoin="round" d="M155.6 108.4l2.7 4m-.1.1s0 5.4 1.1 5.5m-2.5 2.8c.1.1 2.9 4.7 2.9 4.7m-7.9 1.3c.1 0 3.5 3.9 3.5 3.9m2.9-3c0 .1 3.2 6.1 3.4 6.1m-7.5-2s1.1 7.2 2.1 7m-6.8 6.2l3.2 4.8m2.7-9.9s1.7 6.9 3.1 6.2m1.4-10.3c.1.1 3.2 4.6 4.1 4m-.7 1.7l3 6m-8-1.4c.1.2 2.5 7.1 2.5 7.1m-8.3-3.5s2.2 7.6 4.2 6.4m-5 3.7s.1 4 2.1 4.2m1.4-6.2c0 .1 2 2.9 2 2.9m3.6-7.6l1.7 2.6m3.6-7.5l2.5 3.1m-14-38.8c.1 3.4 5.5-1.2 7.6-4m-9.9 15.7s5.9-4.1 10.3-10.3M150.3 134c4.1-1.1 11.7-10.3 13.2-15.1m-14 24.2c1.1.5 15.2-9.7 15.6-17.1m-16 25c0-.1 12.9-3.3 18.3-17.5m-19 28.2s20.6-12.4 21.7-21.5m139.3 42.3s-1.3 10.7-12 12.3m15.3 6.7c.1-.1 10.2-11.2 7.6-14.6m15.8 3.9s-.1 7.7-6.5 13.1m19.1-10.8s.2 9.3-3.7 13.1m15.3-7.5s-4.5 8.7-6.1 9.6m5.9 5.9s5.9 1.5 7.7-2.4m-6.2 15.1s5.4 1 7.9-4.2m-8.4 13.9s4.4 3.7 7.4-1.2m-70.6-70.7s-.5 18.9 26.2 22.8c29.8 8.2 43.8 3.9 45.6 37.2-1.1 12.7-2.7 27.1-11.9 21.6m-88.1-64.2s4.2 7.6 9.3 7.1c6.7-2 9.2 2.1 9.2 2.1m-36.7-1.6s11.2 5.5 20.8-3.4m-19.6-4.4c1 13.1-15.1 20.6-21.4 19.3m22.2 30.8c.1 0 8.7-5.1 7-8.8m-24.1 1.1c.2-.2 14.4-1.6 17.1-6.7m-23.7-14.2c0-.1 20.2.1 21.5 3.8m5.3-15.7s-19.7 33.6 16.7 33.6M235.8 191s-4.2 12.6-10.2 16.8m-10.7-21.2s7.3 14.1 0 21.1m-19.1-17.1c.1.2 2.4 20.1-2.6 25.7m-6.9-25.1s.7 12.6-3 17.1c-3.7 4.5.9 13.8.9 13.8m-45.4 6s2.7 4.7 6.4 3.1m-1.8-13.3s6 2.6 8 1.6m-1.6-22.8s-8.8 2.5-5.5 13c5.1 4.1 10.1 3.5 10.1 3.5m-22 27.9c-.1 0 1 8.2 6.7 2 4-8.3 16.6-31.9 19.4-40m5.9-3.8s-6.1-4.7-5.9 1.9c-.1 4.1 1.9 5.1 1.9 5.1.2 3 2.9 7.2 5 3.4.9-3.7-.6-5.4-.6-5.4m3.5-6.7c-5.5-.4-8.5 11.7 2.1 4.1m3.6-8.3s-1.4 1.9-3.5-.1c-1.1-2-5.1 9 1.9 9.3 1.2-3.2 5.1-4.1 5.1-4.1m3.2-10.3s-3.1 1.5-4.2 1.2c-3.7.9-3 9.6 1.7 9.1 1.6-1.9 3.4-4.5 3.4-4.5m-30.2-17.2c-.1 0-12.4 19.2 6.8 24.3m148.4-53.2s-7.5 6.4-.5 16.6c-23.2-.4-35.6 10.3-36.6 17.6-29.5-2.1-24.2 6.6-33.8 9.5-12.8-10.7-31.6-4.7-30.4 6-8.6-12.1-21.8-6.2-23.4-3.2-1.6 3-1-14.8-1-14.8s-8.6 3.9-14.6 11c.1-4.7 0-12.5 0-14.9-7.2 1.5-14.1 1.5-21.5 1.4m-19.4-5.8s10.7 6 23.9-2.1m-24.8-19.5s8.3 7.5 24 5.1m-18.7-22.3s1.9 6.1 19.8 6.5m-13.7-20.6s6.8 8.3 15.8 7m-10.1-18.8s2.6 4.5 12.6 5.2m-6.7-18.2s5.2 5.7 11.2 4.7M178.6 47s2.3-2.3 6.2-1.2m-7.9 13.4s-7.2-.3-6.7-3.1c.5-3.2 7.6-5.5 7.6-5.5s9.4-6 10.8-8.1m-42.4 32.9l9.1 17.5 4.4-6.6 2.3 4.5 3.7-6.6 6.4 4.1-2.4-8 5.4-.4s-1.4-3.9-6.3-4.6c1.3-1 5.8-4 5.8-4s-2.6-3-6.6-3.1c1.3-1.4 3.1-4.9 3-4.9-.1 0-4-.9-4-.9s9.1 3 16.2-1.2m-17.5-13.9c.1.1-.5 3.6-2.4 5.7m-32.8 3.9s5.7-1.6 9.9-.7c4.2.9 9.8 2.3 9.8 2.3s6.7-.9 8.9-2.4m-42.7 4.5s-.8 2.7-1 4.5c0 1.3-4.1 3-4.1 3m7.7-13s3.6 4.5 3.7 7.1c.1 2.6-2.7 4.5-2.7 4.5M81.8 85.9l-3.7-6 3.3-1.2m67.8 90.6c-3-3.9 2.2-63.1 13.3-78.6-3.9 27.9 9 56.4 12.2 56.3m-59.2-72.9s5 1.9 15.5-6.4m14.2 20.1l7.5.1m225.2-46.5s-125 58.4-126.8 61.5c21.1-6.4 110.6-21.3 112.8-20-5.3 1.3-113.9 26.2-119 32.2 27.1-.9 83.9 8.7 92.8 18-19.3-4.4-77-12.9-94.6-9.1 12.9 3.1 62.4 35.1 62.4 40.2-7.5-7.1-67-31.7-69.3-29.3 13.6 8.2 32.9 38.6 32.9 46-4-6.4-38.4-43.3-40.4-40.9 3.6 5.1 10.9 48.7 7.2 50.7 0-5.3-13.4-43.4-14.4-44.5-2.7.7-19.8 46.6-16.4 50.8-2.2-15.3.4-47.2 4.5-45.9-7.5 1.1-31.3 32.5-28.7 37.4.7-7.8 1.8-13 15.3-39-14.9.9-45.9 20.4-51.1 27.3 4.2-12.4 30.4-33.3 41.9-34.8m53.8-45.5c13.2-7.3 54-22.3 81.3-33.3m-107 72.7s9-.1 18-24.6c8.9-33.5 79.3-70.8 80.7-77.7M96 169.6s-2.1 4.5-4.7 5.7m14.8 1s-2.8 5.4-3.4 8m13.1-5.3s2.3 7.4.4 10.9m-27.3-30.1c-7.1 4 4 29.2 37.6 31.6m-5.4-13.6s-.9 4.5 5.4 13.5c-1.8 10 7.6 17.9 11.4 19.2M118.4 87.3c0-.1 1-2.7 1-2.7l1.1 3h1.8l1.2-3 1 3h1.8l1.1-3.3 1.7 3.1 1.5.1 1.1-3.8 2.4 2.7.9-.3.7-3.8L138 85l.7-.4 1.1-3.8 1.9 2.8 1-.3.9-3.2 1.8 2.9m-29.1 4.6l14-.2c4.5-.1 11.8-6.3 20.1-4.3m-63.7 34.6s2.3 5 5.5 2.2M81.3 121s-4.5 12.1.9 14.9m-7.3-28.3s0 2.8 5.9-1.5m-24.3 65.1s4.8 1.4 4 5m-2.2-60.6s3 1.4 5.8-3m25.6 142.2c4.6-.3 5.6 1.8 9.8 1.8 4.9.1 9.6-1.8 15.8-3.5m39.7 11.3c-.1 0-2.2 4.4-.4 6.6M89 264.8s7.3-6 11.2-2.3c3.7 1.3 5.8 1 5.8 1m-13.1-16s1.8 4.6-4.2 4m-1.9 6.7s3.9 2.4-.5 5.7m2.8 4.3s5.3.8 2.2 5m168.3-37s14.3 1.5 15 2.6c1.6-1.7 14.4-12.1-1.3-13.6-2.7 10.7-13.5 11.1-13.7 11zm-5.1 7.1c5.4 4.3 3.2 6.8 20-4.4m-27.7 9.8s7.9 8.5 13.7-1.8m-28.8 4.8l-10.7 5.6m-19.2 7.9s6.5-5.6 9.6-2.6c3 3 16-2.6 16-2.6m-20.8-19s2.2 4.4-2.1 5m-6.4 8.9s2.3 4.2-2.1 5.3m7.2 6s6.8.3 4.4 5.4m58.7-6.3s-3.7 3.1-1 6.7m54.8-29.2s4.3 2.1-.8 5.6m-4.3 7.5s3.2 3.4 1.1 6.2m7.9 6.7s4.4 1.2 4 4.9m58.2-8.2s-3.7 2.7-1.7 6.3m-64.3-114.5c8.9-1.1 21.7 18.7 28.2 22.6m38.9-50.6s4.5 3.9.5 13.4m7.8-28.6c1.3 1 6.1 3.6 9.3 9.5m3.1-39.1c0 .1-6.3 16.9-6.3 16.9M415 83.7s-1.2 15-3 18m-24.9 27.4c-2.1 6-20.1 9.1-21.4.2-.6-4.6 10.8-11.5 21.4-.2z"/><path stroke="#000" stroke-width="1.041" stroke-linejoin="round" d="M136.8 56l7 1.3c-.1 0-5 6.5-7-1.3z"/></svg>
