<svg xmlns="http://www.w3.org/2000/svg" width="240" height="160" viewBox="0 0 240 160"><path fill="#00008B" d="M0 0h240v160H0V0z"/><path fill="#FFF" d="M140 48.8V0h-40v48.8L26.8 0H0v17.9l53.2 35.5H0v53.3h53.2L0 142.1V160h26.8l73.2-48.8V160h40v-48.8l73.2 48.8H240v-17.9l-53.2-35.5H240V53.3h-53.2L240 17.9V0h-26.8L140 48.8z"/><path fill="#F00" d="M108 64H0v32h108v64h24V96h108V64H132V0h-24v64zM0 11.9l62.1 41.4H80L0 0v11.9zm160 41.4h-17.9l80-53.3H240l-80 53.3zm80 94.8l-62.1-41.4H160l80 53.3v-11.9zM80 106.7h17.9l-80 53.3H0l80-53.3z"/></svg>
