<svg xmlns="http://www.w3.org/2000/svg" width="240" height="160" viewBox="0 0 120 80"><path fill="#CE1126" d="M0 0h120v80H0z"/><path fill="#007A5E" d="M11.2 11.2h97.6v57.6H11.2z"/><path fill="#FCD116" d="M11.2 11.2h97.6L11.2 68.8h97.6L11.2 11.2z"/><path fill="#CE1126" d="M60 30.4c5.3 0 9.6 4.3 9.6 9.6s-4.3 9.6-9.6 9.6-9.6-4.3-9.6-9.6 4.3-9.6 9.6-9.6zm-41.9 9.7c1.2 2.2 3.5 4.7 5.6 5.5 0-2.3-.8-5.2-1.9-7.5l-3.7 2z"/><path fill="#FCD116" d="M68.4 37.3L63.2 41l2 6.1-5.2-3.7-5.2 3.8 2-6.1-5.2-3.8H58l2-6.1 2 6.1h6.4zM33.3.4L32.2 4h-3.8l3.1 2.2-1.2 3.6 3.1-2.2 3.1 2.2-1.2-3.6 3-2.2h-3.8L33.3.4zm24.8 5.8l-1.2 3.6L60 7.6l3.1 2.2-1.2-3.6 3-2.2h-3.8L60 .4 58.8 4H55l3.1 2.2zm30.5 0l3-2.2h-3.8L86.6.4 85.5 4h-3.8l3.1 2.2-1.2 3.6 3.1-2.2 3.1 2.2-1.2-3.6zm-55.3 63l-1.2 3.6h-3.8l3.1 2.2-1.2 3.6 3.1-2.2 3.1 2.2-1.2-3.6 3.1-2.2h-3.8l-1.2-3.6zM58.1 75l-1.2 3.6 3.1-2.2 3.1 2.2-1.2-3.6 3.1-2.2h-3.8L60 69.2l-1.2 3.6H55l3.1 2.2zm30.5 0l3.1-2.2h-3.8l-1.2-3.6-1.2 3.6h-3.8l3.1 2.2-1.2 3.6 3.1-2.2 3.1 2.2-1.2-3.6zM16 32.4c1.7 3.6-4.5 12.3 5.9 14.3-1.3-1.8-2.1-4.7-1.8-7 2.2.8 4.5 3.3 5.4 5.1 2.8-9.8-6.9-9.2-9.5-12.4z"/></svg>
