<svg xmlns="http://www.w3.org/2000/svg" width="240" height="160" viewBox="0 0 120 80"><path fill="#FFF" d="M0 0h120v80H0z"/><path fill="#F00" d="M52 0v32H0v16h52v32h16V48h52V32H68V0H52zM33.5 18.5c-1.9-.4-3.8-.6-5.7-.7.1 1.9.3 3.9.7 5.7-1.8-.2-3.6-.2-5.4 0 .4-1.9.6-3.8.7-5.7-1.9.1-3.9.3-5.7.7.2-1.8.2-3.6 0-5.4 1.9.4 3.8.6 5.7.7-.1-1.9-.3-3.9-.7-5.7 1.8.2 3.6.2 5.4 0-.4 1.9-.6 3.8-.7 5.7 1.9-.1 3.9-.3 5.7-.7-.2 1.8-.2 3.6 0 5.4zm68.5 0c-1.9-.4-3.8-.6-5.7-.7.1 1.9.3 3.9.7 5.7-1.8-.2-3.6-.2-5.4 0 .4-1.9.6-3.8.7-5.7-1.9.1-3.9.3-5.7.7.2-1.8.2-3.6 0-5.4 1.9.4 3.8.6 5.7.7-.1-1.9-.3-3.9-.7-5.7 1.8.2 3.6.2 5.4 0-.4 1.9-.6 3.8-.7 5.7 1.9-.1 3.9-.3 5.7-.7-.2 1.8-.2 3.6 0 5.4zM33.5 66.9c-1.9-.4-3.8-.6-5.7-.7.1 1.9.3 3.9.7 5.7-1.8-.2-3.6-.2-5.4 0 .4-1.9.6-3.8.7-5.7-1.9.1-3.9.3-5.7.7.2-1.8.2-3.6 0-5.4 1.9.4 3.8.6 5.7.7-.1-1.9-.3-3.9-.7-5.7 1.8.2 3.6.2 5.4 0-.4 1.9-.6 3.8-.7 5.7 1.9-.1 3.9-.3 5.7-.7-.2 1.7-.2 3.5 0 5.4zm68.5 0c-1.9-.4-3.8-.6-5.7-.7.1 1.9.3 3.9.7 5.7-1.8-.2-3.6-.2-5.4 0 .4-1.9.6-3.8.7-5.7-1.9.1-3.9.3-5.7.7.2-1.8.2-3.6 0-5.4 1.9.4 3.8.6 5.7.7-.1-1.9-.3-3.9-.7-5.7 1.8.2 3.6.2 5.4 0-.4 1.9-.6 3.8-.7 5.7 1.9-.1 3.9-.3 5.7-.7-.2 1.7-.2 3.5 0 5.4z"/></svg>
