<svg xmlns="http://www.w3.org/2000/svg" width="240" height="160" viewBox="0 0 120 80"><path fill="#DA000C" d="M0 0h120v80H0z"/><path fill="#FFF" d="M0 0h120v53.6H0z"/><path d="M41.4 36.3h20V50h-20z"/><path fill="#DA000C" stroke="#000" stroke-width=".16" stroke-linecap="square" d="M51.8 48.1H39.6l-2.7 1.8v1.9h14.9M46.7 40.2c1.8 0 3.2 1.5 3.2 3.3v4.6h2.3V30.6H39.6v17.5h3.9v-4.6c0-1.8 1.4-3.3 3.2-3.3z"/><path d="M43.9 18.7h5.8v10.6h-5.8z"/><path fill="#DA000C" stroke="#000" stroke-width=".16" stroke-linecap="square" d="M49.7 27.7h-5.1v-1.8h-3.7v1.8h-2.5v-1.8h-1.5v3.3h12.8m-11.3 0h10.9v1.4H38.4v-1.4zM42.7 14.9v11h1.9v-3c0-1.1.8-2.1 1.9-2.1h.1c1.2 0 2.1.9 2.1 2.1v3h1.8v-11h-7.8z"/><path fill="#DA000C" stroke="#000" stroke-width=".16" stroke-linecap="square" d="M42 13.4v1.5h9.1v-1.5H42zM40.9 10.5v2.9h11v-2.9h-1.7V12h-2v-1.5H45V12h-2v-1.5h-2.1zM36.9 49.9h15M61.6 49H51.4l-3.1 1.5v2.2h13.2"/><path fill="#DA000C" stroke="#000" stroke-width=".16" d="M48.4 50.5h13.5"/><path d="M58.6 36.3h20V50h-20z"/><path fill="#DA000C" stroke="#000" stroke-width=".16" stroke-linecap="square" d="M68.2 48.1h12.2l2.7 1.8v1.9H68.2M73.3 40.2c-1.8 0-3.2 1.5-3.2 3.3v4.6h-2.3V30.6h12.6v17.5h-3.9v-4.6c0-1.8-1.4-3.3-3.2-3.3z"/><path d="M70.3 18.7h5.8v10.6h-5.8z"/><path fill="#DA000C" stroke="#000" stroke-width=".16" stroke-linecap="square" d="M70.3 27.7h5.1v-1.8h3.7v1.8h2.5v-1.8h1.5v3.3H70.3m11.3 0H70.7v1.4h10.9v-1.4zM77.3 14.9v11h-1.9v-3c0-1.1-.8-2.1-1.9-2.1h-.1c-1.2 0-2.1.9-2.1 2.1v3h-1.8v-11h7.8z"/><path fill="#DA000C" stroke="#000" stroke-width=".16" stroke-linecap="square" d="M78 13.4v1.5h-9.1v-1.5H78zM79.1 10.5v2.9h-11v-2.9h1.7V12h2v-1.5H75V12h2v-1.5h2.1zM83.1 49.9h-15M58.4 49h10.1l3.1 1.5v2.2H58.4"/><path fill="#DA000C" stroke="#000" stroke-width=".16" d="M71.6 50.5H58.1"/><path fill="#F8D80E" stroke="#000" stroke-width=".123" stroke-linecap="round" d="M65.4 46.9c-.8.3-1.6.7-2.3 1.2-1 .6-1.9 1.2-2.8 1.9-.3.2-.6.4-.8.7-.3.3-.6.6-.6 1.1 0 .2.3-.2.4-.3.3-.2.7-.2 1-.1.4-.4.9-.7 1.4-1.1.9-.7 1.9-1.3 3-1.9.4-.2.7-.4 1.1-.5-.2-.3-.3-.7-.4-1z"/><path fill="#F8D80E" stroke="#000" stroke-width=".16" stroke-linecap="round" d="M61.4 49.2v1.2M62.1 48.7v1.2M62.9 48.2v1.2M63.6 47.7V49"/><path fill="#F8D80E" stroke="#000" stroke-width=".123" stroke-linecap="round" d="M54.7 46.9c-.1.3-.2.7-.4 1 1.7.7 3.4 1.5 4.9 2.5.5.4 1.1.7 1.5 1.2.1.3-.2.5-.4.4-.2-.1-.5-.2-.7 0-.3.2-.7.7-.1.8.7.5 1.9.3 2.2-.6.2-.4.2-1-.2-1.4-.6-.7-1.5-1.3-2.3-1.8-1.4-.7-2.9-1.5-4.5-2.1z"/><path fill="#F8D80E" stroke="#000" stroke-width=".16" stroke-linecap="round" d="M59.4 49.4l-.1 1M60.3 49.9l-.3 1M61.2 50.6l-.6.8M61.5 52.6l-.8-.4M61.7 51.7l-.9.1M60.5 53.1l-.1-.8M60.2 52.1l-.8.6M56.5 47.8v1M58.4 48.8v1.1M57.4 48.3v1"/><path fill="#F8D80E" stroke="#000" stroke-width=".16" d="M53.7 71.1v2.5h1.6v-1.3h2.1v1.3h1.7v-2.5h-5.4zm0 3.5v2.5h5.4v-2.5h-1.7v1.3h-2.1v-1.3h-1.6z"/><path fill="#F8D80E" stroke="#000" stroke-width=".16" d="M59.1 60.5h1.6v18.2h-1.6z"/><path fill="#F8D80E" stroke="#000" stroke-width=".16" d="M59.1 62.1h1.6v15.6h-1.6z"/><path fill="#F8D80E" stroke="#000" stroke-width=".164" d="M59.9 56.1l3.3 1.9-3.3 1.9-3.4-1.9 3.4-1.9zm-4.5 1.2h-.9v1.4h.9l4.4 2.6 4.4-2.6h.9v-1.4h-.9l-4.4-2.6-4.4 2.6z"/><path fill="#F8D80E" stroke="#000" stroke-width=".164" d="M59.8 51.3c-.8.1-1.3.9-1.3 1.6v3.5c0 .8.7 1.4 1.5 1.4.6.1 1.2-.3 1.5-.9-.2-.1-.4-.2-.5-.3-.1.4-.5.6-.9.6-.5 0-.9-.5-.9-1v-3.5c0-.5.5-.9 1-.8.2-.1.5.2.6 0 .2-.3-.1-.5-.3-.6h-.7zm1.8 1.3c-.1.2-.4.4-.6.5v2.3c.2.1.4.2.6.4v-3-.2z"/><path d="M55.3 12h9.2v16.6h-9.2z"/><path fill="#DA000C" stroke="#000" stroke-width=".16" d="M54.6 12v13.9h2.9v-4.1c0-1 .6-2.3 2.5-2.3s2.5 1.3 2.5 2.3v4.1h2.9V12H54.6zm5 1.6h.9v4.8h-.9v-4.8zm-2.6.9h.9V18H57v-3.5zm5.1 0h.9V18h-.9v-3.5zM53.6 10v2h12.8v-2H53.6zM52.4 7.7V10h15.2V7.7h-1.9V9h-2.1V7.7h-2.5V9H59V7.7h-2.5V9h-2.1V7.7h-2zM49.6 30.6V32h20.8v-1.4H49.6zM48.8 25.9v4.7h22.5v-4.7h-2.1v1.8h-2.8v-1.8h-3.8v1.8h-5v-1.8h-3.8v1.8H51v-1.8h-2.2z"/><path fill="#DA000C" stroke="#000" stroke-width=".16" stroke-linejoin="round" d="M51.5 32v17h4v-6.4c0-3 2-4.4 4.5-4.4 2.4 0 4.5 1.4 4.5 4.4V49h4V32h-17z"/></svg>
