<svg xmlns="http://www.w3.org/2000/svg" xmlns:xlink="http://www.w3.org/1999/xlink" width="240" height="160" viewBox="0 0 240 160"><symbol id="a" viewBox="-18.8 -24.5 37.6 49.1"><path fill="#FCDD09" d="M-4.6 6.1c1-3.2 2.4-8.7 3.1-15h3.2c.1 1.1.5 7.6 2.7 15C8.2 19 .9 24.5-.1 24.5c-1.4 0-8.2-6.1-4.5-18.4zM11 7.8C5.4 5.4 3.1-3.2 2.6-8.8h2.1C7.2 3.9 15.3-1 10.6-6.4c12.2 3.1 9.5 18.1.4 14.2zM-5.9-10.6H6v.9H-5.9v-.9zM-8-16.8c1.9-.2 4.8-.2 6.6.7-.2-1.9-.3-3.6-.3-3.6.7-7.3 3.3-5.5 3.7 0 0 1.3-.1 2-.4 3.6 1.7-.8 4.7-.9 6.4-.8-3 1.5-3.7 3-4.7 5.3h-6.5c-.5-1.1-1.2-3.3-4.8-5.2zm-3 24.6c5.6-2.4 7.9-11 8.4-16.7h-2.1C-7.2 3.9-15.3-1-10.6-6.4c-12.2 3.1-9.5 18.1-.4 14.2z"/></symbol><path fill="#002488" d="M0 0v54h240V0H0z"/><path fill="#DA121A" d="M0 54v106h240V54H0z"/><path fill="green" d="M39.8 64.2c1.2.4 18.5 16.5 18.2 16.9-.1.1-3.2-1.7-6.7-4.1-8.4-5.7-12.5-13.1-11.5-12.8zm51.5 22.5c-1.4 0-4.8-1.1-6.7-2.5h-1.9c1.1.5 9.2 3.6 4.5 3.2-3.7-.3-6.4-1.5-7.5-3.3-.8 0-1.5-.1-2.7-.1.5.4 7.8 4.8 7.7 5.1 0 .3-1.6 0-3.7-.6-.9.2-2 .5-3 .9 3.9 1.8 9.8 3.7 8.2 4.3-.8.3-5.3-1.5-9.4-3.7-.2.1-.3.3-.5.4l6.2 3.7c.4.6-5.6 1.4-9.1-.2-.6.1-1.1.2-2.1.2-1.6 1.3-2.7 2.5-3.3 3.7 3.8-1.1 9-2.6 9.8-1.3.5.8-4.8 1.3-10.4 2.6-.1.5-.2 1-.2 1.5 2.9-2.1 8.1-1.3 11.5 0 2.7-.8 6.2-1.2 6.2-.6 0 .1-1.7.8-4 1.6 1.2.6 2 1.2 1.8 1.5-.1.1-1.7-.3-3.8-.8-7.2 2.5-7.2 4.7-8.6 11.2-.1-5.7-.8-8.7 6-11.9-4.3-1.1-6.7-1-9.1.7 0 .4.4 3.8.4 4.2-.2-.5-1.1-3-1.2-3.5-.6.5-2.7 2.6-3.3 3.1 1.7-2.6 2.1-3.4 3-4.4-.2-.8-.2-1.5-.1-2.2-4.1 1.1-6.7 1.9-7 6.1-.1 2.3-.1 2.4-.7.6-1.4-4.3-.4-5.5 7.9-7.9.4-1.4 1.4-2.8 2.9-4.3-1.1-.1-1.5-.3-2.2-.5-4.9 2.5-10.8 3-12.4 4.6-.8.7-1.3.7-1.3.3 0-2.2 10.1-5.3 12.6-5.3-4.2-1.5-12.9-2.4-14.3 2.7-.6 2.1-1.5 1.3-.4-1.3.4-1.1.7-2.2.5-2.4-.6-.6-6.7 1.2-7.3 2.2-.4.6-.7.7-.7.1 0-3.9 11.9-3.9 15.8-3.9-2.3-1.1-4.6-2.3-6.8-3.5-8.9-.9-10 .1-10.7 3-.4 1.5-.4 1.5-.4 0-.1-3 1.1-3.7 8.6-4.5-1.8-1.1-3.3-2.1-4.3-2.9l-2.9-.5 1.7-.6c-1.6-1.4-2.2-2.1-1.3-1.6.5.3 1.2.8 2 1.3 2.5-.8 4.2-1.1 4.2-1.1-1.5-.5-3-.9-4.5-1.4 0 0-5.7-.3-9.6 4.7-1.2 1.4-1.2 1.4-.7-.7.7-4 4.9-4.9 7.8-4.7-4.2-1.2-8.2-2.1-11.3-2.7-1.6-.3-1.6-.3.4-.4 1.8-.1 8.1 1.4 14.9 3.1-1.5-.7-2.9-1.4-3.5-1.9-1.4-1.3-8.5-4.8-8.5-4.8 0-.9 5.9 1.6 6.7 1.9l-9.1-7.6c.3-1.8 15.8 9.7 15.9 11.1 2.4 1.4 4.3 2.6 4.1 2.9 1.5.4 13.9 4 15 5.2.8.8 4.5 3.4 7.6 5.3.5-.2.9-.4 1.3-.6-1.9-1-7.2-3.9-7.7-6-.2-.1-1.4-.3-1.6-.3-1.6-.2-4.1-1.3-5.5-2.3-13.3-9.9-20-23.7-18-21.1.8 1 9.9 13.5 11.4 13.5 0 0-4.1-6.4-5-8.9-1.3-3.9-1.1-3.6 3.7 3.3C57.8 74.1 64 81.4 65 81.4c.4 0-1.1-2.2-3.4-4.7-6.3-6.9-7.9-15.7-4.7-9.7 3.3 6.2 11.5 15.6 12 15.7.3-.1.7-.2 1.2-.3-1.7-1.6-5.6-7.1-5.6-8.1 0-.8.5-.3 4.1 4.6 1.1 1.5 1.8 2.7 2.1 3.4 1.6-.2 3.9-.2 6.8 0-.6-.4-1.1-.9-1.6-1.6-1.7-2.4-4.6-8-4.6-8.8 0-.3 1 .6 2.1 2s3.3 4 4.9 5.7c1.6 1.8 2.3 2.6 2.2 2.9.5 0 1.5.1 2.8.3-1.6-.9-5.6-8-6.6-12-.7-2.7 1.2-2.3 1.2-.5 0 1.1 3.8 10.2 7.4 12.8 2.4.3 2.7.7 1.5.9 2.8 1.6 6.9 2.8 4.5 2.7zM49 83.6c.6-.6 1.2-.9 2.3-1.2-.3-.3-.2-.2-.7-.8-2.1.4-1.7.8-3.3.9.9.6.5.4 1.7 1.1zm5.1 1.5c-.6-.5-1.2-1-1.7-1.6-.4.1-2.4.4-2.8.4.8.5 1.5.9 2.2 1.4.8-.1 1.6-.1 2.3-.2zm1.4-3c-1-.3-2.1-.7-3.1-1.1.7.3.7.4-.2.4l.9.6c.9.1 1.5.1 2.4.1zm2.2 5.5c-.9-.1-1.7-.2-2.6-.3 1.9 1 3.2 1.6 3.6 1.5.2-.1-.2-.6-1-1.2zm3.6-1.3C59.4 84.8 59 84.2 58 83c-.4-.1-.8-.3-1.1-.4-.8.2-1.5.4-2.4.6 1.1.8 1.4 1 2.7 1.9.4 0 2.4.7 4.1 1.2zm.3-1.9c1.2.9 2.7 1.9 4.1 2.9h.7c.5-.5-1.5-1.6-4.8-2.9zm7 6.5c-1.7-1.1-2.2-1.2-3.6-2-.9-.2-1.8-.3-2.8-.5 1.4.9 2.8 1.7 4 2.3.9 0 1.7.1 2.4.2zm4.7-.1c-2.6-.7-2.5-.7-3.6-1 .9.6 1.8 1.1 2.7 1.5.3-.2.6-.4.9-.5zm-1.4-7c1.4.5 2.8.9 3.7 1-.3-.2-.9-.6-1.1-1h-2.6zm3.3 7.5l-.9.6c1 .2 1.9.5 2.8.7-1.2-.8-1.9-1.3-1.9-1.3zm-4.7-6.7c.5.9 3 2.5 6.3 4.1.5-.4 1.1-.7 1.8-1-2.6-.8-5.7-1.9-8.1-3.1zm3.9-2.4c.6-.2-.7-2.4-3.6-5.9-2.6-3-4.8-5.7-5-5.9-.2-.2.6 1.4 1.8 3.6 2.7 5.2 5.6 8.6 6.8 8.2zm.3 29.1c0 1.7 5.5-5.7 4.7-5.7-2.2 0-4.7 3.9-4.7 5.7zm83.5 5.4c-2.2-.4-2.2.5-.3 1.2 2.3.9 4.7 1.7 7.2 2.5-2.6-.6-5.4-1.2-8.4-1.9-2.2-.5-2.2.4-.4 1.2 1.5.6 3 1.2 4.6 1.8-1.9-.5-4-1.1-6.1-1.7-2.2-.6-2.2.3-.4 1.2 1.8.9 3.6 1.7 5.6 2.6-2.1-.7-4.3-1.4-6.6-2.2-2.1-.7-2.2.2-.5 1.2 17.5 9.9 73.5 24.5 26.8 7.8 18.1 5.2 30.4 6 2-2.8 18.1 4.2 30.6 4.5 4-2.3 21.3 4 32.1 2.4-27.5-8.6zm-6.2 6.7c-2.1-.8-2.3.1-.5 1.2 16 9.8 91.5 32.7.5-1.2zm-1.5 1.8c-2.1-.9-2.3 0-.6 1.1 25 17.2 80 33.3.6-1.1z"/><path fill="#FCDD09" d="M124.1 142.1c6.4 4.6 7.8 5.8 7.4 13.7 1.8-4.4 3.5-7.2-.1-15.3 7.2 3.1 8.8 4.1 10.1 11.9 1.3-7.5.6-9.7-3.3-15 7.7 1.6 9.5 2.2 12.4 9.5-.3-7.6-1.5-9.6-6.3-14 7.8-.1 9.7.1 14.1 6.7-1.8-7.4-3.5-9.1-9.1-12.3 7.6-1.7 9.5-1.9 15.2 3.7-3.3-6.9-5.3-8.2-11.5-10.2 7.1-3.2 8.9-3.8 15.6.4-4.7-6-6.9-6.9-13.3-7.6 6.3-4.7 7.9-5.6 15.3-2.8-5.9-4.9-8.2-5.3-14.6-4.6 5.2-5.9 6.6-7.1 14.4-5.9-6.8-3.6-9.1-3.5-15.3-1.5 3.9-6.8 5-8.3 12.9-8.8-7.3-2.1-9.6-1.5-15.2 1.7 2.4-7.5 3.1-9.2 10.8-11.3-7.6-.5-9.7.5-14.5 4.9.8-7.8 1.2-9.6 8.2-13.3-7.6 1.1-9.4 2.5-13.2 7.8-.9-7.8-.9-9.7 5.2-14.7-7.2 2.6-8.7 4.4-11.3 10.4-2.5-7.5-2.8-9.3 2.1-15.5-6.5 4.1-7.6 6.1-8.9 12.5-4-6.8-4.7-8.5-1.2-15.6-5.5 5.3-6.1 7.6-6.1 14.1-5.3-5.8-6.4-7.3-4.4-15-4.3 6.3-4.4 8.7-3.1 15-6.4-4.6-7.8-5.8-7.4-13.7-2.8 7-2.6 9.3.1 15.3-7.2-3.1-8.8-4.1-10.1-11.9-1.3 7.5-.5 9.7 3.3 15-7.7-1.6-9.5-2.2-12.4-9.5.3 7.6 1.5 9.6 6.3 14-7.8.1-9.7-.1-14.1-6.7 1.9 7.4 3.5 9.1 9.1 12.3-9.5 2.1-10.7.7-15.2-3.7 3.4 6.9 5.3 8.2 11.5 10.2-8.9 4-10.4 2.9-15.6-.4 4.7 6 6.9 6.9 13.3 7.6-7.8 5.8-9.5 5-15.3 2.8 5.9 4.9 8.2 5.3 14.6 4.6-6.5 7.3-8.3 6.9-14.4 5.9 6.7 3.6 9.1 3.5 15.3 1.5-4.8 8.5-6.7 8.4-12.9 8.8 7.3 2.1 9.6 1.5 15.2-1.7-3 9.4-4.9 9.7-10.8 11.3 7.6.5 9.7-.5 14.5-4.9-.8 7.8-1.2 9.7-8.2 13.3 7.6-1.1 9.4-2.5 13.2-7.8 1.1 9.7-.5 10.8-5.2 14.7 7.2-2.6 8.7-4.4 11.3-10.4 2.5 7.5 2.8 9.3-2.1 15.5 6.5-4.1 7.6-6.1 8.9-12.5 3.9 6.7 4.7 8.5 1.2 15.6 5.5-5.3 6.1-7.5 6.1-14.1 5.3 5.8 6.4 7.3 4.4 15 4.3-6.3 4.4-8.6 3.1-15"/><use xlink:href="#a" width="37.6" height="49.1" x="-18.8" y="-24.5" transform="matrix(1 0 0 -1 45.538 27)" overflow="visible"/><use xlink:href="#a" width="37.6" height="49.1" x="-18.8" y="-24.5" transform="matrix(1 0 0 -1 120.858 27)" overflow="visible"/><use xlink:href="#a" width="37.6" height="49.1" x="-18.8" y="-24.5" transform="matrix(1 0 0 -1 196.177 27)" overflow="visible"/></svg>
