<svg xmlns="http://www.w3.org/2000/svg" width="240" height="160" viewBox="0 0 600 400"><path fill="#00008B" d="M0 0h600v400H0V0z"/><path fill="#FFF" d="M175 61V0h-50v61L33.5 0H0v22.5l66.5 44H0v66.8h66.5L0 177.5V200h33.5l91.5-61v61h50v-61l91.5 61H300v-22.5l-66.5-44H300V66.8h-66.5L300 22.5V0h-33.5L175 61z"/><path fill="#F00" d="M135 0h30v80h135v40H165v80h-30v-80H0V80h135V0zM0 0l100 66.8H77.5L0 15V0zm300 0h-22.5l-100 66.8H200L300 0zm0 200l-100-66.8h22.5L300 185v15zM0 200h22.5l100-66.8H100L0 200z"/><path fill="#6A4C2D" stroke="#000" stroke-width=".5" d="M442.1 262.5s-1.7 4.4-2.6 4.4c-.9 0-4.4-1.9-4.4-1.9s-2.5 4-3.8 4.3c-1.3.2-4.7-.6-4.7-.6s-3.3 0-3.4-.5c-.1-.5.1-1.4.1-1.4s-4.7 3.8-5.8 3.6c-1.1-.2-4.6-4.7-4.6-4.7l-.6 2.4-6.8-.2-5.9-3.8s-3.3 5.5-3.4 5.3c-.1-.1-5.8 1.3-5.8 1.3l-.4-1.1-3.8-2.3s3-4.2 3-4.3c0-.1-1.4-.6-1.4-.6l-2.1 1.8-4.4 2.8-4.4-2 1.9-3.6.2-2.6 3.4-5.2 42.1-41 20.8 38.3-3.2 11.6z"/><path fill="#FFF" stroke="#000" stroke-width=".5" d="M472.1 264.9l11-.4-4.7-2.3 41.8-1.6-5.9-2.3-5.2-7.1-21.7-1.6s-1.6-1.2-4.3-.6c-.1-1.7-2.1-3.9-2.1-3.9l-13.3-1-8.3 5.7 5.6 14.4 7.1.7z"/><linearGradient id="a" gradientUnits="userSpaceOnUse" x1="101.521" y1="272.26" x2="102.445" y2="298.25" gradientTransform="matrix(1.2996 0 0 -.561 317.912 290.338)"><stop offset="0" stop-color="#474747"/><stop offset="1" stop-color="#F50"/></linearGradient><path fill="url(#a)" stroke="#000" stroke-width=".5" d="M429.4 142.1l1.1-3.8s1.9-3.3 1.9-4.7c0-1.4 1.4-3.1 1.4-3.1s4.4-1.3 5.4 1.4c4.8-7.2 10.3-.3 10.3-.3l1.5-1.8 3.1-3.9s4.5 4.2 4.5 4.9.8.2.8.2l4.9-.4s2.3 1.8 1.8 5.2c1.7 1 3.3 7 3.3 7l-40-.7z"/><path fill="#656263" stroke="#000" stroke-width=".5" d="M472.1 186.8c.8-.5 3.5-1.4 3.2-5.2-.3-3.9-3.7-4.3-5.5-4.2-1.9.1-3.5 1.7-3.5 1.7l-6.2-3.9s3.1-19.5 6.4-20.7c3.1-2.2 3.7-3.2 3.7-3.7S469 149 469 149l-20.2-2.4-19.1 2.3s-1.5 2.3-1.3 3.2c.2.9.3 1.9 3.7 4.5 3.8 2.9 6.4 19.6 6.4 19.6s-5.3 2.6-5.7 2.3c-.3-.3-1.9-.6-2.8-.5-.8.1-3.6 1.5-3.6 5.2s2.8 5.8 2.8 5.8 18.2-2.1 20.9 2.9c2.6-6.2 19.9-4.1 22-5.1z"/><path stroke="#000" stroke-width=".5" stroke-linejoin="round" stroke-opacity=".979" d="M491.7 166.5s.2-2.1 1.7-3.1 11.6-1.5 14 0c2.4 1.5 3.3 9 3.3 9s1.5 2.6 1.6 4.5c.1 1.9.3 3.2.3 3.2s8.1 10.5 8.2 20c.9 6.5.7 23.7-1.8 30.3-.1 8.2-3.5 13.5-3.5 13.5s.8 1.4.7 2.9c-.1 1.5-.9 2.9-.9 2.9l11.8 5.9-4.3-1.6s4.4 3.7 4.3 3.6c-.1-.1-4.9-2.3-4.9-2.3l2.9 2.9c-.1-.1-7.2-3.2-7.2-3.2s3.3 3.1 3.1 3c-.2-.1-5.3-2.5-5.3-2.5s3.2 3.4 3.1 3.2c-.1-.2-4.6-2-4.6-2l.2 1.7s-3.6-.2-3.6-2.9c-1.8-1-3-2.4-3-2.4l-8.4-1.4-9.5-28.4 2.2-47.9.6-2.4-1-6.5z"/><path fill="#FB0" stroke="#000" stroke-width=".5" d="M485.4 319.7s-4.9-10.2-7.3-10.4c-2.2-4.2 7.6-38.2 26.5-40.2 10.4.9.9 12-6 8.6.9 3 4.3 7.3 4.3 7.3s-13.5 5.8-17.5 34.7zm-65.2 1.5s4-11.6 6.5-11.8c2.4-.1-6.5-38.8-25.9-39.1-10.5.9-.9 12.1 6 8.6-.9 3-4.3 7.3-4.3 7.3s13.7 5.9 17.7 35z"/><path fill="#00713D" stroke="#000" stroke-width=".5" d="M438 248.5c0-.1-4.8 1.5-1.7 6.7.2-2 2.4-3.2 2.4-3.2s-3.3 3.9.2 7.1c.4-3.1 2.4-4.1 2.4-4.1s-2.4 7.1 0 8.6c.3-2.9 2.1-4.1 2.1-4.1s-2.2 6.4-.2 7.8c.2-2.4 1.9-3.5 1.9-3.5s-1 6.6 1.6 7.1c0-2.3 1.9-4.6 1.9-4.6s-.8 5.4 3.2 5.7c0-2.1.8-4.4.8-4.4s1.8 5.7 4.5 4.8v-4.9s1.7 5.5 4.9 4.4c-.5-1.5.2-3.4.2-3.4s1.7 3.4 4.7 2.3c.5-1-.1-3-.1-3s4.4 4.6 5.8 1.8c1.4-2.8-3.6-3.7-3.6-3.7h3.3s-1.1-2.8-5.6-3.4c1.5-.7 3.1-.2 3.1-.2s-.9-3.5-5.5-3.9c1.8-.6 3.7-.2 3.7-.2s-.6-3.3-5.7-4.3c.8-.9 2.9-.6 2.9-.6s-2-3.1-4.3-2.9c-2.2.3-22.9-2-22.9-1.9z"/><path fill="none" stroke="#3EC26D" stroke-width=".5" stroke-linecap="round" d="M464.7 263.8s.9 2 .6 2.4M466.6 264.9c.1 1.6-.1 1.7-.1 1.7M458.4 265.4s1.8.9 1.8 1.7m-.7-3.2s2.3 1.6 2.3 2.8m-.2-3.6s1.9 1.2 2 3m-20.1-11.3s2.2 1.4 2 3.4m-2.1-1.7s1 1 .8 1.6m1.9-3.2s1.4 2 1 3.4m1.5-2.1s.7 1.3 0 2m1.2-1.4s.8 1.3.1 1.7m-1 2.5s2.1.5 2.3 2m-1.1-3.4s2.1.1 2.4 2.4m.4-3.2s1.4 2.5 1.2 3.3m1.6-3.1s.6 2.4.1 3.1m1.7-2.2v2.8m-2.7-6.5s1.4.5 1.3 1.8m-.1-3s1.7 1 1.5 2.9m.5-3.7s1.5 1.8.9 3.7m1.7-3.3s-.6 2.2-.3 3.1m1.9-1.6s-1 .7-.5 1.7m-8 6.9s.3 1.7 0 2m-2.1-3s1.1 1.9.7 2.8m-3-2.9s1.2 1.4 1.2 2.5m-3.1-2.2s1.1 1.1 1 1.7m-2-.1s1.1 1.1 1 1.4"/><path fill="#FFF" stroke="#000" stroke-width=".5" d="M423.2 188.8l15.5-.3s10.2 0 11.3 3.3c1.9-4.4 10.8-4.1 10.8-4.1 5.3-.2 10.7-.4 16-.6l.3 38.6c-3.1 15-14 25.6-25.9 30.1-14.3-4.6-23.3-16.6-26.2-30.4-.7-12.1-1.2-24.4-1.8-36.6z"/><path fill="#006B00" stroke="#000" stroke-width=".5" d="M428.7 188.7l22.5 60 20.3-61.3c-6.3.4-19.8-1-21.5 4.8-2.6-5.2-16.8-3.2-21.3-3.5z"/><path fill="#FFC900" stroke="#006B00" stroke-width=".25" stroke-linecap="round" d="M444 221.1c.9.5.8-16.3 2-16.8.3-1.4.5-2 .9-3.5-1-1.7-5.4-1.6-7-.2.7 2.3 1.1 3.1 1.1 3.1 2.2 3.7 1.7 17.8 3 17.4z"/><path fill="#CDAD56" stroke="#000" stroke-width=".5" stroke-linejoin="round" d="M438 91.8s1.6-1.8 1.7-2.2c.1-.4 7.2-.7 11.5-8.7 2.4-4.2 0-1.7 0-1.7l-.1-2s3-2.8 1.9-4.3-.7 2-2.5 1.9c-1.7-.1-.8-3.8-.8-3.8s-.1-.4-.7-.7c-.7.1-.5 1.4-1.2 1.5-.7.1-1.2-3-1.2-3s-1.1-1.4-2 3.1c.5 4.8 3.6 3.9 3.6 7.1 0 3.2-2.7 5.6-3.5 5.7-.8.1-.5-2.7-.5-2.7s-.4-1.3-.7-1.3c-.3 0 1.6-.3 1.3-3.9-.7-4.3-1.2 1-2.3.8-1.2-.2-.3-4 .1-4.4.4-.4-.5-2.2-3 2.4-.2 2.2-.5-.6-1-.4-.9 1.8-.7 3.1.5 4.8 1.8 1.7 3 3.3 2.9 4.2-.1.9-1 2.8-2.3 2.8s.1-2.4 0-3.2c-.1-.8-2.2-3.7-2.2-3.7s-1.5-2.5-1.4-2.5c.1-.1-.1-.4-.9 2.1-.7 2.5-1.6-1.7-1.6-1.7s-1 3.1 1.2 5c-1.7-.2-1.8.4-1.8.4 0 .9 2.2 1.2 2.5 2.7.3 1.5-2.3 2.4-2.3 2.4s1.1 1.5 4.1-1.4c.1 1.9-1.2 3.2-1.2 3.2 1 .4 1.8.3 1.9 1.5z"/><path fill="#CDAD56" stroke="#000" stroke-width=".634" stroke-linejoin="round" d="M428.1 91.8s-1.4-2-1.4-2.4c-.1-.4-6.6.5-9.8-7.5-2-3.8 0-1.6 0-1.6l.1-1.8s-2.2-2.6-1.2-4c.9-1.4.5 1.8 1.7 1.8 1.5-.1.7-3.4.7-3.4s.1-.4.6-.6c.6.1.9 2 1.4 2.2.6.1 1.7-2.3 2.1-2.8.5-.1.5-2 1.3 2.1-.4 4.4-4.1 3.6-4.1 6.4 0 2.9 2.3 5.1 3 5.2.7.1.4-2.4.4-2.4s.4-1.2.6-1.2c.2 0-2.1.5-1.9-2.8.6-3.1 1.8.2 2.8 0 1-.2-.1-3.3.2-3.7.1-.5 1.5-2.5 2.1 2 .2 2 1.3-1.8 1.7-1.6.7 1.6-.3 3.8-1.4 5.4-1.5 1.5-2.2 3.2-2.2 4 .1.8.4 1.8 1.5 1.8s.4-1.4.4-2.1c.1-.7 1.9-3.1 1.9-3.1.4-.6.1-1.7.4-2.2.6 0 .8-.8 1.5 1.5.6 2.3 1.3-1.5 1.3-1.5s.9 2.8-1 4.5c1.4-.2 1.5.4 1.5.4 0 .8-.7 1.1-.9 2.5-.2 1.4.7 2.2.7 2.2s-.9 1.4-3.5-1.3c-.1 1.7 1 2.9 1 2.9-.7.1-1.4 0-1.5 1.1z"/><path fill="#FFC900" d="M467.8 197.6c-1.3-1.2-1.5-.2-2.2-.4-.3-.1-.6-.4-.9-.7-.2-.3-.5-.4-.9-.5-.1.4-.2.7-.4 1.1-.1.4.3 1 .3 1.5-.1.8-.4 1.5-1.4 1.8.3-.6.5-.6.4-1.3 0-.3-1-1-.9-1.3.2-.5.5-1.1.3-1.7-.4.3-1 .1-1.4.3-.3.2-.4.8-.9 1.1-.5.2-1.6.1-2.5-.4.6-.4 1-.1 1.6-.6.3-.2.3-1.1.5-1.3.3-.2 1-.4 1.2-.7-.3-.3-.2-.7-.5-1-.3-.3-1.4-.2-1.6-.5-.5-.6-.4-1.3-.9-1.9 1.3.5 1.1 1.1 1.4 1.1.6-.3 1.2-.4 1.6-.2.3.1.9.9 1.3 1.1.1-.4.3-.8.4-1.2.1-.4-.6-1-.4-1.4.2-.7.9-1.4 1.1-2.1.1.7.2 1.3.3 2 0 .3.7.5.8.9 0 .3-.4 1.2-.3 1.5.4-.1.9 0 1.3-.1s.6-.9 1-1c.7-.1 1.3-.1 2.1 0-.6.5-1 .5-1.3 1-.3.2.1.9-.7 1.4-.3.2-1.1 0-1.4.2.3.3.5.6.8.9s1.4.4 1.6.7c.5.4.7 1.1.6 1.7zm-34.6.6c1.3-1.2 1.5-.2 2.2-.4.3-.1.6-.4.9-.7.2-.3.5-.4.9-.5.1.4.2.7.4 1.1.1.4-.3 1-.3 1.5.1.8.4 1.5 1.4 1.8-.3-.6-.5-.6-.4-1.3 0-.3 1-1 .9-1.3-.2-.5-.5-1.1-.3-1.7.4.3 1 .1 1.4.3.3.2.4.8.9 1.1.5.2 1.6.1 2.5-.4-.6-.4-1-.1-1.6-.6-.3-.2-.3-1.1-.5-1.3-.3-.2-1-.4-1.2-.7.3-.3.2-.7.5-1 .3-.3 1.4-.2 1.6-.5.5-.6.4-1.3.9-1.9-1.3.5-1.1 1.1-1.4 1.1-.6-.3-1.2-.4-1.6-.2-.3.1-.9.9-1.3 1.1-.1-.4-.3-.8-.4-1.2-.1-.4.6-1 .4-1.4-.2-.7-.9-1.4-1.1-2.1-.1.7-.2 1.3-.3 2 0 .3-.7.5-.8.9 0 .3.4 1.2.3 1.5-.4-.1-.9 0-1.3-.1s-.6-.9-1-1c-.7-.1-1.3-.1-2.1 0 .6.5 1 .5 1.3 1 .3.2-.1.9.7 1.4.3.2 1.1 0 1.4.2-.3.3-.5.6-.8.9-.3.3-1.4.4-1.6.7-.5.4-.8 1.1-.6 1.7z"/><path fill="#FFC900" stroke="#006B00" stroke-width=".25" stroke-linecap="round" stroke-linejoin="round" d="M466.6 201.5c-1.2 1-9.1 2.9-9.2 9.8-.1 6.8 1.4 8.4-.1 8.6-2.8 0-3.2-7.6-3.2-11 .1-3.4.2-2.9.2-2.9s1.9.5 1.8 2.2c-.2 1.6 1.9-4.1 1.2-5.6 1.3 1.3 3 .8 3 .7 0-.1-1-1.1-1.4-1.9-.4-.8 1.5.4 1.5.4s.1-1.3-1.5-1.2c-2.1 0 .3-.7.3-.7s1.2 1.1 2-.1c-.9-1-2.2-1.5-2.2-1.5s-1.1-2.2-2.7-2.6c-1.8-.4-1.5.8-3.6.6-.4.8-.4.9.4 1.1-1.4 1-.6 2.9-.6 2.9s2.2-1 2.1.6c-.1 1.6-1.3 1.3-2.1.3-.7-.4-1 .4-1 .4l1.1 1.2s-2.2-.1-2.8 1.4c1.2-.1 1.9.3 1.9.3s-2.5 1.1-2.8 1.7c-.2.6-.3-.7-.4-.7-.1 0-2.4-.9-2.4-.9l-.8 3.7s1.6 1.6 2.5 1.1c.9-.5 2.5-2.1 3.5-1.6-2.8 2.2-5.7 5.3-7.2 5.7-.4-.3-1.8-1.7-2.4-1-.6.7-.2 1.6.6 1.5.7-.1-2.4.7-1.7 2 .6 1.3.6 1.2 1.1.9.6-.3-.5-.4 1.6-1s2-1.2 2-1.2-.4 1-1.5 1.2c-1.1.3-2 .3-1.8.6.2.3.7 1 .6 1.3-.2.3 2.4-1.8 3-.1 1.7-.1 2.8-2.2 2-3.4.1 1.3.9 1.7.4 2.3-.5.6 3.8-2 1.7-3.6.6 1.3.6 2.3.6 2.3s1-.1 1.2-.4c.2-.3-.5 1-.2 1.2.3.3 1.9 1.7 1.2 2.8-.4-.6-.5-1.6-1-1.5-.5.1-2.5 1.6-3.7 1.6s1.5 4.5 1.5 4.5-1.9-.3-2.1-.1c-.2.2-1.5-1.6-1.7-.5-.4 1.3.4.8.4.8s-1.1-.5-1.6.1c-.6.6-1.1 1.2-.7 1.5.4.3 2.2.3 2.4.2s-2 .2-2.2.4c-.2.3-.5 1.2 0 1.6.5.3 1.7-.2 1.8-.4.1-.3.2 1 .2 1s2.1.2 2.1-2 .2 1.6.2 1.6 2.1.3 2.2-1.8c.1-2.2.2 1.5.2 1.5s1.4-.4 1.4-.8c0-.3-.1 4.3-1.1 5.6-1.5-1-2.5.7-2.5.7s.1 2.5-.1 3.1c-.2.6 1.1-.3 1.1-.6.1-.3 1.5-1 1.6-1.1l.5-1s-.3 1.2-.9 1.4c-.6.2-1.1.8-.9 1.3.2.5 1.1.9 1.5 1.4.3.5 1.5-3 1.5-3l.1.8s1.5-.3 1.6-1c.2-.7-1.5-1.3-.2-2.4 1.4-1.1 0 1 0 1s.5 1.6.8 1.6 1.1-3.1.3-3.9c-.8-.8 1.2 1 1.2 1s1.1-3.2-.1-3.6l-1.8-.6s.6-.9.3-1c-.3-.1 1.7 1.9 2 1.4.3-.5.8-2.1-1.5-2.9-2.4-.9-.1-3.3-.1-3.3s1.5 1.7 2.5.8c1.1-1-.1-1-.1-1s3-1.9 3.1-2.9c-.6-.1-1.5.1-1.5.1s1.7-1.1 1.3-2.9c-.7 1-1.5 1-1.5 1s1.5-1.5 1.2-2.9c-.9.7-.8 1.2-1.4 1s-1.5-5.6.7-6c2.3-.3 1.1 2.7 1.1 2.7.1 0 3.4-1.4 0-3.6.8-.3 2.5 1.3 2.5 1.3s-.7-3.8-4.4-1.5c.9-1 1.5-1.6 2.2-1.4.7.2 3.3-.1 3.3-.9-.6-.5-2 .3-2.8 0-.3-.5 5.7-.9 5.2-3.8z"/><path fill="none" stroke="#006B00" stroke-width=".5" stroke-linecap="round" d="M440.8 203.7s3.2-1.8 4.9.4M447 207.6c-.1 0-1.1 1.1-1.4 1.1M449.2 211.2s3 .3 5-2.9"/><path fill="none" stroke="#006B00" stroke-width=".5" stroke-linecap="round" d="M452.5 210.3s.2 1.7.7 1.7c.5 0-.8.4-1.3.1.6.8.9 2.2 0 2.7"/><path fill="#E80000" stroke="#006B00" stroke-width=".5" stroke-linecap="round" d="M450.9 232.1s-1.1 1.2-2.4 1.3"/><path fill="none" stroke="#006B00" stroke-width=".5" stroke-linecap="round" d="M452.1 226.6s-.6-3.5-.2-4.3c.2-1.1 1.3-1.6 2.1-3M451.8 224.1s-.8 2.1-4.4 1.4M452.8 218.9s.2 2.8-3 1.7M448.8 206.4s-1.3 1.2-.8 2.9"/><path fill="#006B00" d="M453.7 203.4s1.7-.7 2-1c.3-.3.9-1 1.1-1.6.2-.5-1.1-1.3-.5-2.4.4-.5 1-.6 1.9 0 1 .6-.9-1.9-1.9-2-1-.1-1.6.7-1.9.5-.2-.2.1.7-.3.7s.8.7.7 1.1c-.1.4 1.3 1.9 1.2 2.3 0 .3-1.9 2.3-2.3 2.4z"/><path fill="#FFC900" stroke="#FFC900" stroke-width=".5" stroke-linecap="round" stroke-linejoin="round" d="M454.9 197.6c.7-.2.9 0 .7.7-.3-.1-.5-.3-.7-.7z"/><path fill="#FFC900" stroke="#006B00" stroke-width=".25" stroke-linejoin="round" d="M440.7 205.7c-.4.4.5 1.4 1.3 1.3.2-1.1-1.1-1.6-1.3-1.3z"/><path fill="none" d="M440.7 203.7c-.2.5.5 1.2 1 1 .1-.5-.9-1.4-1-1z"/><path fill="#E80000" d="M449.7 236.2s-.3 1.8.4 2c0-.7.1-1.2.3-1.4-.1 0-.7-.6-.7-.6zm-1.5-2.2c-.6-.1-1.7.4-1.4 1.1.5-.5 1 0 1.3-.4.2-.2.1-.5.1-.7zm0-1.3s-1-.2-1.1.6c.7-.1.9-.2 1.1 0v-.6zm-4.1-10.2s.6.2.7.9c.5-.3.7-1.7-.7-.9zm-1.5 1.5s1.2-.8 1.3 0c-.3.3-.4.4-.6.5 0 0-.3-.5-.7-.5zm-.1 2.5s.8-.7 1.1-.2c.3.5-.2.4-.2.4s-.3-.1-.9-.2zm-1-13.9s-1-.4-1.3.3c.6.1.8.3 1.1.5-.1-.2-.3-.7.2-.8zm-1.9 5.2s0-1.2.6-1.7c.3.2.4.5.6.8-.4.2-.9.2-1.2.9zm2.6-.8s-1 .5-.7 1.1c.3-.4.7-.3.7-.3v-.8zm-.6-12.1s.2.8.9.6c-.1-.6-.6-1.1-.6-1.1 0 .2.1.5-.3.5zm.5 2.4s.4.5 1.2-.5c-.4.1-1-.2-1-.2s0 .7-.2.7z"/><path fill="#FFC900" stroke="#006B00" stroke-width=".25" stroke-linejoin="round" d="M440.6 203.8c-.4.4.2 1.1 1 .9.3-1-.8-1.2-1-.9z"/><linearGradient id="b" gradientUnits="userSpaceOnUse" x1="80.419" y1="193.509" x2="80.483" y2="181.472" gradientTransform="matrix(1.0598 0 0 -.688 361.308 325.993)"><stop offset="0" stop-color="#b50000"/><stop offset="1" stop-color="#ffc500"/></linearGradient><path fill="url(#b)" d="M441 199.6s3.5-1 5.4.5c1.9 1.5 1.9.1 1.9.1s2.7 1 3.5.8c.8-.2-.6.1.5-.6 1.1-.6-2.1.1-2.4-1.2-.5-.9.1-1.9-1.1-1.6-.8-1 .5-1.7.2-2.8-.8.6-1.2-.2-1.9 1.2-1.5-.3-.2-2.4-1.9-2.6 0 1.5-1.2 1.6-1.3 2.4-.7.7-3.9 2.6-2.9 3.8z"/><path fill="#C01500" stroke="#000" stroke-width=".5" d="M400.7 313.4c2.3-.5 14.6 2.7 19.3 7.8-1-9-3.5-16-3.5-16s-7.3-2.1-8.3-1.1c-1.5 1.6-5.9 6.2-7.5 9.3zm-3.7-41.8c-.9.1-1.7.7-2.6 2.2-1 2.4-1.7 8.6-3.2 10.1-1.4 1.4-2.7 1.6-2.7 2.9 0 1.3.1 4.3 4 5.5 3.9.1 10.1-6.2 10.1-6.2s3.2-3.4 4.5-7.2c-7.5 2.5-12.8-4.4-10.1-7.3zM505 312c-2.3-.5-14.7 2.7-19.4 7.7 1-9 3.5-15.9 3.5-15.9.9-.2 7.2-2.1 8.2-1.1 1.4 1.6 6.2 6.2 7.7 9.3zm3.5-41.6c.9.1 1.2 1.3 1.9 2.7 1 2.4 2 6 3.5 7.4 1.4 1.4 2.7 3.5 2.7 4.8 0 1.3-.3 3-4.1 4.2-3.8.1-9.4-4.8-9.4-4.8s-3.1-3.4-4.4-7.1c7.2 2.5 12-4.1 9.8-7.2z"/><path fill="#FB0" stroke="#000" stroke-width=".5" d="M392.7 305.5s7.8 5.3 7.9 7.8c20.8-30.9 74-40.5 104.3-2.2 4-5.3 8.2-7 8.2-7-32-41.7-95.4-36.5-120.4 1.4z"/><path fill="#1E5AA6" stroke="#000" stroke-width=".5" d="M474.7 187.3l-5.2 6.5 2.1-6.5h3.1zm-5.4 6.8l.1.1.1-.4-.2.3zm-.3 16.2l-6 7.6 6.5 7.9 6.3-7.8-6.8-7.7zm.4-16l-3.9 11.9 3.6 4 6.8-8.5-6.5-7.4zm-44.3-5.5l5.7 6.2c-1.1-2.9-2.5-6.3-2.5-6.3l-3.2.1zm5.7 6.2l.2.6.1-.2-.3-.4zm.2.5l-6.3 7.9 6.9 7.5 3.6-4.6c.1.1-2.2-5.6-4.2-10.8zm.6 15.4l-6.3 8 6.5 7.3 6.2-8.3-6.4-7zm7.2 38.2c2.7 2.2 5.7 4 8.5 5.2l4.2-5.4-6.6-7.6-6.1 7.8zm16.8 4.7c3-1.5 5.4-3.3 8-5.3l-6.2-7.1-6 7.6 4.2 4.8zm2.7-26.2l-3.6 10.6 2.7 3.1 6-7.6 6.8 7.5c2-2.7 3.6-5.6 4.9-8.9l-5.5-6.7-6.2 7.7-5.1-5.7zm-15 .2l-4.6 6.1-6.9-7.7-4.9 6.5c1.3 3.3 3.2 6.9 5.3 9.5l6.4-8.1 6.2 7.2 2.5-3.2-4-10.3zm-4.1-11.3l-1.1 1.4 3.1 3.9-2-5.3zm22.7.2l-1.6 4.6c.1-.1 2.5-3.3 2.5-3.3l-.9-1.3z"/><path fill="none" stroke="#FFF700" stroke-width=".5" stroke-linecap="round" d="M496.3 167s3-2.6 5.1-2.6M496.7 166.7c.1-.1 17.9-2.6 18.5-3.1M496.8 166.8c.1-.1 20-1.7 20-1.7M496.7 166.9s21.2-1 22.5.1M496.6 166.8s20.8.1 21.1.6M496.7 166.8l20 1.6M496.5 166.9c.1 0 20.3 1.8 22.3 4.4M519.9 174.9c-.1-.1-6.9-8.2-23.5-8.1M496.5 167s11.5.8 15.1 4.8M496.7 166.9s7.4-1.4 15.2 7.9"/><linearGradient id="c" gradientUnits="userSpaceOnUse" x1="76.207" y1="228.489" x2="104.223" y2="229.661" gradientTransform="matrix(.481 0 0 -1.5152 466.055 558.49)"><stop offset="0" stop-color="#d5dfff"/><stop offset="1" stop-color="#FFF"/></linearGradient><path fill="url(#c)" stroke="#000" stroke-width=".5" d="M492 175.4s10.3.4 10.3 1.4c0 1-7.7 2.9-7.8 7.2-.1 4.2 5.9 4.5 6.3 9.9.4 5.3-4.6 6.2-5.7 7.6-1 .7-3.4 8.3-3.1 12.7.3 4.4 1.6 19.5 3.9 22.5 1.8 1.4 4.5 6 7.5 4.5 2.9-1.4.9-6.6.6-8-.3-1.4 1.2-3.7 1.2-5.9 0-2.1-1.1-3.8-1-4.3.1-.5 8.2 1.9 7.7 9.9-.5 8-3.7 5.5-3.7 5.5s1 9.8-1.5 11.1c-4.5 2.4-7.9-.5-7.9-.5l.4 2-3.5-1.8s-4.4-6.4-5.4-9.2c-1-2.8-2.2-15.4-1.8-18.2.4-2.7.7-18.7.5-19.5-.2-.8-1-14.1-.5-16.1.5-2 3.6-10.8 3.5-10.8z"/><path fill="#FF7000" stroke="#000" stroke-width=".5" d="M480.9 172.7s7.2-7 11.3-6.2c2.1 0 .1 1.5.1 1.5s3.6.3 4.1 1.9c.1.7-1.7.9-1.7.9s1.5.3 1.6 1.6-15.3.4-15.4.3z"/><path fill="none" stroke="#000" stroke-width=".5" d="M481.3 172.4s7.7-1 10.9-4.2M489.1 170.3s5.7-.2 5.7.6"/><path fill="#FFF" stroke="#000" stroke-width=".5" stroke-linejoin="round" d="M509.2 252.9s4.8-1.1 6.2-2.8c.7-.7 5 6.3-6.2 2.8z"/><path fill="none" stroke="#FFF" stroke-width=".5" stroke-linecap="round" d="M507.9 212.8s.6 3.7-1.1 6.3c-.9 1-3.6 2.7-3.6 3.9 0 1.2 1 2.8.8 4.2-.2 1.4-1.7 2.8-1.6 4 0 1.2 1.7 7.7 1.5 7.8M499 200.7s-3.8 1.3-4.6 5.1"/><path fill="#C75B00" stroke="#000" stroke-width=".5" d="M497.4 170.3s1.3 3.6 5.6.2c-2.8-3.7-5.6-.1-5.6-.2z"/><path d="M500.5 170.2c0 .2-.2.4-.5.4s-.5-.2-.5-.4.2-.4.5-.4.5.2.5.4z"/><path fill="#FFF" stroke="#000" stroke-width=".5" d="M462.7 161.9s8 8.7 13.2 8.6c.9 2.6-2.4 4.9-3.7 6.1-2.6-.9-5 .2-11.2-7.4.5-4.9 1.8-7.1 1.7-7.3zM473.6 141.7c1-3.2 3.1-5.8 4.9-6.1-.5-2.5 3.8-13.3 16.2-17.5.8 5.6-5.3 11.1-5.3 11.1s18.2-3.1 21.9-7.8c-.4 2.1-4.1 15-23.5 14.9 7.4 7-2.4 12.6-6.5 10.9 7.6-5.8-2.2-9.3-7.7-5.5z"/><path fill="#CCCCCD" stroke="#CCC" stroke-width=".5" d="M479.8 137.1c3.7-2.4 5-2.4 8-1.9-2.2.3-2.2.4-2.2.4s-.2.3 1.1 1.5c-1.4-.4-2.7-1.2-6.9 0z"/><path fill="none" stroke="#000" stroke-width=".5" d="M478.4 135.6s7.3-3.9 11.3-6.5"/><path fill="#00F" stroke="#000" stroke-width=".5" d="M472.2 176.5s10 2.7 11.2-11.6c-2.2-6.2-5.2-19.7-.6-23.5-4.3-2.9-8.9.1-8.9.1-.3.7-4.1 6.1 1 15.5-12.1-3.2-7.2 8.2-7.2 8.2.5-1.8 6.9-3.5 8.5 5.7.7 2.2-4.3 5.7-4 5.6z"/><path fill="#00F" stroke="#000" stroke-width=".5" d="M483.4 165s10.6-5.7 10.3-19c-9 .2-12.2 11.8-12.2 11.8l1.9 7.2z"/><path fill="#FFF" stroke="#000" stroke-width=".5" d="M436 164.3s-7.8 6.8-12.3 4.6c-3.3 2-7.2-1.5-7.2-1.5s4.5 16.7 20.8 4.6c-.3-3.6-1.1-7.4-1.3-7.7z"/><path fill="#00F" stroke="#000" stroke-width=".5" d="M423.6 168.7c.7-3.5 3.4-5.2 5.6-1.9 2.9.6 5.9-11.4-4.5-9.5 2.9-15.7-5.9-21.6-5.9-21.6s-3.1 17.4-1.7 20.6c1.4 3.2-2.1-6-13.3-8.5-.2 13.1 12.6 19.3 12.6 19.3s3.5 3.4 7.2 1.6z"/><path fill="none" stroke="#000" stroke-width=".5" d="M424.6 157.3s-4.9 4.2-3.8 9.8M417.2 156.7s-1.1 4.1 1.3 9.8M416.4 167.8s2.3-3.7 7.2 1"/><path fill="#FFF" stroke="#000" stroke-width=".5" d="M417.3 142.3c0-.1-7.5 0-3 7.6-3.3 1-10.7-3.8-5.6-10.2-16.7-.4-23.5-8.4-23.5-15.8 4.9 5.1 16.6 3 20.8 6.1-5.1-4.7-4.1-11.3-4.1-11.3s14.3 4.3 16.8 16.9c-.8 2.6-1.2 6.9-1.4 6.7z"/><path fill="none" stroke="#000" stroke-width=".5" d="M405.9 129.7c2.8 2.8 9.8 3.6 13.4 6.8"/><path fill="#CCCCCD" stroke="#CCC" stroke-width=".547" d="M409.1 138s5.9-.8 7.6 1.3c-2.3 0-3.1-.6-6.4.7.9-.5.7-1.3 1.2-1.3.5-.1-2.1-.7-2.4-.7z"/><path fill="#923F00" stroke="#000" stroke-width=".5" d="M438.3 92.1s3.2-2.8 6.7-.3c-1.6 4.7-7.3 2.9-7.3 2.9s.2 2.4-.4 3.5c1.1.9 2.1 3.7 2.1 3.7s5.9-1.4 7.1 1.1c2.2-.3 3.9 0 3.9 0s4.5-1.1 6.1-1.1c1.6 0 6.7 1.3 7.2 2.3.5.9 2.2 7.3 3.3 7.2 1.1-.1-2.7 1.5-3.8-.1-1-1.6-.8 2.1-.8 2.1s3.2 3.4 3.6 4.2c.4.8-2 6.9-.2 11.2-1.6.1-1.7 1.8-1.7 1.8-.1 1.9-2.5 2.4-2.5 2.4l-.6-2.6-1.6.9.7-2s2.2-5.3 2.4-7c.2-1.7-2-4.7-3.7-4.7-1.7 0-2.9 5.4-2.9 5.4s-.9 4.1-.6 4.4c.3.4-1.1-1.3-1.1-1.3s-.8 2.5-1.3 3.2c-.6.8-1.8 1-1.8 1s-.9-2.5-.6-3.4c.3-.9 4.6-4.6 4.3-7.3-.4-2.6 0-2-.1-2.1-.1-.1-2.3-2-2.4-3-.1-1-2.8 1.3-6.4.6-1.1 1.9-1.2 6.7-1.2 6.7s-.4 5.8.4 6.4c.8.7-1.9 2.1-1.9 2.1l-1.9 2.6s-.7-1.6-.7-1.5c0 .1-1.3.9-1.3.9l.8-1.9c0-1.4 1.8-5.3 1.8-8.7 0-3.3.2-6.9.2-6.9s-3.5-.2-3.4 3.4c.1 3.6-.9 3.8-.7 4.8.2 1 1.1 4 .9 4.8-.3.9-1.4 1.1-1.4 1.1l-.3.5s-3.5 1.6-3.4 2.3-.1-1.9-.1-1.9l-.2-2.7s2.1-1.3 2.1-4.6-.5-3.8-.4-4.5c.1-.8.6-3.5.5-3.8-.1-.3-2 .8-2.6.8-.6 0 1-2 1.2-3.4.2-1.4-1.9 1.3-3.6-.3.8-1.7 2-2.3 2.2-3.6s-1.3 1.1-2.6.2c.1-1.3 1.4-2.4 1.4-2.4s-1.1-.1-1.5 0c-.9-.3.9-1.6 1-3.5.1-1.9-1-2.6-1-2.7 0-.1-1.9-1.7-2.2-2.4-.3-.7-.3-1.4-.3-1.4s-3.1 2.3-6.8-2.6c3.4-2.9 7-.8 7-.8s.9-2.6 5.3-2.5c4.5.3 5.3 2.8 5.1 2.5z"/><path fill="#00F" stroke="#000" stroke-width=".5" d="M462.1 141c.1 0 8 .2 8.1 4.5.1 4.3-2.4 3.1-2.5 3.1-.1 0-5.8-.7-5.8-.7l.2-6.9z"/><path fill="#FFFEFF" stroke="#000" stroke-width=".5" d="M454.4 139.8s9.9-.1 9.4 4.3c-.6 4.3-3.1 3.5-3.1 3.5l-4.8-.4-1.5-7.4z"/><path fill="#00F" stroke="#000" stroke-width=".5" d="M448.8 139.4l5.7.5s3.5.5 3.3 3.8c-.2 3.3-3.5 3.4-3.5 3.4l-5.6-.3.1-7.4z"/><path fill="#FFF" stroke="#000" stroke-width=".5" d="M435.3 141c-.1 0-8 .2-8.1 4.5-.1 4.3 2.4 3.1 2.5 3.1.1 0 5.8-.7 5.8-.7l-.2-6.9z"/><path fill="#00F" stroke="#000" stroke-width=".5" d="M443.1 139.8s-9.9-.1-9.4 4.3c.6 4.3 3.1 3.5 3.1 3.5l4.8-.4 1.5-7.4z"/><path fill="#FFF" stroke="#000" stroke-width=".5" d="M448.7 139.4l-5.7.5s-3.5.5-3.3 3.8c.2 3.3 3.5 3.4 3.5 3.4l5.6-.3-.1-7.4z"/><path fill="#5E0043" stroke="#000" stroke-width=".5" d="M464 187.2s4.1-6.1 5.9-5.4c1.5.5.4 5.2-.4 5.7l-5.5-.3zM435.7 188.3c-1.3-1.8-3.2-6.8-4.9-5.4-1.5.5-.4 5.2.4 5.7l4.5-.3z"/><path fill="none" stroke="#000" stroke-width=".5" d="M438.4 176.2s8.1 5 10.7 5.1c2.6.1 11-6.4 11-6.4"/><path fill="#5E0043" stroke="#000" stroke-width=".5" d="M439.2 156.8l1.5-1.9 7.7 3.9 7.9-3.5 1.5 1.6-8.8 6.2-9.8-6.3z"/><path fill="#474747" stroke="#474747" stroke-width=".5" stroke-linejoin="round" d="M433.1 156.7c.6.8 5.6 6.9 6.5 11.9.9 5-.5-6.9-.5-6.9s6.2 3 6.4 5c.2 1.9 3-.1 3.1-.5l-17.9-11.6 2.4 2.1z"/><path fill="#474747" stroke="#474747" stroke-width=".5" stroke-linejoin="round" d="M463.6 156.3s-6.5 8.6-5.7 17.9c-1.3-4.5-.3-11.9-.3-11.9l-1.4.9s-1.5 6.3-3.4 7.3c-.3-.8-.3-1-.3-1s-2 2.6-2.4 2.8c-.4.3.1 8.7.1 8.7s.7 6.1 1.4 6.1c-.9.4-2 1.1-2 1.1l-.8-16.3 1.8-1.8s2.4-3 2.6-5.9c-1.1.9-2.3 1.2-2.3 1.2s-.3 4.1-1.3 4.7c-1 .6-1 1.7-1 1.7l-.2-5.4 15.2-10.1z"/><path fill="none" stroke="#000" stroke-width=".5" stroke-linecap="round" d="M448.8 166.2L450 192"/><path fill="none" stroke="#000" stroke-width=".5" d="M432.9 178.5s3 1.7 4.1 7c9.7-.7 12.7 2.7 12.7 2.7s7.9-3.8 11.6-3.1c1.3-2.7 5-6.2 5-6.2"/><path fill="#B4B6B9" stroke="#000" stroke-width=".5" d="M428.9 153.3l19.9 13 17.9-12s3.7-2.1 3.4-3.5c-.3-1.5-1.6-.9-2.3-.6-.6.3-18.8 13.1-18.8 13.1L429.8 151s-1.4-.5-1.7.5c-.2.8.6 1.3.8 1.8z"/><path fill="#474747" stroke="#474747" stroke-width=".5" stroke-linejoin="round" d="M464.4 149.9s-5.1-2.2-5.1-.3c0 1.9.1 2.1 1 3.3.8 1.2-.6 2-.6 2s-.2-.5-.5-1.3-3-1.4-3.3-2.4c-.2-1 .6-2.5-1.1-2.7-1.6-.2-3.2.7-3.6 2.5-.3 1.9-2.4 6.2-2.4 6.2l.3-9.9c3.6.3 10.2 1 15.4 1.6-1.5-.2.6.1.5.6-.1.5-.6.5-.6.4zM446.4 147.4c-.9 0-5.5.5-6.6 1.2-1.2.7 1.9 1.7 1.5 2.6-.4.9-.4 2.7-1.9 2.4-1.4-.4-6.3-2.8-6.4-3.6-.1-.8-1.2-.9-1.2-.9s14-1.8 14.6-1.7z"/><path fill="none" stroke="#000" stroke-width=".5" d="M448.6 146.3v12.2M439.2 131.9s-5.6 9.1-5.7 9.3"/><linearGradient id="d" gradientUnits="userSpaceOnUse" x1="48.551" y1="278.38" x2="56.137" y2="278.38" gradientTransform="matrix(.6376 0 0 -1.1434 437.732 453.996)"><stop offset="0" stop-color="#474747"/><stop offset="1" stop-color="#F50"/></linearGradient><path fill="url(#d)" stroke="#000" stroke-width=".5" d="M449.5 131.6s2.4 3.3 2.2 4.3c1 .8 2.1 3.9 2.1 3.9"/><path fill="none" stroke="#000" stroke-width=".5" d="M458.9 131.1s-5.2 7.4-5.1 8"/><path d="M432 95.9c-.1.4-.8.6-1.5.4-.7-.2-1.2-.7-1.1-1.1.1-.4.8-.6 1.5-.4.8.2 1.2.7 1.1 1.1zM434.1 95.7c.1.4.8.6 1.5.4.7-.2 1.2-.7 1.1-1.1-.1-.4-.8-.6-1.5-.4-.7.2-1.2.7-1.1 1.1z"/><path fill="#FF7000" stroke="#000" stroke-width=".5" stroke-linejoin="round" d="M495.6 249.1s-1.9.4-1.9.5c.1.2-5.7.4-5.8.2-.1-.2-.9 1-.9 1l.9-.5s1.4 1.5 1.8 1.3c.4-.1-.2.5-.1.7.1.1.5-.2.5-.2l9.5-.2-4-2.8z"/><path fill="#FF7000" stroke="#000" stroke-width=".5" stroke-linejoin="round" d="M499.1 252l-7.7.2s-1.9 1.8-2.1 2.2c-.1.4 1.3.5 1.3.5l.4 1.5 1-.4s6.6 1 12.6-.4c3-1.1 3.6-2.3 1.4-3.1-2.1-.7-6.9-.4-6.9-.5z"/><linearGradient id="e" gradientUnits="userSpaceOnUse" x1="167.895" y1="-128.57" x2="145.162" y2="-107.384" gradientTransform="matrix(2.2054 0 0 -.3305 153.952 225.59)"><stop offset="0" stop-color="#d5dfff"/><stop offset="1" stop-color="#FFF"/></linearGradient><path fill="url(#e)" stroke="#000" stroke-width=".5" d="M472.6 267.9l13.9-.6-2.6-2.2 37.6-1.5-1.3-3-42.1 1.7 5.1 2.4-11.4.3.3 1.2-3-.1c.1-.1 3.4 1.2 3.5 1.8z"/><linearGradient id="f" gradientUnits="userSpaceOnUse" x1="96.384" y1="196.392" x2="90.79" y2="207.707" gradientTransform="matrix(.7628 0 0 -.9557 415.073 401.254)"><stop offset="0" stop-color="#d5dfff"/><stop offset="1" stop-color="#FFF"/></linearGradient><path fill="url(#f)" stroke="#000" stroke-width=".5" d="M488.2 191.1c-1.1-.6-6-1.2-11.4 2.3l.2 12.5s7.9-4.3 11.8-3.3c-.1-3.9-.1-8.9-.6-11.5z"/><path fill="none" stroke="#000" stroke-width=".5" d="M411.4 229l-32.8 32.5m47.4-32.3l-26.6 35m25.4-44.1l-35.5 43m-1.1-.6l3.4-4m40-16.8l-13.8 19m-.6 2.5l.4 7.2m20.3-22.1l-14.6 18.3m12-1.4l5.9-9.7m-3.7-2l-7.1 8.1m5-15.6l-4.9 5.9m-1.4-14.6s-14.8 21.7-14.6 23.5m13-26.4c-.4.2-12.8 16.7-12.8 16.7m-.7 5.3l-2.3 2.7m-2.8 4.2l-3.4 4.5"/><path fill="#8A9396" stroke="#2B2B2B" stroke-width=".5" d="M409.8 179s-1 3.2 0 4.7 7.3 14.4 7.3 14.4 4.3-5.3 5.9-5.5c1.6-.1.9 13.8.9 13.8s-2.6 2.4-4.2 2.3c-1.6-.1 3.9 5.5 3.7 10.2-.1 4.7-7.2 28.3-9.8 28.7-2.6.4 1.1-4.3 1-5.6-.1-1.3-.9-.4-1.4-1.9-.6-1.4.9-3.6.6-5-.3-1.4-1.6-1.1-1.7-2.2-.1-1 .9-1.3.7-2.4-.1-1.1-1.7-.9-1.6-1.9.1-1 .3-.6.1-2.4-.1-1.9-.4 1.3-2 1.4-1.6.1-2.9 3.7-2.9 3.7s-3.2 4.5-6.3 2.4c1.9 4 .4 5.7-.3 5.9-.7.1.6 3.2-1.1 3.3-1.7.1 1.3 6.8-.7 7.3 2.2 1 .4 2.3.4 2.3s-5 .4-3.9 6.9c-14.6-5.2-21.8-14.1-21.7-23.1.1-9 3-17.2 10.1-20.3 2-7.5 5.5-15.5 5.5-15.5s-.6-3.3-.1-5.5c.4-2.2 2.4-4.3 2.4-4.3s-.3-5.2-.1-7.8c.1-2.6 1.1-3.7 1.3-5.2.1-1.4-.4-8.8 1-10.1 1.4-1.3 4.2-1.1 5.6-2 1.4-.9 3.3-2.4 5.2-2.3s3.4 1.4 3.4 1.4 7 0 7.5 2.7c.4 2.7-1.4 3.7-1.4 3.7s.9 4.3-3.4 7.9z"/><path fill="#CECFCF" stroke="#2B2B2B" stroke-width=".5" d="M403.5 169c.2.4-.3 1.1-1.1 1.6-.9.5-1.7.5-2 .1-.2-.4.3-1.1 1.1-1.6s1.8-.5 2-.1z"/><path d="M402.3 169.7c0 .3-.2.5-.5.5s-.5-.2-.5-.5.2-.5.5-.5c.3.1.5.3.5.5z"/><path fill="none" stroke="#2B2B2B" stroke-width=".3" d="M412.8 174.5s1.7 7.8-.3 13.2M413.4 171.1s3.4 4.5 3 10.1M413.7 170.1c.1 0 2.9 2.4 2.7 4.1M414.3 169.1s1.9 1.3 2.3 2.6"/><path fill="none" stroke="#000" stroke-width=".5" d="M413.5 168.3s-6.7 10.9-5.8 17.7"/><path fill="none" stroke="#2B2B2B" stroke-width=".3" d="M413.9 168s-8.9 5.3-10.5 22.5"/><path fill="none" stroke="#000" stroke-width=".5" d="M412.9 171.2l-3.5 2.6"/><path fill="none" stroke="#2B2B2B" stroke-width=".3" d="M400.1 191.5S405 171 413.8 168"/><path fill="none" stroke="#2B2B2B" stroke-width=".5" d="M408.8 165s-2 .5-2.3 1.4c-.3.8-1.4 1.6-2.1 1.4-.6-.3-1.8-1.3-1.8-1.3M414.4 167.8s-5.5-1.6-7.4 1.1c-1.9 2.7-1.4 4.2-.5 4.5"/><path d="M415.3 167.7c0 .6-.5 1.2-1 1.2s-1-.5-1-1.2c0-.6.5-1.2 1-1.2s1 .5 1 1.2z"/><path fill="#2B2B2B" stroke="#2B2B2B" stroke-width=".5" stroke-linejoin="round" d="M419.5 209c-.8-.1 4 6.4 3.8 8.8-.1 2.4-.2 2.4-.2 2.4s0-1.4-1.1-3.7c-1.1-2.3-.4-4.9-7.6-10.8-1.8-3.6 3.5 2.2 4.6 1.3.6-.5 0-2.9-.7-5-.6-.9-6.3-8.7-8-9.1-1.8-.5 1.4-.9 3.3 1 1.3 1.2.7-.5.1-1.8l4.6 9.8c-.6-1.8-1.2-3.4-1.1-3.4 0 0 4.7-5.9 5.8-5.7 1.1.2.8 13.7.8 13.7s-3.5 2.6-4.3 2.5zm-22.3-32.5s.3.6 1 1.7 3.1.9 3.1.9.7 1.2 3.5 1.8 5-2.2 5-2.2 1.4-.4 2.5-3.4c-2.1 1-5.2-1.7-5.5-1.8-.3-.1-1.5 0-1.5 0s-3.7 2.6-5 3.3-1.3-3.8-1.3-3.8-1.5 2.7-3 2.3c-1.4-.4 1.5-3.3 1.5-3.3-2.1.9-2.4 4.6-2.1 5.2.4.6 1.8-.7 1.8-.7zm2 5.2c-.5-.7-1-.2-1-.2s-.5 1.9 1.4 4.5c2.7 1.8 7.2 1 4.5 0s-4.9-4.3-4.9-4.3zm14.5 10.4c-.3-.7-.6-1.3-.6-1.3l.6 1.3zm3.9 70.7c1.4-.3 3.7-1.7 3.7-1.7s-5 1.1-7.3-.6c-2.4-1.7-12.9-8.4-15.3-7.7-.3 0-.9.1-1.5.5 1.3-2.5 1.2-2.9 1.2-3l-2.2-4.4s-.7-2.8-2.5-3.6c-1.9-.8-4.3-.6-4.4.3 0 .9 4 2.2 4.2 2.7.3.5.1 1.4-.2 1.4-.3 0-2.1-.6-3-.4-.9.2-1.4 1.4-2.8 1-1.3-.3-2.5-4.6-1.9-5 .5-.4-1 .8-1.3-.3s.4-4.6-.1-5-3-1.9-3.1-2.2c0-.3.1-17.2 14.2-3.2-6-7.2-8.4-6.4-9.5-6.4-.8 0-6.3.5-7.7 7.5-1.4 7-3 2.6-3 2.6s-.3 3 1.2 3.9-.7 3.4-.7 3.4-2.6-6.4-2.2-9.2c-.5 2.2-.5 7.8 2.8 13.9 3.9 4.1 7.6 7.9 17.3 12.2.4-.5.7-1 1-1.5 0 .6.1 1.3.2 2 13.7 7.2 27.1 3.5 27.1 3.5s-5.6-.4-4.2-.7zm-25.9-63c.7 1.3 4.2 6.6 4.9 6.7.7.2.3 3.1.3 3.1s3.1 3.1 3.8 3.3c.8.2 1.6.7 1.5 1.5-.1.7-3.4 4.7-3.4 4.7s-3.5 1.9-3.6 2.9c0 1 .9 3.2 3.7 3.9 2.8.7 10.4.1 10.7-.5.4-.6 1-4.5.7-4.9-.3-.4-2.1-1.6-3.1-1.4-.9.2-1.8.9-1.7 1.1s-1.3.9-1.3.2 2.8-3.8 3.1-3.5c.3.3 4.2.6 5 2.6.7 2 .7 3.4 2.8 3.2 2.1-.2 5-2.1 5.2-6.1.3-4-2.3-6.6-3-7-.6-.4-2.8-1.7-3-2.3-.2-.6-.6-2.6-.3-3.1-3.7-.7-3.6-3.9-6.2-6-1.3-1.1-8-4.7-10.4-4.5-2.4.3-3.1-.3-3.5-.6s-1.3.1-1.1 1.4-1.8 4-1.1 5.3zm-15.7 25c-.2.6-.3 3.1-.3 3.1 5.3-9 14.4-6.1 22 1.3 2 2 4.1 2.6 5.1 2.9 1 .3 3.1-.3 3.1-.3l1-1.9s-.7.5-3.3.9c-2.5.4-6.4-4-8.3-5.9-7.3-7.2-15-4.1-18.6-3.2l-1.9 4.3c.1 0 1.4-1.7 1.2-1.2zm24.6 2.4c-.6.3 1.5 1.8 3.7 2.2 2.2.5 6.2-2.7 6.2-2.7l.7-.9.3 1c1.5-.3.9-1.1-1.2-3.2l-.4 1.5.2 1.1s-1.5 1.2-4.2 1.2c-2.5 0-4.9-.5-5.3-.2zm-15.8 5.5c-.5 1 .3 1.8 3.3.3 1.1-.5 3.5-.5 3.5-.5.6-1.1-5.9-1.6-6.8.2zm11 7.5c1.2 2 2.1 4.2 2.1 4.2l.4-1.5 1.1-.3.1-2.8.5-.6c0-.1-.2-3.5-1.5-4.9s-3-1.4-3.7-1.2c-.7.2 2.7 1.7 3.1 2.7.3 1 1.5 3.8 1.2 4.4-.3.7-.9-1.9-3-2.7s-5-.3-4.4.6 2.9.1 4.1 2.1z"/><path fill="#8A9396" stroke="#2B2B2B" stroke-width=".5" stroke-linejoin="round" d="M389.1 250.2s2.8.3 3.6 1.8c.8 1.5 1.1 3.7 1.1 3.7.5-.9.7-1.8 1.6-2.5.9-.7 1.6-.8 1.6-1.3s-3-3.7-4.5-3.8c-1.5-.2-4.1 1.6-4.1 1.6s-.5.8.7.5z"/><path fill="none" stroke="#8A9396" stroke-width=".5" stroke-linecap="round" d="M395.6 257.7s7.4 3.4 19.5 3.6"/><path fill="none" stroke="#2B2B2B" stroke-width=".5" stroke-linecap="round" d="M420.2 223.4s-.6 6.2-5.4 18.4"/><path fill="none" stroke="#2B2B2B" stroke-width=".5" d="M419.3 227.2s-1.4 4.4-5.4 7.8"/></svg>
