<svg xmlns="http://www.w3.org/2000/svg" width="240" height="160" viewBox="0 0 240 160"><path fill="#C62139" d="M0 0h240v160H0z"/><path fill="#00297B" d="M7.5 7.5h225v145H7.5z"/><path fill="#C62139" d="M120.1 36.4S90.9 56.3 90.9 79.8s29.2 43.9 29.2 43.9 29-18.8 29-43.9c0-25.2-29-43.4-29-43.4z"/><path fill="#66AFEB" d="M144.7 87.5c.6-2.5 1-5.1 1-7.8 0-22.5-25.6-39.2-25.6-39.2s-26 17.3-26 39.2c0 2.6.4 5.2 1 7.7l49.6.1z"/><path fill="#007BDE" d="M119.9 119.3S140 106 144.7 87.4H95.1c4.8 18.3 24.8 31.9 24.8 31.9z"/><path fill="#9C8431" d="M145.6 82.3c-4.4 3.1-29.1 1.6-29.1 1.6l-1.4 3.5h29.6c.4-1.4.3-1.3.9-5.1z"/><path fill="#FFF100" d="M118.6 104.5c-.4-2.6-11.9-5.4-18.1-5.2 1.9 3 4.1 5.8 6.3 8.2 3.1-3.3 11.9-2.1 11.8-3zm23.4-9.8c-1.5.1-4.1.3-6 1.2-2.6 1.4-8.5 2.9-11.2 2.1-2.6-.8-6.8 1.6-6.3 2.1.8.8 6.9-.1 6.9 5.3 0 4.5-7 2.5-9.8 4.4-1.7 1.1-2.8 2.4-3.5 3.1 4.3 4 7.7 6.3 7.7 6.3 9.1-5.8 18.1-16.2 22.2-24.5z"/><path fill="#009270" d="M126.3 61.1c-.3-2.1 7.2-1.6 8.8-.9-2.2-4.3-11.3-2-11.3-2 .1-.1 7.7-6.2 7.8-6.3-4.7.1-7.7 2.7-9.3 5.3.2-8.6-4.7-9.6-5.9-10.8.2.6 3.8 10.9 3.3 11-1.3-1.6-4.6-5.3-7.4-5.1.8 1 2.3 4.9 6.4 7.7-1-.2-4.2-2.4-9.7-1.3-5.5 1.1-6.6 4.5-6.6 4.5 2.5-1.2 11.8-2.1 13.3-2.3 0 0-7.3 2.4-8.3 8.3 3.7-4.5 8.1-6 9.8-6-4.1 5.4-3 6.9-2.3 11.3.5-1.9 3.2-11.3 5.2-11.2 1.8.1 5.6 9.1 6.1 10.3-.1-1.4 1.1-6.2-3.1-10.5 11.9 4.7 10.5 4.7 11.1 6.2 0 .2 1.2-6.6-7.9-8.2z"/><path d="M110.8 93.5h1.1V82.1h-1.1v11.4z"/><path fill="#7B4800" d="M130.4 103.6c-1.6-.1-7.3-4.3-9.3-11.8-2.5-9.7-1.4-28.4-1.4-28.4-1 0-1.3-1.3-.4-1.8-1.7-.8.6-3.1 1.3-1.3 1.1-1.1 2.7.7 1.3 1.6 0 .6-.5 1-1 1-1 0-.2 21.7 1 26.5 2.1 8.1 8.1 11.2 9.5 11.9.9.6.6 2.4-1 2.3zm-17.3-8.5v.7c.7-.1 1.1-.2 1.1-.2.5 1.5-9.3 1.6-9 0 0 0 .4.1 1.1.2v-.6c-2.3-.3-4-1-3.7-1.9 4.2.3 9.9.4 14.2-.4.3 1.1-1.4 1.9-3.7 2.2zm-.7.1c-1.7.2-3.6.2-5.3 0v.6c1.9.2 3.4.2 5.3 0v-.6z"/><path fill="#FFF" d="M106.4 82.7s6 2.3 8.4 10.1c-5.8-1.2-7.2.1-10.4.1 0 .1 3-4.3 2-10.2z"/><path fill="#C62139" d="M107.3 76.8h-1.1c-.1-.8-.6-1.2-1.3-1.2-1.2 0-1.5 1.4-1.5 2.6 0 1.8.8 2.4 1.5 2.4.8 0 1.3-.7 1.4-1.5H105v-1.2h2.3v3.8h-.8l-.1-.9c-.4.7-.8 1.1-1.7 1.1-1.2 0-2.5-1-2.5-3.6 0-1.9.8-3.8 2.6-3.8 1.5-.1 2.3 1 2.5 2.3zm5.3 2.1v-4.3h1.2v4.3c0 .9.1 1.6 1 1.6s1-.7 1-1.6v-4.3h1.2v4.3c0 1.7-.5 2.9-2.2 2.9-1.8 0-2.2-1.2-2.2-2.9zm12.2-4.3l-1.9 7h1.2l.4-1.4h2l.4 1.4h1.2l-1.9-7h-1.4zm.6 1.6l.7 2.8h-1.4l.7-2.8zm9.7 3.9l1-5.5h1.6v7h-1.1v-5.9l-1 5.9h-1.1l-1-5.9v5.9h-1.1v-7h1.7l1 5.5z"/></svg>
