<svg xmlns="http://www.w3.org/2000/svg" width="240" height="160" viewBox="0 0 60 40"><path fill="#0073CF" d="M0 0h60v40H0z"/><path fill="#FFF" d="M0 13.3h60v13.3H0z"/><path fill="#0073CF" d="M32.1 19.3l-1.3.9.5 1.5-1.3-.9-1.3.9.5-1.5-1.3-.9h1.6l.5-1.5.5 1.5h1.6zm8.2-2.6l-.5 1.5 1.3-.9 1.3.9-.5-1.5 1.3-.9h-1.6l-.5-1.5-.5 1.5H39l1.3.9zm1.3 5.7l-.5-1.5-.5 1.5H39l1.3.9-.5 1.5 1.3-.9 1.3.9-.5-1.5 1.3-.9h-1.6zm-22.7-8.2l-.5 1.5h-1.6l1.3.9-.5 1.5 1.3-.9 1.3.9-.5-1.5 1.3-.9h-1.6l-.5-1.5zm.5 8.2l-.5-1.5-.5 1.5h-1.6l1.3.9-.5 1.5 1.3-.9 1.3.9-.5-1.5 1.3-.9h-1.6z"/></svg>
