<svg xmlns="http://www.w3.org/2000/svg" width="240" height="160" viewBox="0 0 120 80"><path fill="#171796" d="M0 0h120v80H0z"/><path fill="#FFF" d="M0 0h120v53.3H0z"/><path fill="#F00" d="M0 0h120v26.7H0zM60 60.7c8.6 0 15.6-7 15.6-15.6V26.7H44.5v18.5c0 8.5 7 15.5 15.5 15.5z"/><path fill="#FFF" d="M75 26.5l3.6-8.3-2.8-4.5-4.6 1.7-3.2-3.6-4.3 2.4-3.7-3.1-3.8 3.1-4.2-2.4-3.2 3.7-4.6-1.7-2.8 4.5 3.6 8.3c4.6-2.1 9.7-3.2 15-3.2 5.3-.2 10.4 1 15 3.1zM60 60.4c8.4 0 15.3-6.9 15.3-15.3V27H44.7v18.2c0 8.4 6.9 15.2 15.3 15.2z"/><path fill="#F00" d="M51.2 27.5h-5.9V34h5.9v-6.5zm0 12.9h5.9V34h-5.9v6.4zm-5.9 4.8c0 .6 0 1.2.1 1.7h5.8v-6.5h-5.9v4.8zm17.6-4.8H57v6.5h5.9v-6.5zm0 12.9h5.9v-6.4h-5.9v6.4zm5.9 3.6c1.3-1 2.4-2.2 3.4-3.5h-3.4v3.5zm-17.6-3.6h5.9v-6.4h-5.9v6.4zm-3.4 0c.9 1.4 2.1 2.5 3.4 3.5v-3.5h-3.4zM61 59.8c.6 0 1.3-.1 1.9-.3v-6.2H57v6.2c.6.1 1.3.2 1.9.3H61zm13.6-12.9c.1-.6.1-1.2.1-1.7v-4.7h-5.9V47h5.8zm-11.7-6.5h5.9V34h-5.9v6.4zm0-12.9H57V34h5.9v-6.5zM74.7 34v-6.5h-5.9V34h5.9z"/><path fill="#171796" d="M56.2 14.6L52 12.2l-3.2 3.6 2.1 8.3c2-.5 4-.8 6-1l-.7-8.5zm15 1.2L68 12.2l-4.2 2.4-.7 8.5c2.1.2 4.1.5 6 1l2.1-8.3z"/><path fill="#0093DD" d="M48.8 15.8l-4.6-1.7-2.5 4.1c1.3 2.9.5 1.2 3.5 7.8 1.8-.8 3.8-1.5 5.8-2l-2.2-8.2zm15-1.2L60 11.5l-3.8 3.1.7 8.5c1-.1 2-.1 3-.1s2 0 3.1.1l.8-8.5zm11 11.5l3.5-7.8-2.5-4.1-4.5 1.7-2.1 8.3c1.9.4 3.8 1.1 5.6 1.9z"/><path fill="#FFF" d="M70.4 18.8c2.3.6 4.5 1.3 6.6 2.3l-1.3 3c-1.9-.9-4-1.6-6.1-2.1l.8-3.2z"/><path fill="#F00" d="M50.4 22c2.1-.5 4.2-.9 6.4-1.1l-.2-2.2c-2.3.2-4.5.6-6.7 1.1l.5 2.2zm-1-4.1c2.3-.6 4.7-1 7.1-1.2l-.2-2.1c-2.5.2-5 .6-7.4 1.2l.5 2.1zm26.5 5.8l.9-2c-2.1-.9-4.3-1.7-6.5-2.3l-.5 2.1c2.1.5 4.1 1.2 6.1 2.2z"/></svg>
