<svg xmlns="http://www.w3.org/2000/svg" width="240" height="160" viewBox="0 0 240 160"><path fill="#CF142B" d="M0 0h240v160H0V0z"/><path fill="#F9DD16" stroke="#000" stroke-width=".5" d="M125.2 114.7c0-.2.2-2 0-2L123 110s3.2.6 3.2.4l1.3-3 1.6 3.5 3 1.3-2.2 1.8.5 3.6-2.2-2-2.3.2-.5-1z"/><path fill="#FFF" stroke="#000" stroke-width=".6" d="M108.3 68.8c-2 1-10 10-11 11.6-1 2-2.7 4.7-4.5 6.4-2 1.4-3 3.5-2.8 5.3 0 2.6 1.3 4.2 2.4 6 .6.7 1.5 1.2 2.4 1.2 2 .3 2 1 3 1.2 3.6 5 9 8.7 13 11.6 2.5 1.3 4.3 2.7 4.8 3.3 1.2 2.2 1 4.4 1 5.3l-3 11c-.5 3 2 2.4 2.2 1.8 1.2-1.5 3-.4 5.4-9.3l3.5-4.5 1.3-.5c2-2.5.5-4-.6-4.3l-2.6-1-3-3c-1.4-4-8.2-12.7-9.8-14-1-1-1.6-1.5-2.7-2-1.6-1-2-1.2-3-1.5-1-.3-.4-1.2.2-1.6 5.3-3 9.7-6.2 15-9.6l.6-.5c-.4-3.5-1-7-1.7-10.6l-8.6-3c-.5.2-.8.4-1.2.8h-.2z"/><path fill="#F9DD16" d="M115.6 124.8c0-.2 5.3-1.2 5.3-1.2l-.6 2-5.3 1.6.6-2.4z"/><path fill="none" stroke="#000" stroke-width=".5" d="M101.5 104.5c1-2.8 4-5 6-5.6"/><path fill="none" stroke="#000" stroke-width=".6" d="M115.4 124.8l2.3-.6 1.4-.4c.6 0 1-.2 1.5-.3l1.3-.4m-7.4 5.2l.7-.5 2-.6 1.2-.3 1.3-.3 1.2-.4"/><path fill="none" stroke="#000" stroke-width=".5" d="M116.6 105.3c.2 0 0 0-.3.4 0 .4-1 1-2 1H113m3.7 14.5h1.5l1.2.2h1.3l1.2.2h1-1 1m-8.8 9l.5-.5 1.6-.4 1.3-.5h1l1.2-.5m1.6-11.3c0 .6.2.8.3 1 .2.4.7.7 1.6 1l.8.3c.3 0 .4 0 .5.2M90.6 94c-.2 0 0 0 .4-.4l.7-.7m4 6.4s4.4-2.2 5-2.7c.2-.3.4-.5 1-.8l.6-.6c.2-.3.5-.5.5-.7.3-.2.2-.5.4-.7l.4-1m5.6 3.2v1c0 .5-.6 2-1.3 2.2"/><path fill="none" stroke="#000" stroke-width=".5" d="M101.3 96.2l1.8.5c1.5.5 4.4 2.3 4.6 2.6l1 .7.8 1 .7.8c1 .7 3.3 5.5 3.3 6l.4.7.5.7.5 1c.3 0 .5.4 1 .6l.8.6 4.6 2.8c.5.3 1.7 1.5.8 2.3l-1 1c-.2.2-.6.3-1 .4-1.8.4-2.7.3-3 .3h-.5M92.3 87c.5.3.3 0 .8.4.4 0 .6 0 1 .3.4 0 1.3.3 1.7.7.3.3.5.5 1 .7.4.4.7.5 1.2.7.3.2.8.3 1.3.4h2-1 1"/><path fill="#FFE606" stroke="#000" stroke-width=".5" d="M92.2 92.3l3.2.2H98c1.2-.2 1.5-.6 1.8-1 .4-.8.8-1.2 1.2-1.7.6-.4 1.5.6 1.5.6 2 2 .4 4.5.3 4.6-1 1-1.3 1-2 .4L99.4 94c-1-.4-3.2 0-3.2 0l-1.2.4c-.4.2-.8.7-1.7 1-1 0-1.2 0-1.7-1-.5-.8-.3-2 .6-2z"/><path fill="#F9DD16" stroke="#000" stroke-width=".5" d="M152.5 45.4l-1.6.8s-1.4 3.7-1.5 3.6l-1-3-3.5.4 2.5-3.2-.3-3.4 2.7 1 2.8-2-.7 2.8 1.5 2-.8 1h-.2z"/><path fill="#FFF" stroke="#000" stroke-width=".6" d="M121 82.7c1.8 1.3 13.7 3.7 15.4 4 2.3-.2 5.4 0 7.8 1 2.2 1 4.5 1 6-.3 2.2-1 3-3 4-4.8.2-1 .3-2 0-2.8-.8-1.8-.4-2-.6-3.2 2.7-5.6 3.2-12.2 3.7-17 0-3 .3-5 .5-6 1.4-2 3.4-3 4.4-3.3l11-2.8c3-1 1-3 .4-3-2-.2-1.8-2.2-10.8 0l-5.7-.8-1-1c-3.2-.4-3.7 1.5-3.5 2.8l.4 2.7-1.2 4c-2.8 3.3-7 13.4-7.3 15.5 0 2-.7 1.6-.5 3.3 0 1.4-.2.5.3 3.4 0 1-1 .8-1.6.5-5.2-3.3-10-5.4-15.5-8.4l-1-.5-8.3 7 1.5 9c.5.3 1 .4 1.4.5v.2z"/><path fill="#F9DD16" d="M166 49l-3.5-4.3 2-.3 4 3.8-2.4.8z"/><path fill="none" stroke="#000" stroke-width=".5" d="M155.3 71c-3 .5-6.2-1-7.7-2.3"/><path fill="none" stroke="#000" stroke-width=".6" d="M166.2 49l-1.7-1.6-1-1-1-1.2-1-1m8 4l-.7-.2-1.4-1.3-1-1c-.4-.3-.6-.4-1-1-.3-.2-.5-.5-1-.7"/><path fill="none" stroke="#000" stroke-width=".5" d="M148.6 57.6c0-.2 0 0 .5 0 .4 0 1.5.5 2 1.2l.6 1v.5m11-10.4l-.2-.4-.5-1-.5-1.2-.5-1.2-.5-1.2-.4-1 .5 1-.4-1m12 3.5s-.4 0-.7-.2l-1.3-1-1-1-.8-1-1-.6m-10.4 4c.6 0 .6-.3 1-.5v-1.8l-.3-1V44m-6 42v-.2c0 .2 0 0-.4 0s-.4-.3-1-.4m4-6.6s-4.3-2.8-5-3l-1-.5c-.4 0-.6-.2-.8-.3l-1-.2c-.4 0-.6.2-1 0l-1 .3m.2-6.6l1-.4c.3-.2 1.7-.4 2.4 0"/><path fill="none" stroke="#000" stroke-width=".5" d="M148.3 75.4l-.5-2c-.2-1.4 0-4.7 0-5 0-.4 0-1 .2-1.3 0-.3.2-.6.4-1l.5-1c0-1.2 3-5.6 3.3-5.8l.5-.7c0-.3.3-.5.5-.8l.4-1 .2-1v-1.2l.2-5.4c0-.4.5-2 1.7-1.7l1 .4 1.2.6c1.3 1.3 1.6 2.2 1.8 2.6l.2.2m-15.5 36.3c0 .2 0 0-.2-.3l-.2-1c0-.5-.3-1-.2-1.2v-1c.2-.3.3-.6.3-1v-1.4c0-.4-.2-.7-.3-1l-.5-1.3-.5-1 .5 1-.5-1"/><path fill="#F9DD16" stroke="#000" stroke-width=".5" d="M149.2 85.3c-.6-1-1.3-3-1.3-3l-1.4-2c-.7-1.2-1.4-1.2-1.8-1.2-1 0-1.3 0-2-.2-.8-.3-.3-1.6-.3-1.6.7-3 3.7-2.7 4-2.6 1.3.4 1.5.5 1.2 1.5-.4 1-.5 1.4-.5 2 0 1.2 1.4 3 1.5 3l1 .7c.4.4 1 .4 1.6 1 .5 1 .5 1.3.2 2-.5 1-1.6 1.3-2.2.5z"/><path fill="#F9DD16" stroke="#000" stroke-width=".4" d="M77.6 58.5l1.6 1 3.7-1s-2.2 2.7-2 2.8l2 2.5-3.8-.3-2.7 2L76 63l-3.4-1.2 2.8-1 1-2.2h1.2z"/><path fill="#FFF" stroke="#000" stroke-width=".6" d="M126 64.5c0-2.2-4.3-13.5-5-15-1.5-2-3-4.6-3.6-7-.4-2.5-1.6-4.4-3.5-5-2.2-1-4.4-.6-6.3-.5-1 .3-2 .8-2.3 1.6-1 1.5-1.6 1.4-2.4 2-6 1-11.8 4-16.2 6.3-2.3 1.5-4.3 2.5-5.2 2.6-2.5 0-4.3-1-5.2-1.7-2.7-2.7-5.5-5.2-8.4-7.8-2.5-1.8-3 .8-2.6 1.2.8 1.7-1 2.8 5.8 9 .8 2 1.6 3.6 2.5 5.3v1.5c1.2 3 3.2 2.2 4 1.4.8-.5 1.4-1.2 2-1.8l4-1.3c4.4.6 15.2-1.4 17-2.3 1.6-1 1.8-.2 3.2-1.3 1-1 .4-.3 2.6-2.2.6-.5 1.2.3 1.3 1 0 6.2 1 11.5 1.5 17.6v1l10.3 3.2 6.7-6.2-.4-2z"/><path fill="#F9DD16" d="M73 45.3c.3 0-1.3 5.2-1.3 5.2L70.2 49l1-5.5 2 1.8z"/><path fill="none" stroke="#000" stroke-width=".4" d="M97.6 42c2 2.2 2.5 6 2 7.8"/><path fill="none" stroke="#000" stroke-width=".6" d="M73.2 45c0 .5-.4 2-.5 2.4l-.3 1.4-.4 1.4-.3 1.4m-1-9v1s0 1.3-.2 1.8l-.2 1.3L70 48l-.3 1.2"/><path fill="none" stroke="#000" stroke-width=".4" d="M90 55c0 .2 0 0-.3-.4-.2-.3-.4-1.4 0-2 0-.4.3-1 .5-1.2 0-.2.2-.3.2-.3m-14.6-3.3l-.2.3-.6 1-.6 1-.7 1.2-.6 1-.4 1 .5-1-.4 1m-4-12l.3.7-.3 1.6-.2 1.2-.2 1.2c0 .4 0 .7-.2 1m9.3 6.7c-.5-.5-.8-.3-1-.3-.4 0-1 .3-1.7 1l-.5.6-.3.4m38.3-18v.3l.4 1m-7.6.4s0 5 0 5.8c0 .4.3.7.3 1.3l.3 1 .4.8c0 .4.4.4.5.7l.7.7m-5.7 3.6l-1-.5c-.3-.2-1.2-1.3-1.3-2"/><path fill="none" stroke="#000" stroke-width=".4" d="M105 45.7L104 47c-1 1-4 2.8-4.3 3-.4 0-.8.4-1 .4l-1.3.3-1 .3c-1.2.4-6.5.3-6.8.2h-3l-1 .6-1 .5c-.3.3-4.5 2.7-4.7 2.8-.5.3-2 .7-2.5-.4l-.3-1.2c-.2-.3 0-.7 0-1 .3-2 1-2.8 1-3l.2-.4m39-7l-.3.3-1 .7-.7.7c-.2.4-.5.4-.8.5l-1 .5-1.2.7-.8 1-.6 1-.5 1 .5-1-.5 1m3.2 20V68 68l.2-1.6v-3.2c0-.5 0-1-.2-1.6v-1.3c0-.3 0-.7-.3-1.2v-1L113 57l-.2-1.2c0-.5-.3-1-.3-1.4-.2-.2-.3-.5-.3-1l-.4-.8-.4-1-.4-1c0-.4-.3-.7-.4-1l-.3-.5"/><path fill="#F9DD16" stroke="#000" stroke-width=".4" d="M112.7 39.5l-1.6 2.7-1.2 2c-.4 1.3 0 2 0 2.2l1 1.8c.2.7-1.2 1-1.2 1-2.8 1-4.3-1.6-4.3-1.8-.4-1.4-.3-1.6.5-2 1-.2 1.4-.2 2-.5 1-.8 1.5-3 1.5-3l.2-1c0-.6-.2-1.2 0-2 .5-1 .6-1 1.5-1.2 1.2 0 2 .7 1.7 1.7z"/><path fill="#F9DD16" stroke="#000" stroke-width=".5" d="M109 66.8c-.3-.4 8 3 9.2 3 1.6-.4 8.2-6 8.2-6 0 .6.3 2 1 2.3l-7.4 6c.2 3.3-.4 6.8 1.2 10.4h-2c-1.6-1.8-2.2-10-2.2-10l-8.3-3.8c.3-.2.6-1 .4-1.8z"/><path fill="none" stroke="#000" stroke-width=".5" d="M117 75.4l-2 1c-7.5 4-11.5 10-11.6 10.2l-.6 1c-.2.3-.5.5-.6 1l-1 1v.2m21-19.2l2 1.3c7 5 14 5.6 14.4 5.8h1c.4 0 .8 0 1.2.2l1.6.3s-.2 0 0 0"/></svg>
