<svg xmlns="http://www.w3.org/2000/svg" width="240" height="160" viewBox="0 0 60 40"><path fill="#F93" d="M0 0h60v40H0z"/><path fill="#FFF" d="M0 13.3h60v13.3H0z"/><path fill="#128807" d="M0 26.7h60V40H0z"/><path fill="#008" d="M30 14.7c-3 0-5.3 2.4-5.3 5.3s2.4 5.3 5.3 5.3 5.3-2.4 5.3-5.3-2.3-5.3-5.3-5.3zm3 8.9c-.1-.1-.2-.1-.3 0-.1.1-.1.2 0 .3-.2.1-.4.3-.7.4 0-.1-.2-.2-.3-.1-.1 0-.2.2-.1.3-.2.1-.5.1-.7.2 0-.1-.1-.2-.3-.2-.1 0-.2.1-.2.3h-.8c0-.1-.1-.2-.2-.3-.1 0-.2.1-.3.2-.3 0-.5-.1-.7-.2 0-.1 0-.3-.1-.3s-.3 0-.3.1c-.2-.1-.4-.2-.7-.4.1-.1.1-.2 0-.3-.1-.1-.2-.1-.3 0-.2-.2-.4-.3-.5-.5.1-.1.1-.2 0-.3-.1-.1-.2-.1-.3 0-.1-.2-.3-.4-.4-.7.1 0 .2-.2.1-.3 0-.1-.2-.2-.3-.1-.1-.2-.1-.5-.2-.7.1 0 .2-.1.2-.3 0-.1-.1-.2-.3-.2v-.4-.4c.1 0 .2-.1.3-.2 0-.1-.1-.2-.2-.3 0-.3.1-.5.2-.7.1 0 .3 0 .3-.1s0-.3-.1-.3c.1-.2.2-.4.4-.7.1.1.2.1.3 0 .1-.1.1-.2 0-.3.2-.2.3-.4.5-.5.1.1.2.1.3 0 .1-.1.1-.2 0-.3.2-.1.4-.3.7-.4 0 .1.2.2.3.1.1 0 .2-.2.1-.3.2-.1.5-.1.7-.2 0 .1.1.2.3.2.1 0 .2-.1.2-.3h.8c0 .1.1.2.2.3.1 0 .2-.1.3-.2.3 0 .5.1.7.2 0 .1 0 .3.1.3s.3 0 .3-.1c.2.1.4.2.7.4-.1.1-.1.2 0 .3.1.1.2.1.3 0 .2.2.4.3.5.5-.1.1-.1.2 0 .3.1.1.2.1.3 0 .1.2.3.4.4.7-.1 0-.2.2-.1.3 0 .1.2.2.3.1.1.2.1.5.2.7-.1 0-.2.1-.2.3 0 .1.1.2.3.2v.8c-.1 0-.2.1-.3.2 0 .1.1.2.2.3 0 .3-.1.5-.2.7-.1 0-.3 0-.3.1s0 .3.1.3c-.1.2-.2.4-.4.7-.1-.1-.2-.1-.3 0-.1.1-.1.2 0 .3l-.5.5zm-2.2-3.1l-.1.1.7.6 1.9 2.1-2.1-1.9-.6-.7-.1.1.6.8 1.3 2.5-1.5-2.3-.4-.9s-.1 0-.1.1l.4.9.6 2.7-.9-2.7-.1-.9h-.1l.1.9-.4 2.8-.2-2.8.1-.9h-.1l-.1.9-.9 2.7.6-2.7.4-.9s-.1 0-.1-.1l-.4.9-1.6 2.2 1.3-2.5.6-.8-.1-.1-.6.7-2.1 1.9 1.9-2.1.7-.6-.1-.1-.8.6-2.5 1.3 2.3-1.5.9-.4s0-.1-.1-.1l-.9.4-2.7.6 2.7-.9.9-.1v-.1l-.9.1-2.9-.3 2.8-.2.9.1v-.1l-.9-.1-2.7-.9 2.7.6.9.4s0-.1.1-.1l-.9-.4-2.2-1.6 2.5 1.3.8.6.1-.1-.7-.6-1.9-2.1 2.1 1.9.6.7.1-.1-.6-.8-1.3-2.5 1.5 2.3.4.9s.1 0 .1-.1l-.4-.9-.6-2.7.9 2.7.1.9h.1l-.1-.9.2-2.8.2 2.8-.1.9h.1l.1-.9.9-2.7-.6 2.7-.4.9s.1 0 .1.1l.4-.9 1.5-2.3-1.3 2.5-.6.8.1.1.6-.7 2.1-1.9-1.9 2.1-.7.6.1.1.8-.6 2.5-1.3-2.3 1.5-.9.4s0 .1.1.1l.9-.4 2.7-.6-2.7.9-.9.1v.1l.9-.1 2.8.2-2.8.2-.7-.1v.1l.9.1 2.7.9-2.7-.6-.9-.4c0 .2 0 .3-.1.4l.9.3 2.3 1.5-2.5-1.3-.7-.5z"/></svg>
