<svg xmlns="http://www.w3.org/2000/svg" width="240" height="160" viewBox="0 0 120 80"><path fill="#FFF" d="M0 0h120v80H0V0z"/><path fill="#00008B" d="M110 59.9c4.1 0 6.4-3.9 10-5v6.8c-3.6 1.1-5.9 5-10 5-9.5 0-11.9-5.3-19-5.3-4.8 0-7.1 5.3-11.9 5.3-9.5 0-11.9-5.3-19-5.3-4.8 0-7.1 5.3-11.9 5.3-9.5 0-11.9-5.3-19-5.3-4.8 0-7.1 5.3-11.9 5.3-8.6 0-11.6-4.3-17.3-5.2v-6.8c5.7.8 8.7 5.2 17.3 5.2 4.8 0 7.1-5.3 11.9-5.3 7.1 0 9.5 5.3 19 5.3 4.8 0 7.1-5.3 11.9-5.3 7.1 0 9.5 5.3 19 5.3 4.8 0 7.1-5.3 11.9-5.3 7 0 9.4 5.3 19 5.3zm-19.1 8c-4.8 0-7.1 5.3-11.9 5.3-9.5 0-11.9-5.3-19-5.3-4.8 0-7.1 5.3-11.9 5.3-9.5 0-11.9-5.3-19-5.3-4.8 0-7.1 5.3-11.9 5.3C8.5 73.2 5.7 68.9 0 68v6.8c5.7.9 8.5 5.2 17.1 5.2 4.8 0 7.1-5.3 11.9-5.3 7.1 0 9.5 5.3 19 5.3 4.8 0 7.1-5.3 11.9-5.3 7.1 0 9.5 5.3 19 5.3 4.8 0 7.1-5.3 11.9-5.3 7.1 0 9.5 5.3 19 5.3 4.1 0 6.6-3.9 10.2-5v-6.8c-3.6 1.1-6.1 5-10.2 5-9.4 0-11.8-5.3-18.9-5.3zM79 13.7c4.8 0 7.1-5.3 11.9-5.3 7.1 0 9.5 5.3 19 5.3 4.1 0 6.5-3.9 10.1-5V1.8c-3.6 1.1-6 5-10.1 5-9.5 0-11.9-5.3-19-5.3-4.8 0-7.1 5.3-11.9 5.3-9.5 0-11.9-5.3-19-5.3V0H0v40h60v-5.1c7.1 0 9.5 5.3 19 5.3 4.8 0 7.1-5.3 11.9-5.3 7.1 0 9.5 5.3 19 5.3 4.1 0 6.5-3.9 10.1-5v-6.8c-3.6 1.1-6 5-10.1 5-9.5 0-11.9-5.3-19-5.3-4.8 0-7.1 5.3-11.9 5.3-9.5 0-11.9-5.3-19-5.3v-6.4c7.1 0 9.5 5.3 19 5.3 4.8 0 7.1-5.3 11.9-5.3 7.1 0 9.5 5.3 19 5.3 4.1 0 6.5-3.9 10.1-5v-6.8c-3.6 1.1-6 5-10.1 5-9.5 0-11.9-5.3-19-5.3-4.8 0-7.1 5.3-11.9 5.3-9.5 0-11.9-5.3-19-5.3V8.4c7.1 0 9.5 5.3 19 5.3zm11.9 27.6c-4.8 0-7.1 5.3-11.9 5.3-9.5 0-11.9-5.3-19-5.3-4.8 0-7.1 5.3-11.9 5.3-9.5 0-11.9-5.3-19-5.3-4.8 0-7.1 5.3-11.9 5.3-8.6 0-11.5-4.3-17.2-5.2v6.8c5.7.8 8.6 5.2 17.2 5.2 4.8 0 7.1-5.3 11.9-5.3 7.1 0 9.5 5.3 19 5.3 4.8 0 7.1-5.3 11.9-5.3 7.1 0 9.5 5.3 19 5.3 4.8 0 7.1-5.3 11.9-5.3 7.1 0 9.5 5.3 19 5.3 4.1 0 6.5-3.9 10.1-5v-6.8c-3.6 1.1-6 5-10.1 5-9.5 0-11.9-5.3-19-5.3z"/><path fill="#FFF" d="M35 12.2V0H25v12.2L6.7 0H0v4.4l13.3 8.9H0v13.4h13.3L0 35.5V40h6.7L25 27.8V40h10V27.8L53.3 40H60v-4.5l-13.3-8.9H60V13.4H46.7l13.3-9V0h-6.7"/><path fill="#F00" d="M27 0h6v16h27v8H33v16h-6V24H0v-8h27V0zM0 0l20 13.4h-4.4L0 3V0zm60 0h-4.5l-20 13.4H40L60 0zm0 40L40 26.6h4.5L60 37v3zM0 40h4.4l20-13.4H20L0 40z"/></svg>
