<svg xmlns="http://www.w3.org/2000/svg" width="240" height="160" viewBox="0 0 120 80"><path d="M0 0h120v80H0z"/><path fill="#FFF" d="M0 0h120v53.3H0z"/><path fill="#CE1126" d="M0 0h120v26.7H0z"/><path fill="#007A3D" d="M35.8 49.1c.5-.5.9-1 1.4-1.5.5.5.9 1 1.4 1.5-.5.5-.9 1-1.4 1.5-.9-.9-.6-.5-1.4-1.5zm-5-.3c-.5-.6-.6-.9-.3-.7 2.6 1.5 3.9-1.5 2.4-3.2-.2-.2-.4-.5-.4-.6l1.7-1.7c.2.1.7 1.6.7 1.9 0 .3 2 .2 2.2.2-.1-.4-.3-.9-.5-1.2-.2-.3-.2-.3 0-.4 1.2-.9 2.1-2.2 2.1-2.2.1 0 .1 3.7.1 3.9h13.9v-5.5c-.3-.2-.5-.3-.8-.5-.3.2-.5.4-.8.6v3.9H39.5c0-.1 9.2-13.6 9.3-13.6 0 0 .5 2 .6 2.2 0 0-6.2 8.2-6.7 9.4 0 .1 6.5.1 6.6.1 0-.2 0-2.6.1-2.7.2-.3 2.4-2 2.6-2 .2.1 2.3 1.8 2.4 1.9v8H35.3c-1.1 4.3-3.6 3.3-4.5 2.2zM55.9 34c.1-.1 2.5 2.2 2.2 2.4-.8.5-.5.9-.5 8.3 1.6 0 2 .1 2.6-.3.7-.5.2-.3 0 2.2-1.6 0-2.8 0-4.4.1-.1-.3-.1-12.6.1-12.7zM68 42c.7-.7 1.5-.6 2.4-.6 0-.5.2-1.9-.3-2.1-1.2-.4 3-2.6 2-2.6.1 0 .1 7.6.1 7.7h1.6c0-5 .2-8.3-.5-8.3s2-2.6 2.1-2.5c.1.1.1 10.7.1 10.8h1.6v-11c-.1-.1-.6-.5-.6-.7 0-.1 1.7-1.7 1.8-1.9.7-1 .6-1.3.6 15.5H67.2c.1-2.1-.1-3.4.8-4.3zm2.5 1c-.9 0-1.6.2-1.6 1.6h1.6V43zm9.8-9.2c.1-.1 2.4 2.2 2.2 2.4-.8.5-.5.9-.5 8.3 1.7 0 2 .1 2.6-.3.8-.6.3-.2 0 2.2-1.6 0-2.8 0-4.4.1 0-.2-.1-12.6.1-12.7zm-8.9-.2c-.5-.2-.9-.5-.1-.4 1.1.2 1.4-.2 2.1-1 .2.1 1 .4 1.2.4.2-.1.6-.8.6-1 0-.3.2-.2.3.1.3.5 0 1.2-.5 1.4-.7.3-1.2-.3-1.7.1-.4.6-1.2.7-1.9.4zm1.4-2c-.4-.3-1.2-1.8-.6-1.9.5-.1 1.1 2.3.6 1.9z"/></svg>
