<svg xmlns="http://www.w3.org/2000/svg" width="240" height="160" viewBox="0 0 120 80"><path fill="#DA0000" d="M0 0h120v80H0z"/><path fill="#FFF" d="M0 0h120v53.3H0z"/><path fill="#239F40" d="M0 0h120v26.7H0z"/><path fill="none" stroke="#FFF" stroke-width=".444" d="M4.3 22.6h8.1m-7.8 2.8v-1.6h2.5V25h2.5v-1.2H8m-2.4 1.3h.6m6.2 0h-1.6v-1.2h2.5m0-1.6v2.8h2.5v-2.8m-1.2 0v2.8M4.3 26.7h5.6m.6 0h5.6M4.3 53.3h5.6m.6 0h5.6M4.3 54.9h8.1m-7.8 2.8v-1.6h2.5v1.2h2.5v-1.2H8m-2.4 1.3h.6m6.2 0h-1.6v-1.2h2.5m0-1.6v2.8h2.5v-2.8m-1.2 0v2.8m2.2-34.8h8.1m-7.8 2.8v-1.6h2.5V25H22v-1.2h-1.6M18 25.1h.6m6.2 0h-1.6v-1.2h2.5m.1-1.6v2.8h2.5v-2.8m-1.3 0v2.8m-10.2 1.6h5.6m.6 0h5.6M16.8 53.3h5.6m.6 0h5.6m-11.8 1.6h8.1m-7.8 2.8v-1.6h2.5v1.2H22v-1.2h-1.6M18 57.4h.6m6.2 0h-1.6v-1.2h2.5m.1-1.6v2.8h2.5v-2.8m-1.3 0v2.8m2.2-34.8h8.1m-7.8 2.8v-1.6H32V25h2.5v-1.2h-1.6m-2.5 1.3h.6m6.3 0h-1.6v-1.2h2.5m0-1.6v2.8h2.5v-2.8m-1.2 0v2.8m-10.3 1.6h5.6m.6 0H41M29.2 53.3h5.6m.6 0H41m-11.8 1.6h8.1m-7.8 2.8v-1.6H32v1.2h2.5v-1.2h-1.6m-2.5 1.3h.6m6.3 0h-1.6v-1.2h2.5m0-1.6v2.8h2.5v-2.8m-1.2 0v2.8m2.1-34.8h8.1M42 25.4v-1.6h2.5V25H47v-1.2h-1.6m-2.5 1.3h.6m6.2 0h-1.6v-1.2h2.5m.1-1.6v2.8h2.5v-2.8m-1.3 0v2.8m-10.3 1.6h5.6m.7 0h5.6M41.6 53.3h5.6m.7 0h5.6m-11.9 1.6h8.1M42 57.7v-1.6h2.5v1.2H47v-1.2h-1.6m-2.5 1.3h.6m6.2 0h-1.6v-1.2h2.5m.1-1.6v2.8h2.5v-2.8m-1.3 0v2.8m2.2-34.8h8.1m-7.8 2.8v-1.6h2.5V25h2.5v-1.2h-1.6m-2.5 1.3h.7m6.2 0h-1.6v-1.2h2.5m0-1.6v2.8h2.5v-2.8m-1.2 0v2.8m-10.3 1.6h5.6m.6 0h5.6M54.1 53.3h5.6m.6 0h5.6m-11.8 1.6h8.1m-7.8 2.8v-1.6h2.5v1.2h2.5v-1.2h-1.6m-2.5 1.3h.7m6.2 0h-1.6v-1.2h2.5m0-1.6v2.8h2.5v-2.8m-1.2 0v2.8m2.1-34.8h8.1m-7.8 2.8v-1.6h2.5V25h2.5v-1.2h-1.6m-2.4 1.3h.6m6.2 0H73v-1.2h2.5m.1-1.6v2.8H78v-2.8m-1.2 0v2.8m-10.3 1.6h5.6m.7 0h5.6M66.5 53.3h5.6m.7 0h5.6m-11.9 1.6h8.1m-7.8 2.8v-1.6h2.5v1.2h2.5v-1.2h-1.6m-2.4 1.3h.6m6.2 0H73v-1.2h2.5m.1-1.6v2.8H78v-2.8m-1.2 0v2.8M79 22.6h8.1m-7.8 2.8v-1.6h2.5V25h2.5v-1.2h-1.6m-2.5 1.3h.6m6.3 0h-1.6v-1.2H88m0-1.6v2.8h2.5v-2.8m-1.3 0v2.8M79 26.7h5.6m.6 0h5.6M79 53.3h5.6m.6 0h5.6M79 54.9h8.1m-7.8 2.8v-1.6h2.5v1.2h2.5v-1.2h-1.6m-2.5 1.3h.6m6.3 0h-1.6v-1.2H88m0-1.6v2.8h2.5v-2.8m-1.3 0v2.8m2.2-34.8h8.1m-7.8 2.8v-1.6h2.5V25h2.5v-1.2h-1.6m-2.4 1.3h.6m6.2 0H98v-1.2h2.5m-.1-1.6v2.8h2.5v-2.8m-1.2 0v2.8m-10.3 1.6H97m.6 0h5.6M91.4 53.3H97m.6 0h5.6m-11.8 1.6h8.1m-7.8 2.8v-1.6h2.5v1.2h2.5v-1.2h-1.6m-2.4 1.3h.6m6.2 0H98v-1.2h2.5m-.1-1.6v2.8h2.5v-2.8m-1.2 0v2.8m2.2-34.8h8.1m-7.8 2.8v-1.6h2.5V25h2.5v-1.2h-1.6m-2.5 1.3h.6m6.3 0h-1.6v-1.2h2.5m0-1.6v2.8h2.5v-2.8m-1.3 0v2.8m-10.2 1.6h5.6m.6 0h5.6m-11.8 26.6h5.6m.6 0h5.6m-11.8 1.6h8.1m-7.8 2.8v-1.6h2.5v1.2h2.5v-1.2h-1.6m-2.5 1.3h.6m6.3 0h-1.6v-1.2h2.5m0-1.6v2.8h2.5v-2.8m-1.3 0v2.8"/><path fill="#DA0000" d="M61.6 47.8c1.2.5 2.6.7 3.9.6-1.6.5-3.2.6-4.7.3v.3l-.8 1-.8-1.1v-.3c-1.5.3-3.1.3-4.7-.3 1.3.1 2.7-.1 3.9-.6-2-1.1-3.7-2.9-4.4-5.3-1.1-3.5-.1-7.3 2.7-9.7-3 4.5-1.9 10.5 2.4 13.7l-.3-7.4v-5.9c.5-.2.9-.6 1.2-1 .3.4.7.8 1.2 1V39l-.3 7.5c4.3-3.2 5.4-9.2 2.4-13.7 2.8 2.4 3.9 6.2 2.7 9.7-.8 2.4-2.4 4.2-4.4 5.3zM69 36.2c-1-1.8-2.8-3.1-4.8-3.6 4.4 3.3 5.3 9.6 2 14 3.6-2.1 4.9-6.8 2.8-10.4zm-13.2-3.6c-2 .5-3.7 1.8-4.8 3.6-2.1 3.7-.9 8.3 2.8 10.4-3.3-4.4-2.4-10.7 2-14zM58 32c.7.5 1.6.3 2-.4.5.7 1.4.8 2 .4.5-.4.8-1.1.5-1.7-.1.7-.9 1.2-1.6 1.1-.4-.1-.7-.3-.9-.7-.2.3-.5.6-.9.7-.7.1-1.5-.3-1.6-1.1-.3.6-.1 1.4.5 1.7z"/></svg>
