<svg xmlns="http://www.w3.org/2000/svg" width="240" height="160" viewBox="0 0 120 80"><path fill="#FFF" d="M0 0h120v80H0V0z"/><path fill="#DF112D" d="M120 0h-7.7L60 34.8 7.7 0H0v5.2L52.2 40 0 74.8V80h7.7L60 45.2 112.3 80h7.7v-5.2L67.8 40 120 5.2"/><path fill="#E8112D" stroke="#000" stroke-width=".068" d="M67 12c1.7 6.9.8 15.5-7 20.3-7.7-4.8-8.7-13.3-7-20.3 1.9-1.7 10.2-2.7 14 0z"/><path fill="#F9DD16" stroke="#000" stroke-width=".068" d="M59.9 10.6c2.8 0 5.5.8 7 1.7.3-2.4 1.4-4.8 2.7-6.6-1.3 0-1.9.7-1.9 1.4-.3-.9-1.6-.9-2-.4 1.5 1 .3 2.7-1 2.4-.6-.2-.9-.6-1.1-1.2.4 0 .7-.4.7-.8s-.4-.7-.8-.7-.7.4-.7.8c0 .3.2.5.5.6-.4.7-1.2.9-1.7.7-.7-.2-1-.8-1-1.4 0-1.4 1.4-1.7 1.8-1.4 0-1-1.6-1.8-2-.9.5-.9.5-2.3-.4-3.2-.9.9-1 2.2-.4 3.2-.5-.8-2 0-2 .9.4-.3 1.8 0 1.8 1.4 0 .6-.3 1.2-1 1.4-.5.2-1.3-.1-1.7-.7.4-.1.6-.6.4-.9-.1-.4-.6-.6-.9-.4s-.6.6-.4.9c.1.3.3.4.6.5-.1.6-.4 1.1-1.1 1.2-1.3.4-2.4-1.4-1-2.4-.4-.5-1.7-.6-2 .4 0-.7-.6-1.4-1.9-1.4 1.3 1.8 2.4 4.2 2.7 6.6 1.3-1 3.9-1.7 6.8-1.7z"/></svg>
