<svg xmlns="http://www.w3.org/2000/svg" width="240" height="160" viewBox="0 0 120 80"><path fill="#FFF" d="M0 0h120v80H0z"/><path d="M0 0h120v24H0z"/><path fill="#060" d="M0 56h120v24H0z"/><path fill="#FFF" d="M69.9 23.8c1.4-.4 2.1-1.7 2.9-3 .5-.9 2.5-4.3 3.4-8.8-3.5 3-5.5 6.5-6 7.3-.8 1.3-1.5 2.6-1.1 4L60 39l-9.1-15.7c.4-1.4-.4-2.7-1.1-4-.5-.9-2.5-4.3-6-7.3.9 4.5 2.9 8 3.4 8.8.8 1.3 1.5 2.6 2.9 3L59.4 40 45.7 63.8l.9.5L60 41l13.4 23.3.9-.5L60.6 40l9.3-16.2z"/><path fill="#B00" d="M0 28v24h50.5C52 56 57 64 60 64s8-8 9.5-12H120V28H69.5C68 24 63 16 60 16s-8 8-9.5 12H0z"/><path d="M69.5 52C71 48 72 44 72 40s-1-8-2.5-12C68 32 67 36 67 40s1 8 2.5 12m-19 0C49 48 48 44 48 40s1-8 2.5-12C52 32 53 36 53 40s-1 8-2.5 12"/><path fill="#FFF" d="M60 37c1.1 0 2 1.3 2 3s-.9 3-2 3-2-1.3-2-3 .9-3 2-3zm.5 5.9s2 4 2 10.5-2 10.5-2 10.5v-21zm-1-5.8s-2-4-2-10.5 2-10.5 2-10.5v21zm0 5.8s-2 4-2 10.5 2 10.5 2 10.5v-21zm1-5.8s2-4 2-10.5-2-10.5-2-10.5v21z"/></svg>
