<svg xmlns="http://www.w3.org/2000/svg" width="240" height="160" viewBox="0 0 120 80"><path fill="#E8112D" d="M0 0h120v80H0z"/><path fill="#FFEF00" d="M60 16c2.4 2.1 0 6.4 1.1 9.6-.8-.1-1.4-.1-2.2 0-.8-2.8 1.9-6.4 1.1-9.6zM49.1 30.6c.5-.6 1-1.1 1.6-1.6-3.1-1.5-4.4-6.2-7.6-6 2.8 1.7 3.4 6.2 6 7.6zm5.4-3.9c.7-.3 1.4-.5 2.1-.7-2-2.7-1.1-7.5-4.1-8.8 1.8 2.8.4 7.1 2 9.5zm-2 1c.6-.4 1.3-.7 2-1-2.4-2.3-2.3-7.3-5.4-8.1 2.2 2.5 1.4 7 3.4 9.1zm4.2-1.7c.7-.2 1.5-.3 2.2-.3-1.6-3 .1-7.6-2.6-9.4 1.2 3-.9 7 .4 9.7zm-6 3c.6-.5 1.2-.9 1.8-1.3-2.8-1.9-3.4-6.8-6.6-7.1 2.5 2.1 2.4 6.6 4.8 8.4zm-5 9.8c.1-.8.2-1.5.4-2.2-3.3.6-7.2-2.4-9.7-.4 3.2-.2 6.3 3 9.3 2.6zm2-6.3c.4-.6.8-1.2 1.3-1.8-3.3-1-5.4-5.4-8.5-4.8 3.2 1.2 4.5 5.6 7.2 6.6zM46 36.6c.2-.7.4-1.4.7-2.1-3.4.1-6.8-3.5-9.5-1.9 3.3.2 5.9 3.9 8.8 4zm.7-2.1c.3-.7.6-1.4 1-2-3.4-.5-6.1-4.5-9.1-3.4 3.2.7 5.2 4.8 8.1 5.4zm-1.1 6.6c-.1-.8-.1-1.4 0-2.2-3.2 1.1-7.5-1.3-9.6 1.1 3.2-.8 6.8 1.9 9.6 1.1zm26.7-8.6c.4.6.7 1.3 1 2 2.3-2.4 7.3-2.3 8.1-5.4-2.5 2.2-7 1.4-9.1 3.4zm1 2c.3.7.5 1.4.7 2.1 2.7-2 7.5-1.1 8.8-4.1-2.8 1.8-7.1.4-9.5 2zM71 30.7c.5.6.9 1.2 1.3 1.8 1.9-2.8 6.8-3.4 7.1-6.6-2.1 2.5-6.6 2.4-8.4 4.8zm12.7 5.5c-3 1.3-7-.8-9.7.4.2.7.3 1.5.3 2.2 3.1-1.5 7.7.1 9.4-2.6zM61.2 25.6c.8.1 1.5.2 2.2.4-.6-3.3 2.4-7.2.4-9.7.2 3.3-3 6.4-2.6 9.3zm2.2.4c.7.2 1.4.4 2.1.7-.1-3.4 3.5-6.8 1.9-9.5-.2 3.3-3.9 5.9-4 8.8zm6 3.1c.6.5 1.1 1 1.6 1.6 1.5-3.1 6.2-4.4 6-7.6-1.7 2.8-6.2 3.4-7.6 6zm-3.9-2.4c.7.3 1.4.6 2 1 .5-3.4 4.5-6.1 3.4-9.1-.7 3.2-4.8 5.2-5.4 8.1zm2 1c.6.4 1.2.8 1.8 1.3 1-3.3 5.4-5.4 4.8-8.5-1.2 3.2-5.6 4.5-6.6 7.2zm5.8 17.8c-.3.7-.6 1.4-1 2 3.4.5 6.1 4.5 9.1 3.4-3.2-.7-5.2-4.8-8.1-5.4zm-2.4 3.9c-.5.6-1 1.1-1.6 1.6 3.1 1.5 4.4 6.2 7.6 6-2.8-1.7-3.4-6.2-6-7.6zM69.3 51c-.6.5-1.2.9-1.8 1.3 2.8 1.9 3.4 6.8 6.6 7.1-2.5-2.1-2.4-6.6-4.8-8.4zm-1.8 1.3c-.6.4-1.3.7-2 1 2.4 2.3 2.3 7.3 5.4 8.1-2.2-2.5-1.4-7-3.4-9.1zm-2 1c-.7.3-1.4.5-2.1.7 2 2.7 1.1 7.5 4.1 8.8-1.8-2.8-.4-7.1-2-9.5zM46 43.3c-.2-.7-.3-1.5-.3-2.2-3 1.6-7.6-.1-9.4 2.6 3-1.2 7 .9 9.7-.4zM63.3 54c-.7.2-1.5.3-2.2.3 1.6 3-.1 7.6 2.6 9.4-1.2-3 .9-7-.4-9.7zm11-12.8c-.1.8-.2 1.5-.4 2.2 3.3-.6 7.2 2.4 9.7.4-3.2.2-6.3-3-9.3-2.6zm-2 6.3c-.4.6-.8 1.2-1.3 1.8 3.3 1 5.4 5.4 8.5 4.8-3.2-1.2-4.5-5.6-7.2-6.6zm1.7-4.1c-.2.7-.4 1.4-.7 2.1 3.4-.1 6.8 3.5 9.5 1.9-3.3-.2-5.9-3.9-8.8-4zm.4-4.5c.1.8.1 1.4 0 2.2 3.2-1.1 7.5 1.2 9.6-1.1-3.2.8-6.8-1.9-9.6-1.1zm-26.7 8.6c-.4-.6-.7-1.3-1-2-2.3 2.4-7.3 2.3-8.1 5.4 2.5-2.2 7-1.4 9.1-3.4zm1.3 1.8c-.5-.6-.9-1.2-1.3-1.8-1.9 2.8-6.8 3.4-7.1 6.6 2.1-2.5 6.6-2.4 8.4-4.8zm1.6 1.6c-.6-.5-1.1-1-1.6-1.6-1.5 3.1-6.2 4.4-6 7.6 1.7-2.8 6.2-3.4 7.6-6zm10.5 3.5c-.8.1-1.4.1-2.2 0 1.1 3.2-1.2 7.5 1.1 9.6-.8-3.2 1.9-6.8 1.1-9.6zm-14.4-8.9c-.3-.7-.5-1.4-.7-2.1-2.7 2-7.5 1.1-8.8 4.1 2.8-1.8 7.1-.4 9.5-2zm5.8 6.8c-.6-.4-1.2-.8-1.8-1.3-1 3.3-5.4 5.4-4.8 8.5 1.2-3.2 5.6-4.5 6.6-7.2zm4.1 1.7c-.7-.2-1.4-.4-2.1-.7.1 3.4-3.5 6.8-1.9 9.5.2-3.3 3.9-5.9 4-8.8zm2.2.3c-.8-.1-1.5-.2-2.2-.4.6 3.3-2.4 7.2-.4 9.7-.2-3.2 3-6.3 2.6-9.3zm-4.3-1c-.7-.3-1.4-.6-2-1-.5 3.4-4.5 6.1-3.4 9.1.7-3.2 4.8-5.2 5.4-8.1zM61 36.7c.2-.2.5-.4.7-.6 3.4 3.1 5.7 7.4 6 12.3-.3.3-.7.5-1.1.8-.1-4.9-2.3-9.4-5.6-12.5zm2.7-1.9c-.3.2-.6.3-.8.5 3.4 2.9 5.7 7 6.4 11.6.3-.4.7-.8.9-1.3-1-4.3-3.3-8.1-6.5-10.8zm6.4-2.1c-1.8.2-3.5.7-5.1 1.4 2.9 2.4 5.1 5.5 6.2 9.2 1.3-3.4 1-7.3-1.1-10.6zM60 31c2.2-.9 4.5-1.5 7-1.6-4.2-3-9.9-3-14.1 0 2.6.2 4.9.7 7.1 1.6zm2.3 1.2c2-.8 4.1-1.3 6.3-1.4-.2-.2-.4-.3-.5-.5-2.3.1-4.5.6-6.6 1.4.2.2.5.3.8.5zm-.4 2.3c.3-.2.6-.3.8-.5-.2-.2-.5-.3-.7-.5-.3.2-.6.3-.9.5.3.2.5.4.8.5zm7.7-2.5c-.1-.2-.2-.3-.4-.5-2.1.1-4 .6-5.8 1.4.2.2.5.3.7.5 1.7-.7 3.6-1.2 5.5-1.4zm-9.6.4c-.3.1-.6.3-.9.5.3.1.6.3.9.5.3-.2.6-.3.9-.5-.3-.2-.6-.4-.9-.5zm-1 4.3c-.2-.2-.5-.4-.7-.6-3.4 3.1-5.7 7.4-6 12.3.3.3.7.5 1.1.8.1-4.9 2.3-9.4 5.6-12.5zm-4-2.6c-1.6-.7-3.3-1.2-5.1-1.4-2.1 3.2-2.4 7.2-1.2 10.5 1.2-3.5 3.4-6.7 6.3-9.1zm5 3.5c-3.2 3.2-5.1 7.7-5 12.5 3.1 1.4 6.7 1.5 9.9 0 .2-4.8-1.6-9.2-4.9-12.5zm-.7-2.3c.2.2.5.4.7.5.2-.2.5-.4.7-.5-.2-.2-.5-.4-.7-.5-.2.2-.5.3-.7.5zm-3.4-1.9c.2-.2.5-.3.7-.5-1.8-.8-3.8-1.2-5.8-1.4-.1.2-.3.3-.4.5 1.9.2 3.8.7 5.5 1.4zm1.3 1.9c-.3-.2-.6-.3-.8-.5-3.2 2.7-5.6 6.5-6.5 10.8.3.4.6.9.9 1.3.7-4.6 3-8.7 6.4-11.6zm1.4-3.6c-2-.8-4.3-1.3-6.6-1.4-.2.2-.4.3-.5.5 2.2.1 4.3.6 6.3 1.4.2-.2.5-.3.8-.5zm-.5 2.8c.2-.2.5-.3.7-.5-.3-.2-.6-.3-.9-.5-.2.2-.5.3-.7.5.4.2.7.4.9.5z"/></svg>
