<svg xmlns="http://www.w3.org/2000/svg" width="240" height="160" viewBox="0 0 120 80"><path fill="#CE1126" d="M0 0h120v80H0z"/><path fill="#FCD116" stroke="#BD9C08" stroke-width=".4" d="M73.2 37.7c2.3.6 5.9.5 7.5 2.3-2.3-.6-5.2 3.1-7.5 2.3 2 1.4-28.8 0-26.3 0-2.3-.6-5.9-.5-7.5-2.3 2.3.6 5.2-3.1 7.5-2.3-2-1.4-5.4-2.5-6.2-4.7 2 1.4 6-1.2 7.8.4-1.4-2-4.3-4.2-4.2-6.6 1.4 2 6.1.9 7.2 3-.6-2.3-2.5-5.3-1.7-7.6.6 2.3 5.3 2.9 5.7 5.3.2-2.4-.6-5.9 1-7.7-.2 2.4 4 4.6 3.6 6.9 1-2.2 1.6-5.7 3.6-6.9-1 2.2 2.3 5.7 1 7.7 1.7-1.7 3.4-4.9 5.7-5.3-1.7 1.7.1 6.1-1.7 7.6 2.2-1 4.8-3.4 7.2-3-2.2 1-2 5.7-4.2 6.6 2.4-.2 5.6-1.6 7.8-.4-2.5.2-3.9 4.7-6.3 4.7z"/><path fill="#FCD116" stroke="#BD9C08" stroke-width=".4" stroke-linejoin="round" d="M48.9 40l-8.4-3.4 9.1-.4-6.7-6.1 8.7 2.8-4.2-8.1 7.2 5.6-1.2-9 4.9 7.7 1.9-8.9 1.9 8.9 4.9-7.7-1.2 9 7.2-5.6-4.2 8.1 8.7-2.8-6.7 6.1 9.1.4-8.8 3.4 8.4 3.4h-39l8.4-3.4z"/><circle fill="#FCD116" stroke="#BD9C08" stroke-width=".48" cx="60" cy="40" r="11"/><path fill="#FCD116" stroke="#BD9C08" stroke-width=".32" d="M63.6 13.3h5.9c0-.3-.5-.7-1-.8-1.5-.2-2.6.2-4.4.3l-.5.5z"/><path fill="#FCD116" stroke="#BD9C08" stroke-width=".32" d="M51.8 11.9c1.4 1.8 4.1 3 6.7 3 3.5 0 7.3-2.8 12-3.6L55.3 11c-2-1.3-3.5-1.2-4.5-.3l-2.9.1c-.4.2.3 1.2.9 1.2l3-.1z"/><path fill="#FCD116" stroke="#BD9C08" stroke-width=".32" d="M58.7 10.9c-.6-2.5-2.6-3.6-5-4-2.8-.4-9.3-.8-13.7-2 1.9 1.8 5.8 2.8 8.5 3.2 2.9.4 5.7 1.1 7.9 2.8h2.3z"/><path fill="#FCD116" stroke="#BD9C08" stroke-width=".32" stroke-linecap="round" d="M56.9 12.6c.9 1.2 2.3 1.1 3.8.1s3.1-3.9 3.9-3.9c5.5-.3 12.2-2.7 15.4-4.5-4 .6-8 1.2-12.1 1.2-6.9 0-7.8 3.2-10.6 5.4"/><path fill="none" stroke="#BD9C08" stroke-width=".32" stroke-linecap="round" d="M57.9 11.2C59.4 10.3 60.6 9 62 8c2.3-1.7 4.9-1.8 7.8-1.8 2.5 0 6.9-1.1 9.3-1.6"/><path fill="none" stroke="#BD9C08" stroke-width=".32" d="M56.4 10.8c-.4-2.3-2.6-3-5.2-3.4-2.9-.4-5.9-.7-8.8-1.5-.7-.2-1.4-.6-2.1-.8"/><path fill="none" stroke="#BD9C08" stroke-width=".32" stroke-linecap="round" d="M57.3 14.1c2.7.2 4.8-.6 7.1-1.8M47.9 11.2h3.5"/><circle fill="#BD9C08" cx="52.5" cy="10.8" r=".4"/><path fill="#003F87" d="M0 44h120v36H0z"/><path fill="#FFF" d="M12 57.1C8 57.1 4 59 0 60v-5.7c4-1 8-2.9 12-2.9 5.3 0 10.7 3.4 16 3.4s10.7-3.4 16-3.4 10.7 3.4 16 3.4 10.7-3.4 16-3.4 10.7 3.4 16 3.4 10.7-3.4 16-3.4c4 0 8 1.9 12 2.9V60c-4-1-8-2.9-12-2.9-5.3 0-10.7 3.4-16 3.4s-10.7-3.4-16-3.4-10.7 3.4-16 3.4-10.7-3.4-16-3.4-10.7 3.4-16 3.4-10.7-3.4-16-3.4zm96 5.8c-5.3 0-10.7 3.4-16 3.4s-10.7-3.4-16-3.4-10.7 3.4-16 3.4-10.7-3.4-16-3.4-10.7 3.4-16 3.4-10.7-3.4-16-3.4c-4 0-8 1.9-12 2.9v5.7c4-1 8-2.9 12-2.9 5.3 0 10.7 3.4 16 3.4s10.7-3.4 16-3.4S54.7 72 60 72s10.7-3.4 16-3.4S86.7 72 92 72s10.7-3.4 16-3.4c4 0 8 1.9 12 2.9v-5.7c-4-1-8-2.9-12-2.9zM12 45.7c5.3 0 10.7 3.4 16 3.4s10.7-3.4 16-3.4 10.7 3.4 16 3.4 10.7-3.4 16-3.4 10.7 3.4 16 3.4 10.7-3.4 16-3.4c4 0 8 1.9 12 2.9v-5.7c-4-1-8-2.9-12-2.9-5.3 0-10.7 3.4-16 3.4S81.3 40 76 40s-10.7 3.4-16 3.4S49.3 40 44 40s-10.7 3.4-16 3.4S17.3 40 12 40c-4 0-8 1.9-12 2.9v5.7c4-1 8-2.9 12-2.9z"/></svg>
