<svg xmlns="http://www.w3.org/2000/svg" width="240" height="160" viewBox="0 0 120 80"><path fill="#FFC61E" d="M0 0h120v80H0z"/><path fill="#FFF" d="M0 20h120v60H0z"/><path fill="#CE1126" d="M0 40h120v40H0z"/><path fill="#3A75C4" d="M0 60h120v20H0z"/><path fill="#3D8E33" d="M0 80l66.7-40L0 0v80z"/><path fill="#FFF" d="M26.7 57.5c-10.9 2.6-22-5.8-22-17.5s11-20.2 22-17.5c-8 1.8-14 9-14 17.5s6 15.7 14 17.5zm-3.2-31.4l5.1 3.7-2-6-2 6 5.1-3.7h-6.2zm0 8.6l5.1 3.7-2-6-2 6 5.1-3.7h-6.2zm0 8.6l5.1 3.7-2-6-2 6 5.1-3.7h-6.2zm0 8.6l5.1 3.7-2-6-2 6 5.1-3.7h-6.2z"/></svg>
