<svg xmlns="http://www.w3.org/2000/svg" width="240" height="160" viewBox="0 0 120 80"><path fill="#FFF" d="M0 0h120v80H0z"/><circle fill="#C60C30" cx="60" cy="40" r="20"/><path fill="#003478" d="M43.4 28.9c-3.1 4.6-1.8 10.8 2.8 13.9 4.6 3.1 10.8 1.8 13.9-2.8s9.3-5.8 13.9-2.8c4.6 3.1 5.8 9.3 2.8 13.9-6.1 9.2-18.5 11.7-27.7 5.5s-11.9-18.5-5.7-27.7z"/><path stroke="#000" stroke-width="3.333" d="M19.8 25.2L30.9 8.6m-7 19.4L35 11.3m-6.9 19.5l11.1-16.6m41.6 51.7l11.1-16.6M85 68.7L96.1 52m-7 19.4l11.1-16.6M30.9 71.4L19.8 54.8M35 68.7L23.9 52m15.3 13.9L28.1 49.2m63.8-18.4L80.8 14.1M96.1 28L85 11.3m15.2 13.9L89.1 8.6"/><path stroke="#FFF" stroke-width="1.667" d="M83.6 55.7L97.4 65m-70-3.3l4.2-2.8m52-34.6l4.9-3.2m4.1-2.8l4.2-2.8"/></svg>
