<svg xmlns="http://www.w3.org/2000/svg" width="240" height="160" viewBox="0 0 240 160"><path fill="#00008B" d="M0 0h240v160H0V0z"/><path fill="#FFF" d="M70 24.4V0H50v24.4L13.4 0H0v8.9l26.6 17.7H0v26.7h26.6L0 71.1V80h13.4L50 55.6V80h20V55.6L106.6 80H120v-8.9L93.4 53.3H120V26.7H93.4L120 8.9V0h-13.4L70 24.4z"/><path fill="#F00" d="M54 0h12v32h54v16H66v32H54V48H0V32h54V0zM0 0l40 26.7h-8.9L0 6V0zm120 0h-8.9l-40 26.7H80L120 0zm0 80L80 53.3h8.9L120 74v6zM0 80h8.9l40-26.7H40L0 80z"/><path fill="#FFF" stroke="#FFF" stroke-width="2.01" d="M198.8 66v19.5c0 16.9-8 22.8-18.7 27.4-10.7-4.6-18.8-10.4-18.8-27.4V66h37.5z" stroke-linejoin="round"/><path fill="#FCEA83" stroke="#FFF" stroke-width="2.01" d="M149.5 111.3c.6 1.6 4.9 3.7 9.9 1 3.4-1.9 5.6-4.6 7.7-9.4.6-1.2.9-2.7-.5-3.6-1.1-.8-2.9-1.7-3.7-2.5l-1.1-1c.2.2.4.4.6.7 2 2.4-.1 5.9-2.3 8-1.6 1.5-4.5 5.2-8.7 1.7-.9-.8-3 2.5-1.9 5.1zm61 0c-.7 1.6-5 3.7-9.9 1-3.4-1.9-5.6-4.6-7.8-9.4-.5-1.2-.8-2.7.6-3.6 1.1-.8 2.9-1.7 3.7-2.5.4-.4.7-.7 1.1-1-.2.2-.4.4-.6.7-2 2.4.1 5.9 2.2 8 1.6 1.5 4.6 5.2 8.8 1.7.9-.8 2.9 2.5 1.9 5.1z" stroke-linejoin="round"/><path fill="#FCEA83" stroke="#FFF" stroke-width="2.01" d="M180 119.9c8 0 20.4-3.6 27-16.3 1.1-2.1 0-3.2-1.3-3.9-1.4-.6-3.1-2-4-2.9 1.6 1.6 1.3 2.7.2 4.5-5.1 8.6-12.1 12.9-21.9 12.9-9.7 0-16.7-4.3-21.8-12.8-1.1-1.8-1.4-2.9.1-4.5-.8.9-2.6 2.3-4 2.9-1.3.7-2.4 1.8-1.3 3.9 6.6 12.7 19 16.3 27 16.2z" stroke-linejoin="round"/><path fill="#DB161C" stroke="#FFF" stroke-width="2.01" d="M161.5 103c-.2-1-1.5-.6-1.9.6-.5-.7-1-1.4-1.4-2.2-1.2-1.8-1.4-3 .3-4.7.8-.8 2.4-1.7 3.5-.7 2.3 1.8 1.1 5-.5 7zm37 0c.2-1 1.6-.6 2 .6.5-.7 1-1.4 1.4-2.2 1.2-1.8 1.4-3-.4-4.7-.7-.8-2.3-1.7-3.5-.7-2.3 1.8-1.2 5 .5 7zm-49 8.3c-1-1.5-1.8-5.4-2-6.4-.3-.9-.4-1.7.7-2.1 1.1-.4 2.1 1 2.6 2.2.5 1.2 1.3 3 2.2 5.2-2.2-1.3-4-.4-3.5 1.1zm61 0c.9-1.5 1.7-5.4 2-6.4.2-.9.4-1.7-.7-2.1-1.1-.4-2.1 1-2.6 2.2-.5 1.2-1.3 3-2.2 5.2 2.2-1.3 3.9-.4 3.5 1.1z" stroke-linejoin="round"/><path fill="#FFF" stroke="#FFF" stroke-width="2.01" d="M172.3 65.9c-1.3.3-2.2.4-3.4-.7-.8-.8-.6-2.2.2-2.7.9-.6 1.7-1 2.8-.7 1.1.3 4 3 3.3 3.1-.7 0-1.8.7-2.9 1zm3.1-4.8c.4-.3.9-.5 2.2-.6 1.2-.1 2.1-.1 2.4.8.4 1.1.7 2.4 1.5 3-.5.3-3 .6-3.9.1-1.2-.7-1.5-3-2.2-3.3zm8.6.1c.4-.3.9-.3 2.2-.2 1.3.1 1.8.2 2.1 1.1.3 1 0 2.3.6 3.2-.6.2-2.6.2-3.3-.5-1-.8-1-3.2-1.6-3.6z" stroke-linejoin="round"/><path fill="#073163" stroke="#FFF" stroke-width="2.01" d="M190 61.8c-.9-.2-1.5-.3-1.9 0 .5.6.1 3 1.1 3.8.7.5 2.5.6 2.9-.5.6-1 .6-2.5-2.1-3.3zm-10.3-1c.3-.3.9-.4 2.1-.4 1.3 0 2.1.2 2.5 1 .4 1 .3 2.3 1 3.1-.3.4-3 .4-3.8-.2-1.1-.7-1.2-3-1.8-3.5zm-8.5.9c0-.5.7-.6 2.5-.7 1.8-.2 1.9-.1 2.5 1.2.3.7.7 1.9 1.5 2.3-2.2.5-2.9.8-4.1.1-.9-.5-1.9-1.7-2.1-2.2-.1-.3-.1-.7-.3-.7z" stroke-linejoin="round"/><path fill="#059334" stroke="#FFF" stroke-width="2.01" d="M171.4 52.7c-.7 0-1.3-.3-1.7-.8-.7-.9-2.6-1.3-3.4-.5-.3.2-.7.2-1 .3-.5 0-1.1.5-.9 1.5.4-.3.5 0 .8 0 .2-.1.1.1.1.3 0 .5 1.1 1.5 2.1 1.4 1.1 0 1.6.4 1.8.6.3.3.1.2.3.7.3.3.4.4-.1.8-.7.6-1.2 2 0 3.1 1.3 1 4.6 2.5 8.3-.4 3.6-2.8 9.2-1.2 9.6-.2.5 1 .7 1.6.8 2.1.1.4.6.8 1.3.7.7 0 1.5.3 1.9.6.5.3 1.2.2 1-.7-.4-2.8-2.1-3.2-2.3-4.5 1 .1 1.7.1 2.1-.3.3-.4.7-1.1 1.1-1.3.3-.2.3-.4-.1-.3-.5.1-.8.3-1.7.2-4.6-.5-17.5-4-20-3.3z" stroke-linejoin="round"/><path stroke="#FFF" stroke-width="2.01" d="M191.9 56.2c-.5.3-1 .8-1.9 2-1 1.3-4 2.6-7.7 2.6-3.6 0-5.8-.6-7.4-1.9-.9-.7-1.6-1.1-2.2-1.4-1.1-.5-1.3-1.6-1-2.5-.3.5-.5 1-1.1.9-.4 0-1.2 0-1 .4-.1-.2-.1-.5-.2-.6l-.2-.2c.3.2 1-.4 1.5-.4.4.1.9-.4.8-1l-.3-1.3c.8-.4 11.3 1.5 13.4 1.7 2 0 8.1.9 7.3 1.7z" stroke-linejoin="round"/><path fill="#059334" stroke="#FFF" stroke-width="2.01" d="M172.8 52.3c1-1 2.2-1.5 3.4-1.2h.3c.6-.5 2-.6 2.8-.2h.4c1.2-.4 3.5 0 4.3.8l.3.2c2.7-.2 4.3 1 6.2 2.9.2.2.5.6 1 .7.6.1.7.4.2.7-.6.3-1.1.8-2.1 1.9-.9 1.2-3.8 2.4-7.4 2.4-3.5 0-5.6-.6-7.2-1.8-.9-.7-1.6-1.1-2.1-1.4-.6-.2-1.4-1-1.1-1.8.2-.8-.3-1.8-.7-2.8.3-.2 1.1-.5 1.5-.3l.2-.1z" stroke-linejoin="round"/><path fill="#00493D" stroke="#FFF" stroke-width="2.01" d="M190.5 54.9c-1.9-1.9-3.5-3.1-6.2-2.9 0 .1 0 .4-.1.6 1.6.6 3.9 2.4 4.9 3.7.5-.5 1.1-.9 1.4-1.4zm-6.5-3.1c-.8-.8-3.1-1.3-4.3-.8 0 .4 0 1-.2 1.4.7.3 1.3 1 1.9 1.7l1.9-.5c.2-.5.6-1.4.7-1.8zm-4.7-.9c-.8-.4-2.2-.3-2.8.2-.2.4-.3 1.2-.3 1.6.4 0 1 .3 1.2.5.6-.2 1.4-.6 1.7-.9.1-.3.3-.9.2-1.4zm-6.5 1.4c1-1 2.2-1.5 3.4-1.2-.2.3-.3.9-.3 1.5-1.1-.1-2.5.2-3.1.6v-.9zm15.9 4.1c-.9-1.3-3.1-2.8-4.6-3.5 0 .1-.2.5-.3.8.6.9 1.8 2.9 2.3 4 .5-.2 1.9-.8 2.6-1.3zm-7.6 2.3c.2-1.4.3-3.4.3-4.1.5-.1 1.5-.4 1.9-.5.5.8 1.7 2.9 2.2 3.9-1.2.2-3.2.7-4.4.7zm-3.5-4.8c.5-.2 1.2-.6 1.7-1 .4.3 1.3 1 1.5 1.4 0 .9-.3 3.5-.4 4.4-.8 0-2.1-.2-2.8-.6.1-1.5.2-3.3 0-4.2zm-5 1.1c.1-.2.2-.9.2-1.2.8-.5 2.8-1 4.3-.2.1 1 0 3.5-.1 4.1-1.3-.9-3.4-2.4-4.4-2.7z" stroke-linejoin="round"/><path d="M167.6 53.2c-.2 0-.3-.6-.7-.6-.1 0-.4.1-.5 0 0 .2.1.4.2.5.1.3.6.1 1 .1z"/><path fill="none" stroke="#FFF" stroke-width="2.01" d="M167.6 54.9c1.2 0 1.4-1.5 2-1.6m-1.3 1.7c.9.4 1.6-1.7 2.3-1.6m-4.1-.9c.3 0 .5-.4 1 .1.2.2.5.3.7.3m-.2 1c-.4.6-1.1 1-1.5.8m-.2-3.3c-.3.2-.5.6-.7.9m-.3.6v.5" stroke-linejoin="round"/><path stroke="#FFF" stroke-width="2.01" d="M176 51.4c-2.1-1.6-4.6-3.1-6.9-3.4 1.5.9 5.7 4.2 6.8 5.3m1.3-3.4c-2.5-1.7-5.4-3.6-8.2-3.8 2.1 1.1 5.2 3.7 6.9 5.9m4.5-4.8c1.4-3.1 2.9-4.9 4.9-6.8-1 2.1-2.1 6.4-2.6 8.2" stroke-linejoin="round"/><path stroke="#FFF" stroke-width="2.01" d="M182.6 46.6c1-2.2 2.5-4.1 5.1-5.3-1.3 1.3-3.3 5.2-3.8 7.3" stroke-linejoin="round"/><path stroke="#FFF" stroke-width="2.01" d="M183.6 48.6c1.2-1.7 3.6-4.9 7.9-6.6-2.5 2.5-6.2 7.1-7.1 8.9m.5-.1c1.8-1 5.4-2.6 8-2.1-1.6.6-6.4 2.8-8.5 4.8" stroke-linejoin="round"/><path stroke="#FFF" stroke-width="2.01" d="M184.5 50.1c1.7-1.8 4.8-4.5 8.1-5.6-2.4 2.3-7.5 7.5-8.2 8.3m-4.7-3.8c-1.2-3.7-3-7.2-5.7-8.3 1.5 2.2 3.4 5.4 4.4 10.2m-1-2c-2-2.4-4.7-4.8-7.8-5.3 2.1 1.2 5.6 4.7 6.9 8.2" stroke-linejoin="round"/><path stroke="#FFF" stroke-width="2.01" d="M178.5 48.8c-2.5-4.5-4.4-5.3-5.5-6.2.9 1.7 3.1 6.2 4.4 8.1" stroke-linejoin="round"/><path fill="none" stroke="#FFF" stroke-width="2.01" d="M173.5 48.5c1.2.7 3 2.4 3.6 3.5" stroke-linejoin="round"/><path stroke="#FFF" stroke-width="2.01" d="M173.5 50.6c.6.5 1.7 1.1 2.7 2m9.2-.5c1-.8 3.2-2.1 4.3-2.5m-5 1.8c1-1.3 3-3.1 3.7-3.7m-.9-2.5c-.9 1-3 3.5-3.8 4.7m1.2-5.6c-.7.9-2.1 3.5-2.5 4.4m-5.4-4.2c.6 1.6 1.7 4.3 2.1 5.4m-3-3.7c.4.6 1.2 2 1.5 3m1.9-3.5c0-.9.6-1.9 1.2-1.9.7 0 1.2 1.2 1.2 1.9 0 .8-.6 1.5-1.2 1.5-.5 0-1.2-.6-1.2-1.5z" stroke-linejoin="round"/><path stroke="#FFF" stroke-width="2.01" d="M178.2 46.5c.1-1 .8-1.8 1.4-1.7.6.1.9 1.3.8 2-.1.8-.8 1.4-1.3 1.3-.5 0-1-.7-.9-1.6zm2.7.3c-.2-.9.2-1.9.8-2 .6-.1 1.2.9 1.3 1.7.2.8-.3 1.6-.8 1.6-.5.1-1.2-.4-1.3-1.3z" stroke-linejoin="round"/><path stroke="#FFF" stroke-width="2.01" d="M179.4 47.6c0-1 .6-1.9 1.2-1.9.7 0 1.2 1.1 1.2 1.9 0 .8-.6 1.5-1.2 1.5s-1.2-.6-1.2-1.5z" stroke-linejoin="round"/><path stroke="#FFF" stroke-width="2.01" d="M177.6 48.1c0-.9.7-1.9 1.3-1.9.6 0 1.2 1.2 1.2 1.9 0 .8-.7 1.5-1.2 1.5-.6 0-1.3-.6-1.3-1.5zm3.7-.4c0-.9.6-1.9 1.2-1.9.7 0 1.2 1.2 1.2 1.9 0 .8-.6 1.5-1.2 1.5s-1.1-.6-1.2-1.5z" stroke-linejoin="round"/><path stroke="#FFF" stroke-width="2.01" d="M180.9 48.5c0-1 .7-1.9 1.3-1.9s1.2 1 1.2 1.9c0 .8-.6 1.5-1.2 1.5s-1.3-.6-1.3-1.5z" stroke-linejoin="round"/><path stroke="#FFF" stroke-width="2.01" d="M179.3 49.5c0-1 .6-1.9 1.2-1.9.7 0 1.2 1.2 1.2 1.9 0 .8-.6 1.5-1.2 1.5-.6-.1-1.2-.6-1.2-1.5zm-2.5 0c0-1 .5-1.9 1-1.9s.9 1.2.9 1.9c0 .8-.5 1.5-.9 1.5-.5-.1-1-.6-1-1.5zm5.6-.2c0-.9.5-1.8 1-1.8s1 1.1 1 1.8c0 .9-.6 1.5-1 1.5-.5-.1-1-.7-1-1.5z" stroke-linejoin="round"/><path stroke="#FFF" stroke-width="2.01" d="M183 50.9c.2-1 .8-1.8 1.2-1.7.4.1.5 1.3.3 2-.1.9-.7 1.4-1.1 1.3-.4 0-.6-.8-.4-1.6z" stroke-linejoin="round"/><path stroke="#FFF" stroke-width="2.01" d="M181.1 50.6c.1-.9.7-1.8 1.2-1.7.6 0 .9 1.2.8 1.9-.1.9-.6 1.5-1.1 1.4-.5 0-1-.7-.9-1.6zm-2.8.3c-.3-1-.9-1.7-1.3-1.6-.4.1-.5 1.3-.3 2 .2.8.8 1.3 1.2 1.2.3 0 .6-.8.4-1.6z" stroke-linejoin="round"/><path stroke="#FFF" stroke-width="2.01" d="M177.6 50.7c0-.9.5-1.8 1-1.8.6 0 1 1.1 1 1.8 0 .9-.5 1.5-1 1.5-.4.1-1-.6-1-1.5z" stroke-linejoin="round"/><path stroke="#FFF" stroke-width="2.01" d="M179.1 51.1c0-1 .6-1.9 1.2-1.9.7 0 1.2 1.1 1.2 1.9 0 .8-.6 1.5-1.2 1.5s-1.2-.6-1.2-1.5zm.5-11c-.2.8-.9 1.5-.4 2.6-.9-.3-1.7-.4-2.4.4.9-.1 1.7.2 2.1.8-.8-.1-1.2.3-1.4.8.7-.2 1.4-.4 1.7-.3-.3.3-.8.8-.9 1.2.6-.5 1.3-.4 1.7-.7-.3.7.3 1.4.8 2.1-.1-1 .5-1.7.2-2.2.9.2 1 1 2.3 1-.5-.3-.8-1.3-1.4-1.3.3-.1 1.5-.2 1.7 0-.2-.4-.9-.8-1.3-.8.4-.4 1.1-1.2 1.6-1.4-.7.1-1.8.2-2.2.8 1-.8.8-2.3 1.9-2.5-.6-.1-1.5.3-2.2 1 .3-.6.3-1.4.7-1.6-.8.2-1.7 1.2-2 1.7.1-.5-.2-1.3-.5-1.6zm.5 1.6c0 .3 0 .9-.1 1.1m1.4-1.2c-.2.2-.6.9-.6 1.5" stroke-linejoin="round"/><path fill="none" stroke="#FFF" stroke-width="2.01" d="M182 42.8c-.3.2-.6.5-.7.9" stroke-linejoin="round"/><path fill="#FCEA83" stroke="#000" stroke-width=".29" d="M149.5 111.3c.6 1.6 4.9 3.7 9.9 1 3.4-1.9 5.6-4.6 7.7-9.4.6-1.2.9-2.7-.5-3.6-1.1-.8-2.9-1.7-3.7-2.5l-1.1-1c.2.2.4.4.6.7 2 2.4-.1 5.9-2.3 8-1.6 1.5-4.5 5.2-8.7 1.7-.9-.8-3 2.5-1.9 5.1zm61 0c-.7 1.6-5 3.7-9.9 1-3.4-1.9-5.6-4.6-7.8-9.4-.5-1.2-.8-2.7.6-3.6 1.1-.8 2.9-1.7 3.7-2.5.4-.4.7-.7 1.1-1-.2.2-.4.4-.6.7-2 2.4.1 5.9 2.2 8 1.6 1.5 4.6 5.2 8.8 1.7.9-.8 2.9 2.5 1.9 5.1z"/><path fill="#FCEA83" stroke="#000" stroke-width=".29" d="M180 119.9c8 0 20.4-3.6 27-16.3 1.1-2.1 0-3.2-1.3-3.9-1.4-.6-3.1-2-4-2.9 1.6 1.6 1.3 2.7.2 4.5-5.1 8.6-12.1 12.9-21.9 12.9-9.7 0-16.7-4.3-21.8-12.8-1.1-1.8-1.4-2.9.1-4.5-.8.9-2.6 2.3-4 2.9-1.3.7-2.4 1.8-1.3 3.9 6.6 12.7 19 16.3 27 16.2z"/><path fill="#DB161C" stroke="#000" stroke-width=".29" d="M161.5 103c-.2-1-1.5-.6-1.9.6-.5-.7-1-1.4-1.4-2.2-1.2-1.8-1.4-3 .3-4.7.8-.8 2.4-1.7 3.5-.7 2.3 1.8 1.1 5-.5 7zm37 0c.2-1 1.6-.6 2 .6.5-.7 1-1.4 1.4-2.2 1.2-1.8 1.4-3-.4-4.7-.7-.8-2.3-1.7-3.5-.7-2.3 1.8-1.2 5 .5 7zm-49 8.3c-1-1.5-1.8-5.4-2-6.4-.3-.9-.4-1.7.7-2.1 1.1-.4 2.1 1 2.6 2.2.5 1.2 1.3 3 2.2 5.2-2.2-1.3-4-.4-3.5 1.1zm61 0c.9-1.5 1.7-5.4 2-6.4.2-.9.4-1.7-.7-2.1-1.1-.4-2.1 1-2.6 2.2-.5 1.2-1.3 3-2.2 5.2 2.2-1.3 3.9-.4 3.5 1.1z"/><path fill="#FFF" stroke="#000" stroke-width=".29" d="M172.3 65.9c-1.3.3-2.2.4-3.4-.7-.8-.8-.6-2.2.2-2.7.9-.6 1.7-1 2.8-.7 1.1.3 4 3 3.3 3.1-.7 0-1.8.7-2.9 1zm3.1-4.8c.4-.3.9-.5 2.2-.6 1.2-.1 2.1-.1 2.4.8.4 1.1.7 2.4 1.5 3-.5.3-3 .6-3.9.1-1.2-.7-1.5-3-2.2-3.3zm8.6.1c.4-.3.9-.3 2.2-.2 1.3.1 1.8.2 2.1 1.1.3 1 0 2.3.6 3.2-.6.2-2.6.2-3.3-.5-1-.8-1-3.2-1.6-3.6z"/><path fill="#073163" stroke="#000" stroke-width=".29" d="M190 61.8c-.9-.2-1.5-.3-1.9 0 .5.6.1 3 1.1 3.8.7.5 2.5.6 2.9-.5.6-1 .6-2.5-2.1-3.3zm-10.3-1c.3-.3.9-.4 2.1-.4 1.3 0 2.1.2 2.5 1 .4 1 .3 2.3 1 3.1-.3.4-3 .4-3.8-.2-1.1-.7-1.2-3-1.8-3.5zm-8.5.9c0-.5.7-.6 2.5-.7 1.8-.2 1.9-.1 2.5 1.2.3.7.7 1.9 1.5 2.3-2.2.5-2.9.8-4.1.1-.9-.5-1.9-1.7-2.1-2.2-.1-.3-.1-.7-.3-.7z"/><path fill="#F9D050" stroke="#000" stroke-width=".13" d="M176 51.4c-2.1-1.6-4.6-3.1-6.9-3.4 1.5.9 5.7 4.2 6.8 5.3m1.3-3.4c-2.5-1.7-5.4-3.6-8.2-3.8 2.1 1.1 5.2 3.7 6.9 5.9m4.5-4.8c1.4-3.1 2.9-4.9 4.9-6.8-1 2.1-2.1 6.4-2.6 8.2"/><path fill="#F9D050" stroke="#000" stroke-width=".13" d="M182.6 46.6c1-2.2 2.5-4.1 5.1-5.3-1.3 1.3-3.3 5.2-3.8 7.3"/><path fill="#F9D050" stroke="#000" stroke-width=".13" d="M183.6 48.6c1.2-1.7 3.6-4.9 7.9-6.6-2.5 2.5-6.2 7.1-7.1 8.9m.5-.1c1.8-1 5.4-2.6 8-2.1-1.6.6-6.4 2.8-8.5 4.8"/><path fill="#F9D050" stroke="#000" stroke-width=".13" d="M184.5 50.1c1.7-1.8 4.8-4.5 8.1-5.6-2.4 2.3-7.5 7.5-8.2 8.3m-4.7-3.8c-1.2-3.7-3-7.2-5.7-8.3 1.5 2.2 3.4 5.4 4.4 10.2m-1-2c-2-2.4-4.7-4.8-7.8-5.3 2.1 1.2 5.6 4.7 6.9 8.2"/><path fill="#F9D050" stroke="#000" stroke-width=".13" d="M178.5 48.8c-2.5-4.5-4.4-5.3-5.5-6.2.9 1.7 3.1 6.2 4.4 8.1"/><path fill="none" stroke="#000" stroke-width=".13" d="M173.5 48.5c1.2.7 3 2.4 3.6 3.5"/><path fill="#F9D050" stroke="#000" stroke-width=".13" d="M173.5 50.6c.6.5 1.7 1.1 2.7 2m9.2-.5c1-.8 3.2-2.1 4.3-2.5m-5 1.8c1-1.3 3-3.1 3.7-3.7m-.9-2.5c-.9 1-3 3.5-3.8 4.7m1.2-5.6c-.7.9-2.1 3.5-2.5 4.4m-5.4-4.2c.6 1.6 1.7 4.3 2.1 5.4m-3-3.7c.4.6 1.2 2 1.5 3m1.9-3.5c0-.9.6-1.9 1.2-1.9.7 0 1.2 1.2 1.2 1.9 0 .8-.6 1.5-1.2 1.5-.5 0-1.2-.6-1.2-1.5z"/><path fill="#F9D050" stroke="#000" stroke-width=".13" d="M178.2 46.5c.1-1 .8-1.8 1.4-1.7.6.1.9 1.3.8 2-.1.8-.8 1.4-1.3 1.3-.5 0-1-.7-.9-1.6zm2.7.3c-.2-.9.2-1.9.8-2 .6-.1 1.2.9 1.3 1.7.2.8-.3 1.6-.8 1.6-.5.1-1.2-.4-1.3-1.3z"/><path fill="#F9D050" stroke="#000" stroke-width=".13" d="M179.4 47.6c0-1 .6-1.9 1.2-1.9.7 0 1.2 1.1 1.2 1.9 0 .8-.6 1.5-1.2 1.5s-1.2-.6-1.2-1.5z"/><path fill="#F9D050" stroke="#000" stroke-width=".13" d="M177.6 48.1c0-.9.7-1.9 1.3-1.9.6 0 1.2 1.2 1.2 1.9 0 .8-.7 1.5-1.2 1.5-.6 0-1.3-.6-1.3-1.5zm3.7-.4c0-.9.6-1.9 1.2-1.9.7 0 1.2 1.2 1.2 1.9 0 .8-.6 1.5-1.2 1.5s-1.1-.6-1.2-1.5z"/><path fill="#F9D050" stroke="#000" stroke-width=".13" d="M180.9 48.5c0-1 .7-1.9 1.3-1.9s1.2 1 1.2 1.9c0 .8-.6 1.5-1.2 1.5s-1.3-.6-1.3-1.5z"/><path fill="#F9D050" stroke="#000" stroke-width=".13" d="M179.3 49.5c0-1 .6-1.9 1.2-1.9.7 0 1.2 1.2 1.2 1.9 0 .8-.6 1.5-1.2 1.5-.6-.1-1.2-.6-1.2-1.5zm-2.5 0c0-1 .5-1.9 1-1.9s.9 1.2.9 1.9c0 .8-.5 1.5-.9 1.5-.5-.1-1-.6-1-1.5zm5.6-.2c0-.9.5-1.8 1-1.8s1 1.1 1 1.8c0 .9-.6 1.5-1 1.5-.5-.1-1-.7-1-1.5z"/><path fill="#F9D050" stroke="#000" stroke-width=".13" d="M183 50.9c.2-1 .8-1.8 1.2-1.7.4.1.5 1.3.3 2-.1.9-.7 1.4-1.1 1.3-.4 0-.6-.8-.4-1.6z"/><path fill="#F9D050" stroke="#000" stroke-width=".13" d="M181.1 50.6c.1-.9.7-1.8 1.2-1.7.6 0 .9 1.2.8 1.9-.1.9-.6 1.5-1.1 1.4-.5 0-1-.7-.9-1.6zm-2.8.3c-.3-1-.9-1.7-1.3-1.6-.4.1-.5 1.3-.3 2 .2.8.8 1.3 1.2 1.2.3 0 .6-.8.4-1.6z"/><path fill="#F9D050" stroke="#000" stroke-width=".13" d="M177.6 50.7c0-.9.5-1.8 1-1.8.6 0 1 1.1 1 1.8 0 .9-.5 1.5-1 1.5-.4.1-1-.6-1-1.5z"/><path fill="#F9D050" stroke="#000" stroke-width=".13" d="M179.1 51.1c0-1 .6-1.9 1.2-1.9.7 0 1.2 1.1 1.2 1.9 0 .8-.6 1.5-1.2 1.5s-1.2-.6-1.2-1.5zm.5-11c-.2.8-.9 1.5-.4 2.6-.9-.3-1.7-.4-2.4.4.9-.1 1.7.2 2.1.8-.8-.1-1.2.3-1.4.8.7-.2 1.4-.4 1.7-.3-.3.3-.8.8-.9 1.2.6-.5 1.3-.4 1.7-.7-.3.7.3 1.4.8 2.1-.1-1 .5-1.7.2-2.2.9.2 1 1 2.3 1-.5-.3-.8-1.3-1.4-1.3.3-.1 1.5-.2 1.7 0-.2-.4-.9-.8-1.3-.8.4-.4 1.1-1.2 1.6-1.4-.7.1-1.8.2-2.2.8 1-.8.8-2.3 1.9-2.5-.6-.1-1.5.3-2.2 1 .3-.6.3-1.4.7-1.6-.8.2-1.7 1.2-2 1.7.1-.5-.2-1.3-.5-1.6zm.5 1.6c0 .3 0 .9-.1 1.1m1.4-1.2c-.2.2-.6.9-.6 1.5"/><path fill="none" stroke="#000" stroke-width=".13" d="M182 42.8c-.3.2-.6.5-.7.9"/><path fill="#059334" stroke="#000" stroke-width=".29" d="M171.4 52.7c-.7 0-1.3-.3-1.7-.8-.7-.9-2.6-1.3-3.4-.5-.3.2-.7.2-1 .3-.5 0-1.1.5-.9 1.5.4-.3.5 0 .8 0 .2-.1.1.1.1.3 0 .5 1.1 1.5 2.1 1.4 1.1 0 1.6.4 1.8.6.3.3.1.2.3.7.3.3.4.4-.1.8-.7.6-1.2 2 0 3.1 1.3 1 4.6 2.5 8.3-.4 3.6-2.8 9.2-1.2 9.6-.2.5 1 .7 1.6.8 2.1.1.4.6.8 1.3.7.7 0 1.5.3 1.9.6.5.3 1.2.2 1-.7-.4-2.8-2.1-3.2-2.3-4.5 1 .1 1.7.1 2.1-.3.3-.4.7-1.1 1.1-1.3.3-.2.3-.4-.1-.3-.5.1-.8.3-1.7.2-4.6-.5-17.5-4-20-3.3z"/><path stroke="#000" stroke-width=".29" d="M191.9 56.2c-.5.3-1 .8-1.9 2-1 1.3-4 2.6-7.7 2.6-3.6 0-5.8-.6-7.4-1.9-.9-.7-1.6-1.1-2.2-1.4-1.1-.5-1.3-1.6-1-2.5-.3.5-.5 1-1.1.9-.4 0-1.2 0-1 .4-.1-.2-.1-.5-.2-.6l-.2-.2c.3.2 1-.4 1.5-.4.4.1.9-.4.8-1l-.3-1.3c.8-.4 11.3 1.5 13.4 1.7 2 0 8.1.9 7.3 1.7z"/><path fill="#059334" stroke="#000" stroke-width=".29" d="M172.8 52.3c1-1 2.2-1.5 3.4-1.2h.3c.6-.5 2-.6 2.8-.2h.4c1.2-.4 3.5 0 4.3.8l.3.2c2.7-.2 4.3 1 6.2 2.9.2.2.5.6 1 .7.6.1.7.4.2.7-.6.3-1.1.8-2.1 1.9-.9 1.2-3.8 2.4-7.4 2.4-3.5 0-5.6-.6-7.2-1.8-.9-.7-1.6-1.1-2.1-1.4-.6-.2-1.4-1-1.1-1.8.2-.8-.3-1.8-.7-2.8.3-.2 1.1-.5 1.5-.3l.2-.1z"/><path fill="#00493D" stroke="#000" stroke-width=".29" d="M190.5 54.9c-1.9-1.9-3.5-3.1-6.2-2.9 0 .1 0 .4-.1.6 1.6.6 3.9 2.4 4.9 3.7.5-.5 1.1-.9 1.4-1.4zm-6.5-3.1c-.8-.8-3.1-1.3-4.3-.8 0 .4 0 1-.2 1.4.7.3 1.3 1 1.9 1.7l1.9-.5c.2-.5.6-1.4.7-1.8zm-4.7-.9c-.8-.4-2.2-.3-2.8.2-.2.4-.3 1.2-.3 1.6.4 0 1 .3 1.2.5.6-.2 1.4-.6 1.7-.9.1-.3.3-.9.2-1.4zm-6.5 1.4c1-1 2.2-1.5 3.4-1.2-.2.3-.3.9-.3 1.5-1.1-.1-2.5.2-3.1.6v-.9zm15.9 4.1c-.9-1.3-3.1-2.8-4.6-3.5 0 .1-.2.5-.3.8.6.9 1.8 2.9 2.3 4 .5-.2 1.9-.8 2.6-1.3zm-7.6 2.3c.2-1.4.3-3.4.3-4.1.5-.1 1.5-.4 1.9-.5.5.8 1.7 2.9 2.2 3.9-1.2.2-3.2.7-4.4.7zm-3.5-4.8c.5-.2 1.2-.6 1.7-1 .4.3 1.3 1 1.5 1.4 0 .9-.3 3.5-.4 4.4-.8 0-2.1-.2-2.8-.6.1-1.5.2-3.3 0-4.2zm-5 1.1c.1-.2.2-.9.2-1.2.8-.5 2.8-1 4.3-.2.1 1 0 3.5-.1 4.1-1.3-.9-3.4-2.4-4.4-2.7z"/><path d="M167.6 53.2c-.2 0-.3-.6-.7-.6-.1 0-.4.1-.5 0 0 .2.1.4.2.5.1.3.6.1 1 .1z"/><path fill="none" stroke="#000" stroke-width=".29" d="M167.6 54.9c1.2 0 1.4-1.5 2-1.6m-1.3 1.7c.9.4 1.6-1.7 2.3-1.6m-4.1-.9c.3 0 .5-.4 1 .1.2.2.5.3.7.3m-.2 1c-.4.6-1.1 1-1.5.8m-.2-3.3c-.3.2-.5.6-.7.9m-.3.6v.5"/><path fill="#FFF" d="M198.8 66v19.5c0 16.9-8 22.8-18.7 27.4-10.7-4.6-18.8-10.4-18.8-27.4V66h37.5z"/><path fill="#CF142B" d="M180 82.5c.9 0 2.3-.8 3.6-2 1.3-1.4 3.5-1.9 5.8 0s3.7 1.1 4.9 0c1.2-1.1 2.2-1.5 4.5-1.5V66h-37.6v13c2.3 0 3.3.4 4.5 1.5 1.2 1.1 2.6 1.9 4.9 0 2.4-1.9 4.5-1.4 5.9 0 1.1 1.2 2.5 2 3.5 2z"/><path fill="#0B50A0" d="M180 92.5c1.3 0 3.6-1.3 4.2-1.6 2.2-1.3 3.8-.1 5.1.5 1.4.6 4 1.3 5.6 0 1.6-1.3 2.5-1.2 3.6-1.2.2-1.5.2-3 .2-4.7v-1.2c-1.4-.3-2.1.1-3.6 1.4-1.5 1.3-3.2 1-5.4.2-2.1-.9-4.2-2.5-6.3 0-.6.7-2 1.7-3.4 1.7-1.5 0-2.8-1-3.4-1.7-2.2-2.5-4.2-.9-6.3 0-2.2.8-4 1.1-5.5-.2-1.4-1.3-2.1-1.7-3.6-1.4v1.2c0 1.7.1 3.2.3 4.7 1.1 0 1.9-.1 3.5 1.2s4.3.6 5.6 0c1.4-.6 3-1.8 5.2-.5.7.3 3 1.6 4.2 1.6zm0 4.4c1.5 0 3.3-.6 4.9-1.5 2-1.1 3.4-.6 5.4.4 2.1 1 3.8.7 5 0 .6-.4 1.1-1.3 2.4-.9-.6 2.5-1.5 4.7-2.6 6.5-2 .5-3.1.5-5.2-.4-2.1-1-4.7-1.6-6.1-.7-1.3.8-2.7 1.2-3.8 1.2-1.1 0-2.5-.4-3.8-1.2-1.4-.9-4-.3-6.1.7-2.1.9-3.2.9-5.2.4-1.1-1.8-2-4-2.6-6.5 1.3-.3 1.8.5 2.4.9 1.1.7 2.9 1 4.9 0 2.1-1 3.5-1.5 5.5-.4 1.6.8 3.4 1.5 4.9 1.5zm0 16c4-1.7 7.7-3.6 10.8-6.2-.8-.3-1.3-.1-2-.6s-2.8-.7-4.6.3c-1.9.9-2.7 1.1-4.1 1.1-1.4 0-2.2-.2-4.1-1.1-1.8-1-3.9-.8-4.6-.3-.7.5-1.2.3-2 .6 2.9 2.6 6.5 4.5 10.6 6.2z"/><path fill="#F9D050" d="M165.6 97.4l5-15.4 5 15.4-13.1-9.5h16.3l-13.2 9.5zm18.8 0l5-15.4 5 15.4-13.1-9.5h16.3l-13.2 9.5zm-9.4 11l5-15.4 5 15.4-13.1-9.5h16.3l-13.2 9.5z"/><path fill="#024919" d="M166.6 96l10.4-7.6h-12.8l10.3 7.6-3.9-12.2-4 12.2zm18.9 0l10.4-7.6H183l10.3 7.6-3.9-12.2-3.9 12.2zm-9.5 11l10.4-7.6h-12.8l10.3 7.6-3.9-12.3-4 12.3z"/><path fill="none" stroke="#000" stroke-width=".29" d="M198.8 66v19.5c0 16.9-8 22.8-18.7 27.4-10.7-4.6-18.8-10.4-18.8-27.4V66h37.5z"/></svg>
