<svg xmlns="http://www.w3.org/2000/svg" width="240" height="160" viewBox="0 0 240 160"><path fill="#00AFCA" d="M0 0h240v160H0z"/><path fill="#FEC50C" d="M132.9 45.7c11.9 0 21.5 9.6 21.5 21.5s-9.6 21.5-21.5 21.5-21.5-9.6-21.5-21.5 9.6-21.5 21.5-21.5zm0-3c1.3 0 1.8-.8 1.8-1.8 0-1.3-1.8-7.4-1.8-7.4s-1.8 6.1-1.8 7.4c0 1 .5 1.8 1.8 1.8zm24.4 24.5c0 1.3.8 1.8 1.8 1.8 1.3 0 7.4-1.8 7.4-1.8s-6.1-1.8-7.4-1.8c-.9 0-1.8.5-1.8 1.8zm-24.4 24.5c-1.3 0-1.8.8-1.8 1.8 0 1.3 1.8 7.4 1.8 7.4s1.8-6.1 1.8-7.4c-.1-1-.5-1.8-1.8-1.8zm-24.5-24.5c0-1.3-.8-1.8-1.8-1.8-1.3 0-7.4 1.8-7.4 1.8s6.1 1.8 7.4 1.8c1 0 1.8-.5 1.8-1.8zm33.8-22.6c1.2.5 1.9-.1 2.3-1 .5-1.2 1.2-7.5 1.2-7.5s-4 5-4.4 6.1c-.4 1-.2 1.9.9 2.4zm13.3 32c-.5 1.2.1 1.9 1 2.3 1.2.5 7.5 1.2 7.5 1.2s-5-4-6.1-4.4c-1-.5-1.9-.3-2.4.9zm-32 13.2c-1.2-.5-1.9.1-2.3 1-.5 1.2-1.2 7.5-1.2 7.5s4-5 4.4-6.1c.4-1 .3-1.9-.9-2.4zm-13.2-32c.5-1.2-.1-1.9-1-2.3-1.2-.5-7.5-1.2-7.5-1.2s5 4 6.1 4.4c.9.5 1.9.3 2.4-.9zm39.9-7.9c.9.9 1.8.7 2.5 0 .9-.9 4-6.5 4-6.5s-5.6 3.1-6.5 4c-.7.7-.9 1.6 0 2.5zm0 34.6c-.9.9-.7 1.8 0 2.5.9.9 6.5 4 6.5 4s-3.1-5.6-4-6.5c-.7-.7-1.6-.9-2.5 0zm-34.6 0c-.9-.9-1.8-.7-2.5 0-.9.9-4 6.5-4 6.5s5.6-3.1 6.5-4c.6-.7.9-1.6 0-2.5zm0-34.6c.9-.9.7-1.8 0-2.5-.9-.9-6.5-4-6.5-4s3.1 5.6 4 6.5c.7.7 1.6.9 2.5 0zm39.9 7.9c.5 1.2 1.4 1.3 2.3.9 1.2-.5 6.1-4.4 6.1-4.4s-6.3.7-7.5 1.2c-.8.4-1.4 1.2-.9 2.3zm-13.3 32c-1.2.5-1.3 1.4-.9 2.3.5 1.2 4.4 6.1 4.4 6.1s-.7-6.3-1.2-7.5c-.3-.8-1.1-1.4-2.3-.9zm-31.9-13.2c-.5-1.2-1.4-1.3-2.3-.9-1.2.5-6.1 4.4-6.1 4.4s6.3-.7 7.5-1.2c.8-.4 1.4-1.2.9-2.3zm13.2-32c1.2-.5 1.3-1.4.9-2.3-.5-1.2-4.4-6.1-4.4-6.1s.7 6.3 1.2 7.5c.4.8 1.1 1.4 2.3.9zm14.1-1.4c1.3.2 1.9-.5 2.1-1.4.2-1.3-.3-7.6-.3-7.6s-2.9 5.6-3.2 6.9c-.1 1 .2 1.9 1.4 2.1zM156.9 72c-.2 1.3.5 1.9 1.4 2.1 1.3.2 7.6-.3 7.6-.3s-5.6-2.9-6.9-3.2c-1-.2-1.9.1-2.1 1.4zm-28.8 19.2c-1.3-.2-1.9.5-2.1 1.4-.2 1.3.3 7.6.3 7.6s2.9-5.6 3.2-6.9c.2-1-.1-1.9-1.4-2.1zm-19.2-28.8c.2-1.3-.5-1.9-1.4-2.1-1.3-.2-7.6.3-7.6.3s5.6 2.9 6.9 3.2c.9.2 1.8-.1 2.1-1.4zm37.6-15.5c1.1.7 1.9.3 2.5-.5.7-1.1 2.6-7.1 2.6-7.1s-4.9 4.1-5.6 5.2c-.5.7-.6 1.6.5 2.4zm6.7 33.9c-.7 1.1-.3 1.9.5 2.5 1.1.7 7.1 2.6 7.1 2.6s-4.1-4.9-5.2-5.6c-.7-.5-1.7-.6-2.4.5zm-33.9 6.7c-1.1-.7-1.9-.3-2.5.5-.7 1.1-2.6 7.1-2.6 7.1s4.9-4.1 5.6-5.2c.5-.7.5-1.6-.5-2.4zm-6.8-33.9c.7-1.1.3-1.9-.5-2.5-1.1-.7-7.1-2.6-7.1-2.6s4.1 4.9 5.2 5.6c.8.5 1.7.6 2.4-.5zm40.7 0c.7 1.1 1.7 1 2.5.5 1.1-.7 5.2-5.6 5.2-5.6s-6 1.9-7.1 2.6c-.9.6-1.3 1.4-.6 2.5zm-6.7 33.9c-1.1.7-1 1.7-.5 2.5.7 1.1 5.6 5.2 5.6 5.2s-1.9-6-2.6-7.1c-.6-.9-1.5-1.3-2.5-.6zm-34-6.7c-.7-1.1-1.7-1-2.5-.5-1.1.7-5.2 5.6-5.2 5.6s6-1.9 7.1-2.6c.9-.6 1.3-1.4.6-2.5zm6.8-33.9c1.1-.7 1-1.7.5-2.5-.7-1.1-5.6-5.2-5.6-5.2s1.9 6 2.6 7.1c.6.9 1.4 1.3 2.5.6zm37.6 15.5c.3 1.3 1.1 1.6 2.1 1.4 1.3-.2 6.9-3.2 6.9-3.2s-6.3-.5-7.6-.3c-1 .2-1.7.9-1.4 2.1zm-19.3 28.8c-1.3.3-1.6 1.1-1.4 2.1.2 1.3 3.2 6.9 3.2 6.9s.5-6.3.3-7.6c-.2-.9-.8-1.7-2.1-1.4zM108.9 72c-.3-1.3-1.1-1.6-2.1-1.4-1.3.2-6.9 3.2-6.9 3.2s6.3.5 7.6.3c.9-.2 1.6-.9 1.4-2.1zm19.2-28.8c1.3-.3 1.6-1.1 1.4-2.1-.2-1.3-3.2-6.9-3.2-6.9s-.5 6.3-.3 7.6c.2.9.8 1.7 2.1 1.4zm.9 70.6c-.6 0-1.1.1-1.7.3-1.1.1-1.4.4-3 .6.3 1.4-1 2-1.8 1.2-.7.2-1.1.1-1.7-.3-.5.3-1.2.6-1.5 1.2-.2.3-.2.5-.3.9 0 .4.1.8.2 1.1.1.1.1-.4.3-.4.3-.3.7-.4 1.1-.5.3-.2.3 0 .1.3 0 .1-.2.6 0 .4 1.1-.5 2.3-.6 3.5-.7 1.7-.2 3.4-.2 5.1-.2 1.6 0 3.2 0 4.8.1.8 0 1.5.2 2.3.1.2 0 .5-.1.6-.2-.3-.2-.7-.2-1.1-.3h-3.1c-.8-.1-1.7-.1-2.5-.4-.2-.1-.4-.3-.6-.1-.3.1-.6.2-.9.2-.6 0-1.1-.1-1.6-.3l1.2-1.5c-.3-.1-.7-.1-1-.2.5-.4 1.1-.8 1.6-1.3zm25 5.6c-1.2.7-2-.5-3-.9-.7.4-.8 1.6-1.4 2.2-.8.9-1.7-.2-1.7-1.1-.9.8-1.4 2.5-2.9 2.3-.7-.6-1.2-1.8-1.8-.4-.4.7-1.6 1.6-2.2.6-.2-.9-.6-2-1.1-.5-.3 1-1.4 1.8-2.5 1.3-.6-.5.5-2.2-.3-2.1-1.1.7-1.7 2.5-3.2 2.4-.6-.7.4-1.8-.3-2.5-.8 1-1.6 2.4-2.9 2.5-.6-.5 0-2-.4-2.2-1.4.8-2.8 2.3-4.5 1.8.7-2.5 3.4-3.4 5.8-3.6 4-.5 8.2.4 12.1-1 .6-.4 2.1-.9 1.6-1.8-.5-.7 1.2-.4 1.4-1.2-.1-1 .8-.9 1.7-1 3.9-.2 7.8.7 11.6.8.3 1.9-1.8 3.2-3.5 2.6-.8.1-2-1.9-1.8-.4-.2.7-.1 1.7-.7 2.2m-33.2-3.9c.9.8 1.5-.2 2.4-.5 2.8-1 5.3-2.7 7.7-4.4 1.5-1.2 2.8-2.8 4.7-3.2 3.9-1.2 8-1 11.9-2.1 3-4 8-5.5 12.2-7.8.9-.3 1.3-1.1 1.6-1.9 1.6-2.5 3.8-4.8 6.4-6.3 1.2-.7 2.7-1.1 4.1-.7-.1 1.6-1 3.1-2.2 4.3.9 0 1.7-.6 2.7-.6.3 1.7-1.5 2.6-2.5 3.6.5.1 2.6.3 1.5.8-1.4 1-3.1 1.7-4.4 2.8 1.2.2 1.4.5.1.9-.7.5-2 .6-2.1 1.5.9.6-.4 1.1-.9 1.3-1 .2-2 .7-.7 1.4-.5.8-1.6.9-2.5.8.3.9.7 1.8-.5 2.2-2.5 1.9-5.4 3.3-8.6 3.6 3.9.3 8-.4 11.3-2.6.4-.5 2.8-1.1 1.5-1.5-.6-.3-1.9-.5-2-1 1.8-1.1 4.1-.7 6.1-1.4.1-.6-1.5-.5-2.1-.6-1.4-.1-1.3-.5 0-.6 1.7-.4 3.6-.5 5-1.6-1.1-.5-2.6-.1-3.8-.5 2.1-.9 4.5-1 6.4-2.4.8-.9-1.1-.6-1.6-.6-1.1.2-1.7-.3-.4-.8 2.2-1.6 5-2.7 6.6-5.1.4-.5.9-2.1-.3-1.6-1.5.5-2.9 2.3-4.7 1.7 3.5-2.7 6.8-5.8 9.2-9.5.1-1.1-1.6-1.2-2-.3-2.2 2.2-4.3 4.7-7.1 6 2.7-2.6 5-5.8 7-9 .4-1 1.6-2.1.9-3.2-1-.8-2.2-.1-2.8.9-1.7 2.3-3.1 4.9-5.3 6.8 2-3.7 4-7.7 4-12 0-.9-.2-2.2-1.4-2-1 .2-.7 1.6-1.1 2.3-.9 2.9-1.3 6.1-3 8.7.4-2.4 1.1-4.9.6-7.3-.3-1.1-2-.6-1.8.5-2.1 10.5-9.2 19.8-18.4 25.1-4.2 2.4-9 3.9-13.8 4.6-1.3.3-2.7.1-3.9.6-3 2.3-4.8 6.1-8.6 7.3-1.7.8-3.9 1-5.1 2.6-.3.3-.3.6-.3.8m11.3-10.7c-.6 1-.9 2.2-1.6 3.1-2.2-2-5.3-1.9-8.1-2-2.3-.1-4.7-.3-6.5-1.9-1.8-1.5-3.4-3.5-5.4-4.7-1.9-.5-3.8-1.2-5.3-2.4-3.2-2.6-5.1-6.5-8.2-9.3-.6-.6-1.3-1.1-2-1.6-.6.2-.4 1.5-1.1.8-.4-.3-1.5-.3-1.6.1 1 1.3 1.9 2.7 2.1 4.4-.7.1-1.8-.1-2.2.1.9 1.3 2 2.5 3.3 3.4-.6.1-1.8 0-2.1.3 1.3 1 2.6 2.1 4.3 2.4.3.4-.5 1.3.2 1.7.4.2 1.8.4.8.9-.6.4-.4 1.4.4 1.4.5.3 1.7.3 1.8.8-.5.5-1.9 1-.7 1.4 1.1.6 2.4 1 3.7 1.1-.6.5-1.4.9-2.1 1.4 3 1.7 6.3 2.9 9.5 4 1.3.4 2.6.8 3.9 1.1-3.9-.2-7.7-1.4-11.2-3-1.8-.8-3.7-1.6-5.6-2.3.8-.4 1.8-.5 2.6-.9-1.8-.4-3.7-.5-5.3-1.5.2-.4 1.1-.4 1.7-.7.9-.2 1.5-.5.2-.6-1.3-.4-2.9-.2-4.1-1 .1-.5 1.3-.3 1.8-.5.6-.1 1.3-.2 1.9-.6-2.1-.9-4.8-.3-6.4-2.1-.4-.7 1.2-.1 1.6-.3 1.1 0 2.3.4 3.4-.1-3-1.3-6.3-2.6-8.6-5-.3-.4-1-1.5-.4-1.6 1.8.2 3.1 2.2 5 1.9.3-.3-1.1-.9-1.5-1.4-2.8-2.4-5.5-5-7.5-8.2-.1-1.1 1.5-1.2 2-.4 2.1 2.1 4.1 4.5 6.8 5.9.9.5-.5-.5-.7-.9-2.5-2.9-4.8-5.9-6.5-9.3-.3-.6-.8-1.7.1-2 .9-.5 1.8.2 2.3 1 1.8 2.3 3.2 5 5.4 6.9-1.9-3.7-4-7.7-4-12 0-.8.1-2.1 1.2-2.1.9-.1.8 1.1 1.1 1.7.9 3.2 1.3 6.6 3.2 9.4-.4-2.3-1-4.8-.6-7.1.1-.8 1-1 1.5-.5.5 1.1.6 2.5 1 3.8 2.4 8.2 7.8 15.5 14.9 20.4 5.8 4 12.7 6.4 19.7 6.8.7-.3 1.3-.2 1.9-.2m-8.5 10.5c0 .5-.8.5-.8 0s.8-.5.8 0zM27.9 59.4c.6-1.3.9-2.2.9-3.5 0-2.2-1.4-4-4.1-4.2 2.7-.2 4.1-2 4.1-4.2 0-1.4-.3-2.2-.9-3.5 0 0-5.1-10.6-7.1-14.7-.2-.5-.3-1.1-.3-1.9 0-1.3 1.3-2.4 2.6-2.4 1.2 0 2.5 1.1 2.5 2.5 0 1.6-.8 2.3-1.7 2.3-1.1 0-1.5-.4-1.5-1.2 0-.5.3-.7.6-.7.9 0 .7 1.2.7 1.2.5-.1.8-.6.6-1.1.3-.1.6-.2.9-.5-.2-.2-.5-.4-.9-.5.2-.7-.1-1-.7-1.2.1.3.1.5.1.8-1-.3-2.4.2-2.4 1.8 0 1.7 1.2 3.1 3.3 2.7-.5.2-.8.7-.8 1.3.4-.2.8-.2.8-.2-.3.4-.6.8-.6 1.7.4-.2.8-.5 1.3-.3-.8 1.6.2 3.8 2.7 4.3-.9-1.1-1.4-2.2-1.4-3.4 0-3.8 1-4.4 1-7 0-1.1-.6-2.2-1.6-3 .7-.2 1.2-.6 1.4-1-.5-.7-.8-.9-1.7-.9 1-.5 1.9-1.6 1.9-3.2 0-2.6-1.1-3.6-1.1-6.6 0-1.6 1.3-3.7 1.3-3.7-2.3.2-3.5 2.4-2.8 4.1-.4.1-.7 0-1-.3-.2.5.1 1 .5 1.5-.3.2-.5.1-1 0 0 .5.3 1 1.1 1.5-2.1-.5-3.4.9-3.4 2.5 0 1.2.8 2 1.6 2 .3 0 .6-.1.8-.3.1.3.1.7-.1 1.1.6-.2 1-.5.7-1.2.4 0 .8-.2 1-.5-.2-.3-.6-.5-1-.5.3-.7 0-1-.6-1.4 0 0 .3 1.4-.5 1.4-.4 0-.7-.1-.7-.7 0-.5.4-1.2 1.4-1.1s1.8.7 1.8 2.3c0 1.5-1.2 2.2-2.8 2.3-1.4 0-2.5-.7-2.5-2.2 0-1.9 2.8-6.4 2.8-8.1 0-1.3-1.2-2-2.3-2-.7 0-1.4.3-1.9.7-.5-.4-1.1-.7-1.9-.7-1.1 0-2.3.7-2.3 2 0 1.7 2.8 6.2 2.8 8.1 0 1.5-1.1 2.2-2.5 2.2-1.6 0-2.8-.8-2.8-2.3 0-1.6.8-2.2 1.8-2.3 1 0 1.4.6 1.4 1.1 0 .6-.4.7-.7.7-.9 0-.5-1.4-.5-1.4-.5.3-.9.7-.6 1.4-.4 0-.8.2-1 .5.2.3.6.4 1 .5-.3.7.1 1.1.7 1.2-.2-.3-.2-.7-.1-1.1.2.2.6.3.8.3.8 0 1.6-.8 1.6-2 0-1.5-1.3-3-3.4-2.5.7-.5 1-1 1.1-1.5-.5.1-.7.2-1 0 .4-.5.6-1 .5-1.5-.3.3-.6.4-1 .3.7-1.7-.5-3.9-2.8-4.1 0 0 1.3 2.1 1.3 3.7 0 2.9-1.1 4-1.1 6.6 0 1.7 1 2.7 1.9 3.2-.9.1-1.2.3-1.7.9.3.5.7.8 1.4 1-1.1.8-1.6 2-1.6 3 0 2.6 1 3.2 1 7 0 1.2-.5 2.3-1.4 3.4 2.5-.5 3.5-2.7 2.7-4.3.5-.2.9.1 1.3.3 0-.9-.3-1.3-.6-1.7 0 0 .4 0 .8.2-.1-.6-.3-1.1-.8-1.3 2.2.3 3.3-1 3.3-2.7 0-1.7-1.5-2.1-2.4-1.8 0-.2 0-.5.1-.8-.6.1-.9.5-.7 1.2-.4.1-.6.2-.9.5.2.3.6.5.9.5-.2.6.2 1 .6 1.1 0 0-.3-1.2.7-1.2.4 0 .6.2.6.7 0 .7-.4 1.2-1.5 1.2-.9 0-1.7-.7-1.7-2.3 0-1.3 1.3-2.5 2.5-2.5 1.3 0 2.6 1.1 2.6 2.4 0 .9-.1 1.4-.3 1.9C15 33.4 9.9 44 9.9 44c-.6 1.3-.9 2.2-.9 3.5 0 2.2 1.4 4 4.1 4.2-2.7.2-4.1 2-4.1 4.2 0 1.4.3 2.2.9 3.5 0 0 5.1 10.6 7.1 14.7.2.5.3 1.1.3 1.9 0 1.3-1.3 2.4-2.6 2.4-1.2 0-2.5-1.1-2.5-2.5 0-1.6.8-2.3 1.7-2.3 1.1 0 1.5.4 1.5 1.2 0 .5-.3.7-.6.7-.9 0-.7-1.2-.7-1.2-.5.1-.8.6-.6 1.1-.3.1-.6.2-.9.5.2.2.5.4.9.5-.2.7.1 1 .7 1.2-.1-.3-.1-.5-.1-.8 1 .3 2.4-.2 2.4-1.8 0-1.7-1.2-3.1-3.3-2.7.5-.2.8-.7.8-1.3-.4.2-.8.2-.8.2.3-.4.6-.8.6-1.7-.4.2-.8.5-1.3.3.8-1.6-.2-3.8-2.7-4.3.9 1.1 1.4 2.2 1.4 3.4 0 3.8-1 4.4-1 7 0 1.1.6 2.2 1.6 3-.7.2-1.2.6-1.4 1 .3.5.7.8 1.4 1-1.1.8-1.6 2-1.6 3 0 2.6 1 3.2 1 7 0 1.2-.5 2.3-1.4 3.4 2.5-.5 3.5-2.7 2.7-4.3.5-.2.9.1 1.3.3 0-.9-.3-1.3-.6-1.7 0 0 .4 0 .8.2-.1-.6-.3-1.1-.8-1.3 2.2.3 3.3-1 3.3-2.7 0-1.7-1.5-2.1-2.4-1.8 0-.2 0-.5.1-.8-.6.1-.9.5-.7 1.2-.4.1-.6.2-.9.5.2.3.6.5.9.5-.2.6.2 1 .6 1.1 0 0-.3-1.2.7-1.2.4 0 .6.2.6.7 0 .7-.4 1.2-1.5 1.2-.9 0-1.7-.7-1.7-2.3 0-1.3 1.3-2.5 2.5-2.5 1.3 0 2.6 1.1 2.6 2.4 0 .9-.1 1.4-.3 1.9-2 4.1-7.1 14.7-7.1 14.7-.6 1.3-.9 2.2-.9 3.5 0 2.2 1.4 4 4.1 4.2-2.7.2-4.1 2-4.1 4.2 0 1.4.3 2.2.9 3.5 0 0 5.1 10.6 7.1 14.7.2.5.3 1.1.3 1.9 0 1.3-1.3 2.4-2.6 2.4-1.2 0-2.5-1.1-2.5-2.5 0-1.6.8-2.3 1.7-2.3 1.1 0 1.5.4 1.5 1.2 0 .5-.3.7-.6.7-.9 0-.7-1.2-.7-1.2-.5.1-.8.6-.6 1.1-.3.1-.6.2-.9.5.2.2.5.4.9.5-.2.7.1 1 .7 1.2-.1-.3-.1-.5-.1-.8 1 .3 2.4-.2 2.4-1.8 0-1.7-1.2-3.1-3.3-2.7.5-.2.8-.7.8-1.3-.4.2-.8.2-.8.2.3-.4.6-.8.6-1.7-.4.2-.8.5-1.3.3.8-1.6-.2-3.8-2.7-4.3.9 1.1 1.4 2.2 1.4 3.4 0 3.8-1 4.4-1 7 0 1.1.6 2.2 1.6 3-.7.2-1.2.6-1.4 1 .5.7.8.9 1.7.9-1 .5-1.9 1.6-1.9 3.2 0 2.6 1.1 3.6 1.1 6.6 0 1.6-1.3 3.7-1.3 3.7 2.3-.2 3.5-2.4 2.8-4.1.4-.1.7 0 1 .3.2-.5-.1-1-.5-1.5.3-.2.5-.1 1 0 0-.5-.3-1-1.1-1.5 2.1.5 3.4-.9 3.4-2.5 0-1.2-.8-2-1.6-2-.3 0-.6.1-.8.3-.1-.3-.1-.7.1-1.1-.6.2-1 .5-.7 1.2-.4 0-.8.2-1 .5.2.3.6.5 1 .5-.3.7 0 1 .6 1.4 0 0-.3-1.4.5-1.4.4 0 .7.1.7.7 0 .5-.4 1.2-1.4 1.1-1 0-1.8-.7-1.8-2.3 0-1.5 1.2-2.2 2.8-2.3 1.4 0 2.5.7 2.5 2.2 0 1.9-2.8 6.4-2.8 8.1 0 1.3 1.2 2 2.3 2 .7 0 1.4-.3 1.9-.7.5.4 1.1.7 1.9.7 1.1 0 2.3-.7 2.3-2 0-1.7-2.8-6.2-2.8-8.1 0-1.5 1.1-2.2 2.5-2.2 1.6 0 2.8.8 2.8 2.3 0 1.6-.8 2.2-1.8 2.3-1 0-1.4-.6-1.4-1.1 0-.6.4-.7.7-.7.9 0 .5 1.4.5 1.4.5-.3.9-.7.6-1.4.4 0 .8-.2 1-.5-.2-.3-.6-.4-1-.5.3-.7-.1-1.1-.7-1.2.2.3.2.7.1 1.1-.2-.2-.6-.3-.8-.3-.8 0-1.6.8-1.6 2 0 1.5 1.3 3 3.4 2.5-.7.5-1 1-1.1 1.5.5-.1.7-.2 1 0-.4.5-.6 1-.5 1.5.3-.3.6-.4 1-.3-.7 1.7.5 3.9 2.8 4.1 0 0-1.3-2.1-1.3-3.7 0-2.9 1.1-4 1.1-6.6 0-1.7-1-2.7-1.9-3.2.9-.1 1.2-.3 1.7-.9-.3-.5-.7-.8-1.4-1 1.1-.8 1.6-2 1.6-3 0-2.6-1-3.2-1-7 0-1.2.5-2.3 1.4-3.4-2.5.5-3.5 2.7-2.7 4.3-.5.2-.9-.1-1.3-.3 0 .9.3 1.3.6 1.7 0 0-.4 0-.8-.2.1.6.3 1.1.8 1.3-2.2-.3-3.3 1-3.3 2.7 0 1.7 1.5 2.1 2.4 1.8 0 .2 0 .5-.1.8.6-.1.9-.5.7-1.2.4-.1.6-.2.9-.5-.2-.3-.6-.5-.9-.5.2-.6-.2-1-.6-1.1 0 0 .3 1.2-.7 1.2-.4 0-.6-.2-.6-.7 0-.7.4-1.2 1.5-1.2.9 0 1.7.7 1.7 2.3 0 1.3-1.3 2.5-2.5 2.5-1.3 0-2.6-1.1-2.6-2.4 0-.9.1-1.4.3-1.9 2-4.1 7.1-14.7 7.1-14.7.6-1.3.9-2.2.9-3.5 0-2.2-1.4-4-4.1-4.2 2.7-.2 4.1-2 4.1-4.2 0-1.4-.3-2.2-.9-3.5 0 0-5.1-10.6-7.1-14.7-.2-.5-.3-1.1-.3-1.9 0-1.3 1.3-2.4 2.6-2.4 1.2 0 2.5 1.1 2.5 2.5 0 1.6-.8 2.3-1.7 2.3-1.1 0-1.5-.4-1.5-1.2 0-.5.3-.7.6-.7.9 0 .7 1.2.7 1.2.5-.1.8-.6.6-1.1.3-.1.6-.2.9-.5-.2-.2-.5-.4-.9-.5.2-.7-.1-1-.7-1.2.1.3.1.5.1.8-1-.3-2.4.2-2.4 1.8 0 1.7 1.2 3.1 3.3 2.7-.5.2-.8.7-.8 1.3.4-.2.8-.2.8-.2-.3.4-.6.8-.6 1.7.4-.2.8-.5 1.3-.3-.8 1.6.2 3.8 2.7 4.3-.9-1.1-1.4-2.2-1.4-3.4 0-3.8 1-4.4 1-7 0-1.1-.6-2.2-1.6-3 .7-.2 1.2-.6 1.4-1-.3-.5-.7-.8-1.4-1 1.1-.8 1.6-2 1.6-3 0-2.6-1-3.2-1-7 0-1.2.5-2.3 1.4-3.4-2.5.5-3.5 2.7-2.7 4.3-.5.2-.9-.1-1.3-.3 0 .9.3 1.3.6 1.7 0 0-.4 0-.8-.2.1.6.3 1.1.8 1.3-2.2-.3-3.3 1-3.3 2.7 0 1.7 1.5 2.1 2.4 1.8 0 .2 0 .5-.1.8.6-.1.9-.5.7-1.2.4-.1.6-.2.9-.5-.2-.3-.6-.5-.9-.5.2-.6-.2-1-.6-1.1 0 0 .3 1.2-.7 1.2-.4 0-.6-.2-.6-.7 0-.7.4-1.2 1.5-1.2.9 0 1.7.7 1.7 2.3 0 1.3-1.3 2.5-2.5 2.5-1.3 0-2.6-1.1-2.6-2.4 0-.9.1-1.4.3-1.9 2-4.2 7.1-14.7 7.1-14.7zm-8.7-4.7c-.7-1.9-2.6-2.9-4.2-3.1 1.7-.2 3.5-1.3 4.2-3.1.7 1.9 2.6 2.9 4.2 3.1-1.6.2-3.5 1.3-4.2 3.1zM17.1 11c.5-.6 2 .6 2.1.6 0 0 1.5-1.3 2.1-.6.6.8-1.1 3.9-2.1 6.2-.9-2.3-2.7-5.4-2.1-6.2zm-.8 12.3c-.1 0-.2-.1-.3-.1 1.4-.3 2.5-.8 3.2-1.9.6 1.1 1.8 1.6 3.2 1.9-.1 0-.2.1-.3.1-1.5.2-2.6 1.3-2.9 1.9-.3-.6-1.4-1.8-2.9-1.9zm-4.8 23.9c0-.8.2-1.5.5-2.1 1.5-3.1 6.2-13.1 7.2-15.2 1 2.1 5.7 12.1 7.2 15.2.3.7.5 1.4.5 2.1 0 1.9-1.8 2.6-2.8 2.6-1.2 0-2.4-.9-2.4-2.1 0-.7.4-1.2 1-1.2 1.4 0 1.3 1.2 1 1.9.8-.4 1.3-1.1 1.2-1.8.5-.1.9-.3 1.3-.8-.3-.4-.7-.7-1.3-.7.3-1.1-.5-1.6-1.2-1.8.2.8.4 1.7-1 1.7-1 0-1.8.2-2.3.8 0-.9-.1-4.3-.1-4.3-.1-1.3 1.7-1.3 2.9-.9-.4-1.5-1.3-2.3-3.4-2.1.5-.2 1-.7 1-1.6 0-1.2-1-2.6-1.6-3-.6.4-1.6 1.7-1.6 3 0 .9.5 1.4 1 1.6-2-.2-2.9.6-3.4 2.1 1.1-.4 2.9-.4 2.9.9 0 0-.1 3.4-.1 4.3-.5-.7-1.3-.8-2.3-.8-1.4 0-1.2-.9-1-1.7-.7.3-1.5.7-1.2 1.8-.6 0-1 .3-1.3.7.4.5.9.7 1.3.8-.1.7.4 1.4 1.2 1.8-.3-.7-.4-1.9 1-1.9.6 0 1 .4 1 1.2 0 1.1-1.2 2.1-2.4 2.1-1 0-2.8-.7-2.8-2.6zm7.7 58.1c.7 1.9 2.6 2.9 4.2 3.1-1.7.2-3.5 1.3-4.2 3.1-.7-1.9-2.6-2.9-4.2-3.1 1.6-.2 3.5-1.3 4.2-3.1zm2.1 43.7c-.5.6-2-.6-2.1-.6 0 0-1.5 1.3-2.1.6-.6-.8 1.1-3.9 2.1-6.2.9 2.3 2.7 5.4 2.1 6.2zm.8-12.3c.1 0 .2.1.3.1-1.4.3-2.5.8-3.2 1.9-.6-1.1-1.8-1.6-3.2-1.9.1 0 .2-.1.3-.1 1.5-.2 2.6-1.3 2.9-1.9.3.6 1.4 1.8 2.9 1.9zm4.8-23.9c0 .8-.2 1.5-.5 2.1-1.5 3.1-6.2 13.1-7.2 15.2-1-2.1-5.7-12.1-7.2-15.2-.3-.7-.5-1.4-.5-2.1 0-1.9 1.8-2.6 2.8-2.6 1.2 0 2.4.9 2.4 2.1 0 .7-.4 1.2-1 1.2-1.4 0-1.3-1.2-1-1.9-.8.4-1.3 1.1-1.2 1.8-.5.1-.9.3-1.3.8.3.4.7.7 1.3.7-.3 1.1.5 1.6 1.2 1.8-.2-.8-.4-1.7 1-1.7 1 0 1.8-.2 2.3-.8 0 .9.1 4.3.1 4.3.1 1.3-1.7 1.3-2.9.9.4 1.5 1.3 2.3 3.4 2.1-.5.2-1 .7-1 1.6 0 1.2 1 2.6 1.6 3 .6-.4 1.6-1.7 1.6-3 0-.9-.5-1.4-1-1.6 2 .2 2.9-.6 3.4-2.1-1.1.4-2.9.4-2.9-.9 0 0 .1-3.4.1-4.3.5.7 1.3.8 2.3.8 1.4 0 1.2.9 1 1.7.7-.3 1.5-.7 1.2-1.8.6 0 1-.3 1.3-.7-.4-.5-.9-.7-1.3-.8.1-.7-.4-1.4-1.2-1.8.3.7.4 1.9-1 1.9-.6 0-1-.4-1-1.2 0-1.1 1.2-2.1 2.4-2.1 1 0 2.8.7 2.8 2.6zm-.5-11c.3.7.5 1.4.5 2.1 0 1.9-1.8 2.6-2.8 2.6-1.2 0-2.4-.9-2.4-2.1 0-.7.4-1.2 1-1.2 1.4 0 1.3 1.2 1 1.9.8-.4 1.3-1.1 1.2-1.8.5-.1.9-.3 1.3-.8-.3-.4-.7-.7-1.3-.7.3-1.1-.5-1.6-1.2-1.8.2.8.4 1.7-1 1.7-1 0-1.8.2-2.3.8 0-.9-.1-4.3-.1-4.3-.1-1.3 1.7-1.3 2.9-.9-.4-1.5-1.3-2.3-3.4-2.1.5-.2 1-.7 1-1.6 0-1.2-1-2.6-1.6-3-.6.4-1.6 1.7-1.6 3 0 .9.5 1.4 1 1.6-2-.2-2.9.6-3.4 2.1 1.1-.4 2.9-.4 2.9.9 0 0-.1 3.4-.1 4.3-.5-.7-1.3-.8-2.3-.8-1.4 0-1.2-.9-1-1.7-.7.3-1.5.7-1.2 1.8-.6 0-1 .3-1.3.7.4.5.9.7 1.3.8-.1.7.4 1.4 1.2 1.8-.3-.7-.4-1.9 1-1.9.6 0 1 .4 1 1.2 0 1.1-1.2 2.1-2.4 2.1-1 0-2.8-.7-2.8-2.6 0-.8.2-1.5.5-2.1 1.5-3.1 6.2-13.1 7.2-15.2 1 2.1 5.7 12.1 7.2 15.2zM22.1 80h.2-.2c-1.5.3-2.6 1.4-2.9 2-.3-.6-1.4-1.7-2.9-1.9h-.2.2c1.5-.2 2.6-1.3 2.9-1.9.3.4 1.4 1.6 2.9 1.8zm-2.9-6.6c-1-2.1-5.7-12.1-7.2-15.2-.3-.7-.5-1.4-.5-2.1 0-1.9 1.8-2.6 2.8-2.6 1.2 0 2.4.9 2.4 2.1 0 .7-.4 1.2-1 1.2-1.4 0-1.3-1.2-1-1.9-.8.4-1.3 1.1-1.2 1.8-.5.1-.9.3-1.3.8.3.4.7.7 1.3.7-.3 1.1.5 1.6 1.2 1.8-.2-.8-.4-1.7 1-1.7 1 0 1.8-.2 2.3-.8 0 .9.1 4.3.1 4.3.1 1.3-1.7 1.3-2.9.9.4 1.5 1.3 2.3 3.4 2.1-.5.2-1 .7-1 1.6 0 1.2 1 2.6 1.6 3 .6-.4 1.6-1.7 1.6-3 0-.9-.5-1.4-1-1.6 2 .2 2.9-.6 3.4-2.1-1.1.4-2.9.4-2.9-.9 0 0 .1-3.4.1-4.3.5.7 1.3.8 2.3.8 1.4 0 1.2.9 1 1.7.7-.3 1.5-.7 1.2-1.8.6 0 1-.3 1.3-.7-.4-.5-.9-.7-1.3-.8.1-.7-.4-1.4-1.2-1.8.3.7.4 1.9-1 1.9-.6 0-1-.4-1-1.2 0-1.1 1.2-2.1 2.4-2.1 1 0 2.8.7 2.8 2.6 0 .8-.2 1.5-.5 2.1-1.5 3.1-6.2 13.1-7.2 15.2z"/></svg>
