<svg xmlns="http://www.w3.org/2000/svg" width="240" height="160" viewBox="0 0 120 80"><path fill="#ED1C24" d="M0 0h120v80H0z"/><path fill="#FFF" d="M0 20h120v40H0z"/><path fill="#00A651" d="M59.5 20c-.9 1.8-2.5 3.1-4 4.3-.3.2-.9.7-.4 1 .4-.4 1.5.1.8.6-.6.5-1.3.7-2 1.2-.6.3-1.1.6-1.5 1.1 0 .7.9.3 1.3.6.5.5-.2 1.4-.8 1.2-.8 0-1.4.7-1.7 1.4-.6 1-1.8 1.3-2.8 1.8-.6.3-1.1.7-1.6 1.1-.7.5-.1 1.3.6 1.1.8-.1 1.4-.7 2.2-.5.7.3.9 1.2.7 1.8-.2.5-.6.9-1 1.3-.6.6-1.3.9-2.1 1.1-.8.3-1.4.7-1.9 1.3-.6.6-1.1 1.2-1.8 1.7-.2.5.4 1 .9 1 1-.1 1.8-.9 2.6-1.3.7-.3 1.6.5 1.4 1.2-.1.7-.8 1.1-1.4 1.3-1.8.9-3.4 2.2-4.8 3.7-.3.6-1.1.4-1.5.8-.3.5.4.8.8.7 1.8-.2 3.5-1 5.1-1.8.6-.3 1.1-.7 1.8-.9.6-.1 1.4.1 1.5.8 0 .7-.7 1.1-1.2 1.3-1.7.9-3.5 1.4-5.3 1.9-.7-.2-1.2 1-.4 1.2.8.3 1.6.1 2.4 0 2.5-.4 4.6-1.7 6.9-2.6 1-.3 2.1.1 2.6 1 .5.8.4 1.8-.1 2.6-.8 1.7-2 3.2-3.6 4.2-1 .5-2.2.7-3.1 1.5-.8.3.4 1.3.6.5.5-.7 1.3-.9 2.1-.9 1.2-.1 2.4-.3 3.3-1.1.8-.6 1.6-1.5 2.7-1.5.6.1 1.2.6 1.8.3.5-.2 1.4-.1 1.5.6.3.8 1.1 1.1 1.7 1.5.2.3 1 1.2 1.2.4-.1-.5.1-1.3.7-1.1.6 0 1.2.2 1.8.3.8.2 1.5.7 1.9 1.4.3.4 1 1.2 1.5.6.3-.6-.3-1.1-.8-1.3-.7-.4-1.3-1-1.9-1.6-.9-.9-1.7-1.9-1.9-3.2-.2-1.3-.1-2.6.1-3.8.2-.8 1.3-1.3 2-.8 1 .5 2.1 1.1 3.2 1.1 1.7 0 3.5-.3 5.1.2 1.6.5 2.8 1.9 4.4 2.5.4.2.8 0 .9-.4.2-.3 0-.8-.3-1-1.8-1.8-4.3-2.7-6.5-4.2-.7-.2-.9-1.2-.2-1.5.8-.6 2-.3 2.7.3.6.4 1.3.6 2 .6.7-.2.4-1.3-.3-1.4-1.2-.7-2-1.8-3.1-2.6-.6-.5-1.2-1-2-1.1-.4-.1-.9-.1-1.3-.1-.4-.4.1-1.1.7-1.1.5 0 1.1.1 1.6 0 .6 0 1.2-.1 1.8-.1.5.3 1.5-.2 1-.8-.5-.4-1.2-.4-1.8-.6-1-.3-2.1-.6-3.1-.8-.7 0-.6-1 0-1.1.4-.2.8.2 1.2.2.7.1 1.4.1 2.1.3.6-.3.1-1.2-.4-1.2-1.3-.5-2.3-1.3-3.4-2.1-1.2-.9-2.2-1.9-3.4-2.8-.4-.3-1.1-.3-1.3-.9 0-.5.6-.8 1.1-.7.6.2 1.2.5 1.9.7.5.1 1 .2 1.5.2.6-.4-.3-.6-.6-.8-.8-.5-1.6-1.1-2.3-1.6-.6-.5.5-.8.9-.6.7.3.8-.7.2-1-.6-.3-1.1-.7-1.7-1-1-.7-2.1-1.3-3.3-1.4-1.4-.1-2.6-.9-3.3-2.1-.3-.6-.6-1.4-.9-2.1zM55 27.6c.7 0 .6 1.3-.1 1.2-.6-.1-.6-1.3.1-1.2zm6.6.7c.7-.1.8 1.1.1 1.2-.7.1-.9-1.3-.1-1.2zm-1.9.1c.7.1.6 1.3-.1 1.3-.6.2-1.1.5-1.6.3-.4-.4.2-1.1.7-1.2.3-.1.6-.3 1-.4zm4.4 0c.7.2.4 1.4-.3 1.4-.7.1-1-1-.4-1.3.3 0 .5-.1.7-.1zm-7.5 1.4c.5.5.2 1.4-.4 1.6-.4.2-1 .8-1.5.3-.3-.6.4-1 .8-1.3.3-.3.7-.6 1.1-.6zm5.6 2.5c.7.3.3 1.6-.4 1.5-.6-.2-.5-1.2.1-1.3.1 0 .2-.1.3-.2zm-2.2.2c.7.3.2 1.4-.5 1.2-.7-.1-.7-1.3.1-1.2h.4zm4.7.6c.7-.2 1.6.5 1.3 1.3-.3.6-1.1.7-1.7.4-.6 0-1.1-1-.5-1.4.3-.2.6-.3.9-.3zm-10.5.2c.6-.3 1.2.6.7 1.1-.3.5-1.2.7-1.6.1-.3-.5.2-1.4.9-1.2zm-2.8.4c.7.1 1.1.7 1.4 1.3.1.7-1 1.1-1.4.6-.5-.3-1-1-.7-1.6.1-.2.5-.3.7-.3zm16.4 2.6c.7-.2 1.3 1 .6 1.4-.6.5-1.7-.2-1.4-.9.2-.3.5-.5.8-.5zm-9.3 1.3c.6.1.4 1.1-.2 1.1-.6-.1-.4-1.1.2-1.1zm-3.1.6c.5-.4 1.1.5.7.9-.5.3-1.1-.5-.7-.9zm4.9.1c.6.4.9 1 1 1.7-.3.6-1.3.5-1.5-.2-.2-.6 0-1.2.5-1.5zm1.8 1c.7-.2.5 1.4-.1.8-.3-.2-.2-.6.1-.8zm-10.8 1.1c.5-.1 1.2 0 1.3.6.1.5-.5.8-1 .9-.7.2-1.4.6-2.1.5-.6-.3-.8-1-.9-1.5.5-.5 1.3-.4 2-.5h.7zM68 42.8c.6-.3 1.3.7.8 1.2-.7.8-1.9.9-2.7.3-.1-.7.6-1.2 1.2-1.3.2-.1.4-.2.7-.2zm3.5.8c.7-.1 1.3.9.8 1.4-.5.7-1.6.9-2.3.3-.3-.6.3-1.2.8-1.4.3-.1.5-.2.7-.3zm-17.7 1.1c.7-.1 1.3.6 1.2 1.2.5.5-.4 1.3-.8.9-.4-.5-.4-1.2-.6-1.8-.1-.2 0-.3.2-.3zm5.1.4c.7-.3 1.6.5 1.2 1.2-.3.6-1.3.4-1.3-.3 0-.3 0-.6.1-.9zm-2.5.4c.7-.2 1.3.7.9 1.3-.7.1-1-.7-.9-1.3z"/></svg>
