<svg xmlns="http://www.w3.org/2000/svg" width="240" height="160" viewBox="0 0 240 160"><path fill="#FFB700" d="M0 0h240v160H0z"/><path fill="#FF5B00" d="M34.5 13.3h21.1v133.3H34.5V13.3z"/><path fill="#005641" d="M13.3 13.3h21v133.3h-21z"/><path fill="#8D2029" d="M69 13.3h159v133.3H69z"/><path fill="#FFB700" d="M193.7 52.5c0-1.5 0-3 1.5-3.7 1.5-.7 3.7.7 3 3-2.2 5.2-11.1-.7-14.1-2.2l1.5 3c-4.4-.7-5.2-1.5-8.1-5.2-.7 3-.7 3.7-4.4 3.7 1.4-2.2 1.9-2.9 0-5.2l-.7 4.4-3.7-5.2v5.2c-6.3-6.2-8-1.9-9.6 3 2.2-2.2 3-3.7 6.7-2.2-2 1.9-1.4 4.2.7 5.9 0 0 .4-3.1.6-3.8 1.2.9 3.7 4.2 6.8 4.5 2.2 0 4.4-.7 6.7-1.5 19.6-2 25.1 8.9 17 17 10.4 3.7 1.5 17-.7 23.6-1.5 5.9-.5 10.6 6.8 9.9-1.5 3-3.9 3.4-6.8 3.4 0 0 .4 1.8 2.3 2.6-3.2 2.8 1.1 7.1-.8 9.2-3.2 1.5-7.4-.7-7.4-.7l-.2 2.1s-5.6-.4-5.7-.6c0 0 1.6-3 1.5-3-1.5 2.2-2.9 3.5-5.9 3 0 0 .2-1.4 1.9-3.2-2.2 2.2-2.5 3.2-4.8 3.2 0-3.7 2.2-8.1 6.7-6.7.7 0 3.1 1.8 4.2.7.9-1.3.4-5.6.4-7.1.6-8.5-11.3-15.8-13.4-16.2-3.7-.7-9.7 3.4-12.6 4.9-7.4 4.4-14.1 7.4-22.2 8.9 1.7-3.9 8.2-8.1 9.5-18.7-2.2 10.8-10 16.5-10.2 18.5-.3 2-1.9 5.4-2.1 5.6 1-.6 4-2.1 7.9-2.4-.8 4.6-5.2 3.7-5.9 5.9 0 2.2 3 5.2 0 6.7h-11.8s1.8-2.5 1.9-3.2c-1.6 1-2.6 3.5-6.1 3.2.1-1 1.8-2.4 1.5-3-2 1.9-2.9 3.4-5.5 3 3.1-9.4 7.1-2.9 9.6-6.7 2.3-2.8-2-24.1-2.2-25.1l.7 13.3c-3-2.2-5.9-3.7-8.1-6.7-5.2-6.7-3.7-14 3-18.5 3-2.2 4.6-3.4 8.3-4.8-.7-2.2 1.1-3.9-1.6-4.5-.8 1.4-1.6 2.9-3.1 2.7l.8-3.7s-2.7.2-2.1 4.9c-3.1-1.5-1.6-4.9-1.6-4.9H122s0 4.4-2.4 5.3c.7-2.1.9-5.3.9-5.3s-4 4.7-6.3 3.2c1.5-1.7 3.8-2.1.9-8.2.8.4 6.4 2.1 9.9.3-.2 1.2-.1 2.5-.1 2.5 3.7-.7 4.4-.7 8.1.7-.7-5.2-3.7-5.9-6.7-9.6v3c-3-.7-3.7-1.5-5.2-4.4l-2.2 1.5c-3.9-2.3-6.8-7.8-1.2-7.5 3.3.4.5 3 .5 3s8.5-2.7 11.8-3c0 0-1-2.1-4.1-2.4 2.6-1.9 5.2-2.6 7.1 1.5 1.9.1 3.6-2.1 2.5-5 2.7 0 4.1 1.7 5.4 3.5 1 .2 2.1-.9 1.8-4.6 2.6 2.2 3.9 2.9 4 4.8 2.2.5 3.7 0 7-1.5-.7 3-.7 3.7-3.7 5.2 2.1 2.6 2.3 5.7 1.9 6.8-.7-.2-.9-.3-1.4-.4.2 1.1.4 4.3.3 6.1h-1.5l2.2 6.7-1.5 2.2c1.5-.7 30.8-5.9 34-5.9 4.4 0 4.4 2.2 10.4 2.2 0-2.9.8-9-5.9-10.3-6.2 0-12.8 8-29.9-1.3-2 .5-3.1 2.2-4.1 5.2-1.9-2.7-1.4-6.2.8-7.7-3.1-11.1 10.8-21.4 38.4-2.9zm-92.5 55.8s-9.8 1.4-5.7-4.5c3.5-1.5 3.5 2.1 2.1 3.3 1.6.2 2.7-.9 2.9-2.5-2-2.7.8-4.5.7-4.5-6.8 1.5-7.8-3.1-5.2-3.9 3.2.2 2.2 1.2 3.5 2.1 2.3-2.1 3.7-2.3 5.1-.2 1.4-2.1 3.4-1.9 3.5-1.7 2.2 3.8-2.7 4-4.7 3.5 1.7 1.8 1 3.6.5 4.9.1 1.3 1 1.5 2.6 2-3.4-9.3 11.9 2.5-3.5 1.3.2 2.5 1.8.5 2.6 3.1-.5.7-1.4.8-2.7.3 0 0 .8 2.1-.6 2.8-1.2-.7-1.3-2.4-1.3-2.4-.6.8-1.6.3-2.4-.4.7-1.6 2.8-.7 2.6-3.2zm-8.4-28.4c.6-2.7 6.8-2.3 3.8.5 2 3.1 8 2.7 10.3.9-1.9-3.7 3.3-2.9 3.1-.1-.7 5-17.9 4.3-17.2-1.3zM205.9 127c2 3.8 7.9 21.5 14.2 13.2 0 0 2.7 2.8 3.8 3.6.7-.2 1.1-.8 1.1-.8-1.1-1.2-2.6-1.9-3.3-4.1 8.2-11.1-14.2-10.7-15.8-11.9zM91 32.8c-2-3.8-7.9-21.5-14.2-13.2 0 0-2.7-2.8-3.8-3.6-.7.2-1.1.8-1.1.8 1.1 1.2 2.6 1.9 3.3 4.1C67 32 89.4 31.6 91 32.8zm-1.1 93.6c-3.8 2-21.5 7.9-13.2 14.2 0 0-2.8 2.7-3.6 3.8.2.7.8 1.1.8 1.1 1.2-1.1 1.9-2.6 4.1-3.3 11.1 8.2 10.6-14.2 11.9-15.8zm116.3-93.6c2-3.8 7.9-21.5 14.2-13.2 0 0 2.7-2.8 3.8-3.6.7.2 1.1.8 1.1.8-1.1 1.2-2.6 1.9-3.3 4.1 8.2 11.1-14.2 10.7-15.8 11.9zM95.6 85.9c-.1 1.1 2.5 1.6 5.3 1.6s5.6-.4 5.7-1.2c0-1.4-2.4-.2-5.2-.2-2.8 0-5.1-1.1-5.8-.2zm.2 3.1c0 1.1 2.7 1.3 5.1 1.4 2.4.1 4.7-.4 5.2-1.2-.4-1.2-3-.2-5.2-.1s-4.6-1-5.1-.1zm.7 2.8c-.2.8 2.2 1.4 4.3 1.4s5.2-.8 5.2-1.7c-.1-.7-3.2.2-5.2.3-1.9.1-4.3-.7-4.3 0zm-.2 2.9c.2.8 2.8 1 5.2.9 2.3-.2 4.7-.9 4.9-1.7-.1-.5-2.8.4-5 .5-2.3.1-5.2-.3-5.1.3z"/><path fill="#FFB700" stroke="#8D2029" stroke-width=".5" stroke-linejoin="round" d="M168.6 108.6c-1.5-2.2-6.7-5.9-5.2-9.6 2.2-3.7 14.8-9.6 17-1.5.7 2.2-1.5 8.1-2.3 10.3 1.1-.3 2.4-2 6-1.4-.7 2.9-5.1 5.1-5.1 5.1.5 2-3.1 11.1-3.1 11.1h-9.6l1.5-3-2.2 3h-3.7l3-3.7s-3.5 4.1-6.5 3.9c.7-5.9 4.3-6.9 9.5-4.7.7-2.8 2.2-6.5.7-9.5zm-54.2-48.4c.2.3 1 6.3 10.2 3.9.9-.5.5 1.7.5 2.3.4-.1 4.8-1.6 7.8.6-.4-2.5-1-4.1-3.7-5.5-1-.3-12.7 1.1-14.8-1.3zm-5.1 38c-.2.7-.6.9-2 2.9.6.8 3.4 2.2 4.2 1.5.7-.4.7-2.2.7-2.2 1.5 2.2 4.1 5.7 7 6.4 2.2.7 4.4-.7 4.4-3 0-2.2-3.3-5.8-4.8-7.3-3.7-4.4-3.4-12.8-10.4-11.6 0 .1-.3 1-1 1.2.6 1.1.9 2-.5 2.3 1 1 1.2 1.8-.1 2.3.8 1.1 1.8 1.5-.1 2.4 2.1 2 2.5 4.8 2.6 5.1m-1.8-62.6c-2.2 3.2-2.5 38.7-1.8 45.8-2.2 1.5-6.4.8-7.5.4.6-2.6 2.5-43.7 9.3-46.2z"/><path fill="none" stroke="#8D2029" stroke-width=".5" stroke-linecap="round" stroke-linejoin="round" d="M129 53c-1 .6-.2 4.7 1.3 4 1.9-.9-.6-4.5-1.3-4zm.9-1.3c1.8 1.3 4.7 4.7 8.3 4.5-2.7-2.2-2.2-3.8-2.2-3.8 1.4 1.7 6.1 3.2 7.7 2.6-1.8-1.3-2.2-1.5-2.6-2.8 2.2.3 4.9.7 7-.2m-10 18.5s4 7.4 6 6.2c-3-2.6-2.6-6.1-2.6-6.1s1.4 4.6 5.3 6c.3-2.6-1.6-6.7-1.6-6.7s3.3 5.8 5 5.9c1.1-1.3.7-2.8.7-2.8M135 65.3l3 3.8.5-5.1s2.9 2.3 3.4 2.2c.5-.1-.8-5.4-.8-5.4s3.9 5.9 4.2 5.8c.3-.1.4-5.9.4-5.9s3 8.2 4 8.1c1-.1 1-1.7 1-1.7m-18-8.4s4.6 4.2 5.1 3.9c.5-.3-1.9-4.9-1.9-4.9s2.6 2.5 3.6 2.7.3-3.2.3-3.2 3.1 2.6 3.6 2.5.3-2.5.3-2.5 2 2 2.2 2c.1 0-.4-5.8-.4-5.8s5 5.1 5.3 5m-22.3 16.7l3.6.1s-3 2.5-2.3 5.9c3.1-4.6 4.3-3.7 4.3-3.7-.9 1-2.8 2.4-1.4 5.5 1.2-3.2 3.7-5.6 3.7-5.6s-.7 3.5.8 6.7c1.1-3.2 2.9-6 2.9-6s-.3 3.5 1.3 4.8c1.2-1.1 2-3.8 2-3.8s2.3 4.1 3.7 4.7c1.1-2.8 1.1-4.9 1.1-4.9s4.7 3.4 8.5 1.4c-3.4-1.2-4.5-4-4.5-4s6.1 2.7 8.8 1.5c-2.6-2-8.6-4.9-8.6-4.9s4.5 1.6 5.7 1.2c-.6-.9-3.1-2.3-3.1-2.3m-21.6 2.5l.2-3.1s2 4.7 3.5 4.8c-.9-3.4-.5-6.2-.5-6.2"/></svg>
