<svg xmlns="http://www.w3.org/2000/svg" width="240" height="160" viewBox="0 0 120 80"><path fill="#009543" d="M0 0h120v80H0z"/><path fill="#FFF" d="M0 0h120v56H0z"/><path fill="#00209F" d="M0 0h120v24H0z"/><path fill="none" stroke="#000" stroke-width=".667" d="M62.8 38.4h-5.6s-2-4.3-1.7-7.3c.3-3.1 2.1-4.5 4.4-4.5 2.8 0 4.2 1.4 4.6 4.4.4 3-1.7 7.4-1.7 7.4z"/><path d="M70.7 46.7l-1.1.5-8.3-10.9v-3.2h1.4l-1.9-1.8v-5.4s-.5-.5-.9-.5c-.4.1-.9.6-.9.6v5.4l-1.7 1.8h1.4v3.1l-8.2 11-1.2-.4-2.1 4.5s5.2 3.3 12.8 3.2c8.3-.1 12.8-3.3 12.8-3.3l-2.1-4.6zm-20.6 2l.4 1.2-1.2.2c0 .1.7-1.3.8-1.4zm-.6 2.1l1.2-.4.2 1-1.4-.6zm1.8-2.1l1.7.5.4.9-1.5.4-.6-1.8zm1.2 3.2l-.2-.7 1.4-.5.8 1.7-2-.5zm2-2.3l1.7.4.5.7-1.5.6-.7-1.7zm1.2 3l-.2-.6 1.6-.6 1 1.5-2.4-.3zm2-2.5l2.8.1.2.6-2.2.8-.8-1.5zm1.7 2.9l-.4-.8 2.2-.8 1 1.5-2.8.1zm2.4-2.8l2-.2.5.7-1.7.8-.8-1.3zm1.6 2.5l-.5-.7 1.7-.9 1 1.2-2.2.4zm1.8-2.9l1.8-.6.5.5-1.4 1.1-.9-1zm1.6 2.3l-.4-.6 1.4-1 .9 1.2-1.9.4zm1.4-3.2l1.6-.6.3.5-1 1.4-.9-1.3zm1.5 1.6l.7-1 .6 1.2-1.2.3-.1-.5z"/></svg>
