<svg xmlns="http://www.w3.org/2000/svg" width="240" height="160" viewBox="0 0 240 160"><path fill="#D3AE3B" d="M0 0h240v160H0V0z"/><path fill="#C40308" d="M8 8h224v144H8V8z"/><path fill="#B96B29" d="M154.8 78.7c1-.3 4.2-1.2 6.5-3 2.3-2 2.8-3.4 3-4.3 0-.8.2-1.5-.4-1l-3.7 2.5c-1.2.6-2.3 1-3 1-.6.3-1 .4-.5 0 .6 0 2.7-1 4.3-2.4 1.7-1.7 3-4 3-5.5s0-1.2-.5-1c-.5.5-2 2.6-3 3.4-1 .8-2.6 1.8-3.3 2.2-.8.5-2 1-.4 0 1.5-1 4.3-3.5 5.5-6.6 1-3.2 1-5 1-5.3s-.4-1-.6-.3c-.3.5-2.2 4.3-3.8 6l-1.6 1.5c-.3.2-1 .7 0-.3.6-1 2.2-3 3-5.2.7-2 1-4.2 1-5.4 0-1-.6-2.8-.8-3.3 0-.5-.4-.8-.5-.3 0 .5-1.2 4.3-2 6-.5 2-1.8 4-2 4.4-.3.3-1 1.2-.2-.2.7-1.3 2-5.4 2.3-9.2.2-3.8-.3-6-.8-7s-1-1.4-1-1.4 0 2.6-.6 6.3c-1 3.8-2 5.8-2 5.8s-.5.6 0-.2c0-.6.5-2 .8-4.2.3-2.3.3-5-.5-7.3-.8-2.5-2-3.8-2-3.8-.5 3.5-.4 8.2-1.7 12-.3-.3-.5-.7-.7.2-.3 1.2-.8 3.5-2.4 6.5-1.6 2.8-2.3 3.3-2.3 3.3l-.6-1c-.2-.5-.3-.7-.6 0-.3.4-1 2.4-3 4.7-2 2.3-3.2 3.4-3 5 0 1.8 1 2.6 2 3.4 1.2.8 1.5 1.2 1.3 2 0 1-1.2 1.4-2 1.4-1 0-2 0-2.6.2-.4.3-.5.8-1 1.3-.4.4-.5.7-1 .7h-.4c0-4.5 1.6-6.5 1.6-6.5l-5-5.7-.7.4s0-.2-.2-.3c-.6-.7-1-1.4-1-2.5.4 0 1 .3 1.3.2.5 0 .2-.5 0-1 0-.4-.2-1.8 0-2.4v-.8s.7.8 1 .8c.6 0 .5-.5.6-1 0-.7.4-1.6 1-2 0 0 .8.4 1.6.4s2-.2 3-1c1-1 1-1.3 1-1.3l3 .7c1.5 0 3 0 3.6-1.5.6-1.3-.3-2.7-.4-2.8 0-.3-.6-.4-.6 0s0 1.5-.8 2-1.5.5-2.2.3c-.8-.3-2-.5-3-.4l-1.4.3s1-1 2-1.4 1.6 0 2 .5.6 1 1 .2c.2-1 0-2-.5-2.7-.5-.7-1.5-1-2.5-1s-1.4.3-1.4.3-.4-1.3-1.7-1.7c-1.5-.2-3.3.4-4.6 1 0 0-1 .4-2 0-.8-.2-1.6-.6-2-1l.4-1 .7-.3c.4 0 .3-.2.3-.5s-.6-.7-.6-.7 0-.8 1-1.4l1-.4s.5.2.8 0l.3-.3s.5-.2.6-.5c.3-.3.4-.7.2-1 0-.3-.3-.3 0-.5 0-.2.3-.5.3-.8V42s.4-.2.4-.8c0-.5-.4-.8-.6-.8h-.3s0-.4-.3-1l-.5-.5s.2-.3 0-.6c0-.4-.3-.6-.5-.7h-.5L128 37l-.6-.3v-.5l-.7-.3h-.4l-2-.4h-.6l-1.8-.8-.7-.2s.5-.6.5-1.3c0-.8-.4-1.4-1-1.7l-.4-.3V31h1v-1.5h-1l.2-.8h-2l.2 1h-1V31h1v.5s-.5 0-.7.3c-.4.3-1 .8-.8 1.6 0 .7.5 1.3.5 1.3l-.6.2c-.4 0-1.7.6-1.7.6l-.6.2c-.6 0-2 .5-2 .5l-.4-.2c-.2 0-.5.2-.6.4v.5l-.6.2-1.2.7h-.5c-.3 0-.5.2-.6.6v.5l-.4.7c-.3.5-.3.8-.3.8h-.3s-.5.3-.5.8.4.7.4.7v.3c0 .3.2.7.4.8v.6c-.2.3-.2.8 0 1 0 .3.6.5.6.5l.3.4h.8l1 .5c1 .5 1 1.3 1 1.3s-.7.5-.6.7c0 .3 0 .4.3.5l.6.3.4 1.2c-.4.3-1 .7-1.8 1-1 .2-2 0-2 0-1.5-.8-3-1.3-4.7-1-1.4.3-2 1.7-2 1.7l-1.3-.2c-1 0-2 .3-2.4 1-.4.7-.5 1.8-.3 2.7.3 1 .5.3 1 0s1-1 2-.6c1 .3 2 1.3 2 1.3s-.2-.2-1.4-.4c-1.3-.2-2.4.2-3 .4s-1.5.3-2.4-.3c-.8-.5-.8-1.5-.8-2s-.5-.2-.6 0-1 1.5-.4 3c.6 1.4 2 1.6 3.4 1.5 1.4 0 3-.7 3-.7s0 .2 1 1c1 1 2 1.3 3 1.3s1.7-.5 1.7-.5c.5.5 1 1.4 1 2 0 .6 0 1 .5 1 .4 0 1-.7 1-.7l.2.8V65c-.2.2-.6.7 0 .8.3 0 .8 0 1-.2 0 1.2-.3 1.8-1 2.7v.2l-.8-.3-5 5.8s2 2 1.7 6.5h-.3c-.4 0-.5-.3-1-.8-.4-.5-.4-1-.8-1.3s-1.7-.2-2.6-.2c-1 0-2-.3-2.2-1.3 0-1 0-1.4 1.3-2.2 1.2-.8 2-1.7 2-3.3 0-1.7-1-2.8-3-5-2-2.4-2.8-4.4-3-5s-.4-.2-.6 0v1s-.7-.3-2.3-3.2c-1.6-3-2-5.3-2.3-6.5 0-.8-.4-.4-.6-.2-1.3-3.7-1.3-8.3-1.6-12 0 0-1.3 1.4-2 4-.8 2.2-.8 5-.5 7.2.2 2.3.7 3.6 1 4.2.2 1-.3.3-.3.3s-1.2-2-2-5.7c-.7-3.7-.6-6.3-.6-6.3s-.5.4-1 1.5c-.5 1-1 3-.8 7 .2 3.7 1.7 7.7 2.3 9 .8 1.4 0 .6-.2.3-.2-.4-1.4-2.4-2-4.2-1-1.8-2-5.5-2-6-.2-.7-.4-.4-.6.2-.3.5-.8 2.2-.8 3.4 0 1.2.3 3.3 1 5.4.8 2 2.3 4.3 3 5.2.8 1 .3.5 0 .2L81 64.6s-3.5-5.4-3.7-6c-.3-.5-.5 0-.5.4 0 .3-.3 2.2 1 5.3 1 3 4 5.5 5.4 6.5s.4.5-.3 0c-1-.3-2.4-1.4-3.4-2.2-1-.8-2.7-3-3-3.3-.6-.3-.7-.5-.6 1s1.3 3.8 2.8 5.5c1.5 1.5 3.6 2.3 4.3 2.5.7.3.2.2-.4 0-.8-.2-1.8-.5-3-1.2-1.3-.6-3-2-3.7-2.4-.7-.5-.6.2-.4 1 .2.8.7 2.3 3 4 2.3 2 5.5 3 6.5 3.2 1 .3.3.3.3.3l-2.3-.4c-2-.5-4.8-2-5.5-2.5-.8-.3-1-.5-.8.6 0 1 1.2 3.2 3 4.2s4.8 1.5 5.7 1.6c.8 0 .7.2.3.2l-2.8-.2c-1.3-.2-3-.8-3.8-1l-.2-.7c0-.4-.3-.3-.4-.3-.2 0-.2.2-.7.3-.6.2-.6 0-.6-.2v-1c0-.3-.2-.3-.4-.2l-1.5.6c-.4 0 0 .4 0 .7l.6 1-1 .2c-.4 0-.3.2-.3.4l.6 1.5h.3l1-.5.2 1.2s-.4 0-1 .4c-.4.4-.2 1 .4 1 .6.2 1.3.5 2 1.8s.8 3.6 1.3 7.3c.4 3.8 2.8 5.6 3 6l.3.4s-.3.5-.2 1.2c.2.8.8 1.2 1 1.3.4 0 .3.4.3.4s-.3.8 0 2.2c0 1.4 1.2 3 1.6 3.3.3.2.3.4.3.4 0 .2-.4 0-.8.4s-.8.7-1 1.2c-.4.5-.3.8-.2 1.5s1 1.3 1 1.3 0 0-.2.5c0 .5.3 1.2.8 1.5.4.3 1.3.5 1.3.5v.8c0 .4.7.7 1 1 .4 0 1 0 1.4-.2.3 0 .5 0 .7.3.2.4.2 1.6.2 2 0 .5-.3 1 0 1.2 0 .3.5 0 1-.2.4-.3.4 0 1 .2.3.3 1 .5 1 .5v-.8s0-1.2.3-1.4c0 0 .7 0 1.3-.3.3-.2.5-.3.5-.5 0-.3-.3-.3-1-.6-.8-.4-1-.7-1.4-1-.6-.3-.4-.4-.4-.5 0-.2.2-.3.3-.5v-.7l.5-.6.7-1 1-1.4c.2-.3.8-.7 1-1.2.5-.4 1.4-1.2 2-1.5.4-.4 2-1 2-1s0 .7.2 1.2c.4.5 1-.3 2.5-1.5 1.5-1 2.8-1.5 2.8-1.5l.8 1c.5.6 1 0 3-2.8 1.5-2.2 3.6-4.2 4.4-5l.5.3-.2.3c0 .6-.5 1-1 1.8-.3.8-1 1-1.6 2-.7 1-.8 2-1 3 0 1 .6 1.3.6 1.3s-1 1-1.3 1.8c-.3.8-.4 2.3-.4 2.3l-.5 1c-.3.7-1 .7-2 1.7s-2 1.5-2.5 1.8c-.5.3-.4.6-.3 1 0 .4 1 .8 1.6 1 .8.4 1 .3 1.6.3.6 0 0 .4 0 .7-.3.2-.6 1-.5 2 0 1 .5.7 1.4.5.8 0 1.8-.5 1.8-.5v.2c-.2.3-.2.5-.2 1.2 0 .6 0 1 .4 1 .3.3.6 0 1-.2.3 0 .8-.4 1.5-.5l1-.5s-.3.2-.4.7v1.7c.2.5.6 1 1 1.5.6.4.7.2 1-.4l1-1.3.7 2c.5 1.4 2 2.8 2 2.8s1.7-1.4 2.2-3l.5-1.8 1.2 1.3c.4.6.5.8 1 .4.5-.5.8-1 1-1.5v-1.7c0-.5-.2-.7-.2-.7s.3.3 1 .5c.8 0 1.3.4 1.5.5.4 0 .8.5 1 .3 0 0 .3-.4.3-1.2s0-1-.2-1.2v-.3s1 .5 1.7.6 1.5.2 1.5-.6c0-1-.2-1.8-.5-2-.2-.2-.6-.7 0-.6.5 0 .8 0 1.5-.2 1-.3 1.5-.7 1.7-1 0-.5.3-.8-.2-1s-1.6-.8-2.6-1.8-1.6-1-2-1.8l-.5-.8s0-1.5-.5-2.3c-.3-.8-1.3-1.8-1.3-1.8s.6-.3.5-1.4c0-1-.2-1.8-1-3-.5-1-1.2-1.2-1.5-2l-1-1.8v-.3l.6-.3c1 .8 3 2.8 4.6 5 2 2.8 2.4 3.3 3 2.8l.7-1s1.3.4 3 1.5c1.5 1.2 2 2 2.4 1.5.2-.3.3-.6.3-1l2 .8 2 .8c1.4.6 1.5 1 2.6 1.8s2.7.8 4.3.3l7-2.6c1.7-.7 3-1.3 3-1.7l.5-1.5c0-.4-.5-.8-.5-1v-.5s0-.8-.4-1c-.3-.4-.3-.5-.2-1.3 0-1.7-1-3.8-2.8-4.5 0 0 0-.3-.2-.4l-.4-.3v-1c0-.2 0 0 .3 0 0 0 .3.3.6.3.2 0 .3-.2.4-.5l.4-1v-.4l-.7-.2v-.2c0-.2 0-.3.4-.7.3-.4 0-.4 0-.5-.4 0-1.5-.4-1.7-.5-.3 0-.4.3-.4.4v1s0 .2-.3.2l-.5-.3c-.2-.3-.4 0-.5 0l-.4 1.6v.5h1c.4 0 0 .3 0 .3l-.4.8c0 .3-.3.3-.5.3h-.7s-1.8 0-3 1c-1.4 1-1.8 1.8-2 2.3 0 .4-.4.3-.5.5-.3.3-.8 1-.8 1.2s0 .5-.5 1c-.5.3-1 2-.2 2.7.8.7 1 1.6 1.3 2 .2.4 0 .6-.2.6s-.5-.4-1-.7l-2.8-2.3c-.8-.5-.2-.5-.2-.5l.6-.2c.5-.2.5-.5 0-.5-.4-.2-1.3-.7-1.5-1 0-.2-.2-.4.2-.7.4-.3 1.4-.8.6-1l-2.4-.7c-.8 0-1-.3-1-.3l.6-.7s.4-.5 0-.7-1.6-.3-2.6-.7c-2-.8-3.3-2.3-3.8-4.2.5.7 1.3 2 2.6 2.2 2 0 2-.5 1.6-1l-1-1.4c0-.2 0-.4.3 0s1.5 2 4.2 1.8c2.8-.2 2.8-.8 2.8-1 0-.4-.5-.5-1-.8 0-.2-.3-.5.4-.3s2 .4 3.8 0c.7-.2 2.6-1 3-2 0 0-1.4 0-2.2-.5-1-.3-1.4-.6-.5-.4 1 .3 2.7.6 4.3 0 1-.2 2-1 2-2.3l-2.2-.6-.8-.3s2.4.8 4.6-.3c2.2-1 2.3-2.7 2.3-3V86s-2 .4-3.5.4-2-.2-2-.2 4.2 0 6.3-1.4c2-1.3 2.2-3.8 2.2-3.8s-2.4.8-4 1l-2.7.2c-.4 0-.6-.2.2-.2s4-.5 5.7-1.6c1.7-1 2.8-3.3 3-4.3 0-1 0-.8-1-.4-.8.5-3.6 2-5.5 2.5l-2.3.6s-.7 0 .3-.3l.3.4zm-75 4.8l-.8.5-.5-1V83l.8-.2h.2c0 .3 0 .5.3 1zm25.5 15c-.5 1-2 2-3 2.3l-2.5.7c-.5 0 0 .7 0 .7l.5.7-1 .3-2.4.6c-.8 0 .2.7.6 1 .5.2.4.4 0 .7s-1 .8-1.4.8-.4.3 0 .5l1.7.5-1 .5c-.7.6-2 1-2.8 1h-5.8v-1.5c-.2-.8-.8-2-1-2.6-.6-.6-1.4-1.8-1.4-1.8v-.5-1l-1.3-1.4v-1c0-.6-.4-2.7-.8-3.6-.4-1-2-3.5-2.6-4.7-.8-1.3-1.2-3-1.4-4.4-.3-1.3-.2-1.8 0-2.2V84l1.3 1c2 1.3 6.3 1.4 6.3 1.4s-.5.2-2 .2c-1.4 0-3.4-.5-3.4-.5v.6s0 2 2.2 3 4.6.3 4.6.3l-.8.3-2.3.5c0 1.4 1 2.2 2 2.5 1.5.5 3.3 0 4.2 0 1-.3.4 0-.5.4-.8.4-2 .5-2 .5 0 1 2 1.8 2.8 2 2 .3 3.2 0 3.8-.2s.5 0 .3.3c-.3.3-1 .4-1 1 0 0 0 .6 3 .8s3.5-1.2 4-1.7.5-.2.4 0l-1 1.3c-.5.5-.2 1.2 1.6 1 1.3 0 2.2-1.4 2.5-2.2h.2v.2c0 .5-.4 1.2-.8 1.8zM127.5 39l-.4-.6s1 .5 1.7 1.2.6 1 .7 1.4v2.7l.2.3-1 .3c-.4.2-1 .3-1.3 0-.3-.2-.4-.3 0-.5 0-.2.8-.4 1-1.7 0-1.2-.6-2.4-.8-3zm-5.6 3.5c.2-.5.3-1.2 0-2.3 0-1-.4-2-.4-3 0 0 .8 0 2 1 1 1 1.2 2 1.2 2.6l-.3 1.8v1l-.7.3c-.4.2-.6.3-1.2.3-.5 0-1-.3-1.2-.5s-.5-.2-.5-.2.6-.4 1-1zm-5.5-4.2c1-1 2-1.2 2-1.2 0 1.2-.4 2-.5 3-.2 1.4 0 2 0 2.5.4.6 1 1 1 1l-.5.2c-.4.2-.7.4-1.3.5-.5 0-.8-.2-1-.5l-1-.3.2-1c0-.4-.4-1-.4-1.5s.3-1.6 1.5-2.7zm-4 6c-.3.3-.8.2-1.3 0l-1-.3.4-.3v-1.2c0-.5-.2-1.2 0-1.5 0-.3 0-.7.6-1.4s1.6-1.2 1.6-1.2l-.4.7c-.3.6-1 2-.8 3 0 1.4.8 1.6 1 1.8.3.2.2.3 0 .5zm14.7 10.5c-1 .7-1.7.5-1.7 1 0 .4 1 .8 1 .8s-1 1-1.8 1.5l-1.6 1s-.2 0 0 .4l.7 1h.4s-1.2 1.6-1.8 2c-.5.5-1 .6-1.4.8s-.3 1 0 1.3c0 .3.4.8.7 1 .3 0 .4.2 0 .7L120 68l-1.3-1.8c-.3-.5-.2-.7 0-.8s.7-.5.8-.8.4-1.2 0-1.3c-.6-.2-1-.3-1.5-.8l-2-2h.5c.2-.2.5-.6.6-1 .3-.5 0-.6 0-.6s-1-.4-1.7-1c-.8-.4-1.8-1.4-1.8-1.4s1-.4 1-.8-.6-.3-1.7-1-1.4-1.2-1.4-1.2 1.3-.3 2-1.6l.2-1.2c2 .7 4.4 1 6.5 1s4.6-.4 6.6-1c0 .3 0 .8.3 1.2.5 1.3 1.8 1.7 1.8 1.7s-.4.8-1.4 1.4l-.2-.2z"/><path fill="#D4AF3A" d="M133.8 79.3c0-3.4 1.5-5.5 1.5-5.5l-4.2-5c-4 1.6-7.6 1.8-11 0-3.2 1.8-7 1.6-11 0l-4.2 5s1.5 2 1.5 5.4c0 3.5-.6 6-1 7.6-.4 1.7-.7 4.7.2 7 1 2 1.8 4 5.5 5.6s5.8 2.4 7 3.5c1.5 1 2 2 2 2s.7-1 2-2c1.4-1.2 3.4-2 7-3.6 4-1.6 5-3.5 5.7-5.7 1-2.2.5-5.3 0-7s-1-4-1-7.4z"/><path fill="#B96B29" d="M132.4 80.7c-.5-3.3 1.4-6 1.4-6l-3.6-4.3c-2.8 1.6-6.7 1.3-10-.2-3.5 1.5-7.4 1.8-10 .2l-3.8 4.3s2 3 1.4 6.2-1.7 8.2-1.4 10.4c.3 2 1.8 4.5 3.3 5.8s3.8 2.3 5.4 3c1.7.5 3.2 1.6 4 2.2l1.2 1.2 1.3-1s2.3-1.7 4-2.3c1.5-.5 3.8-1.7 5.3-3 1.5-1.2 3-3.6 3.3-5.7.4-2-.8-7.2-1.3-10.5l-.3-.3z"/><path fill="#1D5E91" d="M132 81c-.5-3.5 1-6.3 1-6.3L130 71c-2.8 1.5-6 1-9.8-.2-3.6 1.3-7 1.7-9.8.2l-3.3 3.7s1.5 2.8 1 6.3-1.4 7.5-1.2 9.8v.5h3l.5-.3.5-.3s0-.6.4-.7l.6-.2s.3 0 .4-.2l1-1.2.2-1.3v-1h-.3c-.2 0-.2-.2-.3-.5v-1.2l.4-.4v-.6s-2 .5-2.2-1l-.5-2.4c0-.2 0-.3-.3-.2-.3 0-.8-.2-1.2-1-.4-.7-.4-1-.3-1.3 0-.3.4-.2.4 0 0 0 .4.7.7.5.3-.2 0-.2 0-.8s-.3-.8-.3-1v-.8c0-.2 0-.3.3-.3l.4.4c0 .2.2.3.4.2s0-.7 0-.8c0-.2.3-.3.5-.2l.3.6v.3s.4-.3.4-.5 0-.5.3-.2c0 .3.3.6 0 1 0 .3.2 0 0 .8V78c0 .5 0 .8.3 1.3s.5 1.3 1 1.3h.4s.5-1 1-1.2c.3-.2 1-.3 1.2-.3.3 0 .4 0 .4-.2s0 0-.5-.2c-.6 0-1-.2-1-.5s0-.6-.2-.6c-.3 0-1-.3-1.4-.8-.3-.5-.2-.6 0-.8 0-.2.3-.8.5-.3s.3.5.4.7c.3 0 .5 0 .4-.3v-1c0-.2 0-.2.3-.3l1.2-.3h.3s0-.4.4-.4c.4-.2.6-.2 1-.2s.4 0 .8-.2c.4-.3.8-.3 1-.3s.5 0 .6.3c.2 0 0 .3 0 .5 0 .3 0 .4.4.4h.8c.3 0 .6.3.4.6l-.4.5-.2.3v.3l.5.5c0 .2.4.5 0 .8-.3.4-1 .7-1 .7s-.2.2.2.4c.4.3.5.8.7.8l.3.3v.5l-.4.2-1 .2c-.3 0-.4 0-.3.3l.4.7.2.4h5.3l.6.3h2c.5-.2.7-.5.6-.8 0-.2 0-.5-1.2-.7-1-.2-1.6 0-2.5-.3-1-.2-2.5-.7-2.7-1.8-.3-1 .7-1.6 1-1.8l2-.7c.5-.3 1.3-.5 2.2-.4s1.4.4 1.8.2c.4-.2.6 0 .5.3 0 .4-.4 1-1.4 1.4-1 .3-2.2.3-3 .2-.5-.2-1-.5-1.4-.3-.5.2-1 .7-.5 1.2.5.6 2.6.8 3.3.8.6 0 2.8 0 3.4 1 .6 1 0 2.3-.6 2.5-.7.3-1.4.5-2 .5s-.4.2-.4.2l.2.8c0 .3 0 .7.3.8s.6.4 1 .3c.5 0 1 .3 1 .7l.3 1.8V90l-.7 1.5h3.2V91c0-2.4-.6-6.3-1-9.8l-.5-.2z"/><path fill="#6D8C3E" d="M107.2 92.8c.6 1.8 2 3.6 4 4.8 2.6 1.7 3.8 1.4 6.4 3 2.5 1.8 2.4 2 2.4 2s0-.2 2.5-2c2.5-1.6 3.7-1.4 6.4-3 2-1.2 3.2-3 3.8-4.8h-25.6z"/><path fill="#D4AF3A" d="M109.5 79c.3.3.5.5 1 .4.4 0 .4.3.5.7 0 .5 0 1.4.5 2 .3 1 1.4 1 1.4 1 0-.4 0-1 .2-1.4 0 0 0-.3-.2-.3s-.5-.2-.6-.5c-.3-.4-.7-1.4-.8-2 0-.7 0-1.6.3-2v-.5c-.2-.2-.5 0-.5 0v.3l-.3-.3c0-.2-.2-.2-.4 0V76.8l-.5-.4s-.4 0-.5.3c0 .2 0 .6.5 1 .3 0 .3.6 0 1h-.5s-.3-.2-.4 0c0 0-.3.2 0 .4V79zm-.2-.7l-.2-.2v.7l.4-.3zm.6-2.2s.2 0 0-.2c0-.2 0-.3-.3-.3h-.2l.2.5s.2.2.2 0zm.7-.5s0 .2 0 0c.2 0 .3-.2.2-.2l-.4-.2v.6zm1.2.2v-.3l-.2.3V75.6zm1.7 7.8c.2.5.8-.3 1.3-1s.5-.2.5.4c0 .4 0 1 .3 1.4.2.3.4.2.5 0 0-.4 0-1 .3-1.2s.4 0 .4.2l.5 1c.3.3.4 0 .5-.5l.3-1.2c0-.2.3 0 .3 0l.6.5c.4.3.4-.2.4-.5V82s.5 0 1 .3c.4.3.4-.2.3-.5 0-.2-.4-.8-.8-1-.4-.4-.4-.8-.3-1h1.4c.2 0 .2-.4.2-.4s0-.3-.5-.6c-.2-.3-.4-.5-.7-.5-.4-.2-1 0-1 0V78h-.2c0 .2 0 .4-.3.4 0 .2-.2.2-.3.2v-.2l.5-.5v-1H117.7h.5c.3 0 .4-.4.5-.7s0-.3.3 0 .4 0 .4 0l.4-.7c.2-.3.3-.7 0-1h-.8l-.4.8c0 .5-.2.3-.2 0s-.2-.2 0-.4v-.3s0-.3-.5-.4-1 0-1.2 0-.3.5-.3.5h-.5c-.4 0-.7.3-1 .3-.3 0-.4.2-.4.4v.3h.4c.2 0 0 .3 0 .4 0 0-.2 0-.2.3s0 .3.2.3l.8.2s.5.5.4.7c0 .2-.5.4-.8.4s-.3 0-.3 0c0 .3.4.3.4.3h1c.5 0 .5.3 1 .5 0 .2 0 .3-.2.3l-.5.4c-.2 0-.4.2-.5.3-.2 0-.6 0-1.5.3-.8.3-1 1.4-1 1.4l.5-.3 1.2-.6c.4-.3.4 0 .2.5 0 .2.3.2.4 0l.6-.3c.5-.2.3.2.3.2l-.2.7c0 .7.6 0 1-.3s.3 0 0 .5c0 .2-.5.6-.8.6-.2 0-.4-.3-.4-.4v-.7c-.2 0-.6 0-1 .2-.3.2-.3 0-.4 0v-.4h-.3l-1 .5c-.6.3-.6.5-.6 1s0 .4.4 1v-.3zm5.2-8.8l.3-.2h.5c.2 0 0-.2 0-.3 0 0 0-.2-.4-.2-.3 0-.5.2-.6.3l-.4.2v.2c.2.2.4.2.5.2v-.3zm1 1.3h.4l.4-.3c.2 0 .3 0 .4-.3 0-.3 0-.3-.5-.3-.4 0-.5 0-.5.3 0 0 0 .3-.2.5v.2zm0 .3c-.3 0-.7.5-1 .6l.2.5v.5h.3c.3 0 .4 0 .6-.2l.7-.3c.3 0 .5 0 .8-.3.3-.2-.3-.5-.5-.8h-1zm-4.6 1.2c.3 0 .4-.2.4-.3s0-.3-.5-.3c-1 0-1.7-.4-2-1.2 0 0-.3.5.3 1.2.5.5 1.5.5 1.8.5zm-3 13.7s0 .2.2.2h1.4V91l.5-1.5.6-2V87l-.4-1c0-.2-.4 0-.5 0s-.2.2-.2.4c0 .3 0 1-.3 1.8 0 .8-1 1.7-1 1.8l-.6.3h-.7s-.3.4-.3.6c0 .2.4.2.4.2l.3-.2c0-.2.3-.2.5-.2.3 0 .3 0 .2.2v.2zm-2 0h-.2 1c-.3-.3-.5-.2-.8 0z"/><path fill="#D4AF3A" d="M111.6 91l-.3.3h1V91c-.3-.2-.5 0-.7 0zm8-.3l-.3.2-.2.3h.6s0-.2.2-.3c.2-.2 0-.3 0-.3zm1 .4s0-.2-.3 0l-.4.2c-.2 0-.2 0-.3.2h.6l.2-.3zM124 87c.4-.2.4-.3.4-.5V86c-.2-.2-.6-.3-1-.3s-1.2 0-1.5.3c-.4.2-.6.8-.6 1.2s0 .5.3.5.3-.3.3-.3l.6.8c.2.3 0 .5 0 .8 0 .2-.5 1-.8 1-.3.2-.5 0-1 0s-.4 0-.7.3 0 .3.2.3c0 0 .3 0 .5.2v.5h1.7c.3 0 .5-.5.5-.7l.6-.7c.2-.3.2-.4.2-.8l-.2-.8c0-.3-.3-.7-.2-.8 0-.3.4-.5.6-.7v-.2zm-2.7-4.3v.3h-1c-.4 0-.4 0-.4.3s0 .7-.4 1c-.2.3-.5.3-.6 0s-.3 0-.4.3l-.4.7c-.2.3-.3.3-.5.3s-.2-.3-.3-.3-.4-.3-.5-.6c-.4-.3-.5 0-.6.3 0 .3-.3.5-.5.5-.3 0-.6-.5-.7-.8 0-.3-.2-.5-.5-.5 0 0-.5.4-.8.4-.3.2-.4.2-.5 0 0-.2-.2 0-.4.4 0 .3 0 .7.3.8s.6-.2 1-.3l.5-.2s.3.6.4 1.2c0 .7.5.8.5.8s0 0 .5-.4c.3-.5.3-1 .5-1 .3 0 .4 0 .6.4.3.4.5.7.7.4 0-.3.3-.7.5-.8 0-.2.4-.3 0 0 0 .3-.2.6.2.5s2-.7 2.5-.7l1.6-.2h1.4s.4 0 .4-.3 0-.2-.7-.2h-2.1s0-.2.6-.2l2-.2s.4.3.3.6v1.2c0 .3 0 .5.3 1s1.3.6 1.5.8c.3.2.3 0 .3-.3s.3-.3.6 0l1 .2c.2 0 .2.2.2.3v1.4l-.6 1h-.8c-.5.2-.6.4-.8.7s0 .2 0 .2v.3h.2l.2-.3c.2-.2.6-.3 1-.2v.5h1.4l.6-1.3.2-.8v-2-.8c0-.5 0-.8-.8-.8s-1-.4-1.4-.7c-.3-.2-.3-.8-.5-1.6 0-.8-.7-1-1.6-1-1-.3-1.7-.3-2.4-.2s-1.5.2-2 0c-.6 0-.5 0-.3.3zm4.5 8.7l-.2.2h.8V91c-.2 0-.4 0-.6.2zm1.5 0h-.3.8s-.4-.3-.5 0zm-20.4.4v.8h26l.2-.8H107zm17.3-12.4c1 .5 3.5.6 4.6.8 1 .3 1 1.2.6 1.7s-2 .5-2.4.6c.2 0 .5.5.5.5h.6c.5 0 1.4-.3 2-.8.6-.5.5-1.3 0-2-.5-.4-1.5-.5-2.4-.6L125 79c-1 0-1.5-.4-1.5-1 0-.7.5-1 1-1 .3-.3 1-.4 1.5-.2.6.2 1.3.3 2.4 0s1.4-1 1.4-1 0 .3-.7.3l-2-.2c-1 0-1.5.3-2 .5s-1.8.3-2 1.2c-.6.8 0 1.2.8 1.8h.3z"/><ellipse cx="117.5" cy="75.3" fill="#B96B29" rx=".5" ry=".5"/><path fill="#B96B29" d="M128 76.2h-1.5s0 .3.4.2h1c.7 0 1.2-.2 1.2-.2H128z"/><path fill="#1D5E91" d="M122 88.2c-.2-.3-.3-.3-.5 0-.2 0-.4-.4-.4-.8l.2-1.4-1.4.3-1.4.3-.7.2h-1s-.3 0-.6.4c-.3.3-.4.5-.6 1-.4.7-.4 1.3-.5 2 0 .6-.2 1-.3 1h4l.2-.3c0-.4.3-.5.4-.6s.3 0 .4-.2c0-.2.3-.3.5-.5s.6 0 1 0c.3.2.4 0 .4-.2l.4-.5c.2-.3 0-.5 0-.5v-.3zm6.4 0c0-.2 0-.2-.2-.2 0 0-.4 0-.5-.2-.3 0-.3.5-.3.5h-1c-.6 0-1.3-.6-1.5-.8l-.6-.5-.3.2-.2.8c0 .3.3.8.4 1 0 .4-.4 1-.5 1.4l-.5.8h2s0-.2.2-.3l.5-.4v-.3c0-.2.3-.5.8-.6l1-.3.5-.5c.2 0 0-.5 0-.7z"/><path fill="#D4AF3A" d="M112 110c.5 0 1-.3 1.5-.6l.6-1.5.6-.7s0 .6-.5 1.4c-.2.8-.2 1.8-.2 2.3 0 .8.8 1 1 1 .4-.2.7-.6 1-1.2l.4-.7.5-1c.3 0 0 .4 0 .8 0 .7-.5 1.7-.5 2.3s0 1.8.6 2c.5 0 1-.6 1.3-1.8l.6-1.7c.2 0 .2 1 .2 1.3v.8c0 .7.3 1.5.5 1.7.3.3.5.2.5.2s.3 0 .5-.3c.4-.3.5-2 .5-2.5s0-1.2.2-1.2c0 0 .3.5.6 1.7.3 1.3.6 1.8 1.3 1.7.5 0 .6-1.2.6-2s-.4-1.5-.5-2.2c0-.7 0-.7.6.3 0 .4.3.7.5 1 .4.4.7.7 1 .8.3 0 1 0 1-1 0-.8-.5-3.4-.5-3.4l.3.4c.3.4.4 1 .7 1.5.4.3 1 .6 1.5.5s.4-.8 0-2c-.2-1.3-1.3-2-2-3-.8-.8-1.4-2.4-1.4-2.6-1 .5-2 1-2.6 1.8l-2 2-2-2c-.8-.8-1.6-1.4-2.6-2 0 .4-.8 2-1.5 2.8-.4.5-1 .8-1.2 1.2-.5.5-.7 1-.8 1.8-.5 1.2-.4 2 0 2z"/><path fill="#D4AF3A" d="M112 114l.8-.7s.4-.3.3.3-.2 1.7 0 2.2 0 1 .8.5c.6-.3.8-.5 1-.8.4-.3.6-.5.5 0 0 .5-.3 1.2 0 2 0 1 .4 1.2 1 .4.6-1 1-1.6 1-2 .3-.4.7-.8.7 0 0 1.6.4 4 2 4.5 2-.7 2.2-3 2.2-4.5 0-.8.4-.5.5 0l1.2 2c.5.7 1 .6 1-.4.2-1 0-1.7 0-2.2s.3-.3.5 0l1 .8c.6.3.7 0 .8-.5v-2.2c-.2-.5.2-.3.2-.3l.8.7 1 .4s.4-1.8-.3-2.8l-1-1.3s-.4 0-.6-.2c-.3 0-.5-.2-.5-.2v1l1 1c0 .2.5.6 0 .2l-1-.8s-.2.8-.5 1c-.3.3-.6.3-.8.3v.3s.4 1 .4 1.4c.2.4 0 .3-.2-.2s-.7-1.2-1-1.5-.5-.7-.5-.2c0 .5 0 1.3-.3 1.5l-.3.5.4 1.3v.2l-.7-1.4s-.7 0-1-.2c0-.3-.4-1-.4-1l-.6 1.3-1 .7v2c0 .3 0 .5-.2.5l-.2-.5v-2l-1-.7c-.2-.3-.4-1.3-.4-1.3l-.6 1c-.2.2-1 .2-1 .2l-.6 1.4c-.2.3-.2 0 0-.2l.3-1.4-.3-.5c0-.3-.4-1-.3-1.5 0-.5-.3-.3-.4 0s-.8 1-1 1.6-.4.6-.3.2l.6-1.4v-.3h-.3s-.5 0-.8-.2-.5-1-.5-1l-1 .8c-.6.4-.2 0 0-.3l1-1v-.5l-.5.3-.8.2-1 1.3c-.6 1-.4 2.7-.4 2.7s.8-.2 1.2-.5zm8.6 11c-.5-.4-.6-.7-.6-.7l-.6.8-1.5 1.4s0 1.4.5 2c.5.7 1 1.3 1.5 1.7.7-.4 1-1 1.5-1.5.5-.8.6-2.2.6-2.2s-1-.6-1.4-1.2z"/><path fill="#B96B29" d="M119.8 126.8c0 .3 0 1.2.2 1.2s0-.8.2-1.2v-1h-.5v1z"/><path fill="#D4AF3A" d="M120 50.5c-2 0-4-.3-5.3-.8l-1.3.3c2 .8 3.6 1 6.6 1 3 0 4.6-.2 6.6-1l-1.3-.2c-1.2.5-3.5.7-5.3.7zm7-1.7l-1.4-.8c-.2 0 0-.4 0-.5 0-.2 1-.4 1.5-.5l.6-.3s-.4-.3-2.3-.6H120s-3.5-.2-5.5 0c-2 .3-2.3.6-2.3.6s0 0 .5.3c.5 0 1.5.2 1.5.4 0 0 .2.4 0 .5l-1.3.7c-.2.2-.2.3 0 .3l1-.2c2-.3 3.8-.5 5.8-.5s4 .2 6 .6h.8c.4 0 .4 0 .3-.2z"/><path fill="#D4AF3A" d="M124.6 49.7c-1.4-.2-2.2-.3-4.6-.3-2.5 0-3.3.2-4.6.3 1 .3 2.2.5 4.6.5 2.5 0 3.8-.2 4.6-.5zm-5-18.2h1v-1h1v-.8h-1v-1h-1v1h-1v1l1-.2m2.2 2.4h-1.3v-1.3h-.8V33h-1.5v.5h3.6V33z"/><path fill="#1D5E91" d="M120 35c1 0 1.5-.5 1.8-1h-3.5c.3.6 1 1 1.7 1zm.8-3.2v.8h1l-1-.8zm-1.5 0c-.4.2-.8.5-1 .8h1v-.8z"/><path fill="#B96B29" d="M121 46.7l-1-.5-1 .5c-.5.3-.5.2-.6.5s0 .3.2.5l1.4.7 1.5-.7c.3-.2.3-.3 0-.5 0-.3 0-.4-.4-.5z"/><path fill="#D4AF3A" d="M118.8 47l1.2.6 1.2-.6-1.2-.5m0-4.2s0 .5-.3.7c0 0-.3.3-.2.5 0 .2.4.3.5.3l.4-.3V43l-.4-.7z"/><circle cx="120" cy="44.3" r=".3" fill="#D4AF3A"/><path fill="#D4AF3A" d="M119.2 43s.4-.3.5-.6l.3-.5.3.4c0 .3.5.7.5.7s.6-.2 1-1.2c.2-1 0-2.2-.3-3.4S121 35 121 35c-.3.4-.7.4-1 .4-.4 0-.8 0-1.2-.3 0 0 0 2-.3 3.4 0 1.2-.5 2.3 0 3.4.2 1 .7 1.3.7 1.3z"/><ellipse cx="120" cy="40.8" fill="#B96B29" rx=".9" ry=".9"/><ellipse cx="120" cy="38.6" fill="#B96B29" rx=".9" ry=".9"/><ellipse cx="120" cy="36.5" fill="#B96B29" rx=".8" ry=".8"/><ellipse cx="120" cy="40.6" fill="#D4AF3A" rx=".5" ry=".5"/><ellipse cx="120" cy="38.5" fill="#D4AF3A" rx=".5" ry=".5"/><ellipse cx="120" cy="36.4" fill="#D4AF3A" rx=".4" ry=".4"/><path fill="#B96B29" d="M120 112V110.3c.2-.4 0-.3 0-.3-.2 0-.3.3-.3.5v1.4h.3z"/><path fill="#D4AF3A" d="M110 119.7l2-1.2c1-.6 1.2-1.3 1.2-1.3h-.4c-.2 0-.4-.3-.4-.5v-1.3-1l-1 .6c-.6.3-1 .2-1 .2v-.5l-.7 1.2c-.4.6-1.4 1.3-2 2-1 .4-1.6 1-2.2 1.2-.6.2-.3.5-.3.5s.6.5 2 .8 2.5-.5 3-.8z"/><path fill="#D4AF3A" d="M115.6 119c-.5 0-1-.2-1-.7v-2l-.4.5c-.2.3-.6.3-.6.3l-.3.7c-.2.3-.5.8-1 1-.5.4-1 .8-1.5 1-.5.5-1 1-1.5 1-.5.4-1 1-1 1.8-.3.8 0 1 .4 1 .6 0 .8 0 1.8-.3s2.4-1.3 3.5-2c1-.7 1.7-2 1.6-2z"/><path fill="#D4AF3A" d="M118.4 120s-.5-.5-.6-1.2l-.5-1.8-.4 1.2c-.5.8-1 1-1 1l-.5 1-2 1.4c-.7.5-1.6 1-2 1.8s-.6 1.5-.4 1.8c.3.4.6 0 1-.2s2-.5 4-1.5 2.4-3.3 2.4-3.3v-.2zm.7 4.2c.6-.8.7-2.7.7-2.7l-.4-.3c-.3-.2-.8-1-.8-1l-.6 1.3c-.5.6-.6.8-1.4 1.5-.7.7-1.6 1.3-2 2-.5.7-.2 2 0 2.5s.6.3 1 0c.5-.4.5-.6 1.3-1s1.6-1.5 2-2.3z"/><path fill="#B96B29" d="M113 108.5c.3-.6.6-1.3 1-1.7s.3-.8.3-.8l-1 1-.5 1.3c-.2.6 0 .6.2.2zm2.6.4v-.7s.2-.3 0-.4l-.4.7c0 .6-.5 1.5-.4 1.5.2 0 .7-1 .8-1.3zm2.2 1.6v-.3l.4-.8c0-.2 0-.3-.3 0-.3.4-.3.8-.4 1 0 0-.3.6 0 .7l.2-.6zm-6.5 6.4l-.3-.2-.5.5c-.2.3-.5.3-.6.5-.2.3-.6.6-1 .8l-.5.3h.3l.6-.5 1-.8.8-.8zm2.2 2.7c.2-.2.4-.3.3-.5h-.5l-1 1-.7.4-1 .7c-.3 0 0 .2 0 .2l.4-.3.8-.3.5-.5 1-1 .2.2zm2.6 1.8c.2-.3 0-.2-.2 0l-1.3 1-1 .4c-.3 0-.3.2-.2.2h.3l.6-.3.4-.2.8-.5c.3-.3.6-.5.7-.8zm1.4 2.4c-.5.2-1.3 1-1.5 1.2l-.4.8s.3 0 .4-.2l.3-.4 1-1s1-.7 1-1v-.5s-.5.7-1 1z"/><path fill="#C52126" d="M105 56.7c-.5-.3-1.5-.8-2.8-.8-1.2-.2-2 0-3 .2-.7.2-1.4.3-2 0-.8-.2-1.4-1-1.7-2 0 0-.8 1 0 2.3.4.5 1 .8 1.5 1 1.6.3 3.3-.8 4.8-.8 1.4 0 2.4.8 2.4.8s.4.3 1 0c.2-.4.2-.6-.2-.8z"/><path fill="#D4AF3A" d="M100 105.8h-.3l-1-.3h-.4l-1.4 1h2c.7 0 1-.7 1-.7zm5.8-.3v-.2l-.3-.6-.6.5-1 1.3c-.5.4-1 .8-.5 0 .4-.6.5-1 1-1.4l.4-.6-1.2-.2c-1-.2-1.4-.5-1.8-.7l-1-.6-2 .7s-1 .2-.5.5l1.3.5c.3.2 1 .4 1.5.4s1.4 0 1 .4c-.3.3-.7 1-1 2-.4 1-.4 1.8-.4 2.3v1s.5-.8 2.2-1.8l2.5-1.6c.3-.2.4-.2.4-.5v-1.6h-.2zm6-4.8l-.2-.2c-.2.2-1 .8-1.5 1.5-.4.5-.8.6-.3 0 .4-.8.8-1.2 1-1.5.2 0 .3-.2.4-.3l-2.4-1.4c0 .2-.3.6-.5.8-.2.3-1 .7-1 .7l1-1c0-.4 0-.7.2-1l-1.6-1.5c0 .4-.4 1.4-1.4 2.5-1.2 1.3-3.7 2-3.7 2s-1 0-.2.4 1.2.5 2.6.3l1.5-.3c.2 0 .7 0 0 .3s-2.3.5-3 .5c-.5 0-1.4-.3-.5.3s1.3.7 1.8.7l1.3.2 1-.2c.5 0 .7 0 .7.2s-.5.5-.5 1.6c0 1 0 1.7.2 2l.5 1c0 .3 0 .6.3 0l.6-2 .2-1c0-.3.4-.5.3 0l-.5 1.8c0 .6-.3 1.5 0 .8l2.5-3 .7-1c.2-.2.8-.6 1-1l1.4-1.3-1.5-.7zm-23-43c0 1 1 3 1.7 4 .6 1 1 1.4.8 1.5l-.8-1L89 60l-1.6-3c-.2-.3-.2-.4-.5 0-.4 0-1 2.2-.3 3.7s1.7 2.5 2 3c.5.5 1 1.4 1 1.5l-.8-.8-2-2.2c-.6-.5-1-1.7-1.4-2 0-.2-.2-.2-.3 0-.2 0-.5.5-.4 1.7 0 1.6 1 2.5 1.7 3.4.8.8 1.5 1.5 1.4 1.6s-.8-.6-1.3-1l-2.2-2.3c-.3-.3-.8-.2-.7 1.3 0 1.5 1.7 2.8 2.3 3.6.7.8 1.6 1.3 1.4 1.4 0 .2-.7-.3-1.2-.5L84 68c-.4-.3-.6 0 0 1.4.2 1.4 1.4 2.5 2 3s2 1 2 1.2c-.2.2-.6 0-1.3-.3l-2-.8c-.6-.2-.6.3-.6.3s0 1.2.8 2 1.8 1.3 2.7 1.5l1 .3c0 .2 0 .2-.3.2h-1.8s-1.2.3-1.2.6 0 .8 1.2 1.5c1 .7 2.4 1 3 1 .5 0 .5 0 .4.2 0 .2-.4.2-1.2.3s-1.3.4-1.5.7c0 .2.2 1 1 1.3.6.5 1.5.6 3 .5 1.2 0 1.5 0 1.5.2s-.4.3-1 .4c-.7.2-1.2.2-1.6.5-.5.4-.2 1 .4 1.5s2.3.5 3 .5 1.6-.3 1.7-.2-.4.5-1 .7c-.7.3-1 .4-1 .7-.2.3 0 .5.7.8.8.3 2 .3 2.6 0 .6-.3 1-.4 1-.3.2 0 0 .3 0 .4-.2.3-.8.6-1.4 1s-1 0-1 .7c-.4.5.3 1 1.5 1s3-.4 3.5-.8.7-.4.8-.4l-.2.4c-.3.2-1 .8-1.5 1-.4 0-.4.3-.4.6s0 1 1 1.2c1 .3 2.4 0 3.6-.8l.8-.7v-2.7c-.2 0-.6 0-1-.3-.6-.3-1-1-1-1.3-.2-.3-.5-.3-.7-.2l-1 .2s-1-.2-1.7-.8c-.6-.7-.5-1.3-.5-1.7 0-.4-.4-.2-.8-.2-.3 0-1 0-1.8-.6s-.7-1.2-.8-1.5c0-.2-.5-.4-.6-.5l-1-.5c-.5-.5-.8-1.3-.8-1.5s-.4-.3-1.4-.8-1-1.8-1-2c0-.6.6-1 .6-1l-.6-.5c-.4-.2-1.2-.5-1.2-1.8s1-1.3 1-1.3L89 72c-.3-.2-1.2-.8-1.2-1.5 0-.8.4-1.2.6-1.3.3-.2 1-.3 1-.3s-.6-.4-.7-1c-.2-.5-.3-1.2 0-1.7.6-.5 1.2-.5 1.6-.5s.8.2 1 0v-.5c0-.3-.2-1 0-1.2 0-.2 0-.7 1-1 1-.2 2 .4 2.3.6s0-.3 0-.6-.5-1-1.2-2.2c-.8-1-1-1.7-2-3.4s-1.3-4-1.4-4.5-.3-.4-.3-.4-.3 0-.8 1.4c-.6 1.3-.7 2.5-.6 3.5h.3z"/><path fill="#D4AF3A" d="M105.5 80.5c-.5 0-1.3-.4-2-1.2-.4-.8-1.3-1-2.8-1s-2.2-.7-2.5-1.8c-.5-1 0-2.2 1.5-3s2.2-1.5 2.3-2.8c0-1.3-1.5-3-3-4.7s-3-4.4-3-4.4-.3.6-.3 1.2.3 1.3 0 1.5c-.3 0-.3-.3-1.3-.8-1-.3-1.6-.4-2.3.3s0 1.8.6 2.4c.5.5 1 1 1 1.2s-1-.3-1.4-.5-1-1-1.8-1-1.2.5-1.3 1.3c0 .8 1 1.4 1.5 1.7.5.3.8.5.6.7h-.4c-.3 0-1-.3-1.5 0-.4 0-1 .7-.4 1.5.7.8 2 1 2.4 1 .3 0 .5 0 .5.3s-.6.3-1.4.3-1 .8-.8 1.3 1.4 1.3 2 1.4c.8 0 1 0 1 .2.2.2 0 .3-.4.3s-1 0-1.3.7c0 .6 0 1 .5 1.5s1.5.4 1.8.3c.3 0 .6-.3 1 0 .2.3-.4.5-.8.8-.5.3-.5 1 .4 1.5 1 .4 1.7.3 2 .2s1-.7 1-.3-.6.5-1 1-.3 1.3.5 1.8 2 .2 2.3 0c.2-.3.5-.3.6-.2.2.2 0 .7-.3 1 0 .5-.5 1.7.8 2 1.3.6 2.4-.4 2.5-.7.3-.2.5-.2.6 0 .2 0 0 .2 0 .4-.2.2-.5 1 .4 1.6.5.4 1.2.4 1.5.3l.7-2.5h-.2v.4h-.4l-.4.3.5-.4c0-.3.3-.4.3-.6 0 0 0-.2.3-.3l.5-2.5v-1.8h-.3zM81 62.5c1.3 2.6 3 4 3 4l-.3-1v-1l-1.3-1.8-1.3-3.2 1.5 3 1.3 1.8.4-1c.2 0 .3.2.5.3l.3.2-.5-1c-.2-.2-.5-.4-.5-.7-.5-.7-1.6-2-2-3.6-.6-1.5-1.8-5-2-6.2-.2-1-.4-.5-.6.3s-.6 2-.4 3.5.5 3.8 1.8 6.4h.2zm1.6 7l1.2.8-.2-.5v-1l-1-.8c-.4-.3-1-.8-2-2s0-.5.7.4 2.3 2 2.3 2v-.2c0-.3 0-.5.3-.7 0-.2 0-.2-1-.8s-3-3.2-3.8-4.7l-2-3.5s-.4 3 1.4 6.3 3.6 4.4 4 4.7zM92 88.3c1-.4.8-1.3.8-1.4l-1 .3c-.7.3-2 .7-2.6.7s-.5 0-.5-.2l1-.2c1-.2 2.2-.8 2.5-1 .3-.2.2-.2 0-.3-.5 0-.7-.2-1-.3l-1.3.3c-1 .2-3 .5-4.3.5s-2.8-.2-3-.3c-.2 0-.5 0 .3 1.3.7 1.2 3 1.8 4.8 1.8 1.6 0 3.3-1 4.3-1.3zM87.8 86c1.7 0 2.4-.6 2.4-.6V85c-.4-.4-.3-1-.3-1l-1 .2c-1 0-1.7.2-2.6 0s-.4-.3.3-.2c.8.2 2 0 2.6-.3.4-.2.2-.3 0-.4-.5 0-1.3-.6-1.3-.6s-2 .3-4 0c-2-.2-3.3-.7-3.7-.8s-.4 0-.4 0 0 0 .5 1.2c1 1 2 1.8 3.3 2 1 .5 2.6.7 4.4.7zm-.5-4.2l-.2-.5c0-.3.2-.5.2-.5s-.3-.2-1.7-.3l-2.2-.5c-.8 0-1.3-.3-1.3-.5s.3 0 .8.3c.5.2 2.5.4 3.3.5 1 .2 1.4.3 1.6.2l.6-.3-.7-.2c-.5 0-.8-.3-1-.5-.3 0-.3-.2-1.5-.3-1 0-1.8-.5-3.8-1.2-2-.7-3.3-1.5-3.7-1.8-.4-.3-.4 0-.3.3 0 .4 0 1 1 2s1.5 1.6 4 2.5c2.4 1 5 .8 5 .8zm-7-5.8c2 1.5 4.5 2 5 2 .2 0 0-.6 0-1 .2-.2.4-.2 1-.2.4 0 0-.2 0-.2l-1-.2c-1-.3-1.8-.3-3-.8l-1.4-.8 1.7.7 3 .7c.8.2.2-.2-.2-.3l-.8-1-2-.5S80 73.7 79 73c-.3 0-.7-.4-1-.7L76.3 71c-.5-.3-.3 0-.3.2s.3 1 1 2c.8 1 1 1.3 3 2.8zm-.4-4.2c2 1.7 4 2.2 4.2 2.3.3.3.3 0 .2 0L84 73l-1.5-1c-.8-.4-1.8-1-2.4-1.5-.5-.5-.2-.4 0-.3l2 1.2c.7.6 2 1.3 2 1.3s0-.4.2-.6.6 0 .6 0l-.3-.5c0-.3-.8-.6-1.5-1-.8-.2-2.3-1.2-3.3-2-1-1-3-3-3.2-3.4-.2-.2-.3 0-.3 0l.2 1.5c.2 1 1.2 3.2 3.3 5v-.2zM87.2 56l.7 1.2.4.8v-.5-2-.6l-.6-2.5c-.2-.8-.3-2-.3-3.2s0-.5 0 0 0 1.3.4 2.6c0 1.2.6 3 .6 3l.2-.6.6-1.5c.2-.6 0-.7 0-.7s-.7-3.5-1-5.2l-.4-6c-1 1-1.8 4-2 6.7 0 2 .3 4 .3 4.7 0 1.5.5 2.7 1 3.6zm-2.4 5.6c0-.8.2-1.4.7-1.6 0 0-.5-.8-.8-2-.3-.7-.5-1.7-.6-2.5-.2-2-.4-3.8.2-.7.5 3.2 1.3 4.3 1.3 4.3l.8 1.4c0-.5-.2-1 0-1.6s0-1.5.2-2.2c0 0-1-2-1.6-4.3s-1-4.5-1-5.8c0-1.2-.2-1.7-.2-1.7s-1 .8-1.3 4.7c-.3 3.8.7 7.5 1.2 9l1.3 3h-.2zm11 29.5l-.5-.3c-.5-.3-.3-1.2-.3-1.2l-.5.3-1.3.8-1 .5c-.3 0-.3 0 0-.2l1-.5c.6-.2 2-1.3 2-1.3h-1l-1-.3s-.6.5-2.7 1.5c-2 1-4 1-4 1s.3 1.2 1.3 1.6c1 .3 2 .5 4.3 0s4-1.5 4-1.5V91zm2.8 2.3c.2-1-.4-1.5-.4-1.5l-.4.3c-.4.4-.8 1-1.7 1.4s-1 .5-.3 0l2-1.8-.3-.2c-.4-.2-1 0-3.3 1.5s-3.8 1.4-3.8 1.4 1 1.3 4 1.2c3.3 0 4.3-1.5 4.4-2.3zm5.5-1s-.2.5-.7.8-1.5.6-1.5.6l-.4.4c0 .3-.6 1-1 1.3s-1.4.5-1.4.5l1-.6c.4-.3 1-.8 1.2-1.3s0-.4 0-.4H100c-.5 0-.5 0-.6.3s-.4.4-.8 1L97 96.5c-.2.4 0 .5 0 .5s.2.4 1.5.5c.8 0 1.7 0 2.6-.5.6-.3 1.2-1 1.8-1.5 1.5-1.8 1.5-3.2 1.5-3.2h-.2zm1 3.5l-.6.6.5-1c0-.2 0-.3.2-.5-.3-.6-.4-1-.5-1.6-.2.5-.6 1.8-1.2 2.7-.6 1.2-1.3 1.6-1 2s1.2.2 2 0c1-.6 1.2-1.3 1.3-2l-.4-.6-.5.4z"/><ellipse cx="104.6" cy="52.9" fill="#D4AF3A" rx=".6" ry=".5"/><path fill="#D4AF3A" d="M103.4 51.8c.5 0 1-.3 1.5-.2.5 0 1.5.5 2.7 1 1 .5 2 .7 3.3.4.3 0 .6-.3 1-.5 1.4-.8 1-2.3 1-2.3-1 .8-2.4 1.2-3.5 1 0 0 0 .2.3.3.2.3.6.5.5.6 0 .2-.7-.3-1-.6-.6-.3-1.2-.8-2.3-1-1-.4-2.4-.4-3.2 0-.8.5-1 1-.8 1.3l.4.2v-.2zm15.4 11.6c-.3 0-.6-.2-1.3-.7-.5-.5-2-2-2-2.3-.2-.3 0-.5.3-.7.4-.2.6-.7.6-.7s-1-.3-1.4-.7c-.5-.5-2-1.6-2-2s0-.3 0-.4l.5-.4-1.3-.8-1.4-1.2c-1 .3-2.2.2-3 0-1.2-.2-2.2-.7-2.2-.7l-.2.4c0 .5-.7.7-1.3.3s-.4-1.3-.4-1.3l-1.4-.6s-1.8-.4-2.6 0c-.8.3-1.2 1.4-1.2 2.3 0 1 .5.6.5.4 0 0 .2-.7 1.3-.8 1-.2 2 .3 3 1.3l2 1.5c.6.6 0 1-1 1.3s-2.2-.3-2.2-.3.5 1 1.4 1.3c.8.3 2 0 2.8-.3.5-.2.6 0 1 .2.8 1 1 2 1.2 3 .5-.2.8-.6 1-1 0-.2 0-.6.3-.3s.5 2 .5 2.7v2h.2l.8-.5c.4-.3.5 0 .5.4s0 1 .6 2.5 1.4 1.8 1.4 1.8l.3-.8c0-.5.3-1.6.3-2.5l-.2-3s1.2 1.4 2.5 1.8c1.2.3 2.4 0 3-.5.4-.5 0-.8-.3-.8h-.4zM111 67l-.5 1-.4.4 1 .4 1 .3-.8-1.2-.2-.8zm7-.5l-.2-.7c-.7.2-2-.2-2.7-.5 0 0 .6 1 1.2 1.5l.6.3s-.5.2-1.3-.6c-.8-.7-1-1.5-1-1.5s0 2-.2 3l-.4 1.3s1.5.2 3.2-.3c1.8-.5 2-.7 2-.7s.2 0 0-.4c-.3-.2-1-1-1-1.5z"/><path fill="#B96B29" d="M115 62.3l-.6-.8v.5c0 .3 1 1 1.4 1.3.5.3 1 .3 1 .3s-1.3-.6-1.8-1.3zm-2 4l-.2-2.8-.2-.2h-.3l.5 3.6c0 .4.3.3.4.3-.2 0-.3-.8-.3-1zM109.5 56c-.2-.3-.6-.5-.3 0 .5.5 1 1 1 1.5.4.5.5 1.2 0 1-.2 0-.4 0-.7-.3l-1-.8c-.3 0-.7 0-.4.4l1.4 1.2 1.3.8.5.4s-.3-2-.8-2.8-.8-1.4-1-1.5zM99 89c-.5.3-1 .3-1 .3h-.2.5c.4 0 .8-.3 1-.5l.3-.4-.6.6zm3.4 1.8l-.8.6-.5.2v.2c.4 0 1-.5 1.2-.8.3-.2.4-.2.3-.3zM88.4 66l.4.3s0-.2-.2-.3l-.3-.3-.3-.5c-.2-.2-.4-.3 0 0l.4.8zm-1 2.3l.5.5s0 .3.2.2l-.4-.5-.5-.5-.4-.3.4.6zm.4 3.7c.3.3.6.4.7.3 0 0 0-.2-.3-.3l-.8-.5-.5-.3-.4-.2.5.5c.3 0 .4.3.7.5zm.7 3v-.2h-.6s-.6-.2-.6 0l.5.2s.3 0 .4.2c0 0 .2 0 0-.2zm.4 3.3h-1l.4.3 1 .2s.4 0 .4-.2-.5-.3-1-.3zm3.5 3.6c0-.2-.2 0-.5 0h-1.7l-.3.2h1c.5.2 1 0 1.3 0 .2 0 .3-.2.2-.3zm1.5 2.5h-.6l-.8.2s-.3 0-.2.2H93.6c.4 0 .6-.3 1-.3.2 0 .4-.2.3-.3-.4-.2-.6 0-1 0zm3 1.8c0 .2-.8.6-.8.6h-.4s-.3.3-.2.4.2-.2.4-.3l.8-.4.5-.5-.3.2zm-5-24.8l.6.7c.5.7.3 0 0-.2l-1-1.5c-.3-.3-.3 0-.2 0l.7 1zm-1 3.2s0-.2-.4-.5l-1-1v-.4l.4.8.7 1s.3.2.3 0zm1.5 6h-1l-.7-.3h-.5l.4.2 1 .3s.8 0 .8-.2zM91 67.6c.4.3.6.5 1 .6 0 .2.3.4.4.3 0 0 0-.2-.5-.3l-.6-.3-.4-.2c0-.2-.3-.3 0 0zm3.3-2.2L94 65s-.4-.3-.5-.2l.5.5c.3.2.5.7.7.6.2-.2 0-.5-.4-.7zM92 74h-.4s-.3.3 0 .3l1-.2h.5c0-.2-.2 0-.4 0H92zm.8 3h.5l.8-.4c.4 0 .4 0 .4-.3H94c-.5 0-1 .4-1 .4l-.2.3zm4 2l.3-.4-.4.2c0 .2-.6.5-.6.5l-.4.2s-.4.2-.3.3c0 0 .4 0 .6-.2 0-.3.5-.5.8-.7zm1.8 2.4l.5-.3c.3 0 .4-.4.3-.4l-.5.3-1 .6h-.4c-.3.2 0 .3 0 .3.3 0 .4 0 .6-.4l.5-.3zm2.8 2.4c.3 0 .6-.4.8-.5.2-.2.4-.4.3-.5 0 0-.3 0-.5.3l-.6.8-.4.3c-.3.3 0 .2 0 0l.4-.2z"/><path fill="#D4AF3A" d="M112.8 48.3l1-.8-1.2-.3-1 .7 1.2.3z"/><ellipse cx="116.4" cy="47.3" fill="#B96B29" rx="1" ry="1"/><ellipse cx="116.4" cy="47.2" fill="#D4AF3A" rx=".6" ry=".6"/><path fill="#D4AF3A" d="M114.2 43.8h.6s0-.4 0-.7l-.7-.4v-.3.7c-.2.3-.2.7.2.8z"/><ellipse cx="114.7" cy="44.3" fill="#D4AF3A" rx=".2" ry=".2"/><path fill="#D4AF3A" d="M113.3 44.2l-.3.3h.4c0 .2.4.3.6.3.2 0 .3-.2.3-.3 0-.2 0-.3-.5-.4-.3 0-.4 0-.5.2zm.7 1.2c-.6 0-1.5-.7-1.5-.7 0 .6-.5 1-1 1s.5.3 1 .4h1l1-.2c.4-.3.3-1 .3-1s0 .5-.8.6zm-2.6-.7l-1-.3s-.3 0-.3.3.5.5.8.5c.3 0 .5 0 .6-.2.3-.2.2-.2 0-.3zm-2-1.2l-.6-.2s-.3.5 0 .8c0 .4.3.6.5.5.3 0 .7-.2.6-.3l-.7-.7z"/><ellipse cx="109.6" cy="45" fill="#D4AF3A" rx=".3" ry=".2"/><path fill="#D4AF3A" d="M110.2 42.5c-.2-1 0-2 .7-3.2.7-1.3 2.2-1.8 2.2-1.8l.5-.5 1.4-1.2-1.6.5c0 .5-.4.8-.8.8h-.5c-.2 0-1.4.7-1.6 1v.4c0 .3-.3.7-.7.7h-.4v.2c-.4.5-.5.8-.6 1.3 0 .2.3.4.3.7 0 .4-.3.8-.6.8v.5c0 .2 0 .3.5.5.4 0 1 1 1 1s.3-.6.2-1.5z"/><path fill="#D4AF3A" d="M113 36.8v-.5h-.6v.6c0-.2.3-.2.5-.2zm-3 2c.3-.3.3-.5 0-.6 0-.2-.3-.2-.4 0-.3.2-.3.4 0 .5 0 .2.2 0 .4 0z"/><ellipse cx="108.4" cy="41" fill="#D4AF3A" rx=".5" ry=".5"/><path fill="#D4AF3A" d="M117.8 35l-1.3.5c.5 0 .8.3.8.7 0 .3-.4.8-1 .8s-.7-.3-.7-.8V36l-.5.3c-1.3 1-1.7 1.4-2.3 2.7-.7 1.3-1 2.7-.6 3.5.4.8 1.5 1 1.5 1V42h.4l.4.5c0 .2.5.5.5.5s0-.3 0-.7-.2-.8-.2-1.5.3-1.8 1-2.7c.6-.7 1.8-1.6 2-1.7.4 0 .5-.4.5-.5V35c0-.3-.3-.2-.6-.2v.2z"/><path fill="#D4AF3A" d="M116.4 36.5c.3 0 .5-.3.5-.5s-.4-.3-.6-.3c-.2 0-.4.2-.4.3s0 .5.4.5zm2 8c.4.3.7.2 1 0 0 0 .3-.4 0-.6-.2-.3-.5-.3-.7-.2l-.6.5.5.3zm1 .5c0 .2 0 .3-.4.3s-1 0-1-.3l-.5-.5h-.4s0 .5-.2.7c-.2.2-1 .2-1 0s-.6-.5-.6-.5 0 .3.2.5c.3.3.5.5 1 .5h2.6s.5 0 .7-.3v-.6l-.2.2zm-4-.5c.5.3.7.2 1 0v-.3l-.5-.3-.6-.4h-.3s0 .7.5 1z"/><ellipse cx="113.6" cy="40.6" fill="#B96B29" rx=".9" ry=".9"/><path fill="#B96B29" d="M115 37.5c-.3-.2-.8 0-1 .3-.4.3-.3.8 0 1 .4.3 1 .2 1.2-.2.3-.3.2-.8 0-1z"/><ellipse cx="113.5" cy="40.5" fill="#D4AF3A" rx=".5" ry=".5"/><path fill="#D4AF3A" d="M114.7 37.7c-.2 0-.5 0-.6.3 0 .2 0 .5.4.5.5 0 1-.7.3-.8zM101 106.3l-1.7.8-.5.3-1.6 1.3c-.7.4-1.5.7-2.4.8h-5.4s-2.2.3-2.7 1c-.6.6-.7 1.5 0 2.2s1.5.3 1.8 0c.3-.5 0-1 0-1.3 0-.3.3-.3.6-.3h1.6c.6 0 1.6.4 2 .7.5.3.2.3 0 .2l-1-.4c-.6-.3-1-.3-1.5-.3-.2 0 0 .2 0 .3l.3.5v1.1l.4-.4v-.6s.4-.2.6 0c.3.4.5.6.6 1.3 0 .6-.2 1-.2 1l.4.5v.7l.3-.3.5-1.2c0-.2 0-.6.4-.3s.5.7.5 1v.2l.8-1s.6-1 1.2-1.4l2-1.7c.5-.4 1.8-1 2-1.4s.5-.2.6-.8c0-.7.4-1.3.5-1.7v-.7zM79.4 81.8L79 81h-.3l-.8.4s-.6 0-.6-.2 0-.7-.2-1c0-.4 0-.4-.3-.3-.3 0-.6 0-1 .2-.2 0 0 .3 0 .4l.5 1c.2.3 0 .4 0 .5-.3 0-.5 0-1 .3s-.2.2-.2.3l.5.8c0 .3.2 0 .2 0l.7-.4s.3 0 .4.2l.6 1.6c0 .3.2.2.3.2l.5-.2c.2 0 .3-.4.3-.4l-.8-1.6c-.2-.3 0-.4.2-.4l.8-.2c.3 0 .2-.3.3-.4zm7.4 32.2c0-.3 0-.6-.2-.8-.3-.2-.5-.7-.7-1v-.7c0-.3-.3-.3-.5 0-.3.2-.6.3-.6 1s.2 1.4 1 1.7c1 .2 1 0 1-.2zm1-.3h-.4l.2.7.6.7c.4.2 0-.2 0-.2v-.3-.5c0-.2-.6-.2-.6-.2h.2zm1 3c0-.3.3-.3.7-.5s1-.3 1.4-.3c.3 0 1-.6.8-1s-.5-.8-.8-1-.6 0-.7 0c0 .3-.2.5-.5.6l-.6.3c-.4 0 0 0-.4.2 0 .2-.4 0-.7 0-.4-.2-.4-.3-.7-.3h-1.8c0 .3 0 .8.3 1 .2.3.8.4 1.3.6l1.2.2c.4.2.4 0 .4 0zm4 .3c.4-.2.2-.5 0-.8 0-.3-.5-.3-.8-.3s-.5 0-.6 0c-.2.2-.4.4-.8.5l-1 .5c-.6.2-.7.5-1 .6-.2.2-.6 0-.6 0h-.4s0 .3.2.5c.2.3.6.3 1 .4.5.2.5 0 .7 0 .2-.2.3-.5.6-.6.4-.2 1-.3 1.4-.3.4 0 1-.2 1.3-.5z"/><path fill="#D4AF3A" d="M92.7 115.5c.2.2.4.3.5.2 0-.3.4-.7.2-1l-.4-.5-.3 1v.3zm-1.3-2.3c0-.4-.3-1-.3-1v.8l-.5.5.6.2s.4 0 .4-.5zm-2.5 1c.4 0 .6-.3 1-.5s.2-.5 0-.8c0-.4-.5-.6-.6-.6H89s0 .5-.2.7c-.2.4-.4.5-.4.8 0 .2 0 .5.5.4zm.8-2.2c0-.2 0-.5-.2-.6l-.3-.3V112h.2s.3.3.3 0zM84 100.2l.3-2c-.3-2-1.3-3.8-2-5.2-1-1.3-1.8-3.3-2-4.4-.5-1-.8-2.5-.8-3.3s.3-1.2.3-1.2V84c-.2 0-.4 0-.6.2l-.5.8v.3h-1.2c-.7 0-1 .2-1 .3 0 .2 0 .3.5.5l1 .5c.4.3 1 1.8 1 2.5.4.7.8 2.6 1 4s.6 3.4 1.3 5c.4.4 1.7 2.7 2.7 2.4zm1.3 3.4c-.5.3-.5 2.2-.3 3 .3 1 1.2 2.3 1.5 2.6.3.3.3.3.5.3l.2-.2.7-.3c.2-.3 0-.8 0-1.4 0-.5-.4-1.5-1.2-2.8-.7-1.3-1-1.6-1.5-1.2zm.5-1.5c0-.5-.5-1-1-1-.4 0-.6 0-.8.3-.7.5-.3 2 .6 2l1-.3c0-.3 0-.6.2-1zm8.8 17.7c-.3 0-.4-.2-.8-.4s-1-.7-1-1c0-.2 0-.2-.5 0h-1c-.5 0 0 .5.2.8.3.6 0 2 0 2v.7c.2 0 .3 0 .6-.4l.8-1h1.9c.3-.2.2-.5 0-.6zm-1.6 1h-.3l-.2.6v.3l.4.2.2.3v-.2l.2-.7s0-.2-.3-.2z"/><path fill="#1D5E91" d="M158.3 108c-.4 0-.6-.2-.6-.2l-.3.3c0 .4-.7.8-.7.8s-.8.2-1 .7.4.7.7.7c.4 0 1.2-.3 1.6-.7.4-.5.5-.8.5-1 0 0 0-.2-.3-.2v-.3zm1.2-4c-.3-1.3-1-2.6-2.5-3.4l-.6 2.5c-.2.6-.2.6.3.8l2.2.5s.7.4.5-.4zm-7-1.2c.5 0 .4 0 .5-.5l.8-2.8s-1.5 0-3 .5c-1.3.7-2 1.8-2 1.8l1.4.3c1 .4 2 .8 2.4.8zm-3.4 3.2l-.7-.2s.4 1.3 1 2c.4.8 1 1 2.3 1.2 1 0 2-.7 2-1.2s.5-.8.5-.8l-3-.5-2-.5z"/><path fill="#D4AF3A" d="M148.8 105.2l5 1c.5 0 .8.2 1 0s0 0 .4-.2.4-.6.4-.6v-.7c0-.3.4-.5.7 0 .5.4.5 1 .6 1.7 0 .6 1 .8 1.3.8.4 0 .5 0 .8-.5.4-.3.5-1 .5-1.5 0-.4 0-.4-.4-.5l-3-.7c-.4 0-.3-.4-.3-.7l1-3c-.7-.5-1.5-.7-2.6-1l-.7 3.4c0 .4-.4.4-1 .3l-3.7-.8-.3.6c-.3.5-.4 1.3-.4 1.7s.3.5.8.7zm11.3 2.6c-.4-.3-.7-.3-1 .2 0 .5-.2 1.3-.7 1.8-.6.5-1.4 1.2-2.2 1-.7 0-1.2-.2-1-1 .2-1 1.5-1.3 1.7-1.8s.2-1-.2-1.3c-.4-.4-1-.5-1-.3-.3 0-.8.5-1 1.3-.3.7-.5 1.3-1 1.7-.5.5-2 1-3 .7s-1.5-.5-2-1.6c-.3-1-.8-2.8-1-3 0-.2-.4-.3-1 0-.4.3-.4.8-.4 1.2 0 .4 0 .8.6 1.3.4.5 1 1 1 1.6.2.5.7 1.4 0 1.5-.8 0-1 0-1.6-.4l-3.3-2.5-1-.6c-1 0-2-.4-3-1l.8 2v.8l3 1.5 3.6 2c1 .5 1.6 1.3 3 1 1.6-.3 4.6-1.3 5.6-1.5 1-.3 3.6-1 4.6-1.7s1-.7 1.3-1.4c.2-.6 0-1-.4-1.2zm-5.6-10.3l.8-.2c.5 0 .3.4.3.6l-.5.7c-.2.4 0 .5.3.5l.8.2c.5.2.5-.2.5-.3v-1c0-.3.4-.3.5-.2l.5.3c.3.2.4 0 .4 0V97c.2-.3 0-.3-.2-.3h-.8c-.4 0 0-.4 0-.4l.4-.7c.2-.4 0-.4 0-.5l-1-.3h-.3v1c0 .2 0 .2-.2.3-.4 0-.5-.2-.8-.5-.3-.2-.4 0-.4 0l-.3 1c-.2.5 0 .5 0 .5z"/><path fill="#D4AF3A" d="M156 104.7v.8c-.2.2-.3.5 0 .5.2.2.4.3.5.2v-.5c0-.3-.2-.6-.4-.8v-.3zm3.5 2.3c0 .2.2.3.3.3 0 0 .3 0 .3-.2v-.7c-.2-.3-.3-.4-.4 0 0 .4-.2.5 0 .7zm-12.2-2.3h.5v-.8c0-.5.3-.8 0-.8s0 0-.2.3c0 .2-.4.3-.5.7 0 .5 0 .5.3.5z"/><circle cx="149.6" cy="103.7" r=".8" fill="#B96B29"/><circle cx="151.8" cy="104.3" r=".8" fill="#B96B29"/><circle cx="158.2" cy="105.6" r=".8" fill="#B96B29"/><circle cx="154" cy="104.8" r=".8" fill="#B96B29"/><circle cx="154.6" cy="102.8" r=".8" fill="#B96B29"/><circle cx="155.1" cy="100.9" r=".8" fill="#B96B29"/><circle cx="149.7" cy="103.7" r=".4" fill="#D4AF3A"/><circle cx="151.9" cy="104.2" r=".4" fill="#D4AF3A"/><circle cx="158.3" cy="105.6" r=".4" fill="#D4AF3A"/><circle cx="154.1" cy="104.7" r=".4" fill="#D4AF3A"/><circle cx="154.6" cy="102.8" r=".4" fill="#D4AF3A"/><circle cx="155.2" cy="100.9" r=".4" fill="#D4AF3A"/><path fill="#D4AF3A" d="M129.8 119.7l-1.8-1.2c-1-.6-1.3-1.3-1.3-1.3h.4c.3 0 .5-.3.5-.5v-1.3-1l1 .6c.6.3 1 .2 1 .2v-.5l.7 1.2c.4.6 1.4 1.3 2 2 1 .4 1.6 1 2.2 1.2.6.2.3.5.3.5s-.6.5-2 .8-2.4-.5-3-.8zM124.4 119c.5 0 1-.2 1-.7v-2l.4.5c.2.3.6.3.6.3l.3.7c.2.3.5.8 1 1 .5.4 1 .8 1.5 1 .5.5 1 1 1.5 1 .5.4 1 1 1 1.8.3.8 0 1-.4 1-.6 0-.8 0-1.8-.3s-2.4-1.3-3.5-2c-1-.7-1.7-2-1.6-2zM121.6 120s.5-.5.6-1.2l.5-1.8.4 1.2c.5.8 1 1 1 1l.5 1 2 1.4c.7.5 1.6 1 2 1.8s.6 1.5.4 1.8c-.3.4-.6 0-1-.2s-2-.5-4-1.5-2.4-3.3-2.4-3.3v-.2zm-.8 4.2c-.5-.8-.6-2.7-.6-2.7l.4-.3c.3-.2.8-1 .8-1l.6 1.3c.4.6.5.8 1.3 1.5.7.7 1.6 1.3 2 2 .5.7.2 2 0 2.5s-.6.3-1 0c-.5-.4-.5-.6-1.3-1s-1.7-1.5-2.2-2.3z"/><path fill="#B96B29" d="M127 108.5c-.3-.6-.6-1.3-1-1.7s-.3-.8-.3-.8l1 1 .5 1.3c0 .6 0 .6-.2.2zm-2.7.4v-.7s-.2-.3 0-.4l.4.7c0 .6.5 1.5.4 1.5l-.7-1.3zm-2 1.6l-.2-.3-.2-.8c0-.2 0-.3.3 0 .3.4.3.8.4 1 0 0 .3.6 0 .7l-.2-.6zm6.4 6.4l.3-.2.5.5c.2.3.5.3.6.5.2.3.6.6 1 .8l.5.3h-.3l-.6-.5-1-.8-.8-.8zm-2.2 2.7c-.2-.2-.4-.3-.3-.5h.5l1 1 .7.4 1 .7c.3 0 0 .2 0 .2l-.4-.3-.8-.3-.5-.5-1-1-.2.2zm-2.7 1.8c0-.3 0-.2.3 0l1.4 1 1 .4c.3 0 .3.2.2.2h-.3l-.6-.3-.4-.2-.8-.5-.7-.8zm-1.2 2.4c.5.2 1.3 1 1.5 1.2l.4.8s-.3 0-.4-.2l-.3-.4-1-1s-1-.7-1-1v-.5s.5.7 1 1z"/><path fill="#C52126" d="M135 56.7c.5-.3 1.5-.8 2.8-.8 1.2-.2 2 0 3 .2.7.2 1.4.3 2 0 .8-.2 1.4-1 1.7-2 0 0 .8 1 0 2.3-.4.5-1 .8-1.5 1-1.6.3-3.3-.8-4.8-.8-1.4 0-2.4.8-2.4.8s-.4.3-1 0c-.3-.4-.3-.6.2-.8z"/><path fill="#D4AF3A" d="M140 105.8h.3l1-.3h.4l1.4 1h-2c-.7 0-1-.7-1-.7zm-5.8-.3v-.2l.3-.6.6.5 1 1.3c.5.4 1 .8.5 0-.4-.6-.5-1-1-1.4l-.4-.6 1.2-.2c1-.2 1.4-.5 1.8-.7l1-.6 2 .7s1 .2.5.5l-1.3.5c-.3.2-1 .4-1.5.4s-1.4 0-1 .4c.3.3.7 1 1 2 .4 1 .4 1.8.4 2.3v1s-.5-.8-2.2-1.8l-2.5-1.6c-.3-.2-.4-.2-.4-.5v-1.6h.2zm-6-4.8l.2-.2c.2.2 1 .8 1.5 1.5.4.5.8.6.3 0-.4-.8-.8-1.2-1-1.5-.2 0-.3-.2-.4-.3l2.4-1.4c0 .2.3.6.5.8.2.3 1 .7 1 .7l-1-1c0-.4 0-.7-.2-1l1.6-1.5c0 .4.4 1.4 1.4 2.5 1.2 1.3 3.7 2 3.7 2s1 0 .2.4-1.2.5-2.6.3l-1.5-.3c-.2 0-.7 0 0 .3s2.3.5 3 .5c.5 0 1.4-.3.5.3s-1.3.7-1.8.7l-1.3.2-1-.2c-.5 0-.7 0-.7.2s.5.5.5 1.6c0 1 0 1.7-.2 2l-.5 1c0 .3 0 .6-.3 0l-.6-2-.2-1c0-.3-.4-.5-.3 0l.5 1.8c0 .6.3 1.5 0 .8l-2.5-3-.7-1c-.2-.2-.8-.6-1-1l-1.4-1.3 1.5-.7zm23-43c0 1-1 3-1.7 4-.6 1-1 1.4-.8 1.5l.8-1L151 60l1.6-3c0-.3.2-.4.5 0 .4 0 1 2.2.2 3.7-.6 1.5-1.6 2.5-2 3-.5.5-1 1.4-1 1.5l.8-.8 2-2.2c.5-.5 1-1.7 1.3-2 0-.2.2-.2.3 0 .2 0 .5.5.4 1.7-.2 1.6-1 2.5-1.8 3.4-.8.8-1.5 1.5-1.4 1.6s1-.6 1.4-1l2-2.3c.4-.3 1-.2.8 1.3 0 1.5-1.7 2.8-2.3 3.6-.6.8-1.5 1.3-1.4 1.4 0 .2.7-.3 1.2-.5l2.3-1.6c.3-.3.5 0 0 1.4-.4 1.4-1.5 2.5-2.2 3s-1.8 1-1.8 1.2c0 .2.5 0 1.2-.3l2-.8c.6-.2.6.3.6.3s0 1.2-.7 2c-1 .8-2 1.3-2.7 1.5l-1 .3c0 .2 0 .2.3.2h1.8s1.2.3 1.2.6 0 .8-1.2 1.5c-1 .7-2.4 1-3 1-.5 0-.5 0-.4.2 0 .2.4.2 1.2.3s1.3.4 1.5.7c0 .2 0 1-.8 1.3-.8.5-1.7.6-3 .5-1.4 0-1.7 0-1.7.2s.4.3 1 .4c.7.2 1.2.2 1.6.5.3.4 0 1-.6 1.5s-2.3.5-3 .5-1.6-.3-1.7-.2.5.5 1.2.7c.5.3.8.4 1 .7 0 .3 0 .5-1 .8-.7.3-2 .3-2.5 0-.6-.3-1-.4-1-.3-.2 0 0 .3 0 .4.2.3.8.6 1.4 1s.7 0 1 .7c.2.5-.5 1-1.7 1s-3-.4-3.5-.8-.7-.4-.8-.4l.2.4c.3.2 1 .8 1.5 1 .5 0 .5.3.5.6s0 1-1 1.2c-1 .3-2.4 0-3.6-.8l-.8-.7v-2.7c.2 0 .6 0 1-.3.6-.3 1-1 1-1.3.2-.3.5-.3.7-.2l1 .2s1-.2 1.7-.8c.6-.7.5-1.3.5-1.7 0-.4.5-.2 1-.2.2 0 1 0 1.7-.6s.7-1.2.8-1.5c0-.2.5-.4.6-.5l1-.5c.5-.5.8-1.3.8-1.5s.4-.3 1.4-.8 1-1.8 1-2c0-.6-.6-1-.6-1l.6-.5c.4-.2 1.2-.5 1.2-1.8s-1-1.3-1-1.3l.6-.3c.4 0 1.3-.7 1.3-1.4 0-.8-.3-1.2-.5-1.3-.3-.2-1-.3-1-.3s.6-.3.7-.8c.2-.6.3-1.3 0-1.8-.6-.5-1.2-.5-1.6-.5s-.8 0-1 0v-.6c0-.3.2-1 0-1.2 0-.3 0-.8-1-1-1-.3-2 .3-2.3.5s0-.3 0-.6c0-.2.5-1 1.2-2l2-3.5 1.4-4.5.2-.3s.3 0 .8 1.4.6 2.6.5 3.6h-.2z"/><path fill="#D4AF3A" d="M134.5 80.5c.5 0 1.3-.4 2-1.2.4-.8 1.3-1 2.8-1s2.2-.7 2.5-1.8c.5-1 0-2.2-1.5-3S138 72 138 70.8c0-1.3 1.5-3 3-4.7s3-4.4 3-4.4.3.6.3 1.2-.3 1.3 0 1.5c.3 0 .3-.3 1.3-.8 1-.3 1.6-.4 2.3.3s0 1.8-.6 2.4c-.5.5-1 1-1 1.2s1-.3 1.4-.5 1-1 1.8-1 1.2.5 1.3 1.3c0 .8-1 1.4-1.5 1.7-.5.3-.8.5-.6.7h.4c.3 0 1-.3 1.5 0 .4 0 1 .7.4 1.5-.7.8-2 1-2.4 1-.3 0-.5 0-.5.3s.6.3 1.4.3 1 .8.8 1.3-1.4 1.3-2 1.4c-.8 0-1 0-1 .2-.2.2 0 .3.4.3s1 0 1.3.7c0 .6 0 1-.5 1.5s-1.5.4-1.8.3c-.3 0-.6-.3-1 0-.2.3.4.5.8.8.5.3.5 1-.4 1.5-1 .4-1.7.3-2 .2s-1-.7-1-.3.6.5 1 1 .3 1.3-.5 1.8-2 .2-2.3 0c-.2-.3-.5-.3-.6-.2-.2.2 0 .7.3 1 0 .5.5 1.7-.8 2-1.3.6-2.4-.4-2.5-.7-.3-.2-.5-.2-.6 0-.2 0 0 .2 0 .4.2.2.5 1-.4 1.6-.5.4-1.2.4-1.5.3l-.7-2.5h.2v.4h.4l.4.3-.5-.4c0-.3-.3-.4-.3-.6 0 0 0-.2-.3-.3l-.5-2.5v-1.8h.3zm24.5-18c-1.3 2.6-3 4-3 4l.3-1v-1l1.3-1.8 1.3-3.2-1.5 3-1.3 1.8-.4-1c-.2 0-.3.2-.5.3l-.3.2.5-1c.2-.2.5-.4.5-.7.5-.7 1.6-2 2-3.6.6-1.5 1.8-5 2-6.2.2-1 .4-.5.6.3.2.8.5 2 .3 3.5-.3 1.6-.6 3.8-2 6.4zm-1.6 7l-1.2.8.2-.5v-1l1-.8c.5-.3 1-.8 2-2s0-.5-.7.4c-.8 1-2.3 2-2.3 2v-.2c0-.3 0-.5-.3-.7 0-.2 0-.2 1-.8.7-.7 3-3.2 3.8-4.7l2-3.5s.4 3-1.4 6.3-3.7 4.4-4 4.7zm-9.6 18.8c-1-.4-.7-1.3-.7-1.4l1.2.3c.6.3 2 .7 2.5.7s.5 0 .5-.2l-1-.2c-1-.2-2.2-.8-2.5-1-.3-.2-.2-.2 0-.3.5 0 .7-.2 1-.3l1.3.3c1 .2 2.8.5 4 .5 1.5 0 3-.2 3-.3.3 0 .6 0-.2 1.3-.6 1.2-3 1.8-4.8 1.8-1.5 0-3.2-1-4.2-1.3zm4.5-2.4c-1.7 0-2.4-.6-2.4-.6V85c.4-.4.3-1 .3-1l1 .2c1 0 1.7.2 2.6 0s.4-.3-.3-.2c-.8.2-2 0-2.6-.3-.4-.2-.2-.3 0-.4.5 0 1.3-.6 1.3-.6s2 .3 4 0c2-.2 3.3-.7 3.7-.8.4-.2.4 0 .4 0s0 0-.5 1.2c-1 1-2 1.8-3.2 2-1.2.5-2.7.7-4.5.7zm.5-4.2l.2-.5c0-.3-.2-.5-.2-.5s.4-.2 1.7-.3l2.2-.5c.8 0 1.3-.3 1.3-.5s-.3 0-.8.3c-.5.2-2.5.4-3.3.5-1 .2-1.4.3-1.6.2l-.6-.3.8-.2c.5 0 .8-.3 1-.5.3 0 .4-.2 1.5-.3 1 0 2-.5 4-1.2 1.8-.7 3.2-1.5 3.6-1.8.4-.3.4 0 .3.3-.2.4-.2 1-1 2-1 1-1.6 1.6-4 2.5-2.6 1-5.3.8-5.2.8zm7-5.8c-2 1.5-4.5 2-5 2v-1c0-.2-.4-.2-1-.2-.4 0 0-.2 0-.2l1-.2c1-.3 1.8-.3 3-.8l1.5-.8-1.6.7-3 .7c-.8.2-.2-.2.2-.3l.7-1s1 0 2-.5 2.4-.8 3.4-1.4c.5 0 1-.4 1.2-.7L164 71c.4-.2.2 0 .2.3l-1 2c-1 1-1.2 1.2-3.3 2.7zm.4-4.2c-2 1.7-4 2.2-4.2 2.3-.3.3-.3 0-.2 0v-1l1.6-.8c1-.5 1.8-1.2 2.4-1.6.6-.5.3-.4 0-.3 0 .2-1 .7-1.8 1.2l-2 1.3s0-.3-.3-.5c-.2-.2-.6 0-.6 0l.4-.5c0-.2.8-.5 1.5-.8.8-.3 2.2-1.3 3.2-2.2l3.2-3.3c.2-.2.3 0 .3 0l-.2 1.5c-.2 1-1 3-3.3 4.8zM152.8 56l-.7 1.2-.4.8v-.5-2-.6c0-.4.5-1.6.6-2.5 0-.8.3-2 .3-3.2s0-.5 0 0 0 1.3-.4 2.6c0 1.2-.6 3-.6 3l-.2-.6-.6-1.5c-.2-.6 0-.7 0-.7s.7-3.5 1-5.2l.4-6c1 1 1.8 4 2 6.7 0 2-.3 4-.3 4.7-.2 1.5-.5 2.7-1 3.6zm2.4 5.6c0-.8-.2-1.4-.7-1.6l1-2 .5-2.5c.3-2 .5-3.8 0-.7-.6 3.2-1.4 4.3-1.4 4.3l-.8 1.4c0-.5.2-1 0-1.6s0-1.5-.3-2.2c0 0 1-2 1.6-4.3s1-4.5 1-5.8c0-1.2.2-1.7.2-1.7s1 .8 1.3 4.7c.3 3.8-.7 7.5-1.2 9l-1.3 3h.2zm-11 29.5l.5-.3c.5-.3.3-1.2.3-1.2l.5.3 1.3.8 1 .5c.3 0 .3 0 0-.2l-1-.5c-.6-.2-2-1.3-2-1.3h1l1-.3s.6.5 2.7 1.5c2 1 4 1 4 1s-.3 1.2-1.3 1.6c-1 .3-2 .5-4.3 0s-4-1.5-4-1.5V91zm-3 2.3c0-1 .5-1.5.5-1.5l.4.3c.5.4 1 1 1.8 1.4s1.2.5.4 0-2-1.8-2-1.8l.3-.2c.4-.2 1 0 3.3 1.5s4 1.4 4 1.4-1.2 1.3-4 1.2c-3.3 0-4.3-1.5-4.5-2.3zm-5.4-1s.3.5.8.8 1.5.6 1.5.6l.5.4c0 .3.6 1 1 1.3s1.5.6 1.5.5l-1-.6c-.4-.3-1-.8-1.2-1.3s0-.4 0-.4h1.2c.5 0 .5 0 .6.3s.4.4.8 1l1.5 1.6c.2.4 0 .5 0 .5s-.2.4-1.5.5c-.8 0-1.7 0-2.6-.5-.6-.3-1.2-1-1.8-1.5-1.5-1.8-1.5-3.2-1.5-3.2zm-.7 3.5l.6.6-.5-1c0-.2 0-.3-.2-.5.3-.6.4-1 .5-1.6.2.5.6 1.8 1.2 2.7.6 1.2 1.3 1.6 1 2s-1.2.2-2 0c-1-.6-1.2-1.3-1.3-2l.4-.6.5.4z"/><ellipse cx="135.3" cy="52.9" fill="#D4AF3A" rx=".6" ry=".5"/><path fill="#D4AF3A" d="M136.6 51.8c-.5 0-1-.3-1.5-.2-.5 0-1.5.5-2.7 1-1 .5-2 .7-3.3.4-.3 0-.6-.3-1-.5-1.4-.8-1-2.3-1-2.3 1 .8 2.4 1.2 3.5 1 0 0 0 .2-.3.3-.2.3-.6.5-.5.6 0 .2.7-.3 1-.6.6-.3 1.2-.8 2.3-1 1-.4 2.4-.4 3.2 0 .8.5 1 1 .8 1.3l-.4.2v-.2zm-15.4 11.6c.3 0 .6-.2 1.3-.7.5-.5 2-2 2-2.3.2-.3 0-.5-.3-.7-.4-.2-.6-.7-.6-.7s1-.3 1.4-.7c.5-.5 2-1.6 2-2s0-.3 0-.4l-.5-.4 1.3-.8 1.4-1.2c1 .3 2.2.2 3 0 1.2-.2 2.2-.7 2.2-.7l.2.4c0 .5.7.7 1.3.3s.4-1.3.4-1.3l1.4-.6s1.8-.4 2.6 0c.8.3 1.2 1.4 1.2 2.3 0 1-.5.6-.5.4 0 0-.2-.7-1.3-.8-1-.2-2 .3-3 1.3l-2 1.5c-.6.6 0 1 1 1.3s2.2-.3 2.2-.3-.5 1-1.4 1.3c-.8.3-2 0-2.8-.3-.5-.2-.6 0-1 .2-.8 1-1 2-1.2 3-.5-.2-.8-.6-1-1 0-.2 0-.6-.3-.3s-.5 2-.5 2.7v2h-.2l-.8-.5c-.4-.3-.5 0-.5.4s0 1-.6 2.5-1.4 1.8-1.4 1.8l-.3-.8c0-.5-.3-1.6-.3-2.5l.2-3s-1.2 1.4-2.5 1.8c-1.2.3-2.4 0-3-.5-.4-.5 0-.8.3-.8h.4zM129 67l.5 1 .4.4-1 .4-1 .3.8-1.2.2-.8zm-7.2-.5l.3-.7c.8.2 2.2-.2 2.8-.5 0 0-.5 1-1 1.5l-.7.3s.6.2 1.4-.6c.8-.7 1-1.5 1-1.5s0 2 .2 3l.4 1.3s-1.6.2-3.3-.3c-1.8-.5-2-.7-2-.7s-.2 0 0-.4c.4-.2 1-1 1-1.5z"/><path fill="#B96B29" d="M125 62.3l.6-.8v.5c0 .3-1 1-1.4 1.3-.5.3-1 .3-1 .3s1.2-.6 1.8-1.3zm2 4l.2-2.8.2-.2h.3l-.5 3.6c0 .4-.3.3-.4.3.2 0 .2-.8.3-1zm3.3-10.4c.2-.3.6-.5.3 0-.5.5-1 1-1 1.5-.4.5-.5 1.2 0 1 .2 0 .4 0 .7-.3l1-.8c.3 0 .7 0 .4.4l-1.4 1.2-1.3.8-.6.4s.3-2 .8-2.8 1-1.4 1-1.5zM141 89c.5.3 1 .3 1 .3h.2-.5c-.4 0-.8-.3-1-.5l-.3-.4.6.6zm-3.4 1.8l.8.6.5.2v.2c-.4 0-1-.5-1.2-.8-.3-.2-.4-.2-.3-.3zm14-24.8l-.4.3s0-.2.2-.3l.3-.3.4-.5c.3-.2.5-.3.2 0l-.5.8h-.2zm1 2.3l-.5.5s0 .3-.2.2l.4-.5.5-.5.4-.3-.4.6zm-.4 3.7c-.3.3-.6.4-.7.3 0 0 0-.2.3-.3l.8-.5.5-.3c.2-.2.4-.3.5-.2l-.5.5c-.2 0-.4.3-.6.5h-.2zm-.7 3v-.2h.6s.6-.2.6 0l-.5.2s-.3 0-.4.2c0 0-.2 0 0-.2zm-.4 3.3h1l-.4.3-1 .2s-.4 0-.4-.2.5-.3 1-.3zm-3.5 3.6c0-.2.2 0 .5 0h1.7l.3.2h-1c-.5.2-1 0-1.3 0-.2 0-.3-.2-.2-.3zm-1.5 2.5h.6l.8.2s.3 0 .2.2H146.4c-.4 0-.6-.3-1-.3-.2 0-.4-.2-.3-.3.4-.2.6 0 1 0zm-3 1.8c0 .2.8.6.8.6h.4s.3.3.2.4-.2-.2-.4-.3l-.8-.4-.5-.5.3.2zm5-24.8l-.6.7c-.5.7-.3 0 0-.2l1-1.5c.3-.3.3 0 .2 0l-.7 1zm1 3.2s0-.2.4-.5l1-1v-.4l-.4.8-.7 1s-.3.2-.3 0zm-1.5 6h1l.7-.3h.5l-.4.2-1 .3s-.8 0-.8-.2zm1.5-3.2c-.4.3-.6.5-1 .6 0 .2-.3.4-.4.3 0 0 0-.2.5-.3l.6-.3.4-.2c0-.2.3-.3 0 0zm-3.3-2.2l.4-.3s.4-.3.5-.2l-.5.5c-.3.2-.5.7-.7.6-.3-.2 0-.5.4-.7zm2 8.6h.6s.3.3 0 .3l-1-.2h-.5c0-.2.3 0 .5 0h.5zm-.5 3h-.5l-.8-.4c-.4 0-.4 0-.4-.3h.5c.5 0 1 .4 1 .4l.2.3zm-4 2l-.3-.4.4.2c0 .2.6.5.6.5l.4.2s.4.2.3.3c0 0-.4 0-.6-.2 0-.3-.5-.5-.8-.7zm-2 2.4l-.4-.3c-.2 0-.3-.4-.2-.4l.5.3 1.2.6h.3c.3.2 0 .3 0 .3-.3 0-.4 0-.6-.4l-.6-.3zm-2.6 2.4c-.3 0-.6-.4-.8-.5-.2-.2-.4-.4-.3-.5 0 0 .3 0 .5.3l.6.8.4.3c.3.3 0 .2 0 0l-.4-.2z"/><path fill="#D4AF3A" d="M127.2 48.3l-1-.8 1.2-.3 1 .7-1.2.3z"/><ellipse cx="123.6" cy="47.3" fill="#B96B29" rx="1" ry="1"/><ellipse cx="123.6" cy="47.2" fill="#D4AF3A" rx=".6" ry=".6"/><path fill="#D4AF3A" d="M125.8 43.8h-.6s0-.4 0-.7l.7-.4v-.3.7c.2.3.2.7-.2.8z"/><ellipse cx="125.3" cy="44.3" fill="#D4AF3A" rx=".2" ry=".2"/><path fill="#D4AF3A" d="M126.7 44.2l.3.3h-.4c0 .2-.4.3-.6.3-.2 0-.3-.2-.3-.3 0-.2 0-.3.5-.4.3 0 .4 0 .5.2zm-.7 1.2c.6 0 1.5-.7 1.5-.7 0 .6.5 1 1 1s-.5.3-1 .4h-1l-1-.2c-.4-.3-.3-1-.3-1s0 .5.8.6zm2.6-.7l1-.3s.3 0 .3.3-.5.5-.8.5c-.3 0-.5 0-.6-.2-.3-.2-.3-.2 0-.3zm2-1.2l.6-.2s.3.5 0 .8c0 .4-.3.6-.5.5-.3 0-.7-.2-.6-.3l.7-.7z"/><ellipse cx="130.4" cy="45" fill="#D4AF3A" rx=".3" ry=".2"/><path fill="#D4AF3A" d="M129.8 42.5c.2-1 0-2-.7-3.2-.7-1.3-2.2-1.8-2.2-1.8l-.5-.5-1.4-1.2 1.6.5c0 .5.4.8.8.8h.5c.2 0 1.4.7 1.6 1v.4c0 .3.3.7.7.7h.4v.2c.4.5.5.8.6 1.3 0 .2-.3.4-.3.7 0 .4.3.8.6.8v.5c0 .2 0 .3-.5.5-.4 0-1 1-1 1s-.3-.6-.2-1.5z"/><path fill="#D4AF3A" d="M127 36.8v-.5h.6v.6c0-.2-.3-.2-.5-.2zm3 2c-.3-.3-.3-.5 0-.6 0-.2.3-.2.4 0 .3.2.3.4 0 .5 0 .2-.2 0-.4 0z"/><ellipse cx="131.6" cy="41" fill="#D4AF3A" rx=".5" ry=".5"/><path fill="#D4AF3A" d="M122.2 35l1.3.5c-.5 0-.8.3-.8.7 0 .3.4.8 1 .8s.7-.3.7-.8V36l.5.3c1.3 1 1.7 1.4 2.3 2.7.7 1.3 1 2.7.6 3.5-.4.8-1.5 1-1.5 1V42h-.4l-.4.5c0 .2-.5.5-.5.5s0-.3 0-.7.2-.8.2-1.5-.3-1.8-1-2.7c-.6-.7-1.8-1.6-2-1.7-.4 0-.5-.4-.5-.5V35c0-.3.3-.2.6-.2v.2z"/><path fill="#D4AF3A" d="M123.6 36.5c-.3 0-.5-.3-.5-.5s.4-.3.6-.3c.2 0 .4.2.4.3s-.2.5-.4.5zm-2 8c-.4.3-.7.2-1 0 0 0-.3-.4 0-.6.2-.3.5-.3.7-.2l.6.5-.5.3zm-1 .5c0 .2 0 .3.4.3s1 0 1-.3l.5-.5h.4s0 .5.2.7c.2.2 1 .2 1 0s.6-.5.6-.5 0 .3-.2.5c-.3.3-.5.5-1 .5H121s-.5 0-.7-.3v-.6l.2.2zm4-.5c-.5.3-.7.2-1 0v-.3l.5-.3.6-.4h.3c-.2 0-.2.7-.5 1z"/><ellipse cx="126.4" cy="40.6" fill="#B96B29" rx=".9" ry=".9"/><path fill="#B96B29" d="M125 37.5c.3-.2.8 0 1 .3.4.3.3.8 0 1-.4.3-1 .2-1.2-.2-.3-.3-.2-.8 0-1z"/><ellipse cx="126.5" cy="40.5" fill="#D4AF3A" rx=".5" ry=".5"/><path fill="#D4AF3A" d="M125.3 37.7c.2 0 .5 0 .6.3 0 .2 0 .5-.4.5-.5 0-1-.7-.3-.8z"/></svg>
