<svg xmlns="http://www.w3.org/2000/svg" width="240" height="160" viewBox="0 0 120 80"><path fill="#003893" d="M0 0h120v80H0z"/><path fill="#FFF" d="M0 78.7v-1.9L120 9.3v23.3L0 78.7z"/><path fill="#DD7500" d="M0 77.4v-1.3L120 1.3V17L0 77.4z"/><path fill="#FFF" d="M33.3 27.3l15.1-.9-15.1-.9 8.3-3.2-8.8 1.4 7.3-5.2-8.2 3.7 5.6-6.9-6.9 5.6 3.7-8.1-5.2 7.2 1.4-8.8-3.2 8.3-.9-15.1-.9 15.1-3.2-8.3 1.4 8.8-5.2-7.2 3.7 8.1-6.9-5.6 5.6 6.9-8.1-3.7 7.2 5.2-8.8-1.4 8.3 3.2-15.1.9 15.1.9-8.3 3.2 8.8-1.4-7.2 5.2 8.1-3.7-5.6 6.9 6.9-5.6-3.7 8.2 5.2-7.3-1.4 8.8 3.2-8.3.9 15.1.9-15.1 3.2 8.3-1.4-8.8 5.2 7.3-3.7-8.2 6.9 5.6-5.6-6.9 8.2 3.7-7.3-5.2 8.8 1.4"/></svg>
