<svg xmlns="http://www.w3.org/2000/svg" width="240" height="160" viewBox="0 0 120 80"><path fill="#00785E" d="M0 0h120v80H0z"/><path fill="#FFF" d="M60 25.6c-5.2 4.5-6.2 12.1-2.4 17.7-3.2-4.2-3.6-9.6-1.5-14-.6-.6-1-1.3-1.3-2.2-2.6 4.6-2.3 10.4.9 14.7-3.1-3.2-7.4-5.1-12.2-4.9.5.4.8.9 1.1 1.5 4.5 0 8.6 1.9 11.4 4.9-4.7-3.9-11-4.7-16.3-2.5 2.1 5.5 7.6 9.2 13.8 8.7-4.2.8-8.6-.5-11.8-3.6-.5.2-1 .3-1.6.4 5.2 5.9 14.4 6.1 19.9.4 5.5 5.7 14.6 5.5 19.9-.4-.6 0-1.1-.2-1.6-.4-3.2 3.1-7.6 4.3-11.8 3.6 6.2.5 11.7-3.2 13.8-8.7-5.3-2.2-11.6-1.4-16.3 2.5 2.9-3 6.9-4.9 11.4-4.9.3-.6.7-1.1 1.1-1.5-4.8-.2-9.2 1.7-12.2 4.9 3.2-4.3 3.5-10.1.9-14.7-.2.8-.7 1.6-1.3 2.2 2.1 4.4 1.7 9.9-1.5 14 3.8-5.6 2.8-13.2-2.4-17.7zm0 22.6c-4.8 4.6-9.2 3.7-19.9 3.7.3.5.6.9 1 1.3 10.3 0 14.2.8 18.9-3.2 4.6 3.9 8.5 3.2 18.9 3.2.3-.4.7-.9 1-1.3-10.6 0-15.1.9-19.9-3.7zm-17.7 6.4c.2.2.4.4.6.7h34.2c.2-.2.4-.4.6-.7H42.3zm2.1 2c.4.4.9.7 1.3 1h28.6c.4-.3.9-.7 1.3-1H44.4zm2.8 2.1c.8.5 1.6.9 2.4 1.3h20.8c.8-.4 1.6-.8 2.4-1.3H47.2zm3.9 2c5.7 2.2 12 2.3 17.7 0H51.1z"/><path fill="#FBD116" d="M40.1 29.1l5.7.7-5.1 2.8 2.4-5.2 1.1 5.7m7.8-9.2l-4.6-3.5 1.7 5.5 1.9-5.5-4.7 3.3m16.3-.7L60 15l-2.6 8 6.8-4.9h-8.4m15.1 7.8l1.7-5.5-4.6 3.5 5.8-.1-4.8-3.3m6.7 12.6l4.2-3.9-5.7.7 5.1 2.8-2.4-5.2"/></svg>
