<svg xmlns="http://www.w3.org/2000/svg" width="240" height="160" viewBox="0 0 600 400"><path fill="#0071BC" d="M0 0h600v400H0z"/><path fill="#FFF" stroke="#000" stroke-width="1.548" d="M346.3 316.4s14.1-14.9 27.7-12.1c4.1-15.7 19.4-17 19.4-17s-1.5-17.4 18.2-21.2c.5-11.8 12.5-21.6 12.5-21.6s-2.4-18.3 10-22.5c-7.6-14.5 2.6-25.1 2.4-25.4s-12.9-22.9-1.5-29.4c-12.1-10.2-8.1-21.7-8.1-21.7s-13.2-3.4-8.4-19.1c-10.9-1.9-13-19.4-13-19.4s-16.7 3.4-18.7-11.1c-11 1.8-12.2-9.1-12.3-9.1-.1 0-21.8 5.8-26.2-10.6-8.4 4.3-12.1-3.4-12.1-3.4s-12.1 6-19.3-5.6c-14.4 9-22.4-.4-22.4-.4s-18.9 12.5-25.1 2.8c-11.1 11.3-21 6.4-21 6.4s-8.4 14.9-22 11.1c-3.1 13.8-18.7 14.1-18.7 14.1s1.6 12.2-17.1 15.5c-2.4 14.4-12.2 16.8-12.2 16.8s.9 14-7.9 18.4c3.1 7.9-5 17.5-5 17.5s8.7 10.9-3.1 23.1c11.4 3 3.1 22.7 3.1 22.7s15.7 7.1 5.8 20.1c11.3 3.7 7.7 12.6 7.9 17.9 7.2 3.3 13.6 1.6 10.4 16.1 22.1 2.4 11.7 14.6 11.7 14.6s10.3.4 6.2 8.5c18.9-.4 21.6 14.1 21.6 14.1s17.5-4.6 19.8 2.2c2.3 6.8-7.6 52.5-7.6 52.5s-14.8 0-25.8-11.8C189.7 349 195.4 332 195 332c-.4 0-8.5 3.1-12.7-11-17.2 3.5-16.7-11-16.8-11.1-.1-.1-7.7-3.5-4.9-10.7-17.8 1.6-16.4-15.7-16.4-15.7-3.9-1.6-5.3-5.2-4.7-8.8-2.3-.8-18-1.1-9.9-21.8-15.1-9.1-5.7-19.5-5.7-19.5s-20.8-10.7-4.7-23.1c-11.9-17.6.9-26.4.9-26.4s-16.5-16.8.3-28.8c-2.7-25.5 12.5-31.6 12.5-31.6s-8-20.8 13.7-29.4c1.4-21 16.5-21.6 16.5-21.6s.4-16.7 24.3-15.1c4.6-14.9 20.9-11.9 20.9-11.9s5-18 27.1-9.4c11.3-22 27.9-10.7 27.9-10.7s10.6-6.9 15.9-4.7c6.7-11.5 21-.4 30.3 1.8 3.4-1.3 15.3-10.3 24.5 1.1 12.2-8 22.7 6.4 22.7 6.4s16.8-8.5 24.7 11c35.7-3.3 30.5 20.1 30.5 20.1s28.1-6.4 22 21.6c25.5 1.8 22.9 18.6 22.9 18.6s16.1 12.2 9.1 23.2c14.4.7 9.1 14.5 9.1 14.5s11 4.2 1.9 21.3c21 16.8 4.1 33.5 3.9 33.4-.1-.1 11.3 13.6.9 29.3 3.1 25-9.5 31.3-9.5 31.3s3.3 16.1-10.9 20.8c-.3 19-18.2 21.3-18.2 21.3s4.7 8.2-13 16.9c-.7 12.7-19.3 13.7-19.3 13.7s-1.8 23.3-25.4 17.1c-5.7 18.7-33.4 13.2-33.9 12.9-.5-.6-5.2-40.4-5.2-40.6z"/><path fill="none" stroke="#000" stroke-width="1.548" d="M379.2 336.1s-2.1 4 6.3 7.6m10.5-17.1s9.3-2.3 15.6 0m12.2-23.6c0 .2-1.3 4.2 6.1 10m-.8-20.4s5.5 4 14.7 3.9m-69.9 7.8s.3 10.6-5.2 15.6m23.5-32s9 2.3 16.4-1.4m41.4-14.2s1.9 2.7 11.9 2.3m-50.8-8.6c.3.2 11.8 3.9 19 .5m3.8-44.3s.5-.6 4 11.8m4.9-46.7s-.5 6.6-5.8 9.5m39.8-36.6s-7.7 6.3-6.3 8.9m-32.2-13.4s4 6.8-2.6 11.4m-16.9-40.4s6.9-.3 10 5.6m4.5-49.3c0 .2 1.4 1.4-1.3 4.2m-48.1-3.6s3.7 5.8 3.1 12.9m18.3-32.6c1.6-.2 7.1-2.6 7.1-2.6m-30.9-20.4c-.2 0-2.1 7.2 1.4 9.8m-10.3 23.2c0 7.7 6.1 5.8 1.9 13.2m-16.9-19.6c-.2 0-9.7 7.4-9.7 8.7m-15.1-12.7s4 4 3.1 9.5m-36.2-14.4c-.2.3-3.4 7.2-5.6 8.5m-23.7-8.3c.2 0 3.2 6.4-.8 11.1m-51.4 15.6c.2.3 8.2 1.6 8.2 1.6m-28.3 17.1c.2-.2 9.8-3.1 9.8-3.1m-25.4 15.2c.3 0 6.8 1.1 8.4.3m-13 5.6s2.1 1.1.3 11.9m-31.6-40.2l3.9 5.8m-17.2 24c0-.2 3.9 5.8 9 6.9m21.5 23.4c.2 0 6.3-1.3 7.2-1.9m-10 23.7c.2 0-.2-4 4.8-6.8m-11.4 16.8c0 .2 4.7 6 7.9 6.8m-10.6 4.3c.5-.2 5.5-4.5 11.3-4.2m-12.9 19.2s.2 5 15 3.7m-13.6 13.9c0-.2 4.3-10 13.2-13.7m-1.2 26.2s1.3-4.2 8.7-7.1m-.5 23.7s5.3-4.3 7.2-5m-.6 17.9s3.2 3.4 11.3-2.4m-50.1 5.1c1-.2 12.7-2.9 16.7 3.2m-12.1 6.5s12.4-1.6 14-.3m30.3 2.9s-1.6 3.4 13.7-2.3m5.3 8.4c-2.7 4.7.6 8.4-2.9 10.5m-43.6-4.1c.5-.3 5.6-2.1 4.8-9.5m-.1 20.6c.6-.2 9.2-3.9 10.9-1.9m5.8 12.7s1.1-7.6 3.5-8.4m9.4 19.9s7.1-.2 10.1-2.4m3.6-23.2c.2.2 6.6 3.5 20.3.2M214 337.5s1.9 9.8 1.8 12.1m190-242.5h5.3m-90-46.9s-2.1 6.1-4.8 7.7m-52.7-42.4c.2.2.6 5-2.4 9.2m-26.6 1.7c0 .2 1.3 5.5-7.2 7.2"/><path fill="#F7DF73" stroke="#000" stroke-width="1.935" stroke-linejoin="round" d="M349.4 338.9s80.4-22.7 104.7-121.4C440 318.8 352 351 352 351l-2.6-12.1z"/><path fill="#F7DF73" stroke="#000" stroke-width="1.943" stroke-linejoin="round" d="M244 336.8s-79.7-23.1-103.8-123.6C154.2 316.3 241.4 349 241.4 349l2.6-12.2z"/><path fill="#8C1800" d="M357.6 345.1c2.5 0 8.6-6.8 12.2-7.6 3.5-.8 3.9-4.3-.1-4.4-4.1-.1-7.6 4.6-7.6 4.6s-3.5 3-7.2 3.4c-3.7.3-1.3 4.9 2.7 4zm17.2-12.6s-2.5-.9 3.9-3.4 6-5.4 8.1-6.5c2.1-1.2 6.5-4.3 7.5-2.5.9 1.8-4.7 5.5-6 5.9-1.3.4-7.7 6.3-9.6 6.8-1.8.5-3.2.3-3.9-.3zm-139 10.6c-2.5 0-8.6-6.9-12.1-7.7-3.5-.8-3.9-4.4.1-4.5 4-.1 7.5 4.7 7.5 4.7s3.5 3.1 7.1 3.5c3.7.2 1.4 4.9-2.6 4zm-17-12.8s2.5-.9-3.9-3.5c-6.4-2.5-6-5.5-8-6.7-2.1-1.2-6.5-4.4-7.4-2.5-.9 1.9 4.7 5.6 6 6 1.3.4 7.6 6.4 9.5 6.9 1.7.6 3 .3 3.8-.2z"/><path fill="#8C1800" stroke="#8C1800" stroke-width="2" stroke-linecap="round" stroke-linejoin="round" d="M403.9 310.6s-8.4 4.8-7.2 6c1.2 1.2 8.6-4.6 8.8-4.7.1-.2 3.1-3.8-1.6-1.3zm-214-2.7s8.3 4.9 7.1 6.1c-1.2 1.2-8.6-4.7-8.7-4.8-.1-.1-3.1-3.8 1.6-1.3zm226.5-9.6c-5.5 6.1-5.5 6-5.5 6m13.7-16.1l-5.2 6.4m13.5-19.5l-5.9 9.4m12.8-22.7l-4.8 9.7m7.9-16.8l-1.6 3.4m5.2-12.7l-1.3 4.1m-267.6 45.9c5.4 6.3 5.4 6.1 5.4 6.1m-13.6-16.4l5.2 6.5m-13.4-19.8l5.8 9.6m-12.6-23.2l4.8 9.9m-7.9-17.1l1.6 3.5m-5.1-12.9l1.3 4.1"/><path fill="#217900" stroke="#000" stroke-width="1.548" stroke-linejoin="round" d="M174.8 92.6c.1 0 6 5.1 4.9 12.9-1.1 7.7-5.6 18.5-4.7 26.5.5 3.2.3 9 .3 9s-5.4-7.6-5.4-15.8c-.1-8.1 5.8-15.9 5.8-21.9.1-6.1-1-10.8-.9-10.7zM171.9 94.9s-7.8 7.4-8.8 14.6c-.7 3.7-1 21-1.1 28.7-.2 2.4-1.2 11.6-1.4 15-.2 3.4 5.7-5.8 6-13.2-.2-7.7-.2-24 .6-26.4.7-3.1.5-6.6 1.6-9.8 1.6-4.4 3.2-8.8 3.1-8.9z"/><path fill="none" stroke="#6B18B5" stroke-width="2" stroke-linejoin="round" d="M121.1 144.2s5.3 7.3 6.2 11.5c.9 4.2 2.7 12.4 5 15.8 2.3 3.4 15.4 22.1 16 29.9.1 5.1-5.4 13.9-13.6 14-5.1-.1-18.3-3.5-18.9-14.8-.5-11.3 4-11.6 4.6-18.5.6-6.8.7-37.7.7-37.9zM211.5 45.1s-5.4.4-9.6 2.7c-3.2 2-8.7 4.9-12.6 10.2-9.8 7.6-24.5 11.2-29.1 17.5-2.8 4.3-2.6 14.7 4.4 19.1 4.4 2.5 17.5 6.5 23.8-2.9 6.3-9.4 2.6-12 5.7-18.2 5-14.1 17.3-28.3 17.4-28.4zM343.6 31.3s-4.1-3.6-8.6-5.1c-3.7-.9-9.9-.5-16.2-1.2-12.3-1.7-24.9-10.6-32.7-9.5-5 1-12.4 8.3-10.7 16.4 1.3 5 6.8 15 18 13s11.1-4.4 17.7-6.5c15.9-8.9 32.3-7 32.5-7.1zM474.5 158.6c.9-2.1-.8-6-2-10.6-1.2-3.6-2.9-9.3-7.2-14.3-5.1-11.3-4.2-26.9-9.2-32.9-3.5-3.7-13.6-6.1-19.5-.4-3.5 3.7-10.5 15.4-2.9 23.8s10.9 5.2 16.1 9.7c12.5 8.5 18.6 23.2 24.7 24.7zM470.1 257.6c1.7-2.4 4.8-6.9 4.4-10.7-.3-3 1.4-12.1 1.6-16 1.1-12.3 8.9-22.4 6.8-33.1-1.2-5-8.5-12.1-16.5-10-4.9 1.5-15.8 7.5-13.3 18.6 2.5 11.1 6.1 10.9 8.5 17.4 6.6 13.3 2.3 29.2 8.5 33.8z"/><path fill="#6B18B5" d="M284.7 21.6c0-4.2 8.8-4.2 8.8 0-.1 4.1-8.8 4.1-8.8 0zm1.6 7.3c0 4 9 4 9 0s-9-4-9 0zm11.6-3.3c2.1 1.5 8-3.3 8-3.3l-5-2.1s-5.1 3.9-3 5.4zM448.2 106c-3.1 2-.4 7.4 2.7 5.3 3-2 .4-7.4-2.7-5.3zm-.7-1.4c3.7 0 3.7-6.6 0-6.6-3.8 0-3.8 6.6 0 6.6zm3 9.9c-.6 0-1.1.8-1.1 1.7 0 .9.5 1.7 1.1 1.7s1.1-.8 1.1-1.7c0-.9-.5-1.7-1.1-1.7zm4.6-13.6c-1.5 0-1.5 3.9 0 3.9 1.4 0 1.4-3.9 0-3.9zm-12.4 4.9c1.5 0 1.5-3.2 0-3.2s-1.5 3.2 0 3.2zm.7 6.4c-3.1 0-3.1 5.2 0 5.2s3.1-5.2 0-5.2zm-5.8-4.3c-2.6 0-2.6 4.4 0 4.4s2.6-4.4 0-4.4zm.2-2.4c1.9-1.2.3-4.4-1.7-3.2-2 1.2-.3 4.4 1.7 3.2zm28.9 39.2c5.9-3.8-3.2-16-9.2-12.1-5.8 3.8 3.3 15.9 9.2 12.1zm.9 59.5c7.1.8 8.9-14 1.8-14.9-7.1-.8-8.9 14.1-1.8 14.9zm4 20.8c-7-1.5-10.1 13.2-3.1 14.7 7 1.4 10.1-13.3 3.1-14.7zm8.2-28.2c-3.2 0-3.2 5.9 0 5.9 3.3 0 3.3-5.9 0-5.9zm-1.1 7.3c-1.8.1-2.3 2.3-2.5 2.4l-5 5.7s-4.7.1-4.5 1.7c.2 1.5 6.5 6.1 6.4 8-.1 1.8 4.2-.4 4.2-.4l3.4-10.3c0-.2-.1-7.2-2-7.1zm-336-2.2c-3.2 0-3.2 4.8 0 4.8 3.2-.1 3.2-4.8 0-4.8zm2.3-7.5c-3.2 0-3.2 5.1 0 5.1 3.1 0 3.1-5.1 0-5.1zm-18.2-27.5c3.4-1.5.1-8.8-3.3-7.3-3.4 1.5-.1 8.8 3.3 7.3zm1.1 13.6c-4.6 1.9-.2 11.4 4.5 9.5 4.6-1.9.1-11.4-4.5-9.5zM137 193c-4.9-1-6.4 10.8-1.4 11.8 4.8 1.1 6.3-10.7 1.4-11.8zm-11.9 2.5c.2-1.8-1.1-3.1-2.6-3.1s-2.7 1.3-2.7 2.8c0 1.8 1.7 3.3 3.5 2.6-1.6 3.2-1.2 6.8.8 7.9 1.9 1 4.4-.7 5.7-3.7 2.2-5.2-1-9.6-4.7-6.5zm-4.5-9.8c-3.2 0-3.2 5.1 0 5.1s3.2-5.1 0-5.1zm2.3-6.5c3.1 0 3.1-8.5 0-8.5-3 0-3 8.5 0 8.5zm6.7-1.3c3 .4 4.2-8 1.1-8.4-3.1-.5-4.2 7.9-1.1 8.4zm51.7-113.3c-3.6-1.3-7.2 4.9-5.6 9.5-1.4 1.2-2.3 2.8-2.4 4.2-3.4.6-7.1 4.1-7.6 7.3-2.3-.2-4.2.9-4.1 2.1.2 1.7 4 2.4 6 1.1 1.7.4 4-.4 6.1-2.2 2.5-2.1 3.7-5 3.1-6.8 1-.7 1.9-1.9 2.4-3.3 4.8-.5 6.5-10.3 2.1-11.9zm-10.5 7.6c-3.2-3.5-13.4 4-10.2 7.5 3.2 3.5 13.4-4 10.2-7.5zm21-12.5c-2.1-2.4-9 2.8-6.9 5.3 2.1 2.4 9-2.8 6.9-5.3zm-2.4 11c2.5 2.6 9.9-3.6 7.4-6.2-2.5-2.7-9.9 3.6-7.4 6.2zm12.1-16.6c-2.8-1.6-7.5 5.7-4.7 7.3 2.8 1.5 7.5-5.8 4.7-7.3z"/><path fill="#FFD200" stroke="#EF8A10" stroke-width="2" d="M342.6 70.7s10.1-4.6 12.9-13.3c2.9-8.6-8.7-8.7-10.2-6-1.5 2.7 1.3 9.6.6 11.4-.8 1.8-4.9 6.2-3.3 7.9zm-89.2 3.2s6.5-8.9 4.8-17.9c-1.7-8.9-11.9-3.4-11.9-.2 0 3.1 5.8 7.7 6 9.7.4 1.8-1 7.6 1.1 8.4zm-17.6 5.3s6.5-8.9 4.8-17.9-11.9-3.4-11.9-.2c0 3.1 5.8 7.7 6 9.7.4 1.8-1.1 7.6 1.1 8.4zm-19.6 6s6.5-8.9 4.8-17.9c-1.7-8.9-11.9-3.4-11.9-.2 0 3.1 5.8 7.7 6 9.7.4 1.9-1.1 7.7 1.1 8.4zM202.4 99s6.5-8.9 4.8-17.9-11.9-3.4-11.9-.2c0 3.1 5.8 7.7 6 9.7.4 1.9-1.1 7.7 1.1 8.4zm-14.5 13.3s6.5-8.9 4.8-17.9-11.9-3.4-11.9-.2c0 3.1 5.8 7.7 6 9.7.4 1.9-1.1 7.7 1.1 8.4zm33.4-77.5s-8.7 6.9-9.5 15.9c-.8 9.1 10.5 6.4 11.3 3.4.8-3-3.5-9-3.2-10.9.3-1.9 3.3-7.1 1.4-8.4zm29-8.9s-8.7 6.9-9.5 15.9c-.8 9.1 10.5 6.4 11.3 3.4.8-3-3.5-9-3.2-10.9.3-1.9 3.3-7.1 1.4-8.4zm-108.2 78.3s1.8 10.9 9.4 16c7.6 5 10.7-6.1 8.5-8.3-2.2-2.2-9.6-1.3-11.1-2.4-1.6-1.2-4.7-6.3-6.8-5.3zm-14.5 37.1s.1 11.1 6.8 17.3c6.7 6.2 11.5-4.3 9.7-6.9-1.9-2.5-9.3-2.8-10.6-4.2-1.4-1.4-3.7-6.9-5.9-6.2zm33.5 41.5s-4-10.3-12.4-13.8c-8.4-3.4-9.3 8.1-6.7 9.8 2.6 1.7 9.7-.7 11.4.2 1.8.8 5.9 5.2 7.7 3.8zm-7-18s6.7-8.8 5.2-17.8-11.8-3.6-11.8-.5c-.1 3.1 5.7 7.9 5.9 9.8.1 2-1.4 7.8.7 8.5zm209.1-85.2s10.1-4.6 12.9-13.3c2.9-8.6-8.7-8.7-10.2-6-1.5 2.7 1.3 9.6.6 11.4-.8 1.9-4.9 6.3-3.3 7.9zm30.4 15.2s5.9-9.4 3.6-18.2-12.1-2.6-11.8.6c.2 3.1 6.3 7.3 6.7 9.2.3 2-.7 7.8 1.5 8.4zm83 86.2s-4-10.3-12.4-13.8c-8.4-3.4-9.3 8.1-6.6 9.8 2.6 1.7 9.7-.7 11.4.2 1.7.9 5.8 5.3 7.6 3.8zm-40.6 6.4s.2-11.1 7-17.2 11.5 4.5 9.6 7c-1.9 2.5-9.3 2.6-10.7 4-1.4 1.5-3.7 7-5.9 6.2zM429.5 70s-10.4-3.9-18.5.1c-8.2 4-.1 12.3 2.9 11.5 3-.8 5.9-7.6 7.7-8.4 1.8-.8 7.7-.9 7.9-3.2zm-23.7-19.8s-10.4-3.9-18.5.1c-8.2 4-.1 12.3 2.9 11.5 3-.8 5.9-7.6 7.7-8.4 1.8-.8 7.7-1 7.9-3.2zm-35.4-19s-8.8 6.8-9.7 15.8c-.9 9.1 10.4 6.6 11.3 3.6.9-3-3.4-9.1-3.1-11 .4-1.9 3.4-7.1 1.5-8.4zm-23-5.5s-4 10.3-.1 18.5 12.3.2 11.5-2.8c-.8-3-7.6-6-8.3-7.8-.7-1.8-.8-7.8-3.1-7.9zm-65.3 39.8s7.2-8.5 6.1-17.5c-1-9-11.6-4.2-11.8-1.1-.2 3.1 5.2 8.1 5.3 10.1.2 1.9-1.7 7.6.4 8.5zm135.4 54.2s5.9-9.4 3.6-18.2-12.1-2.6-11.8.6c.2 3.1 6.3 7.3 6.7 9.2.4 2-.7 7.9 1.5 8.4z"/><path fill="#DE2010" stroke="#000" stroke-width="2" stroke-linecap="round" stroke-linejoin="round" d="M459.2 194.7c-1.7 1.9-4.1 2.2-6.2.8-5-3.2-5.7-12.9-1.3-16.3-5-3.2-5.7-12.9-1.4-16.3-6.2-1.7-8.5-13.2-3.5-17-6-.2-10.9-9.7-7.9-14.9-5.3-1.6-9-9.4-6.7-14.2-5.8.4-11.7-8.3-9.3-13.9-5.8.7-12.3-7.4-10.4-13.1-6.2 1.8-14.3-6.8-11.9-12.6-5 2.9-13.9-3.1-14-9.4-6 2.6-15.3-4-14-9.8-4.3 4.2-14.9.2-16-6.1-4.5 3.4-13.8.3-15.6-5.4-4.5 3.7-14 1-15.9-4.5-3.4 5-14.2 3.9-16.9-1.7-2.7 4.8-12.3 5.2-16.3.7-3.1 5.1-13.8 4.9-16.9-.4-1.5 6.1-12.8 8.7-16.8 3.8-1.3 5.3-10.1 8.8-15.2 5.8-1 5.9-10.5 10-15.3 6.7-.1 5.9-9.3 11.3-14.6 8.4 1 5.9-7.7 12.6-13.5 10.3.4 5.7-6.8 11.9-12.3 10.6 2.1 5.3-4.5 13.1-10.7 12.7 3 4.9-2.9 13.7-9.3 13.9 2.7 5.1-2.7 13.7-8.7 14.2 4.1 4.8-.7 15.5-7.1 15.8 4.6 3.7 1.8 14.4-4.3 16.4 4.1 3.4 3 12.4-1.7 15.8 4.2 2.9 3.5 10.3-1.1 12.9-2.1 1.2-4.5 1-6.3-.5-3.7-3-3.1-9.7 1.1-12.4-4.5-4-2.3-14.5 3.5-16.5-5.1-4.2-.9-16.4 5.7-16.7-4.9-4-.6-15.7 6.1-16.4-3.9-4.6 1.6-14.6 8.2-15-2.7-5.2 3.7-13.9 10-13.6-3.3-5.3 4.5-14.8 11.2-13.3-2.4-5.9 6.6-14.2 12.7-11.9-.4-6.2 8.7-12.3 14.1-9.5-1-6.3 9.5-12.7 15-9 .1-5.9 9.5-10.7 14.9-7.7 1.2-6.4 12.7-9.6 16.7-4.8 1.6-6.4 13.8-8.8 17.2-3.3 1.5-5.6 12.3-6.8 16.7-1.8 3.2-5.3 14.3-4.8 17.1.7 3.1-5.5 15.1-4.3 17.3 1.8 3.5-5 14.8-2.6 16.8 3.6 4.7-3.8 14.8 0 15.9 5.9 5.5-4.1 16.8 2.1 15.4 8.4 4.5-4.4 15.4.8 15.7 7.5 6.2-2.4 15.4 6 12.9 11.8 5.6-3.3 15.2 5.1 13.2 11.6 6-1.6 13.4 7.4 11 13.3 5.9-.6 12 8.4 9.5 14.1 6-.3 11.6 9.4 8.4 14.9 6.5 1.9 9.9 12.6 5.2 16.1 6.4.4 9.9 12.7 4.5 17 5.9 1.6 7.9 13 2.8 17 4.9 2.7 6 11.5 2.3 15.5z"/><path fill="#FFE300" d="M448.3 158c2-2.1 3.8-2.7 6.2-2-.8-5.6-2.6-7.5-4.8-6.8-2.2.7-3.2 3.5-1.4 8.8zm3 16.9c2.1-2 4-2.4 6.3-1.5-.4-5.7-2-7.7-4.2-7.2-2.2.6-3.4 3.4-2.1 8.7zm-7.2-32.4c1.4-2.6 3-3.6 5.5-3.5-2.2-5.2-4.4-6.6-6.3-5.4-2 1.2-2.2 4.3.8 8.9zm-7.5-15.4c1.4-2.6 3-3.6 5.5-3.5-2.2-5.2-4.4-6.6-6.3-5.4-2 1.2-2.2 4.3.8 8.9zm-18.1-28.3c1-2.8 2.4-4.1 4.9-4.3-3-4.8-5.4-5.8-7.1-4.3-1.8 1.5-1.5 4.6 2.2 8.6zm-11.8-12.3c.8-2.8 2.2-4.1 4.7-4.5-3.2-4.7-5.6-5.6-7.3-4-1.7 1.6-1.3 4.6 2.6 8.5zm-24.9-21c-.1-2.9.9-4.6 3.1-5.7-4.5-3.5-7.1-3.6-8.2-1.6-1.1 2 .2 4.8 5.1 7.3zm12.9 9.7c.5-2.9 1.6-4.4 4-5.1-3.8-4.2-6.4-4.8-7.8-3-1.3 1.8-.5 4.8 3.8 8.1zM367 57.4c-.4-2.9.4-4.7 2.5-6-4.8-3-7.4-2.8-8.3-.7-.9 2.1.7 4.7 5.8 6.7zm-15-6.6c-.8-2.8-.3-4.7 1.6-6.3-5.2-2.3-7.8-1.7-8.3.4-.6 2.3 1.3 4.6 6.7 5.9zm-16.3-5c-1-2.7-.7-4.7 1.1-6.4-5.4-1.8-7.9-1.1-8.3 1.2-.4 2.2 1.8 4.4 7.2 5.2zm-15.9-3.1c-1.2-2.7-1-4.6.6-6.5-5.5-1.4-7.9-.5-8.2 1.7-.2 2.3 2.1 4.4 7.6 4.8zm-16.9-1.3c-1.5-2.5-1.5-4.5-.1-6.5-5.6-.8-8 .3-7.9 2.6 0 2.3 2.4 4 8 3.9zm-33.1 2.5c-2-2.1-2.5-4-1.6-6.3-5.6.5-7.6 2.2-7.1 4.4s3.4 3.4 8.7 1.9zm16.3-2.1c-1.7-2.3-2-4.3-.8-6.4-5.7-.2-7.9 1.2-7.6 3.4.2 2.2 2.9 3.7 8.4 3zm-32.3 5.5c-2.3-1.8-3.1-3.6-2.5-6-5.5 1.3-7.2 3.3-6.4 5.4.9 2.2 3.8 2.9 8.9.6zm-30.6 14.1c-2.6-1.3-3.7-2.9-3.6-5.4-5.2 2.4-6.5 4.6-5.2 6.5 1.2 1.9 4.2 2.1 8.8-1.1zm14.7-7.5c-2.4-1.6-3.3-3.3-2.9-5.8-5.4 1.7-7 3.8-6 5.8s4.1 2.5 8.9 0zm-42.2 26.6c-2.8-.7-4.2-2.1-4.7-4.5-4.5 3.4-5.4 5.9-3.8 7.4 1.7 1.6 4.8 1.1 8.5-2.9zm13.1-10.7c-2.8-1-4.1-2.4-4.3-4.9-4.8 3-5.8 5.4-4.3 7.1 1.5 1.8 4.5 1.5 8.6-2.2zM184.1 92c-2.9-.5-4.4-1.7-5-4.1-4.2 3.8-4.8 6.3-3.1 7.8 1.8 1.4 4.7.6 8.1-3.7zm-10.4 13.5c-2.9-.2-4.5-1.3-5.4-3.6-3.9 4.2-4.2 6.7-2.3 8 1.8 1.3 4.7.2 7.7-4.4zm-8.7 13.9c-2.9.2-4.7-.6-5.9-2.7-3.2 4.7-3.2 7.3-1.1 8.3 2 .9 4.7-.6 7-5.6zm-7.7 14.7c-2.8.6-4.7 0-6.2-1.9-2.5 5.1-2.2 7.7 0 8.3 2.2.7 4.6-1.1 6.2-6.4zm-6.1 15.2c-2.7 1-4.6.8-6.4-.9-1.7 5.4-.9 7.9 1.3 8.2 2.2.3 4.3-1.8 5.1-7.3zm-4.1 16.9c-2.6 1.2-4.6 1.1-6.5-.5-1.3 5.5-.4 7.9 1.9 8.1 2.2.2 4.2-2.1 4.6-7.6zm-1.7 14.1c-2.5 1.3-4.4 1.5-6.5.5-.7 4.5.4 6.3 2.7 6.1 2.3-.2 4-2.3 3.8-6.6zm284.4-67c1-2.7 2.5-4 4.9-4.2-3-4.8-5.3-5.9-7.1-4.4-1.6 1.5-1.4 4.5 2.2 8.6zm23.4 78.8c2.1-2 4-2.4 6.3-1.5-.4-5.7-2-7.7-4.2-7.2-2.3.5-3.5 3.3-2.1 8.7z"/><path fill="#217900" stroke="#000" stroke-width="1.548" stroke-linejoin="round" d="M430.9 99.9c-.1 0-6.4 6.3-5.3 14.1 1.1 7.7 6 17.3 5.1 25.3-.9 8-2.3 13.3-2.3 13.3s7.5-8.5 7.5-16.6c.1-8.1-5.1-18.8-5.1-24.8 0-6.1.3-11.4.1-11.3zM442.7 125.9s-5 3.7-4.5 12.1c.5 8.4 9.2 23.9 9.2 23.9s6.3 13 6.1 16.4c-.2 3.4 1.2-3.2.6-10.7-.6-7.5-10.2-23.9-10.2-23.9s-2.1-3.4-1.9-9c.3-5.6.8-8.7.7-8.8z"/><path fill="#217900" stroke="#000" stroke-width="1.935" stroke-linejoin="round" d="M304.5 41.8s21.3.8 21.5 14.6c-.1 2.1 0 4.7-.8 10.8 4.2-2.3 7-8.6 6.5-12.7.1-13.9-19-23.5-27.2-12.7z"/><path fill="#217900" stroke="#000" stroke-width="1.935" stroke-linejoin="round" d="M291 41.2s17.2-3.6 17.3 10.2c.1 13.8-5.5 16-5.5 16S316 64.6 316 50.6c.2-14-16.9-20.2-25-9.4zM457.9 199.4c.4 6.2 6.5 12.1 4.1 22.9-3 12.3-13.7 41.4-11.9 46.5-3.2-4.3-2.6-8.4-2.9-14.5-.3-6.1 8.8-28.6 9.6-36.2.1-6.9.7-16.2 1.1-18.7z"/><path fill="#217900" stroke="#000" stroke-width="1.935" stroke-linejoin="round" d="M457.9 199.5s9.9 12.5 9.4 22.4c-.5 9.9-6.1 21.5-4.2 26.6-3.2-4.3-4-7.1-4.2-13.2-.3-6.1 4.9-12.8 3.8-19.4-1.1-6.5-4.9-16.4-4.8-16.4zM134.3 202.2c-.4 6.2-5 11.7-2.6 22.5 3 12.3 13.8 27.8 12.1 45.6 3.2-4.3 4.1-9.2 4.3-15.3.3-6.1-12-26.5-12.8-34.1 0-6.8-.6-16.1-1-18.7z"/><path fill="#217900" stroke="#000" stroke-width="1.935" stroke-linejoin="round" d="M134.3 202.4s-9.6 12.1-9.1 22c.1 6.6 12.3 34.1 10.4 39.3 3.2-4.3 4.1-3.8 4-10.4-3.6-16.9-9.9-27.7-8.8-34.3 1-6.6 3.6-16.6 3.5-16.6z"/><path fill="#8C8A8C" stroke="#000" stroke-width="1.548" d="M321.1 83.6s17.2 1.1 18 10.9c.8 9.8-4.1 15.8-4.1 15.8s2.2 21.2-14.6 27.5c-18 2.2-46.2.5-46.2.5s-8.3 2-11.6-15.1c-3.4-17.2-4.3-29.3-4.3-29.3s1.7-9.6 13.8-10.2c12-.5 48.9.2 49-.1zm1.4 53.7c2.3 1.9 4.4 4.1 4.9 11.2l1 14.2 12 108 10.6 78.1.7 12.1s-2.5 8.9-9.6 9.6c-5.2 10.8-33.1 13.9-35.9 13.8-2.5-.1-11.4-3.8-16.8-3.4-5.4.5-14.8 4.1-19 3.5-4.2-.6-13.7-3.8-15.4-10.7-11.8-3.7-13.7-12.7-13.7-12.7l12.7-90.4 12.4-114.3s1.4-15.2 7.6-17.5c6.4-.5 39.3.7 48.5-1.5z"/><path fill="none" stroke="#000" stroke-width="1.548" stroke-linecap="round" d="M334.9 110.3s-9.2 11.5-8.3 16.2"/><path fill="none" stroke="#000" stroke-width="1.548" d="M257.7 293.7l-2.5 79.9M335.4 304.3l7.1 65.9"/><path fill="#FFF" stroke="#000" stroke-width="1.613" stroke-linejoin="round" d="M298.6 91.6l23.9 73.7H400l-62.7 45.5 23.9 73.7-62.7-45.5-62.7 45.5 23.9-73.7-62.7-45.5h77.5l24.1-73.7z"/></svg>
