<svg xmlns="http://www.w3.org/2000/svg" xmlns:xlink="http://www.w3.org/1999/xlink" width="240" height="160" viewBox="0 0 120 80"><symbol id="a" viewBox="-13.4 -13.5 26.7 27"><path fill="#FFF" d="M-4.3 12.8c-.9-.4-1.6-1-1.6-1.3 0-.3.5-.3-.1-.6-2.8-1-4.1-.2-5.1-.2-.3 0 1.3-.7.7-.5-.8.2-1.3.3-.7-.1 1.1-.7 4.7.2 5.7.4.4 0 .4-.3.6-.3 2-.1 5.5 0 7.1.2 2.8.4 3.7-1.6 0-2.4-8.4-1.8-6.5-7.4 1-8 3.1-.3 8.5-1.3 0-2C-.5-2.2-7.4-3.5-7.4-7.4c0-1.8-4.1-1.1-5.1-.8-2.5.6.7-1.8 3.8-1.8 1.3 0 2.1-.3 3.2-1.1 2.4-1.7 5-2.4 9.5-2.4 11.1.1 12.8 6.8 2.4 7.7-2.3.2-6.8-.1-8.8-.7-1-.3 1.3 1.2 6.1 1.7C14.2-4 14 1.9 4 2.8c-5 .4-5.3 1.3-1.1 2.6 3 .9 4.5 2.2 4.5 4 0 5.1-9.7 4.4-11.7 3.4zm2.7-.7c-.3-.5-1-.5-.7 0 .1.4.9.5.7 0zM9-8.6c3.1-1.2-3.8-1.9-6.4-1.7-12.7 1.2 2 3.4 6.4 1.7z"/></symbol><path fill="#21428E" d="M0 0h120v80H0z"/><path stroke="#FFF" stroke-width="11.6" d="M60 0v80M0 40h120"/><use xlink:href="#a" width="26.7" height="27" x="-13.4" y="-13.5" transform="matrix(1 0 0 -1 27.225 17.206)" overflow="visible"/><use xlink:href="#a" width="26.7" height="27" x="-13.4" y="-13.5" transform="matrix(1 0 0 -1 92.94 17.228)" overflow="visible"/><use xlink:href="#a" width="26.7" height="27" x="-13.4" y="-13.5" transform="matrix(1 0 0 -1 27.225 63.017)" overflow="visible"/><use xlink:href="#a" width="26.7" height="27" x="-13.4" y="-13.5" transform="matrix(1 0 0 -1 92.94 63.04)" overflow="visible"/></svg>
