<svg xmlns="http://www.w3.org/2000/svg" width="240" height="160" viewBox="0 0 240 160"><path fill="#00008B" d="M0 0h240v160H0V0z"/><path fill="#FFF" d="M70 24.4V0H50v24.4L13.4 0H0v9l26.6 17.6H0v26.7h26.6L0 71v9h13.4L50 55.6V80h20V55.6L106.6 80H120v-9L93.4 53.4H120V26.7H93.4L120 9V0h-13.4L70 24.4z"/><path fill="#F00" d="M54 0h12v32h54v16H66v32H54V48H0V32h54V0zM0 0l40 26.7h-9L0 6V0zm120 0h-9L71 26.7h9L120 0zm0 80L80 53.3h9L120 74v6zM0 80h9l40-26.7h-9L0 80z"/><path fill="#FFF" d="M148.2 42.3H212l-.2 45.3c.5 18.2-10.8 29.5-31.7 34.6-14.7-3.7-31.8-11.3-31.8-34V42z"/><path fill="#00A2BD" stroke="#000" stroke-width=".4" d="M149.6 43.7h61V87c.4 17.6-10.5 28.4-30.4 33.3-14-3.5-30.5-10.8-30.5-32.7v-44z"/><path fill="#A53D08" d="M210 92.3c-2.2 16.6-15 24-30 27.8-13-3.4-27.2-9-30-27.6h60z"/><path d="M177.7 51.8v-5.5h4.2v5.5h11.8V56h-12v50h-4l-.2-50h-11.8v-4.3h12z"/><path fill="#FF9A08" stroke="#000" stroke-width=".2" d="M168 94.4l11 11.2c3.6-4 1-19.5-4-22.3-.5 1.8-1.5 4-2.6 4.7-2.3 1.6-8 3.5-6.2 4.6.5-.6 1.6-1.2 2.2.2.7 2-2.4 2.2-2.4 2.2s-2-.2-2.2-2.2c-.4-2 2.8-3.7 3-4 .3 0 4.6-1 5.3-5 1-3.5 2-3 2-3 5.6.5 9 10.3 9.3 17.2s-2.8 11.4-3.3 11.8c-.5.3-13-14.8-13-14.8l1-.6zM176 84V104m-1.2-20v18.5M173.5 87v14.5m-1-13.5v12.2m-1.3-11.7v10.2m-1.2-9.4v8m-1-7.3v6.2"/><path fill="none" stroke="#FFDF00" stroke-width=".2" d="M168 95.6l11 12.8" stroke-linecap="round"/><path fill="none" stroke="#FFDF00" stroke-width=".4" d="M179.6 87.6s5 11 .4 20.2m-13.4-14.5s.4-1 .8-.6m-1.7-2.2s-2 1.8-1 3" stroke-linecap="round"/><path fill="#008021" stroke="#000" stroke-width=".1" d="M182 62.3c.7-.6 1-1 1.6-1h1.6c.5 0 2.8-.4 3.7 0 .2 0 .6 0 1.3.6.7.5 1.6 1.4 1.3 4-.3 2.8-.2 4-.3 5.4-.2 2.7-.8 4.8-2 4.7 1.5 2.6 1.7 4.7 2.6 6.4 1 1.7 1.4 5.2 1 9-.2 3.8-1.2 12.3 1.8 18-.5.4-1.7 0-2.8-1s-1.5-1.2-2.4-.5c-2.7 2-5.3 4.4-9 2-1-.7-1-1.3-.5-3 1.7-4.5 2.4-10.5 2.2-13.2l-.2-31.5z"/><path fill="#FFE1CF" stroke="#000" stroke-width=".1" d="M184.6 59.6c.2.6.3 1.4 0 2-.3.8-.4 1.7 0 2.7 1-1.2 2.2-1 3-1.7.6-.7.7-1.4 1.3-1.5-.6-.4-1.4-1-1.3-2.2.2-1.4 2-2.5.3-4.6-1-1.3-2.7-1-3.4-.4l-.7.8c-.2.2 0 .8-.3 1 0 .3-.4.5-.6.7v.4h.3l-.2.5v.3c0 .4.2.5 0 .8 0 .2-.3.6.3 1 0 .2 1 .4 1.3.3zm-7 7.2c-1 .2-2.6-.2-3.8 0-.5 0-1-.2-1-.7.2-.4.3-1.3 0-2 0-1.2.5-2.8 1.3-4.6 1-1.8 1.3-2.8 1.3-3.6 0-.6 0-1.2.5-1.5.4-.2.4-.5.6-.7.3-.4.6-.5.6-.2l-.2.5 1-.8s.8-.5.8 0c.2-.2.4-.2.5 0v.2s.3.2 0 .6c.2 0 .4.2 0 .5l-.8.7s-1 1-1.3 1c-.4 0-.5.3-.5.8 0 5.5-.7 5-.7 6.4 0 .3 0 .7.2.6l1.4-.2.2 3zm.2 11.8c1.6-.8 3.5-1 4.5-1.4 1-.2 2.5-1 3.2-1.4.7-.4 1.4-1 1.8-1 .4-.2 1-.5 1.2-1 1.4-2.8 2-5 2-7 0-1-.2-2.5-1.4-1.5-1 1-2.3 2.8-2.6 4-.5 2-1 2.5-1 3 0 .3-.5.3-1 .4-2 .5-2.6.8-4.2 2s-3.3 2.2-4.5 3c-1 .5-1.3.6-1.6 1 0 .6-.4 1-.6 1.2-.2 0-.2.4-.2.7V83c.2 0 .4-.2.5-.6 0 .4.5.2.5 0 0 .5.6.2.6-.2 0 .3.5 0 .5 0 0-.4.2-.8.4-1 .2-.5.4-1 .8-1.3.6-.5.3-1 1.3-1.4zm11.6 29.3c0 .3.3.7.4 1v.5c-.5.7-.8 2-1 2.7 0 .4-.2.7-.3 1 0 .2 0 .4.2.7 0 0 .6 0 .7-.4.2.2.5 0 .6 0 0 0 .4 0 .6-.3 0 0 .4 0 .5-.2.3.2.6 0 .6-.4v-.4c.2 0 .2-.4.2-.6l.2-1c.2 0 .5-.6.4-1 0-.5-.3-.5-.5-1-.5-.5-1-1-1.6-1-.5-.2-.8.2-1 .3zm-10.2 3c.5.5 1.6.5 2.4-.3l-1.2-.6c-.3.4-.8 1-1.2 1z"/><path fill="#870F00" stroke="#000" stroke-width=".1" d="M184.3 54c.2-1 1-1 1.7-1h1.3c1-.2 2 0 1.7 1 .3.3.6.8.5 1.2 0 .4 0 .6.4.7.3 0 1 .4.6 1 .5.4 1 1.2.6 1.8-.3.5-1 .6-1.5 0-.4.3-1 .3-1.5 0-.2.2-1 .2-1 0 0-.4-.3-.5-.6-.6-.2 0-.3-1 0-1 0-.2 0-.5.2-.6 0 0 0-.4-.2-.5-.2 0-.4-1-.2-1.3-.4 0-1.4-.2-1.6-.6 0 0-.4-.2-.5 0z"/><path fill="none" stroke="#000" stroke-width=".1" d="M184.6 59.6c.7 0 1-.5 1.4-.5m-3-1.3h.3c0 .2.2.2.4.2m-.4-1h.3m1.3-3c-.5-.3.6-1 1.8 0 .2.3.7.3 1 .3m-1.3.4c.5 0 1.3 0 1.6.5.3.6.8.2 1.2 1 .4.6 1 1.4 1.5 1m-2.3 1.6c0-.2-.2-.7 0-1-.3-.2-.2-.7 0-1m-1.5.5c0 .2.2.6.6.7m2.3 1c-.3-.3-.3-.6-.2-1m-2.5-2.6c0 .3.2.8.5 1 0 0 .4.6 1.2.5m0-3c-.3-.2-.8-.6-1.5-.7m-2.8 11c-.6 1-1 2-.7 3.7.3 1.6.7 4-.4 5m5.7 3c-.8 0-2 0-2.7.3-.7.4-1.7.5-2.4.2"/><path fill="none" stroke="#000" stroke-width=".1" d="M187.6 76c-.7 0-1 .6-1 2 0 1.3-.3 3.2 0 5m-.3-6.4c-.5 0-1 0-1 1.4m-1.4 0c0-.7.2-1.5.7-1.3m4.3 1.5c0-1.7-.3-2.2-.8-2.2.7 0 1 0 1.4 3 .2 2 .6 2.7 1 4.4 1.4 4.2.7 10.7 1.4 13m-4-17.7c1.4 4 2 8.3 0 15.3 1.4 4.2 3 7.2 3.2 9m-7.4-15c.2-1-.7-1 0-4.2.4-1.4.5-2.2.3-2.6m0 2c-.2 1.3 1 4 .5 5.8m-1.7.3l.2 4c0 1.2.4 1.8 1 3 2 4 3.5 7 3.3 11 0 .7.2 2.2-.5 2.7m-4 1c.2 0 .5 0 .7-.7s1-4.5.7-7m.5 2.8c0 1 0 2.6-.4 4m1.8-6.4c.4 1.7.3 3.3 0 4.5m-.6 0c0 .8.4 2.6-.2 2.7m2.8-11c1.3 2.2 2.4 7.3 3.5 8.4m-2.3-.8c0-.6 0-1.4-.4-1.7m-14-23.4c0-.3 0-.6.5-1.3m-1 1.7c0-1.4 0-1.5.4-2m-1 2c0-1 0-1.3.3-2m4.6-27.5l-1.4 1m2-.7c-.3 0-.8.4-1.7 1m1.6-.5c-.2 0-.7.6-1.2 1m-1-1l-.5.4m13 59.4v-.7m.7.5v-.8m.6.6v-.6m.4.3v-.5"/><path d="M184 55.3c.2.3.5.3.6.5v.3h-.5v-.3-.4zm.2-.4c.3 0 .8 0 1 .4.3.2 0 .2 0 .2s-.3 0-.4-.2l-.6-.3c-.2 0-.3 0 0 0z"/></svg>
