<svg xmlns="http://www.w3.org/2000/svg" width="240" height="160" viewBox="0 0 120 80"><path fill="#CF142B" d="M0 0h120v80H0z"/><path fill="#FFF" d="M0 0h60v80H0z"/><path fill="#E60D2E" d="M3 11v6.1h6c0 1 1 2 2 2v6.1h6.1v-6.1c1 0 2-1 2-2h6.1V11h-6.1c0-1-1-2-2-2V3H11v6c-1 0-2 1-2 2H3z"/><path fill="#96877D" d="M3.4 11.4v5.3h6.1c0 1 1 2 2 2v6.1h5.3v-6.1c1 0 2-1 2-2h6.1v-5.3h-6.1c0-1-1-2-2-2v-6h-5.3v6.1c-1 0-2 1-2 2-.1-.1-6.1-.1-6.1-.1z"/><path fill="#CCC" d="M3.6 11.6v4.8h6.1c0 1 1 2 2 2v6.1h4.8v-6.1c1 0 2-1 2-2h6.1v-4.8h-6.1c0-1-1-2-2-2v-6h-4.8v6.1c-1 0-2 1-2 2H3.6z"/></svg>
