<svg xmlns="http://www.w3.org/2000/svg" width="240" height="160" viewBox="0 0 120 80"><path d="M0 0h120v80H0z"/><path fill="#CE1126" d="M0 26.7h120v26.7H0V26.7zm71-12c.7-1.6 3.2-7.5 4.6-6.6 1.4 1-3.4 5.4-4.6 6.6zm6.5-5.1c-1.3-1.1-4.3 4.6-5.1 6.1 1.2-1.1 6.3-5.1 5.1-6.1zm-3.9-2.8c-1.4-.8-3.4 5.3-4 6.9 1.1-1.2 5.4-6 4-6.9zM67 4.1c-1.6-.4-1.9 6-2.1 7.7.8-1.4 3.7-7.2 2.1-7.7zm6.6 12.7c1.4-.9 6.8-4.5 5.7-5.7-1.2-1.1-4.7 4.3-5.7 5.7zM71.5 5.7C70 5 68.6 11.3 68.1 13c1-1.4 4.9-6.6 3.4-7.3zm-9.1-2.4c-1.6-.1-.8 6.2-.7 8 .4-1.6 2.3-7.9.7-8zm6.9 1.5c-1.6-.6-2.4 5.8-2.7 7.5.8-1.4 4.3-6.9 2.7-7.5zm5.4 13.3c1.4-.8 7.2-3.9 6.1-5.1-1-1.4-5 3.7-6.1 5.1zm10.9 3c-.6-1.6-6 1.9-7.5 2.7 1.6-.3 8-1.2 7.5-2.7zm-5.4 3.6h4.3c1.1-.3 1.9-.7 1.8-1.3-.4-1.3-3.8.2-6.1 1.3zM60 13.2c-7.5 0-13.9 4.8-16.2 11.5h32.4C73.9 18 67.5 13.2 60 13.2zm15.7 6.2c1.5-.7 7.5-3.2 6.6-4.6-1-1.4-5.3 3.4-6.6 4.6zm9-.5c-.7-1.5-5.8 2.4-7.3 3.4 1.6-.4 7.9-1.9 7.3-3.4zm-1.1-2.1c-.8-1.4-5.6 2.9-6.9 4 1.5-.6 7.7-2.6 6.9-4zm-20.3-5.3c.6-1.6 3-7.6 1.4-7.9-1.6-.3-1.4 6.1-1.4 7.9zm-15.6 4.2c-.8-1.4-3.9-7.2-5.1-6.1-1.4 1 3.7 5 5.1 6.1zm-2.4 2.4c-1.1-1.3-5.1-6.4-6.1-5.1-1.1 1.2 4.6 4.2 6.1 5.1zM60 3.2c-1.7 0-.3 6.3 0 8 .3-1.6 1.7-8 0-8zM46.4 16.8c-.9-1.4-4.5-6.8-5.7-5.7-1.1 1.2 4.3 4.7 5.7 5.7zm-3 4c-1.3-1.1-6.1-5.4-6.9-4-.9 1.4 5.2 3.4 6.9 4zm-7.9 3.9h4.4c-2.3-1.1-5.8-2.5-6.1-1.3-.2.6.6 1 1.7 1.3zm6.5-.9c-1.4-.8-7-4.3-7.5-2.7-.6 1.6 5.7 2.4 7.5 2.7zm.6-1.5c-1.4-1-6.6-4.9-7.3-3.4-.7 1.5 5.6 2.9 7.3 3.4zm1.7-2.9c-1.2-1.2-5.6-5.9-6.6-4.6-.9 1.4 5 3.8 6.6 4.6zm11-15.8c-1.6.3.8 6.2 1.4 7.9 0-1.7.2-8.2-1.4-7.9zm-2.3.5c-1.6.4 1.3 6.1 2.1 7.7-.2-1.6-.5-8.1-2.1-7.7zm4.6-.8c-1.6.1.3 6.3.7 8 .2-1.7 1-8.1-.7-8zm-6.9 1.5c-1.6.6 1.9 6 2.7 7.5-.3-1.6-1.2-8-2.7-7.5zM49 14.7c-.7-1.5-3.2-7.5-4.6-6.6-1.4 1 3.4 5.3 4.6 6.6zm-2.6-7.9c-1.4.8 2.9 5.6 4 6.9-.6-1.5-2.6-7.7-4-6.9zm2.1-1.1c-1.5.7 2.4 5.8 3.4 7.3-.4-1.6-1.9-7.9-3.4-7.3z"/><path fill="#339E35" d="M0 53.3h120V80H0z"/></svg>
