<svg xmlns="http://www.w3.org/2000/svg" width="240" height="160" viewBox="0 0 120 80"><path fill="#CC0001" d="M0 0h120v80H0z"/><path fill="#FFF" d="M0 74.3h120V80H0v-5.7zm0-11.4h120v5.7H0v-5.7zm0-11.5h120v5.7H0v-5.7zM0 40h120v5.7H0V40zm0-11.4h120v5.7H0v-5.7zm0-11.5h120v5.7H0v-5.7zM0 5.7h120v5.7H0V5.7z"/><path fill="#010066" d="M0 0h60v45.7H0z"/><path fill="#FC0" d="M8.8 22.9c0 11.9 13.2 19 23.2 12.6-8.7 3-17.7-3.4-17.7-12.6 0-9.3 9.3-15.7 18-12.5-10-6.7-23.5.4-23.5 12.5zm39.9 7.8l-6.3-3.3 1.9 6.8-4.3-5.7-1.3 6.9-1.3-6.9-4.3 5.6 1.9-6.8-6.3 3.3 4.7-5.3-7.2.3 6.6-2.8-6.6-2.8 7.2.3-4.7-5.3 6.3 3.3-1.9-6.8 4.2 5.7 1.3-6.9 1.3 6.9 4.3-5.6-1.9 6.8 6.3-3.3-4.7 5.3 7.2-.3-6.6 2.8 6.6 2.8-7.1-.3 4.7 5.3z"/></svg>
