<svg xmlns="http://www.w3.org/2000/svg" width="240" height="160" viewBox="0 0 120 80"><path d="M0 0h120v80H0z"/><path fill="#FFF" d="M0 0h120v27.5H0z"/><path fill="#007168" d="M0 0h120v25H0z"/><path fill="#FFF" d="M0 52.5h120V80H0z"/><path fill="#FCE100" d="M0 55h120v25H0z"/><path fill="#D21034" d="M0 0v80l52.5-40L0 0z"/><path fill="#FCE100" d="M1.7 36.5h31.6L7.8 55l9.7-30 9.7 30"/><path fill="#FFF" stroke="#000" stroke-width=".167" stroke-linecap="round" stroke-linejoin="round" d="M9 47h7c.6.6 1.8.9 3 0 2.2-1.2 6.5 0 6.5 0l.8-.9-2-6.7-.7-.8S22 37.7 19 38c-3 .3-4-.1-4-.1s-2.6.3-3.4.7l-.8.8L9 47z"/><path fill="none" stroke="#000" stroke-width=".167" stroke-linecap="round" stroke-linejoin="round" d="M10.4 45.3s6.7-.8 8.7 1.7c-1.1.7-2.1.8-3.1 0 .2-.3 2.4-2.6 8.1-1.8m-6.5-6.7l-.1 7.4m6.1-7.2l1.3 5.9m-13.2-6l-.7 3"/><path stroke="#000" stroke-width=".167" stroke-linecap="round" stroke-linejoin="round" d="M4.5 47.8l1.7 1.9c.2.1.4.1.5 0l2.4-2.9 1-1.3c.2-.2.2-.4.2-.6l2-1.7h.4c-.2 0-.3-.1-.2-.4l.4-.3.3.4-.5.6h-.5l-1 .9.4.4.7 1.9.8-.6-.5-1.9 1.2-1.3-.4-.7.3-.4s4.1 2.6 5.6 1.9l.1-1.8s-4.2-.4-4.3-1.3c-.1-.7.9-.8.9-.8l-.4-.6.1-.3.7.9 1.7-1.4 9.8 11.2c.5-.2.6-.3.7-.9l-9.6-11 .7-.8c.1-.2.2-.2.2-.5l1.1-1c.3.1.6.3.7.6l3.1-2.6c.1.1.3.2.5.1l5.1-4.9-5.6 3.9-.2-.1c0-.2.2-.2 0-.5s-.5.2-.6.2c0 0-.8-.3-1-.6l-.1.9-1.4 1.3h-1.1L19 35.1l-.2.6.2.5-.8.7-.2-.2.7-.6.1-.4-.2-.4c-.1.1-1 1-1 .9-.1-.1-2.6-3-2.6-3l.1-.5-1.7-1.8c-.6-.2-1.6-.2-1.8 1.1-.2.3-1.4 0-1.4 0h-.7l-3.9 5.5 2.2 2.6 4.4-5.6.1-1.6.9 1c.3 0 .6 0 .9-.1l2.6 2.9-.4.4c.1.2.2.3.4.4.1-.1.3-.2.4-.3 0 .1.1.2.2.3-.2.1-.4.3-.6.4-.4-.2-.7-.5-.7-1l-1.5 1.2v.2l-4.4 3.6h-.4L9.6 43l2.8-2.4v-.3l.3.2 2.2-1.8.1.2-2 1.8v.2l-.3.3-.2-.1-2.5 2.6h-.4l-1.5 1.5c-.4 0-.7.1-1 .3l-2.6 2.3z"/></svg>
