<svg xmlns="http://www.w3.org/2000/svg" width="240" height="160" viewBox="0 0 120 80"><path fill="#003580" d="M120 0H0v80"/><path fill="#009543" d="M0 80h120V0"/><path fill="#FFF" d="M120 16V0H96L0 64v16h24"/><path fill="#D21034" d="M120 12V0h-18L0 68v12h18"/><path fill="#FFCE00" d="M21.9 29.5l2.1 5.6 2.1-5.6m-9.8-9.8l-5.6 2.1 5.6 2.1m9.8-9.8L24 8.5l-2.1 5.6m9.8 9.8l5.6-2.1-5.6-2.1m-13.4 7.7l-1 5.9 4.6-3.8m-3.6-13.4l-5.9-1 3.8 4.6m13.5-3.6l1-5.9-4.6 3.8m3.6 13.4l5.9 1-3.8-4.6m-15.5.1l-3.8 4.6 5.9-1m3.5-13.4l-4.6-3.8 1 5.9m13.4 3.5l3.8-4.6-5.9 1m-3.5 13.4l4.6 3.8-1-5.9"/><circle fill="#FFCE00" stroke="#003580" stroke-width="1.333" cx="24" cy="21.8" r="7.3"/></svg>
