<svg xmlns="http://www.w3.org/2000/svg" width="240" height="160" viewBox="0 0 240 160"><path fill="#009543" d="M0 0h240v160H0z"/><path fill="#ED4135" d="M0 0h240v106.7H0z"/><path fill="#0035AD" d="M0 0h240v53.3H0z"/><circle fill="#FAE600" stroke="#000" stroke-width="1.778" cx="86.7" cy="80" r="52.4"/><path stroke="#000" stroke-width="2.133" d="M77.8 87.8h17.8M77.8 74.7h17.8m-8.9-47v89.6"/><path d="M107 128.7s-20.1 8.2-41.5-.5c-1 .9 8.1-8.4 11.3-10.9 3.8-3 14.9-3.1 18.7 0 3.9 3.2 11.5 11.4 11.5 11.4zM86.7 95.6c-3.2 0-5.9 3.8-5.9 8.5s2.6 8.5 5.9 8.5c3.2 0 5.9-3.8 5.9-8.5-.1-4.6-2.7-8.5-5.9-8.5zm-7.1-14.4c0 2.5 3.2 4.5 7.1 4.5 3.9 0 7.1-2 7.1-4.5s-3.2-4.5-7.1-4.5c-4 0-7.1 2.1-7.1 4.5zm0-20.8c0 3.9 3.2 7.1 7.1 7.1 3.9 0 7.1-3.2 7.1-7.1 0-3.9-3.2-7.1-7.1-7.1-4 0-7.1 3.2-7.1 7.1zm1.3-10.7c1.2-1 7.4-1.2 13.6-12.4 1.3-2.3.7-3.4.7-3.4s.1.2-.9 1c-6.2 5.3-14 5.3-15 10.5-.1.4-.2 4.3-.2 5.2 0 .1.5.1 1.8-.9zm5.8 22.8c4.2 0 10.3-.2 10.7-6.6.2-4 1.6-8 1.6-8s-3 3.6-4.1 5.9c-2.3 4.7-5 5.2-8.2 5.2-3.1 0-5.9-.5-8.2-5.2-1.1-2.3-4.1-5.9-4.1-5.9s1.4 4 1.6 8c.3 6.5 6.5 6.6 10.7 6.6zm0 22.4c3 0 6.2 2 7.6 5.3 2.6 6.5 4.9 9.2 4.9 9.2s-1.4-5.9-2.1-13.4c-.3-3.7-3.6-6.2-10.4-6.2-6.8 0-10 2.5-10.4 6.2-.7 7.5-2.1 13.4-2.1 13.4s2.2-2.8 4.9-9.2c1.3-3.3 4.6-5.3 7.6-5.3z"/></svg>
