<svg xmlns="http://www.w3.org/2000/svg" width="240" height="160" viewBox="0 0 240 160"><path fill="#007934" d="M0 0h240v160H0V0z"/><path fill="#FFF" d="M73 0h94v160H73V0z"/><path fill="#007934" d="M120.2 34.8l-2.3.4c2 1.2 2.8 2.8 0 2.4 2.5 2.2 2.6 2.7-.7 2.8 0 0 2.2 1.6 2.4 2.5v1.3c-.2-.2-3.8-3.2-6-2.3-.5.4 3.6 1.7 5.4 3.3 0 .5-6.4-1.6-6.7-.3.2.3 7 1.3 7.5 2.2-2.5 0-7.6-.5-7.5.3-.5 1 5 .4 7 1.2.8.8.7 1.4-.5 1.5-2.2-1-7-1.8-7-.5.6.4 5 .3 6.8 1.4-2.4.6-10.6-1-10.7-.2.2.4 1.5 2 3.7 2s7.4 1 7.7 1.6c0 .6-6.8-1.4-9.4-.2-2.6 1.3 7.6.5 9.3 2 1.7 1.5-3.4-.2-3.4-.2s-7-1-8-.5-2.3 1.6-2.3 1.6.7 1.5 1.4 1.2c.6-.2.2.4 0 .8 0 0 9.7 2.3 12 4.4 2 2-12.6-3.3-12.6-3.3s-6 2.2.3 2.4c-.7 1 .3 1.6.4 1.6 0 0 10.5 2.2 11.5 3.8s-7-1.6-9-2.5c-1.6-1-6.5.4-6.8.8 0 .5 2.5 1 2.6 1.6 0 .6-3 1-3 1.4 0 .6 13 3.3 16.6 6.2 3.4 3-10.4-3.5-10.4-3.5s.8 1 0 1.3-3.5-4-8-1.3c-.8 1 4 2 5 2-.5 1.4-.5 1.4 1.3 2.7-.4 0-3.4-1.6-3.7-1.6l.3 1.8c-1.6-1.3-3.4-1.6-5.2-.4 0 0 0 1.3 1.8 2-1 2 1 1.4 4.5 3.3-5-1.3-5.4 1-1.8 1.7 3.5.6 13.3 1 15.6 4 2.6 3-3-1.2-4-1.4l-.2 1.5c-1.5-.8-2.8-1.6-4.6-2 0 .3 0 .7-.2 1-1.6-1.2-3-2-5.4-2l-.3 1s-2-2.5-6 0c-2 1.5 8.2.5 10 2.3 1.6 1.8.3 2 .3 2l-4.2-1.5s-5-.8-6.3.4c-1.4 1 20.4 3.8 21 6.8.5 1.6-5-1.7-9.8-3l-.7 1.5s-2-2-4-2.2l.4 2s-5.3-2.6-8-1.3c-2.8 1.3 9.4 2 10.5 3.3l.2.3c-.3.4-4-1-4.3-.3-.3.8-6.3-1.5-6.2-.4 0 1.2.8 1.8.8 1.8s12.4 1 12.8 2.6c.4 1.5-6.8-.8-6.8-.8-1.7 2.4-4.4-1.5-4 1-1.5-.7-5.5-2.6-5-1 .6 1.3 11 3.4 11.3 3.4-.4 0-4.7.4-4.5 1.5-6-3.5-6-1.4-5.7-1.3-.3 0-7.6-1.8-1.8 1.2 1 .5 3.8 1.8 3.8 4.3-.3 0-4-2-5.4-2.2-1.3 0-7.6 1.7-1 4.7 6.8 3 11-.7 14.7-.3 3.8.3 5.6 1 5.2 2-.3 1.3-3.8-3.8-7.4.6-4-.8-7-1.3-4.7 1.7-6.6-2.5-10.7.8-2.2 2 8.3.4 13.4-2 13.4-2s1.4 2.7 3.4 1c2-1.8 2 .4 2 .6 1 0 1-1 2.6-1V132h6.7s-2.3-14.4-1-16.3c1-2 2-1.7 2.2-1.7 1.5.4 3.5 1 5 1 .3-.3 0-1.6 2.2-1.4.7-.3.4-1.4 1-1.6 1.6 0 14.4 3.6 17.2 0-.8-2-3.4 0-4 0-.7 0-3.4-1.3-5 0-1.3-1-7.6-1.7-7.6-1.7-.8-.7 15 .5 16 0 2-2-3.4-1.8-4.2-1-1.5-1-3.4-1-4.5-.3-.5-1.3-5.7-.8-8.6-1-1-.6-.8-1 0-1.3 6 .3 12 1 18 .8 1.6-2-2-3-4.4-1-1.3-2.3-4-.2-6-.4-1.7-.2-1-2.4 1.4-2 2.3.2 6.5-.2 7.2-1.3.7-1-.5-2-4.4-1-1.3-1.4-4 0-5.4.3-1.8-1-6 0-7.3.2-1.4-.8 7-2.2 7-2.2 3.4 0 5.2-.6 6.3-1 5-2.6 0-2.8-2.7-1-1.6-1-3 .3-4.6.7-1.4.5-4 .8-4.2.7V99c.2-.3 4-2.6 4-2.6l6-.5c.5-.2 2.6-1 2.6-1.5 0-.3-1-.3-3.5.4H139c-1.4 0-2-.3-2.2-.4.4-.4 2.7-.6 2.7-.6s7-.7 7.5-1c.2-3-6-1.6-6-1.5 0-2-5.6 0-5.8 0-.8-.5-.3-1 .6-1.4 1.6-.2 3.8-.3 4.4-.8 0 0 4.4 0 5-1.2-1-3-9.3.5-10.4 1-1.2 0 .2-1.6 1-2.4.3 0 6.8-.4 10-4.6 0-2.6-3.8 1.5-3.8 1.5-.3-3.3-4.3.2-6.6.5s-2.3-1-.8-1.3c1.6-.2 3.4 0 4.3-2.5 1-2.4 3.8 0 4.3-.8.4-1-1-1.6-1-1.6s2-2-1.2-2-7.4-.5-7.5-.5c.2 0 3.5-1.3 6.6-1.3 3.3 0 1.6-2.3-1.5-2.3s-4.7-1-4.7-1l5.3-2-.3-1.5s3-2.5-1.3-2l-4.8.7-8.7 1.3c-1.2 0-1.8-1-.2-1.3 2.2-.6 10.2-2.2 11.3-1.7 1.4.4 0-3-4.2-3.3-4.2-.4-6.8 1-6.8 1s-2.7-1-.2-1.8 6.5.3 6.5.3 4.4-1.3.7-1.8c-3.7-.6-5 .5-6.5.5-.7-.8 5.8-1 6.2-1.7-.7-1.3-4.7 0-7 0-1-.4-1-1 0-1.6 2.5-.2 4.8 0 7 0v-4.2c-3-.5-6.6.4-8.3.3.5-1.3 7-1.6 7.8-2 1.5-2-6.3 0-6.5 0-1.4-.2-1.3-1-.4-1.6 2-.3 6.6.3 6.3-1-.3-1.4-3.2-.7-4.4-.4-1.2.3-3 0-3 0-.7-1 7-.5 7-1.3-.2-1-5-.3-6.5-.2-1.3-.8 5.7-1.4 6-1.5.4-2.3-4.8 0-5.8 0-.8 0-.8-.8-.6-1.5 1-.4 3.2-1.4.2-1.4v-1.5c2-1.5 2.2-2.2-.4-1.3v-1.4c1.8-.2 2.2-1.4 0-1.5-.4-2.4-.6-5-.8-7.3-.7 0-1 6.4-1.2 6.8zm-.6 17v1c-2.6-.2-2.5-.5 0-1zM122 53s3 0 3.3.5c0 .6-2.7.8-3.3 1V53zm-.3 2c.3 0 1.6 0 1.6.4-.2.3-1.2.4-1.5.4 0 0-.2-.7 0-.8zm-2.6 3.7s.2 1 0 1.2c0 0-6.7-2-7.3-2-.2 0-.2 0-.2-.3.7-.8 6.5.7 7.6 1zm.6 2.2v1.3c-.4 0-4-1.3-4.2-1.7 0-.7 3.6.3 4.2.3zm8.3 2.4c-.8.8-5.8 1.6-5.8 1.6v-1.6c.8 0 6.4-1 5.7 0zm-16 4.3c.7 0 2.8.5 7.2 2.3v1s-7.6-2.2-7.8-2.6c0 0-.3-.6.5-.7zm15 2c-.6.8-4.4 1.6-4.4 1.6v-1c.8 0 4.5-1.4 4.5-.6zm-17 0c1.2-.2 3.8.4 9.5 3v1l-10.3-3.5s0-.6 1-.6zm19.5 4.4c-1 1-6.7 2-7 2 0-.7.2-1 .2-1 1 0 7.7-1.8 6.8-1zM119.3 79v1c-2.7-1.2-10-3.2-7.2-3.4l7.3 2.4zm8.8-1.6c-.4.5-5.4 1.4-5.4 1.4v-1c.5 0 5.5-1 5.5-.4zm-.4 3c0 .4-4.3 1.3-4.7 1.4l-.2-1c.5 0 4.5-.7 4.8-.4zM119 83l.3 1.2-10.4-3.4c-.2-1.5 8.7 1.7 10 2.2zm4 0c.3 0 1.8 0 2 .4 0 .4-1.5.6-2 .6v-1zm4.8 2.5c.5.7-3.3 1.7-5 1.8V86c.7 0 4.8-1 5-.5zm3.3 1c1 0 1 .3.6.8-.5.4-8.4 3-8.4 3v-2c4.6-1.3 6.8-1.7 8-1.8zm-4 5c-.7.8-4 1-4 1v-1c.8 0 4-.7 4 0zm2.6 1.2c0 .7-5.7 2-6.4 2V94c.4 0 6.4-1.7 6.4-1.3zm3.8 1.2s-.4 1-1.7 1.3c-1.6-.2-8.5 2-8.7 2v-1c3-1.7 9.2-3.4 10.4-2.4zm-19 3.6c3 .3 4.2 1.4 4.5 2-.8 1-6.5-2-4.5-2zm17.6.5c-.3.6-2 .4-2 .4.8 0 1.7-1.3 2-.3zm-7 3c.5 0 .8 0 .6.4-.5 1-2.5.5-2.5.5v-.6l2-.4zm-10.2 3c1.3-.2 4 .3 4 .3v1c-.3.2-3.3 0-4-.4-.6 0-2.2-1-2.3-1.4 0-.8 1.7 0 2.3.5zm12 .6c-1 1.5-3.7 1-3.7 1v-1c1.6 0 5-1.5 4 0zm-8 2.7c.2.4.4 1.6 0 1.6-.6.2-3.5-.4-3.7-1.5.8-1 2.7-.6 3.7-.2zm-11.5.8v1.2s-2-.5-2.7-1.7c1 0 2 0 2.7.6zm19.6.3s0 .2-.2.3c-.5.7-3.7 0-3.7 0v-.7c1.4-.6 3.7 0 4 .3z"/></svg>
