<svg xmlns="http://www.w3.org/2000/svg" width="240" height="160" viewBox="0 0 60 40"><path fill="#0067C6" d="M0 0h60v40H0z"/><path fill="#FFF" d="M0 13.3h60v13.3H0z"/><path fill="#6FD8F3" d="M30 15.2l2.1 3.6 2.1 3.6h-8.3l2.1-3.6 2-3.6z"/><path fill="#F00" d="M30 17.7c-.7 0-1.4.3-1.9.7l-1 1.7v.5h.3c0-1.4 1.2-2.6 2.6-2.6 1.4 0 2.6 1.2 2.6 2.6h.4c0-.2 0-.4-.1-.5l-1-1.7c-.5-.4-1.2-.7-1.9-.7z"/><path fill="#F60" d="M30 17.8c-.8 0-1.5.3-2 .8l-.8 1.4c-.1.2-.1.5-.1.7h.3c0-1.4 1.2-2.6 2.6-2.6 1.4 0 2.6 1.2 2.6 2.6h.3c0-.2 0-.5-.1-.7l-.8-1.4c-.5-.5-1.2-.8-2-.8z"/><path fill="#FF0" d="M30 17.8c-.8 0-1.6.4-2.1 1l-.6 1c-.1.3-.1.6-.1.9h.2c0-1.4 1.2-2.6 2.6-2.6 1.4 0 2.6 1.2 2.6 2.6h.2c0-.3 0-.6-.1-.9l-.6-1c-.5-.6-1.3-1-2.1-1z"/><path fill="#0F0" d="M30 17.9c-1 0-1.8.5-2.3 1.2l-.2.3c-.2.4-.3.8-.3 1.2h.2c0-1.4 1.2-2.6 2.6-2.6 1.4 0 2.6 1.2 2.6 2.6h.2c0-.4-.1-.9-.3-1.2l-.2-.3c-.5-.7-1.3-1.2-2.3-1.2z"/><path fill="#0CF" d="M30 17.9c-1.5 0-2.7 1.2-2.7 2.7h.1c0-1.4 1.2-2.6 2.6-2.6 1.4 0 2.6 1.2 2.6 2.6h.1c0-1.4-1.2-2.7-2.7-2.7z"/><path fill="#00F" d="M30 18c-1.5 0-2.7 1.2-2.7 2.7h.1c0-1.5 1.2-2.6 2.6-2.7 1.4.1 2.6 1.3 2.6 2.7h.1c0-1.5-1.2-2.7-2.7-2.7z"/><path fill="purple" d="M30 18c-1.5 0-2.6 1.2-2.6 2.6h.1c-.1-1.3 1.1-2.5 2.5-2.6 1.4.1 2.6 1.2 2.6 2.6h.1c-.1-1.4-1.2-2.6-2.7-2.6z"/><path fill="#04A" d="M25.8 22.4h8.3L33 20.5h-6.1l-1.1 1.9z"/><path fill="#97C924" d="M33.8 21.6h-.5c-.4 0-.8.1-.9.1 0 0-.4-.1-.9-.1-.2 0-.4.1-.7.1-.2 0-.4-.1-.7-.1-.4 0-.8.1-.9.1-.1 0-.5-.1-.8-.1-.3 0-.7.1-.8.1-1 0-.1-.1-1.4 0l.1-.2c.3 0 .7-.3.9-.6.2-.3.4-.6.5-1h.2c.1.3.2.6.4.8.2-.2.3-.5.4-.8.1-.1.2-.1.3 0 .1.3.2.5.4.8.2-.2.3-.5.4-.8h.2c.1.3.2.5.4.8.2-.2.3-.5.4-.8.1-.1.2-.1.2 0 .1.3.2.5.4.8.2-.2.3-.5.4-.8.1-.1.2-.1.2 0 .1.4.3.7.6 1 .2.2.5.4.8.4l.4.3z"/><path fill="#EDE71F" d="M32.1 19.8h-.2c-.1.5-.4 1-.9 1.3l-.1-.1c.1-.1.2-.3.2-.5v-.7h-.2c-.1.3-.2.6-.4.8-.2-.3-.3-.5-.4-.8H30c0 .3.1.7.3 1-.1.2-.2.2-.3.3l-.3-.3c.2-.3.3-.6.3-1h-.1c-.1.3-.2.5-.4.8-.2-.2-.3-.4-.4-.8h-.2v.7c0 .2.1.3.2.5l-.1.1c-.5-.3-.8-.8-.9-1.2H28s-.1.8.1 1.2c.1.2.6.5 1.2.5-.1-.1-.2-.1-.2-.2h.3c.3.2.7.3 1 .3-.1-.1-.2-.1-.2-.2.1 0 .5 0 .7-.1h.6c.2 0 .3 0 .5-.1l.2-.2c-.1-.5-.1-.8-.1-1.3z"/><path fill="#C8A400" d="M30 15c-2.6 4.6-1.7 2.9-4.3 7.5h8.7c-2.7-4.6-1.7-2.9-4.4-7.5zm-4.2 7.4l2.1-3.6 2.1-3.6 2.1 3.6 2.1 3.6h-8.4zM24.5 21.2v.4h.1l-.1-.4zm11 0v.4h-.1l.1-.4zM24.6 20H24c0-2.5 1.6-4.7 3.9-5.6l.2.6c-2 .7-3.5 2.8-3.5 5zm10.6 2.9l-.5-.3c-.9 1.7-2.7 2.8-4.7 2.8s-3.7-1.1-4.7-2.8l-.5.3c1 1.9 3 3.1 5.2 3.1s4.2-1.2 5.2-3.1zm-4.4-8.8c-.5-.1-1.1-.1-1.7 0l.1.6c.5-.1 1-.1 1.5 0l.1-.6zm1 .2l-.2.6c2.2.7 3.7 2.8 3.7 5.1h.7c0-2.6-1.7-4.9-4.2-5.7z"/></svg>
