<svg xmlns="http://www.w3.org/2000/svg" width="160" height="160" viewBox="0 0 80 80"><path fill="#003893" d="M72.5 40.9L7.5 0v80h62.6L31.3 40.9"/><path fill="#DC143C" d="M64.7 38.7L9.8 4.1v73.6h54.9l-38.9-39h38.9z"/><path fill="#FFF" d="M12.6 25.7c3.9 10 18.1 9.9 22 0 0 6.1-4.9 11-11 11s-11-4.9-11-11"/><circle fill="#FFF" cx="23.6" cy="30.8" r="5.1"/><path fill="#FFF" d="M25.5 26.1l-.5-2.2-1.4 1.9M27.2 27.2l.3-2.3-2 1.2M28.3 28.9l1.2-2-2.3.3M28.7 30.8l1.9-1.4-2.2-.6M28.3 32.8l2.2-.6-1.9-1.4"/><path fill="#FFF" d="M27.2 34.4l2.3.3-1.2-2M21.6 26.1l.6-2.2 1.4 1.9"/><path fill="#FFF" d="M20 27.2l-.3-2.3 2 1.2M18.8 28.9l-1.2-2 2.3.3"/><path fill="#FFF" d="M18.5 30.8l-1.9-1.4 2.2-.6"/><path fill="#FFF" d="M18.8 32.8l-2.2-.6 1.9-1.4M20 34.4l-2.3.3 1.2-2"/><circle fill="#FFF" cx="23.6" cy="58.2" r="7.5"/><path fill="#FFF" d="M25.5 65.4L23.6 70l-1.9-4.6M21.6 51l1.9-4.6 1.9 4.6M16.3 60.1l-4.6-1.9 4.6-1.9M30.8 56.3l4.6 1.9-4.6 1.9M21.6 65.4l-4 3 .6-4.9M25.5 51l4-3-.6 4.9M16.3 56.3l-3-4 4.9.6M30.8 60.1l3 4-4.9-.6"/><path fill="#FFF" d="M18.3 63.5l-4.9.6 3-4M28.9 52.9l4.9-.6-3 4M18.3 52.9l-.6-4.9 4 3M28.9 63.5l.6 4.9-4-3"/></svg>
