<svg xmlns="http://www.w3.org/2000/svg" width="240" height="160" viewBox="0 0 240 160"><path fill="#FCD116" d="M0 0h240v160H0V0z"/><path fill="#00008B" d="M0 0h120v80H0V0z"/><path fill="#FFF" d="M70 24.4V0H50v24.4L13.4 0H0v8.9l26.6 17.7H0v26.7h26.6L0 71.1V80h13.4L50 55.6V80h20V55.6L106.6 80H120v-8.9L93.4 53.3H120V26.7H93.4L120 8.9V0h-13.4L70 24.4z"/><path fill="#F00" d="M54 0h12v32h54v16H66v32H54V48H0V32h54V0zM0 0l40 26.7h-8.9L0 6V0zm120 0h-8.9l-40 26.7H80L120 0zm0 80L80 53.3h8.9L120 74v6zM0 80h8.9l40-26.7H40L0 80z"/><circle fill="#00008B" cx="60" cy="40" r="13.8"/><path fill="#FCD116" d="M60 26.2l8.1 24.9-21.2-15.4h26.2L51.9 51.1M24.8 32.7l4.8 14.6-12.4-9h15.4l-12.4 9m75-14.6l4.8 14.6-12.4-9H103l-12.4 9M60 59.6l4.8 14.6-12.4-9h15.4l-12.4 9M60 5.7l4.8 14.6-12.4-9h15.4l-12.4 9"/></svg>
