<svg xmlns="http://www.w3.org/2000/svg" width="240" height="160" viewBox="0 0 240 160"><path fill="#00008B" d="M0 0h240v160H0V0z"/><path fill="#FFF" d="M70 24.4V0H50v24.4L13.4 0H0v8.9l26.6 17.7H0v26.7h26.6L0 71.1V80h13.4L50 55.6V80h20V55.6L106.6 80H120v-8.9L93.4 53.3H120V26.7H93.4L120 8.9V0h-13.4L70 24.4zm102.5 11.8h7.9l2.4-7.5 2.4 7.5h7.9l-6.4 4.6 2.4 7.5-6.4-4.6-6.4 4.6 2.4-7.5-6.2-4.6zm43.1 34.7l-5.7-4.1-5.7 4.1 2.2-6.7-5.7-4.1h7l2.2-6.7 2.2 6.7h7l-5.7 4.1 2.2 6.7zm-54-2.9l-6.4 4.6 2.4 7.5-6.4-4.6-6.4 4.6 2.4-7.5-6.4-4.6h7.9l2.4-7.5 2.4 7.5h8.1zm32.7 49.9l-7.1 5.2 2.7 8.3-7.1-5.2-7.1 5.2 2.7-8.3-7.1-5.2h8.8l2.7-8.3 2.7 8.3h8.8z"/><path fill="#F00" d="M176 37.3h5.2l1.6-5 1.6 5h5.2l-4.2 3.1 1.6 5-4.2-3.1-4.2 3.1 1.6-5-4.2-3.1zm36.1 26.5l3.5-2.6h-4.4l-1.3-4.1-1.3 4.1h-4.4l3.5 2.6-1.3 4.1 3.5-2.6 3.5 2.6-1.3-4.1zm-59.3 5.3l-1.6-5-1.6 5h-5.2l4.2 3.1-1.6 5 4.2-3.1 4.2 3.1-1.6-5 4.2-3.1h-5.2zm31.9 49.9l-1.9-5.8-1.9 5.8h-6.1l4.9 3.6-1.9 5.8 4.9-3.6 4.9 3.6-1.9-5.8 4.9-3.6h-5.9zM54 32H0v16h54v32h12V48h54V32H66V0H54v32zM0 6l31.1 20.7H40L0 0v6zm80 20.7h-8.9l40-26.7h8.9L80 26.7zM120 74L88.9 53.3H80L120 80v-6zM40 53.3h8.9L8.9 80H0l40-26.7z"/></svg>
