<svg xmlns="http://www.w3.org/2000/svg" width="240" height="160" viewBox="0 0 240 160"><path fill="#FFF" d="M0 0h240v160H0z"/><path fill="none" stroke="#000" stroke-width=".7" stroke-linecap="round" d="M107 79.3l3.4 4.6m-3.4 0l3.7-4.5M109 79l-.1 2.8m3.6-2.5l3.4 4.6m-3.4 0l3.7-4.5m-1.7-.4l-.1 2.8m3.7-2.5l3.4 4.6m-3.4 0l3.7-4.5M120 79l-.1 2.8m3.9-2.5l3.4 4.6m-3.4 0l3.7-4.5m-1.7-.4l-.1 2.8m3.7-2.5l3.4 4.6m-3.4 0l3.7-4.5m-1.7-.4l-.1 2.8"/><path fill="#EF7D08" d="M86.2 86.5l12.3.1v-7.7l-14.1-.7 1.8 8.3zm-.6-10.6l13.1 1.3-.1-5.5-12.8-5.1-.2 9.3zM88.3 65l10.1 4.9 1.4-1.5s-.9-.6-.9-1.2.9-.7.9-1.3c0-.6-1-.7-1-1.3-.1-.6.8-1.3.8-1.3l-9.1-7.9-2.2 9.6zm66 21.6h-13l-.1-7.5 14.3-1.1-1.2 8.6zm-12.9-9.2l15.4-1.9-3.3-8.9-12.2 5.2.1 5.6zm11.2-13.2L141.5 70c-.2-.6-.3-1.2-1.1-1.8 0 0 .7-.4.7-1.1 0-.7-.9-.8-.9-1.2 0-.4.8-.7.9-1.6-.1-.6-.9-1.5-.7-1.6l8.6-6.6 3.6 8.1zm-24.1 13l5.6-.2.1-2.2-5.7 2.4zm-17-.2l-5.9-.2v-2.3l5.9 2.5zm0-.6l-5.8-3v-3.9s-.7.1-.6-.7c0-1.6 4.3 3 6.5 4.5l-.1 3.1zm17-.4v-2.5s5.3-4.8 6.4-5.6c0 1-.6 1.7-.6 1.7v3.7l-5.8 2.7zM94.3 54.6c.1.1 5.9 6.6 5.9 6.6.2-.6 1.5-.7 2.9-.6 1.4.1 2.5-.1 2.5.9s-.7.8-.7 1.5 1 .6 1 1.5-.8.7-.8 1.4c0 .6.8.6.8.6l5.5 5.4v-5.7L100 48.3l-5.7 6.3zm9.2-6.8c.1.3 7.7 15.8 7.7 15.8s.1-14.6 1.4-15.4l-2.2-4-6.9 3.6zm33.6.6l-8.6 15.4v-6.5s.7-1.1-.4-1c-1.1.1-2.5-.1-2.5-.1l3.5-12.2 8 4.4zM146 55c-.1.2-5.8 6-5.8 6-.3-.7-2-.4-3.6-.4-1.7 0-1.9.5-1.8 1 .2 1.1.7.3.7 1.3s-.8.7-.9 1.4c.1.9 1.3.7.6 1.3l-6.6 6.4v-6l12.3-19.2L146 55z"/><path fill="#F00" stroke="#000" stroke-width=".8" stroke-linejoin="round" d="M113.8 73l12.8 3.4V58.1c-5.9.3-10.7-11.1-.4-11.9-10.2-1.5-11.3 1.2-12.5 4l.1 22.8zm2.8 16.5c-2.8 4.6-10.2 3.2-12 0-.5-.1-.2-19.9-.2-19.9s-.8-.4-.9-1c0-.6 1.1-.7 1.1-1.5s-1.2-.5-1.2-1.3 1.3-.6 1.2-1.3c-.1-.8-1.4-.7-1.5-1.4 0-.6 1-1.1 1.2-1.3h-3c-1.5 0 0 .3 0 1.2 0 .6-.8 1-.8 1.4 0 .5 1.1.9 1.1 1.5 0 .5-1.1.6-1 1.1.1.9 1 1 1 1.6 0 .5-1.2.7-1.2 1.1 0 .8.2 20.3.2 20.3 1.8 10 12.9 12.5 16-.5zm7.3 0c2.8 4.6 10.2 3.2 12 0 .5-.1.2-19.9.2-19.9s.8-.4.9-1c0-.6-1.1-.7-1.1-1.5s1.1-.5 1.1-1.3-1.2-.7-1.1-1.4c.1-.8 1-.7 1-1.4 0-.6-.6-1-.9-1.3h3c1.5 0 0 .3 0 1.2 0 .6.8 1 .8 1.4 0 .5-1.1.9-1.1 1.5 0 .5 1.1.6 1 1.1-.1.9-1 1-1 1.6 0 .5 1.2.7 1.2 1.1 0 .8-.2 20.3-.2 20.3-1.6 10.1-12.7 12.6-15.8-.4z"/><path fill="#083D9C" stroke="#083D9C" stroke-width=".7" stroke-linecap="round" stroke-linejoin="round" d="M105.8 113.6s3.6-2.9 7.1-2.9c3.5 0 4.5 2.4 6.9 2.6 2.4.2 4.5-2.4 7.5-2.5 3-.1 6.8 2.1 6.8 2.1l-13.3 4-15-3.3zm-7.7-4.3l45.1.2s-3.9-4.2-8.5-4.3c-4.6-.1-3.3 2-6.8 2.2-3.5.3-4.4-2.1-7.6-2.1-3.2.1-5.1 2.1-7.5 2.1-2.4.1-5.6-2.4-7.4-2.3-1.9.1-8.5 2.9-8.5 2.9l1.2 1.3zm-5.7-5.4l55.7.2c.9-1.3-2.7-4.3-6.1-4.6-2.7.1-4.7 2.8-6.9 2.9-2.2.1-4.8-2.8-7.3-2.7-2.5.1-5.2 2.7-7.7 2.7s-4.4-2.8-7.6-2.8c-3.2 0-4.7 3.1-7.1 2.9-2.4-.2-4.6-3.1-6.9-3.1-2.3 0-6.3 3.5-7 3.3-1-.2.8 1.5.9 1.2zm13.3-17.7l28.9.1m-20.7 12.2h12.4c.1-.1-2.8-4.3-6.2-4-3.8.1-6.4 4-6.2 4zm39.6-.3h-17s2.2-1.3 2.8-2.5c1.1.6.8 1.2 3 1.3 2.2.1 4.3-2.5 6.4-2.4 2.1.1 4.8 3.7 4.8 3.6zm-67 0h17s-2.2-1.3-2.8-2.5c-1.1.6-.8 1.2-3 1.3-2.2.1-4.3-2.5-6.4-2.4-2.1.1-4.8 3.7-4.8 3.6zm1.3-5.3l12.1.1s-.8-1.7-.9-3.7c-3.1-1.1-5.7 2.3-7.9 2.4-2.2.1-4.6-2.4-4.6-2.4l1.3 3.6zm64.6 0l-12.1.1s.8-1.7.9-3.7c3.1-1.1 5.7 2.3 7.9 2.4 2.2.1 4.6-2.4 4.6-2.4l-1.3 3.6zM117 93l6.2-.2s.1-1.9-3.1-1.9c-3.3 0-3 2.2-3.1 2.1zm-3.7-2.7c1.1-.6 2.1-1.2 2.7-2.5l-4.2.1s-2 1.2-2.9 2.4h4.4zm13.6 0c-1.1-.6-2.1-1.2-2.7-2.5l4.2.1s2 1.2 2.9 2.4h-4.4z"/><path fill="#DE2010" d="M0 120h240v40H0v-40zM0 0h240v40H0V0z"/></svg>
