<svg xmlns="http://www.w3.org/2000/svg" width="240" height="160" viewBox="0 0 120 80"><path d="M0 0h120v80H0z"/><path fill="#CE1126" d="M0 0h120v80L0 0z"/><path fill="#FCD116" d="M79.4 23.2c-.8 1-2.7-1-4.9-1.1-2.2 0-3.8 2.1-4.5 2.9-.7.7-2.7 4.7-2.7 5.1 0 .4 1.3-1.2 1.8-1.4 0 .6-.5 1.2-.4 1.4.1.2 1.6-1.1 2.1-1.2.1.4-.3.7-.1 1.3.2.2 1-.9 1.6-1.2.1.4-.5 1.2-.2 1.7.2 0 1.6-1.6 2.1-1.8s-.2 1.5 0 1.7c.4-.3 1.7-1.8 2.1-2 .4-.2 0 1.9.1 1.9.5-.4 1.8-2.1 2-2.4.1-.3-.1 2.7 1.3 4.3 1.4 1.6 3.6 3.4 3.9 3.4.3-.5-.1-1.6.1-1.5.7.7 1.9 1.7 2.1 1.7.3 0-.2-1.1.2-1.1.7.7 2.9 3.4 7.1 4.7-.3-.8-.9-1.5-.9-1.9.3 0 1.3.5 1.4.5.2 0-2-2.8-1.9-3.2.5 0 .7.3.9 0-.2-.4-2.2-2.6-2.2-3.1s.6.1.8 0c.2-.1-.7-2-.6-2.3.2-.2 2.2 1.3 2.7 1.3s.1-1.8.4-1.9c.2-.1 2 1 2.3 1 .4 0 .3-.8.5-.7.1.1 4.2 4.1 2.8 8.9-1.4 3.4-4.2 5.2-8.3 3.7.2.4 2.4 2.2 4.8 1.5s5.3-2.5 4.9-7.2c-.3-4.7-1.9-5.3-2.1-6-.2-.7.4.2.9.4s-.1-1-.2-1.5 1.5 1.1 2 1.2c.4.1-1-3.8-1.4-4.1-.4-.3.4.1.7.2.3.1-2.6-4.3-3.2-4.3-.6 0 .5-.2.8-.2S94.9 19 94.3 19s1.3-.7 1.5-.8c.3 0-4.1-2.4-8.1 0-.2-.2 1.9-1.7 2-2.3 0-.2-.7-.5-.7-.7 0-.2 1.1-.7 1.2-1.2-.3-.4-.8-.2-1.1-.3-.1-.3 1-1.2.9-1.6-.1-.2-.8-.3-1-.1-.2.1.5-1 .4-1.3-.1-.1-.5 0-.8 0-.2 0 1.2-2 .9-2.3-.3-.3-4.2 2-5.6 4.7-1.4 2.6-.3 4.7-.5 5.6-.2.9-.4 1.8-1 1.8s-2-.9-2.5-1.4-.6-.8-1.2-1-2.1.4-2.7.4-2.7-.4-2.9-.3c-.1.1 2.1 1 2.7 1.3.5.3.6.7.9.9.3.4 3.8 1.4 2.7 2.8zM93 29.8c1.1 1.1 8.7 6.1 8.7 12.3s-5.5 6-7.1 5.8c1.8 1.5 8.5 1.2 8.5-5.8 0-6.1-8.7-12.3-9.8-12.8-1.1-.6-1.4-.6-.3.5z"/><path fill="#FFF" d="M29.6 55h5.2l-4.2 3.1 1.6-5.1 1.6 5.2m-3.9-23.1l-3.2-10.3L23.5 35l8.4-6.2H21.5m-3.8 22l-3.2-10.3-3.2 10.2 8.4-6.2H9.3m32.8 5.2l-3.2-10.3-3.2 10.2 8.4-6.2H33.7m-3.8 28.5l-3.2-10.3-3.2 10.2 8.4-6.2H21.5"/></svg>
