<svg xmlns="http://www.w3.org/2000/svg" width="240" height="160" viewBox="0 0 120 80"><path fill="#0038A8" d="M0 0h120v80H0z"/><path fill="#CE1126" d="M0 40h120v40H0z"/><path fill="#FFF" d="M69.3 40L0 80V0"/><path fill="#FCD116" d="M32.9 40.5v.5l7.1 1-.8.8-6.4-1.3c-.2 1-.6 2-1.2 2.9L37 48v1.2l-5.8-4.4c-.1.1-.2.3-.3.4l5.9 5.2v1.5h-1.5L30.2 46c-.1.1-.3.2-.4.3l4.4 5.8H33l-3.6-5.4c-.9.6-1.8 1-2.9 1.2l1.3 6.4-.8.8-.9-7.2h-.5l.5 7.9-1 1-1-1 .5-7.9h-.5l-.9 7.2-.8-.8 1.3-6.4c-1-.2-2-.6-2.9-1.2l-3.6 5.4H16l4.4-5.8c-.1-.1-.3-.2-.4-.3l-5.2 5.9h-1.5v-1.5l5.9-5.2c-.1-.1-.2-.3-.3-.4l-5.8 4.4V48l5.4-3.6c-.6-.9-1-1.8-1.2-2.9l-6.4 1.3-1.1-.8 7.2-1v-.5L9 41l-1-1 1-1 7.9.5V39l-7.1-1 .8-.8 6.4 1.3c.2-1 .6-2 1.2-2.9L12.8 32v-1.2l5.8 4.4c.1-.1.2-.3.3-.4L13 29.6v-1.5h1.5l5.2 5.9c.1-.1.3-.2.4-.3l-4.4-5.8h1.2l3.6 5.4c.9-.6 1.8-1 2.9-1.2l-1.3-6.4.8-.8.9 7.2h.5l-.5-7.9 1-1 1 1-.4 7.8h.5l.9-7.2.8.8-1.3 6.4c1 .2 2 .6 2.9 1.2l3.6-5.4H34l-4.4 5.8c.1.1.3.2.4.3l5.2-5.9h1.5v1.5l-5.9 5.2c.1.1.2.3.3.4l5.8-4.4v1.2l-5.4 3.6c.6.9 1 1.8 1.2 2.9l6.4-1.3.9.9-7.2 1v.5l7.9-.5 1 1-1 1-7.8-.5zM10.3 12.6L4 6.9l1.8 8.3 3.4-7.7-7.3 4.2m51.3 25.7l8 2.6-8 2.6 5-6.8v8.5m-56.3 24l8.4-.9L4 73.1l1.8-8.3 3.4 7.7"/></svg>
