<svg xmlns="http://www.w3.org/2000/svg" width="240" height="160" viewBox="0 0 240 160"><path fill="#00008B" d="M0 0h240v160H0V0z"/><path fill="#F7E017" stroke="#000" stroke-width=".2" d="M160.3 83.6c-2.5 2.2-5 5.3-5.6 8.1-1.7 8-3.9 9.8-7.3 8.1 0 4.3 3.8 4.6 5.4 2.1 0 4 1.5 7.5 4.8 10.5 1.4 1.3 1.7.4 1-1s-.7-5.9-2-8.4c2.1 1.5 5.2.7 4.9-3.5-2.7 1.6-5.4 1.5-5.7-2.2-.3-4.5 1.5-10.9 4.5-13.7zM157.1 51.8c.2-1.6-.2-3.2-1.3-4.2-2.2-2-4.4-1.3-6.1.3-2.4-1.3-3.7 3.4-6.5 2.6.5 1.5 1.2 2.2 2.6 1.6-1.5 1.3 0 2.9-1.7 4.5 3.1 1 4.8-.7 4.6-3.7 1.2 1.1 3 1 4-.2-1.7-.5-1.7-2-1-3.3 1-2 5.6-1.9 5.4 2.4z"/><path fill="#337321" stroke="#000" stroke-width=".2" d="M164.2 74.8c-3.5 1.8-9.9 1.1-10.5-3.5-.6-4.6 3.8-6.6 5-7.2 1.9-.9 3.3.7 2.7 2.6 2-.7 2.5-3.1 1.5-4.5 2.7.2 5.2-1.8 6.3-4.8-.9.9-3.5.3-5.7.2.7-.7.7-2.1.5-2.9-2.2 2.3-5.5 1.3-9.8 7.9.7-2.3 1.9-6.9 2.6-10 .1-.3.1-.6.2-.9.3-4.4-4.4-4.4-5.4-2.5 1.1 1.2.5 2.7.1 4.8-.5 2.6-1.5 8.5-2.3 10.5-.3-3.1-2.3-3.3-2.7-4.8-.6.4-.9 1.5-.8 2.2-.7-.8-3.2.2-4.2-1-1 2 .6 4 2.2 4.8-1 .1-1.2 1.2-2.2 1.2 1.4 1.6 2.9 2.3 4.6 2.4 1.7.1 2.9.8 4 2.8 1.7 3.5 8 5.7 13.9 2.7z"/><path fill="#F7E017" stroke="#000" stroke-width=".2" d="M173 70.7c-2 5.5-7.4 9.4-9.8 10-4.2 1-12.6 5.1-14.9 7.2-.4-.1-.7-.2-.9-.4-1.1-.8-2-3.4-.1-5.5 6.2-5.8 12.9-3.3 17-7.3-3.5 1.8-9.9 1.1-10.5-3.5 3.8 1 10.6 1.1 16-4.8.7.9 2.8 3.4 3.2 4.3z"/><path fill="#337321" stroke="#000" stroke-width=".2" d="M160.3 83.6c-3.1 2.7-4.8 9.2-4.4 13.6.1 1.2.4 2.1 1 2.6.2-2.5 2-9 6.4-11.9 3.8-2.4 9.6-7.9 11.8-14.2-.4-1.1-1.1-1.9-2.3-2.7-2.2 5.9-8 8.8-12.5 12.6z"/><path fill="#316D3A" stroke="#000" stroke-width=".2" d="M170.9 68.2c-1.1 1.7-3.7 4-6.1 4.9.5-.6.7-1.4.7-2-3.1 1.2-9.3 1.1-11.8.1 3.8 1 10.6 1.1 16-4.8.6.7 1 1.2 1.2 1.8z"/><path fill="#337321" stroke="#000" stroke-width=".2" d="M147.2 82c-5 4.7-1.7 8.8.3 9.8-.5 3.3 2.6 2.9 2.5 5.7 1.3-.7 1.6-2.6 1.4-4.2 1.6 1.7 5.6-.2 6.5 3 .5-3.5-2.2-7-5.5-6.7 1.4-1.3.6-3.3-.7-3.8-.3 2.6-3.2 2.6-4.3 1.8-1.2-.8-2.2-3.4-.2-5.6z"/><path fill="#F7E017" stroke="#000" stroke-width=".2" d="M158.1 112.1c-.6.3-.5 1-.2 1.5.7.9-.5 3 1.7 3.5.7.1 1.2-.3 1.4-1 .7-2.1-1.5-2.3-1.7-3.3-.1-1.1-.7-1-1.2-.7z"/><path fill="#F7E017" stroke="#000" stroke-width=".2" d="M160 116c-.7.3-1.4.8-1.1 3.2.1 1 .1 3.4-.8 3.4.5.3 1.7.5 2.1-.1.4.7 1.5.5 1.8-.4.5.4 1.3-.3 1.3-.9.5.3 1.4-.1 1.2-1.6.6.2 1.3-.2 1.6-.6-.8-.2-2.9-1.3-3.4-2.2-.5-.8-1.8-1.2-2.7-.8z"/><path fill="none" stroke="#000" stroke-width=".2" d="M148.6 49.2c.3-.5.7-1 1.1-1.4M161.1 57.9c.6-.3 1.5-.4 2.5-.3M160.3 122.5c-.2-.3-.3-1.7-.1-2.6M162.1 122.1c-.4-.3-1.1-1.2-1.2-2.1M163.4 121.2c-.5-.2-1.6-1.7-1.8-2.6M164.5 119.6c-.5-.1-2.2-1.2-2.9-2.4"/><path fill="#F7E017" stroke="#000" stroke-width=".2" d="M194.9 82.1c8.1 6.8 8.6 12.2 7.4 15.4-.7-3-4-7.6-7.5-8.8l.1-6.6z"/><path fill="#337321" stroke="#000" stroke-width=".2" d="M180.4 78.3h15v17.8c0 15.2-8.4 24.2-17 28.9-8.6-4.8-17-13.7-17-28.9V78.3H172c0 .9.1 2.3 1.2 3.7 2.4-.3 5.3-2.1 7.2-3.7z"/><path fill="#006EC7" stroke="#000" stroke-width=".2" d="M195.5 78.3v17.8c0 4.6-.8 8.6-2.1 12.1l-14.9-27.4-14.9 27.4c-1.3-3.5-2.1-7.5-2.1-12.1V78.3h34z"/><path fill="#F7E017" d="M193.8 106.9c-.3.8-.7 2.1-1.1 2.9l-14.3-26.6-14.3 26.6c-.4-.8-.8-2.1-1.1-2.9l15.4-28.6 15.4 28.6z"/><path fill="#F7E017" stroke="#000" stroke-width=".2" d="M185.2 116.6c.4.2 1.1.6 1.5.7.8-1.6.9-3.8.7-5.8-.9 2.2-3.8 2.1-4.6 3.4.5.2.9.6 1.3.8-1 1-3.3 2.7-4.6 3v-14.2c0-1-.3-1.8-.3-2.6V99c0-.7-.1-1.6-.7-1.6s-.7 1-.7 1.6v2.9c0 .8-.3 1.8-.3 2.6v14.2c-.7-2.1-3.6-1.4-4.9-3.5.5-.1 1.1-.2 1.6-.1-1-3.4-3.7-3.6-4.2-4.6 0 1.4-.6 4.6.3 6 .2-.2.5-.5.9-.7 1.1 2.4 6.2 2.4 7.4 6.5.8-1.4 4.2-3.1 6.6-5.7z"/><path fill="#F7E017" stroke="#000" stroke-width=".2" d="M178.4 104.9c1.1 0 4.7-.4 6-.4.3 0 .6-.5.6-1.1s-.3-1.1-.6-1.1c-1.3 0-4.9-.4-6-.4-1.1 0-4.7.4-6 .4-.3 0-.6.5-.6 1.1s.3 1.1.6 1.1c1.4 0 4.9.4 6 .4zM177.7 99.1c-.2-.2-.6-.3-.9-.3-.7 0-1.4.6-1.4 1.2 0 .7.6 1.2 1.4 1.2.7 0 1.4-.6 1.4-1.2 0-.5.8-.5.8 0 0 1.1-.9 1.9-2.1 1.9s-2.1-.9-2.1-1.9c0-1.1.9-1.9 2.1-1.9.4 0 .7.1 1 .2-.1.2-.2.5-.2.8z"/><path fill="none" stroke="#000" stroke-width=".2" d="M172.5 104.5c.3 0 .6-.5.6-1.1s-.3-1.1-.6-1.1"/><path fill="none" stroke="#000" stroke-width=".2" d="M173 104.5c.3 0 .6-.5.6-1.1s-.3-1.1-.6-1.1M176.2 104.7c.4 0 .7-.6.7-1.4 0-.7-.3-1.4-.7-1.4M177 104.8c.4 0 .8-.6.8-1.4 0-.8-.3-1.4-.8-1.4M179.5 104.8c.4 0 .8-.6.8-1.4 0-.8-.3-1.4-.8-1.4M180.3 104.8c.4 0 .8-.6.8-1.4 0-.8-.3-1.4-.8-1.4M183.9 104.5c.3 0 .6-.5.6-1.1 0-.6-.3-1.1-.6-1.1"/><path fill="#F7E017" stroke="#000" stroke-width=".2" d="M171.1 116c.4-.2.9-.5 1.4-.6M184.5 116.1c-.1-.1-.3-.2-.4-.3M185.2 116.6c.9-1 1.7-2.1 2.1-3.4"/><path fill="#FFF" stroke="#000" stroke-width=".2" d="M175.4 90.9c0-.3.3-.5.6-.7.4-.3.5-.4.9-.4h4.3c.3 0 .4.1.4.4V96c0 .3-.1.4-.4.4h-5.8v-5.5"/><path fill="#E5E5E5" stroke="#000" stroke-width=".1" d="M180.1 96.9c.6 0 .5 0 .9-.4s.4-.4.4-.8v-5.4c0-.3-.1-.4-.4-.4h-4c-.3 0-.5.1-.8.4-.3.2-.5.3-.5.6v5.9h4.4z"/><path fill="#FFF" stroke="#000" stroke-width=".2" d="M180.5 96.8c0 .3-.1.4-.4.4h-4.3c-.3 0-.4-.1-.4-.4v-5.9c0-.3.1-.4.4-.4h4.3c.3 0 .4.1.4.4v5.9z"/><path fill="#96877D" stroke="#000" stroke-width=".2" d="M188.9 74.8c.8.9 1.1 2.2.7 3.4h-1.3c.5-1.6.2-3.1-2-3.3-3.4-.3-7.3 6.2-13.1 7-1.7-2-1.6-5.9.6-7.8-1.1-3.2-3.5-6.8-5.1-8.4-1.1-.2-2.3-.3-3.1-.2.9-1.8 3.3-3.8 5.3-4.6.3-.5.7-.9 1-1.3.2-2.5 12.3-1.4 14.8.2-.1 3 1 12.4 2.2 15z"/><path d="M174.3 76.6c-.3-4.4-2.1-8-4.6-10.5 1.2.3 3.6.3 5.3-.9 2.2-1.5 7.9-4 9.9-2.9.2.4.3 1.2.1 1.7-.5-1.3-6 .7-7.5 1.4s-2.1 1.6-1.6 3.7c-.9-.7-.6-1.4-1.5-1.9.4.9.7 2.4.8 3.7-.3-.9-.9-2.8-2.2-3.9 1.1 2.2 2.1 7.4 1.6 10.2.9 0 2.9-.9 3.6-1.5-.7 1-2.7 1.7-4 1.9-.6.7-1 2.5-.9 3.5 0-1.4.4-4.4 1-4.5zM188.9 74.8c-1.1-1.2-3.1-1.9-5.7-1.2.4-.2 1.3-.5 2-.7-.1-.7-.7-3.7-.8-4.4l.7-.3c.4 1.8.8 3.8 1.1 4.7.2.1.8.2 1.2.4-.2-.7-1.3-5.7-1.3-6.2l1-.5c.4 2.7 1.1 6.7 1.8 8.2z"/><path fill="#96877D" stroke="#000" stroke-width=".2" d="M188.3 78.3c.5-1.6.2-3.1-2-3.3-1.7-.2-3.6 1.5-5.9 3.3h7.9zM173.8 64c-1 .1-3.2-.1-4.3-.4l.3-.9c-.7.5-2 1.4-2.5 2 1.5.3 4.8.5 6.5-.7z"/><path fill="none" stroke="#000" stroke-width=".2" d="M173.7 74.2c.4 1.1.6 2.1.6 3M170.7 61c-.6.9-1.1 1.8-1.3 2.6 1.1.4 3.3.6 4.3.4"/><path fill="none" stroke="#000" stroke-width=".2" d="M168.6 65.8c.4.1.8.2 1.2.2 1.2.3 3.6.3 5.3-.9 1.7-1.2 6.1-4.9 11.2-5.3"/><path fill="none" stroke="#000" stroke-width=".2" d="M167.3 64.7c1.6.3 4.9.5 6.5-.6 3.8-2.6 7.5-4.1 11.2-4.3"/><path fill="#337321" stroke="#000" stroke-width=".2" d="M194.9 82.1c5.5 3.8 9.6 7.5 10.8 13.5 1.2 5.9 3.4 7.5 6.2 5.9-.7 3.4-4.1 3.8-7 1.2.3 4-1.3 8.7-5.4 10.4-.3-2.4 1.3-4.3.9-6.2-.2-.9-.3-2.8.9-3.8-2.2.7-5.6-.7-5.9-3.9 2.5 1.2 5.7 1.4 7-1.8 1.2-3.1.7-8.5-7.5-15.3zM201.9 51.2c1.7-4.5 6.2-4 7.7-2.1 4.4-2.5 5 3.2 8.8 2-.1 1.1-1.3 2-2.7 2 1.5 1.3-.6 3.3 2.5 4.5-2.6 1.3-6.3-.1-7.3-3.7-.9 1.7-4 1.7-5.2.3 2.7-.7 2.5-3.2 1-4.2s-4.2-.6-4.8 1.2zM188.5 61.1c1.2 4 3.8 7.7 6.5 10.2 3.2 2.9 8 2.2 10.6-.6.1 5.5-5.7 6-8.8 4.2-1.4-.8-2.5-.4-1.2.9 2 1.8 6.5 3.2 11.8 4.4 9.2 2 5.9 9.3 3.2 9.2.8 0 1.4-.8.3-1.8-8-7.2-24.3-4.4-24.1-20.5-1.7 4.2-8.8 2.6-5.5-2.4 1.1.9 2.9.9 3.4-.4.4-1 .1-2.8-1.7-4.3.3 0 1 0 .9-.8.1.4.5 1.1 1.5.9.3.5.6.8 1 .6.1 0 .3-.2.2-.6.4.7 1.4 1.1 1.9 1z"/><path fill="#F7E017" stroke="#000" stroke-width=".2" d="M196.9 74.9c3.8 2.5 8.2 2.5 12.1-2.1 1.3-1.5 3.2-2.7 4.6-2.8 1.4-.1 1.3-1.5 2.4-1.7-.7-.2-.9-1-1.9-.9 2.5-.9 1.7-2.8 3-3.8-1 .4-2.5-1.1-4 .8.4-.9-.1-1.9-.5-2.3.1 1-1.9 1.2-2.3 3.7-.2 1.4-1 1.3-1.1-.9-.1-1.6-.9-6-1.8-8.2-.9-2.2-1.1-5.3.1-5.8-.2-.3-.5-.6-.8-.8-1.5-1-4.2-.6-4.8 1.2-1.7 4.5 3.1 7.1 2.7 11.9-.7-3.6-6.6-4.6-6.5-8.1-1.9.9-1.7 2.4-.9 3.7-1.2-1.8-3.9 1.2-6.2-1.3-.3 3.3 2.6 4.6 5 4.7-1.2 2.1.4 3.9 2 4.5.1-3.7 7.6-2.2 7.7 4.2.1 5.3-5.7 5.7-8.8 4zM207.5 80.1c9.2 2 5.9 9.3 3.2 9.2-1.7 0-3.4-1.5-3.5-2.7-2 1.1-1.5 3.1.1 4-4.2-.5-5.9 2.2-6 5.2.8-1.4 3.1-1.5 3.9-1.2.9.3 3.1.5 4-.5-.7.6.5 2.1-.6 3.2 3.5-.1 5-3.4 4.4-4.8 4.5-4.1 3.7-10.7-5.5-12.4zM200.4 111.5c.6.4.5 1.2.1 1.7-.8 1 .4 3.4-2.1 3.8-.7.1-1.3-.4-1.5-1.2-.7-2.4 1.8-2.5 2.1-3.6.2-1.2.9-1 1.4-.7z"/><path fill="#F7E017" stroke="#000" stroke-width=".2" d="M198.2 115.7c.8.4 1.5 1 1.1 3.6-.2 1.1-.2 3.8.7 3.8-.6.3-1.9.5-2.4-.2-.5.8-1.6.5-2-.5-.6.5-1.4-.4-1.4-1.1-.5.3-1.5-.2-1.2-1.8-.6.2-1.4-.3-1.7-.7.9-.1 3.3-1.3 3.9-2.3.6-.8 2-1.2 3-.8z"/><path fill="none" stroke="#000" stroke-width=".2" d="M197.6 123c.3-.4.4-1.9.3-2.8M195.6 122.5c.4-.3 1.2-1.3 1.4-2.3M194.2 121.4c.5-.2 1.8-1.8 2.2-2.8M193 119.6c.6-.1 2.5-1.2 3.3-2.5"/><path fill="#F7E017" stroke="#000" stroke-width=".2" d="M187 67.1c-.1 6.8 2.7 10.2 6.6 12.4-1.4-.9-.8-3.8-2.8-4.8.5 0 1.2.6 2.3.4-.6-1.3-1.5-3.2-3.6-3.4.6-.1 1.8.1 2.6-.2-1.2-1.8-4.1-.9-5.1-4.4zM186.3 60.6c-.2-.1-.4-.3-.6-.6-1 .2-1.4-.4-1.5-.9.1.8-.6.7-.9.8 1.9 1.5 2.1 3.3 1.7 4.4-.5 1.3-2.4 1.3-3.4.4-.1 2.8 3.5 3.7 4.8.2 0 .6.8.5 1 1.3.8-1.6.1-3.8-1.1-5.6z"/><path fill="#337321" stroke="#000" stroke-width=".2" d="M180.5 47.2c-1.7-1.5-2.4-4.1-2.3-5.5.1-1.5.7-3 2.8-2.4-.7 0-.2 1.3-.9 1.5.6.2 1.3-.3 1.4-.6.1.5 1 .3 1.1.9.3-.3 0-1.6-.5-1.8.4-.2.6-1.2.4-1.7-.3.1-.8.5-.9 1.2.2-.5 0-1.8-1-2-.3.4-.3 1.3 0 1.7-.9-.2-2.1.4-2.4 1.1.1-.9.2-2.1.7-2.9.2-.3-.3-.7-.6-.1-.6-1.3-2.4-1.9-3.1-1.3s-1.8-.3-2.4.7c-.6 1-2.8 1.1-2.6 2.1.1.6-.1 1.6-.4 1.9-.8.9.4 1.5.6 2.2-.1-2.5 3.9-7.4 7.9-5.5-.4.6-.7 1.9-.8 3.4-.2 2.2.2 5.4 2.3 7.3l.7-.2z"/><path fill="#CF142B" stroke="#000" stroke-width=".2" d="M181.6 39.4c0-.6 1-1.4 2.4-1.4 1.7 0 3 1.5 4.3 1.4 1.3-.1.7.6.4.8-.3.2-.4.5-.3.9.1.4-.1.6-.6.3-1.2-.7-2.4.3-3.9-.3-1.4-.6-2.2-.8-2.3-1.7z"/><path fill="#96877D" stroke="#000" stroke-width=".2" d="M174.8 54.9c-.7-2.1-3.2-4.4-4.4-4.9l-.1-1.1c.7-.3 2.2-1.5 3-2.2 4.9 2.4 11.7-1 14.8-4.5l1.2.7-.6.8-.6-.3c-.8.9-3.6 3.6-4.5 4.2 1.2.3 2.7.5 3.2.5 2.8-2 4.9-3.8 6-3.9l.9 1.2-.8.6-.6-.4c-3 2.4-6.3 7.8-7.7 11.4-1.8-.5-8.4-.2-9.8-2.1z"/><path fill="none" stroke="#000" stroke-width=".2" d="M183.7 47.6c-.4-.1-.8-.2-1-.4-.5.5-1.8.9-3.5 1"/><path fill="none" stroke="#000" stroke-width=".2" d="M175.1 54.2c-.4-2.5.3-5.2 1.5-6 2.7 1.8 7.4 1.8 10.2-.2"/><path fill="none" stroke="#000" stroke-width=".2" d="M175.1 52.9c2.1-.1 6.7.3 7.8.5 1.1.2 3 .6 2.7 1.2M176.1 52.6l.6-.6-.6-.6-.6.6.6.6z"/><path fill="#337321" stroke="#000" stroke-width=".2" d="M177.5 40.3c-.8-1.1-2.9-1.4-3.3 0-.2.6-.5 1.3-1 1.6-.5.3-.4 1.2-.2 1.6.5 1 .1 1.9 1.1 2.5 0-.8 1.1-1.6 2.1-1.7 1-.2 2.4-1.1 2.6-2 .2-1 .6-1.8-1.3-2z"/><path fill="#96877D" stroke="#000" stroke-width=".2" d="M172.8 49.8h.3v1.8c.1 0 .1 0 .2.1l1.6-.9.1.2-1.6.9v.2l1.6.9-.1.2-1.6-.9s-.1.1-.2.1v1.8h-.3v-1.8c-.1 0-.1 0-.2-.1l-1.6.9-.1-.2 1.6-.9v-.2l-1.6-.9.1-.2 1.6.9s.1-.1.2-.1v-1.8z"/><path fill="#96877D" stroke="#000" stroke-width=".2" d="M175.1 54.2c-.6.6-1.4.9-2.2.9-1.7 0-3.1-1.4-3.1-3.1 0-1.7 1.4-3.1 3.1-3.1 1 0 1.9.5 2.5 1.2-.2.4-.3 1.3-.4 1.7-.1-1.1-1-1.9-2.1-1.9-1.2 0-2.1 1-2.1 2.1 0 1.2 1 2.1 2.1 2.1 1 0 1.8-.7 2.1-1.6 0 .4 0 1.4.1 1.7z"/><path fill="#337321" stroke="#000" stroke-width=".2" d="M171.6 57.2c-.2-.2-.6-.9-.5-1.3.3 0 .9.2 1.1.4 0-.3-.2-1.1-.1-1.4.4.1 1.1.6 1.4 1.1-.1-.3-.2-1.2-.1-1.7.4.2 1.1.9 1.2 1.3 0-.7.3-1.7.5-2 .3.3.8.6 1.1 1 .1-.5.3-1.2.7-1.3.3.3.8 1.1.9 1.9.3-.1.7-.6.9-.9.2.3.3.7.2 1.3.4-.3.8-.8.9-1.2.3.2.8.7.9 1.2-.1-.4 0-1.2-.2-1.6.5.3.9.7 1 1.2.1-.5.4-1.3.7-1.5.3.5.5 1.2.5 1.7.2-.3.4-.9.7-1.1.2.4.2 1.2.1 1.6.2-.3.7-.7.9-.9 0 .2.1.6 0 .9.3-.2.8-1.1 1-1.5.5.2.9 1 1 1.4.3-.1 1-.7 1.2-1.1 0 .2.1.9 0 1.4.2-.2.4-.6.5-.8.1.3 0 1.1-.1 1.6.3-.3.7-.4 1-.4 0 .6-.4 1.6-.7 2.3-3.4-.9-10.1-1.3-16.7-1.6z"/><path fill="#F7E017" d="M182.6 39.7c0-.2.5-.8 1.5-.8 1.2 0 2.2.9 3.2.8.9-.1.5.2.3.3-.2.1-.3.2-.2.4.1.1-.1.2-.4.1-.8-.3-1.7.1-2.8-.1-1-.2-1.6-.3-1.6-.7z"/><path fill="#F7E017" stroke="#000" stroke-width=".2" d="M172.6 59.2c-1 1.2-2 1-2.2.2-.2-.8.5-1.1.3-1.8-.3-.7.4-1 .8-.7.3.3 1.4-.7 1.8.3.5 1 .8 1.7.6 2.1-.3.5-1.1.3-1.3-.1zM176.9 57.4c-.2-.4.8-1.3 1.4-.7.5.6 1.4-.6 1.8.3.5.9.6 1.4.8 2 .2.5-1.3.8-1.7.3.1.3-1.3.6-1.6-.3-.3-.5-.5-1-.7-1.6zM183.7 57.9c-.2-.5 1-1.1 1.6-.3.2-.3 1.4-.4 1.4.6.1 1 .1 1.6.1 2 0 .4-.7.8-1.3-.2-1 .2-1.4-.3-1.5-.9 0-.6-.2-.9-.3-1.2z"/><path fill="#337321" stroke="#000" stroke-width=".2" d="M173.2 57.3c-.1-.3.8-1 1.5-.5s1.6-.4 2 .5c.8 1.8.9 1.9.6 2.3-.2.3-1.3.2-1.6-.3 0 .3-1 .3-1.4 0-.5-.3-.8-1.4-1.1-2zM180.2 57.4c-.2-.5 1.3-1 2-.1.3-.3 1.1-.3 1.5.6.4 1 .5 1.5.2 1.8-.2.2-1 .3-1.3-.1-.4.2-1.5 0-1.7-.6-.3-.7-.5-1.2-.7-1.6zM186.8 58.3c0-.5.8-.7 1.1 0 .3.7 1.3.1 1.4 1.2 0 .2-.1 1-.4 1.4-.3.4-1.8 0-1.9-.8-.2-.8-.2-1.3-.2-1.8z"/><path fill="none" stroke="#000" stroke-width=".2" d="M172.6 59.2c-.4-.5-.9-1.3-1.5-.4M175.8 59.2c-.2-.3-.5-.7-.6-1.1M179.2 59.3c-.2-.2-.6-.5-.8-.8M178.9 57.6c.6.1 1 .6 1.2.9.2.2.6.7.9.7M182.6 59.6c-.2-.3-.4-.6-.4-.8M182.2 57.3c.2.3.3.5.5.8M185.6 60c-.3-.5-.7-1-1-1.1M185.5 58.2c0 1 1.3 1 1.4 1.7M187.9 58.3c.1.2.2.5.2.9"/><path fill="#FFF" d="M70 24.4V0H50v24.4L13.4 0H0v8.9l26.6 17.7H0v26.7h26.6L0 71.1V80h13.4L50 55.6V80h20V55.6L106.6 80H120v-8.9L93.4 53.3H120V26.7H93.4L120 8.9V0h-13.4L70 24.4z"/><path fill="#F00" d="M54 0h12v32h54v16H66v32H54V48H0V32h54V0zM0 0l40 26.7h-8.9L0 6V0zm120 0h-8.9l-40 26.7H80L120 0zm0 80L80 53.3h8.9L120 74v6zM0 80h8.9l40-26.7H40L0 80z"/></svg>
