<svg xmlns="http://www.w3.org/2000/svg" width="240" height="160" viewBox="0 0 600 400" xmlns:xlink="http://www.w3.org/1999/xlink"><path fill="red" d="M0 0h600v400H0z"/><path fill="#060" d="M0 0h240v400H0z"/><g fill="#ff0" fill-rule="evenodd" stroke="#000" stroke-width=".6" stroke-linecap="round" stroke-linejoin="round"><path d="M318.2 262c-30.2-1-168.7-87.3-169.6-101l7.6-13c13.7 20 155.4 104.2 169.3 101.2l-7.3 12.8"/><path d="M154.6 146.4c-2.7 7.3 36 31.3 83 59.8 46.6 28.4 87 46 90 43.4 0-.3 1.4-2.5 1.3-2.5-.7 1-2 1.2-4.2.6-12.6-3.6-45.5-18.8-86.3-43.5-40.8-24.6-76.3-47.4-81.8-57-.4-.8-.7-2-.6-3l-1.2 2-.2.4zm164.4 116c-.6 1-1.5 1-3.3.8-11.3-1.3-45.6-18-86.2-42.2-47.2-28.3-86.2-54-82-60.8l1.2-2h.2c-4 11.5 77 57.7 81.6 60.6 46.7 29 86 46 89.6 41.5l-1.3 2zM240.2 169.2c30.2-.2 67.5-4 89-12.7l-4.6-7.5c-12.7 7-50.2 11.7-84.7 12.4-40.8-.4-69.6-4.2-84-14l-4.4 8c26.5 11.3 53.7 13.7 88.6 13.8"/><path d="M330.4 156.7c-.7 1.2-14.7 6-35.3 9.6-14 2-32.2 4-55 4-21.6 0-39.2-1.6-52.6-3.4-21.7-3.5-33-8.2-37-10l1-2c12 4.8 23.2 7.7 36.3 9.7 13.3 1.8 30.8 3.3 52.3 3.3 22.7 0 40.7-2 54.6-4 21.2-3.4 32.7-7.8 34.3-10l1.4 2.7zm-4-7.6c-2.3 2-13.7 6-33.8 9.2-13.5 2-30.5 3.6-52.3 3.7-20.7 0-37.6-1.5-50.5-3.4-20.4-2.7-31.3-7.5-35.2-9l1.2-2c3 1.7 13.5 6 34.2 8.8 12.8 1.8 29.7 3.2 50.3 3.2 21.7 0 38.5-1.8 52-3.7 20-3 31-8 32.6-9.4l1.4 2.5zM141 205.8c18.5 10 59.8 15 99 15.4 35.5 0 81.8-5.4 99.2-14.6l-.5-10c-5.4 8.4-55 16.6-99.2 16.2-44-.3-85-7-98.7-16v9"/><path d="M340 204.2v2.4c-2.5 3-18.8 7.8-39.3 11-15.6 2.5-36 4.3-61.3 4.3-24 0-43.2-1.8-58-4-23.7-3.5-38.7-9.5-41.7-11.3V204c9 6 33.6 10.4 42 11.7 14.7 2.3 33.8 4 57.7 4 25.2 0 45.5-1.8 61-4.2 14.7-2 35.6-7.6 39.7-11.3zm0-8.5v2.4c-2.5 3.2-18.8 8-39.3 11.3-15.6 2.3-36 4-61.3 4-24 0-43.2-1.6-58-4-23.6-3.3-38.7-9.3-41.7-11v-3c9 6.2 33.7 10.6 42 12 14.7 2.2 33.8 4 57.7 4 25.2 0 45.5-2 61-4.3 14.7-2 35.6-7.6 39.7-11.3zM240 260.3c-42.8-.2-79.4-11.6-87.2-13.5l5.7 8.8c13.6 5.8 49.4 14.3 82 13.4 32.4-1 60.8-3.5 80.8-13.2l6-9.2c-13.7 6.4-60.2 13.7-87.2 13.7"/><path d="M323.3 253.7l-2.6 4c-9.4 3.2-24.3 6.7-30.6 7.7-12.7 2.6-32.6 4.6-50.2 4.6-38-.6-69-8-83.5-14.3l-1-2v-.3l2 .7c26 9.4 55 13 82.7 13.8 17.6 0 35-2 49.3-4.6 21.8-4.3 30.6-7.6 33.3-9l.7-.5zm5-8.3c-.6 1.2-1.2 2.3-2 3.4-5 1.8-18.6 5.8-38.5 8.6-13.2 1.8-21.4 3.5-47.5 4-49-1.2-80.8-10.8-88.3-13.2l-1-2c28.3 7.3 57.3 12.5 89.3 13 24-.5 34-2.3 47-4 23.4-3.7 35-7.5 38.7-8.6l-.2-.2 2.5-1z"/><path d="M328.8 197.8c.2 28-14.2 53.3-25.8 64.5-16.4 15.7-38.2 26-63.6 26.3-28.4.6-55-18-62.3-26-14-16-25.3-36-25.7-63.3 1.7-30.7 13.8-52 31.3-66.8s40.7-21.8 60-21.3c22.4.6 48.6 11.6 66.6 33.4 11.8 14.2 17 29.7 19.6 53.2zm-89.2-96.4c54.5 0 99.3 44.4 99.3 98.7S294 299 239.5 299s-99-44.3-99-98.7 44.6-98.6 99-98.6"/><path d="M240 101c54.4 0 99 44.6 99 99 0 54.6-44.6 99-99 99-54.6 0-99-44.4-99-99s44.4-99 99-99zm-97 99c0 53.4 43.8 97 97 97 53 0 96.7-43.6 96.7-97 0-53.2-43.7-96.7-96.8-96.7s-97 43.5-97 96.8z"/><path d="M240 109.3c49.7 0 90.7 40.8 90.7 90.7 0 50-41 90.7-90.7 90.7S149.3 250 149.3 200s41-90.7 90.7-90.7zM151.5 200c0 48.7 40 88.5 88.5 88.5s88.5-39.8 88.5-88.5-40-88.5-88.5-88.5-88.5 39.8-88.5 88.5z"/><path d="M244 100.7h-8.5v199h8.5z"/><path d="M243 99.5h2.3v201.3H243V99.5zm-8.3 0h2.2v201.3h-2.3V99.5z"/><path d="M339 204v-7.4l-6-5.6-34-9-49-5-59 3-42 10-8.5 6.3v7.3L162 194l51-8h49l36 4 25 6z"/><path d="M240 184.8c23.3 0 46 2.2 64 5.7 18.6 3.7 31.7 8.3 36 13.6v2.6c-5.3-6.4-23-11.2-36.4-14-18-3.4-40.4-5.6-63.7-5.6-24.6 0-47.4 2.4-65 5.8-14.2 2.8-33 8.4-35.3 14V204c1.3-3.8 15.3-9.5 35-13.4 17.7-3.5 40.6-5.8 65.3-5.8zm0-8.5c23.3 0 46 2.2 64 5.7 18.6 3.7 31.7 8.4 36 13.6v2.6c-5.3-6.5-22.8-11.3-36.4-14-18-3.5-40.4-5.7-63.6-5.7-24.6 0-47.3 2.4-65 5.8-13.5 2.6-33 8.4-35.3 14v-2.8c1.3-3.8 15.6-9.7 35-13.4 17.7-3.4 40.6-5.7 65.3-5.7zm-.5-43.3c36.8-.2 69 5 83.7 12.6l5.3 9.3c-12.7-7-47.4-14-89-13-33.8.2-70 3.7-88 13.4l6.3-10.8c15-7.7 50-11.6 81.7-11.6"/><path d="M240 140.6c21 0 41.3 1.2 57.4 4 15 3 29.4 7 31.5 9.3l1.5 2.7c-5-3.2-17.4-6.8-33.4-10-16-3-36.2-4-57-3.8-23.8-.2-42.2 1-58 3.8-16.8 3-28.4 7.6-31.2 9.7l1.5-3c5.6-2.8 14.4-6.2 29.2-9 16.4-3 35-3.8 58.5-4zm0-8.5c20 0 40 1.2 55.4 4 12.2 2.4 24.3 6 28.7 9.4l2.4 3.7c-4-4.3-18.8-8.5-32-10.8-15.3-2.7-34.3-3.7-54.4-4-21 .2-40.7 1.5-55.8 4.2-14.4 2.8-23.8 6-27.7 8.6l2-3c5.5-3 14.3-5.6 25.4-7.8 15-2.7 34.7-4 56-4zm49 109.3c-18-3.4-36.3-4-49-3.8-61.5.7-81.3 12.6-83.7 16.2l-4.6-7.5c15.6-11.3 49-17.6 88.6-17 20.5.3 38.2 1.7 53 4.6l-4.2 7.5"/><path d="M239.6 236.5c17 .2 33.8 1 50 4l-1.2 2c-15-2.8-31-3.8-48.8-3.7-22.6-.2-45.5 2-65.5 7.6-6.2 1.8-16.6 5.8-17.7 9.2l-1.2-2c.5-2 6.8-6 18.6-9.3 22.8-6.6 44.2-7.7 66-7.8zm.8-8.6c17.7.2 36 1 53.7 4.5l-1 2.2c-16.2-3.2-31.5-4.3-52.5-4.6-22.8.2-47 1.8-68.8 8.2-7 2-19.3 6.5-19.7 10l-1.2-2c.3-3.3 11-7.5 20.4-10.2 22-6.4 46.2-8 69.2-8zM327.6 247.4l-7.4 11.4L299 240l-55-37-62-34-32.2-11 7-12.7 2.2-1.3 20 5 66 34 38 24 32 23 13 15z"/><path d="M148.7 158.3c5.6-3.8 47 14.6 90.5 40.8 43.3 26.4 84.7 56 81 61.6l-1.3 2-.6.4s.7-1 0-3c-2-6-31.3-29.4-80-58.8-47.5-28.3-87-45.4-91-40.5l1.2-2.4zm180.4 89c3.7-7-34.8-36-82.5-64.4-49-27.7-84-44-90.5-39.2l-1.4 2.6c0 .2 0 0 .4-.4 1-1 3-1 4-1 11 .2 42.6 14.8 87 40.2 19.4 11.3 82 51.5 81.8 62.8 0 1 0 1.2-.3 1.6l1.6-2.4z"/></g><path fill="#fff" stroke="#000" stroke-width=".7" d="M180.6 211c0 16.3 6.7 31 17.5 41.8 11 10.7 25.6 17.5 42 17.5 16.2 0 31-6.6 42-17.4 10.7-10.8 17.3-25.6 17.3-42v-79l-118.7-.3V211z"/><path fill="red" stroke="#000" stroke-width=".5" d="M182.8 211v.2c0 15.5 6.5 29.7 16.8 40s24.6 16.7 40.2 16.7c15.7 0 30-6.5 40.2-16.7 10.3-10.3 16.7-24.5 16.7-40v-77H183l-.2 76.8m91-53.6v54c0 1.4 0 3-.2 4.3-1 7.7-4.5 14.4-9.8 19.7-6 6-14.7 10-24 10-9.4 0-17.7-4-24-10.2-6.2-6.3-10-15-10-24v-54l68 .2z"/><g id="e"><g id="d" fill="#ff0" stroke="#000" stroke-width=".5"><path stroke="none" d="M190.2 154.4c0-5.5 4-6.8 4-6.8s4.3 1.4 4.3 7l-8.3-.2"/><path d="M186.8 147.7l-.7 6.3h4.3c0-5.2 4-6 4-6s4 1 4 6h4.3l-.8-6.3h-15zm-1 6.4h17c.4 0 .6.4.6.8 0 .5-.2.8-.6.8h-17c-.3 0-.6-.3-.6-.8 0-.4.3-.7.7-.7z"/><path d="M192 154c0-3.3 2.3-4.2 2.3-4.2s2.3 1 2.3 4.2H192m-5.8-9h16.3c.3 0 .6.4.6.8 0 .3-.2.7-.5.7h-16.3c-.3 0-.6-.4-.6-.7 0-.4.3-.8.6-.8zm.4 1.5H202c.4 0 .7.3.7.7 0 .4-.3.7-.6.7h-15.4c-.4 0-.6-.4-.6-.8s.2-.7.6-.7zm5-10.6h1.2v.8h1v-1h1v1h1v-1h1.3v2c0 .4-.2.6-.4.6H192c-.2 0-.4-.2-.4-.5v-2zm4.6 2.6l.3 6.4h-4.3l.2-6.4h3.8"/><path id="a" d="M191 141.6v3.4h-4v-3.4h4z"/><use x="10.6" xlink:href="#a"/><path id="b" d="M186.3 139h1.2v1h1v-1h1v1h1v-1h1.2v2c0 .4-.2.6-.5.6H187c-.4 0-.7-.3-.7-.6v-2z"/><use x="10.6" xlink:href="#b"/><path fill="#000" stroke="none" d="M194 140.6c0-.6.8-.6.8 0v1.5h-1v-1.4"/><path id="c" fill="#000" stroke="none" d="M188.6 142.8c0-.6.8-.6.8 0v1.2h-.8v-1.2"/><use x="10.6" xlink:href="#c"/></g><use y="46.3" xlink:href="#d"/><use xlink:href="#d" transform="rotate(-45.202 312.766 180.004)"/></g><use x="45.7" xlink:href="#d"/><use xlink:href="#e" transform="matrix(-1 0 0 1 479.792 0)"/><g id="f" fill="#fff"><path fill="#039" d="M232.6 202.4c0 2.2 1 4.2 2.2 5.7 1.4 1.6 3.3 2.5 5.3 2.5 2.2 0 4-1 5.5-2.4 1.3-1.3 2.2-3.4 2.2-5.6v-10.7h-15v10.7"/><circle cx="236.1" cy="195.7" r="1.5"/><circle cx="244.4" cy="195.7" r="1.5"/><circle cx="240.2" cy="199.7" r="1.5"/><circle cx="236.1" cy="203.9" r="1.5"/><circle cx="244.4" cy="203.9" r="1.5"/></g><use y="-26" xlink:href="#f"/><use x="-20.8" xlink:href="#f"/><use x="20.7" xlink:href="#f"/><use y="25.8" xlink:href="#f"/></svg>
