<svg xmlns="http://www.w3.org/2000/svg" width="240" height="160" viewBox="0 0 60 40"><path fill="#0038A8" d="M0 0h60v40H0z"/><path fill="#FFF" d="M0 0h60v26.7H0z"/><path fill="#D52B1E" d="M0 0h60v13.3H0z"/><circle fill="none" stroke="#000" stroke-width=".13" cx="30" cy="20" r="5.1"/><path fill="none" stroke="#000" stroke-width=".6" d="M26.8 21.8c-.3-.5-.5-1.2-.5-1.9 0-2 1.7-3.7 3.7-3.7s3.7 1.7 3.7 3.7c0 .7-.2 1.3-.5 1.9"/><path fill="none" stroke="#000" stroke-width=".058" d="M30 15.8c2.3 0 4.2 1.9 4.2 4.2s-1.9 4.2-4.2 4.2-4.2-1.9-4.2-4.2 1.9-4.2 4.2-4.2zm0 1c1.8 0 3.2 1.4 3.2 3.2s-1.4 3.2-3.2 3.2-3.2-1.4-3.2-3.2 1.4-3.2 3.2-3.2z"/><path fill="#009B3A" d="M28.4 18.8zM29.6 18z"/><path fill="#FEDF00" d="M30.6 20.8l-.6-.4-.6.4.2-.7-.6-.4h.7l.3-.7.2.7h.7l-.6.4.3.7z"/><path fill="none" stroke="#009B3A" stroke-width=".6" stroke-miterlimit="10" d="M30.8 17.9c.8.3 1.5 1.1 1.5 2.1 0 1.2-1 2.2-2.2 2.2s-2.2-1-2.2-2.2c0-1 .6-1.8 1.5-2.1"/></svg>
