<svg xmlns="http://www.w3.org/2000/svg" width="240" height="160" viewBox="0 0 120 80"><path fill="#00A1DE" d="M0 0h120v40H0z"/><path fill="#FAD201" d="M0 40h120v20H0z"/><path fill="#20603D" d="M0 60h120v20H0z"/><path fill="#E5BE01" d="M102.5 21.4l8.9-.5-8.9-.5 8.5-2.8-8.8 1.8 7.5-4.9-8 4 5.9-6.7-6.7 5.9 4.1-8-5 7.5 1.8-8.8-2.8 8.5-.5-8.9-.5 8.9-2.8-8.5 1.8 8.8-5-7.5 4.1 8-6.7-5.9 5.9 6.7-8-4 7.5 4.9-8.8-1.8 8.5 2.8-8.9.5 8.9.5-8.5 2.8 8.8-1.8-7.5 4.9 8-4-5.9 6.7 6.7-5.9-4.1 8 5-7.5-1.8 8.8 2.8-8.5.5 8.9.5-8.9 2.8 8.5-1.8-8.8 5 7.5-4.1-8 6.7 5.9-5.9-6.7 8 4-7.5-4.9 8.8 1.8"/><circle fill="#E5BE01" stroke="#00A1DE" stroke-width=".378" cx="98.5" cy="20.9" r="3.8"/></svg>
