<svg xmlns="http://www.w3.org/2000/svg" width="240" height="160" viewBox="0 0 240 160"><path fill="#006C35" d="M0 0h240v160H0V0z"/><path fill="#FFF" d="M124.6 44.2l6.4 9 .7 6.8c.3 5 .4 11 0 16 1 0 2.5-1.4 3-3.6.3-3 0-9.3-.2-11.2v-2.6c2.3 4 4.6 8 6.8 12.5.8-.3.6-5 .2-5.6-1.8-4-4.4-7.8-5.2-9.2l-2.5-3.8c-.2-2.5-.4-4.6-.6-5.2-.4-2.6 1 .3 1-1.2-.6-2.6-2-4.4-3.7-6.8-.5-.8-.5-1-1.4.2-.4 1-.4 2-.3 3-1-1.3-.6-1-3.7-3.6-1.4-1-2-.5-2 .2-.5 3 .6 3.8 1.6 5.2zm5 .6c0 .6 0 1 .3 1.7l-1.2-1.4c-1-1 .5-1.5.7-.2zm5.6-4c-.3-.8.7-1.3 1.4-1 1.2.4 2 2.8 1.8 4-.3 1.3-1 3-1.3 2.7-.4-.2.5-1.4 0-2.8-.3-.8-2-2.4-1.8-2.8zM135 50c0-1.3 1.2-1.5 1.2-.4 0 .4.7.6.7 0 0-1 .8-.8.8 0 0 .6.4.7.5.5.2 0 0-.4 0-.6.3-1 1.2-1 1.2.7 0 2.2-2.4 2.5-3.7 2-1-.5-1-2-.8-2zm-10 27c.2-.5 0-1-.6-.8-1 .5-1.3-.5-.8-.8.4-.6 1.7-1.5 1.8-1.5.7-.4 1 .5 1 .2 0 .6-.4 1.2-.2 2 0 .3.2.7.8.5 1-.8 2-.8 2.8-1 .8 0 .8 1.4.3 1.4-1.7.5-2.5 1-3.7 1.4-.8.5-1.6-.2-1.2-1.3zm27.7-23.3c-.3-.8 0-1.6.2-2 .3-.3 1-.6 1.6-.3 0 0 .5.7.4.8.7.3 1 .2 1 0l-.2-1.4c.2-1 1-1.3 1.5-1.3.4 0 .8.2 1 .5.4.5.6 1.7.7 2.5 0 .4-.6 0-1 0s-.5.5-.5 1l-.2 3.8c-1.3.2-3.8-2.2-4.6-3.6zm2.6-14.2c.2-1.3.6-.5 1.2 0 1.2 1 1.7 1.4 3.2 3 1.7 2-2.2-.2.5 2.6l.4.5-.5-4.7c0-.8.5-1.4 1-1.7.6-1 0-1 3.7 5.5.2.5 0 1-.4 1-.6-.2-1-.6-.8 0 .2.8.2 3.6.5 4.8l3.4 5c-.5-4-1.2-8-2-12-.3-1.4-.6-3 .2-3.7.8-1 1.4-1.3 1.8-.6 1 1.5 3 6.6 2.6 7-.3.6-1 .2-1 .6-.2.2 0 2.2.2 2.8l1 5c0 1 .4 3.8.7 6.3l4.4 6.7c.5.6.8 5.2 0 5.7l-4-6.8V70c0 1.5-3 4.7-3 4 .2-4.2 0-8.5-.3-12.8-.8-1.4-1.8-2.8-2.7-4 .2 5 .4 13.8-.2 15.5-.5 1.4-1 2.2-2.2 2.8-1.5 1-3 .8-4.2-.3-.8-.4-1.4-1-2-1.7-.4-.6-1.5-.8-2 .5-.6.7-.6 4.3-2 5.7-.6.7-1.6 1.3-3 .3-1.4-.8-2-1.7-2.7-3.2-.6-1-1.6-5.2.7-7.8 0 .6-.7 4.4 1.4 7.2 1 1 2 .6 2.3 0 1.2-2.2 2-5.5 4-7.3.6-.7 1.2-1 2 0 0 0 2 2.8 2.4 3 .6.6 1.6 0 1.6 0 .6-.2 1.3-3 1.3-5-.4-5-.5-9.6-1-14.6-1.8-2.4-3.5-4.8-5.3-7-1.3-1.7-1.2-2.7-1-6zm4.3 27c-.2-1-1.2-2.8-1-3.3-.3-1 .5-1.6 1.3-1.4 1 .5 1.4 3.7 1.3 4.5 0 1.7-1 3-1.5 2.8-.5 0 0-2-.2-2.6zm-12 2.2zm22.7-24.3c-.3-1 .5-1.5 1.3-1.3 1 .6 1.7 3.6 1.6 4.5-.2 1.5-.8 3.2-1.2 3-.4-.2 0-2.3 0-3-.4-1-1.8-2.6-1.7-3zm-30 0c0-1.7.4-3.4 1-4.4.4-1 .5-1 1 0 1 1.5 2.7 5.4 2.3 6-.6 1-1.4-.7-1.2 2 1.3 6.5 2 13.6 1.8 22.6 0 1.5-1 3.5-1.7 4.4-2.2 4-4.5 5.5-7.3 5.8-1.6 0-2.8-1.7-2.5-2 3.3-1.3 6.4-4 8.5-6.3.6-.5.7-1.8.6-2.6-.8-9-1.3-16.8-2.5-25.7zm5 1.2c-.2-1.5 0-3.6.8-6 .8-1 .7-.6 1 .2.7 1.5 2.6 4 3.4 6 .2 1.3-2-.8-1.5 1.6.3 1.3 2 15 2.2 16.6 0 1.7.5 3.5.2 6.3-.5 2-1.5 4.2-2.4 4.2.3-9.6-1.7-18.8-3.6-29zm-14.8 19.7H119c-.3 0-.5-.4 0-.6 2.8-.4 7.7-1.2 8-5.8 0-2.5-1-4-4-4.5-2.2.2-3.7 2.3-3.5 4.6 0 .7.2 2-.4 2-4 .5-8.7 3-8.8 5-.4 0-.8-.5-.8-1.2-.2-3.3-1.2-7-3-9.8-1.2-1.2-1-.8-1.5-.4-1.3 1.4-.7 3 1.2 7.6.6 2 1.2 4.6.8 7-1.4 3-4.2 5.7-7 7.2-1.4.4-2.6.3-3 0-.7-.5-.7-1.5-.7-1.6 2.3-1.6 5-3 7-7.3.6-1.7.8-2.7.2-5.2-.2-1-.5-1.7-1.2-2.4.4-.3 1.4.5 1.6 0-.3-1.2-1.2-2.8-2-3.7-1-.7-1.8-.8-2.6 0-1 .4-1 2-.6 3.5.4 1 1.7 1.3 2.5 3.6 0 .7.3 1.7-.2 2.3-.3 1.3-4.4 4-5.3 5 0-1.8.2-3.2.2-3.2-1.6 1-2 4-2.4 5C89.8 75 85.4 77 83 79.6c-1.4 2 9-2.3 10-3 .3.4.3 1.2 1 2 1 1.5 3.3 2.4 5.5 1.8 3.7-1.3 6-4 8-6.7.3-.4.8-.8 1.2-.4 1.5 3.4 5.8 5.7 11.4 6 1.4-1.6.8-2.3.3-2.7-.2 0-2.8-1-3.2-2-.2-1 .5-2 1.7-2.5 3.6-.4 7-1 10.5-2 0-1.2.7-2.8 1.2-3.6.7-1 1-.8 0-1.3zm-7.4-7c1.2.6 1 1.8-.4 1-1.3-1-.6-1.7.5-1zm-5.7 11.4c-1.2.4-2.4.7-2.4 2.5.3 2.2-.3 2-1.3 1.3-.8-.5-3-2-3.2-4.7 0-.6.4-1.2 1.2-1.2l4.8.5c1.4.3 2 1.3.8 1.7zm43.5-10c0 .4-6 4.6-6.5 4.4-.3.3-.6-1.6 0-2 .2-.3 6.2-4.6 6.2-4.6.6-.3.6 2.3.3 2.2zm8.4 19.2s-2.6 1.6-3.8 1.3c-.6-.2-.5-.7-.3-1l1.3-1c.5-.6.3-1 0-1.3-.5-.3-1-.2-1-1 .3-1.4 3.5-.8 3 .2-.3 1-1 1.5 0 1.5.4 0 1 0 1.2.2 0 0 0 .6-.3 1zM68.8 59c2 .2 1.5 1 2 1.7-3.3 1.7-6.6 3.2-10 4.8.2-2.3 5-6.3 8-6.4zM92 68.3c0-1.2-1.5-1.8-1.5-2.3-.2-1 .5-1.2 1.3-1 1 .3 1.6 2.5 1.5 3-.2 1.3-.7 2.5-1.2 2.3-.4 0 .2-1.7 0-2zM63 40c-.3-1 .6-1.3 1.2-1 1.5.4 1.6 2.6 1.5 3.2-.2 1.2-.7 2.5-1 2.3-.5-.2 0-1.8-.3-2.3-.3-.7-1.5-2-1.4-2.3zm-2.4 5.5c1-1 1.3 3.7 2 5.6.6 2.8 1.5 1.7 1.7.3l.5-2.7c.4-2.8 2-4.5 2.6-4.4.7 0 1 0 1.4 1 .4.7.5 4 0 6 0 1.5 2 3.3 1.8 0-.3-2.3-.5-4.3-1.2-6.6-.2-1.3-.2-2.7 0-4.2.3-1 1.3-1 1.8-.3 1 1 1.2 4 1.3 5.4 0 1.2 0 3.7.7 5.5.4.8 1 1 1.2.2.3 0-.4-.8-.8-2-.6-1.5-1-4.6-.2-6 .3-.6 1-.6 1.4 0 .5.8 1 1 1.2 2.4.3 1 .7 1.3.2 4.5 0 .7 2.8 2.8 3.8 2.2.2-1-.2-2-.5-2.8-1.3-1.7-2-3.8-2-5.6.4-1.5 1.7-1.7 2.5-1 1 .5 1.7 1.8 2 3.2 0 .6-.8.7-1.2 0 0 0 1.2 3.5 1.4 6.6 0 1.8-1.4 3-3.8 3.6-1.5.4-2-.5-3-1.2-.6-.3-1.5-.3-1.6.4-.5.7.4 3.8.2 7.6 0 6.3-2.4 5.7-2.4 5.7l-.5-10c-.3-1-1-1-2-1-1-.4-2.2-1-2.2-2.8v-6c0-.7-.5-.7-.8 0-1.4 1 .7 8-3 7.6-3-.8-2.6-7.4-2.4-11zM64 76c.4 1.8-1.4 5.7-3.7 3.2-1-1.3-1-5.8 1-8.8.6-.7.6-.8.5.4-.2 1.3-.4 3-.3 4.7.2 3.4 1-1.3 2.4.6zm115-3.8c0 6.4-4 8.2-9.4 8.8-1.6 0-1.6-1.3.4-2.5 1-.8 5.8-2 6.6-7-.2-8.6-1.3-18-2.7-27.7-.3-1.5 0-3.3.5-4.3s.5-.8 1 0c1 1.5 3.6 5 3.2 5.5-.6 1.2-1.7-1.5-1 2.7 1.2 6.7 1.5 15.5 1.3 24.5zm-18.2 41.3c-.8 0-3 .4-3 .4-2.6-.4-4.4-.4-7.3-.5.3-.3.7-1.7.2-2.2l-.7-.2h-.2s-.4-.8-.2-1c-2 .5-1.8 2.5-.6 3.3-57.8 0-73-.7-73-.7 4 6 5.2 4.4 72.7 4.4-1 1.8.6 6.3 2.2 3.6 1 0 8.3.2 9 0 .3.6.8 1.2 1.6 1.2 4.7-1 2.6-8.6-.8-8.3zm-1.3 5.3H157c0-1-2.3-1-2.3 0-1.3.2-2.4 0-3.7 0-.4-.5-.3-1.4 0-1.6 0-.2 8.5 0 8.7 0 .3.5.2 1.4-.2 1.6zm-73-47.2c1-3 .6-8.4.6-8.4 1.8 1.8 4.2.2 4.7-.4.2-.3.8-.5 1.2 0 1.2 1 3.5.4 4-1.3.3-1.6.5-3.3.6-5-.6 0-1.8.4-2 1 0 .3 0 1.5-.4 1.7-.3.2-.8 0-.8-.4-.4-2-2-2-3 .8-.8.5-2 .7-2-.2 0-2-.7-2.2-2.3-1.3L85.7 47c.7 0 1.2.4 2-.3-2-6-2.8-7.3-4.4-7-.8.4-1.6 1-1.3 2.4 1 5.8 1.5 10.3 2.5 16 .2.8-.4 1.7-1.2 1.6-1.2-1-1.6-2.6-3.7-2.5-1.5 0-3.3 1.8-3.6 3.5-.3 1.3-.4 2.7 0 3.8 1 1.3 2.4 1.2 3.6 1 1-.5 1.7-1.4 2-1.2.2.5 0 3.5-4.4 6-2.7 1-5 1.4-6-.8-.7-1.4 0-6.7-1.7-5.5-5.3 13.6 12.4 15.5 14.3.6.2-.8 1-1 1-.2-.3 13.6-13.5 14.6-15.8 10.3-.7-1.3-.8-5.7-1.3-6-1.3-1-1.6 3.8-1.6 5.8.7 11 17.7 6.4 20.5-2.4zM78 61.8c-.4-.8 1.3-2 2-.7.4 1.4-1.4 1.8-2 .8zm31.4-19s.3-3 .5-3.6c.5-1.5 1.4-1.4 1.6-.2 0 1 0 1.7-.8 3.8-.5 1.2-1.6.8-1.4 0zM101 41c0-1.4 1.3-2.6 2-3 .7-.5.7-.2.7.6-.7 1-1.4 1.3-1 2.2 0 1 1.2-.3 1 .6-.5 1.5-2.7 2-2.6-.4zm-27-.4c0-1.2 1.2-1.7 1.2-.5 0 .5.7.6.7 0 0-1 .8-.8.8 0 0 .5.4 1 .6-.2.3-.8 1-.6 1.3 0v1c0 2-2.3 2.4-3.7 1.8-1-.5-1-2-1-2zm38.6 16.2c-.2-1.2 1-1.6 1-.4 0 .3.7.6.8 0 0-1 1-.8 1 0 0 .5.2.8.5-.2 0-.8 1-.6 1 0l.2 1c.8 2-2.4 2.3-3.7 1.7-1-.6-1-2-1-2.2zM99 42.2c1-1.2 1.2 6.2 2.2 7 .4.8 1 1.3 1.6-.4.6-2.5 1.6-5.5 3.6-7.4.4-.4 1.4-.8 2 .4.4.8.3 4.4.2 6.6.3 1.4.8 1.6 1.4 2 .7.3 1.6.6 2.4-.3.6-.6.7-.8 1-1.5.4-2.4 0-4.6-.5-6-1-2 .2-3 .5-3.7.7-1.3.6-1.8 1.3 0 1 1.7.6 5.2 1 7.7.4 3.3 1.3 3.6 1.8 3.7 1.3.2 2-1 2-1 .4-2.4-.8-4-1.5-5.4-.7-1-.7-2-.5-2.7 0-.6 0-1.3.7-2 1-.7 2-.6 2.7.2.7 1 2 2.8 1.6 3.4 0 .7-1 .4-1.3.4-.7 0 0 1.7 0 1.8.5 1 .5 2.6 1.2 3.7.8 1.2 2.4.3 3.4-.3.3-.2.8-.3.8.7 0 0-1 2.6-2.2 3.2-1.7.5-1-.4-.8-1.4 0-.2-1-.5-1.3.2l-1.2 2c-.5 1-2.8 1.3-3.8 1-1.2-.7-1.2-1.6-1.7-2-.6-.5-1.2-.5-1.6 0l-2 2s-2 1.7-4.5-.2c-1-1.3-1.4-2.2-1.4-6.5-.2-.5-.5-.4-1 .5-.6 3.2-1.6 6-3 5.5-2.3.6-5.3-5.6-3.4-11zM94 49.5c.6-.4 1-.2 1 .4-.4.5-.4 1-.3 1.7.5 1.5 2-1.2 2-.2-.8 2.7-3 2.6-3.7 1.5-.7-1-.3-3 1-3.5zm-2.5.6c.7 0 5.7-5.5 6-6l-.7-.6c-.3-.2-.2-.5 0-.7 1.2-.7 1-2.3.2-3-1.6-.7-2.3-.4-2.8 0-1 .7-1 2-.4 3 .7.2 1.3 1 1 1.3-2 2-7 5.4-7 6-.2.4 3.3.3 3.7 0zm3.6-9c.4 0 .8.4 1 .7 0 .4 0 .8-.3 1-.3 0-.7-.3-1-.7 0-.4 0-.8.3-1z"/></svg>
