<svg xmlns="http://www.w3.org/2000/svg" width="240" height="160" viewBox="0 0 600 400"><path fill="#00008B" d="M0 0h600v400H0V0z"/><path fill="#FFF" d="M175 61V0h-50v61L33.5 0H0v22.5l66.5 44H0v66.8h66.5L0 177.5V200h33.5l91.5-61v61h50v-61l91.5 61H300v-22.5l-66.5-44H300V66.8h-66.5L300 22.5V0h-33.5L175 61z"/><path fill="#F00" d="M135 0h30v80h135v40H165v80h-30v-80H0V80h135V0zM0 0l100 66.8H77.5L0 15V0zm300 0h-22.5l-100 66.8H200L300 0zm0 200l-100-66.8h22.5L300 185v15zM0 200h22.5l100-66.8H100L0 200z"/><path fill="#8FC5FF" stroke="#FFF" stroke-width=".673" d="M516 171.2c-.1 45.4-7.3 94.2-66 117.5-58.7-23.3-65.9-72.2-66-117.5h132z"/><path fill="#366CC9" d="M450 288.8c26.6-10.6 42.6-26.4 52.2-44.7-1.4.1-4.4 0-5.7-.1-1.4-.1-56.3-5.6-62.8-8-5.7-2.1-27.2 1.8-37.3 5.4 9.4 19.4 25.7 36.3 53.6 47.4z"/><path fill="#5D3100" d="M409 260.6c.9-.3 2.6-.2 3.3-.1.8.1.9.2 1.2-.7.3-.9.9-.7 1.4-.2.5.4 1.8.2 2.3-.5.5-.7.6-.6 1.2-.1.5.5.7.4 1.2.2.5-.1 1.4-.7 1.8-1.5.4-.8 1.1-1.1 1.4-.7.4.4.7.7 1.2.6s.6.4.6 1.1c-.1.7.2.8 1.4-.2 1.1 1.1 1.4.6 1.4-.5 0-1.2-.3-5.4-.7-6-.4-.6-.9-2.2-.9-3.5-.1-2.5-.1-2.6-3.1-4.1 0-.9-.2-1.2-2.3-1.1.1-.3-.3-1.2-.7-1.5-.4-.4-.5-.5-.3-1.5.9.1 1.8-.1 2.3-.8.5-.7 2.2-.6 3.2-.1 1 .4 2.3.5 4.3.2.7-.6 1.9-1.2 3.2-2 1.3-.7 1.7-1 1.7-2 .2-2.6-.7-5.6-1.4-6.9-.7-1.4-.9-3.1-1.9-5.3-1.1-2.4-1.1-3-2.3-4.4-.3-.4-.7-.7-.8-1.5-.1-.8-.4-1.9-1.2-2.7-2.2-2-3-8.4-3.9-13.2-.5-2.7-.1-9.2-1.3-10.2-1.9-1.6-2.9-1.3-4.2-1.8-.9-1.3-1.4-3.9-2.2-6.2-1.4.2-2.3 1.7-3.2 2.2-.9.5-1.1.5-1.1 1.8s-.7 3.1-2 5.1c-1.3 2-3.5 1.4-5.3 4.5-4-4.8-4-6.2-4.3-7.6-.3-1.4-.9-1.7-3.2-3.6 0-.6-.3-2.9-.1-4.2-1.7-1.4-2.9-1.2-3.7-.1-.8 1-1.4 2.5-2.6 3.1-.7.9-3 3.3-4.8 6.1 1.6 25.1 7.3 50 24.4 69.9z"/><path fill="#FF0" stroke="#FFF" stroke-width=".653" d="M516 171.2c0-17.1-.9-33.7-.5-48.2-21.9-9.8-50.8-11.8-65.5-11.8-14.7 0-43.6 2-65.5 11.8.4 14.5-.5 31.1-.5 48.2h132z"/><path fill="#CF6200" d="M387.6 191c.7 1.2 2 3.1 2.2 4.2.5-1 .9-1.5 1-2.2.1-.7.9-1.9.6-2.6-.3-.7-.5-1.2.3-.7s.6 1.4.5 2.7c-.5 3.5-1.9 4.3-2.2 6.6 2.1 5 .5 6.8 2.8 11.7.4.2 1.3-.2 1.6-.1 1.2-.9 2.1-.6 3.9-.2 1.7.4 2.7 1.6 2.7 2.7s0 1.4.4 2c.4.6 1.1 1.7.9 2.4-.1.7.1 1.2.4 1.5.2.4-.1 1.2-.3 1.7-.2.5-.1 1.2.7 2.2.9 1.1 2.9 5.6 2.9 8.3 0 2.7.1 3.9 1.2 4.4 1.1.5 1.4.9 1.3 2.1s.5 7.1.6 8.1.5.7.9 1.2.7 1.1 2.2 1.1c1.4 0 2.8-.2 3.8 0 1.3 1.8 2.1 4.3 2.4 5.8.3 1.5.3 3.6.8 3.6s1 .1.9-1.8c-.1-1.9-.3-2.2-.9-3.1-.6-.9-1-1.4-.6-2 .4-.6.4-1.5.3-2.2s-.4-1.8.9-.4c1.2 1.4 1.6 1.8 1.9 2.3.4.5.5 1.4.4 2.3-.1.9.1 1.2.6.8.5-.4 1.2.3.9 1.2s.1 1.5.9 1.8c.9.3 1.2.5 1.4 1.2.2.6.9.9.9-.4s-.5-4-.9-4.9c-.4-.9-.6-2.7-.7-3.8-.1-1.1-.3-1.4-.8-1.6-.5-.2-.9-.6-1-1.1-.1-.5-.5-.7-.8-.7-.3 0-.6-.3-.8-.6s-.4-.4-.7-.4c-.4 0-.9.2-1.1-.4-.2-.6-.4-1.4-.8-1.9s-.7-.6-.7-2.2-.1-1.8-.6-2.4c-.5-.6-1.4-2.1-1.7-2.7-.4-.7-.7-1.3-.7.1 0 1.4 0 2.1.9 2.6s1.1.5.7 1.2c-.4.7 0 1.2.1 1.7s.4 1 0 1.5-.9.4-.8-.4c.1-.8-.2-1.7-.6-2.4-.4-.7-.6-1.1-1.1-.7-.4.4-.8-.1-.5-.4.3-.3.2-.5 0-.7-.2-.2-.3-.4.1-.9.4-.4.4-.6.1-1.7-.2-1-1.8-6.1-2.5-7.2-.7-1.2-.6-2 .3-.9.9 1.2 1.7 2.2 1.8 3.1.1.9.3 1.5.6 1.9.3.4.5.2.6-.6s.7-.5-.3-2-2.9-4-3.6-8.6c-.7-4.5-1-7.6-1.7-8.8-.7-1.2-.9-1.5-1-2.7-.1-1.2 0-2.3-.5-3.2-.5-.9-.9-1-.9.3-.1 1.3.1 4.2.4 4.7.4.5.1 1.8.1 2.5-.1.7-1.2 1.4 1.2 2.9.9.6.8 1.4.6 1.9-.1.5-.3.4-.8-.4s-1-1.4-1.5-1.9c-.5-.4-.6-.7-.5-1.7.1-1 .3-1.7 0-2.1-.3-.4-.4-.1-.6.5-.1.6-.3 2.2-.6 2.6-.3.4-.4.1-.6-.8-.2-.9.1-2.4.6-4 .5-1.7.8-3.4.4-5.6-.4-2.2-.2-2.8-1.9-4.6-1.7-1.8-3.5-3.5-4.3-5.8-.8-2.2-.9-4.2-1.8-5.2s-2.1-2.3-2.9-2.7v-3.3c0-.8-.4-1.3-1.3-1.2-.9.1-1.5.9-2.1 2-.6 1.1-1 .6-1.8 2.5-1.1 2.1-2.2 3-2.2 5z"/><path fill="#CF6200" d="M392.8 212.2c.6.4 1.1.6 2 .2.9-.4 1.9-1.7 3.1-.5 1.2 1.2 1.8 3.2 1.8 4.8 0 1.6 0 4.5 1.8 6.2 1.8 1.7 2.7 3.4 2.8 5.6.1 2.2.9 5.5 1.1 6.4.2.9.7 1.9 1.3 2.5.6.6 1 2.2 1.1 4 .1 1.7-.2 3 0 3.8.2.9 0 1.6-.6 1.2-.6-.4-.8-.7-1.2-1.4-.4-.7-.8-.6-.4.5s1.4 2.1 2.4 2.1c.9 0 1.2.1 1.8.7.6.6.6.9 1.7.9 1 0 1.2 0 2.1.3.9.3.9.1 1.4 0 .5-.1 1 .3 1.4 1.2.4.9 1.2 3.5 1.2 4.3s0 1.4.5 2.2c.5.7.4 1.4-.2 1-.6-.4-.6-.3-1-.2-.4.1-.7-.1-1.3-.5-.6-.4-.2-.3-.8-1.2-.6-.9-.9-1.2-.9-.5s-.1 1.4-.5 1.1-.6-.4-1 0-.5.7-.9-.1c-.4-.7-.9-.7-1.4-.9-.4-.1-.4-.1-.6-.8-.2-.7-.9-.8-1.4-.8-.6 0-.9-.3-.9-.7-.1-.4-.4-.7-.7-.9s-.1-.7-.2-1.2-.5-.3-.8-.4c-.3-.1-.5-.1-.5-.8 0-.7-.3-.9-.5-1.4-.2-.5 0-1 .1-1.6.1-.6.1-.9-.4-1.4-.4-.5-.1-1-1.2-2-1.2-1-1.7-.1-2.1-2.5-.4-2.4-1.1-7.3-1.7-8.1-.6-.8-1.1-1.4-1.7-1.6-.6-.2-1.1-.1-1.2-1.4-.1-1.4-.5-3.1-1.4-4-.9-.9-1.2-1.2-1.7-1.5-.4-.4-.6-1 0-2.2.6-1.2.4-2.9.3-3.7-.1-.8-.3-1.8-.1-2.7.1-.9.1-1.9-.1-2.5-.6-.9-.9-1.1-.5-1.5zM410.2 191.7c-1 1.3-2 2.3-3.4 3.3-1.3 1-3.1 1.7-2.1 3.4 1 1.6 1.7 1.8 1.9 3.1.2 1.3.5 2.3 1.4 2.6 1 .3 1.3.1 1.3 2.1s0 2.8.9 3.6c.9.8.8 1.5 1.2 3.4.4 1.8.4 5.8 1.5 8.5 1.2 2.7 3.8 7.8 3.5 8.9s-.7 1.8.5 3.1 1.9 3.1 2 4.1c.1 1.1.3 1.4 1.4 1.1 1.2-.4 1.7-.8 2.1-1.3.4-.5 1.2-.4 2.2.2 1.1.6 2.7 1.2 3.7.6s1.4-1.4 2.3-1.4c1.3-1 1.8-3 2.1-3.6.3-.6.1-.6-.5-1.2s-.3-1.5-.4-2.5c-.1-1-.5-2.4-1.6-4.5-1.2-2.1-1.8-4.7-2.6-5.4-.8-.7-1.2-2.3-1.3-3.1-.1-.8-1-1.4-1.5-2-.6-.6-1.2-1.4-1.8-4.8-.7-3.4-1.2-5.8-1.2-6.4 0-.6-.1-.7-.7-.9-.6-.2-.9-1.2-.7-1.6.2-.5-.2-1-.4-1.5-.2-.6 0-1.6.4-2.2.4-.6.3-2.2-.1-3.6-.4-1.3-.8-2.5-2.3-2.7-1.5-.2-1.8-.6-2.4-1.8-.6-1.2-1.2-3.5-1.3-3.9-.2-.5-.5-.6-1.6.4-1.2 1-1.5 1.3-1.5 3.1 0 1.2.2 1.5.6 2.2.4.7.5.9.8 2.7.3 1.8 1.9 4.7-.2 6.4-2.1 1.6-1.8 2-1.7 3.2.1 1.2-.6 1.9-1 .3-.4-1.6 0-2.6 1.2-3.4 1.2-.8 2.2-1.7 1.4-2.8-.8-1.1-1.1-3.6-1.2-4.7s-.3-1.9-.9-1z"/><path fill="#00B800" d="M393 216.2c-.1.8.1 1.6.2 2.3.1.8.3 2.5-.3 3.7-.6 1.2-.4 1.9 0 2.2l.1.1c1.2-.4 1.3-1.7 1-2.3-.3-.7-.2-1.5.1-2.2.4-.7.4-1.1.1-1.5-.3-.5-.3-.5 0-1.8.4-1.3-.5-1.2-1.2-.5zM405.3 234.8c-.2-.9-1-4.2-1.1-6.4-.1-2.2-1-3.9-2.8-5.6-1.4-1.3-1.7-3.4-1.8-5-1.1-.6-1.5-.4-1.4.8.1 1.3 1.4 1.9 1.2 3.8-.2 1.9-.2 1.4.7 2.3.9.9 1.2 1.8.8 2.2-.5.4-.5 1.1.1 1.3.7.2.7 1 .6 1.6-.1.7.5.8.9 1.3s.4 1.6 0 2.3c-.4.7-.4 1.7.2 1.2.7-.6 1-.1 1.5.9.5.8.8.5 1.3.3 0-.2-.1-.6-.2-1zM414.7 251.7c-.4.9-.9.6-1.4.1-.4-.4-.9-.4-.7-1.2.2-.8.1-.9-.4-1.4-.1-.1-.1-.1-.2-.1h-.7c-1 0-1.1-.3-1.7-.9-.1-.1-.2-.2-.4-.3v.5c0 .8 0 .7-.8.9-.8.2-.6-.8-.8-1.4 0-.2-.1-.3-.1-.4-.9-.2-1.8-1.1-2.1-2.1-.4-1.1.1-1.2.4-.5.4.7.5.9 1.2 1.4.6.4.9-.3.6-1.2-.1-.3-.1-.6-.1-1-.2-.3-.4-.5-.6-.6-1.2-.5-.8-.6-.7-1.6.1-.9-.1-.9-.9-.4-.7.5-.8-.1-.8-1.5s-.9-1.4-1.2-.4c-.2 1-.6.4-1-1.1-.4-1.4-1-1.8-1.1-.4-.1 1.2-.4 1.4-1.1.8.1.8.2 1.6.3 2.2.4 2.4.9 1.5 2.1 2.5 1.2 1 .8 1.5 1.2 2 .4.5.5.9.4 1.4-.1.6-.4 1.1-.1 1.6.2.5.5.7.5 1.4s.2.6.5.8c.2.1.4 0 .6.1.2-.2.4-.5.6-.8.9-.9 2.2.1 2.6 1.2.4 1.1.9 1.4 1.6.5.6-.9.4-.7 1.2.1.7.8 1 .7 1 .7s.7-.3 1.2.1.8.4 1.7-1c1-1.3-.4-.9-.8 0zM417.3 212.1c.3-2.1.1-4.2 1-5 .9-.8 1.9-2.3 1.8 1-.1 3.3-.2 3.1-.9 3.9-.7.8-1.3 1-.6 2.2.7 1.3.8 1.3.7 3.3-.1 1.9-.1 2.7.7 3.7.8 1 1 1.1 1.2 2.1.2 1.1.9 2.5 1.7 3.3.9.8 1.8 3 1.9 4.5.1 1.5 1.4 1.9 2.7 3 1.3 1.1-.3 1.8-1.2 1.3-1-.5-.6 0-1.2.7s-.8.8-1.2-.4c-.5-1.2-2.1-1.9-2.9-2.2-.8-.3-1.4-1.5-2.1-2.8-.6-1.1-1.7-1.9-2.8-1.9.3.8.4 1.4.4 1.8-.3 1.1-.7 1.8.5 3.1s1.9 3.1 2 4.1c.1 1.1.3 1.4 1.4 1.1 1.2-.4 1.7-.8 2.1-1.3.4-.5 1.2-.4 2.2.2 1.1.6 2.7 1.2 3.7.6s1.4-1.4 2.3-1.4c1.3-1 1.8-3 2.1-3.6.3-.6.1-.6-.5-1.2s-.3-1.5-.4-2.5c-.1-1-.5-2.4-1.6-4.5-1.2-2.1-1.8-4.7-2.6-5.4-.8-.7-1.2-2.3-1.3-3.1-.1-.8-1-1.4-1.5-2-.6-.6-1.2-1.4-1.8-4.8-.5-2.6-.9-4.7-1.1-5.7-.7 1.1-1.2 1.4-1.4.6-.3-.9-.7-1.3-1.1-.8-.4.6-.5-.5-.5-1s-.1-.6-.6-.6-.1-.8-.3-2.2c-.2-1.4-.5-1.6-.7.1-.2 1.7-1.2 2.8-.8 3.2.4.4.2 1.2-.2 2.3-.4 1.2-.2 1.8.1 2.6.3.8-.2 2.2-.4 3.5-.1 1 .9 2.3 1.2.2zM399.7 194.8c-.7.1-1.2.7-.8 2.9.3 1.4-.8 1.1-1.2.4-.4-.7-.7-2.1-1.4-3.4-.8-1.2-.4.9-.5 2-.1 1.2.7 1.2 1.3 2.1.7 1 .1 1.3-.7 1.3-.8 0-.4 1.5-.2 2.6s-.2 1.3-.8.4c-.6-.9-.2-2.2-.1-3.9.1-1.6.2-1.3-.9-1.6-1.1-.4-.9-.6-.5-1.5.4-1 .8-1.4.3-1.9s-.4-.8.4-.9c.8-.1.5-.7 1.2-.9.7-.2 1 .1 1.1-1.2.1-1 .4-1.7 1.2-1.4.6 1.7 1.2 4.2 1.6 5zM409.4 206.1c0 2 0 2.8.9 3.6.9.8.8 1.5 1.2 3.4.4 1.8.4 5.8 1.5 8.5.3.8.8 1.8 1.3 2.9.6-.5 1.2-1.4 1.4-1.8.3-.7-.6-2-1.3-3.2-.7-1.2.1-1.5.8-3 .7-1.4-.1-1.5-1.2-1.9-1.1-.4-1.1-1.3-1.6-2.9-.6-1.5-.5-2.2-.1-3.1.4-.9.1-1.5-.7-1.7-.8-.2-.6-.8-.3-1.7.3-1 .5-1.2-.7-.9-.9.2-1.1.4-1.3.7.1.1.1.5.1 1.1z"/><path fill="#5D3100" d="M420.5 210.1c-.1 1.2-.1 1.7-.4 2.1-.3.4-.1 1 .2 1.5.3.6.5 1.3.2 2.4s.2 1.9.8 2.2c.6.3.9 0 .7 1.3-.2 1.3.6 2.8 1.2 3.4.7.6 1.2 1.5 1.1 2.1-.1.6.5 1.2 1.2 1.4.7.3.6.4.6.8s.3.4 1.1.6c.8.2 1.3.7 2.2 1.7.9 1.1 2.1 1.6 1.9.5-.2-1.2 0-1.9-1.2-2.5-1.2-.6-2-3.4-2.5-5.3s-2-4.5-2.9-5c-.1-1.3.1-2-.8-2.7-.9-.7-1.2-1.5-1.2-2.2 0-.7-.5-1.5-.9-1.7-.4-.2-.6-.7-.6-1.3 0-.4-.6-.3-.7.7z"/><path fill="#00D860" d="M415.4 261.8c1.7-.1 6.4-1.5 6.9-2 1.2.8 3.2 1.9 4 1.9-1.7.4-2.7.1-3.2-.1.2.5.8 1.3 1.2 1.4-1.6-.1-3.4-.4-4-1-1.3.5-3.6.6-4.9-.2zM418.5 263.9c.6.2 3.7.7 4.1.7-1 .9-.1 1.7 1.6 1.6-.8.1-1.7.4-1.1.5 1.5.3 5.5-.8 6.3-1.2-1.5 1.8-8.2 3.4-10.9-1.6zM421.2 268.3c.8-.4 2.9-.3 3.9.2-1.1.4-3.2.4-3.9-.2z"/><path d="M424.3 268.3c1.5-.3 5.7.8 7.1-.1-.5 1.3-3.1 1.5-4 1.2-.9-.3-1.8-.7-2.4-.6.4-.2-.2-.3-.7-.5z"/><path fill="#00D860" d="M425.8 270.3c1.1.2 5.1-.3 6.4-.8 1.3.4 3.9 1.1 4.4 1-1.2.8-3.6.3-4.3 0-2.2.8-4 1-6.5-.2z"/><path fill="#00D860" d="M427.7 271c1.6.4 3 .1 4.5-.4.5.2 1.6.5 2.7.4.7.4 1.7 1 2.6 1.1-1 .4-4.5 0-5.3-.4-1.8 0-4.9.4-5.7 1 .2-.5.5-1.2 1.2-1.7z"/><path d="M425.8 262.9c1.2.4 5.8.2 8.1-.9.9-.4 1.5.3.4.7-3.8 1.3-6.7 1.8-8.9.7-.8-.6-.9-1 .4-.5z"/><path fill="#00D860" d="M448 256.7c-5.6 2.6-9.2 3.4-17 1-.7-.2-1.2 0-.4.5.8.5 5.1 1.7 6.1 1.7 1 .1.6.5 0 .7-.6.2-.8.6 0 .3s5.5-.4 7.4.5c.8.4 1 .4 1 0-.1-.3.4-.5 1-.6.6-.1 1-.3.5-.5s-.5-.3-.2-.5c.4-.2.4-.4-.1-.5-.5-.1-.9-.3-.4-.5.5-.3 1.3-.4 1.8-.5.1-.2-.2-1.2.3-1.6z"/><path d="M438.7 257.4c3.2.2 9-1.2 12.1-4.3 1.1.6 2.6 1.4 3.4 1.5.8.1 1.5.9.3.9s-3-.5-3.8-.9c-4.1 2.5-8.9 3.4-12 3.1-.8 0-1-.4 0-.3z"/><path fill="#00D860" d="M429.4 240c1.1.8 3 2 5.5 1.8 1.2 1 3.1 1.8 4 2-1.7.7-3.5 1.3-3.9 1.8-.8-.7-1.7-.6-2-1-.7.6-.6.9-.1 1.2.5.3 4.1.9 5 .7.9-.3 1.1.5.4.8-1.9.7-5.7 0-7-2.1-1.3-2.1-2.4-2.9-6-1-.4-1-.4-1.3-1.1-1.3s-1.9-.9-1-.9c.9.2 3.8-.2 6.2-2z"/><path fill="#00D860" d="M430.2 244.7c-.6.2-2.3 1.1-2.9 1.2-.6.1-1.7.9-.6 1 1.1 0 2.6-1.2 3.4-1.3.8-.2.8-1.1.1-.9zM433.7 248.3c-.4.1-2.3.5-2.8.5s-1 .1-1 .5.2.6-.6.5c-.8-.1-1.4.2-1.6.4-.2.2-.3.4.4.5.8.1 1.2.1 2-.3.9-.4 1.7-1 2.6-1 1.1 0 2.1-1.2 1-1.1z"/><path d="M431.1 250.6c.8.5 4.7 1.8 6.1 1.7 1.4-.1 1.1.6.1.8-2.2.5-4.9-.5-6.7-2-.9-.7-.1-.9.5-.5z"/><path fill="#00D860" d="M449.6 252.5c-3 1-6 .6-7.3.3-1.2-.3-2.3-.4-1.5.4.8.8 3.5 1.3 5 .9-5.4 1.2-6.8 1.1-8.1.9-1.3-.2-3.8-.2-4.9-.1-.8.1-1.9 0-2.3-.3-.5-.3-.6-.8.8-.7 1.4.1 1.6-.1.4-.3-1.2-.2-2.9.3-1.3 1.4 1.7 1 5.3-.1 7.6.6s7.2 1.1 11.9-2.6c.2-.3.6-.8-.3-.5zM434.9 248.1c.1.4.1.8 0 1-.1.3-.1.6.4.2.5-.4.8-.8 1.2-.5.5.3 1.7.2 2.2.1.5-.1.7-.2-.1-.5-.8-.3-1.6-.4-2-.4s-1-.1-1.3-.2c-.4-.1-.5-.1-.4.3z"/><path fill="#00D860" d="M442.6 249.5c-.6 0-1.7-.4-2.3-.6-.6-.3-1.4-.3-.8.5.6.8 3.3 1.3 4.2.9.9-.4.5-.8 1.5-.3.9.6 1.9 1 2.6 1 .7 0 .9 0 .2-.4-.8-.4-1.1-.5-1.2-.9-.1-.4-.2-.6.5-.4.7.2 1.5.6 2 .3s1.5-.9 2.5-.9l.2-.5c-1.3-.1-2.1.3-2.5.4-.4.1-1 .2-1.7.1s-1.6-.2-1.8-.4c-.2-.2-.2-.3.4-.4.6-.1.8-.5 0-.4-.8.1-2.9.1-4-.3s-1.6-.4-2.1-.2-.4.7.3.7 2.2.2 2.8.7c.5.5.5.5-.1.3-.7-.2-1.8 0-.7.8zM452.1 248.2l-.2.5c1.3 0 4.6.3 5.6.9 1-.8.8-1 1.6-.9.7.1 1.6.4 2 .2.4-.2.7-.2 1.1-.1.4.1 1.4-.1 1.9-.4.5-.3 1.7-.8 2.3-.8.6 0 1.4-.1.3-.3-1.2-.2-3 .2-3.6.4-.6.2-2.5.4-3.5.4-1.1 0-2.6.5-3.8.2-1.3-.3-3-.1-3.7-.1z"/><path d="M468.8 247.6c-2.2 1.6-4.8 2-7.9 2.2-.9.1-.6.3.1.4 3.2.3 7-.9 8.2-2.2.4-.4.4-1-.4-.4z"/><path fill="#00D860" d="M454 251.2c.9 0 4.2.9 5.2 1.2.8-.1 1-.3.9-.5-.1-.3-.3-.6 1.2-.5 1.4.1 4.8 0 5.4 0 .5-.2 1.6-1.1 2.1-1.1-1.3.1-6.7.4-7.4.3-.7-.1-1 0-1.5.3-.4.3-.7.4-1.2.1-.5-.2-1.5-.5-2.1-.2-.5.3-1.6 0-2.6.4z"/><path fill="#00D860" d="M466.7 251.4c.5-.2 1.6-1.1 2.1-1.1.9-.1 2 .3 2.5.4.5.1 1 0 .7-.4-.4-.4 0-1.1 1.4-.9 1.5.2 2.2.4 3.7.3 1.4-.1 2.1.9 4.8-.1-.2 1.1.3 1.2.8.9.5-.2 1.1-.1 1.9.5.9.7 6.1.7 7.4.5 1.2-.2 1.9.4.9.7-.9.3-1.2.7-.9 1 .2.3.4.6-.7.5-1.2-.1-1.4.2-1.9.7-.6.4-.7.6-2.3.3-1.6-.3-1.9-.1-2.7.1-.9.1-1.1.1-1.9-.1-.9-.3-2.7-.6-3.9-.2-1.2.4-2 .7-3 .4-1-.3-1.1-.1-.4-.8.6-.7.8-.6 2-.7 1.2-.1 2.2-.5 1.3-1-.9-.5-1.2-.4-2.3.1-1.2.6-1.7.9-3 .2s-1.9-.6-2.8-.4c-1.1.2-2.5-.3-3.7-.9zM471 253.6c-1.7.2-2.1-.8-3.8-.6-.6.1-1.6.8-.2.7 1.3-.1 2.8.6 4.1.5 1.2-.1.7-.7-.1-.6zM469.1 254.8c.9-.3 2.7.3 3.4.1.8-.1 1.5.3.7.6s-2.7-.5-3.6-.2c-.8.3-1.7 0-.5-.5zM451.8 259.5c1.2 0 5.5-.1 7.2-3.8.1-.3.3-.4.8 0s2.5 1.6 6.2 1.9c1 .1 2.2.6.1.5-2.1-.1-5.4-.7-6.5-1.4-1.9 3-5.2 3.3-7.8 3.2-1.5 0-1.1-.4 0-.4z"/><path fill="#00D860" d="M461.1 254.6c-.6.8-2.6 2.2-3.5 2.2-.9.1-3.6-.2-4.3-.4-.7-.3-1.5-.2-.5.5s3.4 1.2 4.4.9c1-.2 2.1-.5 2.9-.1.8.5 2.2 1.4 3 1.2.8-.2 2.5-.2 3.1.1.5.3 1.5 1 .1.6s-2.6-.1-3.2-.4c.7 1 2.4 2.6 3.8 2.6.3 0 .5.6-.1.9.7.3 2.3.6 3.1-.2-.2.3-.1.5.3.7.4.2.8.4.1.5-.6.1-2.1.3-2.6.1 1.4.9 5.1 2.3 8.8 1.6.7-.1 1.1-.4-.1-.4-2.4.1-2.5 0-3-.2-.4-.3-.4-.5.3-.7.7-.2 2.4-.5 3.1-.5.7 0 1.4-.3 0-.3-1.5 0-3.3 0-4-.3-.7-.3-1.3-.6-.5-1.1.8-.5 1.6-.4 1.9-.8-2.4 0-5.3-1.3-3.7-2.5.4-.3.3-.3-.4-.4-.6-.1-2.4-.6-3.2-1-.8-.4-.3-.8.4-.9-1.5.5-4.3-.3-6.2-1.7zM482.3 254.5c-1.3 1-3.8 1.4-4.8 1.4s-1.2.4-.4.5c.8.1 1.7.2 2.1.1.4-.1.6-.1 1.1.1.5.3 1.7.4 2.7.1 1-.3 2.7-.5 3.4-.4.7 0 1.4.1.1-.3-1.4-.4-3.6-.1-4.1 0-.5.1-2 0-1.2-.2.8-.3 1.5-.7 1.9-1-.4-.1-.6-.2-.8-.3zM481.6 257.3c-1.1.8-2.7 1.6-4.4 1.7 1.5.5 2.8 2.1 3.8 2-.5.3-1 .7-1.7.8.9.3 2.5 0 3.8-.8 2.2.6 5 .2 5.9-.6-1.4 0-3.1-.5-3.9-1.2.7 0 1.3-.4 1.7-.8-1.6.4-4.4-.4-5.2-1.1z"/><path fill="#00D860" d="M479.3 261.8c.6-.1 1.2-.5 1.7-.8-1.2.4-6.4-.4-7.9-1.8-1.6-1.4-1.6-.3-.5.7 1 1 3 2.5 6.7 1.9zM483.1 265.2c-.6.4-3.8.6-4.8.4-1-.2-1.4-.1-1.2.3s.4.8-.5.7c-.8-.1-2.3.1-2.9.3-.6.2-1.4.8-.1.5 1.3-.2 2.5-.5 3.5-.2s4.4.3 5.1 0c.7-.3.2-.3-.1-.3-.3 0-.5-.2 0-.4.6-.3.9-.9 1-1.3zM453.1 261c-1.3.6-5.6 1.7-6.8 1.8-1.4.7-2.6 1-3.3 1 .5.4 2.5.9 3.2.7-.4.4-1.4.9-1.8 1.2 1.2-.1 2.5.1 3.1.2-1.5.9-3.6 1.2-4.7 1 .4.5.9 1 1.5 1-1.4.4-3 .4-3.9.1.4.7.7 1.2 1.2 1.2-1.2.1-2.6.4-3.8-.4.9 1.2 3 1.7 6.1 1.3 3.1-.4 5.7-1.7 6.4-2.3-1.3.1-3 .2-3.9.1 1.7-.4 5.5-2 6.1-2.7-.7 0-1.4-.2-1.9-.6 1 .1 4.5-.3 5.6-.7-1.3-.3-2.1-1.1-2.5-1.6 4.5 1.4 9.6 1 12.1.4.6-.1.6-.9-.5-.8-2 .1-5.9-.4-6.9-.9.9.7 2.1 1.2 2.9 1.3-1.8.4-4.4.8-8.2-1.3z"/><path fill="#00D860" d="M444.4 265.6c.4-.2 1.4-.7 1.8-1.2-.8.2-2.7-.2-3.2-.7.7 0 1.9-.4 3.3-1-2.6-.1-4.4-.1-5.3-.6-.9-.5-2.7-.4-3.3-.2-.6.1-.4 1.2 2.3.9-1.2.8-4.3 1.1-5.4.8.3.9.5 1.9.2 2.4 1.5.9 5.5 2 7.4 1.8-1.7-.6-2.7-1.4-1.2-1.5 1.4 0 2.2-.3 3.4-.7z"/><path d="M440 270.3c3.5-.3 8.1-.3 11.8-3.5.9-.8 1.6-.5.6.3-1.9 1.7-6.8 4.1-11.4 4.2-1.9 0-2.8-.9-1-1z"/><path fill="#00D860" d="M465.8 264.6c-.9.3-3.3.7-4 .6-.7-.1-1.8-.1-2.3.2-.6.4-.6.6.2.7.8.1 1.8.1 2.3.1-.6.4-1.1.9-1.2 1.1 1.2-.3 3.3.2 3.9.6-.5.1-1 0-1.4-.3 1.9 2.1 7.7 2.1 8.7 1.7-.4.3-.8.7-1.3.8 1.6.3 3.5.3 5.3-.8-.6.1-2.5-.1-2.9-.1.4-.4.9-.7 1.4-.8-.7-.1-3-.1-3.5.2.2-.4.6-1 1-1.2-2.9 0-6.3 0-7.6-.7 2 .2 4.3-1 5.2-1-1.6-.1-3.3-.5-3.8-1.1zM458.6 266.2c-1.4.3-3.5.9-4.1 1.2-.6.3-1.2.5.1.5s4.7.1 5.4.3c-1.9-.3-4.5-.4-5-.4s-1.1 0-.1-.3c.9-.3 2.1-1 3.7-1.3zM455.7 269.5c.5 0 2.7 0 3.6-.8.9.7 2.6 1.7 3.8 1.7 1.1 0 1 .3 0 .4-1 .1-2.9-.5-3.9-1.2-1.3.5-2.3.1-3.5-.1zM439 279.2c2.2.9 5.2 1.5 7.4.8 1.2 1.1 3.8 1.2 5.1.9 1.4-.3 2.6-.4 4.1.1 1.5.5 4.6.5 5.5 1.3-.8 0-2.5 0-2.9.1-.4.1-.2.4.5.8-2.5-.1-6.7.9-8 2 .5-1.1 1.9-2.6 4.2-2.6-1.3-.5-5.4-.5-6.8.3-.4-.4-.9-1.2-.9-1.4-2.1 1.1-6.4-.7-8.2-2.3zM433.3 275.2c2.7-.4 4.5-1.2 5.3-2 .5.4 2.4.9 4.5.2-.4.3-.5.9-.3 1.3-1.4 0-4.1.7-5 1.2-.9.5-3.5.8-4.4.3-.8-.5-.9-.9-.1-1z"/><path fill="#00D860" d="M442.8 274.7c-1.4 0-4.1.7-5 1.2.2.4.3.9.3 1.3 2.6-.9 8.6-1.5 10.8-1.2-1.1.1-3.1 1.2-4.3 1.3 2.8-.2 5.6.4 6.3.5.7.2.9.7.3 1.2-.5.5-.8.6.4.6 1.2 0 3.5-.1 4.6-1.2-.4-.5-1.6-.3-1.9-.6.8-.3 1.6-.8 1.9-1.2-1.9 0-2.7-.1-3.3-.2-.6-.1-1.1-.3-.3-.8.8-.4 1.2-.8 1.4-1.1-1.4.4-3.6.7-5.4-.7.7.2 2.3.1 2.9-.2-.6-.3-1.1-.6-1.6-.6 1.5-.7 4.4-1.4 8 .1 1.8-.1 3.8-.1 5.1.3.6-.6 1.8-2 2.5-2.3-4.3.4-11.9-.4-11.8-2.7-1.4 1.8-4.5 2.8-5.9 2.5-.1.7.4 1.4.9 1.9-1.4.3-3.9.5-5.1.3.6.7 1.9 1.2 2.6 1.2-1.4.2-2.2.5-3.4.4z"/><path fill="#00D860" d="M451.7 279.8c1.2 0 3.5-.1 4.6-1.2-.4-.5-1.6-.3-1.9-.6.8-.3 1.6-.8 1.9-1.2 3-.3 5.7-.1 7-.5 1.3-.4 4.6-.2 5.3-.4-2.9.5-3.5.7-3.6 1.2s.9.9 1.6.9c-1.3-.1-2.9 1.3-3.1 1.8-1.7-1-2.6.2-2.7.6-.7-.3-3.1-.2-4.3.8-1.6-.5-2.6-.7-4.2-.5 1-.2.8-.8-.6-.9zM465.5 271.3c1 0 3.1.1 3.9 0-.5.3-1.2.7-1.3.9 2.5-.3 5.8-.5 6.8-.3-1.2-.2-2.4.6-3 1-.6.4-.3.7.6.8.8.1 1.9.8.4.5-1.5-.2-4.5-.2-5.2-.1-.7.1-1.1-.3-.1-.4 1-.1 1.8-.5 2.3-.8-.9.2-2.5.2-3 .1s-.8-.4-.3-.6c.6-.1.2-.4-.4-.3-.6.1-2.2.7-3 1.6.8-1.1 1.6-1.9 2.3-2.4z"/><path d="M454.5 272.9c1.2 1.3 2.6 2.1 4.8 2.2.5 0 1.3.6.2.7-3 .1-4.5-.6-5.9-2.6-.2-.4.3-.9.9-.3zM472.6 247.7c1.6.8 4.8 1.4 7.3 1.3.4 0 1.3.4.2.5-2.8.3-5.3-.1-7.7-1.4-.6-.4-.4-.7.2-.4z"/><path fill="#00D860" d="M474.2 247.7c2.5-.1 4.3 0 5.1.7 1.4-.4 3.9-.7 4.5-.6.6.1 1.2-.1-.1-.5-1.3-.3-4.4-.4-5.4-.2s-4 .3-5 .2c.4 0 .7.1.9.4zM483.7 248.6c1.2-.6 4.5 0 5.5-.5-.7.9 2.3.9 4.9.3-1 .7-3.2.8-4.1 1.2-.9.4-1.4.1-2.2-.2-.6-.4-2.5-1-4.1-.8z"/><path fill="#00D860" d="M494.2 248.4c-2.6.7-5.7.6-4.9-.3-1 .4-4.3-.1-5.5.5 1.2-.7 2.1-.1 3-1.6.5.1 1.8.2 2.2-.4.8.2 2.1.5 2.5.9.4.4 1-.1.5-.7 1.2-.4.4.5 3.2-.2.6-.1 2-.4 2.5-.4-1 .7-2.2 1.6-3.5 2.2z"/><path fill="#FF0" stroke="#000" stroke-width=".125" d="M442.9 236.3c0-5.5-.6-51.2-.6-61.7 0-2.5-1.3-2-1.3 0v61.5c.6 0 1.5.1 1.9.2zM463 171.2l2.3 65.2-.4.5h-1.3l-1.4-65.7h.8zM482 226.3c-.2-6.6-1-37.4-1.3-52.5 0-2-1.2-1.7-1.2.1.1 12.2.9 46.3 1 52.5.4-.1 1.2-.1 1.5-.1z"/><path fill="#FFF" stroke="#000" stroke-width=".125" d="M451.9 182.1l-19.2-.3c-1.1 3.9 3.8 3.8 5.6 2.8 2.1 1.6 3.7 1.4 4.8.1 1.7 1.4 3.8 1 4.6.1 2.4 1.8 4.8.1 4.2-2.7zM453.4 191.8l-19.6-.1c-3.4 3.2 1 4.8 4.8 2.6.5 1.1 2.8 1.7 4.6.9 1.7 1.3 3.8.4 4.8-.7 2 .9 4.4 1.1 5.4-2.7zM452.8 204l-18.9-.1c-.4 3.4 3.5 3 5 2.1 1.4 2.2 4.6 1.7 5.8.4 1.8 1.2 3.5.9 4.4-.2 2.1 1.8 3.9-.5 3.7-2.2zM453.8 216.3l-21.1-.4c-1.2 3.6 2.1 4.3 3.6 3.4.5 2.1 3.3 1.4 4-.1 1.1 1.1 2.5.5 3.1-.2.3 2 2.7 2 4.6.4 3.8 2.6 7.4-.5 5.8-3.1zM472.5 211.2l-17.6-.1c.8 3.6 2.5 4.5 5.3 2.5 2.1 2.2 5.6 1.4 6.4.3 3.9 3 6-.6 5.9-2.7zM470.7 199.2l-17-.5c.3 4.3 4.4 4.2 6.5 2.3 1.6 2 4.4 1.4 5.4 0 2.2 2.2 5.7.9 5.1-1.8zM473 185.6h-18.3c.2 3 4.3 4.8 7.4 1.9.9 3.5 4.2 2.4 5.6 1 2 2.7 6.8-.4 5.3-2.9zM471.9 176.4l-16.4.2c-.3 2.7 3.6 3.8 5.1 1.7.8 1.4 3.5 1.2 4.3-.1 1.3 2 2.9.7 3.4 0 1.8 1.3 3.9.7 3.6-1.8zM491.1 182.4l-20.1-.2c-.1 2.1 2.1 3 3.4 2.1 0 2 2.8 2.7 4.6 1.1 1.2 1.7 4.8 2.2 6.3-.1 3 2.3 6.1.6 5.8-2.9zM490.8 198.8l-19.6-.1c.1 2.7 3.3 3.7 5.1 2.2.4 2.3 2.9 2.5 4.3 1.3 1.7 2 4.6 2.1 6.2-.1 2.4 1 4.2-1 4-3.3zM489.8 213.6l-15.5-.2c0 2.7 3.2 3.1 4.7 1.7 1.5 1.8 3.8 1.8 5.1.4 2.1 1.7 5.2 1.2 5.7-1.9z"/><path stroke="#000" stroke-width=".125" d="M464.9 236.9c-8.4.1-16.9.1-22.7-.7-5.8-.9-7.6-1.7-11.5-4-5.9-3.5-7.4-4.4-15.7-9.3-1.3-.8-2.7.2-.9 1.4 8.4 5.6 11.6 7.6 15.7 10.3 4.2 2.7 6.9 5.2 9.5 8.1 3.3 3.8 5.8 3.8 7.3 3.3 1.5-.6 3.9-1.4 6.3-.8 2.4.6 5.6.7 7.2.4 1.5 1.4 5 1.1 6.9.7 1.9-.4 3.4-.7 4.8-.4 1.4.3 3.5.1 4.8-.1 1.4-.2 5-.6 7.5-.2 2.5.4 5.1.1 6.8-.4 1.7-.5 4.7-.4 5.7-.1 1.4-1.1 2.2-2.5 2.5-3.9 1.7-.2 2.3-.4 2.6-1.4.7-1.8 1.3-3.6 1.6-4.4h.7l.2-1.6-1.4-1.6.5-3.1 1.5-.4c.1-.9-.4-2.4-.6-3-9.1.4-18 .6-24.4.8-.7.6-1.5 2.1-1.7 3-3.9.6-6.2.9-7.2 1.2s-1.6.3-2.4 1.4c-1.4 1.5-2.6 3.5-3.6 4.8z"/><path stroke="#000" stroke-width=".125" d="M494.1 225.9c.4-1.5 1.6-5.7 3.8-13.4.4-1.3-.9-1.8-1.4-.1-2.5 9.1-3.5 12.5-3.8 13.6.4 0 1.1-.1 1.4-.1z"/><path fill="#FFF" stroke="#000" stroke-width=".125" d="M508.2 210.7c-3.1 1.6-4.5 2.2-6 1.7-1.3-.5-3.2-.8-4.3-.2 0 .1 0 .2-.1.4-1.3 4.8-2.3 8.2-2.9 10.5 2.3.8 6.2.9 7.1-.1.9-1 3.5-.8 4.8-.7.8-1.1 1.2-2.4.9-3.1-.2-.6-.1-1.8.2-2.7.4-1 .8-4 .3-5.8z"/><path fill="none" stroke="#000" stroke-width=".125" d="M438.3 184.6c-3.4 9.8-15.2 31.8-22.3 38.9M421.5 226.7c8.1-6.2 28.4-26.5 31.9-35M433.9 203.9c-.9 7.4-3.1 20.7-4.2 27.7M437.1 220.5c-2.7 2.7-6.6 7.3-9.5 9.9M462.9 205.6c-2.3 2.2-4.9 4.8-7.3 5.5M464.2 206c2 2.2 4.9 4.6 7.3 5.3M462.6 194c-2.1 1.8-5.2 3.9-8 4.7M463.8 194.4c1.8 1.5 3.7 3.7 6 4.7M455.1 185.6c2.2-.7 5.6-2.4 7.3-4.2M463.3 181.1c2 2.2 5.7 4 7.6 4.5M455.5 176.6c2.3-.5 5.2-1.7 6.7-3.9M463 172.1c1.9 1.7 5.4 4.1 7.6 4.3M479.5 178.6c-1.3 1.3-4.3 3.6-6.3 3.6M480.8 178.5c.9 1.4 3.2 3.7 4.5 3.8M471.9 198.8c2.5-.9 6.1-2.9 7.8-5.1M481.2 193.8c.7 1.3 3.6 4.3 5.1 5M474.9 213.4c1.2-.2 4.3-1.8 5.2-3.7M481.5 208.8c1.2 1.5 4.1 4.2 5.9 4.8M435.2 216c3.5-1.1 10.7-5.5 14.2-9.6M442.7 211.6c3 2.1 6.4 4.2 9 4.7M434.6 203.9c1.9-.8 4.5-2.2 6.5-4.3M442.5 199.3c.8 1.1 6.6 4.7 9.1 4.7M441 187.8c-1.5 1.2-5.2 3.4-6.9 3.9M442.4 187.9c2 1.4 6 3.9 8.8 3.9M441 176.5c-1.6 1.8-4.4 4.7-6.6 5.3M442.4 176.9c1.3 2 4.6 4.8 6.8 5.1M471.6 189.1c5.1 9.3 14.4 20.7 23.9 26.7M456.4 178.7c7.7 11 22.8 35.3 37.1 44.2M496.2 213.5c-2.3 3.2-6.5 8.2-13.3 12.8M495.3 216.5c-4.8-7.7-7.3-17.5-11-30.3M445.1 220.5l6 16.4M444 220.1l5.3 16.7M442.9 219.4l4.9 17.4M442.4 219.6l3.8 17M446 236h4.7M450.1 234.3h-4.4M449.6 232.9h-4.3M449.1 231.5H445M448.6 230h-3.9M444.4 228.7h3.7M444.1 227.4h3.5M443.8 226.1h3.3M443.6 224.9h3.1M443.3 223.7h3M443 222.5h2.8M442.8 221.5h2.8M442.6 220.6h2.6M438 220.6l-3.4 13.7M438.9 220.4l-2.9 14.5M439.7 219.9l-2.3 15.4M440.7 219.5l-1.7 16.1M441 234.7h-5.3M441 233.3h-6.2M441 231.7h-5.8M441 230.3h-5.5M441 228.8h-5.1M441 227.2h-4.7M441 225.8h-4.4M441 224.3h-4M441 222.9h-3.7M441 221.7h-3.4M441 220.7h-3.1M441 236v-16.3M459 214.3l-11.2 22.4M459.7 213.9l-9.5 22.9M460.4 213.7l-7.6 23.3M460.9 214.1L455 237M455.3 235.9h-7M455.8 233.9h-6.6M456.1 232.2h-6M456.7 230.4H451M457 229h-5.3M457.5 227.3h-5M458 225.4h-4.5M458.4 223.9h-4.1M458.8 222.2h-3.7M459.1 221h-3.5M459.4 220h-3.2M459.7 218.9h-2.9M459.9 217.9h-2.7M460.2 216.9h-2.5M460.4 215.9h-2.2M460.7 215h-2M467.9 214.7l4.9 15.5M468.9 215l5.9 14.9M469.7 215l7 14.5M478.3 228.3l-7.7-13.6M478.3 228.3h-6.1M477.3 226.5h-5.6M476.3 224.6h-5.1M475.2 222.8h-4.7M474.2 220.9H470M473.1 219.1h-3.8M472.1 217.3h-3.3M471 215.4h-2.9M477.3 215.9l-4.8 14.4M478.8 215.2l-4.4 14.7M476.4 229.6l3.3-13.9M480.5 216.2l-2.7 13.2M473.1 228.6h4.8M473.7 226.8h4.6M474.3 225h4.4M474.9 223.2h4.1M475.5 221.4h3.9M476.1 219.6h3.7M476.7 217.8h3.5M477.3 216.1h2.9M482.7 216.4l2.3 9.9M483.5 215.9l3.2 10.3M484.6 215.8l3.5 10.3M486.1 216.4l3.5 9.7M489.3 225.2h-4.5M488.8 223.8h-4.3M488.3 222.3h-4.1M487.7 220.9h-4M487.2 219.5h-3.8M486.7 218h-3.6M486.1 216.6h-3.4"/><path fill="#00B800" d="M440.2 242.1c2.2-1.4 6.1-1.2 8 .3 2.3-1.3 6.5-.9 8.4.8 3-2 5.5-2.3 8.4-.4 2.2-1.6 5.7-1.7 8.4.1 2.6-1.2 5.5-2.2 8 .4-1.5-1.1-4.8-2-8 .5-2.5-2.5-6.9-1.6-8.4.1-1.9-2.2-5.8-2.6-8.2.1-2.6-2.2-6.5-2.2-8.6-.6-1.7-1.1-4.1-2.2-8-1.3z"/><path fill="#CF6200" d="M479.6 239c-11.5 2-36.5.6-42-.8-1.9-.5-1.4-1.2.2-.8 6.3 1.4 19.8 1.4 27.2 1.1 1.4-1.9 3.7-5.2 4.4-6.1.7-.9 1-1 2.4-1.2 2.6-.4 4-.7 6.2-1v.9c-.2.1-.4.4-.5.5 0 1.5.3 5.1.6 6.4.3 0 .6-.1.8-.2.7-.3 1.2 1 .7 1.2z"/><path fill="#CF6200" d="M498.4 239.5h1.5c.5 0 1.1-.3 1.4-1.1.3-.7 1.2-3.4 1.5-4.5l-1.2-1.7c.3-1.4.6-3.4.6-3.8l1.5-.5c.1-.3-.1-1.2-.4-1.5-4.9.2-19.7.7-22.4.7-.6 0-.9 0-1.2.9-1.4 5.1.5 12.3 5.7 16.5.4.3.8 0 .2-.5-.9-.8-2.2-2.4-3.1-4 1 0 3.1-.1 3.7-.1.3 1.2 1.2 3.8 1.4 4.2.2.4.6.5.4-.2-.5-1.5-.8-3.2-1-4.1.9 0 2.7 0 3.8-.1.1 1.4.2 3.2.2 3.7s.5.5.5 0v-3.7c1.2 0 2.8-.1 3.4-.1-.1.8-.2 3.3-.3 3.7-.1.6.2.9.4 0 .1-.8.4-2.8.5-3.8.5 0 1.8-.1 2.3-.1-.1.8-.8 3.1-1 3.7-.2.6.1.6.4.1.4-.5 1.2-2.8 1.2-3.7z"/><path d="M482 238.9c-.4-.8-1.6-3.6-1.7-5.7 1 0 3.7-.1 4.9-.1.2 1.6.7 4.9.9 5.7-1.4.1-3.2.1-4.1.1zM486.1 233.1c.1 1.2.8 5.2.9 5.7 1.1-.1 3.6-.1 4-.1 0-1.1-.2-5.1-.2-5.7-1.2.1-4.1.1-4.7.1zM480.5 228.1c-.2 1-.2 3.3-.2 4.2 1.3 0 4.4-.1 4.8-.1-.1-1.1-.3-3-.4-4.2-1 0-3.5.1-4.2.1zM485.7 228c0 1 .3 3.5.3 4.2 1.1 0 3.8-.1 4.7-.1 0-.9-.2-3.9-.2-4.3-1.5.1-3.9.2-4.8.2zM491.4 227.8c0 .9.2 3.6.1 4.3 1.2 0 3.4-.1 4.1-.1.1-.9.2-3.6.1-4.3-1.3 0-3.3.1-4.3.1zM496.5 227.6c0 .8-.1 3.6-.1 4.3 1.1 0 3.8-.1 4.4-.2.2-.9.5-3.3.6-4.4-1 .2-4.1.3-4.9.3zM501 232.7c-1.5 0-3.9.1-4.7.1-.1 1.8-.4 5-.5 5.7 1.3 0 3.9-.1 4.5-.1.4-.9 1.4-3.6 1.6-4.4-.3-.5-.5-.7-.9-1.3zM491.6 233c0 .7.1 5.3.1 5.7.8 0 3-.1 3.4-.1.2-1.8.4-5.3.5-5.7-1.6 0-3 .1-4 .1zM472.4 231.9l-1.9.3c-.9 1.4-4.1 5.7-4.5 6.2 2.2-.1 5.7-.1 6.6-.2 0-1.1-.2-5.7-.2-6.3zM473.2 231.7c0 1.5.2 5.4.2 6.5 1.1-.1 3.1-.2 4-.3-.2-1.9-.5-6.3-.6-6.8-.9.2-2.7.5-3.6.6z"/><path stroke="#000" stroke-width=".125" d="M453.9 216.1c.3 0 .3.2 0 .2l-21.3-.3c-.3 0-.2-.2 0-.2l21.3.3zM470.6 199.1c.3 0 .3.2 0 .2l-16.9-.5c-.3 0-.2-.2 0-.2l16.9.5zM452.8 203.9c.3 0 .3.2 0 .2l-18.9-.1c-.3 0-.2-.2 0-.2l18.9.1zM453.4 191.7c.3 0 .3.2 0 .2l-19.8-.1c-.3 0-.2-.2 0-.2l19.8.1zM452 182c.3 0 .3.2 0 .2l-19.2-.3c-.3 0-.2-.2 0-.2l19.2.3z"/><path fill="#FFF" stroke="#000" stroke-width=".125" d="M471.9 176.3c.3 0 .3.2 0 .2l-16.5.2c-.3 0-.3-.2 0-.2l16.5-.2z"/><path stroke="#000" stroke-width=".125" d="M472.9 185.5c.3 0 .3.2 0 .2h-18.2c-.3 0-.3-.2 0-.2h18.2zM490.8 198.7c.3 0 .3.2 0 .2h-19.6c-.3 0-.3-.2 0-.2h19.6zM491.1 182.2c.3 0 .3.2 0 .2l-20.1-.2c-.3 0-.2-.2 0-.2l20.1.2zM472.5 211.1c.3 0 .3.2 0 .2l-17.7-.1c-.3 0-.2-.2 0-.2l17.7.1zM489.8 213.5c.3 0 .3.2 0 .2l-15.5-.2c-.3 0-.2-.2 0-.2l15.5.2z"/><path fill="#EF072D" stroke="#000" stroke-width=".125" d="M503.8 216.5c.4-1 .5-3.2.2-4-.7.1-1.2.1-1.8-.1l-.9-.3c-.1 1.1-.5 4-1 5.1-.9.2-2.6 0-3.6-.4-.3.9-.5 1.8-.7 2.6 1.2.3 2.8.3 4 0-.1 1.7-.3 3.2-1.2 4.2 1.5 0 2.8-.2 3.3-.7 0-.1.1-.1.1-.1.7-1.1.7-2.6.9-3.6.5 0 1.2-.1 1.4-.4.3-.3.8-.4 1.2-.4.4 0 1.1-.1 1.9-.4 0-.5.1-1.1.3-1.6.1-.3.2-.7.3-1.2-1 .4-3.4 1.3-4.4 1.3z"/><path d="M434.9 122.4c-2.2.1-7 .1-8 .7s-1.4.8.3 1.1c1.8.3 4.7 1.2 6.4 2.2 1.6 1 3 2.8 2.5 5.3-1.3 7.6 2.6 14.9 8.4 17.7.6.3.7.5.6 1.5-.1 1-.5 2.8-.8 3.2-.3.4-.5 1.2.5.8-.7 1.3-2.2 3.9-2.7 4.5-4.6-.6-8.4.1-8.7 4.9 0 .5.1 1.2.8 0 .7-1.2 1.5-2.3 3.5-2.6-1.2 1.8-1.5 3.4-1.3 4.4.2 1 .5 1.7 1 .3.5-1.3 1.4-2.6 2.4-3.3.4-.3.6-.3.3.5s.1 2.6.7 3.2c.6.6.8.3.7-.6-.2-1 .1-3 1.3-3.6 1.7-.9 3.2-.4 3.9.8.7 1.2 1.3.1.5-1.3-.8-1.4-1.5-2.3-2.8-2.4 1.1-1.9 2.4-4.3 2.7-4.8.3-.5.7-.7 1.1-.4.4.3.6.2 1-.5.4-.8 1-3.1 2-4.1.5-.1 1.2-.3 1.5-.6 1.2 1.8 2.3 3.8 2.6 4.2.3.4.6.6.3 1.5s-1.3 3.8-1.4 4.4c-3.4.1-5 .2-6.1 2.1-.5.8.3 1.2 1.1.7.8-.4 2-.8 2.6-.7.6.1.9.4.3.7-2.1 1-3.4 2.4-3.3 4.2 0 .7.3 1 .8.1.7-1.3 2-2.5 3.6-2.9-.1 1.5.3 3.8 1.2 4.3.9.5 1 0 .7-.9-.6-1.4 0-2.9.7-3.7 1.5-1.6 4.8.6 5.5 1.2.6.6 1.2.8.8-.7-.5-1.9-3.2-3.1-5.6-3.4.7-3.2 2.4-9.6 3.4-11.8 1.4.8 2.5-1.2 4.8-.4 3.9 1.4 9.7 5.1 10.7 5.9 1 .8 1.4.6 1.9.2.5-.4 1.4 0 2.1.1.7.1 1.3.3.4-1.4-.9-1.8-3-4.8-6.6-7.2 2.1.2 5 .2 5-.4 0-.6-3.3-1.6-4.7-1.8 1.3-.3 3.3-1.1 4.3-2.1.6-.6-.1-.8-2.1-.8-6-.1-9-.1-12.2-1.9-5-2.9-7.9-5.9-10.4-7.2-1.3-.7-2.1-2.3-2.6-3.7-1.6-4.4-1.5-6.4-5.4-7.8-3.8-1.3-8.2.5-10.2 2.3z"/><path fill="#FFF" stroke="#000" stroke-width=".125" d="M435.1 123.4c-1 0-2.9-.3-4.5-.1-.4 0-.8.2.1.3.9.1 3.2.7 4 1 .8.3.5.7-.3.5-.7-.2-1 .1-.4.5 3.1 2.2 3.4 3 2.6 10.4.6.4 1 .7 1.6.9.5.3.4.6-.2.5s-1 .2-.2.4c.9.2 1.3.6.4.5-.8 0-1.8.7-.2.5 1.6-.2 2.3.6.4.6s-1.2.7-.2.7c1.8 0 1.3.5.8.5s-.7.6.5.5c1.2-.1 1.7-.1 2.1-.1.4.1.6.4 0 .5-.6 0-.6.5.4.5s1.4.3.5.5c-.4.1-.9.3.2.4 1.8.3 1.9.7 1.3.8-.6.1-.6.4.2.5.8.1 1.5.3.9.5-.7.2-1 .6-.2.7.9.1 1.6.4.9.6-.6.2-.8.6 0 .6s1.2.4.6.8c-.6.3-1 .5-1.3 0-.4-.6-.6-.8-.7-.3-.1.4-.4.1-.6-.5-.3-.6-.8-.8-.6-.3.1.5-.5.6-1.1.3 2.3 2.3 5.6 4.4 11 2.2.5-.2.5 0 .9.8s1.4 2.4 1.7 3c.4.6.6.1.8-.5.7-2.4 1.3-4.2 1.5-4.8.2-.7 1.2-1.3.9 1 .8-.5 4.3-1.1 7 0 3 1.1 6 2.9 7.5 4 .3.2.6.5 1.4.4.7-.1.9-.2-.5-1.4-1.4-1.3-.8-1.9.1-1.3.9.6 1.3.3.7-.5-.6-.8-2.2-2.2-2.7-2.6-.5-.4-.6-.5-1.7-.6-1.2-.1-3.6-.1-4.3-.1-.7 0-.9.1.6.6 1.6.6 4.8 2.7 5.6 3.2.7.5 1.2 1.7-.4.7s-6.6-4.1-9.9-5.3c-7.6.5-13.6 1.5-18-3.4-2.1-2.4-2.2-7.7 1.4-10-.7-.6-.6-1-.3-1.1s.4-.3.1-.7c-.3-.4-.3-.7 0-.8-.8-.4-1.2-.9-1.1-1.5-1-.2-1.4-1.4-2.7-1-1.3.4-1.9.1-2.3-.3-.4-.3-.7-.5-1.4-.4-.7.1-1.3-.2-1.3-.6 0-.4.6-.5 1.6-.1 2.1.9 3.7 1.3 5-.4 1.3-1.7-.4-3.3-2.8-3.8-2.7-.5-4.5 1.3-5.4 2.1z"/><path fill="#FFF" stroke="#000" stroke-width=".125" d="M447.3 122.8c-.7-.8-2-1.5-2.7-1.7-.6-.2-.7.4-.4.8-.3.4-.4 1.5.1 1.8.5.3.5.7 0 .9-.7.4-.5 2.3.6 1.7.4-.2.6-.1.6.2-.1.3.1.7.4.7.3.1.3.5.2.7-.1.2 0 .3.4.3s.4.9-.3 1.2c.8 0 1-.1 1.2.5.2.6 1.1.8 1.1 1.6s-.1.9-1.1.8c-.9-.1-1.3.1-1.6.5-.3.4-.4.7.4.8s.9.4.1.7-1.9.1-2.1.8c-.2.7 0 1 .5.8.5-.2 1.7-.7 2.1-1 .4-.3.8-.3 1.2.3.4.6.1 1.2-.5.7s-.9 0-1.3.2c-.4.3-.9.5-1.5.5s-1 .1-.9 1.4c.2 3.9 3.2 6.8 8.8 6.7 5.6-.1 8.3-.1 9.1 0-1.8-1-3-1.6-3.6-1.5-.6.1-1.2.2-.9-.3.3-.5 0-.5-.3-.7-.3-.2-.6-.5-1.2.1s-1.9 1.3-2.6 1.4-1.5.1-.9-.5c.6-.7 2.1-.9 2.5-1.2.4-.3.4-.5.4-.7 0-.2-.1-.8.7-.4 1.7.9 4.3 2.3 4.9 2.3s1.2-.3.5-.7c-.6-.4-.8-1-.6-1.2.2-.2.3-.4 1.4.2 1.1.6 2.8 1.4 3.5 1.7s1.5.2.2-.8-5.5-3.7-6.6-4.6c-1.2-.9-.6.2-.5.5.1.3-.8.7-1.3.3-.5-.4-.8-.8-.1-1.2.6-.4.8-.4-.2-1.3s-1.3-.8-1-.1c.2.7.3 1.5-.7 1.1-1-.4-1.5-.9-.9-1.3s1.5-.6.4-1.5-.8 0-1 .5-1.1.5-1.6.1-.7-.8-.4-1.1c.3-.3.3-.5.8-.3.5.3 1.2.1.3-.7-.9-.8-1.2-.4-1 0 .2.4-.5 1.2-1.6.2-.5-.5-.5-1.1 0-1.2.5-.1.6-.4.2-.9-1.9-3.1-1-5.7-3.2-8.1z"/><path fill="#CF6200" d="M447.6 123.2c-.2.3-.3.3-.6.5-.4.3-.5 1.1.2 1 .5-.1.8-.4 1-.6-.2-.3-.3-.6-.6-.9zM445.4 121.4c-.6.5-.7.8-.4.8.3 0 .2 0 0 .4s.5.6.8.3c.3-.3.3-.4.5 0 .1.3.6 0 .9-.3-.6-.4-1.3-.9-1.8-1.2z"/><path fill="#CF6200" d="M444.4 124.5c-.7.4-.5 2.3.6 1.7.4-.2.6-.1.6.2 0 .2 0 .3.1.5.4-.2.9-.5 1.2-.9.7-.8 0-.7-1-.7s-1.3-.2-.3-.8c.9-.5.3-.9-.9-.7.1.3 0 .6-.3.7zM448.5 128.8c-.5-.6-.2-.9.4-1.2l.3-.3c-.2-.6-.3-1.2-.5-1.8-.3.1-.7.8-.8 1.1-.1.5-.3.8-.8.6-.4-.1-.9.4-.9.9.1 0 .2 0 .3.1.2 0 .3.3.2.6 1.3 0 1.5.9 1.7 1.5.2.7.5.6.7.2.4-.5-.1-1.1-.6-1.7z"/><path fill="#FF0" d="M448.9 136.4c-.2.5-.2.5-1 .5-.8.1-1.7.2-2.2.6-.2.2-1.6.3-1.6.9 0 .6 0 1.1.6 1.1s.6.1.4.5c-.2.4-.4 1.2.6 1.2 1 .1 1.7-.3 2 .3.3.6 0 1.5.2 1.8.2.3.9.6 1.9.9.7.2 3.4.3 4.2.3.8-.1.5-.6-.3-.7-.8-.1-1.4-.2-1.6-.8-.2-.6-.4-.9.1-1.4.5-.5.9-.9.6-1.7-.3-.8-.7-1.8-1.7-2.1-1-.3-.7-1.6-1.6-1.7-.2 0-.5 0-.6.3z"/><path fill="#CF6200" d="M444.2 144.2c.8.1 1.5.3.9.5-.7.2-1 .6-.2.7.9.1 1.6.4.9.6-.6.2-.8.6 0 .6s1.2.4.6.8c-.6.3-1 .5-1.3 0-.4-.6-.6-.8-.7-.3-.1.4-.4.1-.6-.5-.3-.6-.8-.8-.6-.3.1.5-.5.6-1.1.3.6.6 1.3 1.2 2.1 1.7.9-.3 1.9-.1 2.2 0 .4 0 1.5.3 2.1.6.6.3 1-.3.8-.9-.3-.6-.3-.4-.6-.1-.3.4-.4-.1-.4-.9 0-.6-.4-.5-.5-.1s-.5-.3-.3-.6c.2-.4 0-.5-.4-.4-.3.1-.4 0-.4-.7s-.4-.6-.5-.3c-.1.3-.4-.1-.8-.7-.4-.5-.8-.2-1.6.1 0-.2.2-.1.4-.1z"/><path fill="#FF0" d="M453 148.7c-3.9 1.6-6.8.9-8.9-.5.9-.3 1.9 0 2.2 0 .4 0 1.5.3 2.1.6.6.3 1-.3.8-.9.5.7.9 1.2 1.6 1.1.6-.1 1.7-.2 2.2-.3zM444.6 130.5c-.2-.8-.5-1-.9-1s-.6-.1-1.1-.2c-.5-.2-1.1 0-1.2.9-.1.9-.6 1.3-1.3 1.8-.7.5-1.2 1-1.2 1.8s-.2 1.1-.7 1.7c-.2.3-.5.6-.8.9.3.2.6.4.9.5.5.3.4.6-.2.5s-1 .2-.2.4c.9.2 1.3.6.4.5-.8 0-1.8.7-.2.5 1.6-.2 2.3.6.4.6s-1.2.7-.2.7c1.8 0 1.3.5.8.5s-.7.6.5.5h.1c.2-.2.3-.4.4-.7.2-.6.4-2.3 1.1-2.7.7-.5 1-1.2 1-1.6 0-.5 1-2.6 1.7-3.1.6-.5.9-1.7.7-2.5z"/><path fill="#CF6200" d="M443.2 130.5c-.7-.5-1.3-.2-1.3.7s-.4 1.1-1 1.4c-.6.3-1.1 1-1.2 1.7-.1.7.1 1.1-.4 1.6s-.5 1-.2 1.3c.3.3.3.3.5.8.1.4 1 0 1-.5s.2-.5.7-.8c.5-.3 1.4-1.7 1.2-2.1-.2-.4-.7-.7 0-1.3.6-.5 1.3-.6 1.3-1.1 0-.5.2-.7.4-.9 0-.2-.6-.5-1-.8z"/><path d="M443.2 129.8c-.4-.2-.7.8-.1.9.6.2.7-.7.1-.9zM443 131c-.5.1-1 .7-.2.6.8-.1 1.1-.7.2-.6zM442.1 132.2c-.5.2-.4.9.3.4.7-.4.9-1-.3-.4zM441.3 133.2c-.5.2-.4.9.3.4.8-.4 1-1-.3-.4z"/><path d="M440.3 133.7c-.5.2-.2.9.5.4.8-.5.7-1-.5-.4zM440.9 134.3c-.5.2-.2.9.5.4.8-.4.8-1-.5-.4z"/><path d="M440.1 134.6c-.5.2-.2.9.5.4s.7-1.1-.5-.4zM440.6 135.2c-.5.2-.2.9.5.4.8-.4.8-1-.5-.4z"/><path d="M439.8 135.7c-.5.2-.2.9.5.4s.7-1.1-.5-.4z"/><path d="M439.9 136.3c-.5.2-.2.9.5.4.7-.4.7-1-.5-.4z"/><path fill="#CF6200" d="M439.5 142.4c-.5.1-.8.8-.2.9.6.1.8.2.8.7 0 .5.2 1.2.9 1.2.7.1 1.3-.7.7-1-.6-.2-1.1-.4-1.2-1-.1-.5-.7-.9-1-.8z"/><path fill="#FF0" d="M457.2 138.2l.3.3c.5.4 1.4 0 1.3-.3-.1-.3-.6-1.4.5-.5 1.2.9 5.3 3.6 6.6 4.6 1.3 1 .5 1.1-.2.8s-2.4-1.1-3.5-1.7c-1.1-.6-1.2-.4-1.4-.2-.2.2 0 .6.4 1-.6.1-1.7 0-2-.7-.4-.8-1.2-1.8-1.8-2.6-.2-.3-.3-.5-.2-.7z"/><path fill="#00D860" d="M493 256.5c-.9.6-2.1 1.7-1.3 3.2.1-.1.2-.1.3-.2 3.5-4.3 6.6-8.8 9.1-13.4 0-.2.1-.3.1-.4-1 .9-2.6 1.7-3.2 1.9.4 1.2-1.6 2.7-2.7 3.1.4.7.3 1.8-.6 2 .2.6-.5.6-1.4 1-.9.4-1.3.7-1.6 1.1.5-.3 1.1-.5 1.5-.4.4.1.4.7-.2.8-.6.1-1.1.5-1.3.8.9-.3 2.2-.1 1.3.5z"/><path stroke="#000" stroke-width=".125" d="M450.2 136.9c-1.1-.9-1.3-.4-.9.2.4.6.1.9-.8 1s-2.3.3-2.9.3c-.6 0-1.3.8.1.7 1.4-.1 3.7-.5 4.3-.8.5-.2 1-.6.2-1.4zM452.3 138.5c-.9-.8-1.2-.6-1 0 .2.6-.2.7-.8.9-.6.2-2.9.9-3.8 1-1 .1-1.2.8.3.8 1.4 0 4.2-1.2 4.5-1.4.3-.2.4-.7.8-.4.4.2.7-.2 0-.9zM452.9 140.9c-.6.4-2.2 1.1-2.9 1.3-.6.2-1.2.9.2.8 1.4-.1 3-1.4 3.4-1.6.4-.3.6-.4 1-.4s1-.5-.2-1.1c-1.2-.7-1.9-.3-1.3.2s.2.5-.2.8z"/><path d="M441.7 122.7c-1.8-1.2-3.8 1.3-1.8 2.6 1.7 1.2 3.5-1.5 1.8-2.6z"/><path fill="#FFF" d="M439.5 123.7h.5c-.1.5.4 1.4 1.3 1.2-.7.5-2 0-1.8-1.2zM446.3 150c.5.2 2.4.3 3 .4-.3.7-.6 1.1-.8 1.6-.2.5-.3.5-.3-.2s-.4-1.2-.8-.4c-.4.8-.6 1-.8 1.4-.2.3-.5.4-.4-.3s.2-1.8.1-2.5z"/><path fill="none" stroke="#000" stroke-width=".167" d="M516 171.2c-.1 45.4-7.3 94.2-66 117.5-58.7-23.3-65.9-72.2-66-117.5h132zM516 171.2c0-17.1-.9-33.7-.5-48.2-21.9-9.8-50.8-11.8-65.5-11.8-14.7 0-43.6 2-65.5 11.8.4 14.5-.5 31.1-.5 48.2h132z"/></svg>
