<svg xmlns="http://www.w3.org/2000/svg" width="240" height="160" viewBox="0 0 120 80"><path fill="#ED1C24" d="M0 0h120v80H0z"/><path fill="#005DA4" d="M0 0h120v53.3H0z"/><path fill="#FFF" d="M0 0h120v26.7H0z"/><path fill="#005DA4" d="M43.5 28.1l.8-12.4c-6.6-3.1-14.1-3.1-20.7 0l.8 12.4c.4 5.6 4.2 10.3 9.5 11.9 5.4-1.6 9.2-6.4 9.6-11.9"/><path fill="#FFF" d="M26.6 31.1c-.2-.4-.3-.9-.4-1.4l3.9-5.2 1.6 2.1L34 22l2.3 4.7 1.6-2.1 3.9 5.2c-.1.5-.2.9-.4 1.4-.7 1.2-2.3 1.6-3.5.9-.8-.5-1.8-.5-2.6 0s-1.8.5-2.6 0-1.8-.5-2.6 0c-1.2.6-2.7.2-3.5-1zm11.3 3.1c-.8-.5-1.8-.5-2.6 0s-1.8.5-2.6 0-1.8-.5-2.6 0c-.5.3-1 .4-1.6.3 1.4 1.8 3.3 3.1 5.4 3.9 2.2-.8 4.1-2.1 5.4-3.9-.4.1-.9 0-1.4-.3zm0-1.5c-.8-.5-1.8-.5-2.6 0s-1.8.5-2.6 0-1.8-.5-2.6 0c-.9.5-2.1.4-2.9-.2.2.4.4.7.6 1.1.7.3 1.5.3 2.2-.2.8-.5 1.8-.5 2.6 0s1.8.5 2.6 0 1.8-.5 2.6 0c.7.4 1.5.4 2.2.2.2-.4.5-.7.6-1.1-.6.7-1.8.8-2.7.2z"/><path fill="#FD0" d="M34 18.4l.2.6.6-.1-.5.5.5.5-.6-.1-.2.6-.2-.6-.6.1.5-.5-.5-.5.6.1.2-.6zm-2.9-3.9l.2.6.6-.1-.5.5.5.5-.6-.1-.2.6-.2-.6-.7.1.5-.5-.5-.5.6.1.3-.6zm5.8 0l.2.6.6-.1-.5.5.5.5-.6-.1-.2.6-.2-.6-.6.1.5-.5-.5-.5.6.1.2-.6z"/><path fill="#ED1C24" d="M24.4 15.3l.8 12.7c.4 5.2 3.8 9.6 8.8 11.2 4.9-1.6 8.4-6 8.8-11.2l.9-12.7c.2.1.5.2.7.3L43.6 28c-.5 5.6-4.3 10.4-9.6 12-5.3-1.6-9.1-6.4-9.5-11.9l-.8-12.4c.2-.1.4-.3.7-.4"/></svg>
