<svg xmlns="http://www.w3.org/2000/svg" width="240" height="160" viewBox="0 0 120 80"><path fill="#EE1C25" d="M0 0h120v80H0z"/><path fill="#0B4EA2" d="M0 0h120v53.3H0z"/><path fill="#FFF" d="M0 0h120v26.7H0z"/><path fill="#FFF" d="M42.2 61.8C35 58.3 24.7 51.5 24.7 37.9c0-13.6.6-19.7.6-19.7h33.6s.6 6.2.6 19.7c.1 13.6-10.2 20.4-17.3 23.9z"/><path fill="#EE1C25" d="M42.2 60c-6.6-3.2-16-9.5-16-21.9 0-12.4.6-18.1.6-18.1h30.8s.6 5.7.6 18.1c0 12.4-9.5 18.7-16 21.9z"/><path fill="#FFF" d="M43.6 34.8c1.8 0 5.3.1 8.4-.9 0 0-.1 1.1-.1 2.4 0 1.3.1 2.4.1 2.4-2.8-.9-6.3-1-8.4-.9v6.9h-2.8v-6.9c-2 0-5.5 0-8.4.9 0 0 .1-1.1.1-2.4 0-1.3-.1-2.4-.1-2.4 3.1 1 6.6 1 8.4.9v-4.3c-1.6 0-4 .1-6.6.9 0 0 .1-1.1.1-2.4 0-1.3-.1-2.4-.1-2.4 2.6.9 5 1 6.6.9-.1-2.7-.9-6.2-.9-6.2s1.6.1 2.3.1c.7 0 2.3-.1 2.3-.1s-.8 3.4-.9 6.2c1.6 0 4-.1 6.6-.9 0 0-.1 1.1-.1 2.4 0 1.3.1 2.4.1 2.4-2.6-.9-5-1-6.6-.9v4.3z"/><path fill="#0B4EA2" d="M42.2 43.9c-3.3 0-5.1 4.6-5.1 4.6s-1-2.2-3.7-2.2c-1.8 0-3.2 1.6-4 3.1C32.7 54.7 38 58 42.2 60c4.2-2 9.5-5.3 12.8-10.6-.9-1.5-2.2-3.1-4-3.1-2.7 0-3.7 2.2-3.7 2.2s-1.8-4.6-5.1-4.6z"/></svg>
