<svg xmlns="http://www.w3.org/2000/svg" width="240" height="160" viewBox="0 0 360 240"><path fill="#DC171D" d="M0 0l159.2 120.1H360V0H0z"/><path fill="#FFF" stroke="#FFF" stroke-width=".533" d="M0 0l159.5 120.4L0 240V0z"/><path fill="#012A87" d="M0 240l159.2-119.9H360V240H0z"/><path fill="#FF0" d="M80.4 90.8v-1.9s-1-1.6.2-3.3c0 0-2.5-1.3-1.9-3.3 0 0-2.2-.6-2.1-3 0 0-2.4-.2-2.6-2.2 0 0-2.4.4-3.5-1.6 0 0-2.3.5-3-1.2 0 0-2.3.8-3.6-1.1 0 0-2.4 1-3.4-.9-1 1.8-3.4.9-3.4.9-1.3 1.9-3.6 1.1-3.6 1.1-.6 1.6-3 1.2-3 1.2-1.1 2-3.5 1.6-3.5 1.6-.2 2-2.6 2.2-2.6 2.2.2 2.5-2 3-2 3 .6 2-1.9 3.3-1.9 3.3 1.2 1.7.2 3.3.2 3.3l-.1 1.7 39.8.2"/><path fill="#F9D90F" stroke="#000" stroke-width=".3" d="M80.4 90.8v-1.9s-1-1.6.2-3.3c0 0-2.5-1.3-1.9-3.3 0 0-2.2-.6-2.1-3 0 0-2.4-.2-2.6-2.2 0 0-2.4.4-3.5-1.6 0 0-2.3.5-3-1.2 0 0-2.3.8-3.6-1.1 0 0-2.4 1-3.4-.9-1 1.8-3.4.9-3.4.9-1.3 1.9-3.6 1.1-3.6 1.1-.6 1.6-3 1.2-3 1.2-1.1 2-3.5 1.6-3.5 1.6-.2 2-2.6 2.2-2.6 2.2.2 2.5-2 3-2 3 .6 2-1.9 3.3-1.9 3.3 1.2 1.7.2 3.3.2 3.3l-.1 1.7 39.8.2z"/><path fill="#DC171D" d="M79.5 88.5c-6.2-.6-13.4-2.1-19 1-3.7-2.2-8.9-2.1-13.3-1.6-2.4.4-5.2.4-7.7.8l-.4.1c-4.5.3-8.7-1-12.6-2.8 1.3 7.1 2.6 14.4 3.3 21.8 1.5 11-5.2 20.3-2.5 31.2 1.6 5.2 7.4 8.3 12.6 8.9 5.1.3 10.4 1.1 15.1 2.2.9.2 2 .6 2.6.9 1.3.5 2.3 1.3 3.1 2.2 2.8-3 7-3.8 11.1-4.2 7.4-.9 16.6-.4 21.1-7.1v-.4c2.5-3.7 2.1-9.4 1.1-13.6-.1-1.5-.5-2.8-.7-4.2-4.5-12-.7-25.4 1.3-37.5-2.4 1.3-5 1.9-7.7 2.6-2.1.3-4.5.2-6.6 0l-.8-.3m9.3 34.3"/><path fill="#62AFE1" d="M88.8 122.8c0 .8.4 1.4.5 2.1.9 5.2 1.7 12.2-3.7 15.4-6 3.8-13.8 2.2-20.7 4.2-1.4.4-3.3 1.6-4.2 2.5-.6-.4-1.2-1-2-1.4-5.7-3-13-2-19.4-3.6-3.2-1-6.6-3.5-7.4-6.8-2.1-8.6 2.9-16 2.3-24.6-.4-6.5-1.5-12.8-3-19 5 2.3 10.8 2.7 16.4 1.6 4.2-.6 9-.6 12.9 1.2 2.2-.9 4.7-1.3 7-1.6 4.4.4 9.1 1.2 13.7 1.2 3-.2 5.8-1 8.4-2.2-1.5 10.2-4.5 20.8-.8 31"/><path fill="#FFF" d="M84.3 137.4h-3.4v-10.3h.7V125h-1.8v-9.7H81l-14.6-9.4V101h1.4l-7.3-5.2-7.3 5.2h1.4l.1 4.9-14.5 9.4h1.1l.1 9.6h-1.8v2.2h.9v10.2h-3.1v3l46.9.1z"/><path fill="none" stroke="#000" stroke-width=".5" d="M79.8 124.9v-9.5H81L66.4 106v-4.9h1.4l-7.3-5.2-7.2 5.2h1.4v4.9l-14.5 9.4h1.2v9.5h38.4zM84.3 137.4v3l-46.9-.1v-3l46.9.1zM40.5 137.2v-10.1h1.9l-.1 10.2.1-10.1-2.8-.1v-2.2l42 .1v2.1H79l.1 10.2-.1-10.2h1.9v10.1z"/><path fill="none" stroke="#000" stroke-width=".5" d="M49.5 134.7v-7h-5.6v7z"/><path fill="none" stroke="#000" stroke-width=".5" d="M49.5 134.7v-7h-5.6v7z"/><path fill="none" stroke="#000" stroke-width=".5" d="M49.5 134.7v-7h-5.6v7z"/><path fill="none" stroke="#000" stroke-width=".5" d="M49.5 134.7v-7h-5.6v7z"/><path fill="none" stroke="#000" stroke-width=".5" d="M49.5 134.7v-7h-5.6v7h5.6zm-4.1-5.6v4.1H48v-4.1h-2.6zm31.6 5.6v-7h-5.6v7H77zm-4.1-5.5v4.1h2.6v-4.1h-2.6zM77 123.3v-7h-5.6v7H77zm-4.1-5.6v4.1h2.6v-4.1h-2.6zm-23.4 5.5v-7h-5.6v7h5.6zm-4.2-5.5v4.1h2.6v-4.1h-2.6zm14.4 5.6v-7h-5.6v7h5.6zm-4.2-5.6v4.1h2.6v-4.1h-2.6zm12 5.6v-7h-5.6v7h5.6zm-4.1-5.6v4.1H66v-4.1h-2.6zm11.5-3.5l-9.2-6.7H55.4l-9.1 6.7h28.6zm-18.7-12.3v4.1h8.7v-4.1h-8.7m2.3 1v2h4v-2h-4zm2-5.6l4.8 3.4h-9.6l4.8-3.4zm0 0l4.8 3.4h-9.6l4.8-3.4zm0 0l4.8 3.4h-9.6l4.8-3.4zm0 0l4.8 3.4h-9.6l4.8-3.4zm0 0l4.8 3.4h-9.6l4.8-3.4z"/><path fill="#FFF" d="M68.9 121.1l.1 16.2H52.7l-.1-16.2h16.3z"/><path fill="none" stroke="#000" stroke-width=".5" d="M52.5 125.7h16.4-16.4zM52.5 125.7h16.4-16.4zM52.5 125.7h16.4-16.4zM52.5 125.7h16.4-16.4zM56.2 101.9v4.1h8.7l-.1-4.1z"/><path fill="none" stroke="#000" stroke-width=".5" d="M56.2 101.9v4.1h8.7l-.1-4.1z"/><path fill="#FFF" stroke="#000" stroke-width=".5" d="M68.9 121.1l.1 16.2H52.7l-.1-16.2h16.3zm-16.4 4.6h16.4-16.4zm2.1 11.6l-.1-11.5.1 11.5zm12.4 0l-.1-11.5.1 11.5zM80 95c1.4 0 1.7 5.7 1.7 8.5 1.2.3 3.8 2 4.9 3.5H73.4c1.1-1.5 3.7-3.1 4.9-3.4 0-3 .3-8.7 1.7-8.6zm-26.6 26.6h1.2l-.3.6s.6.7 0 1.6l.3.6h-1.1l.3-.6s-.6-1 0-1.6l-.4-.6zm2.4 0H57l-.3.6s.6.7 0 1.6l.3.6h-1.1l.3-.6s-.6-1 0-1.6l-.4-.6zm2.6 0h1.2l-.4.6s.6.7 0 1.6l.3.6h-1.1l.3-.6s-.6-1 0-1.6l-.3-.6zm3 0h1.2l-.3.6s.6.7 0 1.6l.3.6h-1.2l.3-.6s-.6-1 0-1.6l-.3-.6zm2.7 0h1.2l-.3.6s.6.7 0 1.6l.3.6h-1.1l.3-.6s-.6-1 0-1.6l-.4-.6zm2.6 0h1.2l-.3.6s.6.7 0 1.6l.3.6h-1.1l.3-.6s-.6-1 0-1.6l-.4-.6z"/><path fill="#F9D90F" stroke="#000" stroke-width=".3" d="M60.8 158.1c6.1 0 13.6-1.2 17.1-3l7.7-.7.2 9.4c-6.5 3.6-21.6 4.4-25 4.4-3.3 0-18.6-.8-25.2-4.4l.1-9.4 7.7.7c3.6 1.8 11.4 3 17.4 3M15.8 117.9l6.8 2.2-2.1 11-6.4 1s-1.1-5.8 1.7-14.2"/><path fill="#F9B60F" stroke="#000" stroke-width=".3" d="M20.5 131.1l-6.4 1 4.2-5.8 2.2 4.8z"/><path fill="#F9D90F" stroke="#000" stroke-width=".3" d="M11.7 125.9l6.6.5c.1 5.6.8 26.8 26.1 27.9l-.8 7.7c-30.8.3-33.1-26-31.9-36.1zm24 37.9l8-1.8M105.3 118l-6.8 2.1 2.1 11 6.5 1c.1.1 1.1-5.7-1.8-14.1z"/><path fill="#F9B60F" stroke="#000" stroke-width=".3" d="M100.7 131.2l6.5 1-4.2-5.8-2.3 4.8z"/><path fill="#F9D90F" stroke="#000" stroke-width=".3" d="M109.5 126l-6.6.5c-.1 5.5-.6 26.8-25.9 27.9l.9 7.7c30.8.3 32.9-26.1 31.6-36.1zm-23.7 37.8l-8-1.8"/><path fill="#BC715F" d="M36.5 82.6c.5-1.2 5.3-4.6 21-3.2 0 0 2.7 1.6 4.2 1.4.9-.1-.5.1-1.7-.9S58.6 77 61.3 77c2.7.1 12.8.6 13 1.5.2.9-5.3 1.3-7.4 1.2-2.1-.1-1.8 1 .2.9 6.4-.2 13.4-2.5 20.8 2.7.9.6-2.2.7-4.6-.3 0 0-6.5.3-9.3-.1 0 0-2.2 1.8-5 1.6.4.9-1 4.3-9.9 1.8-1.5.4-6.8 1.3-6.2-.2-1.4 0-3.9.5-4.2-.3-.4-.8 4.3-2 5.2-2.8 0 0-9.9.1-11.8-.6-.1 0-6 1.3-5.6.2"/><path fill="#008830" d="M39.6 96.4c.2-.3.3-.8.7-.8 1 .3 1.6 2.1 2.9.9.4-.1.6.5.9.6.2 1 1-.2 1.6-.1 1.3-.6 2.9-.7 4.4-.4 0 1-.7 2.1-1.7 2.6 0 1 .9 1.6.9 2.6-.2.4 0 1-.6 1.1-.7-.1-1.4-.2-2-.6-.1-.1-.1-.2-.3-.2-.1.3.4.7.6 1-.4.6-.9.1-1.4.1-.1.3 0 .8-.4 1-.6 0-.8-.7-1.1-1-.4.4.3.7.4 1-.2 1.3-.2 2.5-1.5 3.4l-.9.4c-.2-.6-.1-1.6-.2-2.3-.5.8-.9 1.6-1.7 2.3-.9-.3-1.4-1.3-1.6-2.2-.4-1-.2-2.2.6-2.9-.3-.5-1.2-.4-1.3-1.1-1.4-.9-2.1 1.6-3 .3-.3-1.2.1-2.7.9-3.6-.2-.5-.8-.4-1.2-.6-.9-.7-2.1-1.5-2.1-2.8 2.6-1.1 5.4-.5 7.1 1.3"/><path fill="#F9D90F" d="M40.9 96.3c-.1 1.1.7.3 1.3 1-.5-.2-.8.8-1.2.2l-.3.3c.2.4.5.4.2.8-.5.2-.6-.4-.8-.7 0-.1.1-.3-.1-.4-.3.2-.6.3-1 .3-.1-.2-.3-.5-.1-.6.4-.5 1 .2 1.2-.2 0-.3-.2-.7.1-.9.2 0 .6-.1.7.2m2.9.9c0 .2-.1.5.2.7.4-.2.7 0 .9.3 0 .2.1.4-.2.5l-.6-.1c0-.1-.1-.2-.2-.3-.2-.1-.4.1-.6.2.1.2.5.3.4.6-.3.3-.5-.3-.8-.1-.2-.1.1-.6-.3-.8-.5 0-.2.8-.7.5-.2-.2-.4-.6-.2-.8.2-.2.7-.1.9.1.3-.4.3-1.9 1.2-.8m-3.7 1.6c.2.3-.1.8.3 1.2.5-.9.9.2 1.5.1.2.2.1.5.1.7-.7.2-1.6.4-2.2-.2l-.2.2c.4.3.7.7.4 1.3-.5.1-1.3.1-1.6-.4-.1-.4.3-.8-.2-1.1-.3.4-.3 1-1.1.6-.5-.2-.6-.8-.4-1.2.5-.7 1.3 0 1.8-.3.1-.6-.2-1.2.4-1.5.7-.1.9.3 1.2.6m3.8 1.3c.2.4-.4.7.1 1l.4-.4c.4.1.8.2 1.1.6.3.8-.5.8-1 1H44c.1-.2-.2-.3-.3-.5-.2-.1-.4 0-.5.2.1.5.7.9.1 1.4-.5 0-1.4.2-1.3-.6-.2-.4.5-1.1-.3-1.1-.3.6-.6 1.1-1.2.6l.1-.8c.7 0 1.4.1 1.7-.6.2-.5-.3-1 .1-1.5.8-.2 1.2.3 1.5.7"/><path d="M43.4 101.4c.2.4-.3.4-.5.6-.3 0-.5-.1-.7-.3-.1-.5.2-.5.5-.7.4-.2.5.2.7.4"/><path fill="#FFF" d="M42.1 99.2c-.2 1.1-1.1-.1-1.4-.1.5-.9.8.3 1.4.1m2.6 1.1c-.6.2-.5-.5-.8-.8l.2-.2c.2.3.4.7.6 1m-1.7 1.3c-.1.1-.2.1-.3.1l-.1-.5c.3 0 .5.1.4.4"/></svg>
