<svg xmlns="http://www.w3.org/2000/svg" width="240" height="160" viewBox="0 0 240 160"><path fill="#3E5EB9" d="M0 0h240v160H0z"/><path fill="#FFD900" d="M0 30h240v100H0z"/><path fill="#B10C0C" d="M0 40h240v80H0z"/><path fill="#FFF" stroke="#000" stroke-width=".403" d="M197.1 61.7l-9.7 3.4 9.7 3.4 9.7-3.4-9.7-3.4zm-9.1 6.9l-9.7 3.4 9.7 3.4 9.7-3.4-9.7-3.4z"/><path fill="#FFD900" stroke="#000" stroke-width=".432" d="M25.6 78.3h190.9c.9 0 1.7.8 1.7 1.7 0 .9-.8 1.7-1.7 1.7H25.6c-.9 0-1.7-.8-1.7-1.7s.8-1.7 1.7-1.7zM50.4 64h140.4c.7 0 1.2.5 1.2 1.1 0 .6-.6 1.1-1.2 1.1H50.4c-.7 0-1.2-.5-1.2-1.1-.1-.6.5-1.1 1.2-1.1zm-9.2 6.9h140.4c.7 0 1.2.5 1.2 1.1s-.6 1.1-1.2 1.1H41.2c-.7 0-1.2-.5-1.2-1.1s.6-1.1 1.2-1.1z"/><path fill="none" stroke="#000" stroke-width=".403" d="M188.6 66.3c.6 0 1.1-.6 1.1-1.1 0-.6-.6-1.1-1.1-1.1m-1.2 2.2c.6 0 1.1-.6 1.1-1.1 0-.6-.6-1.1-1.1-1.1m-1.1 2.2c.6 0 1.1-.6 1.1-1.1 0-.6-.6-1.1-1.1-1.1m-6.9 9c.6 0 1.1-.6 1.1-1.1 0-.6-.6-1.1-1.1-1.1m-1.1 2.2c.6 0 1.1-.6 1.1-1.1 0-.6-.6-1.1-1.1-1.1m-1.2 2.2c.6 0 1.1-.6 1.1-1.1 0-.6-.6-1.1-1.1-1.1"/><path fill="#FFF" stroke="#000" stroke-width=".403" d="M177.1 80c-11.4 11.4-26.7 34.3-57.1 34.3-26.7 0-45.7-22.9-57.1-34.3C74.3 68.6 93.3 45.7 120 45.7c30.5 0 45.7 22.9 57.1 34.3z"/><path d="M116 57.6c3 3.4.5 4.8 3.7 5 3.4.2 1.5 3.6 4.3 3.7 2 .1-.2 8.1 1.7 10.7 2 2.7 3.6.8 3.6 2.8 0 2-5.3 1.8-5.4 8.2-.2 3.6-4.5 3.9-4.7 6.2-.3 2.2 8.6 3.4 8.5 5.4-.1 2-9.6 1.7-10 3.9-.2 2 13 3.7 14 9.5-2 .6-7.6 1.2-11.8 1.3-26.7 0-45.7-22.9-57.1-34.3C74.3 68.6 93.3 45.7 120 45.7c0 0-7.9 7.2-4 11.9zm10.1 10.2h2.8V77h-2.8v-9.2zm0 15.2h2.8v9.1h-2.8V83zm5.5-15.2h2.8V77h-2.8v-9.2zm0 15.2h2.8v9.1h-2.8V83zm5.6-15.2h2.8V77h-2.8v-9.2zm0 15.2h2.8v9.1h-2.8V83zm5.5-15.2h2.8V77h-2.8v-9.2zm0 15.2h2.8v9.1h-2.8V83zm5.6-15.2h2.8V77h-2.8v-9.2zm0 15.2h2.8v9.1h-2.8V83zm5.5-15.2h2.8V77h-2.8v-9.2zm0 15.2h2.8v9.1h-2.8V83z"/><path fill="#FFF" d="M84.2 67.8H87V77h-2.8v-9.2zm0 15.2H87v9.1h-2.8V83zm5.5-15.2h2.8V77h-2.8v-9.2zm0 15.2h2.8v9.1h-2.8V83zm5.6-15.2H98V77h-2.8v-9.2zm0 15.2H98v9.1h-2.8V83zm5.5-15.2h2.8V77h-2.8v-9.2zm0 15.2h2.8v9.1h-2.8V83zm5.6-15.2h2.8V77h-2.8v-9.2zm0 15.2h2.8v9.1h-2.8V83zm5.5-15.2h2.8V77h-2.8v-9.2zm0 15.2h2.8v9.1h-2.8V83z"/><path fill="#3D5DA7" stroke="#000" stroke-width=".342" d="M204.5 78.6c-1.7 3 1.3-1 8.8 4 1.4.9 2.6 3.4 2.6 5.1-.4-.2-.6-.8-1-1.1-.5.5.5 3 .7 4.2-1.2-.7-1.1-1-1.4-1.8.1 1-.2 3.6.3 4.7-.9-.3-.9-1-1.3-1.2.3 1.2-.3 2.4-.1 3.7-.5-.5-1.1-.9-1.4-1.2 0 .6-1 2.3-1.1 2.9-.5-.3-.6-.7-.7-1-.6.7-2.6 3.3-2.7 4.1-1.6-1.4-5.5-4.7-6-6.5-.5 1-1.1 1.3-2.4 2.1-.5-2.8-2.5-6-1.4-8.4-.7.4-1.3.9-2.1 1.4.6-3.8 4.1-8.6 9.2-11zM32.3 81.5c-.1-.9.1-1-.4-1.6.8.3.8 1.2 1.8.6.3-.2.5-.2.1-1.2 1 0 4.2 1.2 4.8 1.2 1.4.1 3.9-1.4 5.6.4 1.7 1.7 1.1 3.4 1.1 5.7-.7-.3-.3-.5-1.1-1.3.5 2 0 5.7 0 7.8-.3-.5-.2-.3-.5-.8-.7 2-1.6 2.4-1.6 4.7-.3-.9 0-.7-.3-1.2-.7 1.5-5.3 2.8-3.5 4.3-1.6-.9-2.3-.8-3-1.7-.3.2-.6.6-.9 1.1-2.8-1.3-1.8-4.1-4-6-.4.8-.2.7-.6 1.9-.4-1.8-.6-2.9-1.1-4.2-.4.7-.4.4-1.2 1.5-.3-2.2-.9-2.7-.6-4.1-.8.6-.3.4-1.1 1.1.6-5.4 4.1-9.5 6.5-8.2zm69.2-29.7c-1.6 3.1 2.8-1 9.6 4.1 1.3 1 3.1 4.7 3.1 6.5-1.5-.3-4-1.7-4-1.7s3 3 3 6.5c-1.1-.7-1.6-.6-2-1.4 0 1.1.9 1.8.9 3.6-.8-.6-1.4-1-2.1-1.4 1 1.7-1.8 5.1-.4 6.3-2.5-.4-5-1.9-6-3.7-.5.4-.6.9-.6 1.5.1.1-3.8-2.9-3.4-4-.5.7-.6 1.1-.7 1.9-1.4-1.4-2.7-2.8-3.2-4.6-.6.8-.7.8-1.3 1.6-.5-2.9-.5-2.8.5-5.2-.7.4-1.2.9-1.9 1.4.6-4.1 3.9-9 8.5-11.4z"/><path fill="#A70000" d="M198.1 93.5c.7-1.4 1.4-1.9 1.8-2.8.8-1.6.9-2.9 1.7-2.7.7.2.7.9-.2 2.5-1 1.5-1.4 1.8-3.3 3zm4.8 3.4c-.1-1.1.2-1.6.2-2.3-.1-1.2-.6-2.1.1-2.2.7-.1 1 .4 1 1.6-.1 1.4-.3 1.7-1.3 2.9zm3.7 2.2c-.3-1.5-.1-2.2-.3-3.2-.3-1.7-1-2.9-.3-3 .6-.2 1 .4 1.2 2.2.3 1.7.2 2.1-.6 4zm3.9-10.7c-.9-.7-1.4-.7-2-1.2-1-.8-1.5-1.6-1.9-1.2-.3.4-.1.9 1 1.6 1 .7 1.4.7 2.9.8zm-.7 5c-.5-1-1-1.2-1.3-1.9-.5-1.1-.5-2.1-1.1-1.8-.6.2-.6.8 0 1.8.6 1.1 1 1.3 2.4 1.9zm-181-2.8c.7-1.8 1.4-2.3 1.9-3.5.8-2 1-3.6 1.7-3.4.7.2.7 1.1-.2 3.1-1 1.9-1.5 2.4-3.4 3.8zm2.8 4.4c.3-1.6.8-2.2.9-3.2.3-1.8.1-3.2.8-3.1.6.1.8.8.4 2.6s-.7 2.2-2.1 3.7zm3.3 3.1c.1-1.5.4-2.2.5-3.2.1-1.8-.2-3 .4-3 .6 0 .8.6.6 2.4-.2 1.8-.4 2.2-1.5 3.8zM42 88c-1.4-1.3-2.2-1.6-3-2.5-1.5-1.5-2.3-3-2.8-2.4-.5.5-.2 1.3 1.4 2.7 1.5 1.4 2.1 1.7 4.4 2.2zm-.9 5.2c-.9-1.4-1.5-1.7-2.1-2.6-1-1.5-1.3-2.8-1.9-2.5-.6.3-.4 1 .6 2.5 1.2 1.5 1.6 1.8 3.4 2.6zm56.5-26.4c.3-2.1.8-2.9 1-4.3.3-2.4-.1-4.1.8-4.1.8 0 1.1.9.7 3.3-.5 2.4-.8 3-2.5 5.1zm4.4 3.8c-.2-1.8.2-2.5 0-3.7-.2-2-.8-3.4-.1-3.5.7-.1 1.1.6 1.2 2.6.2 2.1 0 2.6-1.1 4.6zm6.9 3.2c-.8-1.5-1.4-2-1.9-3-.9-1.7-1-3.2-1.7-2.9-.7.3-.6 1 .3 2.7 1 1.7 1.5 2 3.3 3.2zm2.4-13.8c-1.9-1-2.9-1-4.1-1.7-2.2-1.1-3.4-2.4-3.9-1.7-.4.7.1 1.4 2.4 2.4 2.2 1.1 2.9 1.1 5.6 1zm.7 5.7c-1.4-1.2-2.2-1.3-3.1-2.1-1.6-1.3-2.4-2.6-2.9-2.1s-.2 1.2 1.5 2.4c1.7 1.4 2.2 1.5 4.5 1.8z"/></svg>
