<svg xmlns="http://www.w3.org/2000/svg" width="240" height="160" viewBox="0 0 240 160"><path fill="#00008B" d="M0 0h240v160H0V0z"/><path fill="#FFF" d="M70 24.4V0H50v24.4L13.4 0H0v8.9l26.6 17.7H0v26.7h26.6L0 71.1V80h13.4L50 55.6V80h20V55.6L106.6 80H120v-8.9L93.4 53.3H120V26.7H93.4L120 8.9V0h-13.4L70 24.4z"/><path fill="#F00" d="M54 0h12v32h54v16H66v32H54V48H0V32h54V0zM0 0l40 26.7h-8.9L0 6V0zm120 0h-8.9l-40 26.7H80L120 0zm0 80L80 53.3h8.9L120 74v6zM0 80h8.9l40-26.7H40L0 80z"/><path fill="#FFF" d="M205.3 50v19.8c0 16.3-6.4 31.1-25.3 40.2-18.9-9-25.3-23.9-25.3-40.2V50h50.6z"/><path fill="#FDC300" d="M203.6 52v18.5c0 15.2-6 29.1-23.6 37.5-17.7-8.4-23.6-22.3-23.6-37.5V52h47.2z"/><path fill="#FF9E3D" stroke="#000" stroke-width=".061" d="M169 60.1c-.3-.3-.7-.4-1.2-.4.1-1.3-.8-1.8-1.5-2-.7-.2-.9-.5-1-1-.1-.5-.5-.8-1.1-1-.6-.2-1.1-.8-1.3-1.1-.2-.3-.3-.2-.5.3s-.9 1.4-.2 1.4c-.5.4-.7.8-.4 1.4-.3.3-.5.6-.1.8.4.1.5.3.6.4-.4 0-.5.8.4.9-.2 0-.3.7.1.7-.5 0-.9.8-1.6.8-.7 0-1 .1-1 .4 0 .3-.4.6-.5.8.5.1.8 0 1.1-.2.3-.2.7-.3 1 0 .3.2.9.3 1.2.3-.6.4-1.1 1-1.1 1.5-.1.5-.4 1.2-.9 1.3-.4.2-1 .6-1.2 1.2.5 1.3 1.3 1.7 2.1 2 1.4.6 2.2 1.1 2.8 1.7.6.6.8.2 1.7 1.3.9 1.1 1.7 3.1 2.5 3.5.9.3 1.9.1 2.6-1 .3-1.2.7-12.2-2.5-14z"/><path fill="#FF927F" stroke="#000" stroke-width=".061" d="M170.5 55.6c-.8.9-1.8 1.7-1.7 3.3.2 1.5.3 4-1.1 4.9-1.4.9-2.1 3-.4 4.3 1.7 1.3 1.8 2.8 2.1 4.2.3 1.4 1 2.6 2.2 1.6 1.1.2 1.8-.3 1.8-1.2s.1-1.4.9-1.7c.9-.3 1.1-.6 1.5-1.3.4-.8.6-1.1.4-1.6-.2-.5-.3-1.4-.1-2.1.2-.7-.2-1.1-.5-1.5-.2-.4-.3-.8-.2-1.4.1-.6-.2-.9-.6-1.2-.4-.3-.6-.6-.5-1 .1-.5-.3-.7-.7-1.1-.4-.3-.7-.8-.7-1.5-.1-.8-1.4-2.3-2.4-2.7z"/><path fill="#FF9EE1" stroke="#000" stroke-width=".061" d="M170.8 74.2c1.9-.5 1.7-3.6 1.5-4.9-.3-1.3-1-3.2-.5-4.7.8-2.1-1-4.1-.5-4.9.5-.8.4-1.2.3-1.5-.1-.3-.5-.5-.5.1 0 .5-.2.7-.5 1.1-.3.3-.3 1.1 0 1.9.3.8.8 2.1-.1 3.7-.9 1.7-.5 2.4-.2 3.2.5 1.2 1.8 5.3.5 6z"/><path fill="#FF9E3D" stroke="#000" stroke-width=".061" d="M162.2 56.3c.2 0 .6-.1.6.2M161.8 57.7c.3-.2.7 0 1.2-.2M162.2 58.8c.3 0 .8 0 1.2-.4M162.7 59.7c.3 0 .9-.2 1-.6M162.8 60.4c.6 0 1.4.2 1.5 0M162.8 62.4c.4-.4 1.4-.7 1.7-1.1M163.9 56.1c.7.2.4.7.8.9.6.5.1 1 .6 1.2.5.1.5.2.4.8-.2.7.5.7.3 1.1M167.8 59.7c-.3 0-1.1 0-1.5.8M161.7 67.9c.3.1.5-.1.6-.3.1-.2.1-.3.4-.4.3 0 .8-.1.9-.3.1-.2.5 0 .8-.6.3-.6.5-1.3 1.3-1.6"/><path fill="#00A728" stroke="#000" stroke-width=".061" d="M184.3 80.4c.3.5 0 1 .5 1.2.6.2.1 1.1.8 1.4.7.3 0 1.1.7 1.4.6.3-.1 1.1.8 1.5.9.4-.2 1.4.5 1.8.6.4-.2 1.4.5 1.7.8.4-.3 1.1.4 1.7.7.5-.2 1.4.5 1.8.7.5-.4 1.1.3 1.8.5.5-.2 1.1.2 1.9.3.5-.3 2.7-1.8 2.5-.5.9-2.6 1.7-3.4 1.5-.8.5-3.2 1.3-4.4.1-1.2 1.2-3.7.4-4.4-.1-.8.3-2.9-.5-3.4-1.5-1.5.2-2.1-1.9-1.8-2.5.4-.8-.3-1.4.2-1.9.7-.7-.4-1.4.3-1.8s-.2-1.3.5-1.8-.4-1.3.4-1.7c.8-.4-.1-1.4.5-1.7.6-.4-.4-1.4.5-1.8.9-.4.1-1.2.8-1.5.7-.4.1-1.2.7-1.4.8-.3.2-1.1.8-1.4.6-.2.2-.7.6-1.2 1.7.6 6.7 1 8.7 0z"/><path fill="#00A728" stroke="#000" stroke-width=".061" d="M177.1 80.5c-.6.6.1 1-.5 1.7s-.1 1.1-.5 1.7c-.5.6.2 1-.3 1.7s.1 1.1-.5 1.7c-.6.6.1 1.1-.5 1.8-.6.6.1 1.1-.5 1.7-.6.6.1 1.2-.5 1.8-.6.6.1 1.4-.5 2.1-.6.7.1 1.2-.4 1.8-.5.5-.1 1.1-.4 1.5-.4.4-.4.9-.3 1.1M178.2 80.7c-.5.7.3 1-.2 1.6-.5.6.2.8-.2 1.5s.3.9-.2 1.6c-.5.7.3 1.2-.3 1.9-.5.7.3 1.1-.2 1.8s.2 1.1-.2 1.6.3 1.1-.2 1.7c-.5.6.2 1.1-.2 1.7-.4.6.2 1.2-.2 1.7s.3 1.2-.3 1.8c-.5.6.1 1.1-.2 1.5-.3.4-.6 1.1-.3 1.2M180 81.4c-.3 1.1.4 2.1 0 3.1-.4.9.3 1.3.1 2.1-.2.8.3 1.3-.1 2.1-.3.8.4 1.4 0 2.5s.3 1.3 0 2.4c-.3 1.2.5 1.9 0 2.7-.5.9.5 1.1.1 2.1s.3 1.4-.1 2.3M182.8 80.5c.6.6-.1 1 .5 1.7s.1 1.1.5 1.7c.5.6-.2 1 .3 1.7s-.1 1.1.5 1.7c.6.6-.1 1.1.5 1.8.6.6-.1 1.1.5 1.7.6.6-.1 1.2.5 1.8.6.6-.1 1.4.5 2.1.6.7-.1 1.2.4 1.8.5.5.1 1.1.4 1.5.4.4.4.9.3 1.1M181.7 80.7c.5.7-.3 1 .2 1.6.5.6-.2.8.2 1.5s-.3.9.2 1.6-.3 1.2.3 1.9c.5.7-.3 1.1.2 1.8s-.2 1.1.2 1.6-.3 1.1.2 1.7c.5.6-.2 1.1.2 1.7.4.6-.2 1.2.2 1.7s-.3 1.2.3 1.8c.5.6-.1 1.1.2 1.5.3.4.6 1.1.3 1.2"/><path fill="#FCC300" stroke="#000" stroke-width=".061" d="M176.3 83.2c0 .2 0 .5-.2.8-.5.6.2 1-.3 1.7s.1 1.1-.5 1.7c-.6.6.1 1.1-.5 1.8-.6.6.1 1.1-.5 1.7-.6.6.1 1.2-.5 1.8-.6.6.1 1.4-.5 2.1-.6.7.1 1.2-.4 1.8-.5.5-.1 1.1-.4 1.5.6-.5.6-1.2 1.1-1.6.5-.4-.2-.9.1-1.2.3-.3.1-1.4.5-1.9.5-.5.1-1.6.5-2 .4-.4.1-1.5.6-1.9.5-.4 0-1.3.4-1.8s0-1.2.4-1.8c.4-.6 0-1.1.3-1.6.2-.4.2-2-.1-1.1zM177.9 83.9c-.4.7.3.9-.2 1.6-.5.7.3 1.2-.3 1.9-.5.7.3 1.1-.2 1.8s.2 1.1-.2 1.6.3 1.1-.2 1.7c-.5.6.2 1.1-.2 1.7-.4.6.2 1.2-.2 1.7s.3 1.2-.3 1.8c-.5.6.1 1.1-.2 1.5.6-.2.4-1.1.6-1.3.2-.2-.1-1.4.3-1.8.4-.3-.2-1.3.1-1.8.6-.7.1-1.2.4-1.8.4-.6-.1-1.3.1-1.7.5-.6-.2-1.2.1-1.7.5-.7-.1-1.2.2-1.7.5-.7-.1-1.4.2-1.7.3-.1.6-1.6 0-1.8zM180 84.5c-.4.9.3 1.3.1 2.1-.2.8.3 1.3-.1 2.1-.3.8.4 1.4 0 2.5s.3 1.3 0 2.4c-.3 1.2.5 1.9 0 2.7-.5.9.6 1.2.1 2.1-.3.4 0 1.5.5.2.4-1.3-.3-1.5.1-2s-.1-2 0-2.7c.2-.8-.4-1.8 0-2.6s-.5-1.7-.2-2.4c.4-.7-.2-1.6.2-2.1.3-.6-.2-1.3-.1-1.6-.1-.5-.3-1.7-.6-.7z"/><path fill="#EF072D" stroke="#000" stroke-width=".061" d="M184 81c0-6.1-.9-8.2-4.1-8.2-3.2 0-4.1 2.1-4.1 8.2h8.2z"/><path stroke="#000" stroke-width=".061" d="M175.9 81c0-6.1.9-8.2 4.1-8.2-1.5 0-2.4 1.1-2.6 1.9s-.1.7.2.4c.3-.3.2.4-.1.7-.3.4-.5 1.4-.2 1 .4-.3.7.1.3.6-.4.6-.8 1.9-.4 1.4s.5.3.2.7c-.2.4-.2.7 0 .5.2-.2.2.6 0 .9h-1.5zM183.4 80.7c0-4.8-.6-6.2-1.8-6.7-.7-.3-.7-.2-.4.2.3.4.3 1.1 0 .6-.3-.4-.4-.5-.5-.3-.1.2.3 1.1.7 1.9.3.7.1 1-.3.3-.4-.6-.4-.1-.1.5.5.7.5 2.8.5 3.7l1.9-.2z"/><path fill="#EF072D" stroke="#000" stroke-width=".061" d="M180 81.9c1.3 0 2.7-.2 3.6-.6 1.1-.4 1.2-.8.8-1.3-.3-.3-.9-.1-1.4.1-.6.2-2.1.4-2.9.4-.8 0-2.4-.2-2.9-.4-.6-.2-1.2-.5-1.4-.1-.4.5-.3.9.8 1.3.7.4 2.1.6 3.4.6z"/><path fill="#B95A1E" stroke="#000" stroke-width=".069" d="M192.3 73.8s.8 1.4 1.4 2.5c.6 1 1.1 1.3 1.5 1 .4-.3.1-1.2-.3-1.6l-2.3-2.3-.3.4z"/><path fill="#B95A1E" stroke="#000" stroke-width=".069" d="M192.1 73.9s.3 1.6.6 2.8c.2 1.2.6 1.6 1.1 1.5.5-.1.4-1.1.2-1.6s-1.4-3-1.4-3l-.5.3z"/><path fill="#B95A1E" stroke="#000" stroke-width=".069" d="M191.7 74v2.9c0 1.2.3 1.7.8 1.7s.6-1 .5-1.5c-.1-.5-.8-3.2-.8-3.2l-.5.1zM191.2 73.8s-.8 1.4-1.4 2.5c-.6 1-1.1 1.3-1.5 1-.4-.3-.1-1.2.3-1.6l2.3-2.3.3.4z"/><path fill="#B95A1E" stroke="#000" stroke-width=".069" d="M191.4 73.9s-.3 1.6-.6 2.8c-.2 1.2-.6 1.6-1.1 1.5-.5-.1-.4-1.1-.2-1.6s1.4-3 1.4-3l.5.3z"/><path fill="#B95A1E" stroke="#000" stroke-width=".069" d="M191.7 74v2.9c0 1.2-.3 1.7-.8 1.7s-.6-1-.5-1.5c.1-.5.8-3.2.8-3.2l.5.1zM192.7 61s1.4-1.4 3.7-2.9c2.4-1.4 4.1-2.5 4.4-2.3 0 .3-2 1.7-3.7 2.9-1.7 1.2-3.7 2.9-3.7 2.9l-.7-.6zM192.8 62.2s1.3-.8 3.9-2c2.5-1 6.1-.9 6.1-.6-.3.3-3.4.3-5.4 1.2-1.9.8-3.9 2-3.9 2l-.7-.6zM192.8 64.2s1.2-.6 3.9-1.4c2.7-.9 6.3-.3 6.3 0-.3.3-3.3.1-5.3.6-2.1.5-4.2 1.4-4.2 1.4l-.7-.6zM193 66.2s1.4-1.2 4.3-1.4c2.9-.3 5.3 1.4 5.3 1.7-.3.3-3-1.3-5.1-1-2.2.2-3.8 1.3-3.8 1.3l-.7-.6zM192.3 59.8s2.2-1.4 2.2-2.6c0-1.2-1-2.3-1.2-2.9.5 0 1.8 1.7 1.8 2.9 0 1.3-2.1 3.2-2.1 3.2l-.7-.6z"/><path fill="#B95A1E" stroke="#000" stroke-width=".069" d="M192.3 59.8s-.3-.9-.3-2.6c0-2 1.2-3.3 1.6-3.7.1.4-1.1 2-1.1 3.7 0 1.3.4 3.2.4 3.2l-.6-.6zM190.8 61s-1.4-1.4-3.7-2.9c-2.4-1.4-4.1-2.5-4.4-2.3 0 .3 2 1.7 3.7 2.9 1.7 1.2 3.7 2.9 3.7 2.9l.7-.6zM190.7 62.2s-1.3-.8-3.9-2c-2.5-1-6.1-.9-6.1-.6.3.3 3.4.3 5.4 1.2 1.9.8 3.9 2 3.9 2l.7-.6zM190.7 64.2s-1.2-.6-3.9-1.4c-2.7-.9-6.3-.3-6.3 0 .3.3 3.3.1 5.3.6 2.1.5 4.2 1.4 4.2 1.4l.7-.6zM190.5 66.2s-1.4-1.2-4.3-1.4c-2.9-.3-5.3 1.4-5.3 1.7.3.3 3-1.3 5.1-1 2.2.2 3.8 1.3 3.8 1.3l.7-.6zM191.2 59.8s-2.2-1.4-2.2-2.6c0-1.2 1-2.3 1.2-2.9-.5 0-1.8 1.7-1.8 2.9 0 1.3 2.1 3.2 2.1 3.2l.7-.6z"/><path fill="#B95A1E" stroke="#000" stroke-width=".069" d="M191.2 59.8s.3-.9.3-2.6c0-2-1.2-3.3-1.6-3.7-.1.4 1.1 2 1.1 3.7 0 1.3-.4 3.2-.4 3.2l.6-.6z"/><path fill="#B95A1E" stroke="#FDC301" stroke-width=".174" d="M198.8 80.6c-.8-2-1.1-5.5-1.1-6 0-1.6.5-9.5.5-12.7 0-3.2-1.9-4.9-3.8-4.9-1.6 0-2.7 1.2-2.7 2.9h.8c0-1.2.8-2 1.9-2 1.6 0 2.9 1.4 3 4 .1 3.1-.3 11.1-.3 13.2.2 2.1.9 4.1 1.7 5.5zM184.6 80.6c.8-2 1.1-5.5 1.1-6 0-1.6-.5-9.5-.5-12.7s1.9-4.9 3.8-4.9c1.6 0 2.7 1.2 2.7 2.9h-.8c0-1.2-.8-2-1.9-2-1.6 0-2.9 1.4-3 4-.1 3.1.3 11.1.3 13.2-.1 2.1-.8 4.1-1.7 5.5z"/><path fill="#B95A1E" stroke="#000" stroke-width=".069" d="M191.7 73.9c1.5 0 1.7-.6 1.7-.6s.3-1.2.2-1.4c-.2-.3-1.9-.3-1.9-.3v2.3z"/><path fill="#B95A1E" stroke="#000" stroke-width=".069" d="M191.7 72.8c1.6 0 1.9-.6 1.9-.6s.5-1.2.3-1.4c-.3-.3-2.2-.3-2.2-.3v2.3z"/><path fill="#B95A1E" stroke="#000" stroke-width=".069" d="M191.7 71.6c1.4 0 2.2-.6 2.2-.6s.5-1.2.3-1.4c-.3-.3-2.5-.3-2.5-.3v2.3z"/><path fill="#B95A1E" stroke="#000" stroke-width=".069" d="M191.7 70.2c2.5 0 2.5-.7 2.5-.7s.5-1.2.3-1.4c-.3-.3-2.7-.1-2.7-.1v2.2z"/><path fill="#B95A1E" stroke="#000" stroke-width=".069" d="M191.7 69.1c2.5 0 2.7-.6 2.7-.6s.5-1.2.3-1.4c-.3-.3-3-.3-3-.3v2.3z"/><path fill="#B95A1E" stroke="#000" stroke-width=".069" d="M191.7 67.6c2.5 0 3-.6 3-.6s.5-1.2.3-1.4c-.3-.3-3.3-.3-3.3-.3v2.3z"/><path fill="#B95A1E" stroke="#000" stroke-width=".069" d="M191.7 66.2c2.5 0 3.3-.6 3.3-.6s.3-1.2 0-1.4c-.3-.3-3.3-.3-3.3-.3v2.3z"/><path fill="#B95A1E" stroke="#000" stroke-width=".069" d="M191.7 64.7c2.5 0 3.3-.6 3.3-.6s0-1.2-.3-1.4c-.3-.3-3-.3-3-.3v2.3z"/><path fill="#B95A1E" stroke="#000" stroke-width=".069" d="M191.7 63.3c2.5 0 3-.6 3-.6s0-1.2-.3-1.4c-.3-.3-2.7-.3-2.7-.3v2.3z"/><path fill="#B95A1E" stroke="#000" stroke-width=".069" d="M191.7 59.7c1.9 0 2.7 1.7 2.7 1.6l-.6.5c-.3.3-2.2.3-2.2.3l.1-2.4zM191.7 73.9c-1.5 0-1.7-.6-1.7-.6s-.3-1.2-.2-1.4c.2-.3 1.9-.3 1.9-.3v2.3z"/><path fill="#B95A1E" stroke="#000" stroke-width=".069" d="M191.7 72.8c-1.6 0-1.9-.6-1.9-.6s-.5-1.2-.3-1.4c.3-.3 2.2-.3 2.2-.3v2.3z"/><path fill="#B95A1E" stroke="#000" stroke-width=".069" d="M191.7 71.6c-1.4 0-2.2-.6-2.2-.6s-.5-1.2-.3-1.4c.3-.3 2.5-.3 2.5-.3v2.3z"/><path fill="#B95A1E" stroke="#000" stroke-width=".069" d="M191.7 70.2c-2.5 0-2.5-.7-2.5-.7s-.5-1.2-.3-1.4c.3-.3 2.7-.1 2.7-.1v2.2z"/><path fill="#B95A1E" stroke="#000" stroke-width=".069" d="M191.7 69.1c-2.5 0-2.7-.6-2.7-.6s-.5-1.2-.3-1.4c.3-.3 3-.3 3-.3v2.3z"/><path fill="#B95A1E" stroke="#000" stroke-width=".069" d="M191.7 67.6c-2.5 0-3-.6-3-.6s-.5-1.2-.3-1.4c.3-.3 3.3-.3 3.3-.3v2.3z"/><path fill="#B95A1E" stroke="#000" stroke-width=".069" d="M191.7 66.2c-2.5 0-3.3-.6-3.3-.6s-.3-1.2 0-1.4c.3-.3 3.3-.3 3.3-.3v2.3z"/><path fill="#B95A1E" stroke="#000" stroke-width=".069" d="M191.7 64.7c-2.5 0-3.3-.6-3.3-.6s0-1.2.3-1.4c.3-.3 3-.3 3-.3v2.3z"/><path fill="#B95A1E" stroke="#000" stroke-width=".069" d="M191.7 63.3c-2.5 0-3-.6-3-.6s0-1.2.3-1.4c.3-.3 2.7-.3 2.7-.3v2.3z"/><path fill="#B95A1E" stroke="#000" stroke-width=".069" d="M191.7 59.7c-1.9 0-2.7 1.7-2.7 1.6l.6.5c.3.3 2.2.3 2.2.3l-.1-2.4z"/></svg>
