<svg xmlns="http://www.w3.org/2000/svg" width="240" height="160" viewBox="0 0 60 40"><path fill="#002395" d="M0 0h60v40H0z"/><path fill="#FFF" d="M0 0h24.4v16.4H0z"/><path fill="#002395" d="M0 0h8v16H0z"/><path fill="#ED2939" d="M16 0h8v16h-8z"/><path fill="#FFF" d="M35.5 18.3l1.3 2.1h3.7v7.1l-2.8-4.3-3.7 5.9h1.8l1.9-3.4 3.9 7 3.9-7 1.9 3.4h1.8l-3.7-5.9-2.8 4.3v-4h1.7l1.2-1.9h-2.9v-1.3h3.7l1.3-2.1H35.5zm4.3 8.7h-4v1.4h4V27zm7.6 0h-4v1.4h4V27z"/><path fill="#FFF" d="M39.6 35.6h4l-3.2 2.3 1.2-3.8 1.2 3.8m-7.7-5.7h4l-3.2 2.3 1.2-3.8 1.2 3.8m5.8-2.3h4l-3.2 2.3 1.2-3.8 1.2 3.8m-16-12.4h4l-3.2 2.3 1.2-3.8 1.2 3.8m13.4-2.3h4l-3.2 2.3 1.2-3.8 1.2 3.8"/></svg>
