<svg xmlns="http://www.w3.org/2000/svg" width="240" height="160" viewBox="0 0 120 80"><path fill="#060" d="M0 0h120v80H0z"/><path fill="#FFF" d="M0 0h120v57.1H0z"/><path fill="#C00" d="M0 0h120v22.9H0z"/><path fill="#F8C300" d="M73.7 48.3c-2.3.9-4.9-.2-5.9-2.5-.7.7-1.6 1.1-2.6 1.2-2.4.2-4.5-1.5-4.7-3.9v-3.4c0-.8.7-1.4 1.5-1.4.5 0 .9.3 1.2.7.6-1.8-.4-3.7-2.1-4.3-1.8-.6-3.7.4-4.3 2.1-.2.7-.2 1.4 0 2.1.4-.7 1.3-.9 2-.5.4.2.7.7.7 1.2V43c-.2 2.4-2.3 4.2-4.7 3.9-1-.1-1.9-.5-2.6-1.2-.9 2.3-3.5 3.4-5.9 2.5-.3-.1-.7-.3-1-.5.4 4.2 6.7 3.3 7.1-.7 2 3.4 6.3 2.5 7.5-1.8 1.3 4.2 5.6 5.2 7.5 1.8.5 4 6.7 4.9 7.1.7-.1.3-.5.5-.8.6zM57.6 37.4c.1-1.1 1-1.9 2.1-2.1 1.3-.2 2.6.8 2.8 2.1-1-.2-1.9.2-2.4 1.1-.6-.8-1.6-1.3-2.5-1.1zm-2.3 13c-.9 1.9-2.6 2.2-4.1.7 0 0 .6-.4 1.3-.6-.1-.5.1-1.2.5-1.6.4.3.9.8 1 1.4.9-.1 1.3.1 1.3.1zm6.8-.2c-1.2 1.7-2.9 1.7-4.2 0 0 0 .7-.3 1.3-.3 0-.5.3-1.2.7-1.5.3.3.8.9.8 1.5 1 0 1.4.3 1.4.3zm6.8.9c-1.4 1.5-3.2 1.2-4.1-.7 0 0 .7-.2 1.4-.1.1-.5.5-1.1 1-1.4.3.4.6 1 .5 1.6.8.2 1.2.6 1.2.6z"/><path fill="none" stroke="#F8C300" stroke-width="2.133" d="M48.9 54.6c7.2-2.2 14.9-2.2 22.2 0"/><path fill="#F8C300" d="M57.3 26.5h5.4l-4.4 3.2 1.7-5.2 1.7 5.2m-12.4-1h5.4l-4.4 3.2 1.7-5.2 1.7 5.2m-10.3 2.6h5.4l-4.4 3.2 1.7-5.2 1.7 5.2m-6.5 4.8h5.4l-4.4 3.2 1.7-5.2 1.7 5.2m24-13.8L68 26.7l-1.7 5.2 4.4-3.2h-5.4m10.2 9l-1.7-5.2-1.7 5.2 4.4-3.2h-5.4m6.6 11.2L76 40.6l-1.7 5.2 4.4-3.2h-5.4"/></svg>
