<svg xmlns="http://www.w3.org/2000/svg" width="240" height="160" viewBox="0 0 120 80"><path fill="#00247D" d="M0 0h120v80H0z"/><path fill="#FED100" d="M40.3 63.3c-1 0 9-7 17.3-16.1 10.9-11.8 34.3-30.7 41.2-33.8.7-.3-1.5 1.6-1.8 2.3-7.4 11.6-1.5 33.5 7.7 44.5 2.8 2.8 2.6 3 7.7 3.2v.6l-72.1-.7zm-.6 1.3s-.7.7-.7 1.2c0 .6.8 1.3.8 1.3l71.1 1 1.3-1.2-1.8-1.5-70.7-.8z"/><path fill="#FFF" d="M25.5 8.7h8L27 13.4l2.5-7.6 2.5 7.6m15.4 13.2l-2.1-6.3-2.1 6.3 5.4-3.9h-6.7M13.5 32L11 24.4 8.5 32l6.5-4.7H7M32.4 62l-2.9-8.9-2.9 8.9 7.6-5.5h-9.3"/></svg>
