<svg xmlns="http://www.w3.org/2000/svg" width="240" height="160" viewBox="0 0 240 160"><path fill="#28AE66" d="M0 0h240v160H0z"/><path fill="#FFF" d="M119.2 17.7c7.1 3 12.1 10.1 12.1 18.3 0 11-8.9 19.9-19.9 19.9-4.9 0-9.4-1.8-12.9-4.7 2.1.9 4.5 1.5 7 1.6 11 .5 20.3-8 20.8-19 .1-6.4-2.6-12.2-7.1-16.1zm-19 14.7l2.3-6.9-5.9 4.3h7.3L98 25.5l2.2 6.9zm0-10.3l2.3-6.9-5.9 4.3h7.3L98 15.2l2.2 6.9zm10.1 5.3l2.3-6.9-5.9 4.3h7.3l-5.9-4.3 2.2 6.9zM90 37.4l2.3-6.9-5.9 4.3h7.3l-5.9-4.3 2.2 6.9zm10.2 5.2l2.3-6.9-6 4.3h7.3l-5.9-4.3 2.3 6.9z"/><path fill="#CA3745" d="M28.8 0H72v160H28.8z"/><path fill="#FAAE29" d="M33.4 14.1c0-13.2 34-13.2 34 0s-34 13.2-34 0zM68 44.2L50.4 32.5 32.8 44.2l17.6 11.7L68 44.2zM33.4 74.3c0 13.2 34 13.2 34 0 0-13.1-34-13.1-34 0zm34 58.6c0-13.2-34-13.2-34 0 0 13.1 34 13.1 34 0zm-34 11.2c1.3-3.6-.3-3.5-.5-5-1.8 1.6.3 4 .5 5zm1.1 3.1c-.4-1.5 1.7-2.2.8-4-.5 1.1-1.3 1.5-1.4 2.8-1-.7-.6-2-2.6-3.1.2 1.2.4 3.1 3.2 4.3zm1.4 3.3c-.3-1.8 1.4-2.9 0-4.5 0 1.1-.7 2.1-.6 3.2-.7-.8-2.6-1.8-3.3-2.6.2 2.5 2.4 2.7 3.9 3.9zm1.7-1.3c-.9 1.5.1 2.4.7 3.4-.7-.2-4.8-2.3-5.3-2.7 1 3.5 4.6 3 6.3 3.6-.4-2.6-1.3-3-1.7-4.3zm5.8 5.9c-1.6-1.1-1.7-3.5-3.9-3.7.9 1 .9 2.1 2.3 3.1-1.2.1-2.3-.7-3.5-.7-.8 0-1.5.2-2.2.1 3.2 2.2 4.4 1 7.3 1.2zm24-11c.2-1 2.3-3.3.5-5-.2 1.5-1.8 1.4-.5 5zm2.1-1.1c-2 1.1-1.6 2.3-2.6 3.1-.1-1.3-.9-1.7-1.4-2.8-.8 1.8 1.2 2.4.8 4 2.7-1.3 2.9-3.1 3.2-4.3zm-4 6.2c.1-1.1-.6-2.1-.6-3.2-1.5 1.7.2 2.7 0 4.5 1.5-1.2 3.7-1.4 3.9-3.9-.6.8-2.5 1.8-3.3 2.6zm-3 3.4c.6-1 1.6-1.9.7-3.4-.4 1.3-1.2 1.7-1.7 4.3 1.7-.7 5.3-.1 6.3-3.6-.6.4-4.6 2.4-5.3 2.7zm0 1.1c-1.2 0-2.2.8-3.5.7 1.4-1 1.4-2.1 2.3-3.1-2.3.3-2.3 2.6-3.9 3.7 2.9-.3 4.1.9 7.3-1.3-.7.3-1.4 0-2.2 0zm-12.1 1.6c-4.4-.9-7.4.8-11.9.8 5.9 2.1 7.6-.8 10.9-.5-1.4.4-2.7 1.1-3.8 2.2l.8.6c1.5-1.6 2.9-2.3 4.1-2.6 1.2.3 2.6 1 4.1 2.6l.8-.6c-1.2-1-2.5-1.7-3.8-2.2 3.3-.3 4.9 2.6 10.9.5-4.6 0-7.7-1.7-12.1-.8zM68 104.4L50.4 92.7l-17.6 11.7 17.6 11.7L68 104.4zm-1.5 14.9c0-.8-.7-1.5-1.5-1.5s-1.5.7-1.5 1.5.7 1.5 1.5 1.5 1.5-.7 1.5-1.5zm-29.2 0c0-.8-.7-1.5-1.5-1.5s-1.5.7-1.5 1.5.7 1.5 1.5 1.5 1.5-.7 1.5-1.5zm26.2-30.1c0 .8.7 1.5 1.5 1.5s1.5-.7 1.5-1.5-.7-1.5-1.5-1.5-1.5.7-1.5 1.5zm-29.2 0c0 .8.7 1.5 1.5 1.5s1.5-.7 1.5-1.5-.7-1.5-1.5-1.5-1.5.7-1.5 1.5zm32.2-30.1c0-.8-.7-1.5-1.5-1.5s-1.5.7-1.5 1.5.7 1.5 1.5 1.5 1.5-.6 1.5-1.5zm-29.2 0c0-.8-.7-1.5-1.5-1.5s-1.5.7-1.5 1.5.7 1.5 1.5 1.5 1.5-.6 1.5-1.5zm26.2-30c0 .8.7 1.5 1.5 1.5s1.5-.7 1.5-1.5-.7-1.5-1.5-1.5-1.5.6-1.5 1.5zm-29.2 0c0 .8.7 1.5 1.5 1.5s1.5-.7 1.5-1.5-.7-1.5-1.5-1.5-1.5.6-1.5 1.5z"/></svg>
