<svg xmlns="http://www.w3.org/2000/svg" width="240" height="160" viewBox="0 0 60 40"><path fill="#5B97B1" d="M0 0h60v40H0V0z"/><path fill="#00008B" d="M0 0h30v20H0V0z"/><path fill="#FFCE00" d="M27.5 31.1l1.7 5.2-4.5-3.2h5.5l-4.5 3.2 1.8-5.2zm9.9-1.5l-1.7 5.2-1.7-5.2 4.5 3.2H33l4.4-3.2zm0-7.1l-1.7 5.2-1.7-5.2 4.5 3.2H33l4.4-3.2zm7.3 5.3L43 33l-1.7-5.2 4.5 3.2h-5.5l4.4-3.2zm0-15.4L43 17.7l-1.7-5.2 4.5 3.2h-5.5l4.4-3.3zm3.1 10l1.7 5.2-4.5-3.2h5.5L46 27.6l1.8-5.2zm3-12.1l-1.7 5.2-1.7-5.2 4.5 3.2h-5.5l4.4-3.2zm3.1 8.1l1.7 5.2-4.5-3.2h5.5l-4.5 3.2 1.8-5.2zm0-13.5l1.7 5.2-4.5-3.2h5.5l-4.5 3.2 1.8-5.2z"/><path fill="#FFF" d="M17.5 6.1V0h-5v6.1L3.3 0H0v2.2l6.7 4.4H0v6.7h6.7L0 17.8V20h3.3l9.1-6.1V20h5v-6.1l9.1 6.1H30v-2.2l-6.6-4.4H30V6.7h-6.6L30 2.2V0h-3.4l-9.1 6.1z"/><path fill="#F00" d="M13.5 0h3v8H30v4H16.5v8h-3v-8H0V8h13.5V0zM0 0l10 6.7H7.8L0 1.5V0zm30 0h-2.2l-10 6.7H20L30 0zm0 20l-10-6.7h2.2l7.8 5.2V20zM0 20h2.2l10-6.7H10L0 20z"/></svg>
