<svg xmlns="http://www.w3.org/2000/svg" width="240" height="160" viewBox="0 0 120 80"><path fill="#FE0000" d="M0 0h120v80H0z"/><path fill="#000095" d="M0 0h60v40H0z"/><path fill="#FFF" d="M45 20l-6.7-1.8c.1.6.2 1.2.2 1.8s-.1 1.2-.2 1.8L45 20zm-23.3-1.8L15 20l6.7 1.8c-.1-.6-.2-1.2-.2-1.8s.1-1.2.2-1.8zM30 28.5c-.6 0-1.2-.1-1.8-.2L30 35l1.8-6.7c-.6.1-1.2.2-1.8.2zM30 5l-1.8 6.7c.6-.1 1.2-.2 1.8-.2s1.2.1 1.8.2L30 5zm8.1 17.6c-.4 1.2-1 2.2-1.8 3.1l6.7 1.8-4.9-4.9zM17 12.5l4.9 4.9c.4-1.2 1-2.2 1.8-3.1L17 12.5zm15.6-.6c1.2.4 2.2 1 3.1 1.8L37.5 7l-4.9 4.9zm-8.3 14.4L22.5 33l4.9-4.9c-1.2-.4-2.2-1-3.1-1.8zm11.4 0c-.9.8-1.9 1.4-3.1 1.8l4.9 4.9-1.8-6.7zM22.5 7l1.8 6.7c.9-.8 1.9-1.4 3.1-1.8L22.5 7zm13.8 7.3c.8.9 1.4 1.9 1.8 3.1l4.9-4.9-6.7 1.8zm-14.4 8.3L17 27.5l6.7-1.8c-.8-.9-1.4-1.9-1.8-3.1zM30 12.5c4.1 0 7.5 3.4 7.5 7.5s-3.4 7.5-7.5 7.5-7.5-3.4-7.5-7.5 3.4-7.5 7.5-7.5z"/></svg>
