<svg xmlns="http://www.w3.org/2000/svg" width="240" height="160" viewBox="0 0 240 160"><path fill="#FFF" d="M0 0h240v160H0z"/><path fill="#0038A8" d="M88.9 17.8H240v17.8H88.9V17.8zm0 35.5H240v17.8H88.9V53.3zM0 88.9h240v17.8H0V88.9zm0 35.5h240v17.8H0v-17.8z"/><path fill="#FCD116" stroke="#000" stroke-width=".53" stroke-miterlimit="20" d="M42.4 53.1l2.9 4.4C33.2 66.3 40.6 71.4 32 74.2c5.3-5.2-.8-5.6 3.7-16.5m1.2-8.5l-1 5.2c-14.7-2.4-13.2 6.5-21.2 2.4 7.4.1 3.4-4.6 14.2-9.1m6.9-5.3l-4.4 2.9C22.6 33.2 17.5 40.6 14.7 32c5.2 5.3 5.6-.8 16.5 3.7m8.5 1.2l-5.2-1c2.4-14.7-6.5-13.2-2.4-21.2-.1 7.4 4.6 3.4 9.1 14.2m5.3 6.9l-2.9-4.4c12.1-8.8 4.7-13.9 13.3-16.7-5.3 5.2.8 5.6-3.7 16.5M52 39.7l1-5.2c14.7 2.4 13.2-6.5 21.2-2.4-7.4-.1-3.4 4.6-14.2 9.1m-6.9 5.3l4.4-2.9c8.8 12.1 13.9 4.7 16.7 13.3-5.2-5.3-5.6.8-16.5-3.7M49.2 52l5.2 1c-2.4 14.7 6.5 13.2 2.4 21.2.1-7.4-4.6-3.4-9.1-14.2" stroke-linecap="square"/><path fill="none" stroke="#000" stroke-width=".53" stroke-miterlimit="20" d="M40.3 54.4c-6.7 11-2.3 17-8.2 19.9m2.4-25.7C22 51.6 20.8 59 14.6 56.8m19.9-16.5c-11-6.7-17-2.3-19.9-8.2m25.7 2.4c-3-12.5-10.4-13.7-8.2-19.9m16.5 19.9c6.7-11 2.3-17 8.2-19.9m-2.4 25.7c12.5-3.1 13.7-10.4 19.9-8.2M54.4 48.6c11 6.7 17 2.3 19.9 8.2m-25.7-2.4c3.1 12.5 10.4 13.7 8.2 19.9"/><path fill="#FCD116" stroke="#000" stroke-width=".53" stroke-miterlimit="20" d="M44.4 44.4h5.9l-5.9 32.3-5.9-32.3h5.9v32.3m0-32.3l4.1 4.1-27 18.7 18.7-27 4.2 4.2-22.8 22.9m22.8-22.9v5.9l-32.3-5.9 32.3-5.9v5.9H12.2m32.2 0l-4.1 4.1-18.7-27 27 18.7-4.2 4.2-22.8-22.8m22.8 22.8h-5.9l5.9-32.3 5.9 32.3h-5.9V12.2m0 32.2l-4.1-4.1 27-18.7-18.7 27-4.2-4.2 22.8-22.8M44.4 44.4v-5.9l32.3 5.9-32.3 5.9v-5.9h32.3m-32.3 0l4.1-4.1 18.7 27-27-18.7 4.2-4.2 22.8 22.8"/><circle cx="44.4" cy="44.4" r="10.8" fill="#FCD116" stroke="#000" stroke-width=".53" stroke-miterlimit="20"/><path d="M52.4 40.1c-.7.8-1.1-.6-3.5-.6s-2.8 1.5-3.2 1.2c-.4-.3 2.1-2.1 2.8-2.2.7 0 3 .8 3.9 1.6zm-.6 1.9c-.4 0-.8-.3-1.3-.6.2.3.2.6.1.9.1-.1.3-.2.4-.3.7-.5-1 1.2-2.1 1.2s-2.5-.6-2.2-1c.4-.6.9.6 2 .6-.6-.3-1.3-1-1.1-1.6-.3.1-.6.4-1.2.9V42c.1-1.2 1.1-1.4 2.6-1.4 1.5-.1 2.2 1.1 2.8 1.4zm-1.6-.7c-.2-.1-.4-.1-.6-.2.4.5.2 1.3-.2 1.6l.9-.3c.2-.4.1-.8-.1-1.1zm-.6 7.9h-.4.4zm-1.9.4c-.9.3-1.7.6-3.2.6-1.5 0-2.3-.3-3.2-.6-.6 0-.9 0-1.9-.4 3.1 1.3 2.7 1.8 5.1 1.8 2.4 0 2.1-.5 5.1-1.8-1.1.4-1.4.5-1.9.4zm1.3-1.1c.2.3.4.6.5.7h.2s-.1 0-.1.1c.2.3.3.4.5.8-.1-.8-.3-1.1-1.1-1.6zm.6.7s.1 0 .1-.1c0 .1-.1.1-.1.1zm-6.3-8.5c.4-.3-2.1-2.1-2.8-2.2-.8-.1-3 .7-3.9 1.6.7.8 1.1-.6 3.5-.6s2.8 1.5 3.2 1.2zM40 43.2c-1.1 0-2.7-1.7-2.1-1.2.1.1.3.2.4.3-.2-.3-.1-.6.1-.9-.6.3-.9.6-1.3.6.6-.3 1.3-1.5 2.8-1.5 1.6 0 2.5.2 2.6 1.4v.1c-.6-.5-.8-.7-1.2-.9.2.6-.5 1.4-1.1 1.6 1.1 0 1.6-1.2 2-.6.4.5-1.1 1.1-2.2 1.1zm-1.4-.8c.3.2.6.3.9.3-.4-.4-.7-1.2-.2-1.6-.2 0-.4.1-.6.2-.2.3-.3.7-.1 1.1zm1.1 6.8c-.1 0-.2 0-.4-.1.1.1.3.1.4.1zm-.4 0c.1-.2.3-.4.5-.7-.8.6-1 .9-1.1 1.6.3-.5.4-.6.6-.9h-.2c.1-.1.2 0 .2 0zm3.2-3.2c.1-.6.4-.5.4-.9-.9.2-.6 1.5-1.4 1.6-.8.1-1.2 1-1.1.9.5-.4 1.6-.7 2.3-.7s1 .5 1.7.5.9-.5 1.7-.5 1.9.3 2.3.7c.1.1-.3-.8-1.1-.9-.8-.1-.5-1.4-1.4-1.6 0 .4.3.3.4.9 0 .5-.9.5-1.1 0 .2.8-.4.8-.9.8s-1.1 0-.9-.8c0 .5-.9.5-.9 0zm-3.3 3.1s.1 0 .1.1c0 0-.1 0-.1-.1zm5.2.3c1.9 0 2.7.1 3.2.2.4-.1.9-.3 1.5-.4-1.1 0-2.5-.8-3.2-.8-.8 0-1 .2-1.6.2s-.8-.2-1.6-.2c-.7 0-2.1.8-3.2.8.6.1 1.1.2 1.5.4.8 0 1.5-.2 3.4-.2zm0 2.5c-.5 0-1.8.3 0 .3s.5-.3 0-.3z"/></svg>
