<svg xmlns="http://www.w3.org/2000/svg" width="240" height="160" viewBox="0 0 60 40"><path fill="#1EB53A" d="M0 0h60v40H0z"/><path fill="#0099B5" d="M0 0h60v20H0z"/><path fill="#CE1126" d="M0 12.8h60v14.4H0z"/><path fill="#FFF" d="M0 13.6h60v12.8H0V13.6zm8-7.2C8 4 9.7 2 12 1.7c-2.8-.6-5.6 1.6-5.6 4.7s2.8 5.3 5.6 4.7c-2.3-.3-4-2.3-4-4.7zM20.8 2.3h1.8l-1.5 1.1.6-1.7.6 1.7m0 3.8l-.6-1.7-.6 1.7 1.5-1.1h-1.8m1.5 4.9l-.6-1.7-.5 1.7 1.5-1.1h-1.8m5.3-2.7l-.6-1.7-.6 1.7 1.5-1.1h-1.8m1.5 4.9l-.6-1.7L25 11l1.5-1.1h-1.8"/></svg>
