<svg xmlns="http://www.w3.org/2000/svg" width="160" height="160" xmlns:xlink="http://www.w3.org/1999/xlink" viewBox="0 0 2500 2500"><path fill="#fff" d="M0 0h2500v2500H0z"/><path fill="#ffe000" d="M0 0h1250v2500H0z"/><g stroke="#000" stroke-width="3.21" stroke-linejoin="round"><g fill="#ce9d09" stroke-linecap="round"><g id="a"><path fill="#fff" d="M1781.07 990.3l16.1 3.83 25.67 4.17 11.76 1.3-2.08 49.9s-2.8 33.2-7.7 48.97c-3.6 11.7-15.77 33.18-15.77 33.18l-7.68 11.74-45.32-39.26s7.72-10.95 10.52-17c3.5-7.6 7.68-23.87 7.68-23.87l4.46-25.9 2.43-32.77zm-57 151.47l41.28 36s-8.34 7.44-13.35 9.72c-9.82 4.47-20.77 7.5-31.56 7.28-7.73-.17-15.32-2.98-22.35-6.2-15.73-7.17-33.04-14.72-43.18-28.72-3.6-4.96-5-11.57-4.9-17.7.14-6.92 6.3-19.82 6.3-19.82s2.38 8.64 5.12 12.02c4.52 5.58 11.12 9.3 17.6 12.38 4.85 2.3 10.14 4.02 15.5 4.34 6.95.4 14.16-.68 20.64-3.24 3.34-1.32 8.9-6.07 8.9-6.07z"/><path fill="#fff" d="M1658.65 877.67s3.3 6.6 4.3 10.13c1.7 6.03 2.9 12.32 2.86 18.6-.04 6.28-1.46 12.53-3.14 18.6-2.52 9.07-6.32 17.78-10.3 26.32-2.52 5.4-6.05 10.32-8.58 15.73-4.08 8.73-7 17.96-10.6 26.9-3 7.46-6.85 14.6-9.15 22.32-3.04 10.24-4.56 20.9-6 31.47-1.25 9.1-2.23 18.28-2.3 27.47-.06 10.9.26 21.92 2.3 32.63 2 10.6 4.97 21.2 9.72 30.9 3.83 7.82 8.94 15.1 14.88 21.46 4.92 5.24 10.7 9.75 16.88 13.44 5.62 3.35 11.96 5.3 18.04 7.72 8.4 3.34 25.43 9.34 25.43 9.34s-23.52-11.6-31.73-21.36c-6.78-8.07-10.52-18.6-12.87-28.9-2.73-11.9-2.38-24.47-1.15-36.62 1.34-13.07 5.18-25.82 9.16-38.34 4.2-13.22 10.1-25.83 15.45-38.63 3.86-9.2 8.28-18.2 12.02-27.46 4.42-10.95 8.76-21.95 12.3-33.2 2.16-6.87 4.85-13.73 5.43-20.9.63-7.8-.38-15.74-2.17-23.35-2.5-10.66-5.6-21.65-11.82-30.65-3.76-5.42-8.9-10.16-14.77-13.15-5.73-2.93-12.54-5.4-18.85-4.16-2.1.4-5.3 3.67-5.3 3.67z"/><path fill="#fff" d="M1711.6 945.6s4.44-18 5.2-27.2c.64-7.86.22-15.82-.6-23.66-.93-8.74-1.48-17.8-4.86-25.9-3.52-8.4-9.03-16.13-15.58-22.46-6.46-6.24-14.3-11.3-22.66-14.57-8.8-3.42-18.5-4.27-27.92-4.84-8.1-.5-16.24.2-24.28 1.2-4.65.6-9.32 1.34-13.76 2.84-4.1 1.4-11.73 5.67-11.73 5.67l29.95 48.96s9.37-5.52 14.57-6.88c5.5-1.44 11.32-1.54 17-1.2 5.75.32 11.72.88 17 3.23 6.7 2.98 12.48 7.98 17.53 13.3 6.1 6.42 11.55 13.8 14.96 21.96 3.18 7.6 3.6 16.07 4.73 24.22.25 1.77.46 5.33.46 5.33z"/><path d="M1717.05 906.68s-5.33-16.56-10.37-23.48c-5.85-8.03-13.37-15.4-22.26-19.83-9.42-4.7-31-6.2-31-6.2l11.42 21.12-19.96-.5-10.43-17.44-19.23 8.7-9.57-15.63 20.43-9.48-9.4-15.18 20.4-1.95 8.9 14.7s15.88.05 23.6 1.67c5.23 1.1 10.38 2.9 15.1 5.4 4.54 2.38 8.7 5.52 12.46 9 4.5 4.2 8.73 8.87 11.87 14.17 3.07 5.15 6.55 16.73 6.55 16.73zm-135.4-61.58l31.9 46.58m-17.97-54.73l-15.03 8.8-14.3 10.86 30.9 47.22 13.73-10.6 14.12-8.17zm58.22 198.92l17.87-36.9 19.14 7.6 7.77-19.06-19.03-8.85 9.87-21.32-14-6.3-10.6 20.46-19.2-8.03-8.42 19.96 18.6 7.8-17.15 36.63zm143.12-11.04l18.2-.4v21.04l17.54.83-2.98 21.36-16.36-1.03s-2.7 12.57-5.12 18.5c-2.5 6.13-9.66 17.4-9.66 17.4l-19.42-4.86s7.02-11.05 9.7-17c2.4-5.33 5.67-16.6 5.67-16.6l-19.95-2.5 3.47-20.2 18.1 1.26z"/></g><use xlink:href="#a" transform="matrix(-1 0 0 1 3717.75 0)"/><path fill="#fff" d="M1756.66 735.6l-27.42 29.45 16.88 50.93 9.67 35.8-27.74 25.82 50.73 71.05-17.37 19.82c-1.82 2.33-2.46 5.66-2.15 8.6.3 2.7 1.58 5.46 3.58 7.3 4.56 4.18 11.33 5.13 17.3 6.72 21.08 5.6 42.94 8.1 64.67 9.72 4.67.34 14.05 0 14.05 0s9.35.35 14.04 0c21.74-1.63 43.6-4.13 64.66-9.73 6-1.6 12.76-2.55 17.3-6.74 2-1.83 3.3-4.6 3.6-7.3.3-2.93-.33-6.26-2.15-8.6l-16.3-35.87 51.8-55.53-19.76-17.83-.44-43.26 16.88-50.93-25.4-25.73-22.94-61.25s-4.8-17.08-8.87-24.9c-2.44-4.67-5.84-8.8-9.17-12.87-3.98-4.9-8-9.87-12.87-13.88-4.42-3.63-9.54-6.35-14.6-9-5.43-2.88-10.9-5.97-16.84-7.48-6.14-1.57-18.94-1.55-18.94-1.55s-12.8-.03-18.95 1.54c-5.95 1.5-11.4 4.6-16.84 7.47-5.07 2.67-10.2 5.4-14.6 9.02-4.88 4-8.9 8.98-12.88 13.88-3.32 4.08-6.72 8.2-9.15 12.87-4.07 7.82-8.87 24.9-8.87 24.9z"/><path d="M1963.27 933.13s-3.18-2.85-4.96-4c-3.74-2.43-7.76-4.47-11.93-6.07-5.6-2.15-11.55-3.3-17.4-4.65-6.7-1.56-13.4-3.13-20.23-4.04-7.97-1.06-16.03-1.54-24.08-1.62-8.6-.1-25.8 1.2-25.8 1.2s-17.16-1.3-25.78-1.2c-8.04.08-16.1.56-24.08 1.62-6.82.9-13.53 2.48-20.23 4.05-5.85 1.37-11.8 2.5-17.4 4.66-4.17 1.6-8.2 3.64-11.94 6.07-1.78 1.15-4.96 4-4.96 4m218.7-42.7s-5.17-5.26-8.6-5.9c-2.2-.43-4.73.2-6.56 1.5-2.37 1.7-3.95 4.56-4.65 7.4-.62 2.52-.35 5.36.6 7.78.82 2.06 2.1 4.35 4.16 5.17 4.8 1.92 15.4-2.03 15.4-2.03zm5.17-3.6c5.8.18 7.9 3.12 9.45 6.5m-243.24-2.9l-.3 13.9s10.58 3.96 15.38 2.04c2.05-.82 3.33-3.1 4.15-5.16.95-2.4 1.22-5.25.6-7.78-.7-2.83-2.3-5.7-4.66-7.4-1.83-1.3-4.37-1.94-6.57-1.5-3.45.67-8.6 5.92-8.6 5.92zm-5.15-3.6c-5.8.18-7.9 3.12-9.45 6.5m198.17 1.33l-8.45-.94m-130.04.94l8.45-.94m76 .8c-2.88-.4-7.6-4.2-7.6-4.2m-22.8 4.2c2.87-.4 7.6-4.2 7.6-4.2M1992.23 871s-4.22 3.34-7.3 3.85l-1.2.65s-1.94 5.73-3.66 8.17c-1.72 2.45-6.46 6.25-6.46 6.25s-4.8-4.14-7.75-4.95c-1.94-.53-4.16-.54-6.02.22-1.98.8-3.55 2.53-4.74 4.3-1.4 2.1-2.72 4.6-2.6 7.1.14 3.02 3.88 8.2 3.88 8.2l-2.58 4.5-3.66 2.37c-6.32-1.9-12.63-3.94-18.95-7.54-1.74-1.9-3.36-4.3-4.53-9.03 0 0 4.55-2.7 5.6-4.95 1.18-2.54 1.67-6 .2-8.4-1.6-2.66-5.26-4.04-8.38-4.1-2.3-.03-4.7 1.15-6.26 2.8-1.67 1.8-2.97 4.47-2.57 6.9.4 2.46 4.73 5.8 4.73 5.8s-1.8 4.56-3.84 5.43c-6 2.58-9.97 4.04-15.24 4.86-5.2.8-11.07 1.47-16.3 0-3.37-.97-6.84-2.74-8.96-5.54-.63-.83-.86-3-.86-3s6.46-1.7 9.04-3.67c2.56-1.98 5.28-4.58 5.8-7.76.54-3.2-1.16-6.6-3-9.26-1.84-2.65-4.6-4.74-7.54-6.03-1.33-.58-4.3-.64-4.3-.64l-.94.87c-1.24 1.6-2.95 2.86-4.77 3.8l-.1.08-.2.06c-.37.2-.74.42-1.12.58-.2.08-.5.1-.74.16-1.27.43-2.47.78-2.47.78s3.86 1.2 4.95 2.73c.67.95.96 2.1 1.08 3.3.15.73.23 1.45.2 2.14-.04 1.1-.32 2.23-.7 3.32-.35 1.28-.84 2.5-1.67 3.5-.45.54-1 .98-1.6 1.38l-.07.08c-.03.03-.08.04-.1.06-1.05.67-2.22 1.17-3.4 1.5-1.36.38-4.18.08-4.28.06.1 0 5.5 0 7.67-1.56l.2-.14c1.5-1.2 2.6-2.97 3.25-4.88.2-.76.42-1.54.5-2.3.1-1.03.1-2.1 0-3.16-.33-1.58-1.06-3.12-2.22-4.15-2.4-2.13-9.32-2.4-9.4-2.4-.12 0-7 .27-9.4 2.4-1.17 1.04-1.9 2.58-2.23 4.16-.1 1.05-.1 2.13 0 3.15.08.78.3 1.56.5 2.32.66 1.9 1.75 3.68 3.26 4.88l.2.14c2.16 1.55 7.57 1.56 7.67 1.56-.1.02-2.92.32-4.3-.06-1.16-.33-2.33-.83-3.37-1.5-.03-.02-.08-.03-.1-.06l-.1-.08c-.58-.4-1.13-.84-1.58-1.38-.83-1-1.32-2.22-1.67-3.5-.38-1.1-.66-2.22-.7-3.33-.03-.7.05-1.42.2-2.14.12-1.2.42-2.36 1.1-3.3 1.08-1.55 4.93-2.74 4.93-2.74s-1.2-.35-2.47-.78c-.22-.07-.52-.08-.72-.16-.4-.16-.77-.38-1.15-.58l-.16-.05c-.02-.02-.06-.05-.1-.06-1.8-.96-3.53-2.23-4.78-3.83l-.95-.86s-2.96.07-4.3.65c-2.94 1.3-5.7 3.38-7.53 6.03-1.85 2.67-3.55 6.06-3.02 9.26.53 3.18 3.26 5.78 5.82 7.75 2.58 1.97 9.03 3.65 9.03 3.65s-.23 2.18-.86 3c-2.13 2.8-5.6 4.58-8.97 5.54-5.23 1.47-11.1.8-16.3 0-5.27-.8-9.23-2.27-15.25-4.85-2.03-.87-3.83-5.43-3.83-5.43s4.33-3.34 4.73-5.8c.4-2.43-.9-5.1-2.57-6.9-1.56-1.65-3.95-2.83-6.24-2.8-3.1.06-6.78 1.44-8.4 4.1-1.45 2.4-.96 5.86.22 8.4 1.05 2.25 5.6 4.95 5.6 4.95-1.17 4.73-2.8 7.14-4.52 9.03-6.32 3.6-12.64 5.63-18.95 7.54l-3.64-2.37-2.6-4.5s3.75-5.18 3.9-8.2c.1-2.5-1.2-5-2.6-7.1-1.2-1.77-2.76-3.5-4.74-4.3-1.86-.76-4.08-.75-6.02-.22-2.96.8-7.75 4.95-7.75 4.95s-4.74-3.8-6.46-6.25c-1.73-2.44-3.66-8.17-3.66-8.17l-1.2-.65c-3.1-.5-7.3-3.85-7.3-3.85l-4.45.93s-4.1 2.2-4.16 4.16c-.07 2.7 3.72 3.92 5.44 6 1.47 1.8 2.84 3.68 4.14 5.6 1.22 1.8 2.84 3.47 3.43 5.57.65 2.3-.97 4.97 0 7.15 1.23 2.74 3.78 5.42 6.72 6.02 2.62.53 7.6-2.58 7.6-2.58l-.16 19.88 10.32 9.3 9.72 20.32-3.85 5.15 1.13 10c7.48-9.6 20.5-13.8 32.2-17.15 15.72-4.52 44.56-4.84 58-4.72 4.47.04 7.25.14 7.25.14s44.3-1.44 65.25 4.58c11.7 3.36 24.7 7.56 32.2 17.15l1.13-10-3.85-5.15 9.73-20.3 10.3-9.32-.14-19.88s4.96 3.1 7.58 2.58c2.94-.6 5.5-3.28 6.72-6.02.97-2.18-.65-4.85 0-7.15.6-2.1 2.2-3.77 3.43-5.57 1.3-1.92 2.68-3.8 4.15-5.6 1.72-2.08 5.5-3.3 5.43-6-.04-1.95-4.14-4.15-4.14-4.15l-4.44-.92zm-148.33-2.6c1.04.97 3.1 2.84 4.78 3.8.08.05.17.08.25.12.5.27 1.2.5 1.88.74 2.93.8 7.95.26 8.06.25h.03c.1 0 5.12.53 8.04-.26.67-.23 1.37-.46 1.87-.73l.3-.12c1.7-.98 3.72-2.83 4.76-3.8.52-.68.97-1.4 1.3-2.17 1.15-2.65 1.1-6.1-.2-8.7-1.54-3.04-5.18-4.5-8.1-6.27-2.5-1.53-7.9-3.72-8-3.76-.1.04-5.47 2.23-7.97 3.76-2.92 1.78-6.57 3.23-8.1 6.28-1.3 2.6-1.36 6.05-.2 8.7.32.78.77 1.5 1.3 2.17z"/><path d="M1980.77 829.8s-10.9-5.07-16.6-6.9c-10.4-3.3-21.23-5.2-31.96-7.27-12.45-2.4-25.25-3.05-37.6-5.95-3.9-.9-7.54-2.77-11.45-3.57-5.4-1.1-11.07-2.87-16.46-1.7-2.97.63-7.83 4.57-7.83 4.57s-4.86-3.94-7.82-4.58c-5.38-1.17-11.05.6-16.45 1.7-3.9.8-7.55 2.67-11.44 3.58-12.36 2.9-25.16 3.54-37.62 5.95-10.74 2.06-21.56 3.96-31.97 7.28-5.7 1.83-16.6 6.9-16.6 6.9m197.47-45.13s5.35-2.83 7.28-5.06c1.28-1.47 2.5-3.3 2.64-5.24.15-2.28-.62-4.86-2.23-6.48-1.56-1.58-4.06-2.22-6.28-2.23-1.85 0-3.84.62-5.25 1.82-1.63 1.4-2.78 3.54-3.04 5.66-.22 1.82.5 3.7 1.37 5.32 1.3 2.44 5.5 6.22 5.5 6.22zm-151.13 0s4.22-3.78 5.52-6.22c.86-1.62 1.6-3.5 1.37-5.32-.27-2.12-1.42-4.27-3.05-5.66-1.4-1.2-3.4-1.82-5.25-1.82-2.22 0-4.7.65-6.27 2.23-1.6 1.62-2.38 4.2-2.23 6.48.13 1.95 1.34 3.77 2.63 5.25 1.93 2.24 7.28 5.07 7.28 5.07zm-41.06 18l-11.94 15.58s-.08 4.1.82 5.87c1.23 2.42 5.85 5.67 5.85 5.67l.85 21.37-11.3 19.6-1 .2 7.3 3.86c.35.06.68.12 1 .1 4.37-.35 7.06-5.27 10.87-7.45 4.84-2.78 10-5 15.16-7.15 7.12-2.98 14.35-5.73 21.73-8.02 9.3-2.87 18.68-5.75 28.32-7.13 7.3-1.06 14.72-1.55 22.1-1.45 2.47.03 4.92.13 7.38.3 6.57.44 19.37 3.4 19.47 3.42.08-.02 12.9-2.98 19.48-3.43 9.8-.65 19.74-.24 29.47 1.17 9.64 1.38 19.03 4.26 28.33 7.14 7.38 2.3 14.62 5.05 21.74 8.03 5.15 2.16 10.3 4.37 15.16 7.15 3.8 2.18 6.5 7.1 10.88 7.44.3.03.65-.03 1-.1l7.28-3.84-1-.2-11.3-19.6.85-21.4s4.64-3.24 5.87-5.66c.9-1.76.8-5.87.8-5.87l-11.93-15.57s-6 6-9.9 7.28c-2.05.67-4.42.64-6.48 0-2.5-.78-4.43-2.8-6.47-4.45-4.6-3.7-9.23-7.53-12.95-12.13-2.13-2.63-5.26-8.7-5.26-8.7s-12.9 10.14-20.64 12.14c-7.58 1.96-15.96 1.6-23.47-.6-1.88-.55-5.03-3.07-5.03-3.07-8.82-5.62-17.65-8.7-26.42-7.85-8.78-.84-17.6 2.23-26.43 7.85 0 0-3.15 2.52-5.04 3.07-7.5 2.2-15.88 2.56-23.45.6-7.73-2-20.64-12.13-20.64-12.13s-3.12 6.07-5.25 8.7c-3.72 4.6-8.34 8.43-12.95 12.14-2.04 1.65-3.97 3.68-6.48 4.46-2.06.64-4.42.67-6.47 0-3.9-1.28-9.9-7.28-9.9-7.28zm243.65-6.32s.44-5.7-.17-8.45c-.56-2.5-1.7-4.93-3.14-7.07-1.52-2.25-5.66-5.84-5.66-5.84m-1.43 27.68s3.4.12 4.86-.6c2.6-1.3 6.08-6.28 6.08-6.28s6.66 4.6 10.3 4.04c1.8-.27 3.3-1.88 4.26-3.43 1-1.64 1.65-3.77 1.22-5.66-.34-1.5-1.66-2.65-2.83-3.64-2.3-1.93-6.4-1.66-7.9-4.25-1.18-2.04-.46-4.8.2-7.08 1.35-4.73 4.74-8.65 7.48-12.74 1.74-2.6 5.3-4.4 5.67-7.5.2-1.67-2.02-4.65-2.02-4.65s-5.23-.12-7.7.6c-4.07 1.23-8.3 3-11.2 6.13-2.4 2.6-3.1 6.37-4.38 9.68-.96 2.5-2.42 7.68-2.42 7.68s-6.04 0-8.7 1.2c-3.52 1.63-7.1 4.17-8.7 7.7-1.25 2.76-1.07 6.27 0 9.1 1.08 2.87 3.5 5.24 6.07 6.88 2.85 1.8 9.7 2.84 9.7 2.84zm-234.7-27.7s-4.13 3.6-5.65 5.85c-1.44 2.14-2.57 4.56-3.13 7.08-.6 2.76-.16 8.46-.16 8.46m-16.94-45.48s-2.22 2.98-2.02 4.66c.37 3.1 3.92 4.9 5.66 7.5 2.74 4.08 6.13 8 7.5 12.73.64 2.27 1.37 5.04.2 7.08-1.5 2.6-5.62 2.32-7.9 4.25-1.18 1-2.5 2.14-2.84 3.64-.43 1.9.2 4.02 1.23 5.67.95 1.56 2.44 3.17 4.24 3.44 3.64.57 10.3-4.04 10.3-4.04s3.48 4.97 6.08 6.27c1.46.73 4.85.6 4.85.6s6.87-1.02 9.72-2.83c2.58-1.64 4.98-4 6.06-6.87 1.1-2.84 1.26-6.35 0-9.1-1.58-3.54-5.17-6.08-8.7-7.7-2.65-1.22-8.7-1.2-8.7-1.2s-1.45-5.18-2.4-7.7c-1.27-3.3-2-7.07-4.4-9.66-2.9-3.1-7.12-4.9-11.2-6.1-2.46-.74-7.68-.62-7.68-.62zm135.63 14.32l8.32-2.44 8.32 2.44m-14.5 20.08s-6.48-5.9-7.7-9.9c-.5-1.76-.44-3.86.42-5.48 1.17-2.2 5.87-4.65 5.87-4.65s-7.1-3.44-8.92-6.68c-1.03-1.83-1.15-4.24-.6-6.27.87-3.2 3.3-5.97 5.86-8.1 3.2-2.63 11.23-5.25 11.23-5.25s8.03 2.62 11.23 5.26c2.57 2.13 5 4.9 5.86 8.1.55 2.03.42 4.44-.6 6.27-1.82 3.24-8.9 6.68-8.9 6.68s4.7 2.45 5.86 4.65c.86 1.62.93 3.72.4 5.47-1.2 4-7.68 9.9-7.68 9.9l-6.17.4zm22.67-26.9s13.44 5.74 18 11.12c1.26 1.5 2.34 3.5 2.22 5.46-.46 6.96-10.33 18.2-10.33 18.2l-19.93-8.27h-12.94l-19.93 8.27s-9.87-11.25-10.32-18.2c-.13-1.97.96-3.97 2.23-5.47 4.55-5.38 18-11.1 18-11.1"/><path d="M1844.36 669.25l8.06-6.2 6.5.14-6.65-.16s-3.6-2.44-4.58-4.3c-.97-1.78-1.43-4-1-6 .54-2.65 2.07-5.45 4.42-6.82 2.23-1.3 7.75-.47 7.75-.47s5.5-.84 7.76.47c2.34 1.36 3.87 4.17 4.42 6.82.42 2-.04 4.22-1 6-1 1.86-4.58 4.3-4.58 4.3l-6.65.15 6.5-.15 8.06 6.2m52.6 5.07l-2.7 4.65m32.64-20l-7.52.98m8.52 8.8l-11.52.6m-1.5-13.74c1.47.95 4.16 2.87 4.6 4.64.77 3.13-.68 7.07-3.14 9.15-2.4 2-9.26 1.5-9.26 1.5m-181.7 33.58s11.3-2.82 16.97-4.18c8.08-1.93 16.1-4.2 24.28-5.66 9.26-1.67 18.62-2.9 28-3.56 11.7-.83 35.22-.57 35.22-.57s23.5-.25 35.22.58c9.37.67 18.73 1.9 28 3.56 8.17 1.47 16.2 3.73 24.27 5.66 5.66 1.36 16.96 4.18 16.96 4.18m-171.55-30.16l2.68 4.65m-32.64-20l7.52.98m-8.52 8.8l11.52.6m-6.47 16.08s12.54-3.18 18.87-4.5c6.92-1.44 13.87-2.82 20.9-3.72 8.06-1.03 16.2-1.55 24.3-1.92 9.64-.44 28.93-.37 28.93-.37s19.27-.06 28.92.38c8.1.37 16.24.9 24.3 1.93 7.03.9 13.98 2.3 20.9 3.73 6.33 1.32 18.87 4.5 18.87 4.5m-170.23-14.54s-6.87.5-9.26-1.5c-2.46-2.1-3.9-6.03-3.14-9.16.6-2.46 5.55-5.2 5.55-5.2m63.13 74c-11.97.72-24 1.47-35.8 3.64-12.3 2.25-24.5 5.4-36.22 9.7-11.1 4.1-22.86 22.65-32.1 15.23-1.97-1.6.76-5.08 1.73-7.43 1.86-4.56 4.43-8.93 7.72-12.6 2.42-2.67 7.98-3.02 8.6-6.57.43-2.58-3.5-4.1-4.3-6.58-1.05-3.18-1.54-6.82-.58-10.02 1.24-4.1 6.53-6.18 7.73-10.3 1.04-3.58-2.55-7.83-.86-11.16 2.13-4.2 11.34-2.77 12.02-7.43.33-2.27-3.83-2.98-4.58-5.15-.53-1.53.3-3.24.28-4.86-.03-2.2.4-4.6-.57-6.6-.86-1.75-3.7-2.13-4.3-4-.56-1.76-.17-4.13 1.14-5.43 1.04-1.03 3.64.44 4.3-.86 1.33-2.62-2.54-5.3-3.72-8-1.4-3.2-3.2-6.32-4-9.73-.64-2.7-2.97-6.9-.58-8.3 2.73-1.6 5.48 3.24 8 5.15 3.36 2.52 7.12 4.82 9.45 8.3 1.68 2.5.74 6.5 2.94 8.58 2.65 2.48 7.76.5 10.5 2.86 2.36 2.05 4.44 5.55 3.72 8.6-.7 2.9-7.53 2.8-6.87 5.7.78 3.46 6.8 3.2 10.3 2.6 2.03-.37 3.46-2.26 5.14-3.45 1.3-.9 2.4-2.22 3.87-2.85 1.7-.72 5.44-.93 5.44-.93l-2.14-.5s-3.17-2.53-3.5-4.36c-.32-1.73.43-3.73 1.64-5 1.35-1.44 3.54-2.17 5.5-2.16 1.65.02 3.45.67 4.58 1.86 1.16 1.23 1.83 3.12 1.65 4.8-.16 1.46-1.13 2.88-2.3 3.8-1.25.97-4.57 1.42-4.57 1.42l2.3.64 6.14 8.44 26.54-1.45s3.27-3.33 2.63-5.15c-.68-1.95-2.5-2.67-5.65-2.53-8.6.38-10.34-6.83-10.02-12.04.27-4.33 5.5-7.27 9.5-8.9 3.9-1.57 10.8 3.6 12.55-.2 1.54-3.33-5.8-5.02-6.98-8.5-.5-1.5-.5-3.34.2-4.75 1.82-3.63 5.72-6.03 9.4-7.7 1.57-.7 5.07-.8 5.07-.8s3.48.1 5.05.8c3.7 1.66 7.6 4.07 9.4 7.7.72 1.4.72 3.25.22 4.75-1.17 3.48-8.52 5.17-6.98 8.5 1.75 3.8 8.66-1.37 12.54.2 4.02 1.63 9.24 4.57 9.5 8.9.33 5.2-1.43 12.42-10 12.04-3.17-.14-4.98.58-5.67 2.53-.65 1.82 2.63 5.16 2.63 5.16l26.54 1.46 6.15-8.44 2.3-.64s-3.33-.45-4.6-1.43c-1.15-.9-2.12-2.33-2.28-3.8-.18-1.67.5-3.56 1.65-4.8 1.13-1.18 2.93-1.83 4.57-1.85 1.96 0 4.15.72 5.5 2.15 1.2 1.28 1.96 3.28 1.65 5-.34 1.84-3.5 4.37-3.5 4.37l-2.15.5s3.74.2 5.43.93c1.48.63 2.55 1.94 3.87 2.86 1.68 1.2 3.1 3.1 5.15 3.45 3.48.6 9.5.87 10.3-2.58.66-2.9-6.18-2.82-6.87-5.72-.72-3.04 1.36-6.54 3.72-8.6 2.74-2.36 7.85-.37 10.5-2.85 2.2-2.07 1.26-6.07 2.95-8.58 2.33-3.48 6.1-5.78 9.44-8.3 2.52-1.9 5.27-6.76 8-5.15 2.4 1.4.06 5.6-.57 8.3-.8 3.4-2.6 6.52-4 9.73-1.2 2.7-5.06 5.38-3.73 8 .66 1.3 3.26-.16 4.3.87 1.3 1.3 1.7 3.67 1.14 5.43-.6 1.87-3.44 2.25-4.3 4-.96 2-.53 4.4-.57 6.6-.02 1.6.82 3.32.3 4.85-.76 2.17-4.92 2.88-4.6 5.16.7 4.67 9.9 3.24 12.03 7.44 1.7 3.33-1.9 7.58-.86 11.16 1.2 4.12 6.5 6.2 7.73 10.3.96 3.2.47 6.84-.58 10.02-.82 2.5-4.74 4-4.3 6.58.6 3.55 6.17 3.9 8.6 6.58 3.28 3.66 5.85 8.03 7.7 12.6.98 2.34 3.7 5.83 1.73 7.43-9.23 7.43-20.98-11.13-32.1-15.2-11.73-4.33-23.92-7.47-36.2-9.72-11.8-2.17-23.85-2.92-35.82-3.65-6.96-.42-20.93-.4-20.93-.4s-13.95-.02-20.94.4zm31.17-133.65l-10.18.12-10.2-.12m16.94-33.88c2.65-5.6-1.97-9.75-6.74-13.86-4.78 4.1-9.4 8.26-6.75 13.86m14.06 46.73c3.9.3 8.63 4.27 11.58 1.72 1.34-1.15.68-3.67 0-5.3-1.57-3.8-8.4-4.62-8.72-8.72-.27-3.54 5.2-5.2 6.3-8.6.54-1.66.67-3.65 0-5.28-2.76-6.58-14.5-6.95-16.54-13.68-.9-3 5.94-6.5 6.8-6.88 4.34-1.88 9.7 2.66 14 .8 2.9-1.26 6.12-4.12 6.06-7.28-.06-3.44-3.72-6.32-6.88-7.7-6.1-2.65-16.22 5.9-19.98.4-3.45-5.05 8.65-11.07 7.03-16.98-.76-2.8-6.97-5.26-6.97-5.26s-6.2 2.44-6.98 5.26c-1.62 5.9 10.5 11.93 7.03 17-3.76 5.5-13.87-3.07-19.98-.4-3.15 1.36-6.82 4.24-6.88 7.68-.05 3.16 3.17 6.02 6.07 7.28 4.3 1.86 9.65-2.68 14-.8.86.38 7.7 3.9 6.8 6.87-2.05 6.72-13.8 7.1-16.54 13.67-.68 1.63-.55 3.62 0 5.3 1.1 3.37 6.57 5.04 6.3 8.58-.32 4.1-7.16 4.92-8.73 8.72-.68 1.63-1.34 4.15 0 5.3 2.96 2.55 7.7-1.43 11.6-1.72 2.42-.18 7.3 0 7.3 0s4.87-.18 7.32 0z"/><path fill="none" d="M1953.74 953.5s-7.15-3.02-10.8-4.34c-6.6-2.4-13.26-4.63-20.03-6.48-6.6-1.8-13.23-3.68-20.02-4.45-14.58-1.63-44-.2-44-.2s-29.4-1.43-44 .2c-6.8.77-13.44 2.66-20.04 4.45-6.77 1.85-13.43 4.1-20.03 6.48-3.64 1.32-10.8 4.34-10.8 4.34M1965.9 731s-11.94-4.76-18.02-6.87c-5.1-1.77-10.2-3.58-15.45-4.86-6.4-1.57-12.93-2.54-19.45-3.44-9.4-1.28-18.85-2.2-28.3-2.78-8.6-.52-25.8-.6-25.8-.6s-17.2.08-25.8.6c-9.46.58-18.9 1.5-28.3 2.78-6.53.9-13.06 1.87-19.46 3.44-5.25 1.28-10.35 3.1-15.45 4.86-6.08 2.1-18.03 6.87-18.03 6.87m-14.16 120.4s17.56-5.9 26.4-8.66c9.14-2.84 18.18-6.06 27.53-8.1 11.2-2.43 22.62-3.62 34-4.85 11.05-1.2 33.27-2.44 33.27-2.44s22.2 1.24 33.28 2.43c11.38 1.22 22.8 2.4 34 4.85 9.34 2.03 18.38 5.25 27.5 8.1 8.86 2.74 26.42 8.66 26.42 8.66"/></g><g fill="#ccc"><g id="b"><path d="M1533.28 904.04l101.17 86.72s-5.13 11.2-7.28 16.98c-1.98 5.33-3.82 10.73-5.14 16.26-1.96 8.14-4.14 24.78-4.14 24.78l-117.95-108.03c1.67-24.7 15.57-33.5 33.33-36.7zM1519 958.2l-24.3 27.16 15.17 14.6-23.46 22.9-15.16-15.18-25.5 27.2-.25 33.75 58.08 45.5 20.03-14.9-1.14-32.32 15.45 8.6 15.46-9.45.86 29.2-12.6-9.17-13.72 18.03-1.43 32.05 43.77 38.92 53.05-47.08-4-14.13-2.32-12.67-1.25-25.13 1.98-27.44z"/><path d="M1494.7 985.36l-.6 30 15.63-15.26z"/><path fill="none" d="M1571.93 1140.42l-1.82 34.27m-18.6-139.7l.65 31.8m-14.8-17.34l.82 25.88m-14.43-36.34l.54 28.93m-21.43 15.22l.3 30.65m24.75-9.68l44.06 36.9 45.06-39.54M1446 1034.6l57.58 49.2 18.88-16.88-14.88-12.6 16.6-15.73 12.88 11.15 14.6-14.88 18.87 18.3-17.15 13.46 16 14.6-15.16 14"/><path d="M1901.35 1229.35l48.6 44.58 10.77 31.43-62.65-6.68-35.66-35.27-37.96-35.17-164.04-142.13s3.48-13.1 5.64-19.53c3.12-9.3 6.86-18.38 10.56-27.47.93-2.28 2.92-6.78 2.92-6.78l183 162.24z"/><path d="M1942.67 1236.04c27.1 37.87 72.7 73.64 86.54 90.84 13.85 17.2 22.77 33.54 2.6 55.54-20.2 22-43.07 9.52-61.15-2.58-18.07-12.1-49.6-51.3-94.7-81.37z"/><path d="M1926.7 1299.75l-35.17-15.87m40.93-38.3c2.42 7.97.57 16.78 3.62 24.42 3.02 7.56 14.03 19.98 14.03 19.98s-7 .98-10.26 2.24c-4.73 1.84-11.95 2.7-13.17 7.64-1.06 4.3 4.06 8.03 7.1 11.27 2.9 3.1 6.64 5.37 10.3 7.53 6.14 3.6 12.4 7.65 19.4 8.9 8.77 1.6 25.13-10.74 26.65-1.97.63 3.64-7.4 1.3-10.72 2.94-7.75 3.8-11.65 12.12-4.82 17.9 4.4 3.7 11.28 2.34 17 2.82 5.5.45 11.76-2.75 16.53 0 5.62 3.26 12.67 11.12 9.7 16.88-3.07 5.93-14.5 5.77-19.93 1.9-4.02-2.85-2.95-9.47-3.54-14.36-.18-1.46 0-2.94 0-4.4"/><circle cx="2154.66" cy="1480.15" r="129.69"/><path fill="#fff" d="M2106.13 1485.65c-22.36 0-40.48 18.12-40.48 40.48 0 22.35 18.12 40.48 40.48 40.48s40.48-18.12 40.48-40.47l14.03-.6c0 22.34 18.13 40.47 40.48 40.47s40.5-18.13 40.5-40.48-18.13-40.48-40.5-40.48l.62-7.94c22.36 0 40.48-18.12 40.48-40.47s-18.12-40.48-40.48-40.48c-22.35 0-40.48 18.12-40.48 40.48l-14.02-1.22c0-22.35-18.13-40.47-40.48-40.47-22.36 0-40.48 18.12-40.48 40.48 0 22.36 18.12 40.5 40.48 40.5z"/><circle cx="2154.67" cy="1446.05" r="14.61"/><circle cx="2189.37" cy="1480.15" r="14.61"/><circle cx="2155.28" cy="1511.2" r="14.61"/><circle cx="2119.35" cy="1480.15" r="14.61"/><path fill="#fff" d="M2152.23 1558.42c-5.34 10.96-12.62 15.94-21.92 21.92 13.26 5.75 29.4 4.7 43.85 0-9.3-4.65-16.04-12-21.92-21.92zm-76.58-80.23c-10.96-5.35-15.94-12.63-21.92-21.93-5.75 13.25-4.7 29.4 0 43.84 4.65-9.3 12-16.03 21.92-21.9zm159.25 3.64c10.95-5.34 15.94-12.62 21.92-21.92 5.75 13.25 4.7 29.4 0 43.84-4.65-9.3-12-16.04-21.92-21.92zm-78.4-80.84c-5.35-10.96-12.63-15.94-21.93-21.92 13.25-5.75 29.4-4.7 43.84 0-9.3 4.65-16.03 12-21.9 21.92z"/></g><g fill="#ce9d09"><g id="c"><path d="M1533.48 903.82s.7-5.06 0-7.44c-1.14-3.87-3.57-7.47-6.58-10.16-2.54-2.27-5.8-3.92-9.16-4.58-3.6-.7-7.46-.1-11 .86-2.43.67-6.77 3.33-6.77 3.33l-14.85 6.1-5.5 17.68s-3.18 5.6-3.94 8.67c-.8 3.3-1.4 6.87-.57 10.16 1 3.86 3.24 7.6 6.3 10.15 2.84 2.36 6.63 3.73 10.3 4 2.83.22 8.3-1.85 8.3-1.85 1.58-18.6 9.86-32.8 33.48-36.9zm-33.21-18.18l-38.75-17-3.15 3 21.12 38.2s5.9-8.75 9.34-12.75c3.5-4.1 11.43-11.45 11.43-11.45z"/><circle cx="1457.29" cy="865.26" r="15.95"/><path d="M1566.2 932.26c3.38 27.95 7.3 55.9 16 83.85l31.08 28.47c-6.62-29.23-18.44-58.46-18.36-87.7z"/><path d="M1613.05 972.4l-85.5-6.35 27.2 24.9 78.08 3.4 1.15-4zm105.31 94.52c-22.44 8.46-31.42 22.3-37.86 37.17-6.35.55-12.3.6-14.4-4.14 5.34-34.7 30.2-45.55 35.75-47.75 14.95-2.8 12.17 8.86 16.5 14.72zm27.52 25.9c-22.44 8.46-31.42 22.3-37.86 37.17-6.35.55-12.3.6-14.4-4.14 5.34-34.7 30.2-45.55 35.75-47.75 14.95-2.8 12.17 8.86 16.5 14.72zm312.78 261.88c-7.34-.2-15.08 1.5-15.08 1.5.3 8-2.94 16.58-11.8 26.22-7.63 8.33-15.66 11.7-23.67 12.05s-2.84 17.66 2.6 23.26c6.35 6.56 27.1 3.87 27.1 3.87l1.78-1.13a129.7 129.7 0 0 1 31.9-39.8l.34-1.25s3.04-16.53-2.14-21.5c-2.36-2.27-6.62-3.08-11.02 0z"/><circle cx="2254.52" cy="1375.42" r="17.66"/><circle cx="2260.61" cy="1580" r="17.66"/><circle cx="2062.12" cy="1591.57" r="17.66"/></g></g></g><g fill="#ce9d09" transform="matrix(-1 0 0 1 3718.256 0)"><use xlink:href="#b"/><use fill="#ccc" xlink:href="#c"/></g><g fill="#fa0204"><path id="d" d="M1869.2 1175.78c0 5.38-4.5 7.46-13.25 7.46s-12.8-2.54-12.8-7.92 4.05-6.7 12.8-6.7 13.24 1.78 13.24 7.16z"/><use x="6.39" y="14.31" xlink:href="#d"/><path d="M1877.34 1208.7c-1.77 5.07-6.7 5.55-14.96 2.67-8.26-2.88-11.24-6.6-9.47-11.68 1.8-5.1 6.04-5 14.3-2.13 8.25 2.88 11.9 6.04 10.14 11.12z"/><path id="e" d="M1877.5 1222.5c-1.06 5.28-5.88 6.43-14.45 4.7s-12.03-5.02-10.96-10.3c1.05-5.26 5.28-5.75 13.85-4.02 8.57 1.73 12.62 4.36 11.56 9.63z"/><use x="3.96" y="16.14" xlink:href="#e"/><path d="M1921.73 1216.2c-2.6-.7-2.3-5.3-1.58-7.9 1.1-3.95 8.35-9.1 8.35-9.1s1.77 5.57.95 8.2c-1.16 3.72-3.95 9.8-7.72 8.8z"/><path d="M1912.3 1224.42c-2.83-.62-3.2-5.52-2.45-8.32 1.14-4.32 9.64-9.32 9.64-9.32s1.47 6.04.5 8.83c-1.26 3.7-3.9 9.66-7.7 8.82zm-10.78 15.58c-4.3-1.13-3.8-8.75-2.66-13.04.95-3.54 3.72-9.12 7.28-8.25 4.17 1.03 4.1 8.33 3.1 12.5-.92 3.8-3.95 9.8-7.72 8.8z"/><path d="M1888.73 1252.2c-4.2-.94-6-7.65-5.16-11.88.88-4.44 5.36-10.4 9.78-9.43 4.46.98 6 8.34 4.93 12.78-1 4.15-5.4 9.42-9.55 8.5zm-2.23 7.38c-1.07 5.1-7.5 6.86-11.45 5.57-4.16-1.36-9.58-7.2-8.44-12.52 1.15-5.4 8.2-6.82 12.33-5.23 3.87 1.48 8.64 7.15 7.58 12.18zm-85.03-49.28s5.14 2.52 7.35 4.78c2.32 2.38 5.1 3.32 3.7 6.92-1.4 3.64-5.83 2.4-8.12-.15-2.13-2.37-2.93-11.56-2.93-11.56zm25.37 8.76c5.2 1.05 5.1 7.12 2.44 10.85-2.8 3.92-10.88 9-16.35 7.9-5.5-1.12-4.84-7.76-1.8-11.66 2.85-3.64 10.56-8.1 15.7-7.08z"/><path id="f" d="M1844.26 1230.55c4.85 2.17 3.4 8.07 0 11.12-3.6 3.2-12.6 6.37-17.68 4.1-5.14-2.3-3.02-8.64.8-11.78 3.6-2.93 12.1-5.6 16.88-3.45z"/><use x="14" y="10.66" xlink:href="#f"/><path d="M1862.97 1250.68c4.8.75 6.07 7.42 4.58 11.7-1.55 4.5-7.47 10.67-12.5 9.87-5.06-.8-5.97-8.14-4.2-12.64 1.67-4.2 7.4-9.67 12.12-8.92z"/><path d="M1875.1 1265.33c3.96 2.3 3.03 9.6.4 13.53-2.74 4.14-9.83 8.63-14 6.2-4.2-2.45-2.73-10.3.22-14.38 2.76-3.8 9.46-7.63 13.38-5.35zm-86.08-39.89c4.24-.38 7.18 5.97 7.13 10.58-.06 4.85-3.32 12.4-7.77 12.8-4.5.4-7.3-6.7-7.07-11.62.24-4.58 3.53-11.4 7.72-11.76z"/><path d="M1802.9 1237.65c4.17.93 5.04 7.87 3.58 12.25-1.53 4.6-6.93 10.8-11.3 9.82-4.4-1-4.92-8.6-3.2-13.2 1.62-4.3 6.82-9.8 10.93-8.87z"/><path d="M1815.8 1246.24c4.9 1.16 5.94 9.77 4.22 15.22-1.82 5.7-8.2 13.42-13.37 12.2-5.2-1.24-5.83-10.7-3.8-16.4 1.9-5.35 8.08-12.16 12.94-11.02z"/><path d="M1826.22 1256.8c5-.64 9 7.06 9.3 12.76.3 6-2.97 15.45-8.23 16.12-5.33.67-9.23-7.96-9.32-14.03-.1-5.67 3.3-14.2 8.24-14.85z"/><path id="g" d="M1838.6 1265.66c4.55-.53 8.17 5.85 8.44 10.58.28 4.96-2.7 12.8-7.48 13.36-4.83.55-8.37-6.6-8.46-11.63-.08-4.7 3-11.78 7.5-12.3z"/><use x="12.79" y="10.35" xlink:href="#g"/><path id="h" d="M1929.28 1250.88c-3.24 2.85-9.7.3-12.62-2.87-3.06-3.34-5.2-10.48-1.8-13.46 3.44-3 10.28.1 13.23 3.6 2.73 3.27 4.38 9.93 1.18 12.74z"/><use x="-7" y="12.79" xlink:href="#h"/><use x="-19.48" y="23.45" xlink:href="#h"/><path d="M1905.2 1281.18c-1.15 4.16-7.94 5.6-12.13 4.56-4.4-1.1-10.12-5.88-8.92-10.25 1.2-4.42 8.65-5.58 13.03-4.3 4.08 1.23 9.13 5.87 8 9.98z"/><path d="M1887.18 1278.2c3.64 2.53 2.8 10.54.38 14.88-2.53 4.55-9.04 9.48-12.86 6.8-3.86-2.68-2.52-11.32.2-15.8 2.52-4.2 8.68-8.4 12.28-5.9z"/><path d="M1869.62 1287.55c3.96 2.3 3.03 9.6.4 13.53-2.74 4.14-9.83 8.63-14 6.2-4.2-2.45-2.73-10.3.22-14.38 2.76-3.8 9.46-7.63 13.38-5.35z"/><path id="i" d="M1831.34 1312.9c-3.4 3.24-.76 11.28 2.77 15.3 3.72 4.2 11.8 8.1 15.36 4.7 3.6-3.44.3-12.03-3.6-16.14-3.62-3.83-11.17-7.04-14.52-3.85z"/><use x="-7.32" y="13.78" xlink:href="#i"/><path id="j" d="M1820.83 1339.55c-4.35 1.75-4.88 10.2-3.08 15.22 1.88 5.28 7.95 11.9 12.5 10.05 4.62-1.86 4.74-11.06 2.65-16.3-1.95-4.9-7.78-10.7-12.07-8.97z"/><use x="-10.55" y="14.85" xlink:href="#j"/><path id="k" d="M1802.66 1371.04c-4.57 1.04-6.43 9.3-5.46 14.54 1.02 5.5 5.97 13 10.76 11.9 4.84-1.1 6.42-10.16 5.2-15.68-1.15-5.15-6-11.78-10.5-10.76z"/><use x="-10.12" y="15.93" xlink:href="#k"/><path id="l" d="M1784.06 1403.3c-4.68.17-8.04 7.93-8.06 13.28-.02 5.6 3.45 13.88 8.37 13.7 4.96-.2 8.2-8.8 8-14.46-.16-5.27-3.68-12.7-8.3-12.52z"/><use x="-10.33" y="19.16" xlink:href="#l"/><use x="-22.39" y="37.02" xlink:href="#l"/><use x="-34.87" y="52.31" xlink:href="#l"/><use x="-47.79" y="66.51" xlink:href="#l"/><use x="-61.99" y="78.14" xlink:href="#l"/><use x="-75.56" y="90.62" xlink:href="#l"/><path d="M1692.8 1500.17l-5.27 20.6s2.93 7.33 6 7.02c5.48-.56 6.96-9.06 8-14.46.96-8.43-8.74-13.17-8.74-13.17zm324.4 13.08c1.62 6.12 15.27 11.3 15.27 11.3l-6.65-27.74c-5.72.16-9.5 12.44-8.6 16.45z"/><path d="M2016 1490.95c-4.35-1.72-10.54 4.04-12.7 8.93-2.27 5.13-2.4 14.1 2.17 15.9 4.62 1.82 11.04-4.77 13.14-10.03 1.96-4.9 1.72-13.1-2.6-14.8z"/><path id="m" d="M2000.82 1478.67c-4.68-.24-8.7 7.2-9.2 12.5-.52 5.6 2.2 14.15 7.12 14.4 4.96.25 8.94-8.05 9.26-13.7.3-5.26-2.56-12.96-7.18-13.2z"/><use x="-13.4" y="-13.7" xlink:href="#m"/><use x="-25.88" y="-29.23" xlink:href="#m"/><use x="-38.66" y="-42.32" xlink:href="#m"/><use x="-49.01" y="-60.28" xlink:href="#m"/><use x="-60.28" y="-76.41" xlink:href="#m"/><use x="-70.63" y="-93.46" xlink:href="#m"/><use x="-79.76" y="-113.25" xlink:href="#m"/><use x="-89.81" y="-131.21" xlink:href="#m"/><use x="-98.03" y="-152.52" xlink:href="#m"/><path d="M1883.85 1304.56s-1.65 26.68 8.04 28.4c6.03 1.06 10.77-14.92 10.77-14.92z"/><path id="n" d="M1862.02 1610.75c-2.88 3.7.9 11.26 5 14.7 4.28 3.62 12.86 6.28 15.87 2.4 3.03-3.93-1.5-11.94-5.94-15.43-4.15-3.25-12.1-5.32-14.94-1.67z"/><use x="18.3" y="-2.15" xlink:href="#n"/><use x="36.81" y="-5.81" xlink:href="#n"/><path id="o" d="M1916.18 1603.8c-2.3 4.1 2.6 11 7.15 13.8 4.78 2.92 13.65 4.27 16.05-.03 2.42-4.34-3.26-11.58-8.18-14.36-4.6-2.6-12.76-3.44-15.02.6z"/><use x="20.02" y="-3.22" xlink:href="#o"/><path id="p" d="M1953.48 1595.43c-1.9 4.28 3.6 10.7 8.4 13.07 5.02 2.48 13.98 3 15.97-1.5 2-4.54-4.3-11.23-9.47-13.55-4.8-2.15-13.02-2.25-14.9 1.98z"/><use x="18.94" y="-5.59" xlink:href="#p"/><path id="q" d="M1991.26 1583.9c-1.65 4.38 4.22 10.47 9.15 12.54 5.17 2.18 14.15 2.17 15.87-2.44 1.74-4.65-4.97-10.96-10.25-12.96-4.93-1.87-13.13-1.48-14.76 2.85z"/><use x="19.16" y="-6.24" xlink:href="#q"/><use x="37.67" y="-13.99" xlink:href="#q"/><use x="57.48" y="-22.17" xlink:href="#q"/><use x="77.5" y="-28.63" xlink:href="#q"/><use x="79.87" y="-44.34" xlink:href="#q"/><path d="M2066.7 1534.88s13.56 2 14.8-2.87c1.64-6.46-15.42-12.74-15.42-12.74z"/><path id="r" d="M1701.62 1575.6c-4 2.45-3.07 10.86-.44 15.52 2.76 4.88 9.87 10.36 14.05 7.76 4.2-2.6 2.76-11.7-.2-16.52-2.75-4.5-9.47-9.2-13.4-6.77z"/><use x="18.94" y="7.75" xlink:href="#r"/><use x="37.03" y="10.55" xlink:href="#r"/><use x="56.83" y="15.5" xlink:href="#r"/><use x="74.7" y="18.08" xlink:href="#r"/><use x="92.35" y="21.74" xlink:href="#r"/><use x="110.43" y="26.69" xlink:href="#r"/><use x="128.3" y="29.92" xlink:href="#r"/><use x="146.6" y="32.72" xlink:href="#r"/><path d="M1648.16 1517.5c-4.17-2.14-10.9 3-13.53 7.63-2.76 4.88-3.8 13.8.58 16.05 4.43 2.26 11.47-3.66 14.08-8.68 2.43-4.68 3-12.87-1.12-15z"/><path d="M1642 1534.4c-4.4-1.57-10.4 4.4-12.4 9.36-2.08 5.2-1.9 14.18 2.73 15.82 4.68 1.66 10.86-5.15 12.78-10.47 1.8-4.95 1.27-13.15-3.1-14.7z"/><path d="M1647.74 1549.94c-4.54-1.16-9.96 5.33-11.5 10.44-1.6 5.37-.63 14.3 4.14 15.5 4.8 1.24 10.36-6.1 11.78-11.57 1.33-5.1.06-13.2-4.42-14.36z"/><path d="M1662.37 1556.3c-4.5-1.3-10.13 5-11.83 10.07-1.8 5.32-1.1 14.27 3.62 15.64 4.77 1.4 10.55-5.77 12.16-11.2 1.5-5.04.5-13.2-3.95-14.5z"/><path id="s" d="M1671.9 1558.8c-4.54 1.14-6.22 9.43-5.14 14.66 1.14 5.5 6.24 12.88 11.02 11.68 4.8-1.2 6.2-10.3 4.85-15.8-1.25-5.12-6.23-11.65-10.72-10.53z"/><use x="16.79" y="6.24" xlink:href="#s"/><use x="8.61" y="-11.19" xlink:href="#i"/><use x="4.66" y="6.47" xlink:href="#i"/><use x="4.91" y="26.68" xlink:href="#i"/><use x="4.66" y="47.87" xlink:href="#i"/><use x="5.57" y="68.57" xlink:href="#i"/><use x="2.22" y="87.75" xlink:href="#i"/><use x="4.66" y="109.06" xlink:href="#i"/><use x="2.22" y="126.41" xlink:href="#i"/><use x="4.66" y="143.46" xlink:href="#i"/><use x="4.66" y="163.86" xlink:href="#i"/><use x="3.44" y="183.95" xlink:href="#i"/><use x="3.74" y="203.13" xlink:href="#i"/><use x="4.35" y="223.52" xlink:href="#i"/><use x="4.35" y="243.31" xlink:href="#i"/><use x="3.74" y="263.1" xlink:href="#i"/><use x="2.52" y="283.19" xlink:href="#i"/><use x="2.52" y="305.11" xlink:href="#i"/><use x="1.92" y="327.94" xlink:href="#i"/><use x="1.92" y="349.25" xlink:href="#i"/><use x="1.92" y="369.04" xlink:href="#i"/><use x="1.31" y="391.27" xlink:href="#i"/><path id="t" d="M1882.24 1303.18c2.44 3.7-1.32 10.83-5.16 13.97-4.04 3.3-11.92 5.46-14.47 1.57-2.57-3.94 1.87-11.46 6.05-14.62 3.9-2.95 11.18-4.58 13.6-.92z"/><use x="2.74" y="16.13" xlink:href="#t"/><use x="2.43" y="34.1" xlink:href="#t"/><use x="2.13" y="52.36" xlink:href="#t"/><use x="1.82" y="69.11" xlink:href="#t"/><use x="2.74" y="87.07" xlink:href="#t"/><use x="1.52" y="104.42" xlink:href="#t"/><path d="M1883.25 1426.06c2.7 3.83-1.46 11.2-5.7 14.45-4.45 3.4-13.15 5.66-15.97 1.63-2.85-4.07 2.06-11.85 6.67-15.12 4.3-3.04 12.34-4.73 15-.94z"/><path id="u" d="M1882.1 1443.58c3.38 3.23.75 11.27-2.78 15.28-3.7 4.2-11.8 8.1-15.35 4.7-3.6-3.43-.3-12.02 3.6-16.13 3.62-3.83 11.17-7.04 14.52-3.85z"/><use x=".61" y="20.4" xlink:href="#u"/><use x=".92" y="40.49" xlink:href="#u"/><use x=".31" y="62.11" xlink:href="#u"/><use x=".92" y="82.2" xlink:href="#u"/><use x=".31" y="102.6" xlink:href="#u"/><use x=".61" y="122.99" xlink:href="#u"/><use x=".61" y="143.69" xlink:href="#u"/><use x="-.3" y="164.4" xlink:href="#u"/><use x=".92" y="183.27" xlink:href="#u"/><use x=".92" y="203.06" xlink:href="#u"/><use x=".31" y="224.37" xlink:href="#u"/><use x=".31" y="245.37" xlink:href="#u"/></g><path fill="#fa0204" d="M1849.64 1848.26c19.9 5.52 31.76 5.24 48.22.43l-17.44-28"/><path fill="#ce9d09" d="M1888.3 1776.16l-31.7-8.14s.37-35.18 20.4-32.12c16.6 2.55 11.98 40.34 11.3 40.26z"/><circle cx="1872.89" cy="1722.97" r="12.92" fill="#ce9d09"/><path fill="#fa0204" d="M1885.37 1791.86c7.05 17.86 11.37 33.24 4.74 53.4m7.6 3.4c-10.22-8.26-36.58-5.83-47.98-.35-4.45 0-16.44-83.23 25.72-81.17 38.72 1.9 24.95 81.9 22.26 81.53z"/><path fill="#fa0204" d="M1815.2 1866.34c19.3 12.24 37.25 11.14 54.25.43l-40.26-41.98"/><circle cx="1843.4" cy="1738.26" r="12.92" fill="#ce9d09"/><path fill="#ce9d09" d="M1859.33 1780.02l-32.72-.65s-4.24-26.6 16.15-27.76c16.93-.95 17.26 28.37 16.58 28.42z"/><path fill="#fa0204" d="M1843.6 1860.74c-6.25-13.9-6.9-31.03-5.16-49.5m-9.47 50.36c-7.68-13.18-9.1-30-3-51.23m43.4 56.63c-4.93-6.2-40.24-8.83-54.1-.4-5.02 0-18.54-93.84 29-91.52 43.65 2.13 28.12 92.36 25.1 91.92z"/></g></svg>
