<svg xmlns="http://www.w3.org/2000/svg" width="240" height="160" viewBox="0 0 240 160"><path fill="#CF142B" d="M0 0h240v160H0V0z"/><path fill="#00247D" d="M0 0h240v106.7H0V0z"/><path fill="#FC0" d="M0 0h240v53.3H0V0z"/><path fill="#FFF" d="M134.9 63.8l-4.4 2.1.7 4.8-3.4-3.5-4.4 2.1 2.3-4.3-3.4-3.5 4.8.8 2.3-4.3.7 4.8 4.8 1zm10.8 8.5l4.8-.5-4.2-2.4 1-4.7-3.6 3.2-4.2-2.4 2 4.4-3.6 3.2 4.8-.5 2 4.4 1-4.7zm12 11.2l4.7 1.2-3.1-3.7 2.6-4.1-4.5 1.8-3.1-3.7.3 4.8-4.5 1.8 4.7 1.2.3 4.8 2.6-4.1zm9.9 12.8l3.8-3-4.8.2-1.7-4.6-1.3 4.7-4.8.2 4 2.7-1.3 4.7 3.8-3 4 2.7-1.7-4.6zm-62.5-32.5l4.4 2.1-.7 4.8 3.4-3.5 4.4 2.1-2.3-4.3 3.4-3.5-4.8.8-2.3-4.3-.7 4.8-4.8 1zm-9.8 13.3l2-4.4 4.8.5-3.6-3.2 2-4.4-4.2 2.4-3.6-3.2 1 4.7-4.2 2.4 4.8.5 1 4.7zM84.8 87.6l.3-4.8 4.7-1.2-4.5-1.8.3-4.8-3.1 3.7-4.5-1.8 2.6 4.1-3.1 3.7 4.7-1.2 2.6 4.1zm-14 13.2l4-2.7 3.8 3-1.3-4.7 4-2.7-4.8-.2-1.3-4.7-1.7 4.6-4.8-.2 3.8 3-1.7 4.6z"/></svg>
