<svg xmlns="http://www.w3.org/2000/svg" xmlns:xlink="http://www.w3.org/1999/xlink" width="240" height="160" viewBox="0 0 240 160"><symbol id="a" viewBox="-6.3 -4.4 12.5 8.7"><path fill="none" stroke="#F7C600" stroke-width=".423" d="M-3.6-.8l3.2 4.6L2.8-.8"/><path fill="#F7C600" stroke="#000" stroke-width=".211" d="M-3-4.3h4.9s.1.6-.5 1c2.6.4 1.9 2.6 4 2.7.4-.1-1.1-1-1.1-1S3-2.4 3.6-2.8c.5-.4.7.2.7.7.1.4 2.1.7 1.8 2-.5 1-3.3-.8-3.3-.8h-2C.7-.6.1.3-.4.3-1.1.3-1.6-.8-1.6-.8h-4.5S-6.3-2-3.9-2.2c.5-.7.9-.9 1.4-1-.4-.3-.5-.6-.5-1.1zM.2.9C.2.6-.1.3-.4.3s-.6.3-.6.6.3.6.6.6.6-.2.6-.6zM.1 3.7c0-.3-.3-.6-.6-.6s-.5.3-.5.6.2.6.6.6c.3 0 .5-.3.5-.6z"/><path fill="#F7C600" stroke="#000" stroke-width=".211" d="M-2.7-3.3h4.1M-4.5-.9s.3-1.9 1.8-2.4"/><path fill="#F00" stroke="#000" stroke-width=".211" d="M-4.8-.8c.2.7.5.8.8 1.8 0 .9-.8.8-.5 1.3.4.7.2 1.3-.6 1.7.2-.8-1-1.6-1-2.3 0-.7.6-.5.5-1.6.1-.6-.2-.5-.2-1h1z"/></symbol><path fill="#00008B" d="M0 0h240v160H0V0z"/><path fill="#FFF" d="M152 46l56.1-.2-.1 49.9s2 7.6-23.5 19.1c9.2-.9 19.1-10.7 19.1-10.7s4.1-5.2 6-2.3c2 2.9 3.8 4.4 5.3 5.5 1.5 1.1 2.6 4.3.4 6.6s-5.6 2.6-6.6-.2c-1.5.7-10.4 11.5-28.7 12.1-18.6-.3-28.8-12.2-28.8-12.2s-2.5 4-6 .8c-3.4-4.1-.8-6.7-.8-6.7s2.9-1.7 3.7-2.8c1.4-1.6 1.8-3.6 4.1-3.6 2.7.2 3.7 2.4 3.7 2.4s9.4 9.9 19.5 11.1c-22.8-10.9-23.6-17.7-23.5-19.4L152 46z"/><path fill="#006129" stroke="#000" stroke-width=".423" d="M153.3 47.4l53.5-.3v48.1c.1 6.2-10.4 12.6-26.8 20.7-17-8.7-26.7-14-26.8-20.8l.1-47.7z"/><use xlink:href="#a" width="12.5" height="8.7" x="-6.3" y="-4.4" transform="matrix(1 0 0 -1 164.214 53.64)" overflow="visible"/><use xlink:href="#a" width="12.5" height="8.7" x="-6.3" y="-4.4" transform="matrix(1 0 0 -1 164.147 62.995)" overflow="visible"/><use xlink:href="#a" width="12.5" height="8.7" x="-6.3" y="-4.4" transform="matrix(1 0 0 -1 164.076 72.11)" overflow="visible"/><use xlink:href="#a" width="12.5" height="8.7" x="-6.3" y="-4.4" transform="matrix(1 0 0 -1 170.058 81.983)" overflow="visible"/><use xlink:href="#a" width="12.5" height="8.7" x="-6.3" y="-4.4" transform="matrix(1 0 0 -1 163.296 90.06)" overflow="visible"/><use xlink:href="#a" width="12.5" height="8.7" x="-6.3" y="-4.4" transform="matrix(1 0 0 -1 163.473 99.59)" overflow="visible"/><use xlink:href="#a" width="12.5" height="8.7" x="-6.3" y="-4.4" transform="matrix(1 0 0 -1 196.97 53.79)" overflow="visible"/><use xlink:href="#a" width="12.5" height="8.7" x="-6.3" y="-4.4" transform="matrix(1 0 0 -1 196.67 62.87)" overflow="visible"/><use xlink:href="#a" width="12.5" height="8.7" x="-6.3" y="-4.4" transform="matrix(1 0 0 -1 196.27 72.15)" overflow="visible"/><use xlink:href="#a" width="12.5" height="8.7" x="-6.3" y="-4.4" transform="matrix(1 0 0 -1 196.72 81.28)" overflow="visible"/><use xlink:href="#a" width="12.5" height="8.7" x="-6.3" y="-4.4" transform="matrix(1 0 0 -1 196.62 90.41)" overflow="visible"/><use xlink:href="#a" width="12.5" height="8.7" x="-6.3" y="-4.4" transform="matrix(1 0 0 -1 196.67 99.59)" overflow="visible"/><path fill="#F7C600" stroke="#000" stroke-width=".211" d="M183.2 104.7s1.3 2.9 2.7 1.1c1.5-1.8.9-2.6.9-2.6l-3.3-1.8-1 2 .7 1.3z"/><path fill="#FFC6B5" stroke="#000" stroke-width=".211" d="M186 104.3s.2 0 .4-.3-.4-.5-.6-.8l-.3.6.5.5zM178.7 103.6l-2.9 1.6s-1.4.3-1.5 0c-.1-.3 0-.5.8-.6.7 0 2.8-1.9 2.8-1.9l.8.9zM178.7 52.5s.1.7.1 1c0 .4-.6 1.1-.6 1.1s-.3 0-.3.2.5.3.5.3-.2.7 0 .8c.2 0-.5 1 0 1.2.5.2 1.2.6 1.6.5.4-.1 0 1.4 0 1.4l-1 2.1 5.5-.6-1.1-1.8s-.5-.4-.4-1.4c.1-1-.1-5.7-.1-5.7l-3.9-.5-.3 1.4zM177.7 60.6s-1.8.8-1.7 3c-.5 2.1-.7 4.3-.7 4.3s-2.1 2.4-2.7 3.2c-.6.9-1.6 2.6-2 3.1-.4.5-1.7 2-1.7 2.6 0 .6-.3 3.1 1.1 3.4.4.1 1.5-2.9 1.5-2.9s.1-1.3-.3-1.6.9-1.1.9-1.1 2.4-1.7 2.9-2.2c.5-.4 2-2.1 2-2.1l.7-9.7z"/><path fill="#FFF" stroke="#000" stroke-width=".211" d="M179.7 58.9s.5 1.2 1.5 1c1-.2 2.2-1.2 2.2-1.2s1 0 1.1.1c.1.1 2.6 2.5 2.5 3.3-.1.7-1.1.5-1.5 1-.4.5-1 1.7-.9 2.7.2.9.7 2.1.6 2.6-.1.5-.5.6-.5.9 0 .2.3.7.3 1.1s-.4 1.1-.4 1.6c.1.5.1 1.8.1 1.8l-.1 6.2s.4.2.4.6c0 .4 2.4 10.7 2.4 10.7s-.1.3-.4.3 1 1.6 1 2.1 1.2 4.1 1.2 4.6-.2 1.6-.3 1.6c-.1 0 .8 2.3.6 2.6-.1.4-1.6.3-1.6.3l-.4-.1s0 .5-.2.5c-.3 0-2.4-.1-2.4-.1s-.6.9-1 .9-.8-.7-.9-.6c-.1.1.3.7.2.9-.1.2-1.9.6-2.3-.3-.4-.9.2-.6.1-.8-.1-.2-.9-.6-1.2-.5-.2.1.6.4.6.7 0 .4-.8.9-1.1.9-.3 0-1-1.3-2-1.2-1 .1-1.6.4-1.6.4s-1.2.5-1.7.4c-.5-.1-.7-.5-.7-.7 0-.2.4-1.1.3-1.4 0-.3-.3-.6-.3-1s.8-1.9.8-1.9v-6.5s-.7 0-.8-.5c0-.5 1.1-10.3 1.3-11 .2-.6.6-2.9.6-2.9s-.5.2-.6 0c0-.2 1.6-5.9 1.6-5.9s.3-2.8.3-3.5c0-.7-.1-1.8-.1-1.8s-1.5-.6-1.5-1.6c-.1-1.5 1.4-2.3 1.6-2.8.2-.5.7-2 .7-2s1.3-1.2 2.5-1.5z"/><path fill="#F7C600" stroke="#000" stroke-width=".211" d="M179.2 104s-3.4 1.8-3.9 2c-.5.1-.8-.6-.3-.7.5-.1 1.3-.2 1.3-.2s-1.2-.9-1.1-1l1.6-.6s.5.9.8.9c.3-.1 1.2-.8 1.2-.8l.4.4z"/><path fill="#FFC6B5" stroke="#000" stroke-width=".211" d="M184 105c.3.4.5 1.1 1.2.7.7-.4-.4-1.2-.4-1.2l-.8.5zM185.4 104.9s.4.3.7 0c.3-.3-.6-1-.6-1l-.5.5.4.5zM186.9 62.3s1.2 3.5 1.3 4.4c.1.9.6 4.4.4 4.9-.2.5-2 2.9-2.2 3.5-.2.6-1.5 2.9-1.5 2.9s-.3 2.3-.5 2.4c-.1.1.4.7.3.9-.1.2-1 1.2-1.5 1.1-.4-.1-1.1-.6-1.1-1.1 0-.5 0-2 .4-2.4.3-.4 2-4.3 2.1-4.6s1.5-3.3 1.6-3.9c0-.5-.4-1.8-.9-2.2-1.1-3.2-.7-5.2 1.6-5.9z"/><path fill="#9C5100" stroke="#000" stroke-width=".211" d="M178.6 52.3s.8.1 1.2-.1c.4-.2.9-.4 1.3.1s.6.5.6.5-.5 1.3 0 1.5c.5.1.8.1.8.3 0 .2-.5.6-.3.7.1.2.4.4.4.5 0 .1-.3.7-.2.9.1.1.4.7.6.7.2 0 .1.9.7.7s.6-.8.6-.8.7-.1.9-.7c.2-.6.6-.7.6-.7s.9-.5-.3-1.2c0-5-3.3-4.4-3.3-4.4s-.4-.9-1-.8-.7.9-1.1.8c-.5-.1-.6-.4-.6-.4s-.4.7-.4.9c0 .2-1.2-.2-1.1.7 0 .9.6.9.6.8z"/><path fill="none" stroke="#000" stroke-width=".211" d="M184.3 60.3s-3.2 2-3.1 2.7M185 60.7l-.7.8M186 61.5s-1.6 1.3-1.3 2.1M178.6 60.2s-.5 1-.4 1.3c.1.3.9 1.5 1 2.3.1.7 0 1.3 0 1.3M177.8 61.9s.1 1.1.4 1.3c.2.2.8 1.2.9 1.6M177.5 66.6s.9.5 1.8-1.3M180.7 64.1s-.7 1.7.5 2.4c1.1.6 2 .6 2.5.4.5-.2 1-.5 1-.5M180.2 66.2s.1 2.3 3.5 4.6M180.3 68.4s0 2.1 1.3 3M179.6 66s-1 3.1-1.8 3.4M179.3 68.2s0 2.2-.3 3M178.7 71.7s.7.9 1.5.8c.8-.1 1.1-1 1.6-.9s1 .6 2.3.5M182.3 73.1s0 1.8.3 2c.3.2.2 1.8.2 1.8M178 72.2s0 1.7-.2 2.3c-.2.6-.6 1.6-.6 2.5M175.8 78.1c.2-.1.8-.6.8-.6M176.9 77.9s-1.5 6.5-1.1 10.4M177.3 78.2s-.8 4.9-.4 5.8M176.9 78l3 .2M180.3 77.9s.8.4 2 .4M179.9 80.2s-.1 8.4-.4 10.2M184.3 82.1s.9 7.3 1.5 8M182.5 83.1s.6 6.5.9 7.1M174.5 92.4s1.1-.4 2.1-1.4c1.1 1.5 2.9.1 2.9.1s2.7 1.8 3.9-.2c1.8 1.2 2.8-.2 2.8-.2s.7 1 1.2.9M184.3 92.3s1.4 6.5 3.4 8.3M177.2 91.6s.2 5.4.5 9.3M177 97.7s-.2 3.5-.4 3.8M174.9 101.9s.4 1.5 2.3.1c2-1.4 2 .5 2.1.7.1.2.4 1.7 1.1.5M182 101.1s-.3 3.2 2.5.9c2.8-2.3 3.3 0 3.3.7M182 51.1s-.2 1.6 1.4 1.4c-.2.9.4 1.1.4 1.1M185.1 54.6s.7.5 0 1M182.7 55.9s.4.4.7.3c.4-.1 1 .4 1 .4s.5.2.6.1M180.5 57.2s1.2.5 2-1.5M178.3 55.2h.7M170.4 77.6l.1 1.6M168.9 77.4s1 1.7.9 2.6"/><path fill="none" stroke="#000" stroke-width=".211" stroke-linejoin="round" d="M178.4 55.9h.6l-.6.2M182.3 80.9s.7-.1.7 1.2c.5-1.5 1.4-1.6 1.4-1.6"/><path fill="none" stroke="#000" stroke-width=".38" stroke-linejoin="round" d="M179.3 53.9c.1 0 .5-.1.6 0 0 .1-.5.1-.6 0z"/><path fill="#F7C600" stroke="#000" stroke-width=".423" d="M179.8 116.4c15-.4 24.7-11.2 24.6-11.3-.1-.1 2-3 3.6-2.6 1.7.4 4.1 5.3 7 6.3 2.6 4.1-4.3 7.2-4.9 4.7-.4-1.7-1.2-1.4-1.2-1.4s-13.3 13-28.7 12.5c-15.9.1-29-12.5-29-12.5-.5.6-2.2 2.6-3 2.5-.6-.1-3.3-1.9-3.5-3.6-.2-1.8 1.7-2.9 1.7-2.9s4.6-3.5 5.1-5.4c1-1 3 .7 3 .7s11.8 13.9 25.3 13z"/><path fill="none" stroke="#000" stroke-width=".423" d="M145.8 108.4c1.5-.4 1.3-.1 5.3 3.8M148.7 109.8l-1.2.9s3.1.6 2.4 2.7M213.8 108.3c-1.1-.6-3.2 1.9-5 3.9"/><path fill="none" stroke="#000" stroke-width=".423" d="M211 109.8l1.3 1s-2.8.2-2.2 2.8"/><path d="M161.7 111.7c-.1.2-.3 0-.5 0-.5 0-.9.3-1.3.5-1.4.8-2.7 1.6-4.1 2.4-.1 0-.1-.2-.1-.3.4-1.7.7-3.4 1.1-5.1.1-.3.2-.7-.1-.9-.1-.1.1-.3.1-.1l2.1 1.5c-.1.2-.2.1-.3 0-.3-.3-.6 0-.6.3-.3 1.1-.5 2.3-.7 3.4.9-.6 1.9-1.1 2.8-1.7.3-.1.6-.6.2-.9-.1-.1-.3-.3-.1-.3.5.5 1 .8 1.5 1.2zm1.5 7.2c0 .1-.1.2-.2.1-.8-.5-1.7-.9-2.5-1.4 0-.1.1-.2.2-.1.2.2.6.2.8-.1.3-.4 1.9-3.5 2.2-3.9.2-.3 0-.6-.3-.7-.1 0-.2-.1-.1-.2l2.6 1.4c0 .1-.1.2-.2.1-.2-.2-.6-.2-.8.1-.3.4-1.9 3.5-2.2 3.9-.2.3.1.6.5.8zm9.5-2.3c-.2.6-.4 1.3-.7 1.9-.3 0-.1-.4-.2-.6-.2-1.7-2.3-2.6-3.3-1.1-.6.8-.9 1.8-1 2.7-.1 1.1.9 1.8 2 1.8.2-.5.4-.9.5-1.4.1-.3-.3-.5-.5-.6 0-.1.1-.2.2-.1.8.3 1.6.6 2.5.9 0 .3-.4 0-.6.1-.3.1-.3.5-.4.7-.1.3-.2.6-.3.8-3 .2-4.9-1.7-4.6-3.6.1-1 .7-1.9 1.6-2.3 1.1-.6 2.6-.4 3.9.7.2.3.6.3.8 0 0 .1.1.1.1.1m4 6.5c0 .1 0 .2-.1.1-.9-.1-1.9-.3-2.8-.4 0-.1 0-.2.1-.1.2.1.6 0 .7-.2.1-.4.1-.8.2-1.2.2-1.1.3-2.2.5-3.3.1-.2 0-.5-.3-.6-.1-.1-.3-.1-.4-.1 0-.1 0-.2.1-.1.9.1 1.9.3 2.8.4 0 .1 0 .2-.1.1-.2-.1-.6 0-.7.2-.1.4-.1.8-.2 1.2-.2 1.1-.3 2.2-.5 3.3-.1.2 0 .5.3.6.1 0 .3 0 .4.1zm7.7-1.9c0 .7-.1 1.3-.1 2-1.7.1-3.4.2-5 .3 0-.1 0-.2.1-.2.3 0 .6-.1.6-.4 0-.5 0-1-.1-1.5-.1-1-.1-2-.2-3 0-.3-.2-.5-.5-.5-.1 0-.3.1-.3-.1 0-.1.1-.1.2-.1.9 0 1.9-.1 2.8-.1 0 .1 0 .2-.1.2-.3 0-.6.1-.7.4v1.3c.1 1 .1 2.1.2 3.1 0 .3.2.5.5.5.4 0 .8 0 1.2-.1.6-.1.9-.7 1-1.2.2-.2.1-.6.4-.6-.1 0 0 0 0 0m3.9-4.8c-.1 0-.1.2-.1.3-.2 1.7-.4 3.4-.7 5-.1.4-.1.8-.5 1-.1 0 0 .3.1.1.6-.2 1.1-.3 1.7-.5 0-.3-.3 0-.5-.1-.4 0-.4-.5-.4-.8 0-.2 0-.4.1-.6.6-.2 1.3-.4 1.9-.6.2.3.5.6.7.9.2.3-.2.5-.5.5-.1 0 0 .2.1.1.8-.3 1.7-.5 2.5-.8 0-.3-.4 0-.5-.2-.5-.4-.8-.9-1.2-1.3-.9-.9-1.8-2-2.7-3zm0 2c.5.5.9 1.1 1.4 1.6-.5.2-1.1.3-1.6.5 0-.7.1-1.4.2-2.1zm8.7-5.8c.2.5.5.9.7 1.4-.2.2-.3-.3-.6-.3-.6-.5-1-.2-1.7.1.7 1.4 1.5 2.7 2.2 4.1.1.3.5.4.8.2.1-.1.2-.1.2 0-.2.1-2.4 1.3-2.6 1.4-.1-.1 0-.2.1-.2.3-.1.5-.5.2-.8-.7-1.3-1.4-2.7-2.2-4-.4.2-.9.4-1 .9-.1.3.1.7.1 1-.1.1-.2 0-.2-.1l-.6-1.2c1.6-.9 3.1-1.7 4.6-2.5zm3.4-2c.5.6.9 1.2 1.4 1.9.3-.2.6-.6.5-1 0-.3-.4-.7-.3-.9.1-.1.2.2.2.2.5.7 1.1 1.4 1.6 2.1-.2.2-.4-.2-.6-.3-.3-.2-.7-.3-1.1-.1-.2.1-.2.2-.1.4.4.5.7 1 1.1 1.4.2.2.5 0 .8-.2.5-.4 1-.9 1-1.6 0-.3-.2-.6-.2-.9.1-.2.2.1.2.2.3.5.5.9.8 1.4l-3.9 3c-.2-.1 0-.2.1-.3.4-.2.3-.7 0-.9-.8-1.1-1.7-2.2-2.5-3.3-.2-.3-.6-.1-.8.1-.1.1-.2-.1-.1-.1 1.2-.9 2.5-1.9 3.7-2.8.3.4.7.9 1 1.3-.2.2-.4-.3-.7-.3-.5-.3-1.1 0-1.5.3-.2 0-.4.2-.6.4"/><path fill="#FFF" d="M70 24.4V0H50v24.4L13.4 0H0v8.9l26.6 17.7H0v26.7h26.6L0 71.1V80h13.4L50 55.6V80h20V55.6L106.6 80H120v-8.9L93.4 53.3H120V26.7H93.4L120 8.9V0h-13.4L70 24.4z"/><path fill="#F00" d="M54 0h12v32h54v16H66v32H54V48H0V32h54V0zM0 0l40 26.7h-8.9L0 6V0zm120 0h-8.9l-40 26.7H80L120 0zm0 80L80 53.3h8.9L120 74v6zM0 80h8.9l40-26.7H40L0 80z"/></svg>
