<svg xmlns="http://www.w3.org/2000/svg" width="240" height="160" viewBox="0 0 240 160"><path fill="#FFF" d="M0 0h240v160H0z"/><path fill="#188400" stroke="#000" stroke-width=".5" stroke-linecap="round" stroke-linejoin="round" d="M96.5 128.2l4.4-3.7s-1-2-4.5-1.9c-3.3-2.3-9-7.8-9-7.8l-2.8-7.7s2.3-.7 2.8-2.5c.5-1.9-.2-4.2-.4-4.4-.2-.2-2.5.4-3.2 1.3-.7 1-1.7 4.7-3.3 3.4-2.2-1.8 1.9-3.4 1.7-5.7-.1-1-2.1-4.2-2.3-4.3-1-.3-.9 8.5-3.9 5.8-1.2-1 .6-2.6.6-2.6s3.4-1.8.1-7.7c-.7 1.8-3.5 6.2-4.6 4.4-.8-1.3 1-2.6 1-2.6s2.9-1.7 3-4.3c.1-2.5-3.5-5.5-3.5-5.5-.3 6.4-3 6.8-4.2 5.8-2.2-1.8 5-6 4.6-9.5-.2-2.2-.4-2.6-.4-2.6s-2.9 1.8-3.3 2.7c-2.5 5.9-4.8 2.8-2.2-.4 0 0 1.4-1.6 1.3-2.2-.3-2.8-3.5-2.7-3.8-7.6-1 1.2-2.1 2.1-1.5 8.5.2 2.3-1.8-.7-1.8-.7l.4-7.5s-2.8-3.4-6.3-4.7c2.7 4-.2 5.3-.2 7.6 0 .8 1.6 4.4 4.7 6.8-4.6-5-10.4-3.4-12.1-4.3 5.4 6.3.2 5.5 7.4 8.6l5 .1s2.5 1.7 2.7 2.8c.2 1.1-3.6-2.1-5.1-2-1.5.1-5.5-.5-5.5-.5 3.6 3.4 2.4 5.9 5 7 1.4.6 5.2.8 5.2.8 2.1-1.3 3.2.8-.2 1.9-5.5 0-2.2-2.2-8-2.9-.4 3.1 2 6.2 2 6.2s10.1-.8 10 1.3c-.1 2.2-8.4.2-8.7-.4-.3-.7.4 4.3 2.3 5.3 3.6 1.9 9.3-1.2 9.3 1 0 1.1-9.9 2-10 1.7-.2-.3 1.5 3.8 5.5 3.6s5.7-1.4 5.7-1.4c3.2-.6 3.8 1.3.2 1.9 0 0-6.3.2-6.5-.2-.2-.3 1.4 4 5.8 3.9 3.3-.3 3.5-1.7 4.2-1.9 1-.2 3.1-.2 3.4-.1.3.1 5.5 3.7 5.5 3.7l13.5 13.5z"/><path fill="#00CEDE" stroke="#000" stroke-width=".5" d="M183.4 70.2s-1.4 20.4-1.5 20.4c-.1 0-3-3.6-3-3.6l-9 28.2 2.1 6.1-5.2 17.1-4.3-5.5-7 2.8 5.6-18.1 5.2-3.7 9.3-27.7-5.2.6 13-16.6z"/><path fill="#00CEDE" stroke="#000" stroke-width=".5" d="M203.2 78.6l-10.9 17.3c0-.1-1-4.5-1-4.5L173.4 108l-19.1 18.4-.1-3.8-6.5-.8 8.6-6.6 4.4-.7 27.9-25.2-4.9-1.9 19.5-8.8z"/><path fill="#00CEDE" stroke="#000" stroke-width=".5" d="M197.4 64s-5.3 19.8-5.4 19.7c-.1-.1-2.2-4.1-2.2-4.1l-21.5 37 .9 6.4-7.7 14.2-3.2-6.2-7.4 1.4 8.3-15 5.8-2.7 21.8-36.5-5.2-.4L197.4 64z"/><path fill="#FFD600" stroke="#000" stroke-width=".479" stroke-linecap="round" stroke-linejoin="round" d="M97.1 61.2s-4.8 5.2-7.2 1.3c-2.4-3.9 3.4-5 3.4-5 .1-.1 3.4-1.1 3.7-7.2.3-6.1-7.2-10-9.4-10.5-2.1-.5-8.3-.5-8.3-.5s-22.7-5.5-25.1-7.2c-2.3-1.7-23.8-5.6-23.8-5.6s-3.4-.5-3.1 2.6c.3 3.1 3.1 3.4 3.1 3.4s-2.4 1.9-2.1 3.6c.3 1.7 2.1 4.4 5.9 3.9-.4 6 7.9 6.9 7.9 6.9s.9 8.6 8.5 8.2c1.8 5.9 8.7 6.1 8.7 6.1s3.2 4 7.9 4.3c2.7 6.7 8.5 4.8 8.5 4.8s-.4 4.2 2.3 4.2c-1.4 4.8 3.8 5.5 5.8 4.5.5 1 2.3 4.2 6.3 2.2 2.4 3.6 6.4 1.9 6.4 1.9s.9 2.8 4.3 1.8c3.4-.9-3.8-23.6-3.7-23.7zm58.3.2s4.8 5.2 7.2 1.3c2.4-3.9-3.4-5-3.4-5-.1-.1-3.4-1.1-3.7-7.2-.3-6.1 7.2-10 9.4-10.5 2.1-.5 8.3-.5 8.3-.5s22.7-5.5 25.1-7.2c2.3-1.7 23.8-5.6 23.8-5.6s3.4-.4 3.1 2.6c-.3 3.1-3.1 3.4-3.1 3.4s2.4 1.9 2.1 3.6c-.3 1.7-2.1 4.4-5.9 3.9.4 6-7.9 6.9-7.9 6.9s-.9 8.6-8.5 8.2c-1.8 5.9-8.7 6.1-8.7 6.1s-3.2 4-7.9 4.3c-2.7 6.7-8.5 4.8-8.5 4.8s.4 4.2-2.3 4.2c1.4 4.8-3.8 5.5-5.8 4.5-.5 1-2.3 4.2-6.3 2.2-2.4 3.6-6.4 1.9-6.4 1.9s-.9 2.8-4.3 1.8c-3.3-1 3.8-23.6 3.7-23.7zm-14.1-3.8c0-1.1-.4-3.2-1.5-4-2.8-1.5-1.7-3.3.9-5.2-2.8-1.3-5.6-1-6.2-.4-.2.2-1.6-4.3-.7-5 .8-.7 2.6 1.7 2.6 1.7s1.1-2.6-2.9-7.7c1.4-9.8-7.8-12.1-9.9-12-1.7-.2-6.2 1.4-6.9 3.5-2.3.8-2.4 2.8-2.4 2.8s-4.7.8-5.3 4.9c3.6-3 4.8 1.8 8.2 2 2.8.1-5.5 8.6-5.5 8.6.1.2 2.3.8 2.2 1.9-.1 1-6.8 4.1-6.5 4.9 1.7-.5 3.1-.1 3.1-.1.2 1.7-.4 3.7-1.6 4.3l32.4-.2zm10.2 28.3s2.9 2.8 3 3.4c.1.6.8 3.4 1.5 3.8s3.8 2.8 4.2 3.8c.4.9 3.1 4.9 3.1 4.9s2.5 5.1 4.1 5.5c1.6.4 6.3-.3 7.2 1.9.9 2.2.7 5.5.7 5.5s-1.1 1-1.6.4-1.5 2.9-3.1 1.9c-2.2-4.8-8.1-4-8.1-4s1.3-2-3.9-3.8c-8.2 1.4-10.6-7.1-10.6-7.1l-4.7-4 8.2-12.2zm-50.7.8s-2.9 2.8-3 3.4c-.1.6-1.3 3-2 3.4-.8.4-3.4 3.1-3.8 4-.4.9-2.9 5.1-2.9 5.1s-2.9 4.2-4.5 4.6c-2 .2-5.9.6-6.8 2.8-.9 2.2.5 5.7 1.6 5.7 1.6.7 2.4 1.5 2.9.9.9.3.4 1 2 0-1.3-1.6-1.1-3.2.1-3.6 1.3-.4 3.3 1.5 3.3 1.5s.7-3.5 6-5.2c8.2 1.4 10.4-5.2 11-6.8 1.3-1.8 3.3-2.2 4.9-3.3l-8.8-12.5zm38.7 15.8s.3 3.6-1.2 5.1c6.8.4 10.4 7.3 10.5 9 .1 1.6-2.1 2.9-2.1 2.9s.7 2.9-2.1 3.4c.1 2.8-1.9 2.8-1.9 2.8s-.7 2.3-3 2.2c-.7 3.4-4.1 3.3-4.1 3.3s-2 4.9-5 3c-1.9 4.1-6.9 4-8.8 0-1-.1-3.4 1.3-4.8-2.8-3.1.5-4.3-3.4-4.3-3.4s-2.1-.2-2.9-2.3c-2.4-.5-2-2.9-2-2.9s-2.4-.7-2.4-3.4c-2-1.2-1.8-3.2-1.8-3.2s1.5-7.2 10.4-8.7c-1.4-2-1.2-4.9-1.2-4.9l26.7-.1z"/><path fill="none" stroke="#000" stroke-width=".5" stroke-linecap="round" stroke-linejoin="round" d="M164.4 113.9l-2.8 2.4m-7.2 6.2l3.7-3.2M61.3 78.4c-3.6-2.2-3.4-9.4-3.4-9.4m5.8 10.8c4-1.3 1.6-5 1.6-5M59.9 81c-7.3.3-7-3.8-7-3.8m13.9 6.4c2.9.2 4.1-2.8 4.1-2.8m-.6 10.9c3.8.1 3.3-3.9 3.3-4.3m-11.3 1.1c-2.2.2-7-2.8-7-2.8m7.5 9.1c-4.1.6-6.4-1.8-6.4-1.8m17.4 4.6c1.6-.3 2.4-2.6 2.4-2.9m-9.5 6.3c-4.7 1.3-6.5-1-6.5-1m17.8 2.8c1.9-.1 2.7-3.7 2.7-3.7m-.8 7.6c3.8.7 5.3-3.7 5.3-3.7m-12.4 7.6c-3.7 1.6-5.2.3-5.2.3m2.6-5.4c-4.5 2.4-6.4.8-6.7.8m32.9 21.9c-2.7-4.2.1-5.5.1-5.5m69.3-5l-7.6 13.3m13.2-13.9c.1-6.2-3.6-7-3.6-7m5.7 5.1c.2-6.2-3.8-6-3.8-6m-87.8 7.3c-1.8-5.6 2.7-6.4 2.7-6.4m-5.1 5.5c-1.7-6.1 3.2-6.2 3.2-6.2m4.2-57.1c.7-8.3-4.7-8.8-4.7-8.8m-11.4.7C51.7 42 61.9 35 61.9 35m35.8 44.1s-2.8.6-3.2-2.1c-4 1.2-5.3-2.7-5.3-2.7s-4.2-.2-4.1-3.8c-6 .1-6.1-5.2-6.1-5.2s-5 .2-3.5-4.1c-4.7-1.1-3.1-5.3-3.1-5.3s-7.8-1.3-3.7-5.3c-8.8-1.7-4-7.3-3.9-7.5m31.1 35.8c.9.7.7 4.5.7 4.5m-5.5-6.1c.6.6-1.1 3.9-1.2 4m-1.6-6.5l-4.5 4.5m1.1-8.8s-6.8 4.2-6.9 4.3m1.7-7.3c-.1 1.4-3.9 3-4 3.1m2.3-5.1c-1.6 2.1-10.8.1-10.8.1m7.4-4.6c-1.2 1.7-14.7.2-15.1.2M71 55.8c-4.5 2.3-20.2-.7-20.4-.7m16.5-4.6c-3.1 1.5-23.6-3.4-24-3.4m19.7-3.8c-3.1 2.3-27.4-3.4-27.5-3.4m22.1-1.2c-2 1.9-25.2-5.7-25.3-5.7m133.6 19.5c-.7-8.3 4.7-8.8 4.7-8.8m11.3.6c19.1-2.2 8.9-9.2 8.9-9.2m-35.7 44.2s2.8.6 3.2-2.1c4 1.2 5.3-2.7 5.3-2.7s4.2-.2 4.1-3.8c6 .1 6.1-5.2 6.1-5.2s5 .2 3.5-4.1c4.7-1.1 3.1-5.3 3.1-5.3s7.8-1.3 3.7-5.3c8.8-1.7 4-7.3 3.9-7.5m-31.1 35.8c-.9.7-.7 4.5-.7 4.5m5.5-6.1c-.6.6 1.1 3.9 1.2 4m1.6-6.6l4.5 4.5m-1.2-8.7s6.8 4.2 6.9 4.3m-1.6-7.4c.1 1.4 3.9 3 4 3.1m-2.4-5c1.6 2.1 10.8.1 10.8.1m-7.4-4.6c1.2 1.7 14.7.2 15.1.2M181.5 56c4.5 2.3 20.2-.7 20.4-.7m-16.4-4.6c3.1 1.5 23.6-3.4 24-3.4m-19.8-3.9c3.1 2.3 27.4-3.4 27.5-3.4m-22.1-1.2c2 1.9 25.2-5.7 25.3-5.7m-103.2 5s2.6-.2 2.8-1.5c.2-1.1-3.1-2.7-3.7-2.9l-2-2.4m5.6.2c2.2-.5 5.1 1.5 5.1 1.5s.3 1-2 1.2-2.9-2.5-2.9-2.5l-3.3-3.2m33.3 68.1l.3 3.1-3.6-1.7m7.2-1.5l1.4 2.7-3.4-1.6m1.5-6.1l1.5 3.4-3.3-1.8m11.5 9l-5.8-1.5 2.4 5.1-6.4-1.2c-.1 0 3.7 4.9 3.7 4.9m-55-12l-.3 2.7 3.8-2m-6.9-1.7L97 99.2l3.6-1.6m-1.9-5.3l-1.1 2.3 3.1-1.3m-11.1 8.6l5.2-1-1.9 5s5.9-1.2 6-1.2c.1 0-2.8 3.6-3.4 4.7m47.3 16.3s-6.2-15-12.1-13.4c3-.6 2.1-4.5 2.1-4.6m11.9 15.2s-2.2-9.9-11.7-12c2.6-1.5 1.8-4.6 1.8-4.6m11.8 13.1s-2.6-10.4-11.7-9.7c3.5-.7 1.9-4.9 1.9-4.9m-1.1 26.5s-1.7-17.5-7-18c2.8-.9 1.3-3.8 1.3-3.8m.7 24.8s1-22.6-4.5-19.6c2.7-1 1.9-4.2 1.9-4.2m-6.4 23.8s-1-21 4.1-19.6c-2.6-.7-1.4-4.1-1.4-4.1m-7.4 20.9s2.1-20.8 7.3-17.5c-3.1-1.6-2.3-4.7-2.3-4.7m17.7 18.7c.1-6.7-9.4-15.8-9.4-15.8m-12.8-2.3c-3.4-.1-2.2-4.9-2.2-5m4.2 6c-2.7-.2-1.8-4.1-1.8-4.3m4.5 5.7c-4-.5-2.4-4.5-2.4-4.5m-7 20.3c1.2-8.4 9-15.7 9.1-15.7m-12.1 13.3c.7-7.9 10.6-14 10.6-14m-12.6 11.1c-.5-5.8 10.5-12.2 10.5-12.2m-12.8 8.9c2-8.8 10.2-10.3 10.2-10.3"/><path fill="#FFF" d="M98.4 53c9.9 5.5 16 5.3 27.7.2 9.8 5.5 17 4.2 28.3-.2 5.1 25.3-6.5 48.1-28.3 58.3C103 100.7 91.7 75.2 98.4 53z"/><path fill="#BE0A2F" d="M101.3 71.4v15.8l4.5 7.6V71.4h-4.5zm9 0v28.7l4.5 4.2V71.4h-4.5zm9 0v36.3l4.5 2.5V71.4h-4.5zm31.4 0v15.8l-4.5 7.6V71.4h4.5zm-9 0v28.8l-4.5 4.1V71.4h4.5zm-8.9 0v36.2l-4.5 2.7V71.4h4.5z"/><path fill="#002768" d="M98.4 53c9.7 5.4 16 5.3 27.7.2 9.8 5.5 17 4.2 28.3-.2 1.2 7.4 1.9 11.1.8 18.4H96.8c-.7-7.3-.7-10.6 1.6-18.4z"/><path fill="none" stroke="#000" stroke-width=".5" d="M155.2 71.4H96.8M98.4 53c9.9 5.5 16 5.3 27.7.2 9.8 5.5 17 4.2 28.3-.2 5.1 25.3-6.5 48.1-28.3 58.3C103 100.7 91.7 75.2 98.4 53z"/><path fill="#00CEDE" stroke="#000" stroke-width=".5" d="M12.1 60.2l13 .1-1.3 3.1 5.7 22.4 6.8-22.4-2.4-3.2h13.5l-2.9 3.1-11.2 32 2.9 4.2h-13l2.9-4.2-10.8-31.8-3.2-3.3zm199.2.8h12.3l-2 2.8-.1 32.6 2.8 3.1h-13l2.6-3.3-.1-32.3-2.5-2.9z"/></svg>
