<svg xmlns="http://www.w3.org/2000/svg" width="240" height="160" viewBox="0 0 60 40"><path fill="#D21034" d="M0 0h60v20H0z"/><path fill="#009543" d="M0 20h60v20H0z"/><path d="M0 0l38.8 20L0 40V0z"/><path d="M0 16.4h60v7.2H0z"/><path fill="#FDCE12" d="M60 19v2H31.2L0 37.2V2.8L31.2 19"/><path d="M0 5.2L28.7 20 0 34.8V5.2z"/><path fill="#FDCE12" d="M14 19.7c0 4.9-3.9 6.4-5.9 6.4v-2.3c2.4 0 3.9-2.4 3.9-4.3s-1.6-3.8-3.7-3.8-3.3 2-3.3 3.5 1.3 3 3.3 3c2 0 3-1.8 3-2.6.3 3-2.5 3.7-3.2 3.7-.7 0-4.5-.4-4.5-4.4S7.4 14 8.7 14c1.1-.1 5.3.8 5.3 5.7zm-4 .8l-.1-.1s-.7-.2-.8-.4c-.1-.2.6.2.7.2l-.1-.1s-.7-.2-.7-.4c-.1-.2.4.1.5.1 0-.1-.1-.1-.1-.2 0 0-.7-.2-.8-.4-.1-.2.6.2.6.2l-.2-.3s-.4-.1-.7-.2c-.2.2-.7.2-.7.2l-.2.2s.7-.4.6-.2c-.1.2-.8.4-.8.4 0 .1-.1.1-.1.2.1-.1.6-.3.5-.1.1.2-.6.4-.6.4l-.1.1s.7-.4.7-.2c-.1.2-.8.4-.8.4l-.1.1s.7-.4.7-.2-.7.4-.8.4c-.1.2-.1.3-.1.3l-.1-.1c.1-.1.2-.2.2-.4 0 0-.3-.6 0-.9.3-.3.1.7.1.7l.1-.2s-.2-.7 0-.9c.2 0 .1.9.1.9l.1-.2s-.1-.7.1-.8c.2-.1.1.7.1.7s.1-.1.1-.2c0 0-.1-.7.1-.8.2-.2 0 .6 0 .6l.2-.2s-.1-.6.1-.8h.2v-.1c-.2 0-.4-.1-.5-.2-.1-.2.4-.1.5 0l-.1-.1s-.6 0-.7-.1c-.1-.1.5 0 .5 0-.1-.1-.1 0-.1-.1 0 0-.6 0-.7-.1-.1-.1.4 0 .5 0l-.1-.1c-.1 0-.9-.1-.8-.2.1-.1.5.1.7.1-.2-.1-.6-.3-.5-.5.1-.2.4.4.4.4l.2.1s-.4-.5-.2-.4c.2 0 .4.5.4.6l.1.1c0-.1-.4-.6-.2-.5.2.1.4.6.4.6l.1.1c0-.1-.3-.6-.1-.5.1 0 .2.6.2.6s.1 0 .1.1c0 0-.3-.7-.1-.6.2.1.2.7.2.7l.1.1v-.1c-.1-.2-.1-.4 0-.3 0 0 0 .1.1.1 0 0 0-.1.1-.1.1-.1.1.2 0 .3v.1l.1-.1c0-.1.1-.7.2-.7.2-.1-.1.6-.1.6.2-.1.2-.1.3-.1 0 0 .1-.6.3-.6.2-.1-.1.5-.1.5l.1-.1s.2-.6.4-.6c.2-.1-.2.5-.2.5l.1-.1s.2-.5.4-.6c.2 0-.2.4-.2.4l.2-.1s.3-.5.4-.4c.1.2-.4.4-.5.5.1-.1.6-.3.7-.1.1.1-.7.2-.8.2l-.1.1c.1 0 .6-.1.5 0-.1.2-.7.1-.7.1l-.1.1s.6-.1.5 0c-.3.2-.9.2-.9.2l-.1.1c.1 0 .6-.1.5 0-.1.1-.3.1-.5.2v.1h.1s0-.1.1 0c.2.1.1.7.1.8l.2.2s-.2-.8 0-.6c.2.2.1.8.1.8s.1.1.1.2c0 0-.1-.8.1-.7s.1.8.1.8l.1.1s-.1-.9.1-.7c.2.2 0 .9 0 .9l.1.2s-.1-1 .1-.7c.3.3 0 .9 0 .9.1.1.2.2.2.4l-.1.1s-.1-.1-.1-.3c0 0-.8-.2-.8-.4 0-.3.7.1.7.1zm-1.2-2v.3l.1.2s0-.3-.1-.5c.1 0 0 0 0 0zm-.2-.2s-.1 0 0 0c-.1 0-.1.1 0 0-.1 0-.1.1-.1.1s.1 0 .1-.1c0 .1 0 .1 0 0zm-.5.1c.1 0 .1 0 0 0 .1 0 .1 0 0 0 .1 0 .1-.1 0 0 .1-.1.1-.1 0 0zm-.3.6l.1-.1v-.3s-.1 0-.1-.1c.1.2 0 .5 0 .5zm1-.1l-.2-.2H8c.1.1 0 .1 0 .2.3-.1.4-.1.8 0z"/></svg>
