<svg xmlns="http://www.w3.org/2000/svg" width="240" height="160" viewBox="0 0 240 160"><path fill="#244AA5" d="M0 0h240v160H0z"/><path fill="#D0A650" d="M96.2 75.2c2.4 1.1 4.7-.2 6.7-2.2-7.2-4.8 4.4-6.6 6-9.1 2.4-3.8-.5-6.8-3.3-11 4.6.8 5.8-3.9 9.9-2.3 1-2.9 2.9-.8 4.3 2.1-.6 0-1.2.1-1.8.1-.4.8.6 1-.9 1.8 4.1 2.2 9.6 5.2 13.1 3.1 3.5 2.1 1.4 5.3 4.5 8.3 2.9-4.4 2.9 4.8 4.8 6.5.3.2 6.8 1.5 7.6 1.6-.8 3.1-1.2 5.2-2.5 7.7 6-.4 9.8 2 13.7 5.2 1-1.4 3.3-2.5 4.8-1.1 3 2.8-.3 2.2-.7 4-.5 2.7-1.2 4.7-2.2 6.7-6.6 2.4-1.2 9.2-8.9 9.3-.3 3 4.4 5.6 1.6 7.5-.6.4-4-2-5.6-2 .2 3-10 4.8-5.8 10.5-.2 0-4.2 1.3-4.9.8-2.2-1.4-1.1-5.7-3.8-6.6-3.6-1.3-8.6 4-11.7 5.5-4.2 1.9-12.3 5.3-5.9 12.1-2.9 3.6-4.8 2.8-8 4.3-.7-.7-2.1-3.1-2.3-4.1 7-3.2-5.9-22.5-10.4-24.6-1.2-.6-3.3-.2-4.5-1.1-2.1-1.5-.7-1.8-2.2-4.2-2-3.1-10.4-11.6-5.6-16.7-1.7-.4-6-1.4-6.6-3.2-1.3-4.7 6-3 8.1-3.6 4.2-1.1 6.5-2.9 12.5-5.3z"/><path fill="#FFF" d="M140.3 29.5l-14.8 10.7 5.6-17.4 5.6 17.4L122 29.5m40.3 3.9l-14.8 10.7 5.6-17.4 5.6 17.4L144 33.4m39.2 7.6l-14.8 10.7 5.6-17.4 5.6 17.4L165 41M99.7 29.5l14.8 10.7-5.6-17.4-5.6 17.4L118 29.5m-40.3 3.9l14.8 10.7-5.6-17.4-5.6 17.4L96 33.4M56.8 41l14.8 10.7L66 34.3l-5.6 17.4L75 41"/></svg>
