<svg xmlns="http://www.w3.org/2000/svg" width="240" height="160" viewBox="0 0 240 160"><path fill="#198A00" d="M0 0h240v160H0z"/><path fill="#EF7D00" d="M211.4 57.1H240V160h-28.6z"/><path d="M182.9 57.1h28.6V160h-28.6z"/><path fill="#DE2010" d="M154.3 57.1h28.6V160h-28.6z"/><path fill="#EF7D00" d="M230.2 21.2c4.1-2.3 4.7-4.4 4.6-4.5.1-.4-2.7 1.6-7.6 3.8 6.1-3 6-5.5 5.8-5.5-1-.1-4.7 2.6-9.6 4.7 4.5-2.1 6.7-4.7 6.4-5.1-1 .8-10.8 4.6-10.8 4.6s2.4-2.3 1-2.1c-1.6 1.1-7.5 2.3-9.4 2.6-1.2.4-4.8 1.6-5.5 1.5-6.4-.4-8 .4-8 .4.5 0 0 .7-.2-.3-.9-2 .3-2.6 1-2.7.6-.1.8 0 1.2-.2l-.9-.3c.7.2 1.7.1 1.4 1.1.7-.3 2.3-2-1.8-2.3-1.3-1.4-6.7-2.2-8.1 3.9.1.1.2.2.5.4-1.7-.8-6.3-1.3-8-1.6-4.5-1.2-9.2-4.1-9.6-3.7-.6.2 2.7 3.1 2.5 3.1-2.9-1.5-5.5-2.6-8-3.6-1.7-.6-3.4-2-3.6-1.7-.6 1.2 2.8 4.2 3.4 4.6.6.3 5.6 2.5 5.5 2.5-7.5-3.1-8.7-3.7-9.1-4-.7-.1-2.3-2.1-2.7-2-.6.5.7 3.6 4.5 5.1-.8-.3-1.4-.5-1.5-.6-1.6-.6-3.5-2.5-3.8-2.3-.3.2.9 2.3 2.5 3 .5.2 2 .9 3.7 1.5-1.5-.6-3.3-1.2-4.5-1.7-1.2-.6-1.7-1.3-1.9-1.2-1.5.9 5.9 5.3 8.8 5.1-.1 0-2 .1-2 .3-.1.2.5 1.3 4.8 1.1.5 0 3.5-1 3.2-.8-.1.1-4 1.3-4.3 1.3-.3 0-1.6.2-1.7.3-.1.2 1 1 3.3 1.1 2 .1 5.8-1.1 5.8-1-.1.1-3.7 1.2-3.8 1.3-.1.1-1.5.1-1.5.2-.1.2 1.9 2 7.9.1-.6.7-3.5 1.2-3.5 1.4 0 .1.6.7 1.6.9.5.1 1.2.1 1.8 0 1.1-.2 2.3-.6 3.8-1.9.2.4-3.8 2.2-3.6 2.4.9.7 3.7-.1 3.9-.2.2-.1 5.5-2.8 5.5-3.2.1.4-6.9 3.9-6.8 4 .4.7 2.8 0 2.9-.1.1-.1 3-1.5 3.1-1.5.1 0-3.4 1.9-3.1 2.2-.1 1.1 3.9-.3 5.4-.9-.8.4-2.2 1.1-2.2 1.6.9 1.5 4 1 4.4.7.2-.2-.3 1.1-.1 1 .1 0 .7-.7.9-1.1-.1.4-.4 1.1-.6 1.8-.2.7-.2 1.6-.5 2.5-.1.3 1.4-.5 1.6-2.5-.1 1.4-.6 3.1-.4 3.2.1.1.3 0 .5-.2l-.1.1c0 .3-.3 1.7-1.9 1.7-2 0-2 1.6-2 1.6s-.2.1-.1.9c.3-.5.5-.7.5-.7.2 0 1.1.3 2.6-.7-1.3 1.2-.5 1.7-.5 1.7s-.3 1 .7 1.2c-.3-.4-.1-.7-.1-.7s1.4-.1 1.3-1.7c.1 1.4.9 1.8.9 1.8s0 .8.9.8c-.5-.4-.4-1-.4-1s1.2-.8.2-2.1c.2-.1.3-.2.5-.4v.4c0 .8 0 1 .6 1.5-.2-.5-.1-.9-.1-.9s.8.4 1.6-.8c-.5 1.2-.2 1.6 0 1.7.1.2-.2 1.2.9 1.2-.4-.4-.2-.9-.2-.9s1.1-.2.7-2.1c.4-.4.6 0 .6 0s.1 1.1 1.1.9c.5.2-.1.8-.1.8s.7 0 .9-.5c.2-.6.5-1.6-.7-2-.1-.4.5-.4.5-.4s.8.2 1 .6c.2.3.1-.9-.8-1-1.2 0-1.2-.2-1.2-.3 0 0 0-.4-.1-.9.9.6 1.9.8 1.9.7 0-.2-2-2.6-1.5-3 .5.1 1.3 1.2 2 .9-.2-.4-.8-.2-1.5-1.3-.1-.2-.2-.5-.3-.7.1.1 1.5 1.5 2.9 1.4.5-.4-1.1-1.3-1.1-1.5.6.5 2.9 2.3 4.5 1.7.6-.8-1.1-.7-2.9-2.8 1.3.8 4.5 2.5 6.1 1.9.4-.4-1.1-1.4-2.6-2.4l1.2.6c1.4.6 3-.2 3.1-.4 0-.2-.6-.3-1.5-.5 1.8.2 3.2-.1 3.3-.4-.1-.2-.3-.3-1.9-.7 3.6 0 6.4-2 6.4-2s.9-.3-.6-.3c10.8-1.3 12.6-5.9 12.4-5.9-.4 0-1.9 1-4.2 2.1 4.3-2.1 6.5-4.8 6.3-5 .1-.4-1.6.3-3.7 1.3zm-30.6 17.6c-.1.1-1.3-.1-2.1.3-.2-.1-.8-.3-1.1-.5-.2-.3 0-2.3 0-2.3.3.4.6.8.9.9-.1-.8 0-.8-.3-1.6.2-1.1.2-2.6.2-4.3 1.6 2.9 2.3 4.1 1.8 6.2.2.1.4-.2.6-.5l.1 1.4c.2.1 0 .3-.1.4z"/><path fill="none" stroke="#000" stroke-width=".257" stroke-linecap="round" stroke-linejoin="round" d="M219 19.2s9.8-3.9 10.8-4.6c.4.5-3.9 5.3-12.4 7.1 7.7-1.7 14.3-6.9 15.6-6.8.4.1.3 5.1-17.4 9.5 12.2-2.9 19.3-8.3 19.2-7.7.1.1-1.2 4.2-11.9 7.5 3-.6 11.1-5.2 11-4.3.3.4-7.8 9.9-22.5 6.8 11.7 2.8 19.3-3.9 20.3-3.8.2 0-2.2 5.9-16.9 6.2 7.1-.7 5 0 5 0s-4.2 3-9.2 1c3.9 1 4.4 1 4.5 1.4-.2.3-1.5.6-3.3.4m-1.4.7c1.4.6 3-.2 3.1-.4 0-.2-.6-.3-1.5-.5m-17.5 6c.1-.5.1 1.7-1.9 1.7s-2 1.6-2 1.6-.2.1-.1.9c.3-.5.5-.7.5-.7.2 0 1.1.3 2.6-.7-1.3 1.2-.5 1.7-.5 1.7s-.3 1 .7 1.2c-.3-.4-.1-.7-.1-.7s1.4-.1 1.3-1.7c.1 1.4.9 1.8.9 1.8s0 .8.9.8c-.5-.4-.4-1-.4-1s1.2-.8.2-2.1c.2-.1.3-.2.5-.4m-.7-3.8s-.2 1.9 0 2.3c.3.2.9.5 1.1.5m4.9-5.3s1.5 1.5 2.9 1.4c.5-.4-1.1-1.3-1.1-1.5.6.5 2.9 2.3 4.5 1.7.6-.8-1.1-.7-2.9-2.8 1.3.8 4.5 2.5 6.1 1.9.6-.6-3.1-2.5-4.6-4 1 .3 3.3.6 3.7 0-1 .1-11.3-6.7-8.1-4.7 3.2 2 10.3 5.9 12.1 3.5-.7-.8-5.5-.5-10.7-4.9 4 2.6 6.1 2.1 7.3 1.6-1-.6-1.9-.8-3.6-2 .6.8 7.1 1.5 6.9 1-.1-.4-.2-.4-4.1-1.5 1.4.7 5.6 1 5.4.4-.7-.6-.8-.5-2.9-1.1 0 0 4.4 1.8 6.6-.9-1.7.5-6.9-.5-7-.6m-15.5.8c-.2-.2-.3-.4-.3-.4s1.6-.9 8-.4c.7.1 4.4-1.2 5.5-1.5 1.9-.3 7.8-1.5 9.4-2.6 1.1-.1-.3 1.9-1.7 2.4-1.5.6-7 2.4-9 2.1 2.3 0 1 1.8-2.9 1 1.9 1 1.2 1.1 1.2 1.1s-3.3.2-4.2-.5c2.2.8 1.3 1 1.3 1s-2.3.2-3.3-.2c1.6.4.8.7.8.7s-1.3.2-2.4-.2c-.1 0-.1 0-.2-.1m.2 12.6l.1 1.4s-.1.2-.2.3c-.1.1-3-.4-2.6 1.6 0 .8 0 1 .6 1.5-.2-.5-.1-.9-.1-.9s.8.4 1.6-.8c-.5 1.2-.2 1.6 0 1.7.1.2-.2 1.2.9 1.2-.4-.4-.2-.9-.2-.9s1.1-.2.7-2.1c.4-.4.6 0 .6 0s.1 1.1 1.1.9c.5.2-.1.8-.1.8s.7 0 .9-.5c.2-.6.5-1.6-.7-2-.1-.4.5-.4.5-.4s.8.2 1 .6c.2.3.1-.9-.8-1-1.2 0-1.2-.2-1.2-.3 0 0 0-.4-.1-.9m1.9.6c0-.2-2-2.6-1.5-3 .5.1 1.3 1.2 2 .9-.2-.4-.8-.2-1.5-1.3-.7-1.3-.8-3.2-3.2-5.2 1.5 2.2 5 3.5 5.2 2.8.1-.6-3.1-3-2.9-3.6.6 1.2 3.9 3.8 6.3 3.6.2-.5-2-1.5-2.5-2.5-1.5-.9-5.6-4.2-5.7-4.9-1.5-2-2.4-2.6-2.8-2.8-.2-.2-.2-.4-.2-.5-.9-2 .3-2.6 1-2.7.6-.1.8 0 1.2-.2-.5-.2-1-.3-1.5-.5.7.4 2.3.1 2 1.3.7-.3 2.3-2-1.8-2.3-1.3-1.4-6.7-2.2-8.1 3.9.1.1.2.2.5.4-1.7-.8-6.3-1.3-8-1.6-4.5-1.2-9.2-4.1-9.6-3.7-.6.2 2.7 3.1 2.5 3.1-2.9-1.5-5.5-2.6-8-3.6-1.7-.6-3.4-2-3.6-1.7-.6 1.2 2.8 4.2 3.4 4.6.6.3 5.6 2.5 5.5 2.5-7.5-3.1-8.7-3.7-9.1-4-.7-.1-2.3-2.1-2.7-2-.2.2.2 3.4 3.8 4.8.6.4 7.6 2.7 7.6 2.9 0 0-8.1-3.1-8.4-3.2-1.6-.6-3.5-2.5-3.8-2.3-.3.2.9 2.3 2.5 3 .8.3 4 1.8 6.8 2.7.2.1-5.1-1.8-7.7-2.8-1.2-.6-1.7-1.3-1.9-1.2-.3.2.4 3.3 8.6 5.1.2.1 2.9-.6 2.8-.5 0 0-2.6.5-2.9.5-.2 0-1.7.2-1.7.2-.1.2.5 1.3 4.8 1.1.5 0 3.5-1 3.2-.8-.1.1-4 1.3-4.3 1.3-.3 0-1.6.2-1.7.3-.1.2 1 1 3.3 1.1 2 .1 5.8-1.1 5.8-1-.1.1-3.7 1.2-3.8 1.3-.1.1-1.5.1-1.5.2-.1.2 1.9 2 7.9.1-.6.7-3.5 1.2-3.5 1.4 0 .1.6.7 1.6.9.5.1 1.2.1 1.8 0 1.1-.2 2.3-.6 3.8-1.9.2.4-3.8 2.2-3.6 2.4.9.7 3.7-.1 3.9-.2.2-.1 5.5-2.8 5.5-3.2.1.4-6.9 3.9-6.8 4 .4.7 2.8 0 2.9-.1.1-.1 3-1.5 3.1-1.5.1 0-3.4 1.9-3.1 2.2-.2 1.2 5.5-.9 5.9-1.1.2-.1-2.7 1.2-2.7 1.8.9 1.5 4 1 4.4.7.2-.2-.3 1.1-.1 1 .1 0 .7-.7.9-1.1-.1.4-.4 1.1-.6 1.8-.2.7-.2 1.6-.5 2.5-.1.4 1.9-.8 1.6-3.5.2 1.4-.6 4.1-.4 4.2.4.3 1.5-1.3 1.6-2.4.3.5 1 1.7 1.6 2-.1-.8 0-.8-.3-1.6.2-1.1.2-2.6.2-4.3 1.6 2.9 2.3 4.1 1.8 6.2.5.2 1.3-1.5 1.2-2.4.7 2.1 3.4 2.5 3.5 2.4zm-27.1-18.1s-1.1.8-2.5.7c.3 1.3 3.2.3 3.2.3s-1.4 1.4-2.4 1.6c.6.5 3.1.3 3.5.1.4-.2 1.2-1.1 1.2-1.1s-2.6 2.7-2.9 2.7c0 .3 2.7.2 3.2-.3.6-.5 2-1.2 2-1.2S178.2 25 178 25c1.4.3 4.2-.4 6-1.4-2.7 1.6-2.9 1.9-4.2 2.5 1.2.2 1.8 1 5.9-.6 2.3-1 3.7-2.9 3.7-2.9-1.4 1.8-3.7 3.3-6.3 4.8-.1.3 2.7 1.4 6.3-2.1m7 2s.2 1.1 1.2 1.9c1 .8 1.1 1.6 1.1 1.6m-2.8-10.4s.3.9 1.3 1.6c1 .6 2.6 2.5 2.7 2.9.1.4.7 3.4.7 3.7m-11-6.7c.1.4-1.4 2.2.6 4.3-1.9 2.1-1.9 2.4-1.9 2.4s1.1.5 2.9-.9c3.1 3.5 2.1 5.1 2.1 5.1m-.2-2.5s-.3-.4.2-1.8c.5.5 1 .6 1.2.8.2.2 2.6.5 2.7 2m-1.3-14.2c0-.1-.5-1-2.2.1.9.1 1.9.6 2.2-.1zm18.2 8.8c-.6.1-2.4.1-2.7 0m-36.3-6.8s4 1.9 5.6 1.8c-.4.4-1.1.5-1.1.5.4.2 1.6.7 3.3.4-.4.4-1 .8-1 .8s1.5.5 3.2-.3c-.5.6-.8 1-.8 1l1.2.1"/></svg>
