<svg xmlns="http://www.w3.org/2000/svg" width="240" height="160" viewBox="0 0 240 160"><path fill="#319208" d="M0 0h240v160H0z"/><path fill="#FFD200" d="M0 22.9h240v114.3H0z"/><path fill="#DE2010" d="M0 45.7h240v68.6H0z"/><path d="M0 68.6h240v22.9H0z"/><path d="M5.8 0l106.7 80L5.8 160H0V0h5.8z"/><path fill="#FFF" d="M0 0l106.7 80L0 160"/><path fill="#DE2010" d="M58.6 83.9l23.2-16.5-26.7-3.8-11.9-24.2-12 24.2-26.7 3.8 23.2 16.5-5.1 24.4 20.6-11.8 20.5 11.8"/><path fill="#FFC618" d="M68.9 82c1.3.2 2.3.3 2.6.3-1.1-1.1-21.1-15.9-25.2-18.9-4.1-3-5.2-4.3-5.2-4.3s-3.7-6.7-5-8.6c-1.3-1.9-3.6-4.7-6.7-4.7s-5 1.8-5.9 5c-.5.1-3.1 1.7-3 3.4.8-.1 5.6-1.4 7.2 4 1.7 5.4 1.7 14.3 0 18.7-1.7 4.4-4.3 7.7-4.3 11.6 0 .5.4 1.6 1.3 1.6.3 1.7 2.8 13.8 2.8 13.8h35.8L68.9 82z"/><path fill="none" stroke="#000" stroke-width=".3" d="M36.4 70c2.5 5.5 3.1 5.8 9.4 8 6.3 2.2 24 4.2 25.7 4.4-1.1-1.1-21.1-15.9-25.2-18.9-4.1-3-5.2-4.3-5.2-4.3s-3.7-6.7-5-8.6c-1.3-1.9-3.6-4.7-6.7-4.7s-5 1.8-5.9 5c-.5.1-3.1 1.7-3 3.4.8-.1 5.6-1.4 7.2 4 1.7 5.4 1.7 14.3 0 18.7-1.7 4.4-4.3 7.7-4.3 11.6 0 .5.4 1.6 1.3 1.6.3 1.7 2.8 13.8 2.8 13.8h35.8L69 82m-44.4 8.1s7.6-.4 9.7-.4c2.1 0 21.2 0 32 2.5m-39-2.2s-.8-.9-.3-2.8c.5-1.8 5.9-6.6 5.9-13.3m-1 15.8s-.6-3 6.2-5.6c1.9-.6 7.4-3.7 7.6-6.2m-8.3 6.5s16.8.1 30.1 2.8m-25.9-4.8s5.8.2 6.7-.1c.9-.3 2.6-1 3.3-2.9m-6.5 3.1s3.1-1.6 3.7-3.7M35.7 104s-1.3-9.2-1.6-14.3l3.5 3.3 3.7-3.2 3.1 3.3L48 90l3.1 3.5 3.6-3.1 2.9 3.3 3.6-2.6 4.3 4m-.8 3.1c-12.8-1.8-29.9-1.7-29.9-1.7m-6-31.7s10.4-5 12.3-5.7m-6.7 34.2l3.5 3.2 3.2-3.2 3.2 3.3 3.5-3.1 3.2 3.3 3.6-3 2.9 3.4 3.6-2.7 3.8 3.3M44.4 85.9c.8 0 1.4.6 1.4 1.4s-.6 1.4-1.4 1.4c-.8 0-1.4-.6-1.4-1.4s.6-1.4 1.4-1.4zm5.8.4c.8 0 1.4.6 1.4 1.4s-.6 1.4-1.4 1.4c-.8 0-1.4-.6-1.4-1.4s.7-1.4 1.4-1.4zM28.4 49.1c.6 0 1.1.5 1.1 1.1s-.5 1.1-1.1 1.1c-.6 0-1.1-.5-1.1-1.1s.5-1.1 1.1-1.1z"/></svg>
